<?xml version="1.0" encoding="UTF-8"?>
<svg width="120px" height="120px" viewBox="0 0 120 120" version="1.1" xmlns="http://www.w3.org/2000/svg" xmlns:xlink="http://www.w3.org/1999/xlink">
    <!-- Generator: Sketch 63.1 (92452) - https://sketch.com -->
    <title>icon/transfer@3x</title>
    <desc>Created with Sketch.</desc>
    <defs>
        <rect id="path-1" x="0" y="0" width="120" height="120"></rect>
    </defs>
    <g id="icon/transfer" stroke="none" stroke-width="1" fill="none" fill-rule="evenodd">
        <g id="icon/question/green">
            <mask id="mask-2" fill="white">
                <use xlink:href="#path-1"></use>
            </mask>
            <g id="Mask"></g>
            <g id="transfer" mask="url(#mask-2)">
                <g transform="translate(38.000000, 29.000000)" id="Group">
                    <g>
                        <g transform="translate(0.000000, 21.800000)" fill-rule="nonzero" id="Path" stroke="#36F2B9" stroke-width="0.5">
                            <polygon points="0.0344 5.2796 8.8612 0.1498 19.2262 6.1338 10.3992 11.2636"></polygon>
                            <polygon points="25.5648 20.0196 34.3918 14.8898 44.7566 20.874 35.9296 26.0036"></polygon>
                        </g>
                        <polygon id="Path" stroke="#36F2B9" stroke-width="0.5" fill-rule="nonzero" points="35.9296 47.8036 44.7566 42.674 26.738 57.0702 17.911 62.2"></polygon>
                        <polygon id="Path" stroke="#36F2B9" stroke-width="0.5" fill-rule="nonzero" points="25.5648 13.9366 34.4708 8.8072 34.3918 36.6898 25.5648 41.8196"></polygon>
                        <polygon id="Path" stroke="#36F2B9" stroke-width="0.5" fill-rule="nonzero" points="10.3992 5.1808 19.305 0.051 34.4708 8.8072 25.5648 13.9366"></polygon>
                        <polygon id="Path" fill="#36F2B9" fill-rule="nonzero" points="25.5648 13.9366 25.5648 41.8196 35.9296 47.8036 17.911 62.2 0.0344 27.0796 10.3992 33.0636 10.3992 5.1808"></polygon>
                    </g>
                </g>
            </g>
        </g>
    </g>
</svg>