<?xml version="1.0" encoding="UTF-8"?>
<svg width="140px" height="140px" viewBox="0 0 140 140" version="1.1" xmlns="http://www.w3.org/2000/svg" xmlns:xlink="http://www.w3.org/1999/xlink">
    <!-- Generator: sketchtool 62 (101010) - https://sketch.com -->
    <title>FD5374DB-A062-4D57-98BC-9472979697D8@1x</title>
    <desc>Created with sketchtool.</desc>
    <defs>
        <rect id="path-1" x="0" y="0" width="140" height="140"></rect>
    </defs>
    <g id="Asset-Artboard-Page" stroke="none" stroke-width="1" fill="none" fill-rule="evenodd">
        <g id="element/developer/header">
            <g>
                <mask id="mask-2" fill="white">
                    <use xlink:href="#path-1"></use>
                </mask>
                <g id="Mask"></g>
                <g id="Group" mask="url(#mask-2)">
                    <g transform="translate(11.000000, -21.000000)">
                        <g id="015-cellphone" transform="translate(41.119965, 105.284991) scale(-1, 1) translate(-41.119965, -105.284991) translate(26.619965, 72.784991)">
                            <path d="M27.6346657,13.1047415 L4.9108277,0.134679133 C4.59593614,-0.0450269536 4.20798107,-0.0448929446 3.89349617,0.13508116 L0.651048466,1.98909586 L0.650506251,1.98936388 L0.650506251,1.98936388 C0.336292464,2.16893596 0.142857143,2.50047426 0.142857143,2.8593504 L0.142857143,51.02487 C0.142857143,51.3838802 0.336563571,51.7156865 0.65118402,51.8952586 L23.3690577,64.8653209 C23.5264357,64.955107 23.7019779,65 23.8775201,65 C24.0530623,65 24.385847,64.8653209 24.385847,64.8653209 L24.385847,64.8653209 L27.6316836,63.0126463 C27.9461685,62.8330743 28.1400104,62.5014019 28.1400104,62.1422578 L28.1428571,13.97513 C28.1428571,13.6161199 27.9491506,13.2843136 27.6346657,13.1047415 Z M4.40304303,2.16585375 L25.0930314,13.97513 L23.8805023,14.6672866 L3.19159842,2.85854634 L4.40304303,2.16585375 Z M22.8635775,21.482047 L2.17630021,9.67384274 L2.17630021,4.60026149 L22.8638486,16.4080637 L22.8635775,21.482047 Z M2.17630021,11.9950129 L22.8634419,23.8030831 L22.8615441,54.8442609 L2.17630021,43.0371288 L2.17630021,11.9950129 Z M2.17630021,50.444745 L2.17630021,45.3582989 L22.8614086,57.165297 L22.8611375,62.2538873 L2.17630021,50.444745 Z M24.894445,62.2540213 L24.8972916,16.4080637 L26.1096851,15.7160411 L26.106974,61.5619988 L24.894445,62.2540213 Z" id="Shape" fill="#FFFFFF" fill-rule="nonzero"></path>
                            <path d="M10.6250243,12.9440702 L13.6990598,14.8607161 C13.8505471,14.9551459 14.0158992,15 14.179069,15 C14.5119558,15 14.8359844,14.8128069 15.0140461,14.4784146 C15.2795339,13.98002 15.1214993,13.3431747 14.660747,13.0559972 L11.5867115,11.1392124 C11.1260876,10.8521738 10.5373414,11.0232583 10.2717252,11.5213751 C10.0061091,12.0200474 10.164272,12.6568927 10.6250243,12.9440702 Z" id="Path" fill="#FFFFFF" fill-rule="nonzero"></path>
                        </g>
                        <g id="Group-22" transform="translate(59.593860, 59.291832) rotate(-37.000000) translate(-59.593860, -59.291832) translate(17.093860, 18.291832)">
                            <rect id="Rectangle" fill="#36F2B9" transform="translate(42.392495, 34.809983) rotate(-323.000000) translate(-42.392495, -34.809983) " x="-4.10750469" y="26.3099826" width="93" height="17" rx="2"></rect>
                            <path d="M39.3940116,57.8418028 L49.3546322,77.7168887 C49.60208,78.2106377 49.4024135,78.8114964 48.9086645,79.0589442 C48.5918575,79.2177155 48.2146827,79.1969644 47.9172055,79.0043967 L39.0434152,73.2600743 C38.7127554,73.0460265 38.2872446,73.0460265 37.9565848,73.2600743 L29.0827945,79.0043967 C28.6191713,79.3045166 28.0000352,79.171971 27.6999153,78.7083478 C27.5073476,78.4108705 27.4865964,78.0336957 27.6453678,77.7168887 L37.6059884,57.8418028 C37.8534362,57.3480538 38.4542949,57.1483873 38.9480439,57.395835 C39.1409134,57.4924938 39.2973528,57.6489332 39.3940116,57.8418028 Z" id="Rectangle" fill="#36F2B9"></path>
                            <path d="M11.5192949,39.2093262 C12.0986283,39.2093262 12.6266283,39.1149095 13.1032949,38.9260762 C13.5799616,38.7372428 13.9887949,38.4704928 14.3297949,38.1258262 C14.6707949,37.7811595 14.9347949,37.3668262 15.1217949,36.8828262 C15.3087949,36.3988262 15.4022949,35.8616595 15.4022949,35.2713262 C15.4022949,34.6809928 15.3087949,34.1438262 15.1217949,33.6598262 C14.9347949,33.1758262 14.6707949,32.7605762 14.3297949,32.4140762 C13.9887949,32.0675762 13.5799616,31.7999095 13.1032949,31.6110762 C12.6266283,31.4222428 12.0986283,31.3278262 11.5192949,31.3278262 L11.5192949,31.3278262 L8.57129492,31.3278262 L8.57129492,39.2093262 L11.5192949,39.2093262 Z M11.5192949,38.3458262 L9.64379492,38.3458262 L9.64379492,32.1913262 L11.5192949,32.1913262 C11.9409616,32.1913262 12.3241283,32.2609928 12.6687949,32.4003262 C13.0134616,32.5396595 13.3067949,32.7413262 13.5487949,33.0053262 C13.7907949,33.2693262 13.9777949,33.5919928 14.1097949,33.9733262 C14.2417949,34.3546595 14.3077949,34.7873262 14.3077949,35.2713262 C14.3077949,35.7553262 14.2417949,36.1879928 14.1097949,36.5693262 C13.9777949,36.9506595 13.7907949,37.2724095 13.5487949,37.5345762 C13.3067949,37.7967428 13.0134616,37.9974928 12.6687949,38.1368262 C12.3241283,38.2761595 11.9409616,38.3458262 11.5192949,38.3458262 L11.5192949,38.3458262 Z M22.3570449,39.2093262 L22.3570449,38.3403262 L18.5730449,38.3403262 L18.5730449,35.6508262 L21.6365449,35.6508262 L21.6365449,34.8148262 L18.5730449,34.8148262 L18.5730449,32.1968262 L22.3570449,32.1968262 L22.3570449,31.3278262 L17.5005449,31.3278262 L17.5005449,39.2093262 L22.3570449,39.2093262 Z M27.7992949,39.2093262 L31.0112949,31.3278262 L30.1532949,31.3278262 C30.0616283,31.3278262 29.9846283,31.3544095 29.9222949,31.4075762 C29.8599616,31.4607428 29.8159616,31.5184928 29.7902949,31.5808262 L29.7902949,31.5808262 L27.5737949,37.1413262 C27.5224616,37.2659928 27.4775449,37.4016595 27.4390449,37.5483262 C27.4005449,37.6949928 27.3647949,37.8471595 27.3317949,38.0048262 C27.2914616,37.8471595 27.2502116,37.6949928 27.2080449,37.5483262 C27.1658783,37.4016595 27.1191283,37.2659928 27.0677949,37.1413262 L27.0677949,37.1413262 L24.8402949,31.5808262 C24.8109616,31.5074928 24.7669616,31.4469928 24.7082949,31.3993262 C24.6496283,31.3516595 24.5726283,31.3278262 24.4772949,31.3278262 L24.4772949,31.3278262 L23.6247949,31.3278262 L26.8367949,39.2093262 L27.7992949,39.2093262 Z M37.5205449,39.2093262 L37.5205449,38.3403262 L33.7365449,38.3403262 L33.7365449,35.6508262 L36.8000449,35.6508262 L36.8000449,34.8148262 L33.7365449,34.8148262 L33.7365449,32.1968262 L37.5205449,32.1968262 L37.5205449,31.3278262 L32.6640449,31.3278262 L32.6640449,39.2093262 L37.5205449,39.2093262 Z M44.1782949,39.2093262 L44.1782949,38.3128262 L40.7682949,38.3128262 L40.7682949,31.3278262 L39.7012949,31.3278262 L39.7012949,39.2093262 L44.1782949,39.2093262 Z M48.9935449,39.2918262 C49.5728783,39.2918262 50.1017949,39.1937428 50.5802949,38.9975762 C51.0587949,38.8014095 51.4685449,38.5254928 51.8095449,38.1698262 C52.1505449,37.8141595 52.4145449,37.3897428 52.6015449,36.8965762 C52.7885449,36.4034095 52.8820449,35.8616595 52.8820449,35.2713262 C52.8820449,34.6809928 52.7885449,34.1392428 52.6015449,33.6460762 C52.4145449,33.1529095 52.1505449,32.7275762 51.8095449,32.3700762 C51.4685449,32.0125762 51.0587949,31.7348262 50.5802949,31.5368262 C50.1017949,31.3388262 49.5728783,31.2398262 48.9935449,31.2398262 C48.4142116,31.2398262 47.8862116,31.3388262 47.4095449,31.5368262 C46.9328783,31.7348262 46.5240449,32.0125762 46.1830449,32.3700762 C45.8420449,32.7275762 45.5780449,33.1529095 45.3910449,33.6460762 C45.2040449,34.1392428 45.1105449,34.6809928 45.1105449,35.2713262 C45.1105449,35.8616595 45.2040449,36.4034095 45.3910449,36.8965762 C45.5780449,37.3897428 45.8420449,37.8141595 46.1830449,38.1698262 C46.5240449,38.5254928 46.9328783,38.8014095 47.4095449,38.9975762 C47.8862116,39.1937428 48.4142116,39.2918262 48.9935449,39.2918262 Z M48.9935449,38.3678262 C48.5718783,38.3678262 48.1887116,38.2972428 47.8440449,38.1560762 C47.4993783,38.0149095 47.2051283,37.8114095 46.9612949,37.5455762 C46.7174616,37.2797428 46.5295449,36.9552428 46.3975449,36.5720762 C46.2655449,36.1889095 46.1995449,35.7553262 46.1995449,35.2713262 C46.1995449,34.7873262 46.2655449,34.3528262 46.3975449,33.9678262 C46.5295449,33.5828262 46.7174616,33.2574095 46.9612949,32.9915762 C47.2051283,32.7257428 47.4993783,32.5213262 47.8440449,32.3783262 C48.1887116,32.2353262 48.5718783,32.1638262 48.9935449,32.1638262 C49.4188783,32.1638262 49.8038783,32.2353262 50.1485449,32.3783262 C50.4932116,32.5213262 50.7865449,32.7257428 51.0285449,32.9915762 C51.2705449,33.2574095 51.4575449,33.5828262 51.5895449,33.9678262 C51.7215449,34.3528262 51.7875449,34.7873262 51.7875449,35.2713262 C51.7875449,35.7553262 51.7215449,36.1889095 51.5895449,36.5720762 C51.4575449,36.9552428 51.2705449,37.2797428 51.0285449,37.5455762 C50.7865449,37.8114095 50.4932116,38.0149095 50.1485449,38.1560762 C49.8038783,38.2972428 49.4188783,38.3678262 48.9935449,38.3678262 Z M56.1572949,39.2093262 L56.1572949,36.2613262 L57.4222949,36.2613262 C57.8952949,36.2613262 58.3151283,36.1999095 58.6817949,36.0770762 C59.0484616,35.9542428 59.3555449,35.7828262 59.6030449,35.5628262 C59.8505449,35.3428262 60.0384616,35.0806595 60.1667949,34.7763262 C60.2951283,34.4719928 60.3592949,34.1364928 60.3592949,33.7698262 C60.3592949,33.3994928 60.2997116,33.0639928 60.1805449,32.7633262 C60.0613783,32.4626595 59.8807949,32.2059928 59.6387949,31.9933262 C59.3967949,31.7806595 59.0915449,31.6165762 58.7230449,31.5010762 C58.3545449,31.3855762 57.9209616,31.3278262 57.4222949,31.3278262 L57.4222949,31.3278262 L55.0957949,31.3278262 L55.0957949,39.2093262 L56.1572949,39.2093262 Z M57.4222949,35.4143262 L56.1572949,35.4143262 L56.1572949,32.1693262 L57.4222949,32.1693262 C58.0492949,32.1693262 58.5177116,32.3104928 58.8275449,32.5928262 C59.1373783,32.8751595 59.2922949,33.2674928 59.2922949,33.7698262 C59.2922949,34.0118262 59.2519616,34.2336595 59.1712949,34.4353262 C59.0906283,34.6369928 58.9714616,34.8102428 58.8137949,34.9550762 C58.6561283,35.0999095 58.4608783,35.2126595 58.2280449,35.2933262 C57.9952116,35.3739928 57.7266283,35.4143262 57.4222949,35.4143262 L57.4222949,35.4143262 Z M67.2095449,39.2093262 L67.2095449,38.3403262 L63.4255449,38.3403262 L63.4255449,35.6508262 L66.4890449,35.6508262 L66.4890449,34.8148262 L63.4255449,34.8148262 L63.4255449,32.1968262 L67.2095449,32.1968262 L67.2095449,31.3278262 L62.3530449,31.3278262 L62.3530449,39.2093262 L67.2095449,39.2093262 Z M70.5617949,39.2093262 L70.5617949,35.9203262 L71.3702949,35.9203262 C71.5169616,35.9203262 71.6269616,35.9395762 71.7002949,35.9780762 C71.7736283,36.0165762 71.8414616,36.0798262 71.9037949,36.1678262 L71.9037949,36.1678262 L73.9497949,38.9838262 C74.0414616,39.1341595 74.1844616,39.2093262 74.3787949,39.2093262 L74.3787949,39.2093262 L75.3247949,39.2093262 L73.0257949,36.0798262 C72.9231283,35.9331595 72.8057949,35.8213262 72.6737949,35.7443262 C72.9781283,35.6746595 73.2503783,35.5719928 73.4905449,35.4363262 C73.7307116,35.3006595 73.9342116,35.1365762 74.1010449,34.9440762 C74.2678783,34.7515762 74.3952949,34.5343262 74.4832949,34.2923262 C74.5712949,34.0503262 74.6152949,33.7899928 74.6152949,33.5113262 C74.6152949,33.1776595 74.5584616,32.8760762 74.4447949,32.6065762 C74.3311283,32.3370762 74.1560449,32.1069928 73.9195449,31.9163262 C73.6830449,31.7256595 73.3832949,31.5799095 73.0202949,31.4790762 C72.6572949,31.3782428 72.2264616,31.3278262 71.7277949,31.3278262 L71.7277949,31.3278262 L69.5002949,31.3278262 L69.5002949,39.2093262 L70.5617949,39.2093262 Z M71.6782949,35.1448262 L70.5617949,35.1448262 L70.5617949,32.1693262 L71.7277949,32.1693262 C72.3401283,32.1693262 72.8012116,32.2884928 73.1110449,32.5268262 C73.4208783,32.7651595 73.5757949,33.1189928 73.5757949,33.5883262 C73.5757949,33.8193262 73.5354616,34.0301595 73.4547949,34.2208262 C73.3741283,34.4114928 73.2540449,34.5755762 73.0945449,34.7130762 C72.9350449,34.8505762 72.7370449,34.9569095 72.5005449,35.0320762 C72.2640449,35.1072428 71.9899616,35.1448262 71.6782949,35.1448262 L71.6782949,35.1448262 Z" id="DEVELOPER" fill="#FFFFFF" fill-rule="nonzero" transform="translate(41.948045, 35.265826) rotate(37.000000) translate(-41.948045, -35.265826) "></path>
                        </g>
                    </g>
                </g>
            </g>
        </g>
    </g>
</svg>