<?xml version="1.0" encoding="UTF-8"?>
<svg width="215px" height="34px" viewBox="0 0 215 34" version="1.1" xmlns="http://www.w3.org/2000/svg" xmlns:xlink="http://www.w3.org/1999/xlink">
    <!-- Generator: sketchtool 62 (101010) - https://sketch.com -->
    <title>9BD20EEB-DBFD-4106-8325-891401003338@1x</title>
    <desc>Created with sketchtool.</desc>
    <g id="Asset-Artboard-Page" stroke="none" stroke-width="1" fill="none" fill-rule="evenodd">
        <g id="element/title_short-copy">
            <g id="element/title_short" transform="translate(107.500000, 17.000000) scale(1, -1) translate(-107.500000, -17.000000) ">
                <polygon id="Fill-1" fill="#36F2B9" points="206 11.2354668 206.416976 12 215 6.76453318 214.583024 6"></polygon>
                <polygon id="Stroke-2" stroke="#36F2B9" stroke-width="0.5" points="215 6.76145711 206.416976 12 206 11.2385429 214.583024 6"></polygon>
                <polygon id="Fill-4" fill="#36F2B9" points="192 6.76145711 183.416976 12 183 11.2385429 191.583024 6"></polygon>
                <polygon id="Stroke-5" stroke="#36F2B9" stroke-width="0.5" points="192 6.76145711 183.416976 12 183 11.2385429 191.583024 6"></polygon>
                <polygon id="Fill-6" fill="#36F2B9" points="168 6.76145711 159.416976 12 159 11.2385429 167.583024 6"></polygon>
                <polygon id="Stroke-7" stroke="#36F2B9" stroke-width="0.5" points="168 6.76145711 159.416976 12 159 11.2385429 167.583024 6"></polygon>
                <polygon id="Fill-8" fill="#36F2B9" points="146 6.76453318 137.416821 12 137 11.23899 145.583179 6"></polygon>
                <polygon id="Stroke-9" stroke="#36F2B9" stroke-width="0.5" points="146 6.76453318 137.416821 12 137 11.23899 145.583179 6"></polygon>
                <polygon id="Fill-10" fill="#36F2B9" points="124 6.76145711 115.416976 12 115 11.2385429 123.583024 6"></polygon>
                <polygon id="Stroke-11" stroke="#36F2B9" stroke-width="0.5" points="124 6.76145711 115.416976 12 115 11.2385429 123.583024 6"></polygon>
                <polygon id="Fill-12" fill="#36F2B9" points="100 6.76145711 91.4169755 12 91 11.2385429 99.5830245 6"></polygon>
                <polygon id="Stroke-13" stroke="#36F2B9" stroke-width="0.5" points="100 6.76145711 91.4169755 12 91 11.2385429 99.5830245 6"></polygon>
                <polygon id="Fill-14" fill="#36F2B9" points="78 6.76145711 69.4169755 12 69 11.2385429 77.5830245 6"></polygon>
                <polygon id="Stroke-15" stroke="#36F2B9" stroke-width="0.5" points="78 6.76145711 69.4169755 12 69 11.2385429 77.5830245 6"></polygon>
                <polygon id="Fill-16" fill="#36F2B9" points="56 6.76453318 47.416821 12 47 11.23899 55.583179 6"></polygon>
                <polygon id="Stroke-17" stroke="#36F2B9" stroke-width="0.5" points="56 6.76453318 47.416821 12 47 11.23899 55.583179 6"></polygon>
                <polygon id="Fill-18" fill="#36F2B9" points="32 6.76145711 23.4169755 12 23 11.2385429 31.5830245 6"></polygon>
                <polygon id="Stroke-19" stroke="#36F2B9" stroke-width="0.5" points="32 6.76145711 23.4169755 12 23 11.2385429 31.5830245 6"></polygon>
                <polygon id="Fill-20" fill="#36F2B9" points="0 11.2354668 0.416975537 12 9 6.76453318 8.58636027 6"></polygon>
                <polygon id="Stroke-21" stroke="#36F2B9" stroke-width="0.5" points="9 6.76145711 0.416975537 12 0 11.2385429 8.58302446 6"></polygon>
                <polygon id="Fill-23" fill="#36F2B9" points="206 33.2350176 206.416976 34 215 28.7614571 214.583024 28"></polygon>
                <polygon id="Stroke-24" stroke="#36F2B9" stroke-width="0.5" points="215 28.7645332 206.416976 34 206 33.2354668 214.583024 28"></polygon>
                <polygon id="Fill-26" fill="#36F2B9" points="183 33.2350176 183.416976 34 192 28.7614571 191.583024 28"></polygon>
                <polygon id="Stroke-27" stroke="#36F2B9" stroke-width="0.5" points="192 28.7645332 183.416976 34 183 33.2354668 191.583024 28"></polygon>
                <polygon id="Fill-29" fill="#36F2B9" points="159 33.2350176 159.416976 34 168 28.7614571 167.583024 28"></polygon>
                <polygon id="Stroke-30" stroke="#36F2B9" stroke-width="0.5" points="168 28.7645332 159.416976 34 159 33.2354668 167.583024 28"></polygon>
                <polygon id="Fill-32" fill="#36F2B9" points="137 33.2385429 137.416821 34 146 28.7614571 145.583179 28"></polygon>
                <polygon id="Stroke-33" stroke="#36F2B9" stroke-width="0.5" points="146 28.7614571 137.416821 34 137 33.2385429 145.583179 28"></polygon>
                <polygon id="Fill-35" fill="#36F2B9" points="115 33.2350176 115.416976 34 124 28.7614571 123.583024 28"></polygon>
                <polygon id="Stroke-36" stroke="#36F2B9" stroke-width="0.5" points="124 28.7645332 115.416976 34 115 33.2354668 123.583024 28"></polygon>
                <polygon id="Fill-38" fill="#36F2B9" points="91 33.2350176 91.4136397 34 100 28.7614571 99.5830245 28"></polygon>
                <polygon id="Stroke-39" stroke="#36F2B9" stroke-width="0.5" points="100 28.7645332 91.4169755 34 91 33.2354668 99.5830245 28"></polygon>
                <polygon id="Fill-41" fill="#36F2B9" points="69 33.2350176 69.4136397 34 78 28.7614571 77.5830245 28"></polygon>
                <polygon id="Stroke-42" stroke="#36F2B9" stroke-width="0.5" points="78 28.7645332 69.4169755 34 69 33.2354668 77.5830245 28"></polygon>
                <polygon id="Fill-44" fill="#36F2B9" points="47 33.2385429 47.4166667 34 56 28.7614571 55.5833333 28"></polygon>
                <polygon id="Stroke-45" stroke="#36F2B9" stroke-width="0.5" points="56 28.7614571 47.416821 34 47 33.2385429 55.583179 28"></polygon>
                <polygon id="Fill-47" fill="#36F2B9" points="23 33.2350176 23.4169755 34 32 28.7614571 31.5863603 28"></polygon>
                <polygon id="Stroke-48" stroke="#36F2B9" stroke-width="0.5" points="32 28.7645332 23.4169755 34 23 33.2354668 31.5830245 28"></polygon>
                <polygon id="Fill-50" fill="#36F2B9" points="0 33.2350176 0.416975537 34 9 28.7614571 8.58636027 28"></polygon>
                <polygon id="Stroke-51" stroke="#36F2B9" stroke-width="0.5" points="9 28.7645332 0.416975537 34 0 33.2354668 8.58302446 28"></polygon>
                <polygon id="Fill-53" fill="#FFFFFF" points="214.583024 0 206 5.23854289 206.416976 6 215 0.761457109"></polygon>
                <polygon id="Fill-54" fill="#FFFFFF" points="191.583024 0 183 5.23854289 183.416976 6 192 0.761457109"></polygon>
                <polygon id="Fill-55" fill="#FFFFFF" points="167.583024 0 159 5.23854289 159.416976 6 168 0.761457109"></polygon>
                <polygon id="Fill-56" fill="#FFFFFF" points="145.57651 0 137 5.23546682 137.416821 6 146 0.761009982 145.583179 0"></polygon>
                <polygon id="Fill-57" fill="#FFFFFF" points="123.583024 0 115 5.23854289 115.416976 6 124 0.761457109"></polygon>
                <polygon id="Fill-58" fill="#FFFFFF" points="99.5830245 0 91 5.23854289 91.4136397 6 100 0.761457109"></polygon>
                <polygon id="Fill-59" fill="#FFFFFF" points="77.5830245 0 69 5.23854289 69.4136397 6 78 0.761457109"></polygon>
                <polygon id="Fill-60" fill="#FFFFFF" points="55.5766667 0 47 5.23546682 47.4166667 6 56 0.761009982 55.5833333 0"></polygon>
                <polygon id="Fill-61" fill="#FFFFFF" points="31.5863603 0 23 5.23854289 23.4169755 6 32 0.761457109"></polygon>
                <polygon id="Fill-62" fill="#FFFFFF" points="8.58636027 0 0 5.23854289 0.416975537 6 9 0.761457109"></polygon>
                <polygon id="Fill-63" fill="#FFFFFF" points="206 27.2354668 206.416976 28 215 22.7645332 214.583024 22"></polygon>
                <polygon id="Fill-64" fill="#FFFFFF" points="192 22.7645332 183.416976 28 183 27.2354668 191.583024 22"></polygon>
                <polygon id="Fill-65" fill="#FFFFFF" points="168 22.7645332 159.416976 28 159 27.2354668 167.583024 22"></polygon>
                <polygon id="Fill-66" fill="#FFFFFF" points="146 22.7614571 137.416821 28 137 27.2385429 145.583179 22"></polygon>
                <polygon id="Fill-67" fill="#FFFFFF" points="124 22.7645332 115.416976 28 115 27.2354668 123.583024 22"></polygon>
                <polygon id="Fill-68" fill="#FFFFFF" points="100 22.7645332 91.4169755 28 91 27.2354668 99.5830245 22"></polygon>
                <polygon id="Fill-69" fill="#FFFFFF" points="78 22.7645332 69.4169755 28 69 27.2354668 77.5830245 22"></polygon>
                <polygon id="Fill-70" fill="#FFFFFF" points="56 22.7614571 47.416821 28 47 27.2385429 55.583179 22"></polygon>
                <polygon id="Fill-71" fill="#FFFFFF" points="32 22.7645332 23.4169755 28 23 27.2354668 31.5830245 22"></polygon>
                <polygon id="Fill-72" fill="#FFFFFF" points="0 27.2354668 0.416975537 28 9 22.7645332 8.58636027 22"></polygon>
            </g>
        </g>
    </g>
</svg>