<?xml version="1.0" encoding="UTF-8"?>
<svg width="140px" height="140px" viewBox="0 0 140 140" version="1.1" xmlns="http://www.w3.org/2000/svg" xmlns:xlink="http://www.w3.org/1999/xlink">
    <!-- Generator: sketchtool 62 (101010) - https://sketch.com -->
    <title>996A74F6-590E-4329-BBD7-7DBF487CBFF1@1x</title>
    <desc>Created with sketchtool.</desc>
    <defs>
        <rect id="path-1" x="0" y="0" width="140" height="140"></rect>
    </defs>
    <g id="Asset-Artboard-Page" stroke="none" stroke-width="1" fill="none" fill-rule="evenodd">
        <g id="element/designer/header">
            <g>
                <mask id="mask-2" fill="white">
                    <use xlink:href="#path-1"></use>
                </mask>
                <g id="Mask"></g>
                <g id="Group-24" mask="url(#mask-2)">
                    <g transform="translate(4.000000, 14.000000)">
                        <g id="016-check-list-copy" transform="translate(101.601815, 14.000000)">
                            <path d="M29.2422565,13.9156211 L5.6178136,0.13543565 C5.3081239,-0.0452125663 4.92681345,-0.0450778547 4.61739049,0.13543565 C4.61739049,0.13543565 1.24267965,2.10330228 1.24241291,2.10343699 C0.932989951,2.28395049 0.742268041,2.61749634 0.742268041,2.97852335 L0.742268041,50.2166175 C0.742268041,50.5776445 0.932989951,50.9111904 1.24254628,51.0917039 L24.8671226,64.8647496 C25.0218341,64.9548716 25.1944174,65 25.3671341,65 C25.5397174,65 25.8670122,64.8648843 25.8670122,64.8648843 L29.2418564,62.8984995 C29.5514128,62.7181207 29.742268,62.3844401 29.742268,62.0232784 L29.742268,14.7905727 C29.742268,14.4295457 29.5515461,14.0961346 29.2422565,13.9156211 Z M25.3648668,15.5906248 L20.6125569,12.8186648 L21.9884221,12.0179392 L26.7404652,14.7897645 L25.3648668,15.5906248 Z M7.989834,15.6637731 L18.1139665,21.5684507 C18.268678,21.6587075 18.4413947,21.7038358 18.6141114,21.7038358 C18.7868281,21.7038358 18.9595448,21.6587075 19.1142562,21.5684507 C19.4236792,21.3880719 19.6144011,21.0545261 19.6144011,20.6934991 L19.6144011,18.5030889 L20.9916,19.306374 L20.9887992,56.3365642 L6.11862533,47.6615431 L6.11862533,10.6324307 L7.48968913,11.4318091 L7.48968913,14.7889562 C7.48968913,15.1498485 7.68041104,15.4833943 7.989834,15.6637731 Z M17.613955,18.943461 L9.49040198,14.2056551 L9.49040198,8.66442934 L17.613955,13.4029088 L17.613955,18.943461 Z M10.3089057,6.80850802 L11.7325181,6.03566774 L19.9870424,10.8505287 L18.6111772,11.6512543 L10.3089057,6.80850802 Z M5.11740199,2.17712422 L9.69539469,4.84751169 L8.27178234,5.62035197 L3.74287051,2.97865806 L5.11740199,2.17712422 Z M2.74298089,49.6331817 L2.74298089,4.72869608 L7.48982251,7.497423 L7.48982251,9.09860473 L5.61848046,8.00757572 C5.3090575,7.82706221 4.92774705,7.82719692 4.61832409,8.00757572 C4.30890113,8.18795451 4.11817922,8.52163507 4.11817922,8.88252737 L4.11817922,48.2445748 C4.11817922,48.6054671 4.30876776,48.939013 4.61819072,49.1195265 L21.4888107,58.9616885 C21.6435222,59.0519453 21.8163723,59.0970737 21.989089,59.0970737 C22.1618057,59.0970737 22.334389,59.0519453 22.4891005,58.9618233 C22.7986568,58.7814445 22.9893787,58.4478986 22.9893787,58.0868716 L22.9923129,18.7232076 C22.9923129,18.3623153 22.8017243,18.0287695 22.4923014,17.848256 L19.6145345,16.1696151 L19.6145345,14.5697805 L24.3641769,17.3402586 L24.3668444,62.2397599 L2.74298089,49.6331817 Z M26.3674238,62.2404335 L26.3647564,17.3407975 L27.7416886,16.5391289 L27.7416886,61.4397079 L26.3674238,62.2404335 Z" id="Shape" fill="#7878F9" fill-rule="nonzero"></path>
                            <path d="M12.2073333,13.8898217 L15.3473295,15.8641644 C15.4938775,15.9562517 15.6536917,16 15.8113982,16 C16.1327624,16 16.4453238,15.8182557 16.6175364,15.4935194 C16.8743054,15.009183 16.7219302,14.3898211 16.2772028,14.1101833 L13.1372066,12.1358407 C12.6922313,11.8562029 12.1236447,12.0221492 11.8669997,12.5064857 C11.6102307,12.9908221 11.7626059,13.610184 12.2073333,13.8898217 Z" id="Path" fill="#7878F9" fill-rule="nonzero"></path>
                            <path d="M8.23747045,22.9036202 L18.2569348,28.8631769 C18.4129794,28.9559337 18.5831499,29 18.7510761,29 C19.0932653,29 19.4260813,28.8169345 19.6094535,28.4898376 C19.8828617,28.0019803 19.7206122,27.378116 19.2470656,27.0964454 L9.22760132,21.1368886 C8.75379069,20.855082 8.14835867,21.0223707 7.87508255,21.510228 C7.60167441,21.9980853 7.76392386,22.6219496 8.23747045,22.9036202 Z" id="Path" fill="#7878F9" fill-rule="nonzero"></path>
                            <path d="M8.2374759,28.9036986 L18.2569184,34.8631756 C18.4129648,34.9559333 18.5831371,35 18.7510652,35 C19.0932582,35 19.4260778,34.8169328 19.6094521,34.4898328 C19.8828632,34.0019709 19.720612,33.3781007 19.2470602,33.0964274 L9.22761766,27.1369504 C8.75380182,26.8550051 8.14836314,27.0224314 7.87508401,27.5102932 C7.60167287,27.9982911 7.7639241,28.6220253 8.2374759,28.9036986 Z" id="Path" fill="#7878F9" fill-rule="nonzero"></path>
                            <path d="M8.23736696,40.9032642 L18.2572452,46.8632025 C18.4132572,46.955942 18.5833921,47 18.7512832,47 C19.0934009,47 19.4261474,46.8169687 19.6094813,46.489933 C19.8828323,46.0021669 19.7206167,45.3784192 19.2471691,45.0968013 L9.22729091,39.136863 C8.7535793,38.8551091 8.14827381,39.0223665 7.8750548,39.5101326 C7.6017038,39.9978986 7.76391933,40.6216463 8.23736696,40.9032642 Z" id="Path" fill="#7878F9" fill-rule="nonzero"></path>
                            <path d="M8.23736696,34.9032642 L18.2572452,40.8632025 C18.4132572,40.955942 18.5833921,41 18.7512832,41 C19.0934009,41 19.4261474,40.8169687 19.6094813,40.489933 C19.8828323,40.0021669 19.7206167,39.3784192 19.2471691,39.0968013 L9.22729091,33.136863 C8.7535793,32.8551091 8.14827381,33.0223665 7.8750548,33.5101326 C7.6017038,33.9978986 7.76391933,34.6216463 8.23736696,34.9032642 Z" id="Path" fill="#7878F9" fill-rule="nonzero"></path>
                        </g>
                        <g id="Group-22-Copy" transform="translate(56.000000, 56.201364) rotate(-37.000000) translate(-56.000000, -56.201364) translate(18.000000, 15.201364)">
                            <g id="Group-23" transform="translate(0.000000, 0.200251)">
                                <rect id="Rectangle" fill="#7878F9" transform="translate(38.000000, 32.299749) rotate(-323.000000) translate(-38.000000, -32.299749) " x="-3" y="23.799749" width="82" height="17" rx="2"></rect>
                                <path d="M13.1279324,36.2013645 C13.7072657,36.2013645 14.2352657,36.1069478 14.7119324,35.9181145 C15.1885991,35.7292812 15.5974324,35.4625312 15.9384324,35.1178645 C16.2794324,34.7731978 16.5434324,34.3588645 16.7304324,33.8748645 C16.9174324,33.3908645 17.0109324,32.8536978 17.0109324,32.2633645 C17.0109324,31.6730312 16.9174324,31.1358645 16.7304324,30.6518645 C16.5434324,30.1678645 16.2794324,29.7526145 15.9384324,29.4061145 C15.5974324,29.0596145 15.1885991,28.7919478 14.7119324,28.6031145 C14.2352657,28.4142812 13.7072657,28.3198645 13.1279324,28.3198645 L13.1279324,28.3198645 L10.1799324,28.3198645 L10.1799324,36.2013645 L13.1279324,36.2013645 Z M13.1279324,35.3378645 L11.2524324,35.3378645 L11.2524324,29.1833645 L13.1279324,29.1833645 C13.5495991,29.1833645 13.9327657,29.2530312 14.2774324,29.3923645 C14.6220991,29.5316978 14.9154324,29.7333645 15.1574324,29.9973645 C15.3994324,30.2613645 15.5864324,30.5840312 15.7184324,30.9653645 C15.8504324,31.3466978 15.9164324,31.7793645 15.9164324,32.2633645 C15.9164324,32.7473645 15.8504324,33.1800312 15.7184324,33.5613645 C15.5864324,33.9426978 15.3994324,34.2644478 15.1574324,34.5266145 C14.9154324,34.7887812 14.6220991,34.9895312 14.2774324,35.1288645 C13.9327657,35.2681978 13.5495991,35.3378645 13.1279324,35.3378645 L13.1279324,35.3378645 Z M23.9656824,36.2013645 L23.9656824,35.3323645 L20.1816824,35.3323645 L20.1816824,32.6428645 L23.2451824,32.6428645 L23.2451824,31.8068645 L20.1816824,31.8068645 L20.1816824,29.1888645 L23.9656824,29.1888645 L23.9656824,28.3198645 L19.1091824,28.3198645 L19.1091824,36.2013645 L23.9656824,36.2013645 Z M27.9779324,36.2893645 C28.3959324,36.2893645 28.7690157,36.2251978 29.0971824,36.0968645 C29.4253491,35.9685312 29.7021824,35.7925312 29.9276824,35.5688645 C30.1531824,35.3451978 30.3245991,35.0821145 30.4419324,34.7796145 C30.5592657,34.4771145 30.6179324,34.1535312 30.6179324,33.8088645 C30.6179324,33.4825312 30.5638491,33.2075312 30.4556824,32.9838645 C30.3475157,32.7601978 30.2045157,32.5713645 30.0266824,32.4173645 C29.8488491,32.2633645 29.6471824,32.1359478 29.4216824,32.0351145 C29.1961824,31.9342812 28.9651824,31.8435312 28.7286824,31.7628645 C28.4921824,31.6821978 28.2611824,31.6042812 28.0356824,31.5291145 C27.8101824,31.4539478 27.6085157,31.3650312 27.4306824,31.2623645 C27.2528491,31.1596978 27.1098491,31.0359478 27.0016824,30.8911145 C26.8935157,30.7462812 26.8394324,30.5638645 26.8394324,30.3438645 C26.8394324,30.1715312 26.8705991,30.0111145 26.9329324,29.8626145 C26.9952657,29.7141145 27.0878491,29.5848645 27.2106824,29.4748645 C27.3335157,29.3648645 27.4865991,29.2777812 27.6699324,29.2136145 C27.8532657,29.1494478 28.0640991,29.1173645 28.3024324,29.1173645 C28.5554324,29.1173645 28.7708491,29.1485312 28.9486824,29.2108645 C29.1265157,29.2731978 29.2786824,29.3419478 29.4051824,29.4171145 C29.5316824,29.4922812 29.6361824,29.5610312 29.7186824,29.6233645 C29.8011824,29.6856978 29.8735991,29.7168645 29.9359324,29.7168645 C29.9945991,29.7168645 30.0422657,29.7031145 30.0789324,29.6756145 C30.1155991,29.6481145 30.1504324,29.6068645 30.1834324,29.5518645 L30.1834324,29.5518645 L30.4419324,29.0458645 C30.1705991,28.7818645 29.8534324,28.5801978 29.4904324,28.4408645 C29.1274324,28.3015312 28.7259324,28.2318645 28.2859324,28.2318645 C27.8935991,28.2318645 27.5461824,28.2923645 27.2436824,28.4133645 C26.9411824,28.5343645 26.6872657,28.6956978 26.4819324,28.8973645 C26.2765991,29.0990312 26.1198491,29.3300312 26.0116824,29.5903645 C25.9035157,29.8506978 25.8494324,30.1201978 25.8494324,30.3988645 C25.8494324,30.7471978 25.9035157,31.0396145 26.0116824,31.2761145 C26.1198491,31.5126145 26.2619324,31.7096978 26.4379324,31.8673645 C26.6139324,32.0250312 26.8146824,32.1533645 27.0401824,32.2523645 C27.2656824,32.3513645 27.4966824,32.4384478 27.7331824,32.5136145 C27.9696824,32.5887812 28.2006824,32.6621145 28.4261824,32.7336145 C28.6516824,32.8051145 28.8524324,32.8921978 29.0284324,32.9948645 C29.2044324,33.0975312 29.3465157,33.2249478 29.4546824,33.3771145 C29.5628491,33.5292812 29.6169324,33.7245312 29.6169324,33.9628645 C29.6169324,34.1791978 29.5802657,34.3753645 29.5069324,34.5513645 C29.4335991,34.7273645 29.3281824,34.8786145 29.1906824,35.0051145 C29.0531824,35.1316145 28.8854324,35.2296978 28.6874324,35.2993645 C28.4894324,35.3690312 28.2639324,35.4038645 28.0109324,35.4038645 C27.7065991,35.4038645 27.4490157,35.3626145 27.2381824,35.2801145 C27.0273491,35.1976145 26.8476824,35.1068645 26.6991824,35.0078645 C26.5506824,34.9088645 26.4269324,34.8181145 26.3279324,34.7356145 C26.2289324,34.6531145 26.1409324,34.6118645 26.0639324,34.6118645 C26.0125991,34.6118645 25.9658491,34.6256145 25.9236824,34.6531145 C25.8815157,34.6806145 25.8457657,34.7145312 25.8164324,34.7548645 L25.8164324,34.7548645 L25.5084324,35.2608645 C25.8054324,35.5761978 26.1638491,35.8264478 26.5836824,36.0116145 C27.0035157,36.1967812 27.4682657,36.2893645 27.9779324,36.2893645 Z M33.8876824,36.2013645 L33.8876824,28.3198645 L32.8206824,28.3198645 L32.8206824,36.2013645 L33.8876824,36.2013645 Z M40.0834324,36.2893645 C40.4097657,36.2893645 40.7122657,36.2719478 40.9909324,36.2371145 C41.2695991,36.2022812 41.5308491,36.1491145 41.7746824,36.0776145 C42.0185157,36.0061145 42.2476824,35.9171978 42.4621824,35.8108645 C42.6766824,35.7045312 42.8829324,35.5798645 43.0809324,35.4368645 L43.0809324,35.4368645 L43.0809324,32.4118645 L40.6609324,32.4118645 L40.6609324,33.0168645 C40.6609324,33.0755312 40.6820157,33.1250312 40.7241824,33.1653645 C40.7663491,33.2056978 40.8222657,33.2258645 40.8919324,33.2258645 L40.8919324,33.2258645 L42.1129324,33.2258645 L42.1129324,34.9638645 C41.9735991,35.0371978 41.8342657,35.1022812 41.6949324,35.1591145 C41.5555991,35.2159478 41.4070991,35.2645312 41.2494324,35.3048645 C41.0917657,35.3451978 40.9240157,35.3754478 40.7461824,35.3956145 C40.5683491,35.4157812 40.3730991,35.4258645 40.1604324,35.4258645 C39.7350991,35.4258645 39.3464324,35.3543645 38.9944324,35.2113645 C38.6424324,35.0683645 38.3380991,34.8611978 38.0814324,34.5898645 C37.8247657,34.3185312 37.6258491,33.9876145 37.4846824,33.5971145 C37.3435157,33.2066145 37.2729324,32.7620312 37.2729324,32.2633645 C37.2729324,31.7866978 37.3407657,31.3567812 37.4764324,30.9736145 C37.6120991,30.5904478 37.8064324,30.2641145 38.0594324,29.9946145 C38.3124324,29.7251145 38.6185991,29.5179478 38.9779324,29.3731145 C39.3372657,29.2282812 39.7387657,29.1558645 40.1824324,29.1558645 C40.4867657,29.1558645 40.7498491,29.1796978 40.9716824,29.2273645 C41.1935157,29.2750312 41.3860157,29.3327812 41.5491824,29.4006145 C41.7123491,29.4684478 41.8507657,29.5390312 41.9644324,29.6123645 C42.0780991,29.6856978 42.1807657,29.7480312 42.2724324,29.7993645 C42.3420991,29.8396978 42.4062657,29.8598645 42.4649324,29.8598645 C42.5639324,29.8598645 42.6445991,29.8103645 42.7069324,29.7113645 L42.7069324,29.7113645 L43.0094324,29.2273645 C42.8407657,29.0733645 42.6592657,28.9349478 42.4649324,28.8121145 C42.2705991,28.6892812 42.0588491,28.5847812 41.8296824,28.4986145 C41.6005157,28.4124478 41.3520991,28.3464478 41.0844324,28.3006145 C40.8167657,28.2547812 40.5270991,28.2318645 40.2154324,28.2318645 C39.5994324,28.2318645 39.0430157,28.3290312 38.5461824,28.5233645 C38.0493491,28.7176978 37.6258491,28.9917812 37.2756824,29.3456145 C36.9255157,29.6994478 36.6560157,30.1238645 36.4671824,30.6188645 C36.2783491,31.1138645 36.1839324,31.6620312 36.1839324,32.2633645 C36.1839324,32.8573645 36.2801824,33.4018645 36.4726824,33.8968645 C36.6651824,34.3918645 36.9337657,34.8162812 37.2784324,35.1701145 C37.6230991,35.5239478 38.0337657,35.7989478 38.5104324,35.9951145 C38.9870991,36.1912812 39.5114324,36.2893645 40.0834324,36.2893645 Z M46.3011824,36.2013645 L46.3011824,30.5858645 C46.3011824,30.5125312 46.2993491,30.4318645 46.2956824,30.3438645 C46.2920157,30.2558645 46.2865157,30.1660312 46.2791824,30.0743645 L46.2791824,30.0743645 L50.8386824,36.0088645 C50.8936824,36.0785312 50.9495991,36.1280312 51.0064324,36.1573645 C51.0632657,36.1866978 51.1338491,36.2013645 51.2181824,36.2013645 L51.2181824,36.2013645 L51.7571824,36.2013645 L51.7571824,28.3198645 L50.8221824,28.3198645 L50.8221824,33.9023645 C50.8221824,33.9866978 50.8240157,34.0737812 50.8276824,34.1636145 C50.8313491,34.2534478 50.8386824,34.3460312 50.8496824,34.4413645 L50.8496824,34.4413645 L46.2846824,28.5013645 C46.2260157,28.4280312 46.1737657,28.3794478 46.1279324,28.3556145 C46.0820991,28.3317812 46.0115157,28.3198645 45.9161824,28.3198645 L45.9161824,28.3198645 L45.3661824,28.3198645 L45.3661824,36.2013645 L46.3011824,36.2013645 Z M59.1849324,36.2013645 L59.1849324,35.3323645 L55.4009324,35.3323645 L55.4009324,32.6428645 L58.4644324,32.6428645 L58.4644324,31.8068645 L55.4009324,31.8068645 L55.4009324,29.1888645 L59.1849324,29.1888645 L59.1849324,28.3198645 L54.3284324,28.3198645 L54.3284324,36.2013645 L59.1849324,36.2013645 Z M62.5371824,36.2013645 L62.5371824,32.9123645 L63.3456824,32.9123645 C63.4923491,32.9123645 63.6023491,32.9316145 63.6756824,32.9701145 C63.7490157,33.0086145 63.8168491,33.0718645 63.8791824,33.1598645 L63.8791824,33.1598645 L65.9251824,35.9758645 C66.0168491,36.1261978 66.1598491,36.2013645 66.3541824,36.2013645 L66.3541824,36.2013645 L67.3001824,36.2013645 L65.0011824,33.0718645 C64.8985157,32.9251978 64.7811824,32.8133645 64.6491824,32.7363645 C64.9535157,32.6666978 65.2257657,32.5640312 65.4659324,32.4283645 C65.7060991,32.2926978 65.9095991,32.1286145 66.0764324,31.9361145 C66.2432657,31.7436145 66.3706824,31.5263645 66.4586824,31.2843645 C66.5466824,31.0423645 66.5906824,30.7820312 66.5906824,30.5033645 C66.5906824,30.1696978 66.5338491,29.8681145 66.4201824,29.5986145 C66.3065157,29.3291145 66.1314324,29.0990312 65.8949324,28.9083645 C65.6584324,28.7176978 65.3586824,28.5719478 64.9956824,28.4711145 C64.6326824,28.3702812 64.2018491,28.3198645 63.7031824,28.3198645 L63.7031824,28.3198645 L61.4756824,28.3198645 L61.4756824,36.2013645 L62.5371824,36.2013645 Z M63.6536824,32.1368645 L62.5371824,32.1368645 L62.5371824,29.1613645 L63.7031824,29.1613645 C64.3155157,29.1613645 64.7765991,29.2805312 65.0864324,29.5188645 C65.3962657,29.7571978 65.5511824,30.1110312 65.5511824,30.5803645 C65.5511824,30.8113645 65.5108491,31.0221978 65.4301824,31.2128645 C65.3495157,31.4035312 65.2294324,31.5676145 65.0699324,31.7051145 C64.9104324,31.8426145 64.7124324,31.9489478 64.4759324,32.0241145 C64.2394324,32.0992812 63.9653491,32.1368645 63.6536824,32.1368645 L63.6536824,32.1368645 Z" id="DESIGNER" fill="#FFFFFF" fill-rule="nonzero" transform="translate(38.740057, 32.260614) rotate(37.000000) translate(-38.740057, -32.260614) "></path>
                            </g>
                            <path d="M39.3940116,58.8418028 L49.3546322,78.7168887 C49.60208,79.2106377 49.4024135,79.8114964 48.9086645,80.0589442 C48.5918575,80.2177155 48.2146827,80.1969644 47.9172055,80.0043967 L39.0434152,74.2600743 C38.7127554,74.0460265 38.2872446,74.0460265 37.9565848,74.2600743 L29.0827945,80.0043967 C28.6191713,80.3045166 28.0000352,80.171971 27.6999153,79.7083478 C27.5073476,79.4108705 27.4865964,79.0336957 27.6453678,78.7168887 L37.6059884,58.8418028 C37.8534362,58.3480538 38.4542949,58.1483873 38.9480439,58.395835 C39.1409134,58.4924938 39.2973528,58.6489332 39.3940116,58.8418028 Z" id="Rectangle" fill="#7878F9"></path>
                        </g>
                    </g>
                </g>
            </g>
        </g>
    </g>
</svg>