<?xml version="1.0" encoding="UTF-8"?>
<svg width="1284px" height="612px" viewBox="0 0 1284 612" version="1.1" xmlns="http://www.w3.org/2000/svg" xmlns:xlink="http://www.w3.org/1999/xlink">
    <!-- Generator: sketchtool 62 (101010) - https://sketch.com -->
    <title>30BD6230-77FF-4C12-9FAC-9648F3D85F2B@1x</title>
    <desc>Created with sketchtool.</desc>
    <g id="UI" stroke="none" stroke-width="1" fill="none" fill-rule="evenodd">
        <g id="B.1.0---Competenze" transform="translate(0.000000, -95.000000)">
            <g id="element/competenze/top" transform="translate(0.000000, 95.000000)">
                <g id="element/competenze" transform="translate(335.000000, 18.000000) scale(-1, 1) translate(-335.000000, -18.000000) " fill="#FFFFFF">
                    <g id="Group-201">
                        <polygon id="Fill-1" points="0 0.921725805 5.72152716 4.41296061 6 3.90419541 0.277504238 0.41296061"></polygon>
                        <polygon id="Fill-2" points="16.2778988 0.41296061 16 0.921595636 21.7221012 4.41296061 22 3.90432558"></polygon>
                        <polygon id="Fill-3" points="33 0.921725805 38.7215272 4.41296061 39 3.90419541 33.2779885 0.41296061"></polygon>
                        <polygon id="Fill-4" points="49 0.921725805 54.7224734 4.41296061 55 3.90419541 49.2775266 0.41296061"></polygon>
                        <polygon id="Fill-5" points="65 0.921725805 70.721989 4.41296061 71 3.90419541 65.278011 0.41296061"></polygon>
                        <polygon id="Fill-6" points="81.2778988 0.41296061 81 0.921595636 86.7221012 4.41296061 87 3.90432558"></polygon>
                        <polygon id="Fill-7" points="97 0.921725805 102.721989 4.41296061 103 3.90419541 97.278011 0.41296061"></polygon>
                        <polygon id="Fill-8" points="113 0.921725805 118.721989 4.41296061 119 3.90419541 113.277527 0.41296061"></polygon>
                        <polygon id="Fill-9" points="130 0.921725805 135.721989 4.41296061 136 3.90419541 130.278011 0.41296061"></polygon>
                        <polygon id="Fill-10" points="146.277921 0.41296061 146 0.921595636 151.722079 4.41296061 152 3.90432558"></polygon>
                        <polygon id="Fill-11" points="162 0.921725805 167.722473 4.41296061 168 3.90419541 162.278011 0.41296061"></polygon>
                        <polygon id="Fill-12" points="178 0.921725805 183.722011 4.41296061 184 3.90419541 178.277504 0.41296061"></polygon>
                        <polygon id="Fill-13" points="194 0.921725805 199.721989 4.41296061 200 3.90419541 194.278011 0.41296061"></polygon>
                        <polygon id="Fill-14" points="210.277899 0.41296061 210 0.921595636 215.722101 4.41296061 216 3.90432558"></polygon>
                        <polygon id="Fill-15" points="227 0.921725805 232.722473 4.41296061 233 3.90419541 227.278011 0.41296061"></polygon>
                        <polygon id="Fill-16" points="243 0.921725805 248.721989 4.41296061 249 3.90419541 243.277527 0.41296061"></polygon>
                        <polygon id="Fill-17" points="259 0.921725805 264.721989 4.41296061 265 3.90419541 259.278011 0.41296061"></polygon>
                        <polygon id="Fill-18" points="275 0.921725805 280.721527 4.41296061 281 3.90419541 275.277989 0.41296061"></polygon>
                        <polygon id="Fill-19" points="291 0.921725805 296.722473 4.41296061 297 3.90419541 291.278011 0.41296061"></polygon>
                        <polygon id="Fill-20" points="308 0.921725805 313.721989 4.41296061 314 3.90419541 308.278011 0.41296061"></polygon>
                        <polygon id="Fill-21" points="324 0.921725805 329.722496 4.41296061 330 3.90419541 324.277989 0.41296061"></polygon>
                        <polygon id="Fill-22" points="340 0.921725805 345.721989 4.41296061 346 3.90419541 340.278011 0.41296061"></polygon>
                        <polygon id="Fill-23" points="356 0.921725805 361.721989 4.41296061 362 3.90419541 356.277042 0.41296061"></polygon>
                        <polygon id="Fill-24" points="372 0.921725805 377.721989 4.41296061 378 3.90419541 372.278011 0.41296061"></polygon>
                        <polygon id="Fill-25" points="388.277921 0.41296061 388 0.921595636 393.722079 4.41296061 394 3.90432558"></polygon>
                        <polygon id="Fill-26" points="405 0.921725805 410.721989 4.41296061 411 3.90419541 405.278011 0.41296061"></polygon>
                        <polygon id="Fill-27" points="421 0.921725805 426.721989 4.41296061 427 3.90419541 421.277527 0.41296061"></polygon>
                        <polygon id="Fill-28" points="437 0.921725805 442.721989 4.41296061 443 3.90419541 437.278011 0.41296061"></polygon>
                        <polygon id="Fill-29" points="453.277899 0.41296061 453 0.921595636 458.722101 4.41296061 459 3.90432558"></polygon>
                        <polygon id="Fill-30" points="469 0.921725805 474.722473 4.41296061 475 3.90419541 469.278011 0.41296061"></polygon>
                        <polygon id="Fill-31" points="486 0.921725805 491.722011 4.41296061 492 3.90419541 486.277504 0.41296061"></polygon>
                        <polygon id="Fill-32" points="502 0.921725805 507.721989 4.41296061 508 3.90419541 502.278011 0.41296061"></polygon>
                        <polygon id="Fill-33" points="518.277899 0.41296061 518 0.921595636 523.722101 4.41296061 524 3.90432558"></polygon>
                        <polygon id="Fill-34" points="534 0.921725805 539.722011 4.41296061 540 3.90419541 534.277989 0.41296061"></polygon>
                        <polygon id="Fill-35" points="550 0.921725805 555.721527 4.41296061 556 3.90419541 550.277504 0.41296061"></polygon>
                        <polygon id="Fill-36" points="566 0.921725805 571.722011 4.41296061 572 3.90419541 566.277989 0.41296061"></polygon>
                        <polygon id="Fill-37" points="583 0.921725805 588.721527 4.41296061 589 3.90419541 583.277989 0.41296061"></polygon>
                        <polygon id="Fill-38" points="599 0.921725805 604.721989 4.41296061 605 3.90419541 599.277527 0.41296061"></polygon>
                        <polygon id="Fill-39" points="615 0.921725805 620.722011 4.41296061 621 3.90419541 615.277989 0.41296061"></polygon>
                        <polygon id="Fill-40" points="631.277899 0.41296061 631 0.921595636 636.722101 4.41296061 637 3.90432558"></polygon>
                        <polygon id="Fill-41" points="647 0.921725805 652.722011 4.41296061 653 3.90419541 647.277989 0.41296061"></polygon>
                        <polygon id="Fill-42" points="664 0.921725805 669.721989 4.41296061 670 3.90419541 664.277527 0.41296061"></polygon>
                        <polygon id="Fill-51" points="0 15.9217258 5.72152716 19.4129606 6 18.9047073 0.277504238 15.4129606"></polygon>
                        <polygon id="Fill-52" points="16.2779212 15.4129606 22 18.9043256 21.7220788 19.4129606 16 15.9215956"></polygon>
                        <polygon id="Fill-53" points="33.278011 15.4129606 39 18.9041954 38.721989 19.4129606 33 15.9217258"></polygon>
                        <polygon id="Fill-54" points="49.277549 15.4129606 55 18.9041954 54.722451 19.4129606 49 15.9217258"></polygon>
                        <polygon id="Fill-55" points="65.278011 15.4129606 71 18.9041954 70.721989 19.4129606 65 15.9217258"></polygon>
                        <polygon id="Fill-56" points="81.2779212 15.4129606 87 18.9043256 86.7220788 19.4129606 81 15.9215956"></polygon>
                        <polygon id="Fill-57" points="97.278011 15.4129606 103 18.9041954 102.721989 19.4129606 97 15.9217258"></polygon>
                        <polygon id="Fill-58" points="113.277549 15.4129606 119 18.9041954 118.722451 19.4129606 113 15.9217258"></polygon>
                        <polygon id="Fill-59" points="130.278011 15.4129606 136 18.9041954 135.721989 19.4129606 130 15.9217258"></polygon>
                        <polygon id="Fill-60" points="146.277921 15.4129606 152 18.9043256 151.722079 19.4129606 146 15.9215956"></polygon>
                        <polygon id="Fill-61" points="162.278011 15.4129606 168 18.9041954 167.722473 19.4129606 162 15.9217258"></polygon>
                        <polygon id="Fill-62" points="178.277527 15.4129606 184 18.9041954 183.721989 19.4129606 178 15.9217258"></polygon>
                        <polygon id="Fill-63" points="194.278011 15.4129606 200 18.9041954 199.721989 19.4129606 194 15.9217258"></polygon>
                        <polygon id="Fill-64" points="210.277921 15.4129606 216 18.9043256 215.722079 19.4129606 210 15.9215956"></polygon>
                        <polygon id="Fill-65" points="227.278011 15.4129606 233 18.9041954 232.722473 19.4129606 227 15.9217258"></polygon>
                        <polygon id="Fill-66" points="243.277527 15.4129606 249 18.9041954 248.721989 19.4129606 243 15.9217258"></polygon>
                        <polygon id="Fill-67" points="259.278011 15.4129606 265 18.9041954 264.721989 19.4129606 259 15.9217258"></polygon>
                        <polygon id="Fill-68" points="275.278011 15.4129606 281 18.9041954 280.721989 19.4129606 275 15.9217258"></polygon>
                        <polygon id="Fill-69" points="291.278011 15.4129606 297 18.9041954 296.722473 19.4129606 291 15.9217258"></polygon>
                        <polygon id="Fill-70" points="308.278011 15.4129606 314 18.9041954 313.721989 19.4129606 308 15.9217258"></polygon>
                        <polygon id="Fill-71" points="324.278011 15.4129606 330 18.9041954 329.722473 19.4129606 324 15.9217258"></polygon>
                        <polygon id="Fill-72" points="340.278011 15.4129606 346 18.9041954 345.721989 19.4129606 340 15.9217258"></polygon>
                        <polygon id="Fill-73" points="356.277549 15.4129606 362 18.9041954 361.722451 19.4129606 356 15.9217258"></polygon>
                        <polygon id="Fill-74" points="372.278011 15.4129606 378 18.9041954 377.721989 19.4129606 372 15.9217258"></polygon>
                        <polygon id="Fill-75" points="388.277921 15.4129606 394 18.9043256 393.722079 19.4129606 388 15.9215956"></polygon>
                        <polygon id="Fill-76" points="405.278011 15.4129606 411 18.9041954 410.721989 19.4129606 405 15.9217258"></polygon>
                        <polygon id="Fill-77" points="421.277527 15.4129606 427 18.9041954 426.721989 19.4129606 421 15.9217258"></polygon>
                        <polygon id="Fill-78" points="437.278011 15.4129606 443 18.9041954 442.721989 19.4129606 437 15.9217258"></polygon>
                        <polygon id="Fill-79" points="453.277921 15.4129606 459 18.9043256 458.722079 19.4129606 453 15.9215956"></polygon>
                        <polygon id="Fill-80" points="469.278011 15.4129606 475 18.9041954 474.722473 19.4129606 469 15.9217258"></polygon>
                        <polygon id="Fill-81" points="486.277527 15.4129606 492 18.9041954 491.721989 19.4129606 486 15.9217258"></polygon>
                        <polygon id="Fill-82" points="502.278011 15.4129606 508 18.9041954 507.721989 19.4129606 502 15.9217258"></polygon>
                        <polygon id="Fill-83" points="518.277921 15.4129606 524 18.9043256 523.722563 19.4129606 518 15.9215956"></polygon>
                        <polygon id="Fill-84" points="534.278011 15.4129606 540 18.9041954 539.722473 19.4129606 534 15.9217258"></polygon>
                        <polygon id="Fill-85" points="550.277527 15.4129606 556 18.9041954 555.721989 19.4129606 550 15.9217258"></polygon>
                        <polygon id="Fill-86" points="566.278011 15.4129606 572 18.9041954 571.722473 19.4129606 566 15.9217258"></polygon>
                        <polygon id="Fill-87" points="583.278011 15.4129606 589 18.9041954 588.721989 19.4129606 583 15.9217258"></polygon>
                        <polygon id="Fill-88" points="599.277549 15.4129606 605 18.9041954 604.722451 19.4129606 599 15.9217258"></polygon>
                        <polygon id="Fill-89" points="615.278011 15.4129606 621 18.9041954 620.721989 19.4129606 615 15.9217258"></polygon>
                        <polygon id="Fill-90" points="631.277921 15.4129606 637 18.9043256 636.722079 19.4129606 631 15.9215956"></polygon>
                        <polygon id="Fill-91" points="647.278011 15.4129606 653 18.9041954 652.721989 19.4129606 647 15.9217258"></polygon>
                        <polygon id="Fill-92" points="664.277549 15.4129606 670 18.9041954 669.722451 19.4129606 664 15.9217258"></polygon>
                        <polygon id="Fill-101" points="0 31.9217258 5.72152716 35.4129606 6 34.9047073 0.277504238 31.4129606"></polygon>
                        <polygon id="Fill-102" points="16.2779212 31.4129606 22 34.9043906 21.7220788 35.4129606 16 31.9215306"></polygon>
                        <polygon id="Fill-103" points="33.278011 31.4129606 39 34.9041954 38.721989 35.4129606 33 31.9217258"></polygon>
                        <polygon id="Fill-104" points="49.277549 31.4129606 55 34.9041954 54.722451 35.4129606 49 31.9217258"></polygon>
                        <polygon id="Fill-105" points="65.278011 31.4129606 71 34.9041954 70.721989 35.4129606 65 31.9217258"></polygon>
                        <polygon id="Fill-106" points="81.2779212 31.4129606 87 34.9043906 86.7220788 35.4129606 81 31.9215306"></polygon>
                        <polygon id="Fill-107" points="97.278011 31.4129606 103 34.9041954 102.721989 35.4129606 97 31.9217258"></polygon>
                        <polygon id="Fill-108" points="113.277549 31.4129606 119 34.9041954 118.722451 35.4129606 113 31.9217258"></polygon>
                        <polygon id="Fill-109" points="130.278011 31.4129606 136 34.9041954 135.721989 35.4129606 130 31.9217258"></polygon>
                        <polygon id="Fill-110" points="146.277921 31.4129606 152 34.9043906 151.722079 35.4129606 146 31.9215306"></polygon>
                        <polygon id="Fill-111" points="162.278011 31.4129606 168 34.9041954 167.722473 35.4129606 162 31.9217258"></polygon>
                        <polygon id="Fill-112" points="178.277527 31.4129606 184 34.9041954 183.721989 35.4129606 178 31.9217258"></polygon>
                        <polygon id="Fill-113" points="194.278011 31.4129606 200 34.9041954 199.721989 35.4129606 194 31.9217258"></polygon>
                        <polygon id="Fill-114" points="210.277921 31.4129606 216 34.9043906 215.722079 35.4129606 210 31.9215306"></polygon>
                        <polygon id="Fill-115" points="227.278011 31.4129606 233 34.9041954 232.722473 35.4129606 227 31.9217258"></polygon>
                        <polygon id="Fill-116" points="243.277527 31.4129606 249 34.9041954 248.721989 35.4129606 243 31.9217258"></polygon>
                        <polygon id="Fill-117" points="259.278011 31.4129606 265 34.9041954 264.721989 35.4129606 259 31.9217258"></polygon>
                        <polygon id="Fill-118" points="275.278011 31.4129606 281 34.9041954 280.721989 35.4129606 275 31.9217258"></polygon>
                        <polygon id="Fill-119" points="291.278011 31.4129606 297 34.9041954 296.722473 35.4129606 291 31.9217258"></polygon>
                        <polygon id="Fill-120" points="308.278011 31.4129606 314 34.9041954 313.721989 35.4129606 308 31.9217258"></polygon>
                        <polygon id="Fill-121" points="324.278011 31.4129606 330 34.9041954 329.722473 35.4129606 324 31.9217258"></polygon>
                        <polygon id="Fill-122" points="340.278011 31.4129606 346 34.9041954 345.721989 35.4129606 340 31.9217258"></polygon>
                        <polygon id="Fill-123" points="356.277549 31.4129606 362 34.9041954 361.722451 35.4129606 356 31.9217258"></polygon>
                        <polygon id="Fill-124" points="372.278011 31.4129606 378 34.9041954 377.721989 35.4129606 372 31.9217258"></polygon>
                        <polygon id="Fill-125" points="388.277921 31.4129606 394 34.9043906 393.722079 35.4129606 388 31.9215306"></polygon>
                        <polygon id="Fill-126" points="405.278011 31.4129606 411 34.9041954 410.721989 35.4129606 405 31.9217258"></polygon>
                        <polygon id="Fill-127" points="421.277527 31.4129606 427 34.9041954 426.721989 35.4129606 421 31.9217258"></polygon>
                        <polygon id="Fill-128" points="437.278011 31.4129606 443 34.9041954 442.721989 35.4129606 437 31.9217258"></polygon>
                        <polygon id="Fill-129" points="453.277921 31.4129606 459 34.9043906 458.722079 35.4129606 453 31.9215306"></polygon>
                        <polygon id="Fill-130" points="469.278011 31.4129606 475 34.9041954 474.722473 35.4129606 469 31.9217258"></polygon>
                        <polygon id="Fill-131" points="486.277527 31.4129606 492 34.9041954 491.721989 35.4129606 486 31.9217258"></polygon>
                        <polygon id="Fill-132" points="502.278011 31.4129606 508 34.9041954 507.721989 35.4129606 502 31.9217258"></polygon>
                        <polygon id="Fill-133" points="518.277921 31.4129606 524 34.9043906 523.722563 35.4129606 518 31.9215306"></polygon>
                        <polygon id="Fill-134" points="534.278011 31.4129606 540 34.9041954 539.722473 35.4129606 534 31.9217258"></polygon>
                        <polygon id="Fill-135" points="550.277527 31.4129606 556 34.9041954 555.721989 35.4129606 550 31.9217258"></polygon>
                        <polygon id="Fill-136" points="566.278011 31.4129606 572 34.9041954 571.722473 35.4129606 566 31.9217258"></polygon>
                        <polygon id="Fill-137" points="583.278011 31.4129606 589 34.9041954 588.721989 35.4129606 583 31.9217258"></polygon>
                        <polygon id="Fill-138" points="599.277549 31.4129606 605 34.9041954 604.722451 35.4129606 599 31.9217258"></polygon>
                        <polygon id="Fill-139" points="615.278011 31.4129606 621 34.9041954 620.721989 35.4129606 615 31.9217258"></polygon>
                        <polygon id="Fill-140" points="631.277921 31.4129606 637 34.9043906 636.722079 35.4129606 631 31.9215306"></polygon>
                        <polygon id="Fill-141" points="647.278011 31.4129606 653 34.9041954 652.721989 35.4129606 647 31.9217258"></polygon>
                        <polygon id="Fill-142" points="664.277549 31.4129606 670 34.9041954 669.722451 35.4129606 664 31.9217258"></polygon>
                    </g>
                </g>
                <path d="M444.825598,9.78482743 L452.218147,24.5421921 C452.465508,25.0359849 452.265735,25.6368082 451.771942,25.8841686 C451.455099,26.0428878 451.077918,26.0220647 450.780472,25.8294322 L444.475091,21.745929 C444.144352,21.531735 443.718662,21.531735 443.387922,21.745929 L437.082542,25.8294322 C436.618979,26.1296456 435.999816,25.9972249 435.699603,25.5336622 C435.50697,25.2362164 435.486147,24.8590351 435.644866,24.5421921 L443.037416,9.78482743 C443.284776,9.29103467 443.8856,9.09126177 444.379392,9.33862215 C444.572387,9.43530098 444.728919,9.59183248 444.825598,9.78482743 Z" id="Rectangle-Copy" fill="#7878F9" transform="translate(443.931507, 17.912877) rotate(126.000000) translate(-443.931507, -17.912877) "></path>
                <path d="M1275.89443,594.788854 L1283.35726,609.714519 C1283.60425,610.208498 1283.40402,610.809171 1282.91005,611.05616 C1282.59305,611.214658 1282.21584,611.193529 1281.91853,611.000621 L1275.5443,606.864774 C1275.21323,606.649959 1274.78677,606.649959 1274.4557,606.864774 L1268.08147,611.000621 C1267.61817,611.301231 1266.99889,611.169341 1266.69828,610.706036 C1266.50537,610.408724 1266.48424,610.031515 1266.64274,609.714519 L1274.10557,594.788854 C1274.35256,594.294876 1274.95324,594.094652 1275.44721,594.341641 C1275.64074,594.438404 1275.79766,594.595327 1275.89443,594.788854 Z" id="Rectangle-Copy-3" fill="#36F2B9" transform="translate(1275.000000, 603.000000) rotate(-180.000000) translate(-1275.000000, -603.000000) "></path>
            </g>
        </g>
    </g>
</svg>