<?xml version="1.0" encoding="UTF-8"?>
<svg width="670px" height="51px" viewBox="0 0 670 51" version="1.1" xmlns="http://www.w3.org/2000/svg" xmlns:xlink="http://www.w3.org/1999/xlink">
    <!-- Generator: sketchtool 62 (101010) - https://sketch.com -->
    <title>363272D0-7818-433D-8FE3-320BDCC3D832@1x</title>
    <desc>Created with sketchtool.</desc>
    <g id="UI" stroke="none" stroke-width="1" fill="none" fill-rule="evenodd">
        <g id="B.1.0---Competenze" transform="translate(-770.000000, -666.000000)">
            <g id="element/competenze/bottom" transform="translate(770.000000, 666.000000)">
                <g id="Group-201">
                    <polygon id="Fill-1" fill="#FFFFFF" points="0 0.921725805 5.72152716 4.41296061 6 3.90419541 0.277504238 0.41296061"></polygon>
                    <polygon id="Fill-2" fill="#FFFFFF" points="16.2778988 0.41296061 16 0.921595636 21.7221012 4.41296061 22 3.90432558"></polygon>
                    <polygon id="Fill-3" fill="#FFFFFF" points="33 0.921725805 38.7215272 4.41296061 39 3.90419541 33.2779885 0.41296061"></polygon>
                    <polygon id="Fill-4" fill="#FFFFFF" points="49 0.921725805 54.7224734 4.41296061 55 3.90419541 49.2775266 0.41296061"></polygon>
                    <polygon id="Fill-5" fill="#FFFFFF" points="65 0.921725805 70.721989 4.41296061 71 3.90419541 65.278011 0.41296061"></polygon>
                    <polygon id="Fill-6" fill="#FFFFFF" points="81.2778988 0.41296061 81 0.921595636 86.7221012 4.41296061 87 3.90432558"></polygon>
                    <polygon id="Fill-7" fill="#FFFFFF" points="97 0.921725805 102.721989 4.41296061 103 3.90419541 97.278011 0.41296061"></polygon>
                    <polygon id="Fill-8" fill="#FFFFFF" points="113 0.921725805 118.721989 4.41296061 119 3.90419541 113.277527 0.41296061"></polygon>
                    <polygon id="Fill-9" fill="#FFFFFF" points="130 0.921725805 135.721989 4.41296061 136 3.90419541 130.278011 0.41296061"></polygon>
                    <polygon id="Fill-10" fill="#FFFFFF" points="146.277921 0.41296061 146 0.921595636 151.722079 4.41296061 152 3.90432558"></polygon>
                    <polygon id="Fill-11" fill="#FFFFFF" points="162 0.921725805 167.722473 4.41296061 168 3.90419541 162.278011 0.41296061"></polygon>
                    <polygon id="Fill-12" fill="#FFFFFF" points="178 0.921725805 183.722011 4.41296061 184 3.90419541 178.277504 0.41296061"></polygon>
                    <polygon id="Fill-13" fill="#FFFFFF" points="194 0.921725805 199.721989 4.41296061 200 3.90419541 194.278011 0.41296061"></polygon>
                    <polygon id="Fill-14" fill="#FFFFFF" points="210.277899 0.41296061 210 0.921595636 215.722101 4.41296061 216 3.90432558"></polygon>
                    <polygon id="Fill-15" fill="#FFFFFF" points="227 0.921725805 232.722473 4.41296061 233 3.90419541 227.278011 0.41296061"></polygon>
                    <polygon id="Fill-16" fill="#FFFFFF" points="243 0.921725805 248.721989 4.41296061 249 3.90419541 243.277527 0.41296061"></polygon>
                    <polygon id="Fill-17" fill="#FFFFFF" points="259 0.921725805 264.721989 4.41296061 265 3.90419541 259.278011 0.41296061"></polygon>
                    <polygon id="Fill-18" fill="#FFFFFF" points="275 0.921725805 280.721527 4.41296061 281 3.90419541 275.277989 0.41296061"></polygon>
                    <polygon id="Fill-19" fill="#FFFFFF" points="291 0.921725805 296.722473 4.41296061 297 3.90419541 291.278011 0.41296061"></polygon>
                    <polygon id="Fill-20" fill="#FFFFFF" points="308 0.921725805 313.721989 4.41296061 314 3.90419541 308.278011 0.41296061"></polygon>
                    <polygon id="Fill-21" fill="#FFFFFF" points="324 0.921725805 329.722496 4.41296061 330 3.90419541 324.277989 0.41296061"></polygon>
                    <polygon id="Fill-22" fill="#FFFFFF" points="340 0.921725805 345.721989 4.41296061 346 3.90419541 340.278011 0.41296061"></polygon>
                    <polygon id="Fill-23" fill="#FFFFFF" points="356 0.921725805 361.721989 4.41296061 362 3.90419541 356.277042 0.41296061"></polygon>
                    <polygon id="Fill-24" fill="#FFFFFF" points="372 0.921725805 377.721989 4.41296061 378 3.90419541 372.278011 0.41296061"></polygon>
                    <polygon id="Fill-25" fill="#FFFFFF" points="388.277921 0.41296061 388 0.921595636 393.722079 4.41296061 394 3.90432558"></polygon>
                    <polygon id="Fill-26" fill="#FFFFFF" points="405 0.921725805 410.721989 4.41296061 411 3.90419541 405.278011 0.41296061"></polygon>
                    <polygon id="Fill-27" fill="#FFFFFF" points="421 0.921725805 426.721989 4.41296061 427 3.90419541 421.277527 0.41296061"></polygon>
                    <polygon id="Fill-28" fill="#FFFFFF" points="437 0.921725805 442.721989 4.41296061 443 3.90419541 437.278011 0.41296061"></polygon>
                    <polygon id="Fill-29" fill="#FFFFFF" points="453.277899 0.41296061 453 0.921595636 458.722101 4.41296061 459 3.90432558"></polygon>
                    <polygon id="Fill-30" fill="#FFFFFF" points="469 0.921725805 474.722473 4.41296061 475 3.90419541 469.278011 0.41296061"></polygon>
                    <polygon id="Fill-31" fill="#FFFFFF" points="486 0.921725805 491.722011 4.41296061 492 3.90419541 486.277504 0.41296061"></polygon>
                    <polygon id="Fill-32" fill="#FFFFFF" points="502 0.921725805 507.721989 4.41296061 508 3.90419541 502.278011 0.41296061"></polygon>
                    <polygon id="Fill-33" fill="#FFFFFF" points="518.277899 0.41296061 518 0.921595636 523.722101 4.41296061 524 3.90432558"></polygon>
                    <polygon id="Fill-34" fill="#FFFFFF" points="534 0.921725805 539.722011 4.41296061 540 3.90419541 534.277989 0.41296061"></polygon>
                    <polygon id="Fill-35" fill="#FFFFFF" points="550 0.921725805 555.721527 4.41296061 556 3.90419541 550.277504 0.41296061"></polygon>
                    <polygon id="Fill-36" fill="#FFFFFF" points="566 0.921725805 571.722011 4.41296061 572 3.90419541 566.277989 0.41296061"></polygon>
                    <polygon id="Fill-37" fill="#FFFFFF" points="583 0.921725805 588.721527 4.41296061 589 3.90419541 583.277989 0.41296061"></polygon>
                    <polygon id="Fill-38" fill="#FFFFFF" points="599 0.921725805 604.721989 4.41296061 605 3.90419541 599.277527 0.41296061"></polygon>
                    <polygon id="Fill-39" fill="#FFFFFF" points="615 0.921725805 620.722011 4.41296061 621 3.90419541 615.277989 0.41296061"></polygon>
                    <polygon id="Fill-40" fill="#FFFFFF" points="631.277899 0.41296061 631 0.921595636 636.722101 4.41296061 637 3.90432558"></polygon>
                    <polygon id="Fill-41" fill="#FFFFFF" points="647 0.921725805 652.722011 4.41296061 653 3.90419541 647.277989 0.41296061"></polygon>
                    <polygon id="Fill-42" fill="#FFFFFF" points="664 0.921725805 669.721989 4.41296061 670 3.90419541 664.277527 0.41296061"></polygon>
                    <polygon id="Fill-51" fill="#FFFFFF" points="0 15.9217258 5.72152716 19.4129606 6 18.9047073 0.277504238 15.4129606"></polygon>
                    <polygon id="Fill-52" fill="#FFFFFF" points="16.2779212 15.4129606 22 18.9043256 21.7220788 19.4129606 16 15.9215956"></polygon>
                    <polygon id="Fill-53" fill="#FFFFFF" points="33.278011 15.4129606 39 18.9041954 38.721989 19.4129606 33 15.9217258"></polygon>
                    <polygon id="Fill-54" fill="#FFFFFF" points="49.277549 15.4129606 55 18.9041954 54.722451 19.4129606 49 15.9217258"></polygon>
                    <polygon id="Fill-55" fill="#FFFFFF" points="65.278011 15.4129606 71 18.9041954 70.721989 19.4129606 65 15.9217258"></polygon>
                    <polygon id="Fill-56" fill="#FFFFFF" points="81.2779212 15.4129606 87 18.9043256 86.7220788 19.4129606 81 15.9215956"></polygon>
                    <polygon id="Fill-57" fill="#FFFFFF" points="97.278011 15.4129606 103 18.9041954 102.721989 19.4129606 97 15.9217258"></polygon>
                    <polygon id="Fill-58" fill="#FFFFFF" points="113.277549 15.4129606 119 18.9041954 118.722451 19.4129606 113 15.9217258"></polygon>
                    <polygon id="Fill-59" fill="#FFFFFF" points="130.278011 15.4129606 136 18.9041954 135.721989 19.4129606 130 15.9217258"></polygon>
                    <polygon id="Fill-60" fill="#FFFFFF" points="146.277921 15.4129606 152 18.9043256 151.722079 19.4129606 146 15.9215956"></polygon>
                    <polygon id="Fill-61" fill="#FFFFFF" points="162.278011 15.4129606 168 18.9041954 167.722473 19.4129606 162 15.9217258"></polygon>
                    <polygon id="Fill-62" fill="#FFFFFF" points="178.277527 15.4129606 184 18.9041954 183.721989 19.4129606 178 15.9217258"></polygon>
                    <polygon id="Fill-63" fill="#FFFFFF" points="194.278011 15.4129606 200 18.9041954 199.721989 19.4129606 194 15.9217258"></polygon>
                    <polygon id="Fill-64" fill="#FFFFFF" points="210.277921 15.4129606 216 18.9043256 215.722079 19.4129606 210 15.9215956"></polygon>
                    <polygon id="Fill-65" fill="#FFFFFF" points="227.278011 15.4129606 233 18.9041954 232.722473 19.4129606 227 15.9217258"></polygon>
                    <polygon id="Fill-66" fill="#FFFFFF" points="243.277527 15.4129606 249 18.9041954 248.721989 19.4129606 243 15.9217258"></polygon>
                    <polygon id="Fill-67" fill="#FFFFFF" points="259.278011 15.4129606 265 18.9041954 264.721989 19.4129606 259 15.9217258"></polygon>
                    <polygon id="Fill-68" fill="#FFFFFF" points="275.278011 15.4129606 281 18.9041954 280.721989 19.4129606 275 15.9217258"></polygon>
                    <polygon id="Fill-69" fill="#FFFFFF" points="291.278011 15.4129606 297 18.9041954 296.722473 19.4129606 291 15.9217258"></polygon>
                    <polygon id="Fill-70" fill="#FFFFFF" points="308.278011 15.4129606 314 18.9041954 313.721989 19.4129606 308 15.9217258"></polygon>
                    <polygon id="Fill-71" fill="#FFFFFF" points="324.278011 15.4129606 330 18.9041954 329.722473 19.4129606 324 15.9217258"></polygon>
                    <polygon id="Fill-72" fill="#FFFFFF" points="340.278011 15.4129606 346 18.9041954 345.721989 19.4129606 340 15.9217258"></polygon>
                    <polygon id="Fill-73" fill="#FFFFFF" points="356.277549 15.4129606 362 18.9041954 361.722451 19.4129606 356 15.9217258"></polygon>
                    <polygon id="Fill-74" fill="#FFFFFF" points="372.278011 15.4129606 378 18.9041954 377.721989 19.4129606 372 15.9217258"></polygon>
                    <polygon id="Fill-75" fill="#FFFFFF" points="388.277921 15.4129606 394 18.9043256 393.722079 19.4129606 388 15.9215956"></polygon>
                    <polygon id="Fill-76" fill="#FFFFFF" points="405.278011 15.4129606 411 18.9041954 410.721989 19.4129606 405 15.9217258"></polygon>
                    <polygon id="Fill-77" fill="#FFFFFF" points="421.277527 15.4129606 427 18.9041954 426.721989 19.4129606 421 15.9217258"></polygon>
                    <polygon id="Fill-78" fill="#FFFFFF" points="437.278011 15.4129606 443 18.9041954 442.721989 19.4129606 437 15.9217258"></polygon>
                    <polygon id="Fill-79" fill="#FFFFFF" points="453.277921 15.4129606 459 18.9043256 458.722079 19.4129606 453 15.9215956"></polygon>
                    <polygon id="Fill-80" fill="#FFFFFF" points="469.278011 15.4129606 475 18.9041954 474.722473 19.4129606 469 15.9217258"></polygon>
                    <polygon id="Fill-81" fill="#FFFFFF" points="486.277527 15.4129606 492 18.9041954 491.721989 19.4129606 486 15.9217258"></polygon>
                    <polygon id="Fill-82" fill="#FFFFFF" points="502.278011 15.4129606 508 18.9041954 507.721989 19.4129606 502 15.9217258"></polygon>
                    <polygon id="Fill-83" fill="#FFFFFF" points="518.277921 15.4129606 524 18.9043256 523.722563 19.4129606 518 15.9215956"></polygon>
                    <polygon id="Fill-84" fill="#FFFFFF" points="534.278011 15.4129606 540 18.9041954 539.722473 19.4129606 534 15.9217258"></polygon>
                    <polygon id="Fill-85" fill="#FFFFFF" points="550.277527 15.4129606 556 18.9041954 555.721989 19.4129606 550 15.9217258"></polygon>
                    <polygon id="Fill-86" fill="#FFFFFF" points="566.278011 15.4129606 572 18.9041954 571.722473 19.4129606 566 15.9217258"></polygon>
                    <polygon id="Fill-87" fill="#FFFFFF" points="583.278011 15.4129606 589 18.9041954 588.721989 19.4129606 583 15.9217258"></polygon>
                    <polygon id="Fill-88" fill="#FFFFFF" points="599.277549 15.4129606 605 18.9041954 604.722451 19.4129606 599 15.9217258"></polygon>
                    <polygon id="Fill-89" fill="#FFFFFF" points="615.278011 15.4129606 621 18.9041954 620.721989 19.4129606 615 15.9217258"></polygon>
                    <polygon id="Fill-90" fill="#FFFFFF" points="631.277921 15.4129606 637 18.9043256 636.722079 19.4129606 631 15.9215956"></polygon>
                    <polygon id="Fill-91" fill="#FFFFFF" points="647.278011 15.4129606 653 18.9041954 652.721989 19.4129606 647 15.9217258"></polygon>
                    <polygon id="Fill-92" fill="#FFFFFF" points="664.277549 15.4129606 670 18.9041954 669.722451 19.4129606 664 15.9217258"></polygon>
                    <polygon id="Fill-101" fill="#FFFFFF" points="0 31.9217258 5.72152716 35.4129606 6 34.9047073 0.277504238 31.4129606"></polygon>
                    <polygon id="Fill-102" fill="#FFFFFF" points="16.2779212 31.4129606 22 34.9043906 21.7220788 35.4129606 16 31.9215306"></polygon>
                    <polygon id="Fill-103" fill="#FFFFFF" points="33.278011 31.4129606 39 34.9041954 38.721989 35.4129606 33 31.9217258"></polygon>
                    <polygon id="Fill-104" fill="#FFFFFF" points="49.277549 31.4129606 55 34.9041954 54.722451 35.4129606 49 31.9217258"></polygon>
                    <polygon id="Fill-105" fill="#FFFFFF" points="65.278011 31.4129606 71 34.9041954 70.721989 35.4129606 65 31.9217258"></polygon>
                    <polygon id="Fill-106" fill="#FFFFFF" points="81.2779212 31.4129606 87 34.9043906 86.7220788 35.4129606 81 31.9215306"></polygon>
                    <polygon id="Fill-107" fill="#FFFFFF" points="97.278011 31.4129606 103 34.9041954 102.721989 35.4129606 97 31.9217258"></polygon>
                    <polygon id="Fill-108" fill="#FFFFFF" points="113.277549 31.4129606 119 34.9041954 118.722451 35.4129606 113 31.9217258"></polygon>
                    <polygon id="Fill-109" fill="#FFFFFF" points="130.278011 31.4129606 136 34.9041954 135.721989 35.4129606 130 31.9217258"></polygon>
                    <polygon id="Fill-110" fill="#FFFFFF" points="146.277921 31.4129606 152 34.9043906 151.722079 35.4129606 146 31.9215306"></polygon>
                    <polygon id="Fill-111" fill="#FFFFFF" points="162.278011 31.4129606 168 34.9041954 167.722473 35.4129606 162 31.9217258"></polygon>
                    <polygon id="Fill-112" fill="#FFFFFF" points="178.277527 31.4129606 184 34.9041954 183.721989 35.4129606 178 31.9217258"></polygon>
                    <polygon id="Fill-113" fill="#FFFFFF" points="194.278011 31.4129606 200 34.9041954 199.721989 35.4129606 194 31.9217258"></polygon>
                    <polygon id="Fill-114" fill="#FFFFFF" points="210.277921 31.4129606 216 34.9043906 215.722079 35.4129606 210 31.9215306"></polygon>
                    <polygon id="Fill-115" fill="#FFFFFF" points="227.278011 31.4129606 233 34.9041954 232.722473 35.4129606 227 31.9217258"></polygon>
                    <polygon id="Fill-116" fill="#FFFFFF" points="243.277527 31.4129606 249 34.9041954 248.721989 35.4129606 243 31.9217258"></polygon>
                    <polygon id="Fill-117" fill="#FFFFFF" points="259.278011 31.4129606 265 34.9041954 264.721989 35.4129606 259 31.9217258"></polygon>
                    <polygon id="Fill-118" fill="#FFFFFF" points="275.278011 31.4129606 281 34.9041954 280.721989 35.4129606 275 31.9217258"></polygon>
                    <polygon id="Fill-119" fill="#FFFFFF" points="291.278011 31.4129606 297 34.9041954 296.722473 35.4129606 291 31.9217258"></polygon>
                    <polygon id="Fill-120" fill="#FFFFFF" points="308.278011 31.4129606 314 34.9041954 313.721989 35.4129606 308 31.9217258"></polygon>
                    <polygon id="Fill-121" fill="#FFFFFF" points="324.278011 31.4129606 330 34.9041954 329.722473 35.4129606 324 31.9217258"></polygon>
                    <polygon id="Fill-122" fill="#FFFFFF" points="340.278011 31.4129606 346 34.9041954 345.721989 35.4129606 340 31.9217258"></polygon>
                    <polygon id="Fill-123" fill="#FFFFFF" points="356.277549 31.4129606 362 34.9041954 361.722451 35.4129606 356 31.9217258"></polygon>
                    <polygon id="Fill-124" fill="#FFFFFF" points="372.278011 31.4129606 378 34.9041954 377.721989 35.4129606 372 31.9217258"></polygon>
                    <polygon id="Fill-125" fill="#FFFFFF" points="388.277921 31.4129606 394 34.9043906 393.722079 35.4129606 388 31.9215306"></polygon>
                    <polygon id="Fill-126" fill="#FFFFFF" points="405.278011 31.4129606 411 34.9041954 410.721989 35.4129606 405 31.9217258"></polygon>
                    <polygon id="Fill-127" fill="#FFFFFF" points="421.277527 31.4129606 427 34.9041954 426.721989 35.4129606 421 31.9217258"></polygon>
                    <polygon id="Fill-128" fill="#FFFFFF" points="437.278011 31.4129606 443 34.9041954 442.721989 35.4129606 437 31.9217258"></polygon>
                    <polygon id="Fill-129" fill="#FFFFFF" points="453.277921 31.4129606 459 34.9043906 458.722079 35.4129606 453 31.9215306"></polygon>
                    <polygon id="Fill-130" fill="#FFFFFF" points="469.278011 31.4129606 475 34.9041954 474.722473 35.4129606 469 31.9217258"></polygon>
                    <polygon id="Fill-131" fill="#FFFFFF" points="486.277527 31.4129606 492 34.9041954 491.721989 35.4129606 486 31.9217258"></polygon>
                    <polygon id="Fill-132" fill="#FFFFFF" points="502.278011 31.4129606 508 34.9041954 507.721989 35.4129606 502 31.9217258"></polygon>
                    <polygon id="Fill-133" fill="#FFFFFF" points="518.277921 31.4129606 524 34.9043906 523.722563 35.4129606 518 31.9215306"></polygon>
                    <polygon id="Fill-134" fill="#FFFFFF" points="534.278011 31.4129606 540 34.9041954 539.722473 35.4129606 534 31.9217258"></polygon>
                    <polygon id="Fill-135" fill="#FFFFFF" points="550.277527 31.4129606 556 34.9041954 555.721989 35.4129606 550 31.9217258"></polygon>
                    <polygon id="Fill-136" fill="#FFFFFF" points="566.278011 31.4129606 572 34.9041954 571.722473 35.4129606 566 31.9217258"></polygon>
                    <polygon id="Fill-137" fill="#FFFFFF" points="583.278011 31.4129606 589 34.9041954 588.721989 35.4129606 583 31.9217258"></polygon>
                    <polygon id="Fill-138" fill="#FFFFFF" points="599.277549 31.4129606 605 34.9041954 604.722451 35.4129606 599 31.9217258"></polygon>
                    <polygon id="Fill-139" fill="#FFFFFF" points="615.278011 31.4129606 621 34.9041954 620.721989 35.4129606 615 31.9217258"></polygon>
                    <polygon id="Fill-140" fill="#FFFFFF" points="631.277921 31.4129606 637 34.9043906 636.722079 35.4129606 631 31.9215306"></polygon>
                    <polygon id="Fill-141" fill="#FFFFFF" points="647.278011 31.4129606 653 34.9041954 652.721989 35.4129606 647 31.9217258"></polygon>
                    <polygon id="Fill-142" fill="#FFFFFF" points="664.277549 31.4129606 670 34.9041954 669.722451 35.4129606 664 31.9217258"></polygon>
                    <polygon id="Fill-151" fill="#FFFFFF" points="0 46.9216607 5.72152716 50.4129606 6 49.9042605 0.277504238 46.4129606"></polygon>
                    <polygon id="Fill-152" fill="#FFFFFF" points="16 46.9215306 21.7221012 50.4129606 22 49.9043906 16.2778988 46.4129606"></polygon>
                    <polygon id="Fill-153" fill="#FFFFFF" points="33 46.9216607 38.7215272 50.4129606 39 49.9042605 33.2779885 46.4129606"></polygon>
                    <polygon id="Fill-154" fill="#FFFFFF" points="49 46.9216607 54.7224734 50.4129606 55 49.9042605 49.2775266 46.4129606"></polygon>
                    <polygon id="Fill-155" fill="#FFFFFF" points="65 46.9216607 70.721989 50.4129606 71 49.9042605 65.278011 46.4129606"></polygon>
                    <polygon id="Fill-156" fill="#FFFFFF" points="81 46.9215306 86.7221012 50.4129606 87 49.9043906 81.2778988 46.4129606"></polygon>
                    <polygon id="Fill-157" fill="#FFFFFF" points="97 46.9216607 102.721989 50.4129606 103 49.9042605 97.278011 46.4129606"></polygon>
                    <polygon id="Fill-158" fill="#FFFFFF" points="113 46.9216607 118.721989 50.4129606 119 49.9042605 113.277527 46.4129606"></polygon>
                    <polygon id="Fill-159" fill="#FFFFFF" points="130 46.9216607 135.721989 50.4129606 136 49.9042605 130.278011 46.4129606"></polygon>
                    <polygon id="Fill-160" fill="#FFFFFF" points="146 46.9215306 151.722079 50.4129606 152 49.9043906 146.277921 46.4129606"></polygon>
                    <polygon id="Fill-161" fill="#FFFFFF" points="162 46.9216607 167.722473 50.4129606 168 49.9042605 162.278011 46.4129606"></polygon>
                    <polygon id="Fill-162" fill="#FFFFFF" points="178 46.9216607 183.722011 50.4129606 184 49.9042605 178.277504 46.4129606"></polygon>
                    <polygon id="Fill-163" fill="#FFFFFF" points="194 46.9216607 199.721989 50.4129606 200 49.9042605 194.278011 46.4129606"></polygon>
                    <polygon id="Fill-164" fill="#FFFFFF" points="210 46.9215306 215.722101 50.4129606 216 49.9043906 210.277899 46.4129606"></polygon>
                    <polygon id="Fill-165" fill="#FFFFFF" points="227 46.9216607 232.722473 50.4129606 233 49.9042605 227.278011 46.4129606"></polygon>
                    <polygon id="Fill-166" fill="#FFFFFF" points="243 46.9216607 248.721989 50.4129606 249 49.9042605 243.277527 46.4129606"></polygon>
                    <polygon id="Fill-167" fill="#FFFFFF" points="259 46.9216607 264.721989 50.4129606 265 49.9042605 259.278011 46.4129606"></polygon>
                    <polygon id="Fill-168" fill="#FFFFFF" points="275 46.9216607 280.721527 50.4129606 281 49.9042605 275.277989 46.4129606"></polygon>
                    <polygon id="Fill-169" fill="#FFFFFF" points="291 46.9216607 296.722473 50.4129606 297 49.9042605 291.278011 46.4129606"></polygon>
                    <polygon id="Fill-170" fill="#FFFFFF" points="308 46.9216607 313.721989 50.4129606 314 49.9042605 308.278011 46.4129606"></polygon>
                    <polygon id="Fill-171" fill="#FFFFFF" points="324 46.9216607 329.722496 50.4129606 330 49.9042605 324.277989 46.4129606"></polygon>
                    <polygon id="Fill-172" fill="#FFFFFF" points="340 46.9216607 345.721989 50.4129606 346 49.9042605 340.278011 46.4129606"></polygon>
                    <polygon id="Fill-173" fill="#FFFFFF" points="356 46.9216607 361.721989 50.4129606 362 49.9042605 356.277042 46.4129606"></polygon>
                    <polygon id="Fill-174" fill="#FFFFFF" points="372 46.9216607 377.721989 50.4129606 378 49.9042605 372.278011 46.4129606"></polygon>
                    <polygon id="Fill-175" fill="#FFFFFF" points="388 46.9215306 393.722079 50.4129606 394 49.9043906 388.277921 46.4129606"></polygon>
                    <polygon id="Fill-176" fill="#FFFFFF" points="405 46.9216607 410.721989 50.4129606 411 49.9042605 405.278011 46.4129606"></polygon>
                    <polygon id="Fill-177" fill="#FFFFFF" points="421 46.9216607 426.721989 50.4129606 427 49.9042605 421.277527 46.4129606"></polygon>
                    <polygon id="Fill-178" fill="#FFFFFF" points="437 46.9216607 442.721989 50.4129606 443 49.9042605 437.278011 46.4129606"></polygon>
                    <polygon id="Fill-179" fill="#FFFFFF" points="453 46.9215306 458.722101 50.4129606 459 49.9043906 453.277899 46.4129606"></polygon>
                    <polygon id="Fill-180" fill="#FFFFFF" points="469 46.9216607 474.722473 50.4129606 475 49.9042605 469.278011 46.4129606"></polygon>
                    <polygon id="Fill-181" fill="#FFFFFF" points="486 46.9216607 491.722011 50.4129606 492 49.9042605 486.277504 46.4129606"></polygon>
                    <polygon id="Fill-182" fill="#FFFFFF" points="502 46.9216607 507.721989 50.4129606 508 49.9042605 502.278011 46.4129606"></polygon>
                    <polygon id="Fill-183" fill="#FFFFFF" points="518 46.9215306 523.722585 50.4129606 524 49.9043906 518.277899 46.4129606"></polygon>
                    <polygon id="Fill-184" fill="#FFFFFF" points="534 46.9216607 539.722011 50.4129606 540 49.9042605 534.277989 46.4129606"></polygon>
                    <polygon id="Fill-185" fill="#FFFFFF" points="550 46.9216607 555.721527 50.4129606 556 49.9042605 550.277504 46.4129606"></polygon>
                    <polygon id="Fill-186" fill="#FFFFFF" points="566 46.9216607 571.722011 50.4129606 572 49.9042605 566.277989 46.4129606"></polygon>
                    <polygon id="Fill-187" fill="#FFFFFF" points="583 46.9216607 588.721527 50.4129606 589 49.9042605 583.277989 46.4129606"></polygon>
                    <polygon id="Fill-188" fill="#FFFFFF" points="599 46.9216607 604.721989 50.4129606 605 49.9042605 599.277527 46.4129606"></polygon>
                    <polygon id="Fill-189" fill="#FFFFFF" points="615 46.9216607 620.722011 50.4129606 621 49.9042605 615.277989 46.4129606"></polygon>
                    <polygon id="Fill-190" fill="#FFFFFF" points="631 46.9215306 636.722101 50.4129606 637 49.9043906 631.277899 46.4129606"></polygon>
                    <polygon id="Fill-191" fill="#FFFFFF" points="647 46.9216607 652.722011 50.4129606 653 49.9042605 647.277989 46.4129606"></polygon>
                    <polygon id="Fill-192" fill="#FFFFFF" points="664 46.9216607 669.721989 50.4129606 670 49.9042605 664.277527 46.4129606"></polygon>
                    <path d="M505.894427,23.7888544 L513.35726,38.714519 C513.604249,39.2084975 513.404024,39.8091705 512.910046,40.0561598 C512.59305,40.2146577 512.215841,40.1935287 511.918529,40.0006209 L505.544304,35.8647743 C505.213227,35.6499588 504.786773,35.6499588 504.455696,35.8647743 L498.081471,40.0006209 C497.618166,40.3012315 496.99889,40.1693414 496.698279,39.7060362 C496.505372,39.408724 496.484243,39.0315148 496.64274,38.714519 L504.105573,23.7888544 C504.352562,23.2948759 504.953235,23.0946515 505.447214,23.3416408 C505.640741,23.4384045 505.797663,23.595327 505.894427,23.7888544 Z" id="Rectangle-Copy-3" fill="#36F2B9" transform="translate(505.000000, 32.000000) rotate(-180.000000) translate(-505.000000, -32.000000) "></path>
                </g>
                <g id="icon" transform="translate(5.000000, 5.000000)">
                    <g id="Group" transform="translate(0.687500, 0.000000)">
                        <g id="Group-22" transform="translate(15.045907, 15.161072) rotate(-37.000000) translate(-15.045907, -15.161072) translate(4.545907, 4.661072)"></g>
                    </g>
                </g>
            </g>
        </g>
    </g>
</svg>