<?xml version="1.0" encoding="UTF-8"?>
<svg width="164px" height="128px" viewBox="0 0 164 128" version="1.1" xmlns="http://www.w3.org/2000/svg" xmlns:xlink="http://www.w3.org/1999/xlink">
    <!-- Generator: Sketch 63.1 (92452) - https://sketch.com -->
    <title>icon/collaborative/sviluppo@1x</title>
    <desc>Created with Sketch.</desc>
    <defs>
        <rect id="path-1" x="0" y="0" width="128" height="128"></rect>
    </defs>
    <g id="UI" stroke="none" stroke-width="1" fill="none" fill-rule="evenodd">
        <g id="B.1.4---Servizi-|-Collaborative-team" transform="translate(-649.000000, -966.000000)">
            <g id="icon/collaborative/sviluppo" transform="translate(641.000000, 966.000000)">
                <g>
                    <g>
                        <g id="Group-5" transform="translate(47.000000, 25.000000)">
                            <g id="Group-3">
                                <g id="Group-73-Copy-4" transform="translate(62.000000, 17.000000) scale(1, -1) translate(-62.000000, -17.000000) ">
                                    <polygon id="Fill-10" fill="#36F2B9" points="124 6.76145711 115.416976 12 115 11.2385429 123.583024 6"></polygon>
                                    <polygon id="Stroke-11" stroke="#36F2B9" stroke-width="0.5" points="124 6.76145711 115.416976 12 115 11.2385429 123.583024 6"></polygon>
                                    <polygon id="Fill-12" fill="#36F2B9" points="100 6.76145711 91.4169755 12 91 11.2385429 99.5830245 6"></polygon>
                                    <polygon id="Stroke-13" stroke="#36F2B9" stroke-width="0.5" points="100 6.76145711 91.4169755 12 91 11.2385429 99.5830245 6"></polygon>
                                    <polygon id="Fill-14" fill="#36F2B9" points="78 6.76145711 69.4169755 12 69 11.2385429 77.5830245 6"></polygon>
                                    <polygon id="Stroke-15" stroke="#36F2B9" stroke-width="0.5" points="78 6.76145711 69.4169755 12 69 11.2385429 77.5830245 6"></polygon>
                                    <polygon id="Fill-16" fill="#36F2B9" points="56 6.76453318 47.416821 12 47 11.23899 55.583179 6"></polygon>
                                    <polygon id="Stroke-17" stroke="#36F2B9" stroke-width="0.5" points="56 6.76453318 47.416821 12 47 11.23899 55.583179 6"></polygon>
                                    <polygon id="Fill-18" fill="#36F2B9" points="32 6.76145711 23.4169755 12 23 11.2385429 31.5830245 6"></polygon>
                                    <polygon id="Stroke-19" stroke="#36F2B9" stroke-width="0.5" points="32 6.76145711 23.4169755 12 23 11.2385429 31.5830245 6"></polygon>
                                    <polygon id="Fill-20" fill="#36F2B9" points="0 11.2354668 0.416975537 12 9 6.76453318 8.58636027 6"></polygon>
                                    <polygon id="Stroke-21" stroke="#36F2B9" stroke-width="0.5" points="9 6.76145711 0.416975537 12 0 11.2385429 8.58302446 6"></polygon>
                                    <polygon id="Fill-35" fill="#36F2B9" points="115 33.2350176 115.416976 34 124 28.7614571 123.583024 28"></polygon>
                                    <polygon id="Stroke-36" stroke="#36F2B9" stroke-width="0.5" points="124 28.7645332 115.416976 34 115 33.2354668 123.583024 28"></polygon>
                                    <polygon id="Fill-38" fill="#36F2B9" points="91 33.2350176 91.4136397 34 100 28.7614571 99.5830245 28"></polygon>
                                    <polygon id="Stroke-39" stroke="#36F2B9" stroke-width="0.5" points="100 28.7645332 91.4169755 34 91 33.2354668 99.5830245 28"></polygon>
                                    <polygon id="Fill-41" fill="#36F2B9" points="69 33.2350176 69.4136397 34 78 28.7614571 77.5830245 28"></polygon>
                                    <polygon id="Stroke-42" stroke="#36F2B9" stroke-width="0.5" points="78 28.7645332 69.4169755 34 69 33.2354668 77.5830245 28"></polygon>
                                    <polygon id="Fill-44" fill="#36F2B9" points="47 33.2385429 47.4166667 34 56 28.7614571 55.5833333 28"></polygon>
                                    <polygon id="Stroke-45" stroke="#36F2B9" stroke-width="0.5" points="56 28.7614571 47.416821 34 47 33.2385429 55.583179 28"></polygon>
                                    <polygon id="Fill-47" fill="#36F2B9" points="23 33.2350176 23.4169755 34 32 28.7614571 31.5863603 28"></polygon>
                                    <polygon id="Stroke-48" stroke="#36F2B9" stroke-width="0.5" points="32 28.7645332 23.4169755 34 23 33.2354668 31.5830245 28"></polygon>
                                    <polygon id="Fill-50" fill="#36F2B9" points="0 33.2350176 0.416975537 34 9 28.7614571 8.58636027 28"></polygon>
                                    <polygon id="Stroke-51" stroke="#36F2B9" stroke-width="0.5" points="9 28.7645332 0.416975537 34 0 33.2354668 8.58302446 28"></polygon>
                                    <polygon id="Fill-57" fill="#FFFFFF" points="123.583024 0 115 5.23854289 115.416976 6 124 0.761457109"></polygon>
                                    <polygon id="Fill-58" fill="#FFFFFF" points="99.5830245 0 91 5.23854289 91.4136397 6 100 0.761457109"></polygon>
                                    <polygon id="Fill-59" fill="#FFFFFF" points="77.5830245 0 69 5.23854289 69.4136397 6 78 0.761457109"></polygon>
                                    <polygon id="Fill-60" fill="#FFFFFF" points="55.5766667 0 47 5.23546682 47.4166667 6 56 0.761009982 55.5833333 0"></polygon>
                                    <polygon id="Fill-61" fill="#FFFFFF" points="31.5863603 0 23 5.23854289 23.4169755 6 32 0.761457109"></polygon>
                                    <polygon id="Fill-62" fill="#FFFFFF" points="8.58636027 0 0 5.23854289 0.416975537 6 9 0.761457109"></polygon>
                                    <polygon id="Fill-67" fill="#FFFFFF" points="124 22.7645332 115.416976 28 115 27.2354668 123.583024 22"></polygon>
                                    <polygon id="Fill-68" fill="#FFFFFF" points="100 22.7645332 91.4169755 28 91 27.2354668 99.5830245 22"></polygon>
                                    <polygon id="Fill-69" fill="#FFFFFF" points="78 22.7645332 69.4169755 28 69 27.2354668 77.5830245 22"></polygon>
                                    <polygon id="Fill-70" fill="#FFFFFF" points="56 22.7614571 47.416821 28 47 27.2385429 55.583179 22"></polygon>
                                    <polygon id="Fill-71" fill="#FFFFFF" points="32 22.7645332 23.4169755 28 23 27.2354668 31.5830245 22"></polygon>
                                    <polygon id="Fill-72" fill="#FFFFFF" points="0 27.2354668 0.416975537 28 9 22.7645332 8.58636027 22"></polygon>
                                </g>
                                <g id="Group-73-Copy-4" transform="translate(62.000000, 61.000000) scale(1, -1) translate(-62.000000, -61.000000) translate(0.000000, 44.000000)">
                                    <polygon id="Fill-10" fill="#36F2B9" points="124 6.76145711 115.416976 12 115 11.2385429 123.583024 6"></polygon>
                                    <polygon id="Stroke-11" stroke="#36F2B9" stroke-width="0.5" points="124 6.76145711 115.416976 12 115 11.2385429 123.583024 6"></polygon>
                                    <polygon id="Fill-12" fill="#36F2B9" points="100 6.76145711 91.4169755 12 91 11.2385429 99.5830245 6"></polygon>
                                    <polygon id="Stroke-13" stroke="#36F2B9" stroke-width="0.5" points="100 6.76145711 91.4169755 12 91 11.2385429 99.5830245 6"></polygon>
                                    <polygon id="Fill-14" fill="#36F2B9" points="78 6.76145711 69.4169755 12 69 11.2385429 77.5830245 6"></polygon>
                                    <polygon id="Stroke-15" stroke="#36F2B9" stroke-width="0.5" points="78 6.76145711 69.4169755 12 69 11.2385429 77.5830245 6"></polygon>
                                    <polygon id="Fill-16" fill="#36F2B9" points="56 6.76453318 47.416821 12 47 11.23899 55.583179 6"></polygon>
                                    <polygon id="Stroke-17" stroke="#36F2B9" stroke-width="0.5" points="56 6.76453318 47.416821 12 47 11.23899 55.583179 6"></polygon>
                                    <polygon id="Fill-18" fill="#36F2B9" points="32 6.76145711 23.4169755 12 23 11.2385429 31.5830245 6"></polygon>
                                    <polygon id="Stroke-19" stroke="#36F2B9" stroke-width="0.5" points="32 6.76145711 23.4169755 12 23 11.2385429 31.5830245 6"></polygon>
                                    <polygon id="Fill-20" fill="#36F2B9" points="0 11.2354668 0.416975537 12 9 6.76453318 8.58636027 6"></polygon>
                                    <polygon id="Stroke-21" stroke="#36F2B9" stroke-width="0.5" points="9 6.76145711 0.416975537 12 0 11.2385429 8.58302446 6"></polygon>
                                    <polygon id="Fill-35" fill="#36F2B9" points="115 33.2350176 115.416976 34 124 28.7614571 123.583024 28"></polygon>
                                    <polygon id="Fill-38" fill="#36F2B9" points="91 33.2350176 91.4136397 34 100 28.7614571 99.5830245 28"></polygon>
                                    <polygon id="Fill-41" fill="#36F2B9" points="69 33.2350176 69.4136397 34 78 28.7614571 77.5830245 28"></polygon>
                                    <polygon id="Fill-44" fill="#36F2B9" points="47 33.2385429 47.4166667 34 56 28.7614571 55.5833333 28"></polygon>
                                    <polygon id="Fill-47" fill="#36F2B9" points="23 33.2350176 23.4169755 34 32 28.7614571 31.5863603 28"></polygon>
                                    <polygon id="Fill-50" fill="#36F2B9" points="0 33.2350176 0.416975537 34 9 28.7614571 8.58636027 28"></polygon>
                                    <polygon id="Fill-57" fill="#FFFFFF" points="123.583024 0 115 5.23854289 115.416976 6 124 0.761457109"></polygon>
                                    <polygon id="Fill-58" fill="#FFFFFF" points="99.5830245 0 91 5.23854289 91.4136397 6 100 0.761457109"></polygon>
                                    <polygon id="Fill-59" fill="#FFFFFF" points="77.5830245 0 69 5.23854289 69.4136397 6 78 0.761457109"></polygon>
                                    <polygon id="Fill-60" fill="#FFFFFF" points="55.5766667 0 47 5.23546682 47.4166667 6 56 0.761009982 55.5833333 0"></polygon>
                                    <polygon id="Fill-61" fill="#FFFFFF" points="31.5863603 0 23 5.23854289 23.4169755 6 32 0.761457109"></polygon>
                                    <polygon id="Fill-62" fill="#FFFFFF" points="8.58636027 0 0 5.23854289 0.416975537 6 9 0.761457109"></polygon>
                                    <polygon id="Fill-67" fill="#FFFFFF" points="124 22.7645332 115.416976 28 115 27.2354668 123.583024 22"></polygon>
                                    <polygon id="Fill-68" fill="#FFFFFF" points="100 22.7645332 91.4169755 28 91 27.2354668 99.5830245 22"></polygon>
                                    <polygon id="Fill-69" fill="#FFFFFF" points="78 22.7645332 69.4169755 28 69 27.2354668 77.5830245 22"></polygon>
                                    <polygon id="Fill-70" fill="#FFFFFF" points="56 22.7614571 47.416821 28 47 27.2385429 55.583179 22"></polygon>
                                    <polygon id="Fill-71" fill="#FFFFFF" points="32 22.7645332 23.4169755 28 23 27.2354668 31.5830245 22"></polygon>
                                    <polygon id="Fill-72" fill="#FFFFFF" points="0 27.2354668 0.416975537 28 9 22.7645332 8.58636027 22"></polygon>
                                </g>
                            </g>
                        </g>
                        <g id="icon/development">
                            <g id="Group-13-Copy">
                                <mask id="mask-2" fill="white">
                                    <use xlink:href="#path-1"></use>
                                </mask>
                                <g id="Mask"></g>
                                <g mask="url(#mask-2)">
                                    <g transform="translate(7.000000, 0.000000)">
                                        <g id="Group-25" transform="translate(0.862963, 0.000000)">
                                            <g id="015-cellphone" transform="translate(20.500000, 47.500000) scale(-1, 1) translate(-20.500000, -47.500000) " fill="#36F2B9" fill-rule="nonzero">
                                                <path d="M40.085512,19.064465 L7.12340958,0.195927987 C6.66664309,-0.0655041369 6.10389419,-0.0653091838 5.64771759,0.196512846 L0.944379475,2.89368916 L0.943592964,2.89407907 L0.943592964,2.89407907 C0.487809613,3.15531624 0.207221675,3.63763024 0.207221675,4.15971467 L0.207221675,74.2297624 C0.207221675,74.7520418 0.488202869,75.2347457 0.944576103,75.4959829 L33.8980269,94.3645199 C34.1263119,94.4951385 34.3809449,94.5604478 34.635578,94.5604478 C34.8902111,94.5604478 35.3729324,94.3645199 35.3729324,94.3645199 L35.3729324,94.3645199 L40.0811862,91.6692931 C40.5373628,91.4080559 40.8185407,90.925547 40.8185407,90.4030726 L40.82267,20.3306855 C40.82267,19.8084061 40.5416887,19.3257022 40.085512,19.064465 Z M6.38684167,3.15083232 L36.3987399,20.3306855 L34.6399038,21.3376183 L4.62957859,4.15854495 L6.38684167,3.15083232 Z M33.1648017,31.2515689 L3.15683601,14.0732754 L3.15683601,6.69235056 L33.165195,23.8700592 L33.1648017,31.2515689 Z M3.15683601,17.4500583 L33.1646051,34.6281568 L33.1618523,79.7861211 L3.15683601,62.6093872 L3.15683601,17.4500583 Z M3.15683601,73.3858104 L3.15683601,65.98617 L33.1616557,83.162709 L33.1612624,90.5654686 L3.15683601,73.3858104 Z M36.1106801,90.5656635 L36.1148093,23.8700592 L37.8734488,22.8633213 L37.8695162,89.5589257 L36.1106801,90.5656635 Z" id="Shape"></path>
                                                <path d="M15.4121473,18.8307242 L19.8711949,21.619015 C20.0909349,21.7563891 20.3307868,21.8216418 20.567473,21.8216418 C21.0503425,21.8216418 21.5203628,21.5493178 21.7786505,21.0628518 C22.1637543,20.3377992 21.9345169,19.4113319 21.2661719,18.993553 L16.8071243,16.2050602 C16.1389655,15.7874833 15.2849588,16.0363729 14.8996688,16.7610214 C14.5143787,17.486478 14.7438023,18.4129453 15.4121473,18.8307242 Z" id="Path"></path>
                                            </g>
                                        </g>
                                        <g id="011-laptop" transform="translate(24.862963, 25.000000)">
                                            <path d="M89.2051675,28.8462012 C89.1977575,28.8418976 40.3967502,1.01786175 40.3967502,1.01786175 C39.8911261,0.729518624 39.2678136,0.729518624 38.7621895,1.01786175 L33.3367558,4.11066456 C33.335884,4.1113101 33.3350122,4.11174046 33.3341405,4.11217083 C32.829824,4.40072913 32.5192575,4.93287283 32.5194754,5.50848318 L32.5240522,47.8226218 L0.817280332,65.8965715 C0.311656233,66.1846994 0,66.7174887 0,67.2941749 L0,73.4797806 C0,74.0564668 0.311656233,74.589256 0.817280332,74.8775992 L49.6034676,102.682053 C49.8562797,102.82601 50.1385138,102.898096 50.420748,102.898096 C50.7027642,102.898096 50.9849983,102.82601 51.2380283,102.682053 L89.1827196,81.0567493 C89.6885616,80.7684062 90,80.235617 90,79.6589307 L90,30.2308937 C90,29.6634603 89.698151,29.137772 89.2051675,28.8462012 Z M39.5792519,4.27915162 L85.0045646,30.1783895 L82.9709531,31.2545118 L37.4329648,5.5024581 L39.5792519,4.27915162 Z M35.7931735,47.8224066 L35.7888147,8.29250062 L81.3102395,34.0348712 L81.3102395,73.7691996 L35.7931735,47.8224066 Z M34.1588308,50.6178287 L79.6761147,76.5648368 L50.4209659,93.2461322 L37.4290419,85.8387264 L40.397404,84.1474003 C40.9030281,83.8592724 41.2146844,83.3264831 41.2149023,82.7500121 C41.2149023,82.1733258 40.9036819,81.6405366 40.3978399,81.3521935 L24.1341792,72.0767976 C23.6283372,71.7882393 23.0048068,71.7882393 22.4991827,72.0767976 L17.895824,74.7017959 L4.90389993,67.2943901 L34.1588308,50.6178287 Z M34.1597026,83.9748248 L21.1640735,76.5652672 L23.316463,75.3378723 L36.3112203,82.7489362 L34.1597026,83.9748248 Z M86.7310965,78.7271951 L50.4209659,99.4209788 L3.26912133,72.5480449 L3.26912133,70.0898122 L49.6034676,96.5072069 C49.8562797,96.6513785 50.1387318,96.7234643 50.420748,96.7234643 C50.7027642,96.7234643 50.9852162,96.6513785 51.2382462,96.5072069 L83.7622984,77.9620099 C84.2679225,77.6736668 84.5793608,77.1408775 84.5793608,76.5644065 L84.5793608,76.5644065 L84.5793608,34.065427 L86.7310965,32.926902 L86.7310965,78.7271951 Z" id="Shape" stroke="#F6F7FA" fill="#36F2B9" fill-rule="nonzero"></path>
                                            <path d="M78.2798878,34.5030246 L40.6155311,12.7645352 C40.1138617,12.4748156 39.4951578,12.4748156 38.9930558,12.764319 C38.4909538,13.0540387 38.1818182,13.5893715 38.1818182,14.1688109 L38.1818182,45.2098965 C38.1818182,45.7893359 38.4911701,46.3244525 38.9930558,46.6141722 L76.6571962,68.3474725 C76.9081391,68.4923324 77.1882864,68.5647623 77.4684338,68.5647623 C77.7485812,68.5647623 78.0287286,68.4923324 78.2796715,68.3474725 C78.7815571,68.0577529 79.0909091,67.5226363 79.0909091,66.9431969 L79.0909091,35.9073002 C79.0909091,35.3280771 78.7817735,34.7927443 78.2798878,34.5030246 Z M75.8459586,64.1344295 L41.4267687,44.2734966 L41.4267687,16.9775783 L75.8459586,36.8432678 L75.8459586,64.1344295 Z" id="Shape" fill="#36F2B9" fill-rule="nonzero"></path>
                                            <path d="M54.9900402,85.519595 C55.2421555,85.6608176 55.5231522,85.731429 55.804366,85.731429 C56.0855799,85.731429 56.3670109,85.6608176 56.618909,85.5193842 L72.822255,76.4339201 C73.3260512,76.1514748 73.6363636,75.6295833 73.6363636,75.0646927 C73.6363636,74.5000129 73.3258341,73.9781215 72.8220378,73.6958869 L35.0143028,52.5131222 C34.5107238,52.2310985 33.8898818,52.2310985 33.3860856,52.5131222 L17.1781793,61.5912091 C16.6741659,61.8734436 16.3636364,62.395335 16.3636364,62.9602256 C16.3636364,63.5251162 16.6739488,64.0470077 17.1779622,64.329453 L54.9900402,85.519595 Z M61.2034546,79.2975781 L26.6528056,59.9346885 L28.7969797,58.7336636 L63.3463258,78.0959209 L61.2034546,79.2975781 Z M34.199977,55.7074942 L68.7508432,75.0655358 L66.6027603,76.2699332 L32.0551515,56.9089406 L34.199977,55.7074942 Z M23.3946338,61.7596223 L57.9470201,81.1233551 L55.8041489,82.3250122 L21.2500254,62.9606472 L23.3946338,61.7596223 Z" id="Shape" fill="#36F2B9" fill-rule="nonzero"></path>
                                        </g>
                                    </g>
                                </g>
                                <rect id="Rectangle" mask="url(#mask-2)" x="0" y="0" width="128" height="128"></rect>
                            </g>
                        </g>
                    </g>
                </g>
                <rect id="Rectangle" x="0" y="0" width="171" height="128"></rect>
            </g>
        </g>
    </g>
</svg>