<?xml version="1.0" encoding="UTF-8"?>
<svg width="217px" height="147px" viewBox="0 0 217 147" version="1.1" xmlns="http://www.w3.org/2000/svg" xmlns:xlink="http://www.w3.org/1999/xlink">
    <!-- Generator: sketchtool 61.2 (101010) - https://sketch.com -->
    <title>83719EFF-36F3-459B-B546-6E9BC202087C@1x</title>
    <desc>Created with sketchtool.</desc>
    <g id="Asset-Artboard-Page" stroke="none" stroke-width="1" fill="none" fill-rule="evenodd">
        <g id="element/cosanon">
            <g>
                <g id="Group-3-Copy">
                    <g id="Group-73-Copy-4" transform="translate(108.500000, 17.935897) scale(1, -1) translate(-108.500000, -17.935897) translate(0.000000, 0.435897)">
                        <polygon id="Fill-1" fill="#36F2B9" points="207.916279 11.3795113 208.337133 12.1538462 217 6.85125796 216.579146 6.07692308"></polygon>
                        <polygon id="Stroke-2" stroke="#36F2B9" stroke-width="0.5" points="217 6.84814246 208.337133 12.1538462 207.916279 11.3826268 216.579146 6.07692308"></polygon>
                        <polygon id="Fill-4" fill="#36F2B9" points="193.786047 6.84814246 185.12318 12.1538462 184.702326 11.3826268 193.365192 6.07692308"></polygon>
                        <polygon id="Stroke-5" stroke="#36F2B9" stroke-width="0.5" points="193.786047 6.84814246 185.12318 12.1538462 184.702326 11.3826268 193.365192 6.07692308"></polygon>
                        <polygon id="Fill-6" fill="#36F2B9" points="169.562791 6.84814246 160.899924 12.1538462 160.47907 11.3826268 169.141936 6.07692308"></polygon>
                        <polygon id="Stroke-7" stroke="#36F2B9" stroke-width="0.5" points="169.562791 6.84814246 160.899924 12.1538462 160.47907 11.3826268 169.141936 6.07692308"></polygon>
                        <polygon id="Fill-8" fill="#36F2B9" points="147.35814 6.85125796 138.695117 12.1538462 138.274419 11.3830796 146.937441 6.07692308"></polygon>
                        <polygon id="Stroke-9" stroke="#36F2B9" stroke-width="0.5" points="147.35814 6.85125796 138.695117 12.1538462 138.274419 11.3830796 146.937441 6.07692308"></polygon>
                        <polygon id="Fill-10" fill="#36F2B9" points="125.153488 6.84814246 116.490622 12.1538462 116.069767 11.3826268 124.732634 6.07692308"></polygon>
                        <polygon id="Stroke-11" stroke="#36F2B9" stroke-width="0.5" points="125.153488 6.84814246 116.490622 12.1538462 116.069767 11.3826268 124.732634 6.07692308"></polygon>
                        <polygon id="Fill-12" fill="#36F2B9" points="100.930233 6.84814246 92.267366 12.1538462 91.8465116 11.3826268 100.509378 6.07692308"></polygon>
                        <polygon id="Stroke-13" stroke="#36F2B9" stroke-width="0.5" points="100.930233 6.84814246 92.267366 12.1538462 91.8465116 11.3826268 100.509378 6.07692308"></polygon>
                        <polygon id="Fill-14" fill="#36F2B9" points="78.7255814 6.84814246 70.0627148 12.1538462 69.6418605 11.3826268 78.304727 6.07692308"></polygon>
                        <polygon id="Stroke-15" stroke="#36F2B9" stroke-width="0.5" points="78.7255814 6.84814246 70.0627148 12.1538462 69.6418605 11.3826268 78.304727 6.07692308"></polygon>
                        <polygon id="Fill-16" fill="#36F2B9" points="56.5209302 6.85125796 47.8579078 12.1538462 47.4372093 11.3830796 56.1002318 6.07692308"></polygon>
                        <polygon id="Stroke-17" stroke="#36F2B9" stroke-width="0.5" points="56.5209302 6.85125796 47.8579078 12.1538462 47.4372093 11.3830796 56.1002318 6.07692308"></polygon>
                        <polygon id="Fill-18" fill="#36F2B9" points="32.2976744 6.84814246 23.6348079 12.1538462 23.2139535 11.3826268 31.87682 6.07692308"></polygon>
                        <polygon id="Stroke-19" stroke="#36F2B9" stroke-width="0.5" points="32.2976744 6.84814246 23.6348079 12.1538462 23.2139535 11.3826268 31.87682 6.07692308"></polygon>
                        <polygon id="Fill-20" fill="#36F2B9" points="0 11.3795113 0.42085438 12.1538462 9.08372093 6.85125796 8.66623339 6.07692308"></polygon>
                        <polygon id="Stroke-21" stroke="#36F2B9" stroke-width="0.5" points="9.08372093 6.84814246 0.42085438 12.1538462 0 11.3826268 8.66286655 6.07692308"></polygon>
                        <polygon id="Fill-23" fill="#36F2B9" points="207.916279 33.6611076 208.337133 34.4358974 217 29.1301937 216.579146 28.3589744"></polygon>
                        <polygon id="Stroke-24" stroke="#36F2B9" stroke-width="0.5" points="217 29.1333092 208.337133 34.4358974 207.916279 33.6615626 216.579146 28.3589744"></polygon>
                        <polygon id="Fill-26" fill="#36F2B9" points="184.702326 33.6611076 185.12318 34.4358974 193.786047 29.1301937 193.365192 28.3589744"></polygon>
                        <polygon id="Stroke-27" stroke="#36F2B9" stroke-width="0.5" points="193.786047 29.1333092 185.12318 34.4358974 184.702326 33.6615626 193.365192 28.3589744"></polygon>
                        <polygon id="Fill-29" fill="#36F2B9" points="160.47907 33.6611076 160.899924 34.4358974 169.562791 29.1301937 169.141936 28.3589744"></polygon>
                        <polygon id="Stroke-30" stroke="#36F2B9" stroke-width="0.5" points="169.562791 29.1333092 160.899924 34.4358974 160.47907 33.6615626 169.141936 28.3589744"></polygon>
                        <polygon id="Fill-32" fill="#36F2B9" points="138.274419 33.6646781 138.695117 34.4358974 147.35814 29.1301937 146.937441 28.3589744"></polygon>
                        <polygon id="Stroke-33" stroke="#36F2B9" stroke-width="0.5" points="147.35814 29.1301937 138.695117 34.4358974 138.274419 33.6646781 146.937441 28.3589744"></polygon>
                        <polygon id="Fill-35" fill="#36F2B9" points="116.069767 33.6611076 116.490622 34.4358974 125.153488 29.1301937 124.732634 28.3589744"></polygon>
                        <polygon id="Stroke-36" stroke="#36F2B9" stroke-width="0.5" points="125.153488 29.1333092 116.490622 34.4358974 116.069767 33.6615626 124.732634 28.3589744"></polygon>
                        <polygon id="Fill-38" fill="#36F2B9" points="91.8465116 33.6611076 92.2639992 34.4358974 100.930233 29.1301937 100.509378 28.3589744"></polygon>
                        <polygon id="Stroke-39" stroke="#36F2B9" stroke-width="0.5" points="100.930233 29.1333092 92.267366 34.4358974 91.8465116 33.6615626 100.509378 28.3589744"></polygon>
                        <polygon id="Fill-41" fill="#36F2B9" points="69.6418605 33.6611076 70.059348 34.4358974 78.7255814 29.1301937 78.304727 28.3589744"></polygon>
                        <polygon id="Stroke-42" stroke="#36F2B9" stroke-width="0.5" points="78.7255814 29.1333092 70.0627148 34.4358974 69.6418605 33.6615626 78.304727 28.3589744"></polygon>
                        <polygon id="Fill-44" fill="#36F2B9" points="47.4372093 33.6646781 47.8577519 34.4358974 56.5209302 29.1301937 56.1003876 28.3589744"></polygon>
                        <polygon id="Stroke-45" stroke="#36F2B9" stroke-width="0.5" points="56.5209302 29.1301937 47.8579078 34.4358974 47.4372093 33.6646781 56.1002318 28.3589744"></polygon>
                        <polygon id="Fill-47" fill="#36F2B9" points="23.2139535 33.6611076 23.6348079 34.4358974 32.2976744 29.1301937 31.8801869 28.3589744"></polygon>
                        <polygon id="Stroke-48" stroke="#36F2B9" stroke-width="0.5" points="32.2976744 29.1333092 23.6348079 34.4358974 23.2139535 33.6615626 31.87682 28.3589744"></polygon>
                        <polygon id="Fill-50" fill="#36F2B9" points="0 33.6611076 0.42085438 34.4358974 9.08372093 29.1301937 8.66623339 28.3589744"></polygon>
                        <polygon id="Stroke-51" stroke="#36F2B9" stroke-width="0.5" points="9.08372093 29.1333092 0.42085438 34.4358974 0 33.6615626 8.66286655 28.3589744"></polygon>
                        <polygon id="Fill-53" fill="#FFFFFF" points="216.579146 0 207.916279 5.3057037 208.337133 6.07692308 217 0.77121938"></polygon>
                        <polygon id="Fill-54" fill="#FFFFFF" points="193.365192 0 184.702326 5.3057037 185.12318 6.07692308 193.786047 0.77121938"></polygon>
                        <polygon id="Fill-55" fill="#FFFFFF" points="169.141936 0 160.47907 5.3057037 160.899924 6.07692308 169.562791 0.77121938"></polygon>
                        <polygon id="Fill-56" fill="#FFFFFF" points="146.93071 0 138.274419 5.30258819 138.695117 6.07692308 147.35814 0.770766521 146.937441 0"></polygon>
                        <polygon id="Fill-57" fill="#FFFFFF" points="124.732634 0 116.069767 5.3057037 116.490622 6.07692308 125.153488 0.77121938"></polygon>
                        <polygon id="Fill-58" fill="#FFFFFF" points="100.509378 0 91.8465116 5.3057037 92.2639992 6.07692308 100.930233 0.77121938"></polygon>
                        <polygon id="Fill-59" fill="#FFFFFF" points="78.304727 0 69.6418605 5.3057037 70.059348 6.07692308 78.7255814 0.77121938"></polygon>
                        <polygon id="Fill-60" fill="#FFFFFF" points="56.0936589 0 47.4372093 5.30258819 47.8577519 6.07692308 56.5209302 0.770766521 56.1003876 0"></polygon>
                        <polygon id="Fill-61" fill="#FFFFFF" points="31.8801869 0 23.2139535 5.3057037 23.6348079 6.07692308 32.2976744 0.77121938"></polygon>
                        <polygon id="Fill-62" fill="#FFFFFF" points="8.66623339 0 0 5.3057037 0.42085438 6.07692308 9.08372093 0.77121938"></polygon>
                        <polygon id="Fill-63" fill="#FFFFFF" points="207.916279 27.5846395 208.337133 28.3589744 217 23.0563862 216.579146 22.2820513"></polygon>
                        <polygon id="Fill-64" fill="#FFFFFF" points="193.786047 23.0563862 185.12318 28.3589744 184.702326 27.5846395 193.365192 22.2820513"></polygon>
                        <polygon id="Fill-65" fill="#FFFFFF" points="169.562791 23.0563862 160.899924 28.3589744 160.47907 27.5846395 169.141936 22.2820513"></polygon>
                        <polygon id="Fill-66" fill="#FFFFFF" points="147.35814 23.0532707 138.695117 28.3589744 138.274419 27.587755 146.937441 22.2820513"></polygon>
                        <polygon id="Fill-67" fill="#FFFFFF" points="125.153488 23.0563862 116.490622 28.3589744 116.069767 27.5846395 124.732634 22.2820513"></polygon>
                        <polygon id="Fill-68" fill="#FFFFFF" points="100.930233 23.0563862 92.267366 28.3589744 91.8465116 27.5846395 100.509378 22.2820513"></polygon>
                        <polygon id="Fill-69" fill="#FFFFFF" points="78.7255814 23.0563862 70.0627148 28.3589744 69.6418605 27.5846395 78.304727 22.2820513"></polygon>
                        <polygon id="Fill-70" fill="#FFFFFF" points="56.5209302 23.0532707 47.8579078 28.3589744 47.4372093 27.587755 56.1002318 22.2820513"></polygon>
                        <polygon id="Fill-71" fill="#FFFFFF" points="32.2976744 23.0563862 23.6348079 28.3589744 23.2139535 27.5846395 31.87682 22.2820513"></polygon>
                        <polygon id="Fill-72" fill="#FFFFFF" points="0 27.5846395 0.42085438 28.3589744 9.08372093 23.0563862 8.66623339 22.2820513"></polygon>
                    </g>
                    <g id="Group-73-Copy-4" transform="translate(108.500000, 62.500000) scale(1, -1) translate(-108.500000, -62.500000) translate(0.000000, 45.000000)">
                        <polygon id="Fill-1" fill="#36F2B9" points="207.916279 11.3795113 208.337133 12.1538462 217 6.85125796 216.579146 6.07692308"></polygon>
                        <polygon id="Stroke-2" stroke="#36F2B9" stroke-width="0.5" points="217 6.84814246 208.337133 12.1538462 207.916279 11.3826268 216.579146 6.07692308"></polygon>
                        <polygon id="Fill-4" fill="#36F2B9" points="193.786047 6.84814246 185.12318 12.1538462 184.702326 11.3826268 193.365192 6.07692308"></polygon>
                        <polygon id="Stroke-5" stroke="#36F2B9" stroke-width="0.5" points="193.786047 6.84814246 185.12318 12.1538462 184.702326 11.3826268 193.365192 6.07692308"></polygon>
                        <polygon id="Fill-6" fill="#36F2B9" points="169.562791 6.84814246 160.899924 12.1538462 160.47907 11.3826268 169.141936 6.07692308"></polygon>
                        <polygon id="Stroke-7" stroke="#36F2B9" stroke-width="0.5" points="169.562791 6.84814246 160.899924 12.1538462 160.47907 11.3826268 169.141936 6.07692308"></polygon>
                        <polygon id="Fill-8" fill="#36F2B9" points="147.35814 6.85125796 138.695117 12.1538462 138.274419 11.3830796 146.937441 6.07692308"></polygon>
                        <polygon id="Stroke-9" stroke="#36F2B9" stroke-width="0.5" points="147.35814 6.85125796 138.695117 12.1538462 138.274419 11.3830796 146.937441 6.07692308"></polygon>
                        <polygon id="Fill-10" fill="#36F2B9" points="125.153488 6.84814246 116.490622 12.1538462 116.069767 11.3826268 124.732634 6.07692308"></polygon>
                        <polygon id="Stroke-11" stroke="#36F2B9" stroke-width="0.5" points="125.153488 6.84814246 116.490622 12.1538462 116.069767 11.3826268 124.732634 6.07692308"></polygon>
                        <polygon id="Fill-12" fill="#36F2B9" points="100.930233 6.84814246 92.267366 12.1538462 91.8465116 11.3826268 100.509378 6.07692308"></polygon>
                        <polygon id="Stroke-13" stroke="#36F2B9" stroke-width="0.5" points="100.930233 6.84814246 92.267366 12.1538462 91.8465116 11.3826268 100.509378 6.07692308"></polygon>
                        <polygon id="Fill-14" fill="#36F2B9" points="78.7255814 6.84814246 70.0627148 12.1538462 69.6418605 11.3826268 78.304727 6.07692308"></polygon>
                        <polygon id="Stroke-15" stroke="#36F2B9" stroke-width="0.5" points="78.7255814 6.84814246 70.0627148 12.1538462 69.6418605 11.3826268 78.304727 6.07692308"></polygon>
                        <polygon id="Fill-16" fill="#36F2B9" points="56.5209302 6.85125796 47.8579078 12.1538462 47.4372093 11.3830796 56.1002318 6.07692308"></polygon>
                        <polygon id="Stroke-17" stroke="#36F2B9" stroke-width="0.5" points="56.5209302 6.85125796 47.8579078 12.1538462 47.4372093 11.3830796 56.1002318 6.07692308"></polygon>
                        <polygon id="Fill-18" fill="#36F2B9" points="32.2976744 6.84814246 23.6348079 12.1538462 23.2139535 11.3826268 31.87682 6.07692308"></polygon>
                        <polygon id="Stroke-19" stroke="#36F2B9" stroke-width="0.5" points="32.2976744 6.84814246 23.6348079 12.1538462 23.2139535 11.3826268 31.87682 6.07692308"></polygon>
                        <polygon id="Fill-20" fill="#36F2B9" points="0 11.3795113 0.42085438 12.1538462 9.08372093 6.85125796 8.66623339 6.07692308"></polygon>
                        <polygon id="Stroke-21" stroke="#36F2B9" stroke-width="0.5" points="9.08372093 6.84814246 0.42085438 12.1538462 0 11.3826268 8.66286655 6.07692308"></polygon>
                        <polygon id="Fill-23" fill="#36F2B9" points="207.916279 33.6611076 208.337133 34.4358974 217 29.1301937 216.579146 28.3589744"></polygon>
                        <polygon id="Fill-26" fill="#36F2B9" points="184.702326 33.6611076 185.12318 34.4358974 193.786047 29.1301937 193.365192 28.3589744"></polygon>
                        <polygon id="Fill-29" fill="#36F2B9" points="160.47907 33.6611076 160.899924 34.4358974 169.562791 29.1301937 169.141936 28.3589744"></polygon>
                        <polygon id="Fill-32" fill="#36F2B9" points="138.274419 33.6646781 138.695117 34.4358974 147.35814 29.1301937 146.937441 28.3589744"></polygon>
                        <polygon id="Fill-35" fill="#36F2B9" points="116.069767 33.6611076 116.490622 34.4358974 125.153488 29.1301937 124.732634 28.3589744"></polygon>
                        <polygon id="Fill-38" fill="#36F2B9" points="91.8465116 33.6611076 92.2639992 34.4358974 100.930233 29.1301937 100.509378 28.3589744"></polygon>
                        <polygon id="Fill-41" fill="#36F2B9" points="69.6418605 33.6611076 70.059348 34.4358974 78.7255814 29.1301937 78.304727 28.3589744"></polygon>
                        <polygon id="Fill-44" fill="#36F2B9" points="47.4372093 33.6646781 47.8577519 34.4358974 56.5209302 29.1301937 56.1003876 28.3589744"></polygon>
                        <polygon id="Fill-47" fill="#36F2B9" points="23.2139535 33.6611076 23.6348079 34.4358974 32.2976744 29.1301937 31.8801869 28.3589744"></polygon>
                        <polygon id="Fill-50" fill="#36F2B9" points="0 33.6611076 0.42085438 34.4358974 9.08372093 29.1301937 8.66623339 28.3589744"></polygon>
                        <polygon id="Fill-53" fill="#FFFFFF" points="216.579146 0 207.916279 5.3057037 208.337133 6.07692308 217 0.77121938"></polygon>
                        <polygon id="Fill-54" fill="#FFFFFF" points="193.365192 0 184.702326 5.3057037 185.12318 6.07692308 193.786047 0.77121938"></polygon>
                        <polygon id="Fill-55" fill="#FFFFFF" points="169.141936 0 160.47907 5.3057037 160.899924 6.07692308 169.562791 0.77121938"></polygon>
                        <polygon id="Fill-56" fill="#FFFFFF" points="146.93071 0 138.274419 5.30258819 138.695117 6.07692308 147.35814 0.770766521 146.937441 0"></polygon>
                        <polygon id="Fill-57" fill="#FFFFFF" points="124.732634 0 116.069767 5.3057037 116.490622 6.07692308 125.153488 0.77121938"></polygon>
                        <polygon id="Fill-58" fill="#FFFFFF" points="100.509378 0 91.8465116 5.3057037 92.2639992 6.07692308 100.930233 0.77121938"></polygon>
                        <polygon id="Fill-59" fill="#FFFFFF" points="78.304727 0 69.6418605 5.3057037 70.059348 6.07692308 78.7255814 0.77121938"></polygon>
                        <polygon id="Fill-60" fill="#FFFFFF" points="56.0936589 0 47.4372093 5.30258819 47.8577519 6.07692308 56.5209302 0.770766521 56.1003876 0"></polygon>
                        <polygon id="Fill-61" fill="#FFFFFF" points="31.8801869 0 23.2139535 5.3057037 23.6348079 6.07692308 32.2976744 0.77121938"></polygon>
                        <polygon id="Fill-62" fill="#FFFFFF" points="8.66623339 0 0 5.3057037 0.42085438 6.07692308 9.08372093 0.77121938"></polygon>
                        <polygon id="Fill-63" fill="#FFFFFF" points="207.916279 27.5846395 208.337133 28.3589744 217 23.0563862 216.579146 22.2820513"></polygon>
                        <polygon id="Fill-64" fill="#FFFFFF" points="193.786047 23.0563862 185.12318 28.3589744 184.702326 27.5846395 193.365192 22.2820513"></polygon>
                        <polygon id="Fill-65" fill="#FFFFFF" points="169.562791 23.0563862 160.899924 28.3589744 160.47907 27.5846395 169.141936 22.2820513"></polygon>
                        <polygon id="Fill-66" fill="#FFFFFF" points="147.35814 23.0532707 138.695117 28.3589744 138.274419 27.587755 146.937441 22.2820513"></polygon>
                        <polygon id="Fill-67" fill="#FFFFFF" points="125.153488 23.0563862 116.490622 28.3589744 116.069767 27.5846395 124.732634 22.2820513"></polygon>
                        <polygon id="Fill-68" fill="#FFFFFF" points="100.930233 23.0563862 92.267366 28.3589744 91.8465116 27.5846395 100.509378 22.2820513"></polygon>
                        <polygon id="Fill-69" fill="#FFFFFF" points="78.7255814 23.0563862 70.0627148 28.3589744 69.6418605 27.5846395 78.304727 22.2820513"></polygon>
                        <polygon id="Fill-70" fill="#FFFFFF" points="56.5209302 23.0532707 47.8579078 28.3589744 47.4372093 27.587755 56.1002318 22.2820513"></polygon>
                        <polygon id="Fill-71" fill="#FFFFFF" points="32.2976744 23.0563862 23.6348079 28.3589744 23.2139535 27.5846395 31.87682 22.2820513"></polygon>
                        <polygon id="Fill-72" fill="#FFFFFF" points="0 27.5846395 0.42085438 28.3589744 9.08372093 23.0563862 8.66623339 22.2820513"></polygon>
                    </g>
                </g>
                <g id="Group-3-Copy-2" transform="translate(0.000000, 67.000000)">
                    <g id="Group-73-Copy-4" transform="translate(108.500000, 17.935897) scale(1, -1) translate(-108.500000, -17.935897) translate(0.000000, 0.435897)">
                        <polygon id="Fill-1" fill="#36F2B9" points="207.916279 11.3795113 208.337133 12.1538462 217 6.85125796 216.579146 6.07692308"></polygon>
                        <polygon id="Stroke-2" stroke="#36F2B9" stroke-width="0.5" points="217 6.84814246 208.337133 12.1538462 207.916279 11.3826268 216.579146 6.07692308"></polygon>
                        <polygon id="Fill-4" fill="#36F2B9" points="193.786047 6.84814246 185.12318 12.1538462 184.702326 11.3826268 193.365192 6.07692308"></polygon>
                        <polygon id="Stroke-5" stroke="#36F2B9" stroke-width="0.5" points="193.786047 6.84814246 185.12318 12.1538462 184.702326 11.3826268 193.365192 6.07692308"></polygon>
                        <polygon id="Fill-6" fill="#36F2B9" points="169.562791 6.84814246 160.899924 12.1538462 160.47907 11.3826268 169.141936 6.07692308"></polygon>
                        <polygon id="Stroke-7" stroke="#36F2B9" stroke-width="0.5" points="169.562791 6.84814246 160.899924 12.1538462 160.47907 11.3826268 169.141936 6.07692308"></polygon>
                        <polygon id="Fill-8" fill="#36F2B9" points="147.35814 6.85125796 138.695117 12.1538462 138.274419 11.3830796 146.937441 6.07692308"></polygon>
                        <polygon id="Stroke-9" stroke="#36F2B9" stroke-width="0.5" points="147.35814 6.85125796 138.695117 12.1538462 138.274419 11.3830796 146.937441 6.07692308"></polygon>
                        <polygon id="Fill-10" fill="#36F2B9" points="125.153488 6.84814246 116.490622 12.1538462 116.069767 11.3826268 124.732634 6.07692308"></polygon>
                        <polygon id="Stroke-11" stroke="#36F2B9" stroke-width="0.5" points="125.153488 6.84814246 116.490622 12.1538462 116.069767 11.3826268 124.732634 6.07692308"></polygon>
                        <polygon id="Fill-12" fill="#36F2B9" points="100.930233 6.84814246 92.267366 12.1538462 91.8465116 11.3826268 100.509378 6.07692308"></polygon>
                        <polygon id="Stroke-13" stroke="#36F2B9" stroke-width="0.5" points="100.930233 6.84814246 92.267366 12.1538462 91.8465116 11.3826268 100.509378 6.07692308"></polygon>
                        <polygon id="Fill-14" fill="#36F2B9" points="78.7255814 6.84814246 70.0627148 12.1538462 69.6418605 11.3826268 78.304727 6.07692308"></polygon>
                        <polygon id="Stroke-15" stroke="#36F2B9" stroke-width="0.5" points="78.7255814 6.84814246 70.0627148 12.1538462 69.6418605 11.3826268 78.304727 6.07692308"></polygon>
                        <polygon id="Fill-16" fill="#36F2B9" points="56.5209302 6.85125796 47.8579078 12.1538462 47.4372093 11.3830796 56.1002318 6.07692308"></polygon>
                        <polygon id="Stroke-17" stroke="#36F2B9" stroke-width="0.5" points="56.5209302 6.85125796 47.8579078 12.1538462 47.4372093 11.3830796 56.1002318 6.07692308"></polygon>
                        <polygon id="Fill-18" fill="#36F2B9" points="32.2976744 6.84814246 23.6348079 12.1538462 23.2139535 11.3826268 31.87682 6.07692308"></polygon>
                        <polygon id="Stroke-19" stroke="#36F2B9" stroke-width="0.5" points="32.2976744 6.84814246 23.6348079 12.1538462 23.2139535 11.3826268 31.87682 6.07692308"></polygon>
                        <polygon id="Fill-20" fill="#36F2B9" points="0 11.3795113 0.42085438 12.1538462 9.08372093 6.85125796 8.66623339 6.07692308"></polygon>
                        <polygon id="Stroke-21" stroke="#36F2B9" stroke-width="0.5" points="9.08372093 6.84814246 0.42085438 12.1538462 0 11.3826268 8.66286655 6.07692308"></polygon>
                        <polygon id="Fill-23" fill="#36F2B9" points="207.916279 33.6611076 208.337133 34.4358974 217 29.1301937 216.579146 28.3589744"></polygon>
                        <polygon id="Stroke-24" stroke="#36F2B9" stroke-width="0.5" points="217 29.1333092 208.337133 34.4358974 207.916279 33.6615626 216.579146 28.3589744"></polygon>
                        <polygon id="Fill-26" fill="#36F2B9" points="184.702326 33.6611076 185.12318 34.4358974 193.786047 29.1301937 193.365192 28.3589744"></polygon>
                        <polygon id="Stroke-27" stroke="#36F2B9" stroke-width="0.5" points="193.786047 29.1333092 185.12318 34.4358974 184.702326 33.6615626 193.365192 28.3589744"></polygon>
                        <polygon id="Fill-29" fill="#36F2B9" points="160.47907 33.6611076 160.899924 34.4358974 169.562791 29.1301937 169.141936 28.3589744"></polygon>
                        <polygon id="Stroke-30" stroke="#36F2B9" stroke-width="0.5" points="169.562791 29.1333092 160.899924 34.4358974 160.47907 33.6615626 169.141936 28.3589744"></polygon>
                        <polygon id="Fill-32" fill="#36F2B9" points="138.274419 33.6646781 138.695117 34.4358974 147.35814 29.1301937 146.937441 28.3589744"></polygon>
                        <polygon id="Stroke-33" stroke="#36F2B9" stroke-width="0.5" points="147.35814 29.1301937 138.695117 34.4358974 138.274419 33.6646781 146.937441 28.3589744"></polygon>
                        <polygon id="Fill-35" fill="#36F2B9" points="116.069767 33.6611076 116.490622 34.4358974 125.153488 29.1301937 124.732634 28.3589744"></polygon>
                        <polygon id="Stroke-36" stroke="#36F2B9" stroke-width="0.5" points="125.153488 29.1333092 116.490622 34.4358974 116.069767 33.6615626 124.732634 28.3589744"></polygon>
                        <polygon id="Fill-38" fill="#36F2B9" points="91.8465116 33.6611076 92.2639992 34.4358974 100.930233 29.1301937 100.509378 28.3589744"></polygon>
                        <polygon id="Stroke-39" stroke="#36F2B9" stroke-width="0.5" points="100.930233 29.1333092 92.267366 34.4358974 91.8465116 33.6615626 100.509378 28.3589744"></polygon>
                        <polygon id="Fill-41" fill="#36F2B9" points="69.6418605 33.6611076 70.059348 34.4358974 78.7255814 29.1301937 78.304727 28.3589744"></polygon>
                        <polygon id="Stroke-42" stroke="#36F2B9" stroke-width="0.5" points="78.7255814 29.1333092 70.0627148 34.4358974 69.6418605 33.6615626 78.304727 28.3589744"></polygon>
                        <polygon id="Fill-44" fill="#36F2B9" points="47.4372093 33.6646781 47.8577519 34.4358974 56.5209302 29.1301937 56.1003876 28.3589744"></polygon>
                        <polygon id="Stroke-45" stroke="#36F2B9" stroke-width="0.5" points="56.5209302 29.1301937 47.8579078 34.4358974 47.4372093 33.6646781 56.1002318 28.3589744"></polygon>
                        <polygon id="Fill-47" fill="#36F2B9" points="23.2139535 33.6611076 23.6348079 34.4358974 32.2976744 29.1301937 31.8801869 28.3589744"></polygon>
                        <polygon id="Stroke-48" stroke="#36F2B9" stroke-width="0.5" points="32.2976744 29.1333092 23.6348079 34.4358974 23.2139535 33.6615626 31.87682 28.3589744"></polygon>
                        <polygon id="Fill-50" fill="#36F2B9" points="0 33.6611076 0.42085438 34.4358974 9.08372093 29.1301937 8.66623339 28.3589744"></polygon>
                        <polygon id="Stroke-51" stroke="#36F2B9" stroke-width="0.5" points="9.08372093 29.1333092 0.42085438 34.4358974 0 33.6615626 8.66286655 28.3589744"></polygon>
                        <polygon id="Fill-53" fill="#FFFFFF" points="216.579146 0 207.916279 5.3057037 208.337133 6.07692308 217 0.77121938"></polygon>
                        <polygon id="Fill-54" fill="#FFFFFF" points="193.365192 0 184.702326 5.3057037 185.12318 6.07692308 193.786047 0.77121938"></polygon>
                        <polygon id="Fill-55" fill="#FFFFFF" points="169.141936 0 160.47907 5.3057037 160.899924 6.07692308 169.562791 0.77121938"></polygon>
                        <polygon id="Fill-56" fill="#FFFFFF" points="146.93071 0 138.274419 5.30258819 138.695117 6.07692308 147.35814 0.770766521 146.937441 0"></polygon>
                        <polygon id="Fill-57" fill="#FFFFFF" points="124.732634 0 116.069767 5.3057037 116.490622 6.07692308 125.153488 0.77121938"></polygon>
                        <polygon id="Fill-58" fill="#FFFFFF" points="100.509378 0 91.8465116 5.3057037 92.2639992 6.07692308 100.930233 0.77121938"></polygon>
                        <polygon id="Fill-59" fill="#FFFFFF" points="78.304727 0 69.6418605 5.3057037 70.059348 6.07692308 78.7255814 0.77121938"></polygon>
                        <polygon id="Fill-60" fill="#FFFFFF" points="56.0936589 0 47.4372093 5.30258819 47.8577519 6.07692308 56.5209302 0.770766521 56.1003876 0"></polygon>
                        <polygon id="Fill-61" fill="#FFFFFF" points="31.8801869 0 23.2139535 5.3057037 23.6348079 6.07692308 32.2976744 0.77121938"></polygon>
                        <polygon id="Fill-62" fill="#FFFFFF" points="8.66623339 0 0 5.3057037 0.42085438 6.07692308 9.08372093 0.77121938"></polygon>
                        <polygon id="Fill-63" fill="#FFFFFF" points="207.916279 27.5846395 208.337133 28.3589744 217 23.0563862 216.579146 22.2820513"></polygon>
                        <polygon id="Fill-64" fill="#FFFFFF" points="193.786047 23.0563862 185.12318 28.3589744 184.702326 27.5846395 193.365192 22.2820513"></polygon>
                        <polygon id="Fill-65" fill="#FFFFFF" points="169.562791 23.0563862 160.899924 28.3589744 160.47907 27.5846395 169.141936 22.2820513"></polygon>
                        <polygon id="Fill-66" fill="#FFFFFF" points="147.35814 23.0532707 138.695117 28.3589744 138.274419 27.587755 146.937441 22.2820513"></polygon>
                        <polygon id="Fill-67" fill="#FFFFFF" points="125.153488 23.0563862 116.490622 28.3589744 116.069767 27.5846395 124.732634 22.2820513"></polygon>
                        <polygon id="Fill-68" fill="#FFFFFF" points="100.930233 23.0563862 92.267366 28.3589744 91.8465116 27.5846395 100.509378 22.2820513"></polygon>
                        <polygon id="Fill-69" fill="#FFFFFF" points="78.7255814 23.0563862 70.0627148 28.3589744 69.6418605 27.5846395 78.304727 22.2820513"></polygon>
                        <polygon id="Fill-70" fill="#FFFFFF" points="56.5209302 23.0532707 47.8579078 28.3589744 47.4372093 27.587755 56.1002318 22.2820513"></polygon>
                        <polygon id="Fill-71" fill="#FFFFFF" points="32.2976744 23.0563862 23.6348079 28.3589744 23.2139535 27.5846395 31.87682 22.2820513"></polygon>
                        <polygon id="Fill-72" fill="#FFFFFF" points="0 27.5846395 0.42085438 28.3589744 9.08372093 23.0563862 8.66623339 22.2820513"></polygon>
                    </g>
                    <g id="Group-73-Copy-4" transform="translate(108.500000, 62.500000) scale(1, -1) translate(-108.500000, -62.500000) translate(0.000000, 45.000000)">
                        <polygon id="Fill-1" fill="#36F2B9" points="207.916279 11.3795113 208.337133 12.1538462 217 6.85125796 216.579146 6.07692308"></polygon>
                        <polygon id="Stroke-2" stroke="#36F2B9" stroke-width="0.5" points="217 6.84814246 208.337133 12.1538462 207.916279 11.3826268 216.579146 6.07692308"></polygon>
                        <polygon id="Fill-4" fill="#36F2B9" points="193.786047 6.84814246 185.12318 12.1538462 184.702326 11.3826268 193.365192 6.07692308"></polygon>
                        <polygon id="Stroke-5" stroke="#36F2B9" stroke-width="0.5" points="193.786047 6.84814246 185.12318 12.1538462 184.702326 11.3826268 193.365192 6.07692308"></polygon>
                        <polygon id="Fill-6" fill="#36F2B9" points="169.562791 6.84814246 160.899924 12.1538462 160.47907 11.3826268 169.141936 6.07692308"></polygon>
                        <polygon id="Stroke-7" stroke="#36F2B9" stroke-width="0.5" points="169.562791 6.84814246 160.899924 12.1538462 160.47907 11.3826268 169.141936 6.07692308"></polygon>
                        <polygon id="Fill-8" fill="#36F2B9" points="147.35814 6.85125796 138.695117 12.1538462 138.274419 11.3830796 146.937441 6.07692308"></polygon>
                        <polygon id="Stroke-9" stroke="#36F2B9" stroke-width="0.5" points="147.35814 6.85125796 138.695117 12.1538462 138.274419 11.3830796 146.937441 6.07692308"></polygon>
                        <polygon id="Fill-10" fill="#36F2B9" points="125.153488 6.84814246 116.490622 12.1538462 116.069767 11.3826268 124.732634 6.07692308"></polygon>
                        <polygon id="Stroke-11" stroke="#36F2B9" stroke-width="0.5" points="125.153488 6.84814246 116.490622 12.1538462 116.069767 11.3826268 124.732634 6.07692308"></polygon>
                        <polygon id="Fill-12" fill="#36F2B9" points="100.930233 6.84814246 92.267366 12.1538462 91.8465116 11.3826268 100.509378 6.07692308"></polygon>
                        <polygon id="Stroke-13" stroke="#36F2B9" stroke-width="0.5" points="100.930233 6.84814246 92.267366 12.1538462 91.8465116 11.3826268 100.509378 6.07692308"></polygon>
                        <polygon id="Fill-14" fill="#36F2B9" points="78.7255814 6.84814246 70.0627148 12.1538462 69.6418605 11.3826268 78.304727 6.07692308"></polygon>
                        <polygon id="Stroke-15" stroke="#36F2B9" stroke-width="0.5" points="78.7255814 6.84814246 70.0627148 12.1538462 69.6418605 11.3826268 78.304727 6.07692308"></polygon>
                        <polygon id="Fill-16" fill="#36F2B9" points="56.5209302 6.85125796 47.8579078 12.1538462 47.4372093 11.3830796 56.1002318 6.07692308"></polygon>
                        <polygon id="Stroke-17" stroke="#36F2B9" stroke-width="0.5" points="56.5209302 6.85125796 47.8579078 12.1538462 47.4372093 11.3830796 56.1002318 6.07692308"></polygon>
                        <polygon id="Fill-18" fill="#36F2B9" points="32.2976744 6.84814246 23.6348079 12.1538462 23.2139535 11.3826268 31.87682 6.07692308"></polygon>
                        <polygon id="Stroke-19" stroke="#36F2B9" stroke-width="0.5" points="32.2976744 6.84814246 23.6348079 12.1538462 23.2139535 11.3826268 31.87682 6.07692308"></polygon>
                        <polygon id="Fill-20" fill="#36F2B9" points="0 11.3795113 0.42085438 12.1538462 9.08372093 6.85125796 8.66623339 6.07692308"></polygon>
                        <polygon id="Stroke-21" stroke="#36F2B9" stroke-width="0.5" points="9.08372093 6.84814246 0.42085438 12.1538462 0 11.3826268 8.66286655 6.07692308"></polygon>
                        <polygon id="Fill-23" fill="#36F2B9" points="207.916279 33.6611076 208.337133 34.4358974 217 29.1301937 216.579146 28.3589744"></polygon>
                        <polygon id="Fill-26" fill="#36F2B9" points="184.702326 33.6611076 185.12318 34.4358974 193.786047 29.1301937 193.365192 28.3589744"></polygon>
                        <polygon id="Fill-29" fill="#36F2B9" points="160.47907 33.6611076 160.899924 34.4358974 169.562791 29.1301937 169.141936 28.3589744"></polygon>
                        <polygon id="Fill-32" fill="#36F2B9" points="138.274419 33.6646781 138.695117 34.4358974 147.35814 29.1301937 146.937441 28.3589744"></polygon>
                        <polygon id="Fill-35" fill="#36F2B9" points="116.069767 33.6611076 116.490622 34.4358974 125.153488 29.1301937 124.732634 28.3589744"></polygon>
                        <polygon id="Fill-38" fill="#36F2B9" points="91.8465116 33.6611076 92.2639992 34.4358974 100.930233 29.1301937 100.509378 28.3589744"></polygon>
                        <polygon id="Fill-41" fill="#36F2B9" points="69.6418605 33.6611076 70.059348 34.4358974 78.7255814 29.1301937 78.304727 28.3589744"></polygon>
                        <polygon id="Fill-44" fill="#36F2B9" points="47.4372093 33.6646781 47.8577519 34.4358974 56.5209302 29.1301937 56.1003876 28.3589744"></polygon>
                        <polygon id="Fill-47" fill="#36F2B9" points="23.2139535 33.6611076 23.6348079 34.4358974 32.2976744 29.1301937 31.8801869 28.3589744"></polygon>
                        <polygon id="Fill-50" fill="#36F2B9" points="0 33.6611076 0.42085438 34.4358974 9.08372093 29.1301937 8.66623339 28.3589744"></polygon>
                        <polygon id="Fill-53" fill="#FFFFFF" points="216.579146 0 207.916279 5.3057037 208.337133 6.07692308 217 0.77121938"></polygon>
                        <polygon id="Fill-54" fill="#FFFFFF" points="193.365192 0 184.702326 5.3057037 185.12318 6.07692308 193.786047 0.77121938"></polygon>
                        <polygon id="Fill-55" fill="#FFFFFF" points="169.141936 0 160.47907 5.3057037 160.899924 6.07692308 169.562791 0.77121938"></polygon>
                        <polygon id="Fill-56" fill="#FFFFFF" points="146.93071 0 138.274419 5.30258819 138.695117 6.07692308 147.35814 0.770766521 146.937441 0"></polygon>
                        <polygon id="Fill-57" fill="#FFFFFF" points="124.732634 0 116.069767 5.3057037 116.490622 6.07692308 125.153488 0.77121938"></polygon>
                        <polygon id="Fill-58" fill="#FFFFFF" points="100.509378 0 91.8465116 5.3057037 92.2639992 6.07692308 100.930233 0.77121938"></polygon>
                        <polygon id="Fill-59" fill="#FFFFFF" points="78.304727 0 69.6418605 5.3057037 70.059348 6.07692308 78.7255814 0.77121938"></polygon>
                        <polygon id="Fill-60" fill="#FFFFFF" points="56.0936589 0 47.4372093 5.30258819 47.8577519 6.07692308 56.5209302 0.770766521 56.1003876 0"></polygon>
                        <polygon id="Fill-61" fill="#FFFFFF" points="31.8801869 0 23.2139535 5.3057037 23.6348079 6.07692308 32.2976744 0.77121938"></polygon>
                        <polygon id="Fill-62" fill="#FFFFFF" points="8.66623339 0 0 5.3057037 0.42085438 6.07692308 9.08372093 0.77121938"></polygon>
                        <polygon id="Fill-63" fill="#FFFFFF" points="207.916279 27.5846395 208.337133 28.3589744 217 23.0563862 216.579146 22.2820513"></polygon>
                        <polygon id="Fill-64" fill="#FFFFFF" points="193.786047 23.0563862 185.12318 28.3589744 184.702326 27.5846395 193.365192 22.2820513"></polygon>
                        <polygon id="Fill-65" fill="#FFFFFF" points="169.562791 23.0563862 160.899924 28.3589744 160.47907 27.5846395 169.141936 22.2820513"></polygon>
                        <polygon id="Fill-66" fill="#FFFFFF" points="147.35814 23.0532707 138.695117 28.3589744 138.274419 27.587755 146.937441 22.2820513"></polygon>
                        <polygon id="Fill-67" fill="#FFFFFF" points="125.153488 23.0563862 116.490622 28.3589744 116.069767 27.5846395 124.732634 22.2820513"></polygon>
                        <polygon id="Fill-68" fill="#FFFFFF" points="100.930233 23.0563862 92.267366 28.3589744 91.8465116 27.5846395 100.509378 22.2820513"></polygon>
                        <polygon id="Fill-69" fill="#FFFFFF" points="78.7255814 23.0563862 70.0627148 28.3589744 69.6418605 27.5846395 78.304727 22.2820513"></polygon>
                        <polygon id="Fill-70" fill="#FFFFFF" points="56.5209302 23.0532707 47.8579078 28.3589744 47.4372093 27.587755 56.1002318 22.2820513"></polygon>
                        <polygon id="Fill-71" fill="#FFFFFF" points="32.2976744 23.0563862 23.6348079 28.3589744 23.2139535 27.5846395 31.87682 22.2820513"></polygon>
                        <polygon id="Fill-72" fill="#FFFFFF" points="0 27.5846395 0.42085438 28.3589744 9.08372093 23.0563862 8.66623339 22.2820513"></polygon>
                    </g>
                </g>
            </g>
        </g>
    </g>
</svg>