<?xml version="1.0" encoding="UTF-8"?>
<svg width="140px" height="140px" viewBox="0 0 140 140" version="1.1" xmlns="http://www.w3.org/2000/svg" xmlns:xlink="http://www.w3.org/1999/xlink">
    <!-- Generator: sketchtool 61.2 (101010) - https://sketch.com -->
    <title>087053F8-736A-4594-BB61-7DAD8BC6B521@1x</title>
    <desc>Created with sketchtool.</desc>
    <defs>
        <rect id="path-1" x="0" y="0" width="140" height="140"></rect>
    </defs>
    <g id="Asset-Artboard-Page" stroke="none" stroke-width="1" fill="none" fill-rule="evenodd">
        <g id="element/designer/header">
            <g>
                <mask id="mask-2" fill="white">
                    <use xlink:href="#path-1"></use>
                </mask>
                <g id="Mask"></g>
                <g id="Group-24" mask="url(#mask-2)">
                    <g transform="translate(4.000000, 14.000000)">
                        <g id="016-check-list-copy" transform="translate(101.601815, 14.000000)">
                            <path d="M29.2422565,13.9156211 L5.6178136,0.13543565 C5.3081239,-0.0452125663 4.92681345,-0.0450778547 4.61739049,0.13543565 C4.61739049,0.13543565 1.24267965,2.10330228 1.24241291,2.10343699 C0.932989951,2.28395049 0.742268041,2.61749634 0.742268041,2.97852335 L0.742268041,50.2166175 C0.742268041,50.5776445 0.932989951,50.9111904 1.24254628,51.0917039 L24.8671226,64.8647496 C25.0218341,64.9548716 25.1944174,65 25.3671341,65 C25.5397174,65 25.8670122,64.8648843 25.8670122,64.8648843 L29.2418564,62.8984995 C29.5514128,62.7181207 29.742268,62.3844401 29.742268,62.0232784 L29.742268,14.7905727 C29.742268,14.4295457 29.5515461,14.0961346 29.2422565,13.9156211 Z M25.3648668,15.5906248 L20.6125569,12.8186648 L21.9884221,12.0179392 L26.7404652,14.7897645 L25.3648668,15.5906248 Z M7.989834,15.6637731 L18.1139665,21.5684507 C18.268678,21.6587075 18.4413947,21.7038358 18.6141114,21.7038358 C18.7868281,21.7038358 18.9595448,21.6587075 19.1142562,21.5684507 C19.4236792,21.3880719 19.6144011,21.0545261 19.6144011,20.6934991 L19.6144011,18.5030889 L20.9916,19.306374 L20.9887992,56.3365642 L6.11862533,47.6615431 L6.11862533,10.6324307 L7.48968913,11.4318091 L7.48968913,14.7889562 C7.48968913,15.1498485 7.68041104,15.4833943 7.989834,15.6637731 Z M17.613955,18.943461 L9.49040198,14.2056551 L9.49040198,8.66442934 L17.613955,13.4029088 L17.613955,18.943461 Z M10.3089057,6.80850802 L11.7325181,6.03566774 L19.9870424,10.8505287 L18.6111772,11.6512543 L10.3089057,6.80850802 Z M5.11740199,2.17712422 L9.69539469,4.84751169 L8.27178234,5.62035197 L3.74287051,2.97865806 L5.11740199,2.17712422 Z M2.74298089,49.6331817 L2.74298089,4.72869608 L7.48982251,7.497423 L7.48982251,9.09860473 L5.61848046,8.00757572 C5.3090575,7.82706221 4.92774705,7.82719692 4.61832409,8.00757572 C4.30890113,8.18795451 4.11817922,8.52163507 4.11817922,8.88252737 L4.11817922,48.2445748 C4.11817922,48.6054671 4.30876776,48.939013 4.61819072,49.1195265 L21.4888107,58.9616885 C21.6435222,59.0519453 21.8163723,59.0970737 21.989089,59.0970737 C22.1618057,59.0970737 22.334389,59.0519453 22.4891005,58.9618233 C22.7986568,58.7814445 22.9893787,58.4478986 22.9893787,58.0868716 L22.9923129,18.7232076 C22.9923129,18.3623153 22.8017243,18.0287695 22.4923014,17.848256 L19.6145345,16.1696151 L19.6145345,14.5697805 L24.3641769,17.3402586 L24.3668444,62.2397599 L2.74298089,49.6331817 Z M26.3674238,62.2404335 L26.3647564,17.3407975 L27.7416886,16.5391289 L27.7416886,61.4397079 L26.3674238,62.2404335 Z" id="Shape" fill="#7878F9" fill-rule="nonzero"></path>
                            <path d="M12.2073333,13.8898217 L15.3473295,15.8641644 C15.4938775,15.9562517 15.6536917,16 15.8113982,16 C16.1327624,16 16.4453238,15.8182557 16.6175364,15.4935194 C16.8743054,15.009183 16.7219302,14.3898211 16.2772028,14.1101833 L13.1372066,12.1358407 C12.6922313,11.8562029 12.1236447,12.0221492 11.8669997,12.5064857 C11.6102307,12.9908221 11.7626059,13.610184 12.2073333,13.8898217 Z" id="Path" fill="#7878F9" fill-rule="nonzero"></path>
                            <path d="M8.23747045,22.9036202 L18.2569348,28.8631769 C18.4129794,28.9559337 18.5831499,29 18.7510761,29 C19.0932653,29 19.4260813,28.8169345 19.6094535,28.4898376 C19.8828617,28.0019803 19.7206122,27.378116 19.2470656,27.0964454 L9.22760132,21.1368886 C8.75379069,20.855082 8.14835867,21.0223707 7.87508255,21.510228 C7.60167441,21.9980853 7.76392386,22.6219496 8.23747045,22.9036202 Z" id="Path" fill="#7878F9" fill-rule="nonzero"></path>
                            <path d="M8.2374759,28.9036986 L18.2569184,34.8631756 C18.4129648,34.9559333 18.5831371,35 18.7510652,35 C19.0932582,35 19.4260778,34.8169328 19.6094521,34.4898328 C19.8828632,34.0019709 19.720612,33.3781007 19.2470602,33.0964274 L9.22761766,27.1369504 C8.75380182,26.8550051 8.14836314,27.0224314 7.87508401,27.5102932 C7.60167287,27.9982911 7.7639241,28.6220253 8.2374759,28.9036986 Z" id="Path" fill="#7878F9" fill-rule="nonzero"></path>
                            <path d="M8.23736696,40.9032642 L18.2572452,46.8632025 C18.4132572,46.955942 18.5833921,47 18.7512832,47 C19.0934009,47 19.4261474,46.8169687 19.6094813,46.489933 C19.8828323,46.0021669 19.7206167,45.3784192 19.2471691,45.0968013 L9.22729091,39.136863 C8.7535793,38.8551091 8.14827381,39.0223665 7.8750548,39.5101326 C7.6017038,39.9978986 7.76391933,40.6216463 8.23736696,40.9032642 Z" id="Path" fill="#7878F9" fill-rule="nonzero"></path>
                            <path d="M8.23736696,34.9032642 L18.2572452,40.8632025 C18.4132572,40.955942 18.5833921,41 18.7512832,41 C19.0934009,41 19.4261474,40.8169687 19.6094813,40.489933 C19.8828323,40.0021669 19.7206167,39.3784192 19.2471691,39.0968013 L9.22729091,33.136863 C8.7535793,32.8551091 8.14827381,33.0223665 7.8750548,33.5101326 C7.6017038,33.9978986 7.76391933,34.6216463 8.23736696,34.9032642 Z" id="Path" fill="#7878F9" fill-rule="nonzero"></path>
                        </g>
                        <g id="Group-22-Copy" transform="translate(56.000000, 56.201364) rotate(-37.000000) translate(-56.000000, -56.201364) translate(18.000000, 15.201364)">
                            <g id="Group-23" transform="translate(0.000000, 0.200251)">
                                <rect id="Rectangle" fill="#7878F9" transform="translate(38.000000, 32.299749) rotate(-323.000000) translate(-38.000000, -32.299749) " x="-3" y="23.799749" width="82" height="17" rx="2"></rect>
                                <text id="DESIGNER" transform="translate(38.722932, 31.701364) rotate(37.000000) translate(-38.722932, -31.701364) " font-family="Lato-Regular, Lato" font-size="11" font-weight="normal" line-spacing="25" letter-spacing="0.64625" fill="#FFFFFF">
                                    <tspan x="9.22293239" y="30.2013645">DESIGNER</tspan>
                                </text>
                            </g>
                            <path d="M39.3940116,58.8418028 L49.3546322,78.7168887 C49.60208,79.2106377 49.4024135,79.8114964 48.9086645,80.0589442 C48.5918575,80.2177155 48.2146827,80.1969644 47.9172055,80.0043967 L39.0434152,74.2600743 C38.7127554,74.0460265 38.2872446,74.0460265 37.9565848,74.2600743 L29.0827945,80.0043967 C28.6191713,80.3045166 28.0000352,80.171971 27.6999153,79.7083478 C27.5073476,79.4108705 27.4865964,79.0336957 27.6453678,78.7168887 L37.6059884,58.8418028 C37.8534362,58.3480538 38.4542949,58.1483873 38.9480439,58.395835 C39.1409134,58.4924938 39.2973528,58.6489332 39.3940116,58.8418028 Z" id="Rectangle" fill="#7878F9"></path>
                        </g>
                    </g>
                </g>
            </g>
        </g>
    </g>
</svg>