<?xml version="1.0" encoding="UTF-8"?>
<svg width="283px" height="118px" viewBox="0 0 283 118" version="1.1" xmlns="http://www.w3.org/2000/svg" xmlns:xlink="http://www.w3.org/1999/xlink">
    <!-- Generator: sketchtool 61.2 (101010) - https://sketch.com -->
    <title>055B4703-D29A-4D3F-AF5F-9ACBDEDC795C@1x</title>
    <desc>Created with sketchtool.</desc>
    <defs>
        <polygon id="path-1" points="0.404597701 0 77.783908 0 77.783908 118 0.404597701 118"></polygon>
    </defs>
    <g id="Asset-Artboard-Page" stroke="none" stroke-width="1" fill="none" fill-rule="evenodd">
        <g id="element/question_all">
            <g>
                <g id="Group-73-Copy-4" transform="translate(175.500000, 95.000000) scale(1, -1) translate(-175.500000, -95.000000) translate(68.000000, 78.000000)">
                    <polygon id="Fill-1" fill="#36F2B9" points="206 11.2354668 206.416976 12 215 6.76453318 214.583024 6"></polygon>
                    <polygon id="Stroke-2" stroke="#36F2B9" stroke-width="0.5" points="215 6.76145711 206.416976 12 206 11.2385429 214.583024 6"></polygon>
                    <polygon id="Fill-4" fill="#36F2B9" points="192 6.76145711 183.416976 12 183 11.2385429 191.583024 6"></polygon>
                    <polygon id="Stroke-5" stroke="#36F2B9" stroke-width="0.5" points="192 6.76145711 183.416976 12 183 11.2385429 191.583024 6"></polygon>
                    <polygon id="Fill-6" fill="#36F2B9" points="168 6.76145711 159.416976 12 159 11.2385429 167.583024 6"></polygon>
                    <polygon id="Stroke-7" stroke="#36F2B9" stroke-width="0.5" points="168 6.76145711 159.416976 12 159 11.2385429 167.583024 6"></polygon>
                    <polygon id="Fill-8" fill="#36F2B9" points="146 6.76453318 137.416821 12 137 11.23899 145.583179 6"></polygon>
                    <polygon id="Stroke-9" stroke="#36F2B9" stroke-width="0.5" points="146 6.76453318 137.416821 12 137 11.23899 145.583179 6"></polygon>
                    <polygon id="Fill-10" fill="#36F2B9" points="124 6.76145711 115.416976 12 115 11.2385429 123.583024 6"></polygon>
                    <polygon id="Stroke-11" stroke="#36F2B9" stroke-width="0.5" points="124 6.76145711 115.416976 12 115 11.2385429 123.583024 6"></polygon>
                    <polygon id="Fill-12" fill="#36F2B9" points="100 6.76145711 91.4169755 12 91 11.2385429 99.5830245 6"></polygon>
                    <polygon id="Stroke-13" stroke="#36F2B9" stroke-width="0.5" points="100 6.76145711 91.4169755 12 91 11.2385429 99.5830245 6"></polygon>
                    <polygon id="Fill-14" fill="#36F2B9" points="78 6.76145711 69.4169755 12 69 11.2385429 77.5830245 6"></polygon>
                    <polygon id="Stroke-15" stroke="#36F2B9" stroke-width="0.5" points="78 6.76145711 69.4169755 12 69 11.2385429 77.5830245 6"></polygon>
                    <polygon id="Fill-16" fill="#36F2B9" points="56 6.76453318 47.416821 12 47 11.23899 55.583179 6"></polygon>
                    <polygon id="Stroke-17" stroke="#36F2B9" stroke-width="0.5" points="56 6.76453318 47.416821 12 47 11.23899 55.583179 6"></polygon>
                    <polygon id="Fill-18" fill="#36F2B9" points="32 6.76145711 23.4169755 12 23 11.2385429 31.5830245 6"></polygon>
                    <polygon id="Stroke-19" stroke="#36F2B9" stroke-width="0.5" points="32 6.76145711 23.4169755 12 23 11.2385429 31.5830245 6"></polygon>
                    <polygon id="Fill-20" fill="#36F2B9" points="0 11.2354668 0.416975537 12 9 6.76453318 8.58636027 6"></polygon>
                    <polygon id="Stroke-21" stroke="#36F2B9" stroke-width="0.5" points="9 6.76145711 0.416975537 12 0 11.2385429 8.58302446 6"></polygon>
                    <polygon id="Fill-23" fill="#36F2B9" points="206 33.2350176 206.416976 34 215 28.7614571 214.583024 28"></polygon>
                    <polygon id="Stroke-24" stroke="#36F2B9" stroke-width="0.5" points="215 28.7645332 206.416976 34 206 33.2354668 214.583024 28"></polygon>
                    <polygon id="Fill-26" fill="#36F2B9" points="183 33.2350176 183.416976 34 192 28.7614571 191.583024 28"></polygon>
                    <polygon id="Stroke-27" stroke="#36F2B9" stroke-width="0.5" points="192 28.7645332 183.416976 34 183 33.2354668 191.583024 28"></polygon>
                    <polygon id="Fill-29" fill="#36F2B9" points="159 33.2350176 159.416976 34 168 28.7614571 167.583024 28"></polygon>
                    <polygon id="Stroke-30" stroke="#36F2B9" stroke-width="0.5" points="168 28.7645332 159.416976 34 159 33.2354668 167.583024 28"></polygon>
                    <polygon id="Fill-32" fill="#36F2B9" points="137 33.2385429 137.416821 34 146 28.7614571 145.583179 28"></polygon>
                    <polygon id="Stroke-33" stroke="#36F2B9" stroke-width="0.5" points="146 28.7614571 137.416821 34 137 33.2385429 145.583179 28"></polygon>
                    <polygon id="Fill-35" fill="#36F2B9" points="115 33.2350176 115.416976 34 124 28.7614571 123.583024 28"></polygon>
                    <polygon id="Stroke-36" stroke="#36F2B9" stroke-width="0.5" points="124 28.7645332 115.416976 34 115 33.2354668 123.583024 28"></polygon>
                    <polygon id="Fill-38" fill="#36F2B9" points="91 33.2350176 91.4136397 34 100 28.7614571 99.5830245 28"></polygon>
                    <polygon id="Stroke-39" stroke="#36F2B9" stroke-width="0.5" points="100 28.7645332 91.4169755 34 91 33.2354668 99.5830245 28"></polygon>
                    <polygon id="Fill-41" fill="#36F2B9" points="69 33.2350176 69.4136397 34 78 28.7614571 77.5830245 28"></polygon>
                    <polygon id="Stroke-42" stroke="#36F2B9" stroke-width="0.5" points="78 28.7645332 69.4169755 34 69 33.2354668 77.5830245 28"></polygon>
                    <polygon id="Fill-44" fill="#36F2B9" points="47 33.2385429 47.4166667 34 56 28.7614571 55.5833333 28"></polygon>
                    <polygon id="Stroke-45" stroke="#36F2B9" stroke-width="0.5" points="56 28.7614571 47.416821 34 47 33.2385429 55.583179 28"></polygon>
                    <polygon id="Fill-47" fill="#36F2B9" points="23 33.2350176 23.4169755 34 32 28.7614571 31.5863603 28"></polygon>
                    <polygon id="Stroke-48" stroke="#36F2B9" stroke-width="0.5" points="32 28.7645332 23.4169755 34 23 33.2354668 31.5830245 28"></polygon>
                    <polygon id="Fill-50" fill="#36F2B9" points="0 33.2350176 0.416975537 34 9 28.7614571 8.58636027 28"></polygon>
                    <polygon id="Stroke-51" stroke="#36F2B9" stroke-width="0.5" points="9 28.7645332 0.416975537 34 0 33.2354668 8.58302446 28"></polygon>
                    <polygon id="Fill-53" fill="#FFFFFF" points="214.583024 0 206 5.23854289 206.416976 6 215 0.761457109"></polygon>
                    <polygon id="Fill-54" fill="#FFFFFF" points="191.583024 0 183 5.23854289 183.416976 6 192 0.761457109"></polygon>
                    <polygon id="Fill-55" fill="#FFFFFF" points="167.583024 0 159 5.23854289 159.416976 6 168 0.761457109"></polygon>
                    <polygon id="Fill-56" fill="#FFFFFF" points="145.57651 0 137 5.23546682 137.416821 6 146 0.761009982 145.583179 0"></polygon>
                    <polygon id="Fill-57" fill="#FFFFFF" points="123.583024 0 115 5.23854289 115.416976 6 124 0.761457109"></polygon>
                    <polygon id="Fill-58" fill="#FFFFFF" points="99.5830245 0 91 5.23854289 91.4136397 6 100 0.761457109"></polygon>
                    <polygon id="Fill-59" fill="#FFFFFF" points="77.5830245 0 69 5.23854289 69.4136397 6 78 0.761457109"></polygon>
                    <polygon id="Fill-60" fill="#FFFFFF" points="55.5766667 0 47 5.23546682 47.4166667 6 56 0.761009982 55.5833333 0"></polygon>
                    <polygon id="Fill-61" fill="#FFFFFF" points="31.5863603 0 23 5.23854289 23.4169755 6 32 0.761457109"></polygon>
                    <polygon id="Fill-62" fill="#FFFFFF" points="8.58636027 0 0 5.23854289 0.416975537 6 9 0.761457109"></polygon>
                    <polygon id="Fill-63" fill="#FFFFFF" points="206 27.2354668 206.416976 28 215 22.7645332 214.583024 22"></polygon>
                    <polygon id="Fill-64" fill="#FFFFFF" points="192 22.7645332 183.416976 28 183 27.2354668 191.583024 22"></polygon>
                    <polygon id="Fill-65" fill="#FFFFFF" points="168 22.7645332 159.416976 28 159 27.2354668 167.583024 22"></polygon>
                    <polygon id="Fill-66" fill="#FFFFFF" points="146 22.7614571 137.416821 28 137 27.2385429 145.583179 22"></polygon>
                    <polygon id="Fill-67" fill="#FFFFFF" points="124 22.7645332 115.416976 28 115 27.2354668 123.583024 22"></polygon>
                    <polygon id="Fill-68" fill="#FFFFFF" points="100 22.7645332 91.4169755 28 91 27.2354668 99.5830245 22"></polygon>
                    <polygon id="Fill-69" fill="#FFFFFF" points="78 22.7645332 69.4169755 28 69 27.2354668 77.5830245 22"></polygon>
                    <polygon id="Fill-70" fill="#FFFFFF" points="56 22.7614571 47.416821 28 47 27.2385429 55.583179 22"></polygon>
                    <polygon id="Fill-71" fill="#FFFFFF" points="32 22.7645332 23.4169755 28 23 27.2354668 31.5830245 22"></polygon>
                    <polygon id="Fill-72" fill="#FFFFFF" points="0 27.2354668 0.416975537 28 9 22.7645332 8.58636027 22"></polygon>
                </g>
                <g id="Group">
                    <g id="Group-3">
                        <mask id="mask-2" fill="white">
                            <use xlink:href="#path-1"></use>
                        </mask>
                        <g id="Clip-2"></g>
                        <path d="M18.0911691,68.2838134 C18.0911691,64.3289625 18.7928037,60.5324866 20.1781397,57.0007233 C20.7004428,55.665848 21.435702,54.2110601 22.2763185,52.7019723 L31.1151209,57.817486 L31.9557375,56.8219857 C38.9182838,48.5276588 45.0828049,42.7718575 50.2766941,39.7423693 C52.273999,38.5771815 53.8745328,38.0794314 55.0289795,38.2807939 C55.6880228,38.3916565 56.3649993,38.733294 56.3649993,40.4143319 C56.3649993,42.4754699 55.7575138,44.6927204 54.5582342,47.0072585 C53.3186051,49.391934 51.2428427,52.5096597 48.3847466,56.2721981 C44.7039671,61.1116867 42.10366,65.4398503 40.6533163,69.1367761 C39.1917644,72.8676395 38.4497802,76.8745279 38.4497802,81.0443164 L38.4497802,84.9539173 L18.0911691,73.1685521 L18.0911691,68.2838134 Z M3.87466266,33.8078304 L22.859146,44.6995079 L25.0806152,48.4688338 L28.56413,54.3830102 L9.49446425,43.3442701 L3.87466266,33.8078304 Z M29.7387515,6.91574912 C37.4656985,2.41563557 43.5607286,0.829622704 47.8400271,2.17807302 C48.3623301,2.34323556 48.8667,2.56269811 49.3755532,2.84777317 L66.4972303,12.764313 C62.2829396,12.7892005 57.1495747,14.5878884 50.9379791,18.2033643 C41.372884,23.7804281 32.0700613,32.12453 23.2760918,42.9800075 L2.72918256,31.0407922 C11.3370956,20.4590773 20.4202373,12.3457504 29.7387515,6.91574912 L29.7387515,6.91574912 Z M72.9755816,14.6218259 L73.0204145,14.5856259 L72.2717054,14.1512258 C72.1887645,14.1059758 72.110307,14.0516758 72.0251245,14.0086883 L50.7115731,1.6554354 L50.18927,1.36357283 C49.5773012,1.02193525 48.9720573,0.759485187 48.344397,0.560385141 C43.5248623,-0.971327716 37.1653182,0.630522657 28.898135,5.44512378 C19.3442481,11.0154001 10.0481503,19.3481895 1.26314737,30.1878295 L1.25193915,30.181042 L0.828268423,30.7104672 C0.810335271,30.7330922 0.790160475,30.7534547 0.772227322,30.7760797 L0.404597701,31.2353673 L8.27276825,44.5931704 L20.8214915,51.8580596 C19.9382838,53.44181 19.1649166,54.9689978 18.6134722,56.3762731 C17.1519203,60.109399 16.4099361,64.1140249 16.4099361,68.2838134 L16.4099361,74.1504773 L22.8120714,77.8564531 C19.8732761,79.8746036 17.5173082,82.2570167 15.8719415,85.0104798 C13.8880866,88.3273056 12.88383,92.0242314 12.88383,95.9971824 C12.88383,99.9045208 14.3677984,102.219059 15.8203837,103.653484 C18.7726289,106.569847 39.62216,117.5113 39.62216,117.5113 L39.628885,117.504512 C39.6356099,117.506775 39.6400932,117.5113 39.6468181,117.513562 C40.3708691,117.834837 41.1621695,118 42.0296857,118 C43.8969752,118 46.1094779,117.244325 48.7209932,115.723924 C52.2605491,113.660524 55.0939872,110.918373 57.1428498,107.572135 C59.2029207,104.212322 60.2475268,100.513133 60.2475268,96.578645 C60.2475268,93.3025442 59.5234758,90.9585937 58.1202066,89.5558434 L58.2076307,89.4268808 L57.3714975,88.9427057 C57.223549,88.8431557 57.0800838,88.7322932 56.9164438,88.6485807 C56.8648859,88.6214307 56.8066032,88.6055932 56.7505621,88.5829681 L46.9859607,82.9154043 L45.3047277,83.8950671 L52.8209601,88.2571681 C51.3728581,88.5580806 49.7342163,89.2345683 47.8803767,90.3115185 C44.0538903,92.5446066 41.1106117,95.3501072 39.1334816,98.6556205 C37.1496267,101.974709 36.1453701,105.669372 36.1453701,109.642323 C36.1453701,111.309786 36.3403932,112.719324 36.7102644,113.891299 L19.5437544,104.133134 C17.6540485,103.056184 16.1386972,101.372884 15.4056796,99.3094831 C14.3319321,96.2935699 14.1413923,91.4269313 18.0194365,85.684705 C20.0458827,82.6801043 21.2608538,81.345229 24.4372634,78.7976534 L39.2926384,87.3974179 L39.9180571,87.0331553 L56.5981303,77.313453 L56.5981303,73.6368897 C56.5981303,71.9920518 57.0442175,70.2748139 57.9274252,68.5372135 C58.842016,66.7362631 61.1890173,63.3040498 64.9011798,58.3378611 C69.3575681,52.4259472 72.6527849,46.9416459 74.6881976,42.0388073 C76.7415436,37.0952437 77.783908,31.984255 77.783908,26.8506413 C77.783908,20.8912149 76.1497495,16.8164514 72.9755816,14.6218259 L72.9755816,14.6218259 Z" id="Fill-1" fill="#36F2B9" mask="url(#mask-2)"></path>
                    </g>
                </g>
            </g>
        </g>
    </g>
</svg>