<?xml version="1.0" encoding="UTF-8"?>
<svg width="80px" height="79px" viewBox="0 0 80 79" version="1.1" xmlns="http://www.w3.org/2000/svg" xmlns:xlink="http://www.w3.org/1999/xlink">
    <!-- Generator: sketchtool 63.1 (101010) - https://sketch.com -->
    <title>7B5EB58B-F1EE-41D0-AA95-62F76B0FD4F1@3x</title>
    <desc>Created with sketchtool.</desc>
    <g id="UI" stroke="none" stroke-width="1" fill="none" fill-rule="evenodd">
        <g id="D.1.0---Chi-siamo" transform="translate(-626.000000, -1759.000000)">
            <g id="Group-4-Copy" transform="translate(627.000000, 1683.000000)">
                <g id="Group-3-Copy" transform="translate(0.000000, 77.000000)">
                    <g id="Group-73-Copy-4" transform="translate(39.000000, 17.000000) scale(1, -1) translate(-39.000000, -17.000000) ">
                        <polygon id="Fill-14" fill="#36F2B9" points="78 6.76145711 69.4169755 12 69 11.2385429 77.5830245 6"></polygon>
                        <polygon id="Stroke-15" stroke="#36F2B9" stroke-width="0.5" points="78 6.76145711 69.4169755 12 69 11.2385429 77.5830245 6"></polygon>
                        <polygon id="Fill-16" fill="#36F2B9" points="56 6.76453318 47.416821 12 47 11.23899 55.583179 6"></polygon>
                        <polygon id="Stroke-17" stroke="#36F2B9" stroke-width="0.5" points="56 6.76453318 47.416821 12 47 11.23899 55.583179 6"></polygon>
                        <polygon id="Fill-18" fill="#36F2B9" points="32 6.76145711 23.4169755 12 23 11.2385429 31.5830245 6"></polygon>
                        <polygon id="Stroke-19" stroke="#36F2B9" stroke-width="0.5" points="32 6.76145711 23.4169755 12 23 11.2385429 31.5830245 6"></polygon>
                        <polygon id="Fill-20" fill="#36F2B9" points="0 11.2354668 0.416975537 12 9 6.76453318 8.58636027 6"></polygon>
                        <polygon id="Stroke-21" stroke="#36F2B9" stroke-width="0.5" points="9 6.76145711 0.416975537 12 0 11.2385429 8.58302446 6"></polygon>
                        <polygon id="Fill-41" fill="#36F2B9" points="69 33.2350176 69.4136397 34 78 28.7614571 77.5830245 28"></polygon>
                        <polygon id="Stroke-42" stroke="#36F2B9" stroke-width="0.5" points="78 28.7645332 69.4169755 34 69 33.2354668 77.5830245 28"></polygon>
                        <polygon id="Fill-44" fill="#36F2B9" points="47 33.2385429 47.4166667 34 56 28.7614571 55.5833333 28"></polygon>
                        <polygon id="Stroke-45" stroke="#36F2B9" stroke-width="0.5" points="56 28.7614571 47.416821 34 47 33.2385429 55.583179 28"></polygon>
                        <polygon id="Fill-47" fill="#36F2B9" points="23 33.2350176 23.4169755 34 32 28.7614571 31.5863603 28"></polygon>
                        <polygon id="Stroke-48" stroke="#36F2B9" stroke-width="0.5" points="32 28.7645332 23.4169755 34 23 33.2354668 31.5830245 28"></polygon>
                        <polygon id="Fill-50" fill="#36F2B9" points="0 33.2350176 0.416975537 34 9 28.7614571 8.58636027 28"></polygon>
                        <polygon id="Stroke-51" stroke="#36F2B9" stroke-width="0.5" points="9 28.7645332 0.416975537 34 0 33.2354668 8.58302446 28"></polygon>
                        <polygon id="Fill-59" fill="#FFFFFF" points="77.5830245 0 69 5.23854289 69.4136397 6 78 0.761457109"></polygon>
                        <polygon id="Fill-60" fill="#FFFFFF" points="55.5766667 0 47 5.23546682 47.4166667 6 56 0.761009982 55.5833333 0"></polygon>
                        <polygon id="Fill-61" fill="#FFFFFF" points="31.5863603 0 23 5.23854289 23.4169755 6 32 0.761457109"></polygon>
                        <polygon id="Fill-62" fill="#FFFFFF" points="8.58636027 0 0 5.23854289 0.416975537 6 9 0.761457109"></polygon>
                        <polygon id="Fill-69" fill="#FFFFFF" points="78 22.7645332 69.4169755 28 69 27.2354668 77.5830245 22"></polygon>
                        <polygon id="Fill-70" fill="#FFFFFF" points="56 22.7614571 47.416821 28 47 27.2385429 55.583179 22"></polygon>
                        <polygon id="Fill-71" fill="#FFFFFF" points="32 22.7645332 23.4169755 28 23 27.2354668 31.5830245 22"></polygon>
                        <polygon id="Fill-72" fill="#FFFFFF" points="0 27.2354668 0.416975537 28 9 22.7645332 8.58636027 22"></polygon>
                    </g>
                    <g id="Group-73-Copy-4" transform="translate(39.000000, 61.000000) scale(1, -1) translate(-39.000000, -61.000000) translate(0.000000, 44.000000)">
                        <polygon id="Fill-14" fill="#36F2B9" points="78 6.76145711 69.4169755 12 69 11.2385429 77.5830245 6"></polygon>
                        <polygon id="Stroke-15" stroke="#36F2B9" stroke-width="0.5" points="78 6.76145711 69.4169755 12 69 11.2385429 77.5830245 6"></polygon>
                        <polygon id="Fill-16" fill="#36F2B9" points="56 6.76453318 47.416821 12 47 11.23899 55.583179 6"></polygon>
                        <polygon id="Stroke-17" stroke="#36F2B9" stroke-width="0.5" points="56 6.76453318 47.416821 12 47 11.23899 55.583179 6"></polygon>
                        <polygon id="Fill-18" fill="#36F2B9" points="32 6.76145711 23.4169755 12 23 11.2385429 31.5830245 6"></polygon>
                        <polygon id="Stroke-19" stroke="#36F2B9" stroke-width="0.5" points="32 6.76145711 23.4169755 12 23 11.2385429 31.5830245 6"></polygon>
                        <polygon id="Fill-20" fill="#36F2B9" points="0 11.2354668 0.416975537 12 9 6.76453318 8.58636027 6"></polygon>
                        <polygon id="Stroke-21" stroke="#36F2B9" stroke-width="0.5" points="9 6.76145711 0.416975537 12 0 11.2385429 8.58302446 6"></polygon>
                        <polygon id="Fill-41" fill="#36F2B9" points="69 33.2350176 69.4136397 34 78 28.7614571 77.5830245 28"></polygon>
                        <polygon id="Fill-44" fill="#36F2B9" points="47 33.2385429 47.4166667 34 56 28.7614571 55.5833333 28"></polygon>
                        <polygon id="Fill-47" fill="#36F2B9" points="23 33.2350176 23.4169755 34 32 28.7614571 31.5863603 28"></polygon>
                        <polygon id="Fill-50" fill="#36F2B9" points="0 33.2350176 0.416975537 34 9 28.7614571 8.58636027 28"></polygon>
                        <polygon id="Fill-59" fill="#FFFFFF" points="77.5830245 0 69 5.23854289 69.4136397 6 78 0.761457109"></polygon>
                        <polygon id="Fill-60" fill="#FFFFFF" points="55.5766667 0 47 5.23546682 47.4166667 6 56 0.761009982 55.5833333 0"></polygon>
                        <polygon id="Fill-61" fill="#FFFFFF" points="31.5863603 0 23 5.23854289 23.4169755 6 32 0.761457109"></polygon>
                        <polygon id="Fill-62" fill="#FFFFFF" points="8.58636027 0 0 5.23854289 0.416975537 6 9 0.761457109"></polygon>
                        <polygon id="Fill-69" fill="#FFFFFF" points="78 22.7645332 69.4169755 28 69 27.2354668 77.5830245 22"></polygon>
                        <polygon id="Fill-70" fill="#FFFFFF" points="56 22.7614571 47.416821 28 47 27.2385429 55.583179 22"></polygon>
                        <polygon id="Fill-71" fill="#FFFFFF" points="32 22.7645332 23.4169755 28 23 27.2354668 31.5830245 22"></polygon>
                        <polygon id="Fill-72" fill="#FFFFFF" points="0 27.2354668 0.416975537 28 9 22.7645332 8.58636027 22"></polygon>
                    </g>
                </g>
            </g>
        </g>
    </g>
</svg>