<?xml version="1.0" encoding="UTF-8"?>
<svg width="140px" height="140px" viewBox="0 0 140 140" version="1.1" xmlns="http://www.w3.org/2000/svg" xmlns:xlink="http://www.w3.org/1999/xlink">
    <!-- Generator: sketchtool 61.2 (101010) - https://sketch.com -->
    <title>7D3DAED1-609F-4BB4-89FC-5AF06B9C2FBA@1x</title>
    <desc>Created with sketchtool.</desc>
    <defs>
        <rect id="path-1" x="0" y="0" width="140" height="140"></rect>
    </defs>
    <g id="Asset-Artboard-Page" stroke="none" stroke-width="1" fill="none" fill-rule="evenodd">
        <g id="element/developer/header">
            <g>
                <mask id="mask-2" fill="white">
                    <use xlink:href="#path-1"></use>
                </mask>
                <g id="Mask"></g>
                <g id="Group" mask="url(#mask-2)">
                    <g transform="translate(11.000000, -21.000000)">
                        <g id="015-cellphone" transform="translate(41.119965, 105.284991) scale(-1, 1) translate(-41.119965, -105.284991) translate(26.619965, 72.784991)">
                            <path d="M27.6346657,13.1047415 L4.9108277,0.134679133 C4.59593614,-0.0450269536 4.20798107,-0.0448929446 3.89349617,0.13508116 L0.651048466,1.98909586 L0.650506251,1.98936388 L0.650506251,1.98936388 C0.336292464,2.16893596 0.142857143,2.50047426 0.142857143,2.8593504 L0.142857143,51.02487 C0.142857143,51.3838802 0.336563571,51.7156865 0.65118402,51.8952586 L23.3690577,64.8653209 C23.5264357,64.955107 23.7019779,65 23.8775201,65 C24.0530623,65 24.385847,64.8653209 24.385847,64.8653209 L24.385847,64.8653209 L27.6316836,63.0126463 C27.9461685,62.8330743 28.1400104,62.5014019 28.1400104,62.1422578 L28.1428571,13.97513 C28.1428571,13.6161199 27.9491506,13.2843136 27.6346657,13.1047415 Z M4.40304303,2.16585375 L25.0930314,13.97513 L23.8805023,14.6672866 L3.19159842,2.85854634 L4.40304303,2.16585375 Z M22.8635775,21.482047 L2.17630021,9.67384274 L2.17630021,4.60026149 L22.8638486,16.4080637 L22.8635775,21.482047 Z M2.17630021,11.9950129 L22.8634419,23.8030831 L22.8615441,54.8442609 L2.17630021,43.0371288 L2.17630021,11.9950129 Z M2.17630021,50.444745 L2.17630021,45.3582989 L22.8614086,57.165297 L22.8611375,62.2538873 L2.17630021,50.444745 Z M24.894445,62.2540213 L24.8972916,16.4080637 L26.1096851,15.7160411 L26.106974,61.5619988 L24.894445,62.2540213 Z" id="Shape" fill="#FFFFFF" fill-rule="nonzero"></path>
                            <path d="M10.6250243,12.9440702 L13.6990598,14.8607161 C13.8505471,14.9551459 14.0158992,15 14.179069,15 C14.5119558,15 14.8359844,14.8128069 15.0140461,14.4784146 C15.2795339,13.98002 15.1214993,13.3431747 14.660747,13.0559972 L11.5867115,11.1392124 C11.1260876,10.8521738 10.5373414,11.0232583 10.2717252,11.5213751 C10.0061091,12.0200474 10.164272,12.6568927 10.6250243,12.9440702 Z" id="Path" fill="#FFFFFF" fill-rule="nonzero"></path>
                        </g>
                        <g id="Group-22" transform="translate(59.593860, 59.291832) rotate(-37.000000) translate(-59.593860, -59.291832) translate(17.093860, 18.291832)">
                            <rect id="Rectangle" fill="#36F2B9" transform="translate(42.392495, 34.809983) rotate(-323.000000) translate(-42.392495, -34.809983) " x="-4.10750469" y="26.3099826" width="93" height="17" rx="2"></rect>
                            <path d="M39.3940116,57.8418028 L49.3546322,77.7168887 C49.60208,78.2106377 49.4024135,78.8114964 48.9086645,79.0589442 C48.5918575,79.2177155 48.2146827,79.1969644 47.9172055,79.0043967 L39.0434152,73.2600743 C38.7127554,73.0460265 38.2872446,73.0460265 37.9565848,73.2600743 L29.0827945,79.0043967 C28.6191713,79.3045166 28.0000352,79.171971 27.6999153,78.7083478 C27.5073476,78.4108705 27.4865964,78.0336957 27.6453678,77.7168887 L37.6059884,57.8418028 C37.8534362,57.3480538 38.4542949,57.1483873 38.9480439,57.395835 C39.1409134,57.4924938 39.2973528,57.6489332 39.3940116,57.8418028 Z" id="Rectangle" fill="#36F2B9"></path>
                            <text id="DEVELOPER" transform="translate(42.114295, 34.709326) rotate(37.000000) translate(-42.114295, -34.709326) " font-family="Lato-Regular, Lato" font-size="11" font-weight="normal" line-spacing="25" letter-spacing="0.64625" fill="#FFFFFF">
                                <tspan x="7.61429492" y="33.2093262">DEVELOPER</tspan>
                            </text>
                        </g>
                    </g>
                </g>
            </g>
        </g>
    </g>
</svg>