<?xml version="1.0" encoding="UTF-8"?>
<svg width="58px" height="13px" viewBox="0 0 58 13" version="1.1" xmlns="http://www.w3.org/2000/svg" xmlns:xlink="http://www.w3.org/1999/xlink">
    <!-- Generator: sketchtool 63.1 (101010) - https://sketch.com -->
    <title>EC255E4A-1E97-47F1-8FDF-7B07C79D6366@1x</title>
    <desc>Created with sketchtool.</desc>
    <g id="UI" stroke="none" stroke-width="1" fill="none" fill-rule="evenodd">
        <g id="B.1.0---Competenze_mobile" transform="translate(-29.000000, -1897.000000)">
            <g id="Group-4" transform="translate(30.000000, 1847.000000)">
                <g id="Group-3">
                    <g id="element/competenze/deco" transform="translate(0.000000, 51.000000)">
                        <g id="Group-73-Copy-4">
                            <g transform="translate(28.000000, 6.000000) scale(1, -1) translate(-28.000000, -6.000000) ">
                                <polygon id="Fill-44" fill="#36F2B9" points="47 11.2385429 47.4166667 12 56 6.76145711 55.5833333 6"></polygon>
                                <polygon id="Stroke-45" stroke="#36F2B9" stroke-width="0.5" points="56 6.76145711 47.416821 12 47 11.2385429 55.583179 6"></polygon>
                                <polygon id="Fill-47" fill="#36F2B9" points="23 11.2350176 23.4169755 12 32 6.76145711 31.5863603 6"></polygon>
                                <polygon id="Stroke-48" stroke="#36F2B9" stroke-width="0.5" points="32 6.76453318 23.4169755 12 23 11.2354668 31.5830245 6"></polygon>
                                <polygon id="Fill-50" fill="#36F2B9" points="0 11.2350176 0.416975537 12 9 6.76145711 8.58636027 6"></polygon>
                                <polygon id="Stroke-51" stroke="#36F2B9" stroke-width="0.5" points="9 6.76453318 0.416975537 12 0 11.2354668 8.58302446 6"></polygon>
                                <polygon id="Fill-70" fill="#FFFFFF" points="56 0.761457109 47.416821 6 47 5.23854289 55.583179 0"></polygon>
                                <polygon id="Fill-71" fill="#FFFFFF" points="32 0.764533177 23.4169755 6 23 5.23546682 31.5830245 0"></polygon>
                                <polygon id="Fill-72" fill="#FFFFFF" points="0 5.23546682 0.416975537 6 9 0.764533177 8.58636027 0"></polygon>
                            </g>
                        </g>
                    </g>
                </g>
            </g>
        </g>
    </g>
</svg>