<?xml version="1.0" encoding="UTF-8"?>
<svg width="140px" height="130px" viewBox="0 0 140 130" version="1.1" xmlns="http://www.w3.org/2000/svg" xmlns:xlink="http://www.w3.org/1999/xlink">
    <!-- Generator: sketchtool 61.2 (101010) - https://sketch.com -->
    <title>33B60D82-69C3-42A8-94AF-EB212A1B2EA8</title>
    <desc>Created with sketchtool.</desc>
    <defs>
        <path d="M167,0 L167,33 L126,33 L126,106 L167,106 L167,158 L0,158 L0,0 L167,0 Z" id="path-1"></path>
    </defs>
    <g id="UI" stroke="none" stroke-width="1" fill="none" fill-rule="evenodd">
        <g id="A.1.0---Home" transform="translate(-186.000000, -146.000000)">
            <g id="title" transform="translate(159.000000, 132.000000)">
                <g id="deco">
                    <mask id="mask-2" fill="white">
                        <use xlink:href="#path-1"></use>
                    </mask>
                    <g id="Combined-Shape"></g>
                    <g id="Group-21" opacity="0.725353423" mask="url(#mask-2)">
                        <g transform="translate(28.000000, 15.000000)">
                            <g id="Group-73-Copy-3" transform="translate(120.586957, 19.000000) scale(1, -1) translate(-120.586957, -19.000000) translate(0.086957, 0.000000)">
                                <polygon id="Fill-10" fill="#36F2B9" points="138.995349 7.55692265 129.374377 13.4117647 128.906977 12.5607244 138.527948 6.70588235"></polygon>
                                <polygon id="Stroke-11" stroke="#36F2B9" stroke-width="0.5" points="138.995349 7.55692265 129.374377 13.4117647 128.906977 12.5607244 138.527948 6.70588235"></polygon>
                                <polygon id="Fill-12" fill="#36F2B9" points="112.093023 7.55692265 102.472052 13.4117647 102.004651 12.5607244 111.625623 6.70588235"></polygon>
                                <polygon id="Stroke-13" stroke="#36F2B9" stroke-width="0.5" points="112.093023 7.55692265 102.472052 13.4117647 102.004651 12.5607244 111.625623 6.70588235"></polygon>
                                <polygon id="Fill-14" fill="#36F2B9" points="87.4325581 7.55692265 77.8115865 13.4117647 77.344186 12.5607244 86.9651577 6.70588235"></polygon>
                                <polygon id="Stroke-15" stroke="#36F2B9" stroke-width="0.5" points="87.4325581 7.55692265 77.8115865 13.4117647 77.344186 12.5607244 86.9651577 6.70588235"></polygon>
                                <polygon id="Fill-16" fill="#36F2B9" points="62.772093 7.56036061 53.1509482 13.4117647 52.6837209 12.5612241 62.3048657 6.70588235"></polygon>
                                <polygon id="Stroke-17" stroke="#36F2B9" stroke-width="0.5" points="62.772093 7.56036061 53.1509482 13.4117647 52.6837209 12.5612241 62.3048657 6.70588235"></polygon>
                                <polygon id="Fill-18" fill="#36F2B9" points="35.8697674 7.55692265 26.2487958 13.4117647 25.7813953 12.5607244 35.402367 6.70588235"></polygon>
                                <polygon id="Stroke-19" stroke="#36F2B9" stroke-width="0.5" points="35.8697674 7.55692265 26.2487958 13.4117647 25.7813953 12.5607244 35.402367 6.70588235"></polygon>
                                <polygon id="Fill-20" fill="#36F2B9" points="0 12.5572864 0.467400486 13.4117647 10.0883721 7.56036061 9.62471081 6.70588235"></polygon>
                                <polygon id="Stroke-21" stroke="#36F2B9" stroke-width="0.5" points="10.0883721 7.55692265 0.467400486 13.4117647 0 12.5607244 9.62097161 6.70588235"></polygon>
                                <polygon id="Fill-35" fill="#36F2B9" points="128.906977 37.1450197 129.374377 38 138.995349 32.1451579 138.527948 31.2941176"></polygon>
                                <polygon id="Stroke-36" stroke="#36F2B9" stroke-width="0.5" points="138.995349 32.1485959 129.374377 38 128.906977 37.1455217 138.527948 31.2941176"></polygon>
                                <polygon id="Fill-38" fill="#36F2B9" points="102.004651 37.1450197 102.468312 38 112.093023 32.1451579 111.625623 31.2941176"></polygon>
                                <polygon id="Stroke-39" stroke="#36F2B9" stroke-width="0.5" points="112.093023 32.1485959 102.472052 38 102.004651 37.1455217 111.625623 31.2941176"></polygon>
                                <polygon id="Fill-41" fill="#36F2B9" points="77.344186 37.1450197 77.8078473 38 87.4325581 32.1451579 86.9651577 31.2941176"></polygon>
                                <polygon id="Stroke-42" stroke="#36F2B9" stroke-width="0.5" points="87.4325581 32.1485959 77.8115865 38 77.344186 37.1455217 86.9651577 31.2941176"></polygon>
                                <polygon id="Fill-44" fill="#36F2B9" points="52.6837209 37.1489597 53.1507752 38 62.772093 32.1451579 62.3050388 31.2941176"></polygon>
                                <polygon id="Stroke-45" stroke="#36F2B9" stroke-width="0.5" points="62.772093 32.1451579 53.1509482 38 52.6837209 37.1489597 62.3048657 31.2941176"></polygon>
                                <polygon id="Fill-47" fill="#36F2B9" points="25.7813953 37.1450197 26.2487958 38 35.8697674 32.1451579 35.4061062 31.2941176"></polygon>
                                <polygon id="Stroke-48" stroke="#36F2B9" stroke-width="0.5" points="35.8697674 32.1485959 26.2487958 38 25.7813953 37.1455217 35.402367 31.2941176"></polygon>
                                <polygon id="Fill-50" fill="#36F2B9" points="0 37.1450197 0.467400486 38 10.0883721 32.1451579 9.62471081 31.2941176"></polygon>
                                <polygon id="Stroke-51" stroke="#36F2B9" stroke-width="0.5" points="10.0883721 32.1485959 0.467400486 38 0 37.1455217 9.62097161 31.2941176"></polygon>
                                <polygon id="Fill-57" fill="#FFFFFF" points="138.527948 0 128.906977 5.85484205 129.374377 6.70588235 138.995349 0.851040299"></polygon>
                                <polygon id="Fill-58" fill="#FFFFFF" points="111.625623 0 102.004651 5.85484205 102.468312 6.70588235 112.093023 0.851040299"></polygon>
                                <polygon id="Fill-59" fill="#FFFFFF" points="86.9651577 0 77.344186 5.85484205 77.8078473 6.70588235 87.4325581 0.851040299"></polygon>
                                <polygon id="Fill-60" fill="#FFFFFF" points="62.2975659 0 52.6837209 5.8514041 53.1507752 6.70588235 62.772093 0.850540569 62.3050388 0"></polygon>
                                <polygon id="Fill-61" fill="#FFFFFF" points="35.4061062 0 25.7813953 5.85484205 26.2487958 6.70588235 35.8697674 0.851040299"></polygon>
                                <polygon id="Fill-62" fill="#FFFFFF" points="9.62471081 0 0 5.85484205 0.467400486 6.70588235 10.0883721 0.851040299"></polygon>
                                <polygon id="Fill-67" fill="#FFFFFF" points="138.995349 25.4427136 129.374377 31.2941176 128.906977 30.4396394 138.527948 24.5882353"></polygon>
                                <polygon id="Fill-68" fill="#FFFFFF" points="112.093023 25.4427136 102.472052 31.2941176 102.004651 30.4396394 111.625623 24.5882353"></polygon>
                                <polygon id="Fill-69" fill="#FFFFFF" points="87.4325581 25.4427136 77.8115865 31.2941176 77.344186 30.4396394 86.9651577 24.5882353"></polygon>
                                <polygon id="Fill-70" fill="#FFFFFF" points="62.772093 25.4392756 53.1509482 31.2941176 52.6837209 30.4430773 62.3048657 24.5882353"></polygon>
                                <polygon id="Fill-71" fill="#FFFFFF" points="35.8697674 25.4427136 26.2487958 31.2941176 25.7813953 30.4396394 35.402367 24.5882353"></polygon>
                                <polygon id="Fill-72" fill="#FFFFFF" points="0 30.4396394 0.467400486 31.2941176 10.0883721 25.4427136 9.62471081 24.5882353"></polygon>
                            </g>
                            <g id="Group-73-Copy-7" transform="translate(120.586957, 65.000000) scale(1, -1) translate(-120.586957, -65.000000) translate(0.086957, 46.000000)">
                                <polygon id="Fill-10" fill="#36F2B9" points="138.995349 7.55692265 129.374377 13.4117647 128.906977 12.5607244 138.527948 6.70588235"></polygon>
                                <polygon id="Stroke-11" stroke="#36F2B9" stroke-width="0.5" points="138.995349 7.55692265 129.374377 13.4117647 128.906977 12.5607244 138.527948 6.70588235"></polygon>
                                <polygon id="Fill-12" fill="#36F2B9" points="112.093023 7.55692265 102.472052 13.4117647 102.004651 12.5607244 111.625623 6.70588235"></polygon>
                                <polygon id="Stroke-13" stroke="#36F2B9" stroke-width="0.5" points="112.093023 7.55692265 102.472052 13.4117647 102.004651 12.5607244 111.625623 6.70588235"></polygon>
                                <polygon id="Fill-14" fill="#36F2B9" points="87.4325581 7.55692265 77.8115865 13.4117647 77.344186 12.5607244 86.9651577 6.70588235"></polygon>
                                <polygon id="Stroke-15" stroke="#36F2B9" stroke-width="0.5" points="87.4325581 7.55692265 77.8115865 13.4117647 77.344186 12.5607244 86.9651577 6.70588235"></polygon>
                                <polygon id="Fill-16" fill="#36F2B9" points="62.772093 7.56036061 53.1509482 13.4117647 52.6837209 12.5612241 62.3048657 6.70588235"></polygon>
                                <polygon id="Stroke-17" stroke="#36F2B9" stroke-width="0.5" points="62.772093 7.56036061 53.1509482 13.4117647 52.6837209 12.5612241 62.3048657 6.70588235"></polygon>
                                <polygon id="Fill-18" fill="#36F2B9" points="35.8697674 7.55692265 26.2487958 13.4117647 25.7813953 12.5607244 35.402367 6.70588235"></polygon>
                                <polygon id="Stroke-19" stroke="#36F2B9" stroke-width="0.5" points="35.8697674 7.55692265 26.2487958 13.4117647 25.7813953 12.5607244 35.402367 6.70588235"></polygon>
                                <polygon id="Fill-20" fill="#36F2B9" points="0 12.5572864 0.467400486 13.4117647 10.0883721 7.56036061 9.62471081 6.70588235"></polygon>
                                <polygon id="Stroke-21" stroke="#36F2B9" stroke-width="0.5" points="10.0883721 7.55692265 0.467400486 13.4117647 0 12.5607244 9.62097161 6.70588235"></polygon>
                                <polygon id="Fill-35" fill="#36F2B9" points="128.906977 37.1450197 129.374377 38 138.995349 32.1451579 138.527948 31.2941176"></polygon>
                                <polygon id="Stroke-36" stroke="#36F2B9" stroke-width="0.5" points="138.995349 32.1485959 129.374377 38 128.906977 37.1455217 138.527948 31.2941176"></polygon>
                                <polygon id="Fill-38" fill="#36F2B9" points="102.004651 37.1450197 102.468312 38 112.093023 32.1451579 111.625623 31.2941176"></polygon>
                                <polygon id="Stroke-39" stroke="#36F2B9" stroke-width="0.5" points="112.093023 32.1485959 102.472052 38 102.004651 37.1455217 111.625623 31.2941176"></polygon>
                                <polygon id="Fill-41" fill="#36F2B9" points="77.344186 37.1450197 77.8078473 38 87.4325581 32.1451579 86.9651577 31.2941176"></polygon>
                                <polygon id="Stroke-42" stroke="#36F2B9" stroke-width="0.5" points="87.4325581 32.1485959 77.8115865 38 77.344186 37.1455217 86.9651577 31.2941176"></polygon>
                                <polygon id="Fill-44" fill="#36F2B9" points="52.6837209 37.1489597 53.1507752 38 62.772093 32.1451579 62.3050388 31.2941176"></polygon>
                                <polygon id="Stroke-45" stroke="#36F2B9" stroke-width="0.5" points="62.772093 32.1451579 53.1509482 38 52.6837209 37.1489597 62.3048657 31.2941176"></polygon>
                                <polygon id="Fill-47" fill="#36F2B9" points="25.7813953 37.1450197 26.2487958 38 35.8697674 32.1451579 35.4061062 31.2941176"></polygon>
                                <polygon id="Stroke-48" stroke="#36F2B9" stroke-width="0.5" points="35.8697674 32.1485959 26.2487958 38 25.7813953 37.1455217 35.402367 31.2941176"></polygon>
                                <polygon id="Fill-50" fill="#36F2B9" points="0 37.1450197 0.467400486 38 10.0883721 32.1451579 9.62471081 31.2941176"></polygon>
                                <polygon id="Stroke-51" stroke="#36F2B9" stroke-width="0.5" points="10.0883721 32.1485959 0.467400486 38 0 37.1455217 9.62097161 31.2941176"></polygon>
                                <polygon id="Fill-57" fill="#FFFFFF" points="138.527948 0 128.906977 5.85484205 129.374377 6.70588235 138.995349 0.851040299"></polygon>
                                <polygon id="Fill-58" fill="#FFFFFF" points="111.625623 0 102.004651 5.85484205 102.468312 6.70588235 112.093023 0.851040299"></polygon>
                                <polygon id="Fill-59" fill="#FFFFFF" points="86.9651577 0 77.344186 5.85484205 77.8078473 6.70588235 87.4325581 0.851040299"></polygon>
                                <polygon id="Fill-60" fill="#FFFFFF" points="62.2975659 0 52.6837209 5.8514041 53.1507752 6.70588235 62.772093 0.850540569 62.3050388 0"></polygon>
                                <polygon id="Fill-61" fill="#FFFFFF" points="35.4061062 0 25.7813953 5.85484205 26.2487958 6.70588235 35.8697674 0.851040299"></polygon>
                                <polygon id="Fill-62" fill="#FFFFFF" points="9.62471081 0 0 5.85484205 0.467400486 6.70588235 10.0883721 0.851040299"></polygon>
                                <polygon id="Fill-67" fill="#FFFFFF" points="138.995349 25.4427136 129.374377 31.2941176 128.906977 30.4396394 138.527948 24.5882353"></polygon>
                                <polygon id="Fill-68" fill="#FFFFFF" points="112.093023 25.4427136 102.472052 31.2941176 102.004651 30.4396394 111.625623 24.5882353"></polygon>
                                <polygon id="Fill-69" fill="#FFFFFF" points="87.4325581 25.4427136 77.8115865 31.2941176 77.344186 30.4396394 86.9651577 24.5882353"></polygon>
                                <polygon id="Fill-70" fill="#FFFFFF" points="62.772093 25.4392756 53.1509482 31.2941176 52.6837209 30.4430773 62.3048657 24.5882353"></polygon>
                                <polygon id="Fill-71" fill="#FFFFFF" points="35.8697674 25.4427136 26.2487958 31.2941176 25.7813953 30.4396394 35.402367 24.5882353"></polygon>
                                <polygon id="Fill-72" fill="#FFFFFF" points="0 30.4396394 0.467400486 31.2941176 10.0883721 25.4427136 9.62471081 24.5882353"></polygon>
                            </g>
                            <g id="Group-73-Copy-7" transform="translate(120.586957, 110.000000) scale(1, -1) translate(-120.586957, -110.000000) translate(0.086957, 91.000000)">
                                <polygon id="Fill-14" fill="#36F2B9" points="87.4325581 7.55692265 77.8115865 13.4117647 77.344186 12.5607244 86.9651577 6.70588235"></polygon>
                                <polygon id="Stroke-15" stroke="#36F2B9" stroke-width="0.5" points="87.4325581 7.55692265 77.8115865 13.4117647 77.344186 12.5607244 86.9651577 6.70588235"></polygon>
                                <polygon id="Fill-16" fill="#36F2B9" points="62.772093 7.56036061 53.1509482 13.4117647 52.6837209 12.5612241 62.3048657 6.70588235"></polygon>
                                <polygon id="Stroke-17" stroke="#36F2B9" stroke-width="0.5" points="62.772093 7.56036061 53.1509482 13.4117647 52.6837209 12.5612241 62.3048657 6.70588235"></polygon>
                                <polygon id="Fill-18" fill="#36F2B9" points="35.8697674 7.55692265 26.2487958 13.4117647 25.7813953 12.5607244 35.402367 6.70588235"></polygon>
                                <polygon id="Stroke-19" stroke="#36F2B9" stroke-width="0.5" points="35.8697674 7.55692265 26.2487958 13.4117647 25.7813953 12.5607244 35.402367 6.70588235"></polygon>
                                <polygon id="Fill-20" fill="#36F2B9" points="0 12.5572864 0.467400486 13.4117647 10.0883721 7.56036061 9.62471081 6.70588235"></polygon>
                                <polygon id="Stroke-21" stroke="#36F2B9" stroke-width="0.5" points="10.0883721 7.55692265 0.467400486 13.4117647 0 12.5607244 9.62097161 6.70588235"></polygon>
                                <polygon id="Fill-35" fill="#36F2B9" points="128.906977 37.1450197 129.374377 38 138.995349 32.1451579 138.527948 31.2941176"></polygon>
                                <polygon id="Stroke-36" stroke="#36F2B9" stroke-width="0.5" points="138.995349 32.1485959 129.374377 38 128.906977 37.1455217 138.527948 31.2941176"></polygon>
                                <polygon id="Fill-38" fill="#36F2B9" points="102.004651 37.1450197 102.468312 38 112.093023 32.1451579 111.625623 31.2941176"></polygon>
                                <polygon id="Stroke-39" stroke="#36F2B9" stroke-width="0.5" points="112.093023 32.1485959 102.472052 38 102.004651 37.1455217 111.625623 31.2941176"></polygon>
                                <polygon id="Fill-41" fill="#36F2B9" points="77.344186 37.1450197 77.8078473 38 87.4325581 32.1451579 86.9651577 31.2941176"></polygon>
                                <polygon id="Stroke-42" stroke="#36F2B9" stroke-width="0.5" points="87.4325581 32.1485959 77.8115865 38 77.344186 37.1455217 86.9651577 31.2941176"></polygon>
                                <polygon id="Fill-44" fill="#36F2B9" points="52.6837209 37.1489597 53.1507752 38 62.772093 32.1451579 62.3050388 31.2941176"></polygon>
                                <polygon id="Stroke-45" stroke="#36F2B9" stroke-width="0.5" points="62.772093 32.1451579 53.1509482 38 52.6837209 37.1489597 62.3048657 31.2941176"></polygon>
                                <polygon id="Fill-47" fill="#36F2B9" points="25.7813953 37.1450197 26.2487958 38 35.8697674 32.1451579 35.4061062 31.2941176"></polygon>
                                <polygon id="Stroke-48" stroke="#36F2B9" stroke-width="0.5" points="35.8697674 32.1485959 26.2487958 38 25.7813953 37.1455217 35.402367 31.2941176"></polygon>
                                <polygon id="Fill-50" fill="#36F2B9" points="0 37.1450197 0.467400486 38 10.0883721 32.1451579 9.62471081 31.2941176"></polygon>
                                <polygon id="Stroke-51" stroke="#36F2B9" stroke-width="0.5" points="10.0883721 32.1485959 0.467400486 38 0 37.1455217 9.62097161 31.2941176"></polygon>
                                <polygon id="Fill-59" fill="#FFFFFF" points="86.9651577 0 77.344186 5.85484205 77.8078473 6.70588235 87.4325581 0.851040299"></polygon>
                                <polygon id="Fill-60" fill="#FFFFFF" points="62.2975659 0 52.6837209 5.8514041 53.1507752 6.70588235 62.772093 0.850540569 62.3050388 0"></polygon>
                                <polygon id="Fill-61" fill="#FFFFFF" points="35.4061062 0 25.7813953 5.85484205 26.2487958 6.70588235 35.8697674 0.851040299"></polygon>
                                <polygon id="Fill-62" fill="#FFFFFF" points="9.62471081 0 0 5.85484205 0.467400486 6.70588235 10.0883721 0.851040299"></polygon>
                                <polygon id="Fill-67" fill="#FFFFFF" points="138.995349 25.4427136 129.374377 31.2941176 128.906977 30.4396394 138.527948 24.5882353"></polygon>
                                <polygon id="Fill-68" fill="#FFFFFF" points="112.093023 25.4427136 102.472052 31.2941176 102.004651 30.4396394 111.625623 24.5882353"></polygon>
                                <polygon id="Fill-69" fill="#FFFFFF" points="87.4325581 25.4427136 77.8115865 31.2941176 77.344186 30.4396394 86.9651577 24.5882353"></polygon>
                                <polygon id="Fill-70" fill="#FFFFFF" points="62.772093 25.4392756 53.1509482 31.2941176 52.6837209 30.4430773 62.3048657 24.5882353"></polygon>
                                <polygon id="Fill-71" fill="#FFFFFF" points="35.8697674 25.4427136 26.2487958 31.2941176 25.7813953 30.4396394 35.402367 24.5882353"></polygon>
                                <polygon id="Fill-72" fill="#FFFFFF" points="0 30.4396394 0.467400486 31.2941176 10.0883721 25.4427136 9.62471081 24.5882353"></polygon>
                            </g>
                        </g>
                    </g>
                </g>
            </g>
        </g>
    </g>
</svg>