<?xml version="1.0" encoding="UTF-8"?>
<svg width="99px" height="34px" viewBox="0 0 99 34" version="1.1" xmlns="http://www.w3.org/2000/svg" xmlns:xlink="http://www.w3.org/1999/xlink">
    <!-- Generator: sketchtool 63.1 (101010) - https://sketch.com -->
    <title>2644C8CB-2109-48E1-AAB7-FEE870B17CC6@3x</title>
    <desc>Created with sketchtool.</desc>
    <g id="UI" stroke="none" stroke-width="1" fill="none" fill-rule="evenodd">
        <g id="A.3.0---404" transform="translate(-670.000000, -279.000000)">
            <g id="deco" transform="translate(720.000000, 296.500000) scale(1, -1) translate(-720.000000, -296.500000) translate(671.000000, 280.000000)">
                <polygon id="Fill-12" fill="#36F2B9" points="97.2093023 6.56259072 88.8658041 11.6470588 88.4604651 10.9079975 96.8039633 5.82352941"></polygon>
                <polygon id="Stroke-13" stroke="#36F2B9" stroke-width="0.5" points="97.2093023 6.56259072 88.8658041 11.6470588 88.4604651 10.9079975 96.8039633 5.82352941"></polygon>
                <polygon id="Fill-14" fill="#36F2B9" points="75.8232558 6.56259072 67.4797576 11.6470588 67.0744186 10.9079975 75.4179168 5.82352941"></polygon>
                <polygon id="Stroke-15" stroke="#36F2B9" stroke-width="0.5" points="75.8232558 6.56259072 67.4797576 11.6470588 67.0744186 10.9079975 75.4179168 5.82352941"></polygon>
                <polygon id="Fill-16" fill="#36F2B9" points="54.4372093 6.56557632 46.0935609 11.6470588 45.6883721 10.9084315 54.0320205 5.82352941"></polygon>
                <polygon id="Stroke-17" stroke="#36F2B9" stroke-width="0.5" points="54.4372093 6.56557632 46.0935609 11.6470588 45.6883721 10.9084315 54.0320205 5.82352941"></polygon>
                <polygon id="Fill-18" fill="#36F2B9" points="31.1069767 6.56259072 22.7634785 11.6470588 22.3581395 10.9079975 30.7016377 5.82352941"></polygon>
                <polygon id="Stroke-19" stroke="#36F2B9" stroke-width="0.5" points="31.1069767 6.56259072 22.7634785 11.6470588 22.3581395 10.9079975 30.7016377 5.82352941"></polygon>
                <polygon id="Fill-20" fill="#36F2B9" points="0 10.9050119 0.405339011 11.6470588 8.74883721 6.56557632 8.34674091 5.82352941"></polygon>
                <polygon id="Stroke-21" stroke="#36F2B9" stroke-width="0.5" points="8.74883721 6.56259072 0.405339011 11.6470588 0 10.9079975 8.3434982 5.82352941"></polygon>
                <polygon id="Fill-38" fill="#36F2B9" points="88.4604651 32.2575171 88.8625614 33 97.2093023 27.9155319 96.8039633 27.1764706"></polygon>
                <polygon id="Stroke-39" stroke="#36F2B9" stroke-width="0.5" points="97.2093023 27.9185175 88.8658041 33 88.4604651 32.2579531 96.8039633 27.1764706"></polygon>
                <polygon id="Fill-41" fill="#36F2B9" points="67.0744186 32.2575171 67.4765149 33 75.8232558 27.9155319 75.4179168 27.1764706"></polygon>
                <polygon id="Stroke-42" stroke="#36F2B9" stroke-width="0.5" points="75.8232558 27.9185175 67.4797576 33 67.0744186 32.2579531 75.4179168 27.1764706"></polygon>
                <polygon id="Fill-44" fill="#36F2B9" points="45.6883721 32.2609387 46.0934109 33 54.4372093 27.9155319 54.0321705 27.1764706"></polygon>
                <polygon id="Stroke-45" stroke="#36F2B9" stroke-width="0.5" points="54.4372093 27.9155319 46.0935609 33 45.6883721 32.2609387 54.0320205 27.1764706"></polygon>
                <polygon id="Fill-47" fill="#36F2B9" points="22.3581395 32.2575171 22.7634785 33 31.1069767 27.9155319 30.7048804 27.1764706"></polygon>
                <polygon id="Stroke-48" stroke="#36F2B9" stroke-width="0.5" points="31.1069767 27.9185175 22.7634785 33 22.3581395 32.2579531 30.7016377 27.1764706"></polygon>
                <polygon id="Fill-50" fill="#36F2B9" points="0 32.2575171 0.405339011 33 8.74883721 27.9155319 8.34674091 27.1764706"></polygon>
                <polygon id="Stroke-51" stroke="#36F2B9" stroke-width="0.5" points="8.74883721 27.9185175 0.405339011 33 0 32.2579531 8.3434982 27.1764706"></polygon>
                <polygon id="Fill-58" fill="#FFFFFF" points="96.8039633 0 88.4604651 5.0844681 88.8625614 5.82352941 97.2093023 0.739061312"></polygon>
                <polygon id="Fill-59" fill="#FFFFFF" points="75.4179168 0 67.0744186 5.0844681 67.4765149 5.82352941 75.8232558 0.739061312"></polygon>
                <polygon id="Fill-60" fill="#FFFFFF" points="54.0256899 0 45.6883721 5.0814825 46.0934109 5.82352941 54.4372093 0.738627336 54.0321705 0"></polygon>
                <polygon id="Fill-61" fill="#FFFFFF" points="30.7048804 0 22.3581395 5.0844681 22.7634785 5.82352941 31.1069767 0.739061312"></polygon>
                <polygon id="Fill-62" fill="#FFFFFF" points="8.34674091 0 0 5.0844681 0.405339011 5.82352941 8.74883721 0.739061312"></polygon>
                <polygon id="Fill-68" fill="#FFFFFF" points="97.2093023 22.0949881 88.8658041 27.1764706 88.4604651 26.4344237 96.8039633 21.3529412"></polygon>
                <polygon id="Fill-69" fill="#FFFFFF" points="75.8232558 22.0949881 67.4797576 27.1764706 67.0744186 26.4344237 75.4179168 21.3529412"></polygon>
                <polygon id="Fill-70" fill="#FFFFFF" points="54.4372093 22.0920025 46.0935609 27.1764706 45.6883721 26.4374093 54.0320205 21.3529412"></polygon>
                <polygon id="Fill-71" fill="#FFFFFF" points="31.1069767 22.0949881 22.7634785 27.1764706 22.3581395 26.4344237 30.7016377 21.3529412"></polygon>
                <polygon id="Fill-72" fill="#FFFFFF" points="0 26.4344237 0.405339011 27.1764706 8.74883721 22.0949881 8.34674091 21.3529412"></polygon>
            </g>
        </g>
    </g>
</svg>