<?xml version="1.0" encoding="UTF-8"?>
<svg width="187px" height="178px" viewBox="0 0 187 178" version="1.1" xmlns="http://www.w3.org/2000/svg" xmlns:xlink="http://www.w3.org/1999/xlink">
    <!-- Generator: sketchtool 62 (101010) - https://sketch.com -->
    <title>91CAB1FD-7C36-4B57-9220-96085B2D39ED@1x</title>
    <desc>Created with sketchtool.</desc>
    <defs>
        <rect id="path-1" x="0" y="0" width="222" height="192"></rect>
    </defs>
    <g id="UI" stroke="none" stroke-width="1" fill="none" fill-rule="evenodd">
        <g id="A.1.0---Home" transform="translate(-450.000000, -3500.000000)">
            <g id="case_acta" transform="translate(212.000000, 2963.000000)">
                <g id="photo">
                    <g id="paper_line" transform="translate(224.000000, 523.000000)">
                        <mask id="mask-2" fill="white">
                            <use xlink:href="#path-1"></use>
                        </mask>
                        <g id="Mask"></g>
                        <g id="Group-4" mask="url(#mask-2)">
                            <g transform="translate(10.000000, 14.000000)">
                                <path d="M30.8852042,63.5404478 L21.2603705,76.4605921 C12.3520702,88.4188793 14.8245731,105.334591 26.7828603,114.242891 C28.7542973,115.711509 30.9170699,116.904005 33.2112254,117.787324 L238.708603,196.910019 L238.708603,196.910019" id="Path-6" stroke="#36F2B9" stroke-dasharray="4,4"></path>
                                <g id="paper-plane" stroke="none" fill-rule="evenodd" transform="translate(4.000000, 0.000000)">
                                    <path d="M82.9892885,1.15801168 C82.9825938,1.10600827 82.9678655,1.0566717 82.9558151,1.00466829 L82.9477815,0.968665924 C82.9397479,0.939330665 82.9477815,0.909995407 82.9330532,0.880660149 L82.9250196,0.864659099 C82.9010861,0.812489008 82.8743074,0.761819017 82.8446835,0.712649123 C82.8299552,0.685980707 82.8286162,0.655312028 82.812549,0.628643611 C82.7964818,0.601975194 82.7804145,0.597974932 82.7683641,0.57930704 C82.7476106,0.54380471 82.7248487,0.509469124 82.7000784,0.476633636 C82.6732997,0.444631536 82.6384874,0.421963382 82.6090308,0.392628123 C82.5795742,0.363292865 82.5648459,0.351292077 82.542084,0.331290765 C82.5193221,0.311289452 82.4818319,0.268619986 82.4470195,0.24328499 C82.4349691,0.235284465 82.4282744,0.223283677 82.416224,0.215283152 C82.4041736,0.207282627 82.3787338,0.200615523 82.3613277,0.189948156 C82.2540454,0.140111553 82.1464285,0.0907749817 82.0386442,0.0419384437 C82.0105265,0.0352713395 81.9810699,0.0419384437 81.9529523,0.031271077 C81.8977212,0.0207703879 81.8418206,0.0136032509 81.7855853,0.00993634363 C81.7248311,0.00210249622 81.6634074,-0.000897700655 81.6021511,0.00022890237 C81.5616483,0.00476933789 81.5214802,0.0109364093 81.4816469,0.0192702895 C81.4521903,0.0192702895 81.4227337,0.0192702895 81.3932771,0.0192702895 L1.05713422,17.3537411 C0.3342763,17.508918 -0.125480752,18.2182979 0.0303378924,18.9381784 C0.120548686,19.3552058 0.405741994,19.7038954 0.79738069,19.8765734 L24.2073327,30.2372532 L26.7914787,50.8252709 C26.7914787,50.8492725 26.8075459,50.8692738 26.8115627,50.8932754 C26.8254542,50.959113 26.8441993,51.0236173 26.867798,51.0866214 C26.8927357,51.1629598 26.9240333,51.2369646 26.9615235,51.3079693 C26.9934906,51.3619728 27.0293071,51.4136429 27.0686384,51.4626461 C27.121359,51.5308172 27.1801048,51.5941547 27.2440389,51.6519918 C27.2681398,51.6719932 27.2828681,51.7013284 27.3083079,51.7199963 C27.3337476,51.7386642 27.36856,51.7493316 27.3966776,51.7679995 C27.4611139,51.8086688 27.5287301,51.8438378 27.5988569,51.8733397 C27.6629585,51.9011749 27.7292358,51.923843 27.7970194,51.9413442 C27.8304928,51.9493447 27.8586104,51.9680126 27.8934228,51.9746797 C27.96606,51.9865138 28.0393668,51.9928475 28.1130082,51.9933476 C28.2591196,51.9906807 28.4037246,51.9645124 28.5414676,51.9160092 C28.5802968,51.902675 28.616448,51.8826736 28.6552772,51.8653392 C28.7578731,51.8200029 28.8541091,51.7618324 28.9418094,51.6919945 C28.9618935,51.67466 28.9886722,51.6693263 29.0087562,51.6506584 L42.0874803,39.9285559 L67.5714438,55.7962638 C68.1980657,56.1872895 69.0243564,55.9986104 69.4169993,55.3745695 C69.4906407,55.2575618 69.5455371,55.1300534 69.5798473,54.9962113 L82.9692045,1.65937792 C82.9698739,1.64654374 82.9698739,1.63354289 82.9692045,1.62070871 C82.978577,1.57670582 82.9758992,1.53136952 82.9812549,1.48736663 C82.9921338,1.42752937 82.9984937,1.36685872 83,1.30602139 C83,1.25651815 82.9963179,1.2070149 82.9892885,1.15801168 Z M25.4016634,27.8504299 L5.6188882,19.0965222 L71.5507607,4.87158871 L25.4016634,27.8504299 Z M28.8936077,46.1262959 L26.8852042,30.0972441 L68.2435895,9.49989242 L35.3539726,33.5841395 C35.3432611,33.5921401 35.3298717,33.6081411 35.3164824,33.6188085 C35.2963983,33.6348095 35.28167,33.6534774 35.261586,33.6708119 C35.1400776,33.7759855 35.0388206,33.9026604 34.9630033,34.0441697 C34.9630033,34.0521702 34.9522919,34.0561705 34.948275,34.0628376 L28.8936077,46.1262959 Z M32.4725829,44.9582193 L36.6821968,36.5670019 L39.7215809,38.4591261 L32.4725829,44.9582193 Z M67.4281776,52.558718 L42.6578669,37.1377061 L38.5299281,34.5695375 L73.1735508,9.19987274 L79.4665486,4.58890349 L67.4281776,52.558718 Z" id="Shape" fill="#36F2B9" fill-rule="nonzero"></path>
                                </g>
                            </g>
                        </g>
                    </g>
                </g>
            </g>
        </g>
    </g>
</svg>