<?xml version="1.0" encoding="UTF-8"?>
<svg width="64px" height="64px" viewBox="0 0 64 64" version="1.1" xmlns="http://www.w3.org/2000/svg" xmlns:xlink="http://www.w3.org/1999/xlink">
    <!-- Generator: sketchtool 62 (101010) - https://sketch.com -->
    <title>510C1073-E743-4B54-A538-811D29596945</title>
    <desc>Created with sketchtool.</desc>
    <defs>
        <rect id="path-1" x="0" y="0" width="51.2" height="51.2"></rect>
        <polygon id="path-3" points="0.368128 0.0006144 38.768128 0.0006144 38.768128 42.4966144 0.368128 42.4966144"></polygon>
        <polygon id="path-5" points="0.2942976 0.190464 14.821632 0.190464 14.821632 16.317696 0.2942976 16.317696"></polygon>
    </defs>
    <g id="Asset-Artboard-Page" stroke="none" stroke-width="1" fill="none" fill-rule="evenodd">
        <g id="icon/day_1-copy">
            <g id="icon/advantage/2" transform="translate(6.000000, 6.000000)">
                <mask id="mask-2" fill="white">
                    <use xlink:href="#path-1"></use>
                </mask>
                <g id="Mask"></g>
                <g id="Group" mask="url(#mask-2)">
                    <g transform="translate(11.776000, 27.648000)">
                        <polygon id="Stroke-2" stroke="#7878F9" stroke-width="0.5" fill="none" points="31.744 11.653866 27.3494915 14.336 27.136 13.946134 31.5305085 11.264"></polygon>
                        <polygon id="Stroke-5" stroke="#7878F9" stroke-width="0.5" fill="none" points="19.968 11.653866 15.5734915 14.336 15.36 13.946134 19.7545085 11.264"></polygon>
                        <polygon id="Stroke-7" stroke="#7878F9" stroke-width="0.5" fill="none" points="7.68 11.653866 3.28549148 14.336 3.072 13.946134 7.46650852 11.264"></polygon>
                        <polygon id="Stroke-24" stroke="#7878F9" stroke-width="0.5" fill="none" points="31.744 0.391440986 27.3494915 3.072 27.136 2.68055901 31.5305085 5.7909233e-14"></polygon>
                        <polygon id="Stroke-27" stroke="#7878F9" stroke-width="0.5" fill="none" points="16.896 0.391440986 12.5014915 3.072 12.288 2.68055901 16.6825085 5.7909233e-14"></polygon>
                        <polygon id="Stroke-30" stroke="#7878F9" stroke-width="0.5" fill="none" points="4.608 0.391440986 0.213491475 3.072 8.14637247e-13 2.68055901 4.39450852 5.7909233e-14"></polygon>
                        <polygon id="Fill-53" stroke="none" fill="#FFFFFF" fill-rule="evenodd" points="28.4585085 14.336 24.064 17.018134 24.2774915 17.408 28.672 14.725866"></polygon>
                        <polygon id="Fill-54" stroke="none" fill="#FFFFFF" fill-rule="evenodd" points="16.6825085 14.336 12.288 17.018134 12.5014915 17.408 16.896 14.725866"></polygon>
                        <polygon id="Fill-55" stroke="none" fill="#FFFFFF" fill-rule="evenodd" points="4.39450852 14.336 8.14637247e-13 17.018134 0.213491475 17.408 4.608 14.725866"></polygon>
                        <polygon id="Fill-63" stroke="none" fill="#FFFFFF" fill-rule="evenodd" points="24.064 5.75255901 24.2774915 6.144 28.672 3.46344099 28.4585085 3.072"></polygon>
                        <polygon id="Fill-64" stroke="none" fill="#FFFFFF" fill-rule="evenodd" points="16.896 3.46344099 12.5014915 6.144 12.288 5.75255901 16.6825085 3.072"></polygon>
                        <polygon id="Fill-65" stroke="none" fill="#FFFFFF" fill-rule="evenodd" points="4.608 3.46344099 0.213491475 6.144 8.14637247e-13 5.75255901 4.39450852 3.072"></polygon>
                    </g>
                </g>
                <g id="Group-13-Copy" mask="url(#mask-2)">
                    <g transform="translate(4.608000, 4.608000)" id="Group-10">
                        <g>
                            <mask id="mask-4" fill="white">
                                <use xlink:href="#path-3"></use>
                            </mask>
                            <g id="Clip-2"></g>
                            <g id="Group-6" mask="url(#mask-4)">
                                <g transform="translate(0.512000, 9.728000)">
                                    <g id="Group-3" stroke-width="1" fill="none" transform="translate(23.040000, 7.889434)">
                                        <mask id="mask-6" fill="white">
                                            <use xlink:href="#path-5"></use>
                                        </mask>
                                        <g id="Clip-2"></g>
                                        <path d="M14.1766656,1.181952 L14.2450176,1.145856 L14.2404096,10.046976 L14.2381056,10.277376 C14.2281216,10.560768 14.1797376,10.821888 14.0914176,11.076096 C13.7757696,11.977728 13.0123776,12.782592 11.8227456,13.469184 C10.9057536,13.998336 9.9288576,14.428416 8.9197056,14.747136 C7.9021056,15.066624 6.7593216,15.308544 5.5236096,15.465216 C4.2763776,15.624192 2.8079616,15.715584 1.1582976,15.737088 C0.9102336,15.740928 0.6191616,15.741696 0.2942976,15.740928 L0.2942976,16.316928 C0.3480576,16.316928 0.4102656,16.317696 0.4617216,16.317696 C0.7228416,16.317696 0.9578496,16.31616 1.1659776,16.313088 C2.8371456,16.291584 4.3278336,16.198656 5.5965696,16.036608 C6.8660736,15.875328 8.0418816,15.626496 9.0925056,15.296256 C10.1423616,14.965248 11.1576576,14.518272 12.1107456,13.968384 C13.4232576,13.210368 14.2726656,12.301824 14.6351616,11.265792 C14.7196416,11.022336 14.7741696,10.775808 14.7995136,10.516224 L14.8171776,10.120704 L14.8164096,10.04928 L14.8217856,0.190464 L14.1766656,1.181952 Z" id="Fill-1" fill="#7878F9" mask="url(#mask-6)"></path>
                                    </g>
                                    <path d="M24.198912,13.8240768 C22.553856,13.8478848 19.171584,13.7779968 14.145792,13.6205568 L14.064384,13.6182528 L13.396992,14.0030208 L22.470912,19.2423168 L21.884928,19.5794688 L17.697792,21.9979008 L3.212544,13.6351488 L0.864768,12.2788608 L4.631808,10.1038848 L16.3392,10.0662528 C19.751424,10.0224768 22.066944,9.9633408 23.22048,9.8903808 C24.384768,9.8166528 25.316352,9.7037568 25.988352,9.5524608 C26.677248,9.3980928 27.292416,9.1661568 27.81696,8.8627968 C28.544256,8.4434688 28.885248,7.9450368 28.829184,7.3813248 C28.775424,6.8368128 28.347648,6.3406848 27.522048,5.8629888 C26.740224,5.4121728 25.718784,5.0811648 24.486912,4.8807168 C23.342592,4.6948608 21.91488,4.5612288 20.24064,4.4844288 L20.769792,0.5922048 C22.96704,0.6697728 24.712704,0.8110848 25.961472,1.0107648 C27.257088,1.2188928 28.532736,1.5368448 29.753088,1.9561728 C30.97344,2.3755008 32.206848,2.9430528 33.41952,3.6434688 C34.926336,4.5136128 36.017664,5.4505728 36.661248,6.4274688 C37.287936,7.3767168 37.442304,8.2722048 37.131264,9.1630848 C36.816384,10.0639488 36.052992,10.8695808 34.86336,11.5561728 C33.9456,12.0853248 32.968704,12.5154048 31.959552,12.8341248 C30.94272,13.1536128 29.799936,13.3947648 28.564224,13.5522048 C27.316992,13.7111808 25.847808,13.8025728 24.198912,13.8240768 L24.198912,13.8240768 Z M17.409792,24.7842048 L17.409024,31.6339968 L0.576,21.9149568 L0.576768,12.7780608 L17.409792,22.4971008 L17.409792,24.7842048 Z M37.142016,6.1102848 C36.448512,5.0581248 35.292672,4.0597248 33.70752,3.1442688 C32.462592,2.4254208 31.195392,1.8425088 29.94048,1.4116608 C28.68864,0.9815808 27.380736,0.6559488 26.052864,0.4424448 C24.731136,0.2304768 22.872576,0.0837888 20.52864,0.0085248 L20.269056,7.68e-05 L19.584768,5.0327808 L19.900416,5.0458368 C21.689088,5.1195648 23.20128,5.2555008 24.394752,5.4498048 C25.557504,5.6387328 26.512896,5.9459328 27.234048,6.3614208 C27.869184,6.7292928 28.222464,7.1010048 28.256256,7.4389248 C28.287744,7.7561088 28.042752,8.0671488 27.52896,8.3643648 C27.054336,8.6377728 26.493696,8.8482048 25.8624,8.9902848 C25.219584,9.1354368 24.317952,9.2437248 23.184384,9.3159168 C22.040064,9.3881088 19.734528,9.4464768 16.334592,9.4902528 L4.553472,9.5278848 L4.476672,9.5278848 L0.000768,12.1122048 L0,22.2482688 L17.697024,32.4649728 L23.334144,29.2109568 L23.334912,19.0756608 L14.926848,14.2219008 C19.577856,14.3624448 22.616064,14.4200448 24.206592,14.4000768 C24.949248,14.3900928 25.649664,14.3639808 26.317056,14.3263488 L26.317056,23.8434048 L30.8736,23.3572608 L35.1936,21.5970048 L37.077504,19.7407488 L37.565952,18.1771008 L37.573632,9.5985408 C37.608192,9.5171328 37.645824,9.4357248 37.675008,9.3527808 C38.043648,8.2952448 37.864704,7.2039168 37.142016,6.1102848 L37.142016,6.1102848 Z" id="Fill-4" fill="#7878F9"></path>
                                </g>
                            </g>
                        </g>
                    </g>
                </g>
            </g>
        </g>
    </g>
</svg>