<?xml version="1.0" encoding="UTF-8"?>
<svg width="128px" height="128px" viewBox="0 0 128 128" version="1.1" xmlns="http://www.w3.org/2000/svg" xmlns:xlink="http://www.w3.org/1999/xlink">
    <!-- Generator: sketchtool 61.2 (101010) - https://sketch.com -->
    <title>5FA6FCF9-6A53-4341-9958-08AB72437019@1x</title>
    <desc>Created with sketchtool.</desc>
    <defs>
        <rect id="path-1" x="0" y="0" width="128" height="128"></rect>
    </defs>
    <g id="Asset-Artboard-Page" stroke="none" stroke-width="1" fill="none" fill-rule="evenodd">
        <g id="icon/digital">
            <g>
                <mask id="mask-2" fill="white">
                    <use xlink:href="#path-1"></use>
                </mask>
                <g id="Mask"></g>
                <g id="Group-14" mask="url(#mask-2)">
                    <g transform="translate(8.000000, 6.000000)">
                        <g id="009-networking" transform="translate(26.000000, 0.000000)">
                            <path d="M80.6660156,45.6978515 L80.6660156,45.6969726 L71.7793945,40.5703125 C69.3386719,39.4910156 66.2888673,39.7696288 62.9789063,41.6803711 C54.9685548,46.3051757 48.4760743,58.7109375 48.4760743,69.3905274 C48.4760743,75.2422851 50.428125,79.3555664 53.5078125,81.1230469 L62.4691406,86.3094726 L62.4708986,86.305957 C64.9977539,87.6990235 68.2655274,87.5329101 71.8356445,85.471875 C79.8451173,80.8470702 86.3384765,68.4413087 86.3384765,57.7617188 C86.3384765,51.5126952 84.1148438,47.241211 80.6660156,45.6978515 Z" id="Path" stroke="#7878F9" stroke-width="2.025" fill-rule="nonzero"></path>
                            <path d="M56.6581958,36.1844906 L64.1003906,48.0427736 C64.7938476,49.1475587 64.4598632,50.605664 63.3550781,51.2991212 C62.9657226,51.543457 62.530664,51.6603515 62.1026368,51.6603515 C61.3168945,51.6603515 60.5478515,51.2683594 60.0996094,50.5538087 L53.7681958,40.4664906 L56.6581958,36.1844906 Z" id="Combined-Shape" fill="#7878F9" fill-rule="nonzero"></path>
                            <path d="M86.3384764,57.7617188 C86.3384764,68.4413087 79.8451173,80.8470702 71.8356445,85.471875 C63.825293,90.0966798 57.3328125,85.1871094 57.3328125,74.5083986 C57.3328125,63.8288087 63.825293,51.422168 71.8356445,46.7973632 C79.8451173,42.1734375 86.3384764,47.0821289 86.3384764,57.7617188 Z M80.0929687,61.3669923 C80.0929687,55.2858399 76.3962889,52.490918 71.8356445,55.1241212 C67.2741211,57.7573243 63.5774413,64.8210938 63.5774413,70.9022462 C63.5774413,76.9833986 67.2741211,79.7783202 71.8356445,77.1451173 C76.3962889,74.511914 80.0929687,67.4481445 80.0929687,61.3669923 Z" id="Combined-Shape" stroke="#7878F9" stroke-width="2.25" fill-rule="nonzero"></path>
                            <path d="M34.230575,43.7558002 L38.457575,45.9478002 L29.078575,71.3961149 L24.940575,68.9651149 L34.230575,43.7558002 Z" id="Combined-Shape" fill="#7878F9" fill-rule="nonzero"></path>
                            <path d="M56.9258789,6.00205072 L56.9276368,5.9985351 L48.0410156,0.871875 C45.5229493,-0.4842774 42.280664,-0.304980525 38.7404298,1.73847645 C30.730957,6.36328125 24.2375976,18.769043 24.2375976,29.4486327 C24.2375976,35.6414062 26.4234375,39.5560548 29.8195313,41.465918 L37.4950195,45.8982423 C40.1071289,47.7711914 43.669336,47.7975586 47.597168,45.5299805 C55.6066406,40.9051757 62.1,28.4985351 62.1,17.8198243 C62.1,11.8775389 60.0890625,7.72294927 56.9258789,6.00205072 Z" id="Path" stroke="#7878F9" stroke-width="2.25" fill-rule="nonzero"></path>
                            <path d="M32.2444336,73.7094726 L23.3578125,68.5836913 C20.9074219,67.4753906 17.8374024,67.7425781 14.502832,69.6682618 C6.49335937,74.2921875 0,86.6988281 0,97.378418 C0,103.262695 1.97402355,107.390039 5.08359375,109.14082 L5.08183605,109.146094 C5.08183605,109.146094 13.9289063,114.257812 14.0466798,114.321973 L14.0475587,114.321973 C16.5665039,115.684277 19.8140625,115.505859 23.3595702,113.459766 C31.369043,108.834961 37.8624024,96.4283202 37.8624024,85.7487305 C37.8624024,79.5339844 35.6616212,75.2739257 32.2444336,73.7094726 Z" id="Path" stroke="#7878F9" stroke-width="2.25" fill-rule="nonzero"></path>
                            <path d="M62.1,17.8198243 C62.1,28.499414 55.6066406,40.9051757 47.597168,45.5299805 C39.5876952,50.1539063 33.094336,45.2452149 33.094336,34.565625 C33.094336,23.8860351 39.5876952,11.4802736 47.597168,6.85546875 C55.6066406,2.23154303 62.1,7.14023438 62.1,17.8198243 Z M55.8553711,21.4250976 C55.8553711,15.3439452 52.1578125,12.5490236 47.597168,15.1822265 C43.0365235,17.8154298 39.3389649,24.8791993 39.3389649,30.9603515 C39.3389649,37.0415039 43.0365235,39.8364257 47.597168,37.2032226 C52.1578125,34.5700195 55.8553711,27.50625 55.8553711,21.4250976 Z" id="Combined-Shape" stroke="#7878F9" stroke-width="2.25" fill-rule="nonzero"></path>
                            <path d="M37.8624024,85.7496094 C37.8624024,96.4291993 31.369043,108.834961 23.3595702,113.459766 C15.3492188,118.083691 8.85673823,113.175 8.85673823,102.49541 C8.85673823,91.8158202 15.3492188,79.4100587 23.3595702,74.7852539 C31.369043,70.1613281 37.8624024,75.0700195 37.8624024,85.7496094 Z M31.6168945,89.3548827 C31.6168945,83.2737305 27.9202149,80.4788087 23.3595702,83.1120118 C18.7989257,85.7443361 15.1013673,92.8089844 15.1013673,98.8901368 C15.1013673,104.971289 18.7989257,107.766211 23.3595702,105.133008 C27.9202149,102.499805 31.6168945,95.4360351 31.6168945,89.3548827 Z" id="Combined-Shape" stroke="#7878F9" stroke-width="2.25" fill-rule="nonzero"></path>
                        </g>
                        <g id="007-arrow" transform="translate(0.000000, 35.000000)">
                            <polygon id="Path" stroke="#7878F9" stroke-width="1.7" fill-rule="nonzero" points="0.016 9.176 0 13.848 8.128 15.712 0.472 20.168 0.456 24.84 6.328 28.224 19.736 20.424 25.296 28.448 40.944 4.704 40.96 0.032"></polygon>
                            <path d="M40.944,4.704 L25.296,28.448 L19.736,20.424 L6.328,28.224 L0.456,24.84 L0.472,20.169 L0.472,20.168 L13.888,12.368 L2.19930228,8.86909086 L40.96,0.032 L40.944,4.704 Z" id="Combined-Shape" stroke="#7878F9" stroke-width="1.6" fill-rule="nonzero"></path>
                            <polygon id="Path" stroke="#7878F9" stroke-width="1.7" fill-rule="nonzero" points="25.304 23.776 19.752 15.752 6.328 23.552 0.456 20.9700191 0.456 24.84 6.328 28.224 19.736 20.424 25.296 28.448 40.944 4.704 40.4244261 1.19255808"></polygon>
                        </g>
                    </g>
                </g>
            </g>
        </g>
    </g>
</svg>