<?xml version="1.0" encoding="UTF-8"?>
<svg width="100px" height="100px" viewBox="0 0 100 100" version="1.1" xmlns="http://www.w3.org/2000/svg" xmlns:xlink="http://www.w3.org/1999/xlink">
    <!-- Generator: sketchtool 61.2 (101010) - https://sketch.com -->
    <title>FB8B9AB0-5738-4FBC-AB40-C55A903DC26B@1x</title>
    <desc>Created with sketchtool.</desc>
    <defs>
        <rect id="path-1" x="0" y="0" width="100" height="100"></rect>
        <polygon id="path-3" points="0.719 0.0012 75.719 0.0012 75.719 83.0012 0.719 83.0012"></polygon>
        <polygon id="path-5" points="0.5748 0.372 28.9485 0.372 28.9485 31.8705 0.5748 31.8705"></polygon>
    </defs>
    <g id="Asset-Artboard-Page" stroke="none" stroke-width="1" fill="none" fill-rule="evenodd">
        <g id="icon/advantage/2">
            <g>
                <mask id="mask-2" fill="white">
                    <use xlink:href="#path-1"></use>
                </mask>
                <g id="Mask"></g>
                <g id="Group-13-Copy" mask="url(#mask-2)">
                    <g transform="translate(9.000000, 9.000000)" id="Group-10">
                        <g>
                            <polygon id="Stroke-2" stroke="#36F2B9" stroke-width="0.5" points="82 66.7614571 73.4169755 72 73 71.2385429 81.5830245 66"></polygon>
                            <polygon id="Stroke-5" stroke="#36F2B9" stroke-width="0.5" points="59 66.7614571 50.4169755 72 50 71.2385429 58.5830245 66"></polygon>
                            <polygon id="Stroke-7" stroke="#36F2B9" stroke-width="0.5" points="35 66.7614571 26.4169755 72 26 71.2385429 34.5830245 66"></polygon>
                            <polygon id="Stroke-24" stroke="#36F2B9" stroke-width="0.5" points="82 44.7645332 73.4169755 50 73 49.2354668 81.5830245 44"></polygon>
                            <polygon id="Stroke-27" stroke="#36F2B9" stroke-width="0.5" points="53 44.7645332 44.4169755 50 44 49.2354668 52.5830245 44"></polygon>
                            <polygon id="Stroke-30" stroke="#36F2B9" stroke-width="0.5" points="29 44.7645332 20.4169755 50 20 49.2354668 28.5830245 44"></polygon>
                            <polygon id="Fill-53" fill="#FFFFFF" points="75.5830245 72 67 77.2385429 67.4169755 78 76 72.7614571"></polygon>
                            <polygon id="Fill-54" fill="#FFFFFF" points="52.5830245 72 44 77.2385429 44.4169755 78 53 72.7614571"></polygon>
                            <polygon id="Fill-55" fill="#FFFFFF" points="28.5830245 72 20 77.2385429 20.4169755 78 29 72.7614571"></polygon>
                            <polygon id="Fill-63" fill="#FFFFFF" points="67 55.2354668 67.4169755 56 76 50.7645332 75.5830245 50"></polygon>
                            <polygon id="Fill-64" fill="#FFFFFF" points="53 50.7645332 44.4169755 56 44 55.2354668 52.5830245 50"></polygon>
                            <polygon id="Fill-65" fill="#FFFFFF" points="29 50.7645332 20.4169755 56 20 55.2354668 28.5830245 50"></polygon>
                            <mask id="mask-4" fill="white">
                                <use xlink:href="#path-3"></use>
                            </mask>
                            <g id="Clip-2"></g>
                            <g id="Group-6" mask="url(#mask-4)">
                                <g transform="translate(1.000000, 19.000000)">
                                    <g id="Group-3" stroke-width="1" fill="none" transform="translate(45.000000, 15.409050)">
                                        <mask id="mask-6" fill="white">
                                            <use xlink:href="#path-5"></use>
                                        </mask>
                                        <g id="Clip-2"></g>
                                        <path d="M27.6888,2.3085 L27.8223,2.238 L27.8133,19.623 L27.8088,20.073 C27.7893,20.6265 27.6948,21.1365 27.5223,21.633 C26.9058,23.394 25.4148,24.966 23.0913,26.307 C21.3003,27.3405 19.3923,28.1805 17.4213,28.803 C15.4338,29.427 13.2018,29.8995 10.7883,30.2055 C8.3523,30.516 5.4843,30.6945 2.2623,30.7365 C1.7778,30.744 1.2093,30.7455 0.5748,30.744 L0.5748,31.869 C0.6798,31.869 0.8013,31.8705 0.9018,31.8705 C1.4118,31.8705 1.8708,31.8675 2.2773,31.8615 C5.5413,31.8195 8.4528,31.638 10.9308,31.3215 C13.4103,31.0065 15.7068,30.5205 17.7588,29.8755 C19.8093,29.229 21.7923,28.356 23.6538,27.282 C26.2173,25.8015 27.8763,24.027 28.5843,22.0035 C28.7493,21.528 28.8558,21.0465 28.9053,20.5395 L28.9398,19.767 L28.9383,19.6275 L28.9488,0.372 L27.6888,2.3085 Z" id="Fill-1" fill="#7878F9" mask="url(#mask-6)"></path>
                                    </g>
                                    <path d="M47.2635,27.00015 C44.0505,27.04665 37.4445,26.91015 27.6285,26.60265 L27.4695,26.59815 L26.166,27.34965 L43.8885,37.58265 L42.744,38.24115 L34.566,42.96465 L6.2745,26.63115 L1.689,23.98215 L9.0465,19.73415 L31.9125,19.66065 C38.577,19.57515 43.0995,19.45965 45.3525,19.31715 C47.6265,19.17315 49.446,18.95265 50.7585,18.65715 C52.104,18.35565 53.3055,17.90265 54.33,17.31015 C55.7505,16.49115 56.4165,15.51765 56.307,14.41665 C56.202,13.35315 55.3665,12.38415 53.754,11.45115 C52.227,10.57065 50.232,9.92415 47.826,9.53265 C45.591,9.16965 42.8025,8.90865 39.5325,8.75865 L40.566,1.15665 C44.8575,1.30815 48.267,1.58415 50.706,1.97415 C53.2365,2.38065 55.728,3.00165 58.1115,3.82065 C60.495,4.63965 62.904,5.74815 65.2725,7.11615 C68.2155,8.81565 70.347,10.64565 71.604,12.55365 C72.828,14.40765 73.1295,16.15665 72.522,17.89665 C71.907,19.65615 70.416,21.22965 68.0925,22.57065 C66.3,23.60415 64.392,24.44415 62.421,25.06665 C60.435,25.69065 58.203,26.16165 55.7895,26.46915 C53.3535,26.77965 50.484,26.95815 47.2635,27.00015 L47.2635,27.00015 Z M34.0035,48.40665 L34.002,61.78515 L1.125,42.80265 L1.1265,24.95715 L34.0035,43.93965 L34.0035,48.40665 Z M72.543,11.93415 C71.1885,9.87915 68.931,7.92915 65.835,6.14115 C63.4035,4.73715 60.9285,3.59865 58.4775,2.75715 C56.0325,1.91715 53.478,1.28115 50.8845,0.86415 C48.303,0.45015 44.673,0.16365 40.095,0.01665 L39.588,0.00015 L38.2515,9.82965 L38.868,9.85515 C42.3615,9.99915 45.315,10.26465 47.646,10.64415 C49.917,11.01315 51.783,11.61315 53.1915,12.42465 C54.432,13.14315 55.122,13.86915 55.188,14.52915 C55.2495,15.14865 54.771,15.75615 53.7675,16.33665 C52.8405,16.87065 51.7455,17.28165 50.5125,17.55915 C49.257,17.84265 47.496,18.05415 45.282,18.19515 C43.047,18.33615 38.544,18.45015 31.9035,18.53565 L8.8935,18.60915 L8.7435,18.60915 L0.0015,23.65665 L0,43.45365 L34.5645,63.40815 L45.5745,57.05265 L45.576,37.25715 L29.154,27.77715 C38.238,28.05165 44.172,28.16415 47.2785,28.12515 C48.729,28.10565 50.097,28.05465 51.4005,27.98115 L51.4005,46.56915 L60.3,45.61965 L68.7375,42.18165 L72.417,38.55615 L73.371,35.50215 L73.386,18.74715 C73.4535,18.58815 73.527,18.42915 73.584,18.26715 C74.304,16.20165 73.9545,14.07015 72.543,11.93415 L72.543,11.93415 Z" id="Fill-4" fill="#7878F9"></path>
                                </g>
                            </g>
                        </g>
                    </g>
                </g>
            </g>
        </g>
    </g>
</svg>