<?xml version="1.0" encoding="UTF-8"?>
<svg width="100px" height="100px" viewBox="0 0 100 100" version="1.1" xmlns="http://www.w3.org/2000/svg" xmlns:xlink="http://www.w3.org/1999/xlink">
    <!-- Generator: sketchtool 61.2 (101010) - https://sketch.com -->
    <title>80ABCF9D-5C41-44D3-B897-A34CCDF915AC@1x</title>
    <desc>Created with sketchtool.</desc>
    <defs>
        <rect id="path-1" x="0" y="0" width="100" height="100"></rect>
        <polygon id="path-3" points="0.00015 0.0012 59.00015 0.0012 59.00015 81.0012 0.00015 81.0012"></polygon>
        <polygon id="path-5" points="0 0.636 47.15535 0.636 47.15535 29.6709 0 29.6709"></polygon>
        <polygon id="path-7" points="0.00105 0.0952046089 51.2685 0.0952046089 51.2685 70.5 0.00105 70.5"></polygon>
    </defs>
    <g id="Asset-Artboard-Page" stroke="none" stroke-width="1" fill="none" fill-rule="evenodd">
        <g id="icon/advantage/3">
            <g>
                <mask id="mask-2" fill="white">
                    <use xlink:href="#path-1"></use>
                </mask>
                <g id="Mask"></g>
                <g id="Group-13-Copy-3" mask="url(#mask-2)">
                    <g transform="translate(15.000000, 10.000000)" id="Group-10">
                        <g>
                            <polygon id="Stroke-2" stroke="#36F2B9" stroke-width="0.5" points="70 66.7614571 61.4169755 72 61 71.2385429 69.5830245 66"></polygon>
                            <polygon id="Stroke-5" stroke="#36F2B9" stroke-width="0.5" points="47 66.7614571 38.4169755 72 38 71.2385429 46.5830245 66"></polygon>
                            <polygon id="Stroke-7" stroke="#36F2B9" stroke-width="0.5" points="23 66.7614571 14.4169755 72 14 71.2385429 22.5830245 66"></polygon>
                            <polygon id="Stroke-24" stroke="#36F2B9" stroke-width="0.5" points="70 44.7645332 61.4169755 50 61 49.2354668 69.5830245 44"></polygon>
                            <polygon id="Stroke-27" stroke="#36F2B9" stroke-width="0.5" points="41 44.7645332 32.4169755 50 32 49.2354668 40.5830245 44"></polygon>
                            <polygon id="Stroke-30" stroke="#36F2B9" stroke-width="0.5" points="17 44.7645332 8.41697554 50 8 49.2354668 16.5830245 44"></polygon>
                            <polygon id="Fill-53" fill="#FFFFFF" points="63.5830245 72 55 77.2385429 55.4169755 78 64 72.7614571"></polygon>
                            <polygon id="Fill-54" fill="#FFFFFF" points="40.5830245 72 32 77.2385429 32.4169755 78 41 72.7614571"></polygon>
                            <polygon id="Fill-55" fill="#FFFFFF" points="16.5830245 72 8 77.2385429 8.41697554 78 17 72.7614571"></polygon>
                            <polygon id="Fill-63" fill="#FFFFFF" points="55 55.2354668 55.4169755 56 64 50.7645332 63.5830245 50"></polygon>
                            <polygon id="Fill-64" fill="#FFFFFF" points="41 50.7645332 32.4169755 56 32 55.2354668 40.5830245 50"></polygon>
                            <polygon id="Fill-65" fill="#FFFFFF" points="17 50.7645332 8.41697554 56 8 55.2354668 16.5830245 50"></polygon>
                            <mask id="mask-4" fill="white">
                                <use xlink:href="#path-3"></use>
                            </mask>
                            <g id="Clip-2"></g>
                            <g id="Group-13-Copy-3" mask="url(#mask-4)">
                                <g transform="translate(0.000000, -1.000000)">
                                    <g id="Group-9" transform="translate(0.000000, 1.000000)">
                                        <g id="Group-8" transform="translate(8.000000, 44.000000)"></g>
                                        <g id="Group-3"></g>
                                    </g>
                                    <g id="Group-19" transform="translate(4.000000, 0.000000)">
                                        <path d="M17.24445,51.62475 L18.27945,52.21125 C17.05695,53.27625 15.57645,54.33375 13.77795,55.37175 C11.85045,56.48325 9.72645,57.39675 7.46295,58.08225 C5.49795,58.68075 3.54045,59.01675 1.62945,59.08275 L1.62945,59.08275 L2.27745,60.29175 L0.60645,59.53875 L0.06645,58.53075 L0.06645,57.95925 L0.70245,57.96825 C2.78295,58.00425 4.95645,57.66825 7.13445,57.00675 C9.31695,56.34375 11.36295,55.46625 13.21545,54.39675 C14.80395,53.47875 16.13295,52.55175 17.24445,51.62475 L17.24445,51.62475 Z M30.27435,1.701 C30.69135,1.7955 31.10235,1.941 31.52235,2.1435 L31.53735,2.1315 L31.85835,2.289 L47.15535,11.085 L32.03235,20.5365 L24.15685,25.2375444 L41.3616,22.42215 L41.3616,27.83415 L38.99085,31.7215444 L48.3111,37.6977 L45.8241,46.2012 L33.11185,41.3645444 L32.9331,41.65815 C28.1181,44.57715 26.7831,45.36915 26.2701,45.36915 C26.0736,45.36915 25.9971,45.25515 25.8936,45.09915 C25.7841,45.03465 24.1851,44.03115 22.7496,43.15065 L7.7331,34.53765 L7.7331,33.89565 L14.46385,30.0505444 L-0.00015,21.5175 L0.24135,21.1875 C2.86485,17.583 5.58885,14.5005 8.34135,12.021 C11.09385,9.5415 14.29035,7.2465 17.84385,5.193 C23.12985,2.142 27.19335,0.9975 30.27435,1.701 Z M38.40485,32.6825444 L33.70685,40.3875444 L45.0861,44.7162 L46.9941,38.1897 L38.40485,32.6825444 Z M40.2366,23.74515 L22.6611,26.62215 L9.4266,34.21215 L23.3226,42.18315 C25.1961,43.33065 26.0466,43.87365 26.4456,44.15115 C27.2238166,43.7569884 29.6794439,42.310797 31.966482,40.9295395 L31.8231,40.8747 L37.6386,30.8547 L38.05885,31.1245444 L40.2366,27.52065 L40.2366,23.74515 Z M18.40635,6.1695 C14.92035,8.181 11.78835,10.431 9.09435,12.8565 C6.52935,15.1665 3.98385,18.0195 1.52235,21.3435 L15.27285,29.232 L35.09985,17.3535 L44.97585,11.1285 L31.28835,3.2865 C30.84585,3.0495 30.44535,2.8935 30.02385,2.7975 C27.27435,2.172 23.36535,3.306 18.40635,6.1695 Z" id="Combined-Shape" fill="#7878F9"></path>
                                        <g id="Group-18" transform="translate(0.000000, 0.864600)">
                                            <g id="Group-4">
                                                <mask id="mask-6" fill="white">
                                                    <use xlink:href="#path-5"></use>
                                                </mask>
                                                <g id="Clip-3"></g>
                                            </g>
                                            <g id="Group-11" transform="translate(0.000000, 9.000000)">
                                                <mask id="mask-8" fill="white">
                                                    <use xlink:href="#path-7"></use>
                                                </mask>
                                                <g id="Clip-10"></g>
                                                <path d="M14.81355,68.94615 L1.19055,61.13265 L1.19055,49.63665 L14.81355,57.45015 L14.81355,68.94615 Z M22.48005,43.41915 L8.85855,35.60565 L8.85855,25.31865 L22.48005,33.13215 L22.48005,43.41915 Z M48.34455,27.85215 C46.48605,26.63115 43.87005,26.60265 40.38255,27.76965 C43.15755,25.00365 45.36255,22.05615 46.95105,18.98415 C48.85305,15.30615 49.81755,11.61015 49.81755,8.00115 C49.81755,3.61215 48.20355,1.02165 45.02205,0.29565 C41.94255,-0.40785 37.87605,0.73665 32.59155,3.78915 C29.03655,5.84115 25.84155,8.13615 23.08905,10.61565 C20.43405,13.00665 17.80755,15.97215 15.27105,19.41165 L0.53655,10.91715 L0.00105,11.65365 L5.79255,19.09665 L21.13305,27.93765 L21.69855,27.21315 C24.92055,23.07915 28.06905,20.10165 31.06005,18.37515 C32.62755,17.47065 33.86955,17.07915 34.73205,17.20665 C35.01105,17.24715 35.75505,17.35815 35.75505,19.13715 C35.75505,22.90665 32.42955,26.73765 25.86855,30.52665 L23.04105,32.15865 L8.30505,23.70465 L7.73355,24.03165 L7.73355,36.25665 L23.04405,45.03915 L26.36355,43.12365 C28.81305,41.70915 30.81855,40.76115 32.32455,40.30665 C33.68955,39.89565 34.69605,39.86115 35.23905,40.20465 C35.75355,40.53165 36.02655,41.40615 36.02655,42.73215 C36.02655,44.62215 35.38905,46.39815 34.13505,48.01215 C32.84505,49.66965 30.74655,51.34665 27.89655,52.99065 C26.04255,54.06015 23.99805,54.93915 21.81405,55.60215 C19.68255,56.24865 17.56455,56.58015 15.51855,56.55765 L0.78105,48.10215 L0.06555,48.09465 L0.06555,61.78365 L15.26205,70.50015 L15.93855,70.39665 C18.42405,70.03065 20.77455,69.44115 22.92405,68.62065 C25.21605,67.74165 27.72555,66.51915 30.38355,64.98465 C36.88905,61.22715 42.04605,56.69415 45.71055,51.51165 C49.39905,46.29765 51.26955,40.91715 51.26955,35.51865 C51.26955,31.70715 50.28405,29.12715 48.34455,27.85215 L48.34455,27.85215 Z" id="Fill-9" fill="#7878F9" mask="url(#mask-8)"></path>
                                            </g>
                                        </g>
                                    </g>
                                </g>
                            </g>
                        </g>
                    </g>
                </g>
            </g>
        </g>
    </g>
</svg>