<?xml version="1.0" encoding="UTF-8"?>
<svg width="100px" height="100px" viewBox="0 0 100 100" version="1.1" xmlns="http://www.w3.org/2000/svg" xmlns:xlink="http://www.w3.org/1999/xlink">
    <!-- Generator: sketchtool 62 (101010) - https://sketch.com -->
    <title>36305E62-02D7-415D-88C8-CD59991ABF92@1x</title>
    <desc>Created with sketchtool.</desc>
    <defs>
        <rect id="path-1" x="0" y="0" width="100" height="100"></rect>
        <polygon id="path-3" points="0.00015 0.0012 46.719 0.0012 46.719 77.12055 0.00015 77.12055"></polygon>
        <polygon id="path-5" points="0.00015 0.0012 46.719 0.0012 46.719 77.12055 0.00015 77.12055"></polygon>
    </defs>
    <g id="Asset-Artboard-Page" stroke="none" stroke-width="1" fill="none" fill-rule="evenodd">
        <g id="icon/tool_dev">
            <g id="icon/advantage/1">
                <mask id="mask-2" fill="white">
                    <use xlink:href="#path-1"></use>
                </mask>
                <g id="Mask"></g>
                <g id="Group-13" mask="url(#mask-2)">
                    <g transform="translate(15.000000, -31.000000)">
                        <g id="Group-10" transform="translate(0.000000, 42.000000)">
                            <polygon id="Stroke-2" fill="#36F2B9" points="70 66.7614571 61.4169755 72 61 71.2385429 69.5830245 66"></polygon>
                            <polygon id="Stroke-5" stroke="#36F2B9" stroke-width="0.5" points="47 66.7614571 38.4169755 72 38 71.2385429 46.5830245 66"></polygon>
                            <polygon id="Stroke-7" fill="#36F2B9" points="23 66.7614571 14.4169755 72 14 71.2385429 22.5830245 66"></polygon>
                            <polygon id="Stroke-24" fill="#36F2B9" points="70 44.7645332 61.4169755 50 61 49.2354668 69.5830245 44"></polygon>
                            <polygon id="Stroke-27" stroke="#36F2B9" stroke-width="0.5" points="41 44.7645332 32.4169755 50 32 49.2354668 40.5830245 44"></polygon>
                            <polygon id="Fill-53" fill="#FFFFFF" points="63.5830245 72 55 77.2385429 55.4169755 78 64 72.7614571"></polygon>
                            <polygon id="Fill-54" fill="#FFFFFF" points="40.5830245 72 32 77.2385429 32.4169755 78 41 72.7614571"></polygon>
                            <polygon id="Fill-55" fill="#FFFFFF" points="16.5830245 72 8 77.2385429 8.41697554 78 17 72.7614571"></polygon>
                            <mask id="mask-4" fill="white">
                                <use xlink:href="#path-3"></use>
                            </mask>
                            <g id="Clip-2"></g>
                        </g>
                        <g id="Group-10">
                            <polygon id="Stroke-2" fill="#36F2B9" points="70 66.7614571 61.4169755 72 61 71.2385429 69.5830245 66"></polygon>
                            <polygon id="Stroke-5" fill="#36F2B9" points="47 66.7614571 38.4169755 72 38 71.2385429 46.5830245 66"></polygon>
                            <polygon id="Stroke-7" fill="#36F2B9" points="23 66.7614571 14.4169755 72 14 71.2385429 22.5830245 66"></polygon>
                            <polygon id="Stroke-24" fill="#36F2B9" points="70 44.7645332 61.4169755 50 61 49.2354668 69.5830245 44"></polygon>
                            <polygon id="Stroke-27" fill="#36F2B9" points="41 44.7645332 32.4169755 50 32 49.2354668 40.5830245 44"></polygon>
                            <polygon id="Stroke-30" fill="#36F2B9" points="17 44.7645332 8.41697554 50 8 49.2354668 16.5830245 44"></polygon>
                            <polygon id="Fill-54" fill="#FFFFFF" points="40.5830245 72 32 77.2385429 32.4169755 78 41 72.7614571"></polygon>
                            <polygon id="Fill-55" fill="#FFFFFF" points="16.5830245 72 8 77.2385429 8.41697554 78 17 72.7614571"></polygon>
                            <polygon id="Fill-63" fill="#FFFFFF" points="55 55.2354668 55.4169755 56 64 50.7645332 63.5830245 50"></polygon>
                            <polygon id="Fill-64" fill="#FFFFFF" points="41 50.7645332 32.4169755 56 32 55.2354668 40.5830245 50"></polygon>
                            <polygon id="Fill-65" fill="#FFFFFF" points="17 50.7645332 8.41697554 56 8 55.2354668 16.5830245 50"></polygon>
                            <mask id="mask-6" fill="white">
                                <use xlink:href="#path-5"></use>
                            </mask>
                            <g id="Clip-2"></g>
                        </g>
                        <g id="Group-9" transform="translate(8.000000, 86.000000)">
                            <g id="Group-8"></g>
                        </g>
                    </g>
                </g>
            </g>
            <g id="layers" transform="translate(19.000000, 28.000000)" fill-rule="nonzero">
                <polygon id="Path" stroke="#7878F9" stroke-width="0.8" points="61.44 37.96428 61.43352 40.2546 30.81696 58.047 0 40.25484 0.00648 37.96464 30.62304 20.17224"></polygon>
                <polygon id="Path" fill="#7878F9" points="61.44 37.96428 61.43352 40.2546 30.81696 58.047 30.82332 55.7568"></polygon>
                <polygon id="Path" fill="#7878F9" points="30.82332 55.7568 30.81696 58.047 0 40.25484 0.00648 37.96464"></polygon>
                <polygon id="Path" stroke="#36F2B9" stroke-width="0.8" points="61.44 27.89472 61.43352 30.18492 30.81696 47.97744 0 30.18516 0.00648 27.89496 30.62304 10.10256"></polygon>
                <polygon id="Path" fill="#36F2B9" points="61.44 27.89472 61.43352 30.18492 30.81696 47.97744 30.82332 45.68724"></polygon>
                <polygon id="Path" fill="#36F2B9" points="30.82332 45.68724 30.81696 47.97744 0 30.18516 0.00648 27.89496"></polygon>
                <polygon id="Path" fill="#7878F9" points="61.44 17.82504 61.43352 20.11524 30.81696 37.90776 0 20.11572 0.00648 17.82528 30.62304 0.033"></polygon>
                <polygon id="Path" fill="#7878F9" points="61.44 17.82504 61.43352 20.11524 30.81696 37.90776 30.82332 35.61756"></polygon>
                <polygon id="Path" fill="#7878F9" points="30.82332 35.61756 30.81696 37.90776 0 20.11572 0.00648 17.82528"></polygon>
            </g>
        </g>
    </g>
</svg>