<svg fill="none" xmlns="http://www.w3.org/2000/svg" viewBox="0 0 1440 291"><mask id="a" style="mask-type:alpha" maskUnits="userSpaceOnUse" x="0" y="0" width="1440" height="291"><path fill="#D9D9D9" d="M0 0h1440v291H0z"/></mask><g mask="url(#a)"><path d="M1027.5 148h413" stroke="#fff" stroke-width=".53"/><g filter="url(#b)"><circle cx="565.82" cy="145.59" r="114.03" transform="rotate(-.04 565.82 145.59)" stroke="#7878F9" stroke-width=".48" stroke-dasharray="2.38 1.91"/></g><circle cx="565.82" cy="145.59" r="114" transform="rotate(-.04 565.82 145.59)" stroke="url(#c)" stroke-width=".53" stroke-dasharray="2.64 2.64"/><path d="m852.25 141.4.06 2.65h-.26a116.73 116.73 0 0 1 0 2.65h.27a116 116 0 0 1-.06 2.65l-.27-.01c-.03.88-.07 1.76-.12 2.63l.27.02c-.05.88-.11 1.76-.18 2.63l-.26-.02c-.08.88-.15 1.75-.24 2.62l.26.03-.3 2.63-.26-.03-.37 2.6.27.04c-.13.88-.28 1.75-.43 2.61l-.26-.04c-.15.87-.3 1.73-.48 2.59l.26.05c-.17.87-.35 1.73-.54 2.59l-.26-.06-.6 2.56.25.07c-.2.85-.43 1.7-.66 2.56l-.25-.07c-.24.85-.48 1.7-.73 2.53l.26.08c-.25.84-.52 1.68-.79 2.52l-.25-.08c-.27.84-.55 1.67-.84 2.5l.25.09c-.29.83-.59 1.66-.9 2.48l-.24-.1c-.31.83-.63 1.65-.96 2.47l.25.1-1.02 2.43-.24-.1c-.35.8-.7 1.6-1.07 2.4l.24.12c-.37.8-.74 1.6-1.13 2.39l-.23-.12c-.39.8-.78 1.58-1.19 2.36l.24.12c-.4.78-.82 1.56-1.24 2.33l-.23-.12c-.42.77-.85 1.54-1.29 2.3l.23.13c-.44.76-.88 1.52-1.34 2.27l-.23-.13c-.45.75-.92 1.5-1.4 2.24l.23.14c-.47.74-.96 1.48-1.45 2.2l-.22-.14c-.48.73-.98 1.45-1.49 2.17l.22.15c-.51.72-1.03 1.44-1.55 2.14l-.21-.15-1.6 2.1.21.16c-.54.7-1.09 1.38-1.64 2.07l-.21-.17c-.55.68-1.12 1.36-1.69 2.03l.2.17c-.57.67-1.15 1.33-1.74 1.99l-.2-.18c-.58.66-1.17 1.3-1.77 1.94l.19.19c-.6.64-1.21 1.27-1.83 1.9l-.19-.18c-.61.63-1.23 1.25-1.86 1.86l.18.19-1.91 1.82-.18-.2-1.95 1.78.17.2c-.66.58-1.32 1.16-2 1.73l-.17-.2c-.66.56-1.34 1.13-2.02 1.68l.16.2c-.68.56-1.37 1.1-2.07 1.64l-.16-.2-2.1 1.58.15.21c-.71.53-1.42 1.04-2.15 1.54l-.15-.21c-.72.5-1.44 1-2.18 1.49l.15.22c-.73.49-1.47.97-2.21 1.44l-.14-.23-2.25 1.4.14.22c-.75.45-1.51.9-2.28 1.33l-.13-.23c-.76.44-1.53.87-2.3 1.29l.12.23c-.77.42-1.55.83-2.33 1.23l-.12-.23c-.79.4-1.57.79-2.37 1.17l.12.24-2.4 1.12-.1-.24c-.8.36-1.6.72-2.41 1.06l.1.25c-.81.34-1.62.68-2.44 1l-.1-.24c-.81.33-1.63.64-2.46.95l.1.25-2.5.9-.08-.26c-.83.3-1.66.57-2.5.84l.08.25-2.52.78-.08-.25c-.84.25-1.68.49-2.53.72l.07.25c-.85.23-1.7.45-2.56.66l-.07-.25-2.56.6.06.25c-.86.2-1.73.37-2.6.54l-.04-.25c-.86.17-1.73.33-2.6.48l.05.26c-.86.15-1.74.29-2.6.42l-.05-.26c-.86.13-1.73.25-2.6.36l.03.26c-.88.11-1.75.21-2.63.3l-.03-.26c-.87.1-1.74.17-2.62.24l.02.26c-.87.08-1.75.14-2.64.19l-.01-.27c-.88.05-1.75.1-2.63.12v.27c-.87.03-1.75.05-2.64.06v-.26a116.73 116.73 0 0 1-2.65 0v.26c-.88 0-1.76-.03-2.64-.06v-.26c-.87-.03-1.75-.07-2.62-.12l-.02.27-2.64-.18.02-.27c-.87-.06-1.75-.14-2.62-.23l-.02.26c-.88-.09-1.76-.19-2.63-.3l.03-.26c-.87-.1-1.74-.23-2.6-.36l-.05.26c-.87-.13-1.74-.26-2.61-.41l.04-.26c-.86-.15-1.73-.31-2.59-.48l-.05.26c-.86-.17-1.73-.35-2.59-.54l.06-.26c-.86-.19-1.71-.39-2.57-.6l-.06.26c-.86-.2-1.7-.43-2.56-.66l.07-.25c-.85-.23-1.7-.47-2.54-.72l-.07.26c-.85-.25-1.69-.51-2.52-.78l.08-.25-2.5-.83-.1.25c-.83-.29-1.65-.59-2.48-.9l.1-.24c-.83-.3-1.65-.62-2.47-.95l-.1.25-2.44-1 .1-.25-2.41-1.06-.1.24-2.4-1.12.11-.24c-.79-.38-1.58-.77-2.36-1.17l-.12.24-2.34-1.23.13-.23c-.78-.42-1.55-.85-2.3-1.28l-.14.23c-.76-.44-1.52-.88-2.28-1.34l.14-.22-2.25-1.39-.14.23-2.22-1.44.15-.22-2.18-1.48-.15.21c-.72-.5-1.44-1.02-2.15-1.54l.16-.21c-.71-.52-1.41-1.05-2.1-1.58l-.17.2c-.7-.53-1.39-1.08-2.07-1.63l.16-.2-2.03-1.68-.17.2-2-1.73.18-.2c-.66-.58-1.31-1.17-1.96-1.77l-.18.2c-.64-.6-1.28-1.21-1.91-1.83l.18-.18a117 117 0 0 1-1.87-1.86l-.19.18c-.62-.63-1.23-1.26-1.83-1.9l.2-.18-1.79-1.94-.2.17-1.74-1.98.2-.18a120.6 120.6 0 0 1-1.69-2.02l-.2.17c-.56-.68-1.1-1.37-1.65-2.07l.2-.16-1.59-2.1-.21.16c-.53-.7-1.04-1.42-1.55-2.14l.21-.15-1.5-2.17-.21.15c-.5-.73-.98-1.47-1.46-2.21l.23-.14c-.48-.74-.94-1.49-1.4-2.24l-.23.14-1.34-2.27.23-.14-1.3-2.3-.23.13-1.24-2.33.24-.12-1.19-2.36-.23.12c-.39-.8-.77-1.59-1.13-2.39l.24-.1c-.37-.8-.73-1.61-1.08-2.42l-.24.1c-.35-.8-.69-1.61-1.02-2.43l.25-.1c-.33-.81-.65-1.63-.96-2.46l-.25.1-.9-2.48.25-.1c-.3-.82-.57-1.65-.84-2.49l-.25.08c-.28-.83-.54-1.68-.8-2.52l.26-.08c-.25-.84-.5-1.68-.72-2.53l-.26.07-.67-2.56.26-.06c-.21-.85-.41-1.7-.6-2.56l-.26.05c-.2-.86-.38-1.72-.55-2.58l.26-.06-.49-2.58-.26.04c-.15-.87-.3-1.74-.42-2.61l.26-.04c-.13-.87-.26-1.73-.37-2.6l-.26.03c-.11-.88-.21-1.75-.3-2.63l.26-.03c-.1-.87-.17-1.74-.25-2.62l-.26.02c-.07-.88-.13-1.75-.18-2.64l.26-.01c-.05-.88-.09-1.75-.12-2.63h-.26c-.03-.87-.06-1.75-.07-2.64h.27a97.29 97.29 0 0 1 0-2.65h-.27l.06-2.64h.26c.03-.87.07-1.75.12-2.62l-.26-.02c.05-.88.1-1.76.18-2.64l.26.02c.07-.87.15-1.75.24-2.62l-.26-.02c.09-.88.19-1.76.3-2.63l.26.03c.11-.87.23-1.74.36-2.6l-.26-.05c.13-.87.27-1.74.42-2.6l.26.04c.15-.87.32-1.73.49-2.6l-.26-.04c.17-.87.35-1.73.54-2.6l.26.07c.19-.86.39-1.72.6-2.57l-.26-.06.67-2.56.25.07c.23-.85.47-1.7.72-2.54l-.25-.07c.25-.85.51-1.69.78-2.53l.25.09c.27-.84.55-1.67.84-2.5l-.25-.09.9-2.48.25.09.96-2.46-.25-.1 1.01-2.43.25.1c.35-.8.7-1.61 1.07-2.41l-.24-.11c.36-.8.74-1.6 1.12-2.39l.24.12c.38-.8.78-1.58 1.18-2.36l-.23-.12c.4-.79.81-1.56 1.23-2.34l.24.13c.41-.77.85-1.54 1.28-2.3l-.23-.13c.44-.77.9-1.53 1.35-2.28l.22.14c.46-.75.92-1.5 1.4-2.24l-.23-.14 1.45-2.21.22.15c.5-.73.99-1.46 1.5-2.18l-.22-.15c.5-.72 1.02-1.43 1.55-2.14l.21.16c.52-.7 1.06-1.4 1.6-2.1l-.21-.16c.54-.7 1.09-1.39 1.64-2.07l.2.17c.56-.69 1.12-1.36 1.7-2.03l-.2-.17 1.73-1.99.2.18 1.78-1.95-.2-.18c.6-.64 1.22-1.28 1.84-1.9l.18.18c.62-.63 1.24-1.25 1.87-1.86l-.18-.2c.63-.6 1.26-1.21 1.91-1.81l.18.19c.64-.6 1.3-1.19 1.95-1.77l-.17-.2c.65-.59 1.32-1.16 1.99-1.73l.17.2c.67-.57 1.35-1.13 2.03-1.68l-.16-.2c.68-.56 1.37-1.1 2.07-1.65l.16.21 2.1-1.58-.15-.22c.7-.52 1.42-1.03 2.14-1.54l.16.22 2.17-1.5-.14-.21c.73-.49 1.47-.97 2.2-1.44l.15.22 2.24-1.39-.13-.22c.75-.46 1.5-.9 2.27-1.34l.13.23c.77-.44 1.54-.86 2.31-1.28l-.13-.23 2.34-1.23.12.23c.78-.4 1.57-.8 2.36-1.17l-.11-.24c.79-.38 1.59-.76 2.39-1.12l.1.24c.8-.37 1.61-.72 2.42-1.07l-.1-.24c.8-.34 1.62-.68 2.44-1l.1.24c.81-.33 1.63-.65 2.46-.95l-.1-.25 2.49-.9.08.25 2.5-.83-.07-.25c.83-.27 1.67-.53 2.52-.78l.07.25c.85-.25 1.69-.49 2.54-.72l-.07-.25c.85-.23 1.7-.45 2.56-.66l.06.25 2.57-.6-.06-.26c.86-.19 1.72-.37 2.59-.54l.05.26c.86-.17 1.72-.33 2.59-.48l-.05-.26c.87-.15 1.74-.3 2.62-.42l.03.26 2.61-.36-.03-.27 2.63-.3.03.27c.87-.1 1.74-.18 2.62-.25l-.03-.26 2.64-.18.02.26c.87-.05 1.75-.09 2.63-.12l-.01-.26 2.64-.06v.26a116.87 116.87 0 0 1 2.65 0v-.27c.89.01 1.77.03 2.65.06v.27c.87.03 1.75.06 2.62.11l.01-.26c.89.05 1.77.1 2.64.18l-.01.26a116 116 0 0 1 2.61.24l.03-.27 2.63.3-.03.27c.87.1 1.74.22 2.6.35l.04-.26c.88.13 1.75.27 2.62.42l-.05.26c.87.15 1.73.3 2.6.48l.04-.26c.87.17 1.73.35 2.6.54l-.07.25 2.57.6.06-.26c.86.21 1.72.43 2.56.66l-.07.26c.86.23 1.7.46 2.54.71l.08-.25c.84.25 1.69.5 2.52.77l-.08.26c.84.26 1.67.54 2.5.83l.09-.25c.83.29 1.66.58 2.49.89l-.1.25c.83.3 1.65.62 2.46.94l.1-.24 2.44 1-.1.25c.81.34 1.62.7 2.42 1.06l.1-.24c.8.36 1.6.73 2.4 1.12l-.12.23c.8.38 1.58.78 2.37 1.17l.12-.23c.78.4 1.56.8 2.33 1.23l-.12.23c.77.42 1.54.84 2.3 1.28l.14-.23c.76.43 1.52.88 2.28 1.33l-.14.23 2.25 1.38.14-.22c.74.47 1.48.95 2.21 1.44l-.14.22c.73.48 1.45.98 2.17 1.48l.16-.21a113 113 0 0 1 2.14 1.53l-.15.22c.7.52 1.4 1.04 2.1 1.58l.17-.2c.7.53 1.39 1.07 2.07 1.63l-.16.2c.68.55 1.36 1.11 2.03 1.68l.17-.2c.67.57 1.34 1.14 2 1.73l-.18.2c.66.58 1.31 1.17 1.95 1.77l.18-.2c.65.6 1.29 1.2 1.92 1.82l-.18.19c.63.61 1.25 1.23 1.87 1.86l.18-.19 1.83 1.9-.19.19 1.79 1.94.2-.18c.58.66 1.16 1.32 1.73 2l-.2.16c.57.67 1.14 1.34 1.7 2.03l.2-.17c.56.68 1.1 1.37 1.65 2.06l-.21.17c.54.69 1.07 1.39 1.6 2.1l.2-.16c.53.7 1.05 1.42 1.56 2.13l-.22.16c.51.71 1.01 1.44 1.5 2.17l.22-.15c.5.73.98 1.46 1.45 2.2l-.22.15c.47.74.94 1.48 1.4 2.24l.22-.14c.46.75.9 1.5 1.35 2.27l-.23.13 1.3 2.3.22-.13c.43.78.84 1.55 1.24 2.34l-.23.12c.4.78.8 1.56 1.18 2.35l.24-.11 1.13 2.38-.24.11c.37.8.72 1.6 1.07 2.41l.25-.1 1.01 2.44-.24.1c.33.81.65 1.63.96 2.45l.24-.1c.31.83.62 1.66.9 2.5l-.24.08c.29.83.57 1.66.84 2.5l.25-.09c.27.84.54 1.68.79 2.53l-.25.07c.25.84.49 1.69.72 2.54l.25-.07c.24.84.46 1.7.67 2.55l-.25.07c.2.85.41 1.7.6 2.56l.26-.06c.2.86.38 1.72.55 2.6l-.26.04c.17.86.33 1.72.48 2.6l.26-.05c.16.86.3 1.73.43 2.6l-.26.05c.13.86.25 1.73.36 2.6l.27-.03.3 2.63-.26.03c.09.87.17 1.74.24 2.62l.27-.03.18 2.64-.26.02c.04.87.09 1.75.12 2.63l.26-.01Z" stroke="url(#d)" stroke-width=".53" stroke-dasharray="2.64 2.64"/><circle cx="911.28" cy="145.33" r="113.92" transform="rotate(-.04 911.28 145.33)" stroke="#fff" stroke-width=".53" stroke-dasharray="2.64 2.64"/><path d="M1066.92 140.61c.15 1.26.25 2.53.3 3.81l-.5.02.04 1.9c0 .63-.02 1.26-.04 1.9l.5.01a53.12 53.12 0 0 1-.29 3.82l-.5-.06c-.14 1.26-.34 2.5-.58 3.74l.5.1c-.25 1.25-.54 2.5-.88 3.72l-.48-.14a48.63 48.63 0 0 1-1.16 3.6l.47.18c-.44 1.2-.92 2.38-1.45 3.54l-.45-.21a50.57 50.57 0 0 1-1.7 3.38l.43.24a50.03 50.03 0 0 1-1.98 3.27l-.42-.27a47.39 47.39 0 0 1-2.2 3.07l.39.3c-.78 1.01-1.61 1.99-2.47 2.93l-.36-.34c-.86.94-1.74 1.84-2.66 2.7l.34.36c-.93.87-1.9 1.7-2.89 2.5l-.31-.39a51.3 51.3 0 0 1-3.05 2.25l.28.42a47.4 47.4 0 0 1-3.25 2.01l-.24-.43c-1.1.62-2.22 1.2-3.37 1.74l.22.45a47.33 47.33 0 0 1-3.53 1.48l-.17-.46c-1.18.44-2.38.83-3.6 1.18l.14.48c-1.22.35-2.46.65-3.72.9l-.1-.49a46.6 46.6 0 0 1-3.73.6l.06.5c-1.26.15-2.53.25-3.81.3l-.02-.5a49.76 49.76 0 0 1-3.79 0l-.02.5a48.46 48.46 0 0 1-3.82-.3l.06-.5a47.8 47.8 0 0 1-3.73-.58l-.1.49c-1.26-.25-2.5-.55-3.72-.9l.14-.48a48.36 48.36 0 0 1-3.6-1.18l-.17.47c-1.2-.45-2.38-.94-3.53-1.48l.21-.45a47.41 47.41 0 0 1-3.36-1.74l-.25.44c-1.11-.63-2.2-1.3-3.25-2.01l.28-.42a48.28 48.28 0 0 1-3.05-2.24l-.31.39c-1-.8-1.96-1.63-2.9-2.5l.35-.36a48.96 48.96 0 0 1-2.67-2.7l-.37.34a49.17 49.17 0 0 1-2.47-2.91l.4-.31c-.78-1-1.52-2.02-2.22-3.07l-.41.27a48.49 48.49 0 0 1-1.99-3.27l.44-.24a48.09 48.09 0 0 1-1.7-3.38l-.46.21a48.5 48.5 0 0 1-1.46-3.54l.47-.17a48.6 48.6 0 0 1-1.16-3.6l-.48.14a48.8 48.8 0 0 1-.88-3.73l.49-.1a49.32 49.32 0 0 1-.58-3.73l-.5.06a49.37 49.37 0 0 1-.3-3.82l.5-.01a49.71 49.71 0 0 1 0-3.8l-.5-.01c.05-1.29.15-2.56.29-3.82l.5.06c.14-1.26.34-2.51.58-3.74l-.5-.1c.25-1.25.54-2.5.88-3.72l.48.13c.34-1.22.73-2.42 1.16-3.6l-.47-.17c.44-1.2.92-2.38 1.45-3.54l.45.2c.53-1.14 1.1-2.27 1.7-3.37l-.43-.25c.62-1.11 1.28-2.2 1.98-3.27l.42.28c.7-1.05 1.43-2.08 2.2-3.07l-.39-.31c.78-1 1.6-1.98 2.47-2.92l.37.33c.85-.93 1.73-1.83 2.65-2.69l-.34-.37c.93-.87 1.9-1.7 2.9-2.5l.3.4c.99-.8 2-1.54 3.05-2.25l-.28-.42a49.15 49.15 0 0 1 3.25-2.02l.24.44c1.1-.63 2.22-1.2 3.37-1.74l-.22-.45a47.85 47.85 0 0 1 3.53-1.49l.17.47c1.18-.44 2.38-.83 3.6-1.18l-.14-.48c1.22-.35 2.46-.65 3.72-.9l.1.49c1.23-.25 2.47-.45 3.73-.6l-.06-.5c1.26-.15 2.53-.25 3.81-.3l.02.5a48.36 48.36 0 0 1 3.79 0l.02-.5c1.29.05 2.56.15 3.82.3l-.06.49c1.26.15 2.51.35 3.73.6l.1-.5c1.26.25 2.5.55 3.72.9l-.14.48c1.22.34 2.42.74 3.6 1.18l.17-.47c1.2.44 2.38.94 3.53 1.47l-.21.46c1.15.53 2.27 1.11 3.36 1.73l.25-.43c1.11.63 2.19 1.3 3.25 2.01l-.28.42c1.05.7 2.06 1.45 3.05 2.24l.31-.4c1 .8 1.96 1.64 2.9 2.5l-.35.37c.93.86 1.81 1.76 2.67 2.7l.37-.35c.86.94 1.68 1.92 2.47 2.92l-.4.31c.78 1 1.52 2.02 2.22 3.07l.41-.27a45.81 45.81 0 0 1 1.99 3.26l-.44.25a50.6 50.6 0 0 1 1.71 3.37l.45-.2a48.49 48.49 0 0 1 1.46 3.53l-.47.18c.43 1.17.82 2.38 1.16 3.6l.48-.14c.34 1.22.63 2.46.88 3.72l-.49.1c.24 1.23.44 2.48.58 3.74l.5-.06Z" stroke="#fff" stroke-dasharray="4 4"/><path d="M-1 146.74h1026.47m0 0-19.33-19.39m19.33 19.4-19.3 19.41" stroke="#fff" stroke-width=".53"/><rect x="420" y="135.31" width="69.56" height="23.77" rx="5" fill="#fff"/><path d="M438.43 151.2v-7h1.06v6.16h3.18v.84h-4.24Zm6.38 0v-7h4.45v.86h-3.39v2.18h3.1v.84h-3.1v2.26h3.4v.86h-4.46Zm6.27 0 2.58-7h1.16l2.56 7h-1.12l-.6-1.71h-2.86l-.6 1.7h-1.12Zm2.02-2.55h2.26l-1.13-3.2-1.13 3.2Zm6.25 2.55v-7h2.41c.56 0 1 .1 1.36.28.36.19.63.44.8.76.18.31.26.66.26 1.05 0 .43-.11.83-.35 1.18-.22.35-.58.6-1.07.76l1.5 2.97h-1.24l-1.36-2.82h-1.25v2.82h-1.06Zm1.06-3.62h1.3c.47 0 .82-.12 1.04-.35.23-.23.34-.54.34-.91 0-.38-.1-.67-.33-.9-.22-.22-.57-.33-1.07-.33h-1.28v2.49Zm6.03 3.62v-7h1.06l3.5 5.27v-5.27h1.07v7H471l-3.51-5.27v5.27h-1.06Z" fill="#000"/><rect x="650" y="135.31" width="69.56" height="23.77" rx="5" fill="#fff"/><path d="M660.58 151.32c-.51 0-.96-.1-1.35-.27a2.14 2.14 0 0 1-.9-.77 2.2 2.2 0 0 1-.34-1.2h1.12c0 .38.14.7.4.96.24.26.6.39 1.06.39.4 0 .72-.1.95-.3.23-.2.35-.44.35-.75a.99.99 0 0 0-.17-.6c-.1-.16-.26-.28-.45-.38-.19-.1-.4-.2-.65-.27l-.78-.26a2.94 2.94 0 0 1-1.22-.7c-.27-.29-.4-.66-.4-1.13 0-.4.08-.74.27-1.03.2-.3.46-.52.8-.68.35-.17.75-.25 1.21-.25.45 0 .85.08 1.2.25a1.9 1.9 0 0 1 1.11 1.73h-1.13a1 1 0 0 0-.14-.51c-.1-.17-.23-.3-.4-.41-.19-.1-.4-.16-.67-.16-.33 0-.6.08-.83.25a.88.88 0 0 0-.32.72c0 .27.08.48.24.63.16.14.38.27.66.37l.96.33c.35.11.66.25.93.4a1.8 1.8 0 0 1 .9 1.62 1.92 1.92 0 0 1-1.08 1.74c-.36.19-.8.28-1.33.28Zm6.08-.12v-6.14h-2.07v-.86h5.2v.86h-2.07v6.14h-1.06Zm5.11 0v-7h2.41c.56 0 1.01.1 1.36.28.36.19.63.44.8.76.18.31.26.66.26 1.05 0 .43-.11.83-.35 1.18-.22.35-.58.6-1.07.76l1.5 2.97h-1.24l-1.36-2.82h-1.25v2.82h-1.06Zm1.06-3.62h1.3c.47 0 .82-.12 1.04-.35.23-.23.34-.54.34-.91 0-.38-.1-.67-.33-.9-.22-.22-.57-.33-1.07-.33h-1.28v2.49Zm5.58 3.62 2.58-7h1.16l2.56 7h-1.12l-.6-1.71h-2.86l-.6 1.7h-1.12Zm2.02-2.55h2.26l-1.13-3.2-1.13 3.2Zm7.13 2.55v-6.14h-2.07v-.86h5.2v.86h-2.07v6.14h-1.06Zm5.12 0v-7h4.45v.86h-3.4v2.18h3.1v.84h-3.1v2.26h3.4v.86h-4.46Zm9.75.12a3.04 3.04 0 0 1-2.88-1.71 4.12 4.12 0 0 1-.41-1.9c0-.7.14-1.34.42-1.88.28-.55.67-.98 1.19-1.28a3.5 3.5 0 0 1 1.84-.47c.8 0 1.46.2 2 .58.53.38.88.92 1.04 1.6h-1.2c-.1-.38-.32-.67-.63-.88a2.11 2.11 0 0 0-1.21-.32 2.2 2.2 0 0 0-1.73.7 2.85 2.85 0 0 0-.63 1.97c0 .83.2 1.48.62 1.95.41.47.96.7 1.65.7.7 0 1.21-.2 1.56-.6.35-.38.56-.9.62-1.56h-1.9v-.82h2.97v3.8h-.97l-.1-1.03a2.5 2.5 0 0 1-.87.85c-.36.2-.82.3-1.38.3Zm6.98-.12v-2.58l-2.32-4.42h1.2l1.65 3.38 1.64-3.38h1.2l-2.3 4.42v2.58h-1.07Z" fill="#000"/><rect x="825" y="135.31" width="69.56" height="23.77" rx="5" fill="#000"/><path d="M845.8 151.2v-7h1.26l2.37 4.66 2.36-4.66h1.25v7h-1.06v-5.17l-2.14 4.17h-.82l-2.15-4.16v5.16h-1.06Zm9.21 0 2.58-7h1.16l2.56 7h-1.12l-.6-1.71h-2.86l-.6 1.7h-1.12Zm2.02-2.55h2.26l-1.13-3.2-1.13 3.2Zm6.26 2.55v-7h1.06v3l2.76-3h1.3l-2.58 2.79 2.65 4.2h-1.3l-2.11-3.4-.72.79v2.62h-1.06Zm7.1 0v-7h4.46v.86h-3.4v2.18h3.1v.84h-3.1v2.26h3.4v.86h-4.45Z" fill="#fff"/><rect x="1045" y="135.31" width="69.56" height="23.77" rx="5" fill="#000"/><path d="M1055.19 151.2v-7h1.25l2.37 4.66 2.36-4.66h1.25v7h-1.06v-5.17l-2.14 4.17h-.82l-2.15-4.16v5.16h-1.06Zm9.65 0v-7h4.45v.86h-3.39v2.18h3.09v.84h-3.09v2.26h3.39v.86h-4.45Zm6.26 0 2.58-7h1.16l2.56 7h-1.12l-.6-1.71h-2.86l-.6 1.7h-1.12Zm2.02-2.55h2.26l-1.13-3.2-1.13 3.2Zm8.57 2.67c-.52 0-.97-.1-1.35-.27a2.13 2.13 0 0 1-.91-.77 2.11 2.11 0 0 1-.33-1.2h1.12c0 .38.13.7.39.96.25.26.61.39 1.07.39.4 0 .72-.1.95-.3.23-.2.35-.44.35-.75 0-.25-.06-.45-.17-.6a1.27 1.27 0 0 0-.45-.38c-.19-.1-.41-.2-.65-.27l-.78-.26a2.92 2.92 0 0 1-1.22-.7c-.27-.29-.4-.66-.4-1.13a1.77 1.77 0 0 1 1.07-1.71c.34-.17.75-.25 1.21-.25.45 0 .85.08 1.19.25.34.16.61.4.81.7.19.3.29.63.3 1.03h-1.12c0-.18-.05-.35-.14-.51a1.16 1.16 0 0 0-1.07-.57c-.34 0-.61.08-.83.25a.86.86 0 0 0-.32.72c0 .27.08.48.24.63.16.14.38.27.66.37l.96.33c.34.11.65.25.93.4.27.17.49.38.65.64.16.26.25.59.25.99a1.92 1.92 0 0 1-1.08 1.73c-.36.19-.81.28-1.33.28Zm7.19 0c-.5 0-.96-.1-1.36-.3-.4-.2-.72-.5-.96-.9s-.35-.93-.35-1.55v-4.37h1.06v4.38c0 .61.14 1.06.44 1.35.29.28.69.43 1.19.43.49 0 .88-.15 1.18-.43.29-.29.44-.74.44-1.35v-4.38h1.06v4.37c0 .63-.13 1.14-.37 1.55-.24.4-.57.7-.98.9-.41.2-.86.3-1.35.3Zm5.06-.12v-7h2.41c.55 0 1 .1 1.36.28.36.19.62.44.8.76a2.17 2.17 0 0 1-.09 2.23c-.23.35-.59.6-1.07.76l1.49 2.97h-1.23l-1.36-2.82H1095v2.82h-1.06Zm1.06-3.62h1.29c.48 0 .83-.12 1.05-.35.22-.23.34-.54.34-.91 0-.38-.11-.67-.33-.9-.22-.22-.58-.33-1.07-.33H1095v2.49Zm6.02 3.62v-7h4.45v.86h-3.39v2.18h3.09v.84h-3.09v2.26h3.39v.86h-4.45Z" fill="#fff"/><circle cx="1026.74" cy="147.06" r="3.37" transform="rotate(-41.07 1026.74 147.06)" fill="#fff"/><circle cx="369.87" cy="147.65" r="3.1" transform="rotate(-.04 369.87 147.65)" fill="#fff" stroke="#fff" stroke-width=".53" stroke-dasharray="2.64 2.64"/><circle cx="369.58" cy="147.58" r="7.95" transform="rotate(-41.07 369.58 147.58)" stroke="#fff" stroke-width=".53"/></g><defs><linearGradient id="c" x1="364.75" y1="-74.38" x2="841.47" y2="29" gradientUnits="userSpaceOnUse"><stop stop-color="#36F2B9"/><stop offset=".6" stop-color="#7878F9"/><stop offset="1" stop-color="#F60994"/></linearGradient><linearGradient id="d" x1="383.97" y1="-333.85" x2="1068.86" y2="-170.95" gradientUnits="userSpaceOnUse"><stop offset=".41" stop-color="#7878F9"/><stop offset=".97" stop-color="#F60994"/></linearGradient><filter id="b" x="450.12" y="29.89" width="231.4" height="231.4" filterUnits="userSpaceOnUse" color-interpolation-filters="sRGB"><feFlood flood-opacity="0" result="BackgroundImageFix"/><feBlend in="SourceGraphic" in2="BackgroundImageFix" result="shape"/><feColorMatrix in="SourceAlpha" values="0 0 0 0 0 0 0 0 0 0 0 0 0 0 0 0 0 0 127 0" result="hardAlpha"/><feOffset dy=".53"/><feGaussianBlur stdDeviation="20.59"/><feComposite in2="hardAlpha" operator="arithmetic" k2="-1" k3="1"/><feColorMatrix values="0 0 0 0 0.470588 0 0 0 0 0.470588 0 0 0 0 0.976471 0 0 0 0.322115 0"/><feBlend in2="shape" result="effect1_innerShadow_1118_47449"/><feGaussianBlur stdDeviation=".72" result="effect2_foregroundBlur_1118_47449"/></filter></defs></svg>