<svg fill="none" xmlns="http://www.w3.org/2000/svg" viewBox="0 0 684 637"><g filter="url(#a)"><circle cx="229.97" cy="415.65" r="114.03" transform="rotate(-41.07 229.97 415.65)" stroke="#7878F9" stroke-width=".48" stroke-dasharray="2.38 1.91"/></g><circle cx="229.97" cy="415.65" r="114" transform="rotate(-41.07 229.97 415.65)" stroke="#767676" stroke-width=".53" stroke-dasharray="2.64 2.64"/><path d="M443.31 224.49c.6.64 1.2 1.29 1.78 1.95l-.2.17a119.38 119.38 0 0 1 1.75 2l.2-.17 1.69 2.03-.2.17c.55.68 1.1 1.37 1.63 2.06l.2-.16c.55.7 1.08 1.4 1.6 2.1l-.2.16c.52.71 1.03 1.42 1.53 2.14l.22-.16 1.5 2.19-.22.15c.49.72.97 1.46 1.44 2.2l.22-.14c.48.74.94 1.49 1.4 2.24l-.23.14c.45.75.9 1.5 1.34 2.27l.23-.13 1.28 2.3-.23.13c.42.78.83 1.55 1.23 2.33l.24-.12 1.17 2.37-.23.11 1.12 2.39.24-.11c.36.8.72 1.6 1.06 2.42l-.24.1c.35.81.68 1.62 1 2.44l.25-.1c.33.82.65 1.64.95 2.46l-.24.1.89 2.48.25-.09c.29.83.56 1.67.83 2.5l-.25.09c.27.83.53 1.68.78 2.52l.25-.08.72 2.54-.26.07c.23.85.45 1.7.66 2.56l.26-.07.6 2.57-.26.06.54 2.58.26-.05c.17.87.33 1.73.48 2.6l-.26.05c.15.86.29 1.73.41 2.6l.26-.04c.13.87.25 1.74.36 2.62l-.26.03c.11.87.21 1.75.3 2.62l.26-.03c.1.88.17 1.76.24 2.63l-.26.03.17 2.63.26-.02c.05.88.1 1.76.12 2.64h-.26c.03.89.04 1.77.05 2.64h.27l-.01 2.64h-.26l-.07 2.64h.26c-.03.89-.07 1.76-.12 2.64l-.27-.01c-.05.88-.11 1.75-.18 2.63l.26.02c-.07.88-.16 1.75-.25 2.63l-.26-.03-.3 2.62.25.03c-.11.88-.23 1.75-.37 2.62l-.26-.04c-.13.87-.27 1.74-.42 2.6l.26.05c-.16.87-.32 1.73-.5 2.6l-.25-.06c-.17.86-.36 1.72-.55 2.58l.26.06-.6 2.57-.26-.06-.67 2.55.26.07-.73 2.54-.25-.08c-.25.85-.51 1.69-.78 2.52l.25.08c-.27.84-.55 1.68-.84 2.5l-.25-.08c-.29.83-.59 1.66-.9 2.48l.25.1c-.3.82-.63 1.64-.96 2.45l-.24-.1-1.01 2.44.24.1c-.35.81-.7 1.62-1.07 2.42l-.24-.1c-.36.8-.74 1.59-1.12 2.38l.24.11-1.18 2.37-.24-.12c-.4.78-.8 1.56-1.23 2.33l.24.12c-.42.78-.85 1.55-1.3 2.31l-.22-.13c-.44.76-.88 1.52-1.34 2.27l.23.14c-.46.75-.92 1.5-1.4 2.24l-.22-.14c-.47.74-.95 1.48-1.44 2.2l.22.15c-.49.74-.99 1.46-1.5 2.18l-.21-.15c-.5.72-1.02 1.43-1.54 2.14l.2.15c-.51.71-1.05 1.42-1.59 2.11l-.2-.16c-.54.7-1.09 1.38-1.64 2.06l.2.17c-.55.68-1.12 1.36-1.7 2.03l-.2-.17c-.56.67-1.14 1.33-1.72 1.98l.2.18-1.8 1.96-.18-.18c-.6.63-1.2 1.27-1.82 1.9l.19.18c-.62.63-1.24 1.25-1.88 1.87l-.18-.19-1.9 1.82.18.2c-.65.6-1.3 1.19-1.96 1.77l-.17-.2a92.78 92.78 0 0 1-2 1.75l.17.2-2.03 1.69-.17-.2c-.68.55-1.37 1.1-2.06 1.63l.16.21-2.1 1.6-.16-.21c-.7.52-1.42 1.03-2.13 1.54l.15.21c-.72.51-1.45 1.01-2.18 1.5l-.15-.21c-.73.49-1.46.97-2.2 1.44l.14.22c-.74.48-1.5.94-2.24 1.4l-.14-.23c-.75.46-1.5.9-2.27 1.34l.13.23-2.3 1.3-.13-.24c-.77.43-1.55.84-2.33 1.24l.12.23-2.36 1.19-.11-.24-2.39 1.13.11.23c-.8.37-1.6.73-2.41 1.08l-.1-.25c-.81.35-1.63.7-2.44 1.02l.1.25-2.46.95-.1-.24-2.47.9.08.25c-.83.29-1.66.57-2.5.84l-.08-.25-2.52.79.08.25c-.84.25-1.7.5-2.54.72l-.07-.25c-.85.23-1.7.46-2.55.67l.06.25c-.85.22-1.7.42-2.57.61l-.05-.25-2.58.55.05.25c-.87.18-1.73.34-2.6.5l-.04-.27c-.87.16-1.74.3-2.6.43l.03.26c-.87.14-1.74.26-2.61.38l-.03-.27c-.88.12-1.75.22-2.62.31l.02.26c-.87.1-1.75.18-2.63.25l-.02-.26c-.87.07-1.75.14-2.63.19l.02.26c-.88.06-1.76.1-2.64.13l-.01-.26-2.64.07v.26c-.87.01-1.75.02-2.63 0v-.26c-.88 0-1.76-.02-2.64-.05v.26c-.88-.02-1.76-.06-2.64-.11l.01-.26c-.88-.05-1.75-.11-2.63-.18l-.02.26c-.88-.06-1.76-.14-2.63-.23l.02-.26-2.62-.3-.03.26c-.87-.1-1.74-.22-2.62-.35l.04-.26c-.87-.13-1.74-.27-2.6-.42l-.05.26c-.86-.15-1.73-.3-2.6-.47l.06-.26c-.87-.17-1.73-.35-2.59-.54l-.05.26-2.58-.6.07-.25c-.86-.2-1.7-.43-2.56-.65l-.07.25c-.85-.23-1.7-.46-2.54-.71l.07-.26c-.84-.24-1.68-.5-2.52-.77l-.08.26-2.5-.83.08-.25c-.83-.29-1.66-.58-2.48-.9l-.1.26c-.82-.3-1.64-.62-2.46-.95l.1-.24-2.44-1-.1.24-2.43-1.06.11-.24c-.8-.36-1.6-.73-2.39-1.11l-.11.23c-.8-.38-1.58-.77-2.37-1.17l.12-.23c-.78-.4-1.56-.8-2.33-1.23l-.13.24-2.31-1.28.13-.23-2.28-1.33-.13.22c-.76-.45-1.5-.91-2.25-1.38l.14-.23c-.74-.47-1.48-.94-2.21-1.43l-.15.22c-.73-.5-1.46-.99-2.18-1.5l.15-.21c-.71-.5-1.43-1.01-2.14-1.54l-.15.22a111 111 0 0 1-2.11-1.6l.16-.2c-.7-.54-1.38-1.08-2.07-1.64l-.16.2c-.69-.55-1.37-1.11-2.04-1.68l.17-.2-1.99-1.73-.17.2-1.96-1.79.18-.2a112 112 0 0 1-1.9-1.8l-.18.18c-.63-.61-1.26-1.24-1.88-1.87l.2-.19c-.62-.62-1.22-1.25-1.82-1.9l-.2.18c-.6-.64-1.2-1.3-1.78-1.95l.2-.18a140.97 140.97 0 0 1-1.74-2l-.2.18-1.7-2.03.21-.17c-.55-.68-1.1-1.37-1.63-2.06l-.21.16c-.55-.7-1.08-1.4-1.6-2.11l.21-.16c-.52-.7-1.03-1.41-1.54-2.13l-.21.15c-.51-.72-1.01-1.45-1.5-2.18l.22-.15c-.5-.73-.97-1.46-1.44-2.2l-.23.14-1.4-2.25.24-.13-1.34-2.27-.23.13-1.29-2.31.23-.13c-.42-.77-.83-1.55-1.23-2.33l-.23.12c-.4-.78-.8-1.57-1.18-2.36l.24-.12c-.38-.79-.76-1.58-1.12-2.38l-.24.1c-.37-.8-.72-1.6-1.07-2.41l.24-.1c-.34-.81-.68-1.63-1-2.44l-.25.1-.95-2.47.25-.09-.9-2.48-.24.09a113 113 0 0 1-.84-2.5l.25-.09c-.27-.84-.52-1.68-.77-2.52l-.26.07c-.25-.84-.49-1.69-.72-2.54l.26-.06c-.23-.85-.45-1.7-.66-2.56l-.25.06c-.21-.85-.41-1.7-.6-2.57l.26-.06c-.2-.85-.37-1.71-.54-2.58l-.26.05c-.17-.86-.33-1.73-.48-2.6l.26-.04c-.15-.87-.29-1.73-.42-2.6l-.26.04c-.13-.87-.25-1.75-.36-2.62l.26-.03-.3-2.62-.26.02c-.09-.87-.17-1.75-.23-2.63l.26-.02c-.07-.87-.13-1.75-.18-2.63l-.26.02-.12-2.64.27-.01a116 116 0 0 1-.06-2.64h-.26v-2.64h.27l.06-2.63h-.26c.03-.89.07-1.77.13-2.65l.26.02c.05-.88.12-1.75.19-2.63l-.27-.02.25-2.63.26.02.31-2.61-.26-.04c.11-.87.24-1.74.37-2.61l.26.04c.13-.87.28-1.74.43-2.6l-.26-.05c.15-.87.31-1.73.49-2.6l.25.05.55-2.58-.26-.05.61-2.57.26.06c.2-.85.43-1.7.66-2.55l-.25-.07c.23-.85.47-1.7.72-2.54l.26.07c.25-.84.5-1.68.78-2.51l-.26-.09.85-2.5.24.09.9-2.48-.25-.1.96-2.46.25.1c.32-.81.66-1.63 1-2.44l-.24-.1c.35-.8.7-1.61 1.07-2.41l.24.1c.36-.8.74-1.59 1.12-2.38l-.23-.12c.38-.79.77-1.58 1.17-2.36l.24.12c.4-.78.81-1.56 1.23-2.33l-.23-.13c.42-.77.85-1.54 1.29-2.3l.22.13 1.34-2.27-.22-.14c.45-.75.92-1.5 1.39-2.25l.22.15c.47-.74.95-1.48 1.44-2.21l-.22-.15 1.5-2.18.22.16a110 110 0 0 1 1.54-2.14l-.22-.16 1.6-2.1.21.16c.54-.7 1.08-1.38 1.64-2.07l-.2-.16c.55-.69 1.11-1.36 1.69-2.04l.2.17c.56-.66 1.14-1.32 1.73-1.98l-.2-.17c.59-.66 1.18-1.31 1.79-1.96l.19.18c.6-.64 1.2-1.27 1.82-1.9l-.2-.18c.62-.63 1.25-1.26 1.88-1.87l.18.19c.63-.62 1.26-1.22 1.9-1.82l-.17-.2a119 119 0 0 1 1.95-1.78l.18.2a140.97 140.97 0 0 1 2-1.74l-.18-.2c.68-.57 1.35-1.14 2.04-1.7l.16.21c.68-.55 1.37-1.1 2.06-1.63l-.16-.21c.7-.54 1.4-1.08 2.1-1.6l.17.21c.7-.52 1.41-1.04 2.13-1.54l-.15-.22 2.18-1.5.14.22c.73-.49 1.47-.97 2.2-1.44l-.14-.22c.75-.48 1.5-.94 2.25-1.4l.13.22 2.27-1.34-.13-.23c.77-.44 1.53-.87 2.3-1.29l.13.23c.78-.42 1.55-.83 2.33-1.23l-.12-.24c.78-.4 1.57-.8 2.36-1.18l.12.24c.79-.39 1.58-.76 2.38-1.13l-.1-.24 2.4-1.07.11.24c.8-.35 1.62-.68 2.43-1.01l-.1-.25c.82-.33 1.64-.65 2.47-.96l.09.25c.82-.31 1.65-.61 2.48-.9l-.09-.25c.83-.3 1.67-.57 2.5-.84l.08.25c.84-.27 1.68-.54 2.52-.79l-.07-.25c.84-.25 1.69-.5 2.53-.73l.07.26c.85-.24 1.7-.46 2.56-.67l-.07-.26c.86-.21 1.71-.41 2.57-.6l.06.25c.86-.2 1.72-.38 2.58-.55l-.05-.26 2.6-.49.04.26c.86-.15 1.73-.3 2.6-.43l-.04-.26 2.62-.37.03.26c.87-.1 1.74-.21 2.62-.3l-.03-.27c.88-.1 1.75-.18 2.63-.25l.02.27c.88-.08 1.75-.14 2.63-.2l-.01-.26c.87-.05 1.75-.1 2.63-.13l.01.27c.88-.03 1.76-.06 2.64-.07v-.26c.88-.02 1.76-.02 2.64-.01v.26l2.63.06v-.27c.89.03 1.77.07 2.65.12l-.02.26c.88.05 1.76.1 2.63.18l.03-.27 2.63.24-.03.26c.88.09 1.75.19 2.62.3l.03-.27c.88.11 1.75.23 2.62.36l-.04.26c.87.13 1.74.27 2.6.42l.05-.26c.87.14 1.73.3 2.6.47l-.05.26 2.58.53.06-.25c.86.19 1.71.38 2.57.6l-.06.25c.85.2 1.7.42 2.55.65l.07-.25c.85.22 1.7.46 2.54.7l-.07.26c.84.25 1.68.5 2.52.77l.08-.25c.84.27 1.68.54 2.5.83l-.08.25c.83.29 1.66.58 2.49.89l.09-.25c.82.3 1.65.62 2.46.94l-.1.25c.82.32 1.64.66 2.45 1l.1-.24c.81.34 1.62.7 2.42 1.06l-.1.24c.8.36 1.59.73 2.38 1.11l.12-.24c.79.38 1.58.77 2.36 1.17l-.12.24c.79.4 1.56.8 2.34 1.22l.12-.23c.78.42 1.55.84 2.31 1.28l-.13.23c.77.43 1.53.88 2.28 1.33l.14-.22c.75.45 1.5.91 2.24 1.38l-.14.22c.74.47 1.48.95 2.21 1.44l.15-.22c.73.49 1.46.99 2.18 1.5l-.15.2 2.14 1.54.16-.2c.7.51 1.41 1.04 2.1 1.58l-.15.21c.7.54 1.38 1.08 2.06 1.64l.17-.2c.68.55 1.36 1.1 2.03 1.68l-.17.2 1.99 1.73.17-.2c.66.59 1.31 1.18 1.96 1.79l-.18.19a112 112 0 0 1 1.9 1.81l.19-.18c.63.61 1.25 1.23 1.87 1.87l-.19.18 1.82 1.9.2-.17Z" stroke="#767676" stroke-width=".53" stroke-dasharray="2.64 2.64"/><circle cx="490.42" cy="188.7" r="113.92" transform="rotate(-41.07 490.42 188.7)" stroke="#767676" stroke-width=".53" stroke-dasharray="2.64 2.64"/><path d="M605.93 84.1c.65.63 1.29 1.28 1.9 1.95l-.19.18a47.98 47.98 0 0 1 1.8 2.06l.2-.17c.58.7 1.14 1.42 1.68 2.15l-.22.16c.54.73 1.06 1.48 1.55 2.23l.22-.14c.5.76.98 1.54 1.43 2.32l-.22.13c.45.8.88 1.59 1.29 2.4l.23-.13c.41.82.8 1.65 1.17 2.48l-.25.1c.37.84.7 1.68 1.02 2.52l.25-.09c.32.86.61 1.72.88 2.59l-.25.08c.26.86.5 1.73.73 2.61l.25-.06c.22.88.42 1.77.59 2.67l-.26.05c.17.89.31 1.78.43 2.68l.26-.04c.12.9.22 1.81.29 2.72l-.27.02c.07.9.12 1.81.13 2.72l.27-.01c.02.91.01 1.82-.02 2.73h-.26c-.04.9-.1 1.8-.17 2.7l.26.03c-.08.9-.2 1.8-.33 2.71l-.26-.04c-.13.9-.29 1.79-.47 2.68l.26.05c-.18.9-.4 1.78-.63 2.66l-.25-.07c-.23.88-.49 1.75-.77 2.6l.25.09c-.28.87-.59 1.72-.92 2.57l-.24-.1c-.33.85-.68 1.68-1.06 2.5l.24.12c-.38.83-.78 1.64-1.2 2.45l-.24-.12c-.42.8-.87 1.59-1.33 2.36l.22.14a47.4 47.4 0 0 1-1.48 2.3l-.21-.15c-.51.74-1.05 1.48-1.6 2.2l.21.16c-.55.72-1.13 1.42-1.73 2.11l-.2-.17c-.59.68-1.2 1.35-1.83 2l.19.19c-.63.65-1.28 1.28-1.96 1.9l-.18-.19a52.41 52.41 0 0 1-2.05 1.79l.17.2c-.71.58-1.43 1.14-2.16 1.68l-.16-.21c-.73.53-1.47 1.05-2.23 1.54l.14.22c-.76.5-1.54.97-2.33 1.42l-.13-.23c-.79.46-1.59.88-2.4 1.28l.12.24c-.82.4-1.64.8-2.48 1.15l-.1-.24c-.84.35-1.68.69-2.53 1l.1.24c-.87.31-1.73.6-2.6.86l-.08-.25c-.87.26-1.74.5-2.62.7l.06.26c-.89.21-1.78.4-2.67.56l-.05-.26c-.9.16-1.79.3-2.69.4l.04.27c-.9.1-1.82.2-2.72.25l-.02-.26c-.9.06-1.81.1-2.72.1v.26c-.9.01-1.81 0-2.73-.05l.02-.26c-.9-.04-1.81-.1-2.71-.2l-.03.26c-.9-.1-1.8-.21-2.7-.35l.03-.26c-.89-.15-1.78-.31-2.67-.5l-.05.25c-.9-.2-1.78-.4-2.65-.65l.07-.26c-.88-.24-1.74-.5-2.6-.8l-.09.26c-.86-.3-1.71-.6-2.56-.95l.1-.24c-.84-.34-1.67-.7-2.5-1.08l-.1.24c-.83-.39-1.64-.8-2.45-1.23l.13-.23a48.2 48.2 0 0 1-2.36-1.35l-.14.22c-.77-.47-1.54-.97-2.29-1.49l.15-.22a48.73 48.73 0 0 1-2.19-1.6l-.16.2a49.27 49.27 0 0 1-2.1-1.73l.16-.2a49.3 49.3 0 0 1-2-1.84l-.18.2a51.1 51.1 0 0 1-1.9-1.97l.2-.18a55.55 55.55 0 0 1-1.8-2.05l-.2.17c-.58-.7-1.14-1.43-1.68-2.16l.21-.15a48.62 48.62 0 0 1-1.55-2.23l-.22.14c-.5-.77-.98-1.54-1.43-2.33l.23-.13c-.45-.78-.89-1.58-1.3-2.39l-.23.12c-.41-.81-.8-1.64-1.16-2.47l.24-.1c-.36-.84-.7-1.68-1.02-2.53l-.24.1c-.32-.86-.62-1.72-.88-2.6l.25-.07c-.27-.87-.51-1.74-.73-2.62l-.26.07c-.22-.89-.41-1.78-.58-2.67l.26-.05c-.17-.9-.32-1.78-.44-2.68l-.26.03c-.12-.9-.21-1.8-.28-2.71l.26-.02c-.07-.9-.11-1.81-.13-2.72h-.26c-.02-.9-.02-1.81.01-2.72h.27c.03-.9.09-1.8.17-2.7l-.26-.03c.08-.9.19-1.81.32-2.71l.26.03c.13-.9.3-1.78.47-2.67l-.25-.05c.18-.9.39-1.78.62-2.66l.25.06c.24-.87.5-1.74.77-2.6l-.25-.08c.28-.87.6-1.73.92-2.58l.25.1c.33-.84.68-1.68 1.06-2.5l-.24-.11c.37-.83.77-1.65 1.2-2.45l.23.12c.43-.8.87-1.59 1.34-2.37l-.23-.13c.47-.78.97-1.55 1.48-2.3l.22.15c.5-.75 1.04-1.48 1.6-2.2l-.22-.16c.56-.72 1.13-1.43 1.73-2.12l.2.18c.6-.69 1.2-1.35 1.84-2l-.2-.19c.64-.65 1.29-1.29 1.96-1.9l.18.19a47.89 47.89 0 0 1 2.06-1.8l-.17-.2c.7-.58 1.42-1.14 2.15-1.67l.16.21c.74-.54 1.48-1.05 2.24-1.54l-.15-.22c.77-.5 1.55-.98 2.33-1.43l.13.23c.8-.45 1.6-.88 2.4-1.28l-.12-.23c.82-.41 1.65-.8 2.48-1.15l.1.24c.84-.36 1.68-.7 2.53-1l-.09-.25c.86-.3 1.73-.6 2.6-.86l.07.26c.87-.26 1.75-.5 2.63-.7l-.07-.26c.9-.22 1.78-.4 2.68-.56l.04.26c.9-.16 1.8-.3 2.69-.4l-.03-.27c.9-.11 1.81-.2 2.72-.26l.02.27c.9-.06 1.8-.1 2.71-.1v-.27c.9 0 1.82.01 2.73.05l-.01.27c.9.04 1.8.1 2.7.2l.03-.26c.91.09 1.81.2 2.71.35l-.04.26c.9.14 1.79.31 2.67.5l.06-.26c.89.2 1.77.42 2.65.66l-.07.25c.87.24 1.74.5 2.6.8l.08-.25c.86.29 1.72.6 2.56.94l-.1.25c.85.33 1.68.7 2.5 1.08l.11-.24c.83.38 1.64.8 2.44 1.22l-.12.24c.8.42 1.58.88 2.35 1.35l.14-.23c.78.48 1.54.97 2.3 1.5l-.16.21c.75.51 1.47 1.05 2.2 1.6l.16-.2a49 49 0 0 1 2.1 1.74l-.17.2c.68.59 1.35 1.2 2 1.84l.18-.2Z" stroke="#767676" stroke-width=".53" stroke-dasharray="2.64 2.64"/><circle cx="82.91" cy="545.78" r="7.95" transform="rotate(-41.07 82.9 545.78)" stroke="#767676" stroke-width=".53" stroke-dasharray="2.64 2.64"/><path d="M82.9 545.78 577.5 114.8m0 0-27.31-1.94m27.3 1.94-1.8 27.32" stroke="#767676" stroke-width=".53"/><circle cx="82.75" cy="545.75" r="3.37" transform="rotate(-41.07 82.75 545.75)" fill="#fff"/><defs><filter id="a" x="114.27" y="299.95" width="231.41" height="231.41" filterUnits="userSpaceOnUse" color-interpolation-filters="sRGB"><feFlood flood-opacity="0" result="BackgroundImageFix"/><feBlend in="SourceGraphic" in2="BackgroundImageFix" result="shape"/><feColorMatrix in="SourceAlpha" values="0 0 0 0 0 0 0 0 0 0 0 0 0 0 0 0 0 0 127 0" result="hardAlpha"/><feOffset dy=".53"/><feGaussianBlur stdDeviation="20.59"/><feComposite in2="hardAlpha" operator="arithmetic" k2="-1" k3="1"/><feColorMatrix values="0 0 0 0 0.470588 0 0 0 0 0.470588 0 0 0 0 0.976471 0 0 0 0.322115 0"/><feBlend in2="shape" result="effect1_innerShadow_431_8290"/><feGaussianBlur stdDeviation=".72" result="effect2_foregroundBlur_431_8290"/></filter></defs></svg>