<?xml version="1.0" encoding="UTF-8"?>
<svg width="503px" height="377px" viewBox="0 0 503 377" version="1.1" xmlns="http://www.w3.org/2000/svg" xmlns:xlink="http://www.w3.org/1999/xlink">
    <!-- Generator: sketchtool 62 (101010) - https://sketch.com -->
    <title>45DB5E83-8264-471C-B30F-ED3A426975F1@1x</title>
    <desc>Created with sketchtool.</desc>
    <defs>
        <circle id="path-1" cx="320" cy="188" r="188"></circle>
        <mask id="mask-2" maskContentUnits="userSpaceOnUse" maskUnits="objectBoundingBox" x="0" y="0" width="376" height="376" fill="white">
            <use xlink:href="#path-1"></use>
        </mask>
        <circle id="path-3" cx="320" cy="188" r="188"></circle>
        <filter x="-0.8%" y="-0.8%" width="101.6%" height="101.6%" filterUnits="objectBoundingBox" id="filter-4">
            <feGaussianBlur stdDeviation="1" in="SourceGraphic"></feGaussianBlur>
        </filter>
        <filter x="-11.3%" y="-11.3%" width="122.6%" height="122.6%" filterUnits="objectBoundingBox" id="filter-5">
            <feGaussianBlur stdDeviation="39" in="SourceAlpha" result="shadowBlurInner1"></feGaussianBlur>
            <feOffset dx="0" dy="1" in="shadowBlurInner1" result="shadowOffsetInner1"></feOffset>
            <feComposite in="shadowOffsetInner1" in2="SourceAlpha" operator="arithmetic" k2="-1" k3="1" result="shadowInnerInner1"></feComposite>
            <feColorMatrix values="0 0 0 0 0.470588235   0 0 0 0 0.470588235   0 0 0 0 0.976470588  0 0 0 0.322115385 0" type="matrix" in="shadowInnerInner1"></feColorMatrix>
        </filter>
        <mask id="mask-6" maskContentUnits="userSpaceOnUse" maskUnits="objectBoundingBox" x="0" y="0" width="376" height="376" fill="white">
            <use xlink:href="#path-3"></use>
        </mask>
    </defs>
    <g id="UI" stroke="none" stroke-width="1" fill="none" fill-rule="evenodd">
        <g id="B.1.0---Competenze" transform="translate(-724.000000, -1574.000000)">
            <g id="Element/workflow/learn" transform="translate(719.000000, 1571.000000)">
                <g transform="translate(-2.000000, 5.000000)">
                    <g id="problemRisorsa-1" transform="translate(0.000000, 54.000000)" fill="#FFFFFF" font-family="LexendDeca-Regular, Lexend Deca" font-size="20.7" font-weight="normal">
                        <text id="P" transform="translate(85.436439, 23.360911) rotate(-23.498566) translate(-85.436439, -23.360911) ">
                            <tspan x="78.6648739" y="31.3609107">P</tspan>
                        </text>
                        <text id="r" transform="translate(95.931673, 19.419458) rotate(-18.300000) translate(-95.931673, -19.419458) ">
                            <tspan x="91.4316727" y="27.4194578">r</tspan>
                        </text>
                        <text id="o" transform="translate(106.017812, 16.658774) rotate(-13.339249) translate(-106.017812, -16.658774) ">
                            <tspan x="99.2887699" y="24.6587737">o</tspan>
                        </text>
                        <text id="b" transform="translate(119.000808, 14.381539) rotate(-6.911227) translate(-119.000808, -14.381539) ">
                            <tspan x="112.269396" y="22.3815392">b</tspan>
                        </text>
                        <text id="l" transform="translate(128.310584, 13.583612) rotate(-2.290610) translate(-128.310584, -13.583612) ">
                            <tspan x="125.608425" y="21.5836125">l</tspan>
                        </text>
                        <text id="e" transform="translate(137.164588, 13.553704) rotate(1.730000) translate(-137.164588, -13.553704) ">
                            <tspan x="130.864588" y="21.5537043">e</tspan>
                        </text>
                        <text id="m" transform="translate(153.373903, 15.074477) rotate(9.180542) translate(-153.373903, -15.074477) ">
                            <tspan x="143.445728" y="23.0744766">m</tspan>
                        </text>
                        <text id="*" transform="translate(172.429504, 20.055804) rotate(19.070000) translate(-172.429504, -20.055804) ">
                            <tspan x="168.379504" y="28.0558036">*</tspan>
                        </text>
                        <text id="P" transform="translate(188.147532, 26.767655) rotate(27.332359) translate(-188.147532, -26.767655) ">
                            <tspan x="181.385056" y="34.7676547">P</tspan>
                        </text>
                        <text id="r" transform="translate(197.854023, 32.407658) rotate(32.550000) translate(-197.854023, -32.407658) ">
                            <tspan x="193.354023" y="40.407658">r</tspan>
                        </text>
                        <text id="o" transform="translate(206.414295, 38.440825) rotate(37.520000) translate(-206.414295, -38.440825) ">
                            <tspan x="199.664295" y="46.4408246">o</tspan>
                        </text>
                        <text id="b" transform="translate(216.401611, 47.080657) rotate(43.880000) translate(-216.401611, -47.080657) ">
                            <tspan x="209.651611" y="55.0806573">b</tspan>
                        </text>
                        <text id="l" transform="translate(222.837485, 53.790552) rotate(48.360000) translate(-222.837485, -53.790552) ">
                            <tspan x="220.137485" y="61.7905524">l</tspan>
                        </text>
                        <text id="e" transform="translate(228.472909, 60.632134) rotate(52.520000) translate(-228.472909, -60.632134) ">
                            <tspan x="222.172909" y="68.6321341">e</tspan>
                        </text>
                        <text id="m" transform="translate(237.533819, 74.175690) rotate(60.113473) translate(-237.533819, -74.175690) ">
                            <tspan x="227.599722" y="82.1756904">m</tspan>
                        </text>
                        <text id="*" transform="translate(245.719452, 92.070637) rotate(69.870000) translate(-245.719452, -92.070637) ">
                            <tspan x="241.669452" y="100.070637">*</tspan>
                        </text>
                        <text id="P" transform="translate(250.429520, 108.479254) rotate(78.030000) translate(-250.429520, -108.479254) ">
                            <tspan x="243.67952" y="116.479254">P</tspan>
                        </text>
                        <text id="r" transform="translate(252.180461, 119.545308) rotate(83.088773) translate(-252.180461, -119.545308) ">
                            <tspan x="247.692853" y="127.545308">r</tspan>
                        </text>
                        <text id="o" transform="translate(252.960346, 130.034825) rotate(88.281642) translate(-252.960346, -130.034825) ">
                            <tspan x="246.207309" y="138.034825">o</tspan>
                        </text>
                        <text id="b" transform="translate(252.581855, 143.200789) rotate(94.600000) translate(-252.581855, -143.200789) ">
                            <tspan x="245.831855" y="151.200789">b</tspan>
                        </text>
                        <text id="l" transform="translate(251.505523, 152.491903) rotate(99.180542) translate(-251.505523, -152.491903) ">
                            <tspan x="248.797839" y="160.491903">l</tspan>
                        </text>
                        <text id="e" transform="translate(249.717785, 161.137465) rotate(103.310000) translate(-249.717785, -161.137465) ">
                            <tspan x="243.417785" y="169.137465">e</tspan>
                        </text>
                        <text id="m" transform="translate(244.864774, 176.690215) rotate(111.100000) translate(-244.864774, -176.690215) ">
                            <tspan x="234.964774" y="184.690215">m</tspan>
                        </text>
                        <text id="*" transform="translate(236.232823, 194.366005) rotate(120.668927) translate(-236.232823, -194.366005) ">
                            <tspan x="232.18343" y="202.366005">*</tspan>
                        </text>
                        <text id="P" transform="translate(226.501265, 208.434618) rotate(128.927544) translate(-226.501265, -208.434618) ">
                            <tspan x="219.733401" y="216.434618">P</tspan>
                        </text>
                        <text id="r" transform="translate(219.029464, 216.795678) rotate(134.090000) translate(-219.029464, -216.795678) ">
                            <tspan x="214.529464" y="224.795678">r</tspan>
                        </text>
                        <text id="o" transform="translate(211.383642, 223.980612) rotate(139.060000) translate(-211.383642, -223.980612) ">
                            <tspan x="204.633642" y="231.980612">o</tspan>
                        </text>
                        <text id="b" transform="translate(200.974976, 232.006080) rotate(145.195988) translate(-200.974976, -232.006080) ">
                            <tspan x="194.234095" y="240.00608">b</tspan>
                        </text>
                        <text id="l" transform="translate(193.068527, 236.994543) rotate(149.930000) translate(-193.068527, -236.994543) ">
                            <tspan x="190.368527" y="244.994543">l</tspan>
                        </text>
                        <text id="e" transform="translate(185.234781, 241.148641) rotate(154.120000) translate(-185.234781, -241.148641) ">
                            <tspan x="178.934781" y="249.148641">e</tspan>
                        </text>
                        <text id="m" transform="translate(170.120103, 247.202668) rotate(161.900000) translate(-170.120103, -247.202668) ">
                            <tspan x="160.220103" y="255.202668">m</tspan>
                        </text>
                        <text id="*" transform="translate(150.954884, 251.689046) rotate(171.540000) translate(-150.954884, -251.689046) ">
                            <tspan x="146.904884" y="259.689046">*</tspan>
                        </text>
                        <text id="P" transform="translate(134.018867, 252.995544) rotate(179.070000) translate(-134.018867, -252.995544) ">
                            <tspan x="127.268867" y="260.995544">P</tspan>
                        </text>
                        <text id="r" transform="translate(122.712643, 252.534758) rotate(-175.170000) translate(-122.712643, -252.534758) ">
                            <tspan x="118.212643" y="260.534758">r</tspan>
                        </text>
                        <text id="o" transform="translate(112.302000, 251.163000) rotate(-170.256359) translate(-112.302000, -251.163000) ">
                            <tspan x="105.521693" y="259.054407">o</tspan>
                        </text>
                        <text id="b" transform="translate(99.483902, 248.164552) rotate(-163.770000) translate(-99.483902, -248.164552) ">
                            <tspan x="92.7339017" y="256.164552">b</tspan>
                        </text>
                        <text id="l" transform="translate(90.724500, 245.128500) rotate(-159.376469) translate(-90.724500, -245.128500) ">
                            <tspan x="88.0415639" y="253.160976">l</tspan>
                        </text>
                        <text id="e" transform="translate(82.469756, 241.807528) rotate(-155.224859) translate(-82.469756, -241.807528) ">
                            <tspan x="76.1555972" y="249.807528">e</tspan>
                        </text>
                        <text id="m" transform="translate(68.292849, 233.828680) rotate(-147.264774) translate(-68.292849, -233.828680) ">
                            <tspan x="58.4067184" y="241.82868">m</tspan>
                        </text>
                        <text id="*" transform="translate(52.708283, 221.829621) rotate(-137.842138) translate(-52.708283, -221.829621) ">
                            <tspan x="48.6653763" y="229.829621">*</tspan>
                        </text>
                        <text id="P" transform="translate(40.893135, 209.480919) rotate(-129.660000) translate(-40.893135, -209.480919) ">
                            <tspan x="34.1431351" y="217.480919">P</tspan>
                        </text>
                        <text id="r" transform="translate(34.141942, 200.486577) rotate(-124.370000) translate(-34.141942, -200.486577) ">
                            <tspan x="29.6419421" y="208.486577">r</tspan>
                        </text>
                        <text id="o" transform="translate(28.633787, 191.575767) rotate(-119.380000) translate(-28.633787, -191.575767) ">
                            <tspan x="21.8837872" y="199.575767">o</tspan>
                        </text>
                        <text id="b" transform="translate(22.847357, 179.733130) rotate(-112.970000) translate(-22.847357, -179.733130) ">
                            <tspan x="16.0973569" y="187.73313">b</tspan>
                        </text>
                        <text id="l" transform="translate(19.561357, 170.997380) rotate(-108.420000) translate(-19.561357, -170.997380) ">
                            <tspan x="16.8613569" y="178.99738">l</tspan>
                        </text>
                        <text id="e" transform="translate(17.034618, 162.526511) rotate(-104.452428) translate(-17.034618, -162.526511) ">
                            <tspan x="10.7239166" y="170.526511">e</tspan>
                        </text>
                        <text id="m" transform="translate(14.314500, 146.488500) rotate(-96.340192) translate(-14.314500, -146.488500) ">
                            <tspan x="4.45318558" y="154.489495">m</tspan>
                        </text>
                        <text id="*" transform="translate(13.618280, 126.820189) rotate(-87.137595) translate(-13.618280, -126.820189) ">
                            <tspan x="9.56322107" y="134.820189">*</tspan>
                        </text>
                        <text id="P" transform="translate(15.766570, 109.865855) rotate(-78.900000) translate(-15.766570, -109.865855) ">
                            <tspan x="9.01656976" y="117.865855">P</tspan>
                        </text>
                        <text id="r" transform="translate(18.478620, 98.946657) rotate(-73.540000) translate(-18.478620, -98.946657) ">
                            <tspan x="13.9786196" y="106.946657">r</tspan>
                        </text>
                        <text id="o" transform="translate(21.912079, 89.034441) rotate(-68.510000) translate(-21.912079, -89.034441) ">
                            <tspan x="15.1620794" y="97.0344407">o</tspan>
                        </text>
                        <text id="b" transform="translate(27.527479, 77.098409) rotate(-61.893730) translate(-27.527479, -77.098409) ">
                            <tspan x="20.7933603" y="85.0984093">b</tspan>
                        </text>
                        <text id="l" transform="translate(32.144644, 69.030684) rotate(-57.580000) translate(-32.144644, -69.030684) ">
                            <tspan x="29.4446436" y="77.0306843">l</tspan>
                        </text>
                        <text id="e" transform="translate(37.229000, 61.719000) rotate(-53.130102) translate(-37.229000, -61.719000) ">
                            <tspan x="30.929" y="69.719">e</tspan>
                        </text>
                        <text id="m" transform="translate(47.790000, 49.356000) rotate(-45.806929) translate(-47.790000, -49.356000) ">
                            <tspan x="37.848507" y="57.2513046">m</tspan>
                        </text>
                        <text id="*" transform="translate(62.640028, 36.511229) rotate(-36.190000) translate(-62.640028, -36.511229) ">
                            <tspan x="58.5900276" y="44.5112295">*</tspan>
                        </text>
                    </g>
                    <use id="Oval" stroke-opacity="0.997787369" stroke="#7878F9" mask="url(#mask-2)" stroke-width="1.80507519" stroke-dasharray="4.512687921524048,3.610150337219238" xlink:href="#path-1"></use>
                    <g id="problemRisorsa-3" transform="translate(57.000000, 151.000000)" fill-rule="nonzero">
                        <polygon id="Path" fill="#FFD3A9" points="12.82 45.54 13.36 47.54 2.91 50.39 2.37 48.39"></polygon>
                        <path d="M5.12,30.42 C5.86599642,30.3474205 6.61898754,30.4152575 7.34,30.62 C8.68522002,31.0059364 9.80420955,31.9432718 10.42,33.2 C10.760922,33.8874293 10.9647149,34.6346697 11.02,35.4 L11.4,39.52 L0.6,40.52 L0.22,36.39 C0.141044623,35.6275047 0.208935525,34.8569429 0.42,34.12 C0.621004766,33.4464943 0.961748293,32.8229336 1.42,32.29 C1.8524315,31.756001 2.39028816,31.3168649 3,31 C3.66409989,30.6755852 4.3832425,30.4788387 5.12,30.42 L5.12,30.42 Z M5.31,32.48 C4.76921954,32.5187558 4.23864884,32.6471741 3.74,32.86 C3.31347048,33.0436429 2.92894504,33.3124704 2.61,33.65 C2.32880108,33.982902 2.12094757,34.3713495 2,34.79 C1.8636216,35.260438 1.81947832,35.7528054 1.87,36.24 L2,38.34 L9.61,37.64 L9.41,35.54 C9.37318325,35.0497159 9.23348257,34.5726892 9,34.14 C8.79863053,33.7448728 8.50752466,33.4023953 8.15,33.14 C7.7750806,32.8692873 7.3502309,32.6755559 6.9,32.57 C6.37881482,32.4509232 5.84129345,32.4204974 5.31,32.48 Z" id="Shape" fill="#FFD3A9"></path>
                        <polygon id="Path" fill="#FFD3A9" points="0.77 16.63 2.37 16.82 1.83 21.59 4.83 21.93 5.26 18.17 6.8 18.35 6.38 22.11 9.38 22.46 10 17.68 11.6 17.86 10.83 24.66 0 23.43"></polygon>
                        <path d="M15.62,3.5 L15.13,5 C15.0912457,5.1508631 14.9988038,5.28241492 14.87,5.37 C14.7587505,5.44952035 14.6266455,5.49471414 14.49,5.5 L12.13,5.58 L10.73,9.85 L12.58,11.31 C12.8153143,11.4942426 12.9077027,11.8075601 12.81,12.09 L12.32,13.58 L3.32,6.15 L3.96,4.15 L15.62,3.5 Z M9.54,8.89 L10.62,5.61 L6.78,5.74 L6.18,5.74 C5.95,5.74 5.7,5.74 5.44,5.74 L6.05,6.16 C6.24,6.29 6.4,6.42 6.54,6.53 L9.54,8.89 Z" id="Shape" fill="#FFD3A9"></path>
                        <path d="M145,10.87 C144.289451,11.1131532 143.540586,11.2249748 142.79,11.2 C141.391122,11.1469911 140.081385,10.4993989 139.19,9.42 C138.698735,8.82986192 138.325313,8.15091183 138.09,7.42 L136.75,3.5 L147,0 L148.34,3.92 C148.599218,4.64078331 148.718024,5.40453462 148.69,6.17 C148.660384,6.86363195 148.490284,7.5440351 148.19,8.17 C147.885372,8.78772117 147.456406,9.33584406 146.93,9.78 C146.361029,10.2616034 145.706221,10.6314176 145,10.87 Z M144.33,8.92 C144.842747,8.74583515 145.325207,8.49279675 145.76,8.17 C146.130466,7.90155709 146.443306,7.56151315 146.68,7.17 C146.886254,6.76742673 146.99582,6.32231444 147,5.87 C147.025215,5.38413813 146.953839,4.89809875 146.79,4.44 L146.11,2.44 L138.88,4.91 L139.57,6.91 C139.716633,7.37473321 139.958432,7.80384097 140.28,8.17 C140.568644,8.50806141 140.931381,8.77498161 141.34,8.95 C141.768078,9.12609653 142.227139,9.2145082 142.69,9.21 C143.248421,9.19920853 143.801741,9.10136543 144.33,8.92 L144.33,8.92 Z" id="Shape" fill="#7878F9"></path>
                        <polygon id="Path" fill="#7878F9" points="152.43 23.27 150.84 23.46 150.26 18.69 147.26 19.05 147.72 22.81 146.18 23 145.72 19.24 142.72 19.61 143.3 24.39 141.7 24.58 140.87 17.79 151.64 16.48"></polygon>
                        <path d="M150.28,36.38 C150.189397,36.335233 150.113174,36.2659395 150.06,36.18 C150.018961,36.0995723 149.998355,36.0102779 150,35.92 C150.019686,35.8004105 150.067688,35.6872634 150.14,35.59 C150.23,35.47 150.32,35.33 150.43,35.16 C150.542559,34.9750299 150.63956,34.7810296 150.72,34.58 C150.82017,34.324878 150.874341,34.0540243 150.88,33.78 C150.917223,33.5380902 150.917223,33.2919098 150.88,33.05 C150.829463,32.8565579 150.744802,32.6736899 150.63,32.51 C150.522994,32.3624968 150.382467,32.2425345 150.22,32.16 C150.046129,32.081917 149.860043,32.0345498 149.67,32.02 C149.439026,32.0029182 149.209285,32.0665389 149.02,32.2 C148.831799,32.3471152 148.675323,32.5308035 148.56,32.74 C148.413048,32.9881249 148.289195,33.2492214 148.19,33.52 L147.83,34.42 C147.702842,34.7242135 147.559299,35.0213155 147.4,35.31 C147.243475,35.5950723 147.044537,35.8547029 146.81,36.08 C146.571323,36.3076507 146.288969,36.4845473 145.98,36.6 C145.607617,36.7283141 145.212218,36.7760346 144.82,36.74 C144.350247,36.7144594 143.889219,36.6025923 143.46,36.41 C143.051479,36.2208162 142.687017,35.9483214 142.39,35.61 C142.084561,35.2525284 141.853396,34.8377906 141.71,34.39 C141.553461,33.865195 141.495815,33.3158686 141.54,32.77 C141.558935,32.4320656 141.61255,32.0969719 141.7,31.77 C141.786213,31.4475106 141.899964,31.1330216 142.04,30.83 C142.314667,30.2549296 142.698444,29.7386992 143.17,29.31 L144.1,29.96 C144.167257,30.0207201 144.224615,30.0915743 144.27,30.17 C144.312362,30.2496918 144.329783,30.3402803 144.32,30.43 C144.303713,30.5760333 144.240561,30.7128622 144.14,30.82 L143.77,31.32 C143.624704,31.5322417 143.497586,31.7563709 143.39,31.99 C143.261075,32.2907053 143.189837,32.6129701 143.18,32.94 C143.113978,33.4187571 143.231901,33.9047429 143.51,34.3 C143.787696,34.64452 144.20751,34.8433791 144.65,34.84 C144.899172,34.8666326 145.149911,34.8065965 145.36,34.67 C145.560049,34.5270884 145.727137,34.342951 145.85,34.13 C145.993313,33.8814074 146.113806,33.62034 146.21,33.35 C146.31,33.0566667 146.42,32.7566667 146.54,32.45 C146.658142,32.1451451 146.795071,31.8479082 146.95,31.56 C147.107527,31.2758485 147.310166,31.0191725 147.55,30.8 C147.7993,30.5662106 148.096027,30.3888561 148.42,30.28 C148.826846,30.1515852 149.254889,30.1040249 149.68,30.14 C150.076791,30.1667504 150.464304,30.2721267 150.82,30.45 C151.186382,30.6296239 151.51025,30.8853091 151.77,31.2 C152.058841,31.5345524 152.273552,31.926485 152.4,32.35 C152.554881,32.8408757 152.615945,33.3565263 152.58,33.87 C152.546765,34.4728272 152.407993,35.0651446 152.17,35.62 C151.957086,36.1213481 151.644022,36.5739296 151.25,36.95 L150.28,36.38 Z" id="Path" fill="#7878F9"></path>
                        <polygon id="Path" fill="#7878F9" points="140 44 140.44 42 151 44.38 150.57 46.38"></polygon>
                        <path d="M137.87,55.21 C137.71267,55.5754669 137.598563,55.9580588 137.53,56.35 C137.479916,56.6808208 137.463166,57.0158333 137.48,57.35 L139.3,58.11 L139.82,56.85 C139.855985,56.7424244 139.935954,56.6551864 140.04,56.61 C140.132639,56.5705389 140.237361,56.5705389 140.33,56.61 L141.33,57.04 L140,60.4 L136,58.72 C135.916734,58.39215 135.863184,58.057463 135.84,57.72 C135.810755,57.3873081 135.810755,57.0526919 135.84,56.72 C135.882446,56.35111 135.956042,55.9864749 136.06,55.63 C136.171552,55.2316482 136.308499,54.8408485 136.47,54.46 C136.748681,53.7649088 137.163471,53.1325239 137.69,52.6 C138.177434,52.0991326 138.762975,51.7042323 139.41,51.44 C140.061728,51.1798694 140.758336,51.050742 141.46,51.06 C142.223811,51.0771999 142.977309,51.2401184 143.68,51.54 C144.391732,51.8254614 145.043148,52.2427748 145.6,52.77 C146.648745,53.7447438 147.218692,55.1294245 147.16,56.56 C147.129558,57.3553427 146.953301,58.1383313 146.64,58.87 C146.359755,59.6127998 145.934881,60.2925975 145.39,60.87 C144.936664,61.3443303 144.397023,61.7278485 143.8,62 L143.18,61.11 C143.052893,60.9637575 143.021721,60.7572441 143.1,60.58 C143.15335,60.4610732 143.240232,60.3602906 143.35,60.29 L143.8,59.95 C143.958747,59.8232278 144.105985,59.6826817 144.24,59.53 C144.584255,59.1270988 144.861156,58.6712253 145.06,58.18 C145.253079,57.7241974 145.354999,57.2349856 145.36,56.74 C145.36499,56.2836699 145.265807,55.8322155 145.07,55.42 C144.869549,54.9960281 144.583556,54.6181088 144.23,54.31 C143.828641,53.9560009 143.368344,53.6750846 142.87,53.48 C142.347864,53.2504892 141.789272,53.1150728 141.22,53.08 C140.737004,53.0452867 140.252274,53.1169721 139.8,53.29 C139.370824,53.4510605 138.981828,53.7035667 138.66,54.03 C138.323533,54.3691154 138.055341,54.7697069 137.87,55.21 Z" id="Path" fill="#7878F9"></path>
                        <path d="M140.38,70.46 C140.344063,70.5046065 140.29994,70.5419416 140.25,70.57 C140.199861,70.5976583 140.145962,70.6178703 140.09,70.63 L139.87,70.63 L130.66,71.07 L131.1,71.33 L131.49,71.6 L136.86,75.41 L135.86,76.86 L127,70.6 L127.61,69.75 C127.686657,69.6379485 127.785329,69.5426799 127.9,69.47 C128.022571,69.4039225 128.160939,69.3727895 128.3,69.38 L137.47,68.94 C137.33,68.86 137.19,68.78 137.06,68.69 L136.7,68.45 L131.27,64.59 L132.27,63.14 L141.11,69.43 L140.5,70.29 L140.38,70.46 Z" id="Path" fill="#7878F9"></path>
                    </g>
                    <g id="Group" transform="translate(391.000000, 156.000000)">
                        <line x1="0" y1="33" x2="93" y2="33" id="Path-5" stroke="#7878F9" stroke-width="4"></line>
                        <g id="right-arrow" transform="translate(65.000000, 0.000000)" fill="#7878F9" fill-rule="nonzero">
                            <polygon id="Path" points="27.3742304 33.5 0.561797753 60.7188032 0.561797753 67 33.5617978 33.5 0.561797753 0 0.561797753 6.28119681"></polygon>
                        </g>
                    </g>
                    <g id="Oval" stroke-dasharray="4.512687921524048,3.610150337219238" filter="url(#filter-4)">
                        <use fill="black" fill-opacity="1" filter="url(#filter-5)" xlink:href="#path-3"></use>
                        <use stroke="#7878F9" mask="url(#mask-6)" stroke-width="1.80507519" xlink:href="#path-3"></use>
                    </g>
                </g>
            </g>
        </g>
    </g>
</svg>