<?xml version="1.0" encoding="UTF-8"?>
<svg width="179px" height="98px" viewBox="0 0 179 98" version="1.1" xmlns="http://www.w3.org/2000/svg" xmlns:xlink="http://www.w3.org/1999/xlink">
    <!-- Generator: sketchtool 62 (101010) - https://sketch.com -->
    <title>2626F695-1102-46D2-91F8-EF28170BBF9E</title>
    <desc>Created with sketchtool.</desc>
    <defs>
        <rect id="path-1" x="0" y="0" width="179" height="98"></rect>
    </defs>
    <g id="Asset-Artboard-Page" stroke="none" stroke-width="1" fill="none" fill-rule="evenodd">
        <g id="element/design/business">
            <g id="Group-23">
                <g>
                    <mask id="mask-2" fill="white">
                        <use xlink:href="#path-1"></use>
                    </mask>
                    <g id="Mask"></g>
                    <g mask="url(#mask-2)">
                        <g transform="translate(0.000000, 7.000000)">
                            <g id="Group-31-Copy-4">
                                <g id="Group-3-Copy-2">
                                    <g id="Group-73-Copy-4" transform="translate(73.000000, 17.000000) scale(1, -1) translate(-73.000000, -17.000000) ">
                                        <polygon id="Fill-6" fill="#36F2B9" points="99 6.76145711 90.4169755 12 90 11.2385429 98.5830245 6"></polygon>
                                        <polygon id="Stroke-7" stroke="#36F2B9" stroke-width="0.5" points="99 6.76145711 90.4169755 12 90 11.2385429 98.5830245 6"></polygon>
                                        <polygon id="Fill-8" fill="#36F2B9" points="77 6.76453318 68.416821 12 68 11.23899 76.583179 6"></polygon>
                                        <polygon id="Stroke-9" stroke="#36F2B9" stroke-width="0.5" points="77 6.76453318 68.416821 12 68 11.23899 76.583179 6"></polygon>
                                        <polygon id="Fill-10" fill="#36F2B9" points="55 6.76145711 46.4169755 12 46 11.2385429 54.5830245 6"></polygon>
                                        <polygon id="Stroke-11" stroke="#36F2B9" stroke-width="0.5" points="55 6.76145711 46.4169755 12 46 11.2385429 54.5830245 6"></polygon>
                                        <polygon id="Fill-12" fill="#36F2B9" points="31 6.76145711 22.4169755 12 22 11.2385429 30.5830245 6"></polygon>
                                        <polygon id="Stroke-13" stroke="#36F2B9" stroke-width="0.5" points="31 6.76145711 22.4169755 12 22 11.2385429 30.5830245 6"></polygon>
                                        <polygon id="Fill-14" fill="#36F2B9" points="9 6.76145711 0.416975537 12 0 11.2385429 8.58302446 6"></polygon>
                                        <polygon id="Stroke-15" stroke="#36F2B9" stroke-width="0.5" points="9 6.76145711 0.416975537 12 0 11.2385429 8.58302446 6"></polygon>
                                        <polygon id="Fill-23" fill="#36F2B9" points="137 33.2350176 137.416976 34 146 28.7614571 145.583024 28"></polygon>
                                        <polygon id="Stroke-24" stroke="#36F2B9" stroke-width="0.5" points="146 28.7645332 137.416976 34 137 33.2354668 145.583024 28"></polygon>
                                        <polygon id="Fill-26" fill="#36F2B9" points="114 33.2350176 114.416976 34 123 28.7614571 122.583024 28"></polygon>
                                        <polygon id="Stroke-27" stroke="#36F2B9" stroke-width="0.5" points="123 28.7645332 114.416976 34 114 33.2354668 122.583024 28"></polygon>
                                        <polygon id="Fill-29" fill="#36F2B9" points="90 33.2350176 90.4169755 34 99 28.7614571 98.5830245 28"></polygon>
                                        <polygon id="Stroke-30" stroke="#36F2B9" stroke-width="0.5" points="99 28.7645332 90.4169755 34 90 33.2354668 98.5830245 28"></polygon>
                                        <polygon id="Fill-32" fill="#36F2B9" points="68 33.2385429 68.416821 34 77 28.7614571 76.583179 28"></polygon>
                                        <polygon id="Stroke-33" stroke="#36F2B9" stroke-width="0.5" points="77 28.7614571 68.416821 34 68 33.2385429 76.583179 28"></polygon>
                                        <polygon id="Fill-35" fill="#36F2B9" points="46 33.2350176 46.4169755 34 55 28.7614571 54.5830245 28"></polygon>
                                        <polygon id="Stroke-36" stroke="#36F2B9" stroke-width="0.5" points="55 28.7645332 46.4169755 34 46 33.2354668 54.5830245 28"></polygon>
                                        <polygon id="Fill-38" fill="#36F2B9" points="22 33.2350176 22.4136397 34 31 28.7614571 30.5830245 28"></polygon>
                                        <polygon id="Stroke-39" stroke="#36F2B9" stroke-width="0.5" points="31 28.7645332 22.4169755 34 22 33.2354668 30.5830245 28"></polygon>
                                        <polygon id="Fill-41" fill="#36F2B9" points="0 33.2350176 0.413639733 34 9 28.7614571 8.58302446 28"></polygon>
                                        <polygon id="Stroke-42" stroke="#36F2B9" stroke-width="0.5" points="9 28.7645332 0.416975537 34 0 33.2354668 8.58302446 28"></polygon>
                                        <polygon id="Fill-55" fill="#FFFFFF" points="98.5830245 0 90 5.23854289 90.4169755 6 99 0.761457109"></polygon>
                                        <polygon id="Fill-56" fill="#FFFFFF" points="76.5765098 0 68 5.23546682 68.416821 6 77 0.761009982 76.583179 0"></polygon>
                                        <polygon id="Fill-57" fill="#FFFFFF" points="54.5830245 0 46 5.23854289 46.4169755 6 55 0.761457109"></polygon>
                                        <polygon id="Fill-58" fill="#FFFFFF" points="30.5830245 0 22 5.23854289 22.4136397 6 31 0.761457109"></polygon>
                                        <polygon id="Fill-59" fill="#FFFFFF" points="8.58302446 0 0 5.23854289 0.413639733 6 9 0.761457109"></polygon>
                                        <polygon id="Fill-63" fill="#FFFFFF" points="137 27.2354668 137.416976 28 146 22.7645332 145.583024 22"></polygon>
                                        <polygon id="Fill-64" fill="#FFFFFF" points="123 22.7645332 114.416976 28 114 27.2354668 122.583024 22"></polygon>
                                        <polygon id="Fill-65" fill="#FFFFFF" points="99 22.7645332 90.4169755 28 90 27.2354668 98.5830245 22"></polygon>
                                        <polygon id="Fill-66" fill="#FFFFFF" points="77 22.7614571 68.416821 28 68 27.2385429 76.583179 22"></polygon>
                                        <polygon id="Fill-67" fill="#FFFFFF" points="55 22.7645332 46.4169755 28 46 27.2354668 54.5830245 22"></polygon>
                                        <polygon id="Fill-68" fill="#FFFFFF" points="31 22.7645332 22.4169755 28 22 27.2354668 30.5830245 22"></polygon>
                                        <polygon id="Fill-69" fill="#FFFFFF" points="9 22.7645332 0.416975537 28 0 27.2354668 8.58302446 22"></polygon>
                                    </g>
                                    <g id="Group-73-Copy-4" transform="translate(38.500000, 61.000000) scale(1, -1) translate(-38.500000, -61.000000) translate(0.000000, 44.000000)">
                                        <polygon id="Fill-8" fill="#36F2B9" points="77 6.76453318 68.416821 12 68 11.23899 76.583179 6"></polygon>
                                        <polygon id="Stroke-9" stroke="#36F2B9" stroke-width="0.5" points="77 6.76453318 68.416821 12 68 11.23899 76.583179 6"></polygon>
                                        <polygon id="Fill-10" fill="#36F2B9" points="55 6.76145711 46.4169755 12 46 11.2385429 54.5830245 6"></polygon>
                                        <polygon id="Stroke-11" stroke="#36F2B9" stroke-width="0.5" points="55 6.76145711 46.4169755 12 46 11.2385429 54.5830245 6"></polygon>
                                        <polygon id="Fill-12" fill="#36F2B9" points="31 6.76145711 22.4169755 12 22 11.2385429 30.5830245 6"></polygon>
                                        <polygon id="Stroke-13" stroke="#36F2B9" stroke-width="0.5" points="31 6.76145711 22.4169755 12 22 11.2385429 30.5830245 6"></polygon>
                                        <polygon id="Fill-14" fill="#36F2B9" points="9 6.76145711 0.416975537 12 0 11.2385429 8.58302446 6"></polygon>
                                        <polygon id="Stroke-15" stroke="#36F2B9" stroke-width="0.5" points="9 6.76145711 0.416975537 12 0 11.2385429 8.58302446 6"></polygon>
                                        <polygon id="Fill-32" stroke="#36F2B9" stroke-width="0.5" fill="#36F2B9" points="68 33.2385429 68.416821 34 77 28.7614571 76.583179 28"></polygon>
                                        <polygon id="Fill-35" stroke="#36F2B9" stroke-width="0.5" fill="#36F2B9" points="46 33.2350176 46.4169755 34 55 28.7614571 54.5830245 28"></polygon>
                                        <polygon id="Fill-38" stroke="#36F2B9" stroke-width="0.5" fill="#36F2B9" points="22 33.2350176 22.4136397 34 31 28.7614571 30.5830245 28"></polygon>
                                        <polygon id="Fill-41" stroke="#36F2B9" stroke-width="0.5" fill="#36F2B9" points="0 33.2350176 0.413639733 34 9 28.7614571 8.58302446 28"></polygon>
                                        <polygon id="Fill-56" fill="#FFFFFF" points="76.5765098 0 68 5.23546682 68.416821 6 77 0.761009982 76.583179 0"></polygon>
                                        <polygon id="Fill-57" fill="#FFFFFF" points="54.5830245 0 46 5.23854289 46.4169755 6 55 0.761457109"></polygon>
                                        <polygon id="Fill-58" fill="#FFFFFF" points="30.5830245 0 22 5.23854289 22.4136397 6 31 0.761457109"></polygon>
                                        <polygon id="Fill-59" fill="#FFFFFF" points="8.58302446 0 0 5.23854289 0.413639733 6 9 0.761457109"></polygon>
                                        <polygon id="Fill-66" fill="#FFFFFF" points="77 22.7614571 68.416821 28 68 27.2385429 76.583179 22"></polygon>
                                        <polygon id="Fill-67" fill="#FFFFFF" points="55 22.7645332 46.4169755 28 46 27.2354668 54.5830245 22"></polygon>
                                        <polygon id="Fill-68" fill="#FFFFFF" points="31 22.7645332 22.4169755 28 22 27.2354668 30.5830245 22"></polygon>
                                        <polygon id="Fill-69" fill="#FFFFFF" points="9 22.7645332 0.416975537 28 0 27.2354668 8.58302446 22"></polygon>
                                    </g>
                                </g>
                            </g>
                            <g id="012-diagram" transform="translate(106.000000, 25.000000)">
                                <path d="M43.2759464,17.3665122 C39.5642437,10.9535553 34.6034091,5.75513085 29.3073413,2.72872543 C23.8466741,-0.391558759 18.655503,-0.852371569 14.6898397,1.43158475 C14.6746894,1.44029383 6.14697893,6.99258871 6.14697893,6.99258871 C2.20429788,9.28422951 0.0216230778,13.9889259 0.000153781166,20.2472967 C-0.020361314,26.3357123 2.01235089,33.2204965 5.72418198,39.6334534 C9.43588468,46.0464103 14.3967193,51.2448348 19.6927871,54.2712402 C22.8667815,56.0849062 25.9493603,57 28.7534554,57 C30.7737135,57 32.6495299,56.5248428 34.3101603,55.568509 C34.6215124,55.3892044 42.8406954,50.0155737 42.8406954,50.0155737 C46.7915936,47.7266225 48.9785053,43.0179557 48.9998462,36.752797 C49.0203613,30.6642533 46.9876491,23.7794692 43.2759464,17.3665122 Z M41.4509735,18.0600368 L34.2834546,22.0881145 C31.0287013,16.7105136 26.8948436,12.2462134 22.4473227,9.28768753 L29.6115034,5.16598718 C34.0700661,8.05471228 38.227548,12.5745969 41.4509735,18.0600368 Z M36.7904492,50.290422 L21.881368,31.603041 L33.5776803,24.7124934 C36.8180536,30.5890735 38.5853783,36.7954459 38.5670333,42.2856245 C38.5561047,45.4741725 37.941746,48.1893564 36.7904492,50.290422 Z M32.6151207,23.0484187 L21.4010512,29.6548965 L21.4010512,10.9002762 C25.5974361,13.6956349 29.5130263,17.9315778 32.6151207,23.0484187 Z M15.6749964,3.08259585 C18.8710743,1.25471358 23.1225396,1.60064337 27.7084678,4.04315619 L20.5788247,8.14500496 C17.5425957,6.44775888 14.5941872,5.57492973 11.8980702,5.54201453 L15.6749964,3.08259585 Z M33.3473439,53.9046904 C30.0004047,55.8323429 25.4911269,55.3703774 20.6500826,52.6042198 C15.6446957,49.7439272 10.936281,44.7964012 7.39200231,38.6728931 C3.84785201,32.549385 1.90668375,26.0079691 1.9260537,20.2538285 C1.94507315,14.6887262 3.79867763,10.5624151 7.14574524,8.63476265 C10.4076885,6.75603471 14.7739369,7.14819948 19.4750332,9.73005758 L19.4750332,31.3379263 C19.4750332,31.5587271 19.5516836,31.7681293 19.6850836,31.9355229 L19.6850836,31.9355229 L35.657641,51.9560337 C34.9932091,52.7459985 34.2216978,53.4011006 33.3473439,53.9046904 Z M41.8543832,48.365203 C41.8391044,48.3739121 41.8242109,48.3831334 41.8094457,48.392739 L38.9609267,50.247517 C39.9551993,48.0323368 40.4823795,45.3480189 40.4926509,42.2920283 C40.5124233,36.4705203 38.6535548,29.9211638 35.2460142,23.7520612 L42.3905508,19.7367909 C45.4360241,25.4450808 47.0917755,31.4311647 47.0738006,36.746009 C47.0550552,42.3112395 45.2014508,46.4375505 41.8543832,48.365203 Z" id="Shape" stroke="#36F2B9" stroke-width="0.8" fill="#36F2B9" fill-rule="nonzero"></path>
                            </g>
                        </g>
                    </g>
                </g>
            </g>
        </g>
    </g>
</svg>