<?xml version="1.0" encoding="UTF-8"?>
<svg width="100px" height="100px" viewBox="0 0 100 100" version="1.1" xmlns="http://www.w3.org/2000/svg" xmlns:xlink="http://www.w3.org/1999/xlink">
    <!-- Generator: sketchtool 62 (101010) - https://sketch.com -->
    <title>891B2A1C-A94D-4F1E-AF04-F8EB6E0AE3A1@1x</title>
    <desc>Created with sketchtool.</desc>
    <defs>
        <rect id="path-1" x="0" y="0" width="100" height="100"></rect>
    </defs>
    <g id="Asset-Artboard-Page" stroke="none" stroke-width="1" fill="none" fill-rule="evenodd">
        <g id="icon/advantage/1">
            <g id="Group">
                <g id="icon/advantage/1">
                    <mask id="mask-2" fill="white">
                        <use xlink:href="#path-1"></use>
                    </mask>
                    <g id="Mask"></g>
                    <g id="Group-13" mask="url(#mask-2)">
                        <g transform="translate(15.000000, 11.000000)">
                            <g id="Group-10" transform="translate(8.000000, 44.000000)">
                                <polygon id="Stroke-2" stroke="#36F2B9" stroke-width="0.5" points="62 22.7614571 53.4169755 28 53 27.2385429 61.5830245 22"></polygon>
                                <polygon id="Stroke-5" stroke="#36F2B9" stroke-width="0.5" points="39 22.7614571 30.4169755 28 30 27.2385429 38.5830245 22"></polygon>
                                <polygon id="Stroke-7" stroke="#36F2B9" stroke-width="0.5" points="15 22.7614571 6.41697554 28 6 27.2385429 14.5830245 22"></polygon>
                                <polygon id="Stroke-24" stroke="#36F2B9" stroke-width="0.5" points="62 0.764533177 53.4169755 6 53 5.23546682 61.5830245 0"></polygon>
                                <polygon id="Stroke-27" stroke="#36F2B9" stroke-width="0.5" points="33 0.764533177 24.4169755 6 24 5.23546682 32.5830245 0"></polygon>
                                <polygon id="Stroke-30" stroke="#36F2B9" stroke-width="0.5" points="9 0.764533177 0.416975537 6 0 5.23546682 8.58302446 0"></polygon>
                                <polygon id="Fill-53" fill="#FFFFFF" points="55.5830245 28 47 33.2385429 47.4169755 34 56 28.7614571"></polygon>
                                <polygon id="Fill-54" fill="#FFFFFF" points="32.5830245 28 24 33.2385429 24.4169755 34 33 28.7614571"></polygon>
                                <polygon id="Fill-55" fill="#FFFFFF" points="8.58302446 28 0 33.2385429 0.416975537 34 9 28.7614571"></polygon>
                                <polygon id="Fill-63" fill="#FFFFFF" points="47 11.2354668 47.4169755 12 56 6.76453318 55.5830245 6"></polygon>
                                <polygon id="Fill-64" fill="#FFFFFF" points="33 6.76453318 24.4169755 12 24 11.2354668 32.5830245 6"></polygon>
                                <polygon id="Fill-65" fill="#FFFFFF" points="9 6.76453318 0.416975537 12 0 11.2354668 8.58302446 6"></polygon>
                            </g>
                            <g id="Group-9">
                                <g id="Group-8" transform="translate(8.000000, 44.000000)"></g>
                                <g id="Group-3"></g>
                            </g>
                        </g>
                    </g>
                </g>
                <g id="003-intersection" transform="translate(28.000000, 21.000000)" fill="#7878F9" fill-rule="nonzero">
                    <path d="M42.4513126,11.1162163 L26.4568832,0.45326336 C26.4566579,0.45303808 26.4564326,0.45303808 26.4562074,0.4528128 L26.2302515,0.30232576 C25.6246989,-0.10092544 24.8364442,-0.10092544 24.2315674,0.30277632 L8.01140736,11.1162163 C7.53922048,11.4309325 7.24793344,11.9490765 7.21526784,12.5118259 C7.21166336,12.5435904 7.20896,12.5773824 7.20896,12.61568 L7.20896,20.72576 L0.720896,25.591808 L0.72179712,25.5931597 C0.27236352,25.9301786 0,26.4613888 0,27.0336 L0,45.056 C0,45.658624 0.30119936,46.2213734 0.80244736,46.5554637 L17.0226074,57.3689037 C17.3242573,57.5700787 17.6727654,57.67168 18.0224,57.67168 C18.3139123,57.67168 18.6061005,57.6011674 18.8723814,57.4583398 C18.9239706,57.4306304 18.9611418,57.4094541 19.0091264,57.377239 L19.0217421,57.3689037 L35.2419021,46.5554637 C35.7433754,46.2213734 36.0443494,45.658624 36.0443494,45.056 L36.0443494,36.4086272 L42.4508621,32.137769 C42.9523354,31.8036787 43.2533099,31.2409293 43.2533099,30.6383053 L43.2533099,12.61568 C43.25376,12.013056 42.9525606,11.4503066 42.4513126,11.1162163 L42.4513126,11.1162163 Z M10.81344,15.9831654 L23.42912,24.3935437 L23.42912,29.0728346 L10.81344,20.6624563 L10.81344,15.9831654 Z M25.23136,3.9683072 L38.2025318,12.61568 L25.23136,21.2630528 L12.2601882,12.61568 L25.23136,3.9683072 Z M16.22016,52.5019546 L3.60448,44.0915763 L3.60448,30.4010854 L16.22016,38.8114637 L16.22016,52.5019546 Z M17.9611238,35.6401971 L4.9212416,26.9470925 L9.07247616,23.8337229 L22.1123584,32.5268275 L17.9611238,35.6401971 Z M32.44032,44.0915763 L19.82464,52.5019546 L19.82464,38.74816 L23.42912,36.0448 L23.42912,41.45152 C23.42912,42.116096 23.7949747,42.7268301 24.3811533,43.0404198 C24.6476595,43.1830221 24.9396224,43.25376 25.2311347,43.25376 C25.5809946,43.25376 25.9295027,43.1521587 26.2309274,42.9509837 L32.44032,38.8114637 L32.44032,44.0915763 Z M32.44032,34.4795546 L27.0336,38.0840346 L27.0336,34.0057907 L32.44032,30.4013107 L32.44032,34.4795546 Z M39.64928,29.6736563 L36.0448,32.0767181 L36.0448,27.0336 C36.0448,26.369024 35.6789453,25.7582899 35.0927667,25.4447002 C34.5065882,25.1306598 33.7956045,25.165353 33.2427674,25.5341363 L27.0336,29.6736563 L27.0336,24.3935437 L39.64928,15.9831654 L39.64928,29.6736563 Z" id="Shape"></path>
                </g>
            </g>
        </g>
    </g>
</svg>