<?xml version="1.0" encoding="UTF-8"?>
<svg width="179px" height="98px" viewBox="0 0 179 98" version="1.1" xmlns="http://www.w3.org/2000/svg" xmlns:xlink="http://www.w3.org/1999/xlink">
    <!-- Generator: sketchtool 62 (101010) - https://sketch.com -->
    <title>F802F89F-A1AD-4EF2-86DF-CCEC0A5ECB2A</title>
    <desc>Created with sketchtool.</desc>
    <defs>
        <rect id="path-1" x="0" y="0" width="179" height="98"></rect>
    </defs>
    <g id="Asset-Artboard-Page" stroke="none" stroke-width="1" fill="none" fill-rule="evenodd">
        <g id="element/design/notwow">
            <g>
                <mask id="mask-2" fill="white">
                    <use xlink:href="#path-1"></use>
                </mask>
                <g id="Mask"></g>
                <g id="Group-21" mask="url(#mask-2)">
                    <g transform="translate(5.000000, 8.000000)">
                        <g id="Group-31-Copy-5">
                            <g id="Group-3-Copy-2">
                                <g id="Group-73-Copy-4" transform="translate(73.000000, 17.000000) scale(1, -1) translate(-73.000000, -17.000000) ">
                                    <polygon id="Fill-6" fill="#36F2B9" points="99 6.76145711 90.4169755 12 90 11.2385429 98.5830245 6"></polygon>
                                    <polygon id="Stroke-7" stroke="#36F2B9" stroke-width="0.5" points="99 6.76145711 90.4169755 12 90 11.2385429 98.5830245 6"></polygon>
                                    <polygon id="Fill-8" fill="#36F2B9" points="77 6.76453318 68.416821 12 68 11.23899 76.583179 6"></polygon>
                                    <polygon id="Stroke-9" stroke="#36F2B9" stroke-width="0.5" points="77 6.76453318 68.416821 12 68 11.23899 76.583179 6"></polygon>
                                    <polygon id="Fill-10" fill="#36F2B9" points="55 6.76145711 46.4169755 12 46 11.2385429 54.5830245 6"></polygon>
                                    <polygon id="Stroke-11" stroke="#36F2B9" stroke-width="0.5" points="55 6.76145711 46.4169755 12 46 11.2385429 54.5830245 6"></polygon>
                                    <polygon id="Fill-12" fill="#36F2B9" points="31 6.76145711 22.4169755 12 22 11.2385429 30.5830245 6"></polygon>
                                    <polygon id="Stroke-13" stroke="#36F2B9" stroke-width="0.5" points="31 6.76145711 22.4169755 12 22 11.2385429 30.5830245 6"></polygon>
                                    <polygon id="Fill-14" fill="#36F2B9" points="9 6.76145711 0.416975537 12 0 11.2385429 8.58302446 6"></polygon>
                                    <polygon id="Stroke-15" stroke="#36F2B9" stroke-width="0.5" points="9 6.76145711 0.416975537 12 0 11.2385429 8.58302446 6"></polygon>
                                    <polygon id="Fill-23" fill="#36F2B9" points="137 33.2350176 137.416976 34 146 28.7614571 145.583024 28"></polygon>
                                    <polygon id="Stroke-24" stroke="#36F2B9" stroke-width="0.5" points="146 28.7645332 137.416976 34 137 33.2354668 145.583024 28"></polygon>
                                    <polygon id="Fill-26" fill="#36F2B9" points="114 33.2350176 114.416976 34 123 28.7614571 122.583024 28"></polygon>
                                    <polygon id="Stroke-27" stroke="#36F2B9" stroke-width="0.5" points="123 28.7645332 114.416976 34 114 33.2354668 122.583024 28"></polygon>
                                    <polygon id="Fill-29" fill="#36F2B9" points="90 33.2350176 90.4169755 34 99 28.7614571 98.5830245 28"></polygon>
                                    <polygon id="Stroke-30" stroke="#36F2B9" stroke-width="0.5" points="99 28.7645332 90.4169755 34 90 33.2354668 98.5830245 28"></polygon>
                                    <polygon id="Fill-32" fill="#36F2B9" points="68 33.2385429 68.416821 34 77 28.7614571 76.583179 28"></polygon>
                                    <polygon id="Stroke-33" stroke="#36F2B9" stroke-width="0.5" points="77 28.7614571 68.416821 34 68 33.2385429 76.583179 28"></polygon>
                                    <polygon id="Fill-35" fill="#36F2B9" points="46 33.2350176 46.4169755 34 55 28.7614571 54.5830245 28"></polygon>
                                    <polygon id="Stroke-36" stroke="#36F2B9" stroke-width="0.5" points="55 28.7645332 46.4169755 34 46 33.2354668 54.5830245 28"></polygon>
                                    <polygon id="Fill-38" fill="#36F2B9" points="22 33.2350176 22.4136397 34 31 28.7614571 30.5830245 28"></polygon>
                                    <polygon id="Stroke-39" stroke="#36F2B9" stroke-width="0.5" points="31 28.7645332 22.4169755 34 22 33.2354668 30.5830245 28"></polygon>
                                    <polygon id="Fill-41" fill="#36F2B9" points="0 33.2350176 0.413639733 34 9 28.7614571 8.58302446 28"></polygon>
                                    <polygon id="Stroke-42" stroke="#36F2B9" stroke-width="0.5" points="9 28.7645332 0.416975537 34 0 33.2354668 8.58302446 28"></polygon>
                                    <polygon id="Fill-55" fill="#FFFFFF" points="98.5830245 0 90 5.23854289 90.4169755 6 99 0.761457109"></polygon>
                                    <polygon id="Stroke-7" stroke="#36F2B9" stroke-width="0.5" points="124 0.761457109 115.416976 6 115 5.23854289 123.583024 0"></polygon>
                                    <polygon id="Fill-6" fill="#36F2B9" points="124 0.761457109 115.416976 6 115 5.23854289 123.583024 0"></polygon>
                                    <polygon id="Fill-6" fill="#36F2B9" points="145 6.76145711 136.416976 12 136 11.2385429 144.583024 6"></polygon>
                                    <polygon id="Fill-55" fill="#FFFFFF" points="123.583024 6 115 11.2385429 115.416976 12 124 6.76145711"></polygon>
                                    <polygon id="Stroke-7" stroke="#36F2B9" stroke-width="0.5" points="145 6.76145711 136.416976 12 136 11.2385429 144.583024 6"></polygon>
                                    <polygon id="Fill-55" fill="#FFFFFF" points="144.583024 0 136 5.23854289 136.416976 6 145 0.761457109"></polygon>
                                    <polygon id="Fill-56" fill="#FFFFFF" points="76.5765098 0 68 5.23546682 68.416821 6 77 0.761009982 76.583179 0"></polygon>
                                    <polygon id="Fill-57" fill="#FFFFFF" points="54.5830245 0 46 5.23854289 46.4169755 6 55 0.761457109"></polygon>
                                    <polygon id="Fill-58" fill="#FFFFFF" points="30.5830245 0 22 5.23854289 22.4136397 6 31 0.761457109"></polygon>
                                    <polygon id="Fill-59" fill="#FFFFFF" points="8.58302446 0 0 5.23854289 0.413639733 6 9 0.761457109"></polygon>
                                    <polygon id="Fill-63" fill="#FFFFFF" points="137 27.2354668 137.416976 28 146 22.7645332 145.583024 22"></polygon>
                                    <polygon id="Fill-64" fill="#FFFFFF" points="123 22.7645332 114.416976 28 114 27.2354668 122.583024 22"></polygon>
                                    <polygon id="Fill-65" fill="#FFFFFF" points="99 22.7645332 90.4169755 28 90 27.2354668 98.5830245 22"></polygon>
                                    <polygon id="Fill-66" fill="#FFFFFF" points="77 22.7614571 68.416821 28 68 27.2385429 76.583179 22"></polygon>
                                    <polygon id="Fill-67" fill="#FFFFFF" points="55 22.7645332 46.4169755 28 46 27.2354668 54.5830245 22"></polygon>
                                    <polygon id="Fill-68" fill="#FFFFFF" points="31 22.7645332 22.4169755 28 22 27.2354668 30.5830245 22"></polygon>
                                    <polygon id="Fill-69" fill="#FFFFFF" points="9 22.7645332 0.416975537 28 0 27.2354668 8.58302446 22"></polygon>
                                </g>
                                <g id="Group-73-Copy-4" transform="translate(38.500000, 61.000000) scale(1, -1) translate(-38.500000, -61.000000) translate(0.000000, 44.000000)">
                                    <polygon id="Fill-8" fill="#36F2B9" points="77 6.76453318 68.416821 12 68 11.23899 76.583179 6"></polygon>
                                    <polygon id="Stroke-9" stroke="#36F2B9" stroke-width="0.5" points="77 6.76453318 68.416821 12 68 11.23899 76.583179 6"></polygon>
                                    <polygon id="Fill-10" fill="#36F2B9" points="55 6.76145711 46.4169755 12 46 11.2385429 54.5830245 6"></polygon>
                                    <polygon id="Stroke-11" stroke="#36F2B9" stroke-width="0.5" points="55 6.76145711 46.4169755 12 46 11.2385429 54.5830245 6"></polygon>
                                    <polygon id="Fill-12" fill="#36F2B9" points="31 6.76145711 22.4169755 12 22 11.2385429 30.5830245 6"></polygon>
                                    <polygon id="Stroke-13" stroke="#36F2B9" stroke-width="0.5" points="31 6.76145711 22.4169755 12 22 11.2385429 30.5830245 6"></polygon>
                                    <polygon id="Fill-14" fill="#36F2B9" points="9 6.76145711 0.416975537 12 0 11.2385429 8.58302446 6"></polygon>
                                    <polygon id="Stroke-15" stroke="#36F2B9" stroke-width="0.5" points="9 6.76145711 0.416975537 12 0 11.2385429 8.58302446 6"></polygon>
                                    <polygon id="Fill-32" stroke="#36F2B9" stroke-width="0.5" fill="#36F2B9" points="68 33.2385429 68.416821 34 77 28.7614571 76.583179 28"></polygon>
                                    <polygon id="Fill-35" stroke="#36F2B9" stroke-width="0.5" fill="#36F2B9" points="46 33.2350176 46.4169755 34 55 28.7614571 54.5830245 28"></polygon>
                                    <polygon id="Fill-38" stroke="#36F2B9" stroke-width="0.5" fill="#36F2B9" points="22 33.2350176 22.4136397 34 31 28.7614571 30.5830245 28"></polygon>
                                    <polygon id="Fill-41" stroke="#36F2B9" stroke-width="0.5" fill="#36F2B9" points="0 33.2350176 0.413639733 34 9 28.7614571 8.58302446 28"></polygon>
                                    <polygon id="Fill-56" fill="#FFFFFF" points="76.5765098 0 68 5.23546682 68.416821 6 77 0.761009982 76.583179 0"></polygon>
                                    <polygon id="Fill-57" fill="#FFFFFF" points="54.5830245 0 46 5.23854289 46.4169755 6 55 0.761457109"></polygon>
                                    <polygon id="Fill-58" fill="#FFFFFF" points="30.5830245 0 22 5.23854289 22.4136397 6 31 0.761457109"></polygon>
                                    <polygon id="Fill-59" fill="#FFFFFF" points="8.58302446 0 0 5.23854289 0.413639733 6 9 0.761457109"></polygon>
                                    <polygon id="Fill-66" fill="#FFFFFF" points="77 22.7614571 68.416821 28 68 27.2385429 76.583179 22"></polygon>
                                    <polygon id="Fill-67" fill="#FFFFFF" points="55 22.7645332 46.4169755 28 46 27.2354668 54.5830245 22"></polygon>
                                    <polygon id="Fill-68" fill="#FFFFFF" points="31 22.7645332 22.4169755 28 22 27.2354668 30.5830245 22"></polygon>
                                    <polygon id="Fill-69" fill="#FFFFFF" points="9 22.7645332 0.416975537 28 0 27.2354668 8.58302446 22"></polygon>
                                </g>
                            </g>
                        </g>
                        <g id="3d-glasses-copy" transform="translate(90.000000, 40.000000)">
                            <path d="M76.1083683,41.4 L19.2916317,41.4 C18.5787601,41.4 18,40.8244685 18,40.1139797 L18,15.6853063 C18,14.9755317 18.5780428,14.4 19.2916317,14.4 L76.1083683,14.4 C76.8226744,14.4 77.4,14.9755317 77.4,15.6853063 L77.4,40.1139797 C77.4,40.8244685 76.8226744,41.4 76.1083683,41.4 Z M20.5832634,38.8286735 L74.8174537,38.8286735 L74.8174537,16.9713267 L20.5832634,16.9713267 L20.5832634,38.8286735 Z" id="Shape" fill="#36F2B9" fill-rule="nonzero"></path>
                            <path d="M35.5913057,36 L23.8094213,36 C23.0867313,36 22.5,35.4112012 22.5,34.6843345 L22.5,20.2149351 C22.5,19.4887986 23.0860043,18.9 23.8094213,18.9 L35.5913057,18.9 C40.2829748,18.9 44.1,22.7359577 44.1,27.45 C44.1,32.1640422 40.2829748,36 35.5913057,36 Z M25.1188429,33.3693994 L35.5913057,33.3693994 C38.8397758,33.3693994 41.4818842,30.713961 41.4818842,27.45 C41.4818842,24.186039 38.8397758,21.5298701 35.5913057,21.5298701 L25.1188429,21.5298701 L25.1188429,33.3693994 Z" id="Shape" fill="#36F2B9" fill-rule="nonzero"></path>
                            <path d="M70.6905785,36 L58.9094213,36 C54.2177522,36 50.4,32.1640422 50.4,27.45 C50.4,22.7359577 54.2177522,18.9 58.9094213,18.9 L70.6905785,18.9 C71.4147227,18.9 72,19.4887986 72,20.2156655 L72,34.6843345 C72,35.4112012 71.4147227,36 70.6905785,36 Z M58.9094213,21.5298701 C55.6609512,21.5298701 53.0181157,24.1867694 53.0181157,27.45 C53.0181157,30.713961 55.6609512,33.3693994 58.9094213,33.3693994 L69.3818842,33.3693994 L69.3818842,21.5298701 L58.9094213,21.5298701 Z" id="Shape" fill="#36F2B9" fill-rule="nonzero"></path>
                            <path d="M19.4066093,41.4 C18.9388329,41.4 18.4969246,41.1442483 18.2677069,40.7151054 L0.154488383,6.89373875 C0.0531726378,6.70445344 0,6.49277193 0,6.27747797 L0,2.60158798 C0,1.16677723 1.16045895,0 2.58749995,0 C3.2047348,0 3.80328724,0.222518498 4.2717821,0.626375168 L20.2487503,14.3950685 C20.535452,14.6421507 20.7,15.003382 20.7,15.3826749 L20.7,40.0988448 C20.7,40.6948764 20.2968933,41.2143271 19.7227715,41.3609871 C19.6178632,41.3869958 19.5115175,41.4 19.4066093,41.4 Z M2.58749995,5.94948001 L18.1125,34.9390164 L18.1125,15.9808739 L2.58749995,2.60158798 L2.58749995,5.94948001 Z" id="Shape" fill="#36F2B9" fill-rule="nonzero"></path>
                            <polygon id="Path" fill="#36F2B9" fill-rule="nonzero" points="0 6.3 2.7 6.3 2.7 16.2 0 16.2"></polygon>
                            <path d="M76.1057144,17.1 L62.8691892,17.1 C62.3928122,17.1 61.9559537,16.8304636 61.7296209,16.3987615 L56.8544813,7.0656996 C56.7531702,6.87095223 56.7,6.65473086 56.7,6.4340665 L56.7,2.66648328 C56.7,1.19588191 57.8611239,0 59.2873806,0 C59.9038684,0 60.5016747,0.22806911 60.9708667,0.640518719 L76.9478167,14.7541463 C77.359527,15.1177239 77.5075417,15.7064088 77.3192901,16.2291907 C77.1317571,16.7519724 76.6481948,17.1 76.1057144,17.1 L76.1057144,17.1 Z M63.6423138,14.4335165 L72.6086908,14.4335165 L59.2888176,2.66648328 L59.2873806,6.0978868 L63.6423138,14.4335165 Z" id="Shape" fill="#36F2B9" fill-rule="nonzero"></path>
                            <polygon id="Path" fill="#36F2B9" fill-rule="nonzero" points="56.7 6.3 59.4 6.3 59.4 16.2 56.7 16.2"></polygon>
                        </g>
                        <g id="Group-19" transform="translate(159.500000, 27.500000) rotate(-180.000000) translate(-159.500000, -27.500000) translate(151.000000, 16.000000)">
                            <polygon id="Star" fill="#36F2B9" points="9 7.5 6.06107374 9.04508497 6.62235871 5.77254249 4.24471742 3.45491503 7.53053687 2.97745751 9 0 10.4694631 2.97745751 13.7552826 3.45491503 11.3776413 5.77254249 11.9389263 9.04508497"></polygon>
                            <polygon id="Star-Copy" fill="#36F2B9" points="4 17 1.64885899 18.236068 2.09788697 15.618034 0.195773935 13.763932 2.8244295 13.381966 4 11 5.1755705 13.381966 7.80422607 13.763932 5.90211303 15.618034 6.35114101 18.236068"></polygon>
                            <polygon id="Star" fill="#36F2B9" points="14 21.5 12.2366442 22.427051 12.5734152 20.4635255 11.1468305 19.072949 13.1183221 18.7864745 14 17 14.8816779 18.7864745 16.8531695 19.072949 15.4265848 20.4635255 15.7633558 22.427051"></polygon>
                        </g>
                    </g>
                </g>
            </g>
        </g>
    </g>
</svg>