<?xml version="1.0" encoding="UTF-8"?>
<svg width="100px" height="100px" viewBox="0 0 100 100" version="1.1" xmlns="http://www.w3.org/2000/svg" xmlns:xlink="http://www.w3.org/1999/xlink">
    <!-- Generator: sketchtool 62 (101010) - https://sketch.com -->
    <title>F0E90891-EDDA-4C51-B4A4-038DE9D1B17F@1x</title>
    <desc>Created with sketchtool.</desc>
    <defs>
        <rect id="path-1" x="0" y="0" width="100" height="100"></rect>
    </defs>
    <g id="Asset-Artboard-Page" stroke="none" stroke-width="1" fill="none" fill-rule="evenodd">
        <g id="icon/advantage/1">
            <g id="Group">
                <g id="icon/advantage/1">
                    <mask id="mask-2" fill="white">
                        <use xlink:href="#path-1"></use>
                    </mask>
                    <g id="Mask"></g>
                    <g id="Group-13" mask="url(#mask-2)">
                        <g transform="translate(15.000000, 11.000000)">
                            <g id="Group-10" transform="translate(8.000000, 44.000000)">
                                <polygon id="Stroke-2" stroke="#36F2B9" stroke-width="0.5" points="62 22.7614571 53.4169755 28 53 27.2385429 61.5830245 22"></polygon>
                                <polygon id="Stroke-5" stroke="#36F2B9" stroke-width="0.5" points="39 22.7614571 30.4169755 28 30 27.2385429 38.5830245 22"></polygon>
                                <polygon id="Stroke-7" stroke="#36F2B9" stroke-width="0.5" points="15 22.7614571 6.41697554 28 6 27.2385429 14.5830245 22"></polygon>
                                <polygon id="Stroke-24" stroke="#36F2B9" stroke-width="0.5" points="62 0.764533177 53.4169755 6 53 5.23546682 61.5830245 0"></polygon>
                                <polygon id="Stroke-27" stroke="#36F2B9" stroke-width="0.5" points="33 0.764533177 24.4169755 6 24 5.23546682 32.5830245 0"></polygon>
                                <polygon id="Stroke-30" stroke="#36F2B9" stroke-width="0.5" points="9 0.764533177 0.416975537 6 0 5.23546682 8.58302446 0"></polygon>
                                <polygon id="Fill-53" fill="#FFFFFF" points="55.5830245 28 47 33.2385429 47.4169755 34 56 28.7614571"></polygon>
                                <polygon id="Fill-54" fill="#FFFFFF" points="32.5830245 28 24 33.2385429 24.4169755 34 33 28.7614571"></polygon>
                                <polygon id="Fill-55" fill="#FFFFFF" points="8.58302446 28 0 33.2385429 0.416975537 34 9 28.7614571"></polygon>
                                <polygon id="Fill-63" fill="#FFFFFF" points="47 11.2354668 47.4169755 12 56 6.76453318 55.5830245 6"></polygon>
                                <polygon id="Fill-64" fill="#FFFFFF" points="33 6.76453318 24.4169755 12 24 11.2354668 32.5830245 6"></polygon>
                                <polygon id="Fill-65" fill="#FFFFFF" points="9 6.76453318 0.416975537 12 0 11.2354668 8.58302446 6"></polygon>
                            </g>
                            <g id="Group-9">
                                <g id="Group-8" transform="translate(8.000000, 44.000000)"></g>
                                <g id="Group-3"></g>
                            </g>
                        </g>
                    </g>
                </g>
                <g id="005-people" transform="translate(18.000000, 30.000000)" fill="#7878F9" fill-rule="nonzero">
                    <path d="M32,7.61290323 C27.037292,7.61290323 23,11.6501953 23,16.6129032 C23,21.5756112 27.0374155,25.6129032 32,25.6129032 C36.9625845,25.6129032 41,21.5754877 41,16.6129032 C41,11.6503187 36.962708,7.61290323 32,7.61290323 Z M32,21.6130129 C29.2426383,21.6130129 27.0000137,19.3696477 27.0000137,16.6130267 C27.0000137,13.8556649 29.2426383,11.6130404 32,11.6130404 C34.7573617,11.6130404 36.9999863,13.8556649 36.9999863,16.6130267 C36.9999863,19.3703884 34.7573617,21.6130129 32,21.6130129 Z" id="Shape"></path>
                    <path d="M31.4998756,21.6129032 C24.0560852,21.6129032 18,27.493478 18,34.7215411 L18,37.6563342 C18,38.7369573 18.9019648,39.6129032 20.0149644,39.6129032 C21.1278395,39.6129032 22.0299287,38.7370781 22.0299287,37.6563342 L22.0299287,34.7215411 C22.0299287,29.6508601 26.2779804,25.5259205 31.5,25.5259205 C36.7220196,25.5259205 40.9700713,29.6515846 40.9700713,34.7215411 L40.9700713,37.6563342 C40.9700713,38.7369573 41.8720361,39.6129032 42.9850356,39.6129032 C44.0979108,39.6129032 45,38.7370781 45,37.6563342 L45,34.7215411 C45,27.493478 38.9436661,21.6129032 31.4998756,21.6129032 Z" id="Path"></path>
                    <path d="M50,0.612903226 C45.037292,0.612903226 41,4.6503187 41,9.61290323 C41,14.5754877 45.0374155,18.6129032 50,18.6129032 C54.9633251,18.6129032 59,14.5754877 59,9.61290323 C59,4.6503187 54.962708,0.612903226 50,0.612903226 Z M50,14.6128895 C47.2426383,14.6128895 45.0000137,12.3702649 45.0000137,9.61290323 C45.0000137,6.85554151 47.2426383,4.61291694 50,4.61291694 C52.7573617,4.61291694 54.9999863,6.85554151 54.9999863,9.61290323 C54.9999863,12.3702649 52.7573617,14.6128895 50,14.6128895 Z" id="Shape"></path>
                    <path d="M50.3298642,15.6129032 C57.4658915,15.6129032 63.342576,20.8836529 63.948496,27.5783868 L59.919,29.9189032 L59.9194094,28.7215739 C59.9194094,23.7405974 55.76743,19.6710648 50.6073685,19.5298072 L50.3299902,19.526015 C45.9412618,19.526015 42.1108837,22.3804878 41.0159682,26.4689325 C40.7356598,27.5156168 39.6243742,28.1482402 38.5328587,27.8769089 C37.4419728,27.6081134 36.784394,26.5418671 37.0645765,25.4957865 C38.6220134,19.6765936 44.0777019,15.6129032 50.3298642,15.6129032 Z" id="Combined-Shape"></path>
                    <path d="M13,0.612903226 C8.03729204,0.612903226 4,4.6503187 4,9.61290323 C4,14.5754877 8.03741548,18.6129032 13,18.6129032 C17.962708,18.6129032 22,14.5754877 22,9.61290323 C22,4.6503187 17.962708,0.612903226 13,0.612903226 Z M13,14.6128895 C10.2426383,14.6128895 8.00001372,12.3702649 8.00001372,9.61290323 C8.00001372,6.85554151 10.2426383,4.61291694 13,4.61291694 C15.7573617,4.61291694 17.9999863,6.85554151 17.9999863,9.61290323 C17.9999863,12.3702649 15.7573617,14.6128895 13,14.6128895 Z" id="Shape"></path>
                    <path d="M13.1966461,15.6129032 C19.2041063,15.6129032 24.4434022,19.6498406 25.9376695,25.4307118 C26.2081498,26.4768064 25.57322,27.5436708 24.519623,27.8123491 C23.4618928,28.0783708 22.3923708,27.4497239 22.1218905,26.4036293 C21.0753442,22.3536504 17.4051991,19.5258259 13.1967676,19.5258259 C8.09204328,19.5258259 3.93940983,23.6515178 3.93940983,28.7215083 L3.93940983,28.7215083 L3.9385375,29.9389032 L0.0405375033,27.6889332 C0.56434765,21.0429633 6.10002103,15.7731631 12.885636,15.6164904 Z" id="Combined-Shape"></path>
                </g>
            </g>
        </g>
    </g>
</svg>