<svg width="184" height="37" viewBox="0 0 184 37" fill="none" xmlns="http://www.w3.org/2000/svg">
<path d="M57.1426 19.1904C57.1426 19.8415 56.9294 20.359 56.5029 20.7432C56.0798 21.1273 55.5036 21.3193 54.7744 21.3193H52.7529V24H51.8203V17.1201H54.7158C55.4873 17.1201 56.0846 17.3008 56.5078 17.6621C56.931 18.0234 57.1426 18.5329 57.1426 19.1904ZM56.2051 19.2002C56.2051 18.3115 55.6712 17.8672 54.6035 17.8672H52.7529V20.582H54.6426C55.6842 20.582 56.2051 20.1214 56.2051 19.2002ZM63.0765 21.3535C63.0765 22.278 62.8731 22.9665 62.4662 23.4189C62.0593 23.8714 61.4685 24.0977 60.6937 24.0977C59.9222 24.0977 59.3395 23.8633 58.9457 23.3945C58.5518 22.9225 58.3548 22.2422 58.3548 21.3535C58.3548 19.5306 59.1442 18.6191 60.723 18.6191C61.5303 18.6191 62.1244 18.8421 62.5052 19.2881C62.8861 19.7308 63.0765 20.4193 63.0765 21.3535ZM62.1537 21.3535C62.1537 20.6243 62.0446 20.0954 61.8265 19.7666C61.6117 19.4346 61.2487 19.2686 60.7377 19.2686C60.2233 19.2686 59.8506 19.4378 59.6195 19.7764C59.3916 20.1117 59.2777 20.6374 59.2777 21.3535C59.2777 22.0501 59.39 22.5742 59.6146 22.9258C59.8425 23.2741 60.1989 23.4482 60.6839 23.4482C61.2113 23.4482 61.5873 23.279 61.8119 22.9404C62.0397 22.6019 62.1537 22.0729 62.1537 21.3535ZM69.4987 24H68.4782L67.5554 20.2646L67.3796 19.4395C67.3503 19.5859 67.3047 19.7975 67.2429 20.0742C67.181 20.3477 66.849 21.6562 66.2468 24H65.2312L63.7517 18.7168H64.6208L65.5144 22.3057C65.5372 22.3838 65.6071 22.7061 65.7243 23.2725L65.8073 22.9111L66.9109 18.7168H67.8532L68.7761 22.3447L69.0007 23.2725L69.1521 22.5938L70.153 18.7168H71.0124L69.4987 24ZM72.6055 21.5439C72.6055 22.1494 72.7309 22.6165 72.9815 22.9453C73.2322 23.2741 73.5984 23.4385 74.0802 23.4385C74.461 23.4385 74.7654 23.362 74.9932 23.209C75.2244 23.056 75.3806 22.8623 75.462 22.6279L76.2335 22.8477C75.9177 23.681 75.1999 24.0977 74.0802 24.0977C73.2989 24.0977 72.7032 23.8649 72.293 23.3994C71.8861 22.9339 71.6827 22.2422 71.6827 21.3242C71.6827 20.4518 71.8861 19.7829 72.293 19.3174C72.7032 18.8519 73.2875 18.6191 74.046 18.6191C75.5987 18.6191 76.3751 19.555 76.3751 21.4268V21.5439H72.6055ZM75.4669 20.8701C75.418 20.3135 75.2764 19.9082 75.0421 19.6543C74.8077 19.3971 74.4708 19.2686 74.0313 19.2686C73.6049 19.2686 73.2664 19.4118 73.0157 19.6982C72.7683 19.9814 72.6348 20.3721 72.6153 20.8701H75.4669ZM77.7827 24V19.9473C77.7827 19.5762 77.7729 19.166 77.7534 18.7168H78.5834C78.6095 19.3158 78.6225 19.6755 78.6225 19.7959H78.642C78.782 19.3434 78.9431 19.0342 79.1254 18.8682C79.3077 18.7021 79.5649 18.6191 79.8969 18.6191C80.0141 18.6191 80.1329 18.6354 80.2534 18.668V19.4736C80.1362 19.4411 79.9799 19.4248 79.7846 19.4248C79.42 19.4248 79.1417 19.5827 78.9496 19.8984C78.7576 20.2109 78.6616 20.6602 78.6616 21.2461V24H77.7827ZM82.032 21.5439C82.032 22.1494 82.1574 22.6165 82.408 22.9453C82.6587 23.2741 83.0249 23.4385 83.5066 23.4385C83.8875 23.4385 84.1919 23.362 84.4197 23.209C84.6508 23.056 84.8071 22.8623 84.8885 22.6279L85.66 22.8477C85.3442 23.681 84.6264 24.0977 83.5066 24.0977C82.7254 24.0977 82.1297 23.8649 81.7195 23.3994C81.3126 22.9339 81.1092 22.2422 81.1092 21.3242C81.1092 20.4518 81.3126 19.7829 81.7195 19.3174C82.1297 18.8519 82.714 18.6191 83.4725 18.6191C85.0252 18.6191 85.8016 19.555 85.8016 21.4268V21.5439H82.032ZM84.8934 20.8701C84.8445 20.3135 84.7029 19.9082 84.4686 19.6543C84.2342 19.3971 83.8973 19.2686 83.4578 19.2686C83.0314 19.2686 82.6928 19.4118 82.4422 19.6982C82.1948 19.9814 82.0613 20.3721 82.0418 20.8701H84.8934ZM90.5246 23.1504C90.3618 23.4889 90.1453 23.7314 89.8752 23.8779C89.6082 24.0244 89.2762 24.0977 88.8791 24.0977C88.2117 24.0977 87.7202 23.873 87.4045 23.4238C87.092 22.9746 86.9357 22.2943 86.9357 21.3828C86.9357 19.5404 87.5835 18.6191 88.8791 18.6191C89.2795 18.6191 89.6131 18.6924 89.88 18.8389C90.147 18.9854 90.3618 19.2181 90.5246 19.5371H90.5343L90.5246 18.9463V16.7539H91.4035V22.9111C91.4035 23.4613 91.4132 23.8242 91.4328 24H90.5929C90.5832 23.9479 90.5718 23.8275 90.5588 23.6387C90.549 23.4499 90.5441 23.2871 90.5441 23.1504H90.5246ZM87.8586 21.3535C87.8586 22.0924 87.9562 22.6214 88.1515 22.9404C88.3468 23.2594 88.6642 23.4189 89.1037 23.4189C89.6017 23.4189 89.963 23.2464 90.1877 22.9014C90.4123 22.5563 90.5246 22.0208 90.5246 21.2949C90.5246 20.5951 90.4123 20.0824 90.1877 19.7568C89.963 19.4313 89.605 19.2686 89.1134 19.2686C88.6707 19.2686 88.3501 19.4329 88.1515 19.7617C87.9562 20.0872 87.8586 20.6178 87.8586 21.3535ZM100.537 21.334C100.537 23.1764 99.8892 24.0977 98.5936 24.0977C98.1932 24.0977 97.8596 24.026 97.5927 23.8828C97.329 23.7363 97.1141 23.502 96.9481 23.1797H96.9384C96.9384 23.2806 96.9318 23.4352 96.9188 23.6436C96.9058 23.8486 96.896 23.9674 96.8895 24H96.0399C96.0595 23.8242 96.0692 23.4613 96.0692 22.9111V16.7539H96.9481V18.8193C96.9481 19.0309 96.9416 19.2799 96.9286 19.5664H96.9481C97.1109 19.2279 97.3257 18.9854 97.5927 18.8389C97.8628 18.6924 98.1965 18.6191 98.5936 18.6191C99.2609 18.6191 99.7509 18.8438 100.063 19.293C100.379 19.7422 100.537 20.4225 100.537 21.334ZM99.6141 21.3633C99.6141 20.6243 99.5165 20.0954 99.3212 19.7764C99.1259 19.4574 98.8085 19.2979 98.369 19.2979C97.8742 19.2979 97.5129 19.4671 97.285 19.8057C97.0604 20.1442 96.9481 20.6813 96.9481 21.417C96.9481 22.1104 97.0588 22.623 97.2802 22.9551C97.5015 23.2839 97.8612 23.4482 98.3593 23.4482C98.802 23.4482 99.121 23.2855 99.3163 22.96C99.5149 22.6312 99.6141 22.099 99.6141 21.3633ZM102.159 26.0752C101.919 26.0752 101.717 26.0573 101.554 26.0215V25.3623C101.678 25.3818 101.814 25.3916 101.964 25.3916C102.511 25.3916 102.944 24.9896 103.263 24.1855L103.346 23.9756L101.251 18.7168H102.189L103.302 21.6367C103.318 21.6823 103.338 21.7376 103.361 21.8027C103.383 21.8646 103.457 22.0762 103.58 22.4375C103.704 22.7988 103.771 23.0007 103.781 23.043L104.122 22.0811L105.28 18.7168H106.207L104.176 24C103.958 24.5632 103.754 24.9814 103.566 25.2549C103.377 25.5316 103.167 25.7367 102.936 25.8701C102.708 26.0068 102.449 26.0752 102.159 26.0752Z" fill="white"/>
<path d="M135.463 18.7591L135.315 18.698C134.452 18.3406 133.559 17.9717 133.559 17.0579C133.559 15.5822 134.53 15.2755 135.345 15.2755C136.134 15.2755 136.622 15.4178 136.622 16.1271C136.623 16.2063 136.614 16.2854 136.595 16.3622C136.577 16.4373 136.568 16.5145 136.568 16.592C136.568 16.9377 136.956 17.178 137.304 17.178C137.496 17.178 137.68 17.1003 137.815 16.9619C137.951 16.8235 138.027 16.6359 138.027 16.4402C138.027 16.2958 137.951 15.0204 135.321 15.0204C134.873 15.0204 134.23 15.0994 133.709 15.4768C133.17 15.8668 132.896 16.4813 132.896 17.3024C132.896 18.9214 134.193 19.4622 134.968 19.7847L135.044 19.8163L135.329 19.9333C136.259 20.3107 137.819 20.9431 137.819 21.9697C137.819 23.1966 137.085 23.9292 135.856 23.9292C134.491 23.9292 133.828 23.4675 133.828 22.5168C133.828 21.9898 133.468 21.8074 133.16 21.8074C132.964 21.8096 132.776 21.8913 132.638 22.0346C132.501 22.1778 132.424 22.371 132.426 22.5716C132.426 23.0227 132.82 23.4401 133.538 23.7469C134.272 24.0404 135.054 24.1885 135.842 24.1832C137.503 24.1832 138.455 23.2968 138.455 21.7505C138.455 20.0103 136.509 19.1965 135.463 18.7591Z" fill="white"/>
<path d="M140.909 23.8648C140.733 23.811 140.468 23.7299 140.468 23.5718V14.7452C140.468 14.3731 140.164 14.2413 139.88 14.2413C139.701 14.2454 139.525 14.2885 139.363 14.3678L138.33 14.9349V15.2216L138.743 14.9971C138.85 14.9337 138.97 14.8975 139.094 14.8917C139.265 14.8917 139.352 15.0076 139.352 15.2364V23.4337C139.346 23.5282 139.361 23.6227 139.394 23.7111C139.427 23.7996 139.478 23.8799 139.543 23.9468C139.609 24.0137 139.687 24.0657 139.774 24.0993C139.861 24.133 139.953 24.1475 140.046 24.142H141.009V23.8943H140.992L140.909 23.8648Z" fill="white"/>
<path d="M171.805 23.8648C171.629 23.811 171.364 23.7299 171.364 23.5718V14.7452C171.364 14.3731 171.06 14.2413 170.776 14.2413C170.597 14.2454 170.421 14.2885 170.259 14.3678L169.226 14.9349V15.2216L169.639 14.9971C169.746 14.9337 169.866 14.8975 169.99 14.8917C170.161 14.8917 170.248 15.0076 170.248 15.2364V23.4337C170.242 23.5282 170.257 23.6227 170.29 23.7111C170.323 23.7996 170.374 23.8799 170.439 23.9468C170.505 24.0137 170.583 24.0657 170.67 24.0993C170.757 24.133 170.849 24.1475 170.942 24.142H171.905V23.8943H171.888L171.805 23.8648Z" fill="white"/>
<path d="M144.346 17.5258C143.705 17.526 143.078 17.7202 142.545 18.0839C142.012 18.4476 141.596 18.9644 141.351 19.569C141.106 20.1736 141.042 20.8388 141.167 21.4805C141.292 22.1223 141.601 22.7117 142.055 23.1744C142.508 23.637 143.086 23.952 143.715 24.0796C144.344 24.2072 144.996 24.1416 145.589 23.8911C146.181 23.6407 146.687 23.2166 147.044 22.6725C147.4 22.1284 147.59 21.4888 147.59 20.8344C147.589 19.9571 147.247 19.116 146.639 18.4957C146.031 17.8754 145.206 17.5266 144.346 17.5258V17.5258ZM145.162 23.6698C144.254 23.6698 142.076 22.6526 142.076 20.1366C142.076 19.8204 142.114 19.2259 142.369 18.7337C142.624 18.2415 143.016 17.9959 143.54 17.9959C144.02 17.9959 144.795 18.2562 145.443 18.8391C145.971 19.3134 146.6 20.1651 146.6 21.529C146.603 23.1101 145.828 23.6698 145.162 23.6698Z" fill="white"/>
<path d="M154.778 16.7878C154.404 16.7878 154.099 17.1547 154.099 17.6058C154.099 18.0569 154.404 18.4237 154.778 18.4237C155.268 18.4364 156.287 18.4627 156.466 20.458C156.466 21.7113 155.588 22.5535 155.063 22.9445C154.676 23.246 154.246 23.4842 153.787 23.6507L151.788 17.6543C151.719 17.469 151.617 17.2987 151.486 17.1525C151.35 17.0131 151.168 16.9308 150.975 16.9217H150.061V17.1989H150.194C150.431 17.1989 150.587 17.1989 150.632 17.3918L152.323 22.6431L152.237 22.7179C152.147 22.7998 152.053 22.8756 151.954 22.9445C151.567 23.2469 151.137 23.4862 150.679 23.6539L148.675 17.6532C148.601 17.4706 148.499 17.3014 148.372 17.1525C148.235 17.0155 148.054 16.9335 147.863 16.9217H146.948V17.1989H147.082C147.319 17.1989 147.462 17.1989 147.507 17.3918L149.708 24.1261L149.713 24.143H149.728C150.261 24.143 151.195 23.8457 152.081 23.1838C152.168 23.1195 152.249 23.0499 152.334 22.973L152.418 22.9003L152.822 24.1398H152.838C153.371 24.1398 154.305 23.8426 155.19 23.1796C156.438 22.2457 156.7 21.1822 156.7 20.4549C156.714 19.5254 156.468 18.611 155.99 17.8198C155.978 17.8176 155.296 16.7878 154.778 16.7878Z" fill="white"/>
<path d="M159.796 17.2781H159.822V17.0041H159.796C159.094 17.0041 158.882 17.0041 158.882 16.5824V14.9529H158.179V14.9771C158.107 15.9205 157.738 17.002 156.333 17.002L156.381 17.2697V17.2781C157.509 17.2781 157.672 17.2929 157.672 17.8125V23.3758C157.667 23.4777 157.682 23.5797 157.717 23.6752C157.753 23.7706 157.808 23.8572 157.879 23.9294C157.95 24.0016 158.034 24.0577 158.128 24.094C158.222 24.1303 158.322 24.146 158.421 24.14H159.46V23.8733L159.442 23.867L159.356 23.8406C159.167 23.7826 158.881 23.6941 158.881 23.5244V17.8125C158.882 17.3013 159.087 17.2781 159.796 17.2781Z" fill="white"/>
<path d="M166.586 23.8646C166.41 23.8108 166.145 23.7286 166.145 23.5705V20.8352C166.143 19.9595 165.802 19.1199 165.195 18.5006C164.588 17.8814 163.765 17.533 162.907 17.5319C161.233 17.5319 160.124 18.8326 160.124 19.3596C160.12 19.4603 160.136 19.5607 160.172 19.6549C160.207 19.749 160.26 19.835 160.329 19.9076C160.397 19.9802 160.479 20.0379 160.57 20.0773C160.661 20.1168 160.759 20.1371 160.858 20.1371C160.957 20.1371 161.054 20.1168 161.145 20.0773C161.236 20.0379 161.318 19.9802 161.387 19.9076C161.455 19.835 161.509 19.749 161.544 19.6549C161.579 19.5607 161.595 19.4603 161.592 19.3596C161.586 19.2431 161.572 19.1272 161.55 19.0128C161.52 18.8571 161.503 18.6992 161.498 18.5406C161.498 18.2022 161.617 17.9767 162.197 17.9767C162.684 17.9813 163.161 18.1219 163.576 18.3833C163.99 18.6448 164.327 19.017 164.548 19.4597L160.512 21.6511C160.259 21.786 160.004 22.0906 160.004 22.41C160.004 22.7631 160.748 24.1429 162.853 24.1429C163.651 24.1392 164.42 23.8441 165.023 23.3112V23.4356C165.017 23.5299 165.032 23.6242 165.065 23.7125C165.098 23.8007 165.149 23.8808 165.214 23.9476C165.279 24.0144 165.358 24.0663 165.444 24.0999C165.531 24.1336 165.623 24.1482 165.716 24.1429H166.678V23.8962L166.661 23.8899L166.586 23.8646ZM163.552 23.6949C162.28 23.6949 161.085 22.6271 161.085 21.9831C161.084 21.8787 161.111 21.7761 161.163 21.6862C161.215 21.5964 161.29 21.5227 161.38 21.4729L164.686 19.6642C164.976 20.0647 165.164 20.7952 165.164 21.533C165.16 23.4135 164.151 23.6949 163.552 23.6949Z" fill="white"/>
<path d="M169.089 23.8647C168.915 23.811 168.649 23.7288 168.649 23.5707V18.0211C168.649 17.7144 168.425 17.532 168.049 17.532C167.873 17.529 167.698 17.5722 167.543 17.6574L166.51 18.2108V18.4986L166.907 18.2878C167.017 18.2179 167.141 18.1783 167.27 18.1729C167.438 18.1729 167.527 18.2962 167.527 18.5312V23.4326C167.522 23.5269 167.536 23.6214 167.569 23.7097C167.603 23.798 167.654 23.8782 167.719 23.945C167.785 24.0118 167.863 24.0637 167.95 24.0972C168.036 24.1308 168.129 24.1453 168.222 24.1398H169.182V23.8932L169.167 23.8869L169.089 23.8647Z" fill="white"/>
<path d="M168.001 15.7613C168.439 15.7613 168.794 15.3994 168.794 14.9529C168.794 14.5064 168.439 14.1444 168.001 14.1444C167.564 14.1444 167.209 14.5064 167.209 14.9529C167.209 15.3994 167.564 15.7613 168.001 15.7613Z" fill="white"/>
<path d="M178.023 19.2647C178.023 18.9116 177.28 17.5319 175.174 17.5319C174.306 17.5312 173.473 17.8801 172.855 18.5026C172.548 18.8051 172.304 19.1675 172.137 19.5682C171.97 19.9689 171.883 20.3998 171.883 20.8352C171.883 21.5404 172.105 22.2268 172.515 22.7942C172.925 23.3617 173.503 23.7804 174.163 23.9893C174.823 24.1982 175.531 24.1862 176.184 23.9552C176.837 23.7241 177.4 23.2861 177.792 22.7051L177.801 22.6904L177.636 22.4543L177.617 22.4869C177.385 22.8949 176.737 23.6643 175.951 23.6643C174.928 23.6643 174.009 22.9265 173.482 22.2203L177.511 20.0205C177.768 19.8877 178.023 19.5841 178.023 19.2647ZM176.945 19.7011C176.946 19.8058 176.919 19.9087 176.867 19.9989C176.815 20.0891 176.74 20.1632 176.649 20.2134L173.344 22.0052C173.015 21.552 172.865 20.7298 172.865 20.1512C172.865 18.7893 173.457 17.9756 174.449 17.9756C175.816 17.9767 176.945 19.1214 176.945 19.7011Z" fill="white"/>
<path d="M183.042 17.0038C182.91 17.0038 182.743 17.0038 182.345 17.3506C182.104 17.5879 181.889 17.8516 181.705 18.1369C181.484 18.4752 181.234 18.9053 180.942 19.4502V17.5319C180.942 17.2009 180.7 17.0048 180.294 17.0048C180.103 17.0013 179.915 17.0482 179.747 17.1408L178.634 17.7374V18.0473L179.064 17.8196C179.181 17.7425 179.316 17.6981 179.455 17.691C179.637 17.691 179.733 17.8249 179.733 18.0779V24.1397H180.942V20.129C180.936 20.0792 180.94 20.0288 180.953 19.9804C181.727 18.6344 181.951 18.6333 182.615 18.6312C182.74 18.6312 182.881 18.6312 183.042 18.6207C183.146 18.6218 183.25 18.6017 183.347 18.5615C183.443 18.5212 183.531 18.4617 183.605 18.3864C183.679 18.3111 183.737 18.2215 183.776 18.123C183.816 18.0244 183.835 17.9187 183.834 17.8122C183.834 17.5979 183.751 17.3924 183.602 17.2409C183.453 17.0893 183.252 17.0041 183.042 17.0038V17.0038Z" fill="white"/>
<path d="M116.458 10.5068C116.488 10.5214 116.517 10.536 116.545 10.5517C116.517 10.536 116.488 10.5214 116.458 10.5068Z" fill="white"/>
<path d="M116.59 10.5752L116.709 10.6356L116.59 10.5752Z" fill="white"/>
<path d="M118.292 11.3215L118.381 11.3549L118.292 11.3215Z" fill="white"/>
<path d="M116.327 10.4342L116.407 10.4769L116.327 10.4342Z" fill="white"/>
<path d="M116.058 10.2815L116.14 10.3284L116.058 10.2815Z" fill="white"/>
<path d="M117.078 10.8148L117.143 10.8443L117.078 10.8148Z" fill="white"/>
<path d="M116.191 10.3594L116.272 10.4031L116.191 10.3594Z" fill="white"/>
<path d="M117.954 11.1929L118.037 11.2262L117.954 11.1929Z" fill="white"/>
<path d="M118.124 11.2617L118.209 11.294L118.124 11.2617Z" fill="white"/>
<path d="M117.786 11.1235L117.868 11.1569L117.786 11.1235Z" fill="white"/>
<path d="M117.433 10.9751L117.512 11.0084L117.433 10.9751Z" fill="white"/>
<path d="M117.608 11.051L117.688 11.0844L117.608 11.051Z" fill="white"/>
<path d="M116.9 10.7302L116.955 10.755L116.9 10.7302Z" fill="white"/>
<path d="M114.809 9.48413L114.931 9.56646L114.809 9.48413Z" fill="white"/>
<path d="M115.089 9.67419L115.2 9.74611L115.089 9.67419Z" fill="white"/>
<path d="M114.948 9.57947L115.065 9.65763L114.948 9.57947Z" fill="white"/>
<path d="M114.67 9.38757L114.798 9.47717L114.67 9.38757Z" fill="white"/>
<path d="M115.369 9.85767L115.473 9.92124L115.369 9.85767Z" fill="white"/>
<path d="M115.784 10.1189L115.872 10.17L115.784 10.1189Z" fill="white"/>
<path d="M115.644 10.0334L115.737 10.0887L115.644 10.0334Z" fill="white"/>
<path d="M115.507 9.95154L115.604 10.0109L115.507 9.95154Z" fill="white"/>
<path d="M115.229 9.76709L115.333 9.83483L115.229 9.76709Z" fill="white"/>
<path d="M115.926 10.2014L116.011 10.2504L115.926 10.2014Z" fill="white"/>
<path d="M117.255 10.9001L117.332 10.9345L117.255 10.9001Z" fill="white"/>
<path d="M116.674 12.0792L116.65 12.0594L116.674 12.0792Z" fill="white"/>
<path d="M116.474 11.9273L116.448 11.9076L116.474 11.9273Z" fill="white"/>
<path d="M116.877 12.2299C116.871 12.2268 116.866 12.223 116.861 12.2186C116.866 12.223 116.871 12.2268 116.877 12.2299V12.2299Z" fill="white"/>
<path d="M117.801 22.6242C117.587 22.9056 117.309 23.0458 117.181 22.9478C117.053 22.8498 117.12 22.5346 117.333 22.2532C117.546 21.9717 117.825 21.8316 117.953 21.9296C118.081 22.0276 118.015 22.3428 117.801 22.6242ZM119.334 20.8861C119.017 21.1433 118.514 21.0357 118.374 20.8566C118.235 20.6774 118.513 20.4971 118.829 20.2399C119.145 19.9827 119.381 19.7466 119.52 19.9237C119.659 20.1008 119.644 20.6278 119.334 20.8861ZM120.096 22.1014C120.055 22.1351 120.003 22.1543 119.95 22.156C119.897 22.1577 119.845 22.1419 119.801 22.1109C119.765 22.0613 119.857 22.0055 119.964 21.9211C120.072 21.8368 120.151 21.7651 120.188 21.8157C120.204 21.8676 120.204 21.9233 120.186 21.9747C120.169 22.0261 120.136 22.0705 120.092 22.1014H120.096ZM121.026 20.2853C120.762 20.4075 120.5 20.398 120.442 20.2652C120.383 20.1324 120.545 19.9248 120.812 19.8036C121.08 19.6823 121.338 19.6897 121.397 19.8225C121.456 19.9553 121.28 20.163 121.017 20.281L121.026 20.2853Z" fill="white"/>
<path d="M118.423 11.3745C118.501 11.4027 118.577 11.4308 118.654 11.4568C118.577 11.4266 118.501 11.4027 118.423 11.3745Z" fill="white"/>
<path d="M119.198 11.6432L119.302 11.6776L119.198 11.6432Z" fill="white"/>
<path d="M119.037 11.5895C119.072 11.602 119.107 11.6134 119.141 11.6239C119.107 11.6134 119.072 11.602 119.037 11.5895Z" fill="white"/>
<path d="M118.871 11.5323L118.975 11.5678L118.871 11.5323Z" fill="white"/>
<path d="M118.706 11.4767L118.81 11.5132L118.706 11.4767Z" fill="white"/>
<path d="M122.832 15.158L122.742 15.109L122.832 15.158Z" fill="white"/>
<path d="M122.734 15.1038L122.646 15.058L122.734 15.1038Z" fill="white"/>
<path d="M122.641 15.0558C122.545 15.0075 122.447 14.9613 122.347 14.9161C122.447 14.9613 122.545 15.0106 122.641 15.0558Z" fill="white"/>
<path d="M121.112 14.4319C121.566 14.6003 121.973 14.7477 122.344 14.914C121.973 14.7477 121.566 14.5982 121.112 14.4319V14.4319Z" fill="white"/>
<path d="M118.826 20.2398C118.51 20.497 118.232 20.6783 118.371 20.8565C118.511 21.0346 119.014 21.1432 119.331 20.886C119.648 20.6288 119.657 20.1028 119.517 19.9247C119.378 19.7466 119.143 19.9816 118.826 20.2398Z" fill="white"/>
<path d="M119.961 21.9211C119.858 22.0022 119.762 22.0613 119.798 22.1108C119.842 22.1405 119.894 22.1556 119.947 22.1539C120 22.1523 120.051 22.134 120.094 22.1016C120.136 22.0692 120.167 22.0243 120.184 21.9729C120.2 21.9215 120.201 21.8663 120.185 21.8146C120.148 21.7651 120.067 21.8388 119.961 21.9211Z" fill="white"/>
<path d="M117.954 21.9297C117.825 21.8243 117.547 21.973 117.334 22.2533C117.121 22.5337 117.052 22.8457 117.182 22.9479C117.312 23.0502 117.589 22.9058 117.802 22.6244C118.015 22.3429 118.084 22.032 117.954 21.9297Z" fill="white"/>
<path d="M120.804 19.8036C120.54 19.9247 120.373 20.1321 120.433 20.2647C120.493 20.3974 120.753 20.4068 121.018 20.2847C121.282 20.1626 121.448 19.9563 121.389 19.8226C121.33 19.6889 121.067 19.6815 120.804 19.8036Z" fill="white"/>
<path d="M129.621 19.054C129.739 15.4987 127.786 12.2701 124.595 11.2403C123.114 10.7704 121.522 10.8152 120.069 11.3679C118.714 10.923 117.073 10.6205 115.261 9.70246C115.025 9.5823 114.78 9.44316 114.538 9.29138L114.671 9.38519L114.799 9.47479L114.811 9.48216L114.933 9.56543L114.95 9.57703L115.067 9.65608L115.091 9.67189L115.2 9.74462L115.23 9.76465L115.333 9.83316L115.369 9.8553L115.472 9.9196L115.511 9.94384L115.607 10.0039L115.65 10.0313L115.742 10.0872L115.788 10.1167L115.875 10.1684L115.925 10.1989L116.009 10.2485L116.062 10.279L116.143 10.3265L116.197 10.357L116.277 10.4013L116.331 10.4319L116.411 10.4751L116.464 10.5046C116.493 10.5193 116.522 10.5341 116.549 10.5499L116.596 10.5731L116.715 10.6342H116.726L116.905 10.7228L116.964 10.7502L117.084 10.8071L117.154 10.8398L117.257 10.8883L117.334 10.923L117.437 10.9673L117.515 11.001L117.612 11.0432L117.692 11.0769L117.786 11.1159L117.868 11.1497L117.959 11.1855L118.041 11.2192L118.129 11.254L118.214 11.2867L118.296 11.3173L118.385 11.351L118.428 11.3668C118.505 11.3953 118.581 11.4237 118.658 11.4501L118.711 11.469L118.814 11.5059L118.872 11.527L118.975 11.5629L119.034 11.5818C119.069 11.5945 119.104 11.6061 119.137 11.6166L119.195 11.6356L119.298 11.6704C122.141 12.5863 124.449 12.7697 125.836 14.7998C127.958 17.904 125.969 22.1666 125.147 23.6539C125.099 23.7392 124.994 23.6802 125.008 23.5801L125.042 23.3313C125.431 22.4791 125.665 21.562 125.734 20.6245C125.875 18.8506 125.461 17.2336 124.709 16.1975C125.154 17.183 125.371 18.4479 125.263 19.8066C125.263 19.8603 125.254 19.912 125.249 19.9689C125.189 18.6303 124.898 17.4012 124.194 16.403C123.841 15.886 123.375 15.4598 122.833 15.1582V15.1582L122.743 15.1087H122.733L122.646 15.0623C122.55 15.0138 122.451 14.9674 122.351 14.9221C121.98 14.7556 121.573 14.6059 121.119 14.4394C120.118 14.0819 119.148 13.6383 118.221 13.1134C117.831 12.8899 117.449 12.6422 117.076 12.3755C117.01 12.3292 116.944 12.2817 116.879 12.2332C116.874 12.2303 116.869 12.2268 116.864 12.2227C116.803 12.1774 116.741 12.132 116.68 12.0857L116.65 12.0593L116.477 11.9276L116.449 11.9054L116.278 11.7737C116.766 12.2438 117.3 12.7223 117.867 13.1745C117.876 13.71 118.417 14.3076 119.21 14.6038C119.546 14.7335 119.906 14.7902 120.265 14.7703C120.7 15.0022 121.103 15.1919 121.479 15.3585C119.595 15.0191 117.655 15.442 116.071 16.5374C114.487 17.6328 113.383 19.3146 112.994 21.2263C112.605 23.1379 112.961 25.129 113.986 26.7774C115.012 28.4258 116.626 29.6018 118.487 30.0561C117.393 29.3908 116.488 28.4464 115.86 27.3156C116.712 28.6616 118 29.6619 119.594 30.2364C119.796 30.2533 119.999 30.2617 120.204 30.2617C121.105 30.2629 121.998 30.095 122.839 29.7663C125.484 28.8408 127.843 26.4798 128.971 23.2544C129.447 21.909 129.668 20.4835 129.621 19.054V19.054ZM115.55 24.1261C115.776 23.6799 116.053 23.2633 116.377 22.8855C116.785 22.3978 117.242 21.9557 117.742 21.5668C118.101 21.2728 118.117 20.6814 117.776 20.2482C117.435 19.814 116.832 19.6558 116.473 19.9499C115.99 20.2329 115.55 20.5882 115.17 21.004C114.821 21.4112 114.528 21.8656 114.3 22.3542C113.853 20.8374 114.604 19.2142 116.169 17.9346C117.873 16.5422 119.876 16.1427 121.264 17.1967C121.01 17.2259 120.759 17.2774 120.513 17.3506C120.045 17.5027 119.605 17.7351 119.213 18.0379C118.851 18.2266 118.822 18.8063 119.109 19.2732C119.397 19.7402 119.928 19.9678 120.289 19.7792C120.764 19.4814 121.28 19.2562 121.819 19.1109C122.018 19.0529 122.22 19.0071 122.425 18.9739C123.125 22.1455 118.154 25.8421 115.551 24.1218L115.55 24.1261ZM117.476 20.7974C117.474 20.7812 117.478 20.7648 117.488 20.7518C117.498 20.7388 117.512 20.7302 117.528 20.7278C117.536 20.7266 117.544 20.727 117.552 20.729C117.559 20.731 117.567 20.7346 117.573 20.7395C117.579 20.7444 117.585 20.7505 117.589 20.7576C117.593 20.7646 117.596 20.7724 117.597 20.7805C117.608 20.8586 117.603 20.9382 117.581 21.0138C117.559 21.0895 117.522 21.1595 117.471 21.2191C117.42 21.2786 117.357 21.3263 117.287 21.3588C117.217 21.3914 117.14 21.408 117.063 21.4077C117.011 21.4078 116.959 21.4 116.91 21.3845C116.902 21.3827 116.894 21.3791 116.887 21.3742C116.881 21.3692 116.875 21.3628 116.871 21.3555C116.866 21.3481 116.864 21.34 116.862 21.3315C116.861 21.3231 116.862 21.3145 116.864 21.3063C116.867 21.2981 116.871 21.2905 116.876 21.284C116.881 21.2774 116.888 21.272 116.896 21.2682C116.903 21.2644 116.911 21.2621 116.919 21.2616C116.928 21.2612 116.936 21.2624 116.944 21.2654C117.011 21.2869 117.083 21.2906 117.151 21.2761C117.22 21.2616 117.284 21.2293 117.338 21.1825C117.391 21.1356 117.432 21.0756 117.456 21.0082C117.48 20.9409 117.487 20.8683 117.476 20.7974ZM120.245 19.2627C120.172 19.3077 120.09 19.3346 120.005 19.3412C119.921 19.3478 119.836 19.3339 119.757 19.3006C119.749 19.2977 119.742 19.2933 119.736 19.2875C119.731 19.2818 119.726 19.2749 119.722 19.2672C119.719 19.2596 119.717 19.2513 119.717 19.243C119.717 19.2346 119.719 19.2263 119.722 19.2186C119.725 19.2109 119.73 19.2039 119.736 19.198C119.741 19.1922 119.748 19.1876 119.756 19.1845C119.764 19.1814 119.772 19.1799 119.78 19.1802C119.788 19.1804 119.796 19.1823 119.804 19.1857C119.868 19.2144 119.939 19.2257 120.009 19.2187C120.079 19.2117 120.146 19.1866 120.204 19.1457C120.261 19.1049 120.308 19.0497 120.339 18.9853C120.37 18.9209 120.385 18.8495 120.381 18.7778C120.381 18.7697 120.382 18.7615 120.385 18.7539C120.388 18.7462 120.392 18.7392 120.397 18.7332C120.403 18.7272 120.41 18.7224 120.417 18.7191C120.424 18.7157 120.432 18.7138 120.44 18.7135C120.456 18.7132 120.472 18.7193 120.483 18.7305C120.495 18.7418 120.502 18.7572 120.503 18.7736C120.507 18.8709 120.485 18.9674 120.44 19.0533C120.395 19.1392 120.329 19.2115 120.248 19.2627H120.245Z" fill="white"/>
<path d="M121.199 14.2402C121.41 13.6502 120.827 12.8908 119.896 12.5441C118.965 12.1975 118.039 12.3948 117.828 12.9848C117.617 13.5749 118.201 14.3343 119.132 14.6809C120.062 15.0276 120.988 14.8303 121.199 14.2402Z" fill="white"/>
<path d="M113.738 9.88808C113.639 9.74451 113.507 9.62797 113.354 9.54877C113.2 9.46956 113.03 9.43015 112.859 9.434C112.687 9.43786 112.519 9.48487 112.369 9.57087C112.219 9.65688 112.092 9.77922 112 9.92708C112.099 10.0706 112.23 10.1872 112.384 10.2664C112.537 10.3456 112.707 10.385 112.879 10.3812C113.051 10.3773 113.219 10.3303 113.369 10.2443C113.519 10.1583 113.645 10.0359 113.738 9.88808V9.88808Z" fill="white"/>
<path d="M114.421 10.7776C114.249 10.7813 114.081 10.8282 113.931 10.9142C113.781 11.0003 113.654 11.1228 113.562 11.2709C113.66 11.4149 113.792 11.5319 113.945 11.6114C114.098 11.6909 114.269 11.7305 114.441 11.7267C114.613 11.7228 114.781 11.6756 114.931 11.5893C115.081 11.503 115.207 11.3802 115.299 11.2319C115.201 11.0882 115.069 10.9716 114.916 10.8923C114.763 10.8131 114.593 10.7737 114.421 10.7776V10.7776Z" fill="white"/>
<path d="M115.906 12.9417C116.078 12.938 116.246 12.8909 116.396 12.8046C116.546 12.7184 116.672 12.5956 116.764 12.4474C116.666 12.3038 116.534 12.1873 116.381 12.1081C116.227 12.0289 116.057 11.9894 115.885 11.9933C115.714 11.9972 115.545 12.0442 115.396 12.1302C115.246 12.2162 115.119 12.3385 115.027 12.4864C115.126 12.6301 115.257 12.7468 115.411 12.8262C115.564 12.9056 115.734 12.9453 115.906 12.9417V12.9417Z" fill="white"/>
<path d="M114.376 8.64115C114.473 8.49624 114.533 8.32927 114.551 8.15504C114.569 7.98082 114.545 7.80473 114.48 7.64239C114.416 7.48005 114.313 7.33648 114.181 7.22442C114.049 7.11236 113.892 7.03528 113.723 7C113.627 7.14491 113.567 7.31188 113.549 7.48611C113.531 7.66033 113.555 7.83643 113.62 7.99876C113.684 8.1611 113.787 8.30467 113.919 8.41673C114.051 8.52879 114.208 8.60587 114.376 8.64115Z" fill="white"/>
<path d="M116.209 9.56754C116.306 9.42235 116.366 9.25506 116.384 9.08057C116.401 8.90607 116.377 8.72978 116.312 8.56736C116.247 8.40494 116.143 8.26144 116.011 8.14961C115.878 8.03779 115.721 7.96111 115.552 7.92639C115.456 8.07165 115.396 8.23891 115.379 8.41332C115.361 8.58774 115.386 8.76392 115.451 8.92625C115.516 9.08858 115.619 9.23204 115.751 9.34391C115.884 9.45578 116.041 9.53259 116.209 9.56754V9.56754Z" fill="white"/>
<path d="M117.889 10.4563C117.985 10.3111 118.045 10.1439 118.063 9.96936C118.081 9.79487 118.056 9.61857 117.991 9.45615C117.926 9.29374 117.823 9.15023 117.69 9.03841C117.558 8.92658 117.4 8.8499 117.231 8.81519C117.135 8.96045 117.076 9.1277 117.058 9.30212C117.04 9.47653 117.065 9.65272 117.13 9.81505C117.195 9.97738 117.298 10.1208 117.43 10.2327C117.563 10.3446 117.72 10.4214 117.889 10.4563V10.4563Z" fill="white"/>
<path d="M118.545 10.8791C118.609 10.8211 118.659 10.7477 118.689 10.6656C118.719 10.5834 118.729 10.4949 118.717 10.408C118.706 10.3211 118.673 10.2383 118.623 10.1672C118.573 10.096 118.506 10.0386 118.429 10C118.365 10.058 118.315 10.1313 118.285 10.2135C118.255 10.2957 118.245 10.3842 118.257 10.4711C118.268 10.558 118.3 10.6407 118.351 10.7119C118.401 10.7831 118.468 10.8405 118.545 10.8791V10.8791Z" fill="white"/>
<path d="M40.0341 0.119781H38.3091V15.3128H40.0341V0.119781Z" fill="white"/>
<path d="M7.37861 36.976C6.44425 36.976 5.58176 36.8323 4.8151 36.5447C4.04844 36.2571 3.37761 35.8497 2.82658 35.2746C2.27554 34.7234 1.8443 34.0285 1.53284 33.2137C1.22139 32.399 1.07764 31.4404 1.07764 30.362V21.5434H2.80262V30.2662C2.80262 31.9197 3.20991 33.1898 4.02448 34.0525C4.83905 34.9391 5.98904 35.3705 7.45049 35.3705C8.86401 35.3705 9.96608 34.9391 10.7807 34.1244C11.5952 33.2856 12.0265 32.0395 12.0265 30.362V29.6671H13.7515V30.2422C13.7515 31.3446 13.6077 32.3271 13.2963 33.1658C12.9848 34.0045 12.5536 34.6995 12.0025 35.2746C11.4515 35.8497 10.7807 36.2571 10.014 36.5447C9.19942 36.8323 8.33693 36.976 7.37861 36.976Z" fill="white"/>
<path d="M12.0508 21.5434H13.656L23.2152 33.717V21.5434H24.8923V36.7364H23.5267L13.7039 24.2753V28.5887H12.0508V21.5434Z" fill="white"/>
<path d="M34.6428 35.3945C35.5053 35.3945 36.3199 35.2267 37.0386 34.9152C37.7574 34.5797 38.4042 34.1483 38.9074 33.5732C39.4344 32.9981 39.8417 32.3511 40.1292 31.6082C40.4167 30.8653 40.5844 30.0505 40.5844 29.1879V29.1399C40.5844 28.2772 40.4407 27.4625 40.1292 26.6956C39.8417 25.9288 39.4105 25.2818 38.8834 24.7066C38.3563 24.1315 37.7095 23.7002 36.9907 23.3647C36.248 23.0292 35.4574 22.8614 34.5949 22.8614C33.7324 22.8614 32.9178 23.0292 32.1991 23.3407C31.4564 23.6762 30.8335 24.1075 30.3304 24.6827C29.8033 25.2578 29.396 25.9048 29.1085 26.6477C28.821 27.3906 28.6533 28.2053 28.6533 29.068V29.116C28.6533 29.9787 28.7971 30.7934 29.1085 31.5603C29.396 32.3271 29.8272 32.9741 30.3543 33.5493C30.8814 34.1244 31.5283 34.5557 32.247 34.8912C32.9658 35.2507 33.7803 35.3945 34.6428 35.3945ZM34.5949 37C33.4449 37 32.3908 36.7844 31.4324 36.377C30.4741 35.9456 29.6595 35.3945 28.9887 34.6755C28.3179 33.9566 27.7908 33.1179 27.4075 32.1833C27.0481 31.2248 26.8564 30.2423 26.8564 29.1879V29.1399C26.8564 28.1095 27.0481 27.103 27.4314 26.1445C27.8148 25.1859 28.3418 24.3472 29.0127 23.6283C29.6835 22.9094 30.4981 22.3342 31.4564 21.9029C32.4147 21.4715 33.4689 21.2559 34.6189 21.2559C35.7689 21.2559 36.823 21.4715 37.7813 21.8789C38.7397 22.3103 39.5303 22.8614 40.2251 23.5803C40.8959 24.2993 41.423 25.138 41.8063 26.0726C42.1657 27.0311 42.3573 28.0136 42.3573 29.068C42.3813 29.092 42.3813 29.092 42.3573 29.116C42.3573 30.1464 42.1657 31.1529 41.7823 32.1114C41.399 33.07 40.8719 33.9087 40.2011 34.6276C39.5303 35.3465 38.7157 35.9217 37.7574 36.353C36.823 36.7844 35.7689 37 34.5949 37Z" fill="white"/>
<path d="M20.1966 15.0492C20.1966 15.6243 19.7414 16.0797 19.1664 16.0797C18.5914 16.0797 18.1362 15.6243 18.1362 15.0492C18.1362 14.4741 18.5914 14.0188 19.1664 14.0188C19.7414 14.0188 20.1966 14.4741 20.1966 15.0492Z" fill="#00ACB9"/>
<path d="M8.52907 0H6.92388L0 15.2889H1.74894L4.24058 9.75324L7.7145 1.98899L11.1645 9.75324H11.1405L11.8113 11.2869H11.8353L13.6082 15.2889H15.453L8.52907 0Z" fill="white"/>
<path d="M33.7329 11.0472C33.7329 11.9099 33.3975 12.557 32.7267 13.0362C32.0559 13.5155 31.1455 13.7552 29.9955 13.7552H28.2944H24.9164V8.38727V6.85359V1.65346H28.2944H29.5163C30.5944 1.65346 31.433 1.86913 32.0079 2.32445C32.5829 2.77976 32.8704 3.37885 32.8704 4.12173V4.16965C32.8704 5.05631 32.559 5.7273 31.9121 6.18261C31.2652 6.63792 30.4267 6.85359 29.3965 6.85359H28.2944V8.38727H29.684C31.0017 8.38727 32.0079 8.60295 32.7027 9.08222C33.3736 9.53753 33.709 10.1846 33.709 10.9993V11.0472H33.7329ZM35.1944 9.72924C35.0267 9.32186 34.7871 8.98637 34.4996 8.6988C34.2121 8.41124 33.8767 8.14763 33.4694 7.95592C33.0621 7.74025 32.6548 7.5725 32.1996 7.45269C32.5111 7.33287 32.7986 7.16512 33.0861 6.97341C33.3736 6.7817 33.6131 6.54206 33.8527 6.2545C34.0923 5.96693 34.26 5.63144 34.4038 5.24802C34.5475 4.8646 34.6194 4.43325 34.6194 3.93002V3.88209C34.6194 2.9475 34.284 2.13274 33.6371 1.46175C33.2058 1.05437 32.6548 0.718875 31.984 0.479238C31.3132 0.2396 30.5465 0.119781 29.684 0.119781H23.2153V15.3128H29.9476C30.7621 15.3128 31.5288 15.2169 32.1996 15.0252C32.8704 14.8335 33.4694 14.5699 33.9485 14.2105C34.4277 13.851 34.811 13.4197 35.0746 12.9164C35.3381 12.4132 35.4579 11.8141 35.4579 11.1671V11.1191C35.4579 10.5919 35.3621 10.1127 35.1944 9.72924Z" fill="white"/>
</svg>
