<?xml version="1.0" encoding="UTF-8"?>
<svg width="100px" height="100px" viewBox="0 0 100 100" version="1.1" xmlns="http://www.w3.org/2000/svg" xmlns:xlink="http://www.w3.org/1999/xlink">
    <!-- Generator: Sketch 63.1 (92452) - https://sketch.com -->
    <title>icon/design/ascoltiamo@1x</title>
    <desc>Created with Sketch.</desc>
    <defs>
        <rect id="path-1" x="0" y="0" width="100" height="100"></rect>
        <polygon id="path-3" points="0.00015 0.0012 46.719 0.0012 46.719 77.12055 0.00015 77.12055"></polygon>
        <rect id="path-5" x="0" y="0" width="100" height="100"></rect>
    </defs>
    <g id="icon/design/ascoltiamo" stroke="none" stroke-width="1" fill="none" fill-rule="evenodd">
        <g id="Group">
            <g id="icon/advantage/1">
                <mask id="mask-2" fill="white">
                    <use xlink:href="#path-1"></use>
                </mask>
                <g id="Mask"></g>
                <g id="Group-13" mask="url(#mask-2)">
                    <g transform="translate(15.000000, 11.000000)">
                        <g id="Group-10">
                            <polygon id="Stroke-2" stroke="#36F2B9" stroke-width="0.5" points="70 66.7614571 61.4169755 72 61 71.2385429 69.5830245 66"></polygon>
                            <polygon id="Stroke-5" stroke="#36F2B9" stroke-width="0.5" points="47 66.7614571 38.4169755 72 38 71.2385429 46.5830245 66"></polygon>
                            <polygon id="Stroke-7" stroke="#36F2B9" stroke-width="0.5" points="23 66.7614571 14.4169755 72 14 71.2385429 22.5830245 66"></polygon>
                            <polygon id="Stroke-24" stroke="#36F2B9" stroke-width="0.5" points="70 44.7645332 61.4169755 50 61 49.2354668 69.5830245 44"></polygon>
                            <polygon id="Stroke-27" stroke="#36F2B9" stroke-width="0.5" points="41 44.7645332 32.4169755 50 32 49.2354668 40.5830245 44"></polygon>
                            <polygon id="Stroke-30" stroke="#36F2B9" stroke-width="0.5" points="17 44.7645332 8.41697554 50 8 49.2354668 16.5830245 44"></polygon>
                            <polygon id="Fill-53" fill="#FFFFFF" points="63.5830245 72 55 77.2385429 55.4169755 78 64 72.7614571"></polygon>
                            <polygon id="Fill-54" fill="#FFFFFF" points="40.5830245 72 32 77.2385429 32.4169755 78 41 72.7614571"></polygon>
                            <polygon id="Fill-55" fill="#FFFFFF" points="16.5830245 72 8 77.2385429 8.41697554 78 17 72.7614571"></polygon>
                            <polygon id="Fill-63" fill="#FFFFFF" points="55 55.2354668 55.4169755 56 64 50.7645332 63.5830245 50"></polygon>
                            <polygon id="Fill-64" fill="#FFFFFF" points="41 50.7645332 32.4169755 56 32 55.2354668 40.5830245 50"></polygon>
                            <polygon id="Fill-65" fill="#FFFFFF" points="17 50.7645332 8.41697554 56 8 55.2354668 16.5830245 50"></polygon>
                            <mask id="mask-4" fill="white">
                                <use xlink:href="#path-3"></use>
                            </mask>
                            <g id="Clip-2"></g>
                        </g>
                        <g id="Group-9" transform="translate(8.000000, 44.000000)">
                            <g id="Group-8"></g>
                        </g>
                    </g>
                </g>
            </g>
            <g id="006-camcorder" transform="translate(10.000000, 14.000000)" fill="#7878F9" fill-rule="nonzero">
                <path d="M14.262084,53.252478 C11.831832,49.042971 8.417133,46.771578 6.438321,46.771578 C6.3099,46.771578 6.191397,46.781325 6.076998,46.80099 C5.860512,46.835532 5.653773,46.925307 5.478327,47.065185 C4.428216,47.903427 4.482594,50.081283 4.554585,50.978691 C4.672233,52.442109 5.152059,54.774891 6.770403,57.577923 C9.200313,61.786917 12.615183,64.058481 14.594508,64.058823 L14.59485,64.058823 C14.725836,64.058823 14.846733,64.048734 14.964381,64.027872 C15.178644,63.992304 15.381963,63.902358 15.553989,63.765045 C16.6041,62.926803 16.549893,60.748947 16.477731,59.851539 C16.360254,58.388463 15.880428,56.05551 14.262084,53.252478 Z M13.926924,61.296831 C12.832695,60.813414 10.770777,59.377356 8.991522,56.295594 C7.235694,53.25453 6.981588,50.740659 7.105221,49.533399 C8.198937,50.016303 10.260855,51.45219 12.040794,54.534978 C13.796451,57.575871 14.050557,60.089571 13.926924,61.296831 Z" id="Shape"></path>
                <path d="M79.271154,16.459605 C79.271154,16.001325 79.026453,15.577929 78.629562,15.34896 L52.52607,0.281979 C52.12935,0.05301 51.64029,0.05301 51.243912,0.281979 L7.737408,25.396236 C7.340517,25.625205 7.096158,26.048601 7.096158,26.506881 L7.096158,40.854978 L3.36357,43.044462 L3.364083,43.044633 C1.206063,44.294643 0.011286,46.807317 -7.98004469e-05,50.121468 C-0.010431,53.186985 1.00206,56.63862 2.850912,59.840766 C5.985171,65.269503 10.648341,68.5881 14.588181,68.5881 C15.682752,68.5881 16.721577,68.3316 17.656092,67.793292 L17.656092,67.793634 L20.930742,65.923407 L33.87339,72.852669 C34.062687,72.954072 34.270794,73.004517 34.47873,73.004517 C34.700346,73.004517 34.921449,72.945864 35.119296,72.831636 L78.629904,47.711736 C79.026624,47.482596 79.271154,47.059371 79.271154,46.601091 L79.271154,16.459605 L79.271154,16.459605 Z M51.884991,2.873484 L75.42297,16.459776 L34.47873,40.09779 L10.943487,26.507223 L51.884991,2.873484 Z M13.324491,40.175082 C15.953445,38.657457 21.124143,41.112333 24.63084,47.186253 C26.26389,50.014935 27.170532,53.026416 27.1836697,55.666143 C27.195327,58.058091 26.469774,59.798016 25.14555,60.562557 L20.804544,63.041886 C20.952459,62.319411 21.02958,61.53948 21.032316,60.709275 C21.042747,57.643758 20.030256,54.192123 18.181404,50.989977 C16.332723,47.787831 13.849632,45.185211 11.189727,43.66143 C10.464345,43.2459 9.745461,42.921513 9.041112,42.687927 L13.324491,40.175082 Z M16.378551,65.569437 C13.749597,67.087233 8.57907,64.632186 5.072202,58.558437 C3.446676,55.74258 2.556279,52.749396 2.56493654,50.130189 C2.573037,47.763378 3.314835,46.034226 4.653594,45.261306 C5.177709,44.958636 5.783049,44.808669 6.449094,44.808669 C7.483986,44.808669 8.664912,45.171189 9.91458,45.886995 C12.187341,47.188989 14.334246,49.45662 15.959943,52.272306 C17.58564,55.087992 18.476037,58.081176 18.467211,60.700554 C18.459279,63.067194 17.717481,64.796346 16.378551,65.569437 Z M33.196059,69.580926 L23.559867,64.421856 L26.422749,62.786754 C28.583847,61.539138 29.764944,59.005773 29.748357,55.653489 C29.733138,52.574976 28.704573,49.112397 26.851959,45.903753 C22.8456,38.964402 16.340247,35.472582 12.034125,37.958238 L9.660816,39.350349 L9.660816,28.728513 L33.196059,42.31908 L33.196059,69.580926 L33.196059,69.580926 Z M35.761059,69.500898 L35.761059,42.31908 L76.705983,18.680895 L76.705983,45.860832 L35.761059,69.500898 Z" id="Shape"></path>
                <path d="M69.928569,30.423636 C69.531849,30.194496 69.04296,30.194667 68.64624,30.423636 L42.542748,45.490617 C42.145857,45.719757 41.901327,46.143153 41.901327,46.601433 L41.901327,56.648709 C41.901327,57.106818 42.145857,57.530214 42.542577,57.759354 C42.740937,57.873924 42.962382,57.931209 43.183827,57.931209 C43.405272,57.931209 43.626546,57.873924 43.824906,57.759525 L69.928398,42.692544 C70.325289,42.463404 70.569819,42.040008 70.569819,41.581728 L70.569819,31.534623 C70.569819,31.076172 70.325289,30.652776 69.928569,30.423636 Z" id="Shape"></path>
            </g>
            <mask id="mask-6" fill="white">
                <use xlink:href="#path-5"></use>
            </mask>
            <g id="Mask"></g>
        </g>
    </g>
</svg>