<?xml version="1.0" encoding="UTF-8"?>
<svg width="214px" height="80px" viewBox="0 0 214 80" version="1.1" xmlns="http://www.w3.org/2000/svg" xmlns:xlink="http://www.w3.org/1999/xlink">
    <!-- Generator: Sketch 63.1 (92452) - https://sketch.com -->
    <title>logo/aws</title>
    <desc>Created with Sketch.</desc>
    <defs>
        <rect id="path-1" x="0" y="0.63625" width="214" height="79"></rect>
    </defs>
    <g id="logo/aws" stroke="none" stroke-width="1" fill="none" fill-rule="evenodd">
        <g id="logo/cogne" transform="translate(0.000000, -1.000000)">
            <mask id="mask-2" fill="white">
                <use xlink:href="#path-1"></use>
            </mask>
            <g id="Mask"></g>
            <g id="Amazon_Web_Services_Logo" mask="url(#mask-2)">
                <g transform="translate(71.000000, 20.000000)">
                    <path d="M20.1233455,15.4106182 C20.1233455,16.2824727 20.2176,16.9893818 20.3825455,17.5077818 C20.5710545,18.0261818 20.8066909,18.5917091 21.1365818,19.2043636 C21.2544,19.3928727 21.3015273,19.5813818 21.3015273,19.7463273 C21.3015273,19.9819636 21.1601455,20.2176 20.8538182,20.4532364 L19.3693091,21.4429091 C19.1572364,21.5842909 18.9451636,21.6549818 18.7566545,21.6549818 C18.5210182,21.6549818 18.2853818,21.5371636 18.0497455,21.3250909 C17.7198545,20.9716364 17.4370909,20.5946182 17.2014545,20.2176 C16.9658182,19.8170182 16.7301818,19.3693091 16.4709818,18.8273455 C14.6330182,20.9952 12.3237818,22.0791273 9.54327273,22.0791273 C7.56392727,22.0791273 5.98516364,21.5136 4.83054545,20.3825455 C3.67592727,19.2514909 3.08683636,17.7434182 3.08683636,15.8583273 C3.08683636,13.8554182 3.79374545,12.2295273 5.23112727,11.0042182 C6.66850909,9.77890909 8.57716364,9.16625455 11.0042182,9.16625455 C11.8053818,9.16625455 12.6301091,9.23694545 13.5019636,9.35476364 C14.3738182,9.47258182 15.2692364,9.66109091 16.2117818,9.87316364 L16.2117818,8.15301818 C16.2117818,6.36218182 15.8347636,5.11330909 15.1042909,4.38283636 C14.3502545,3.65236364 13.0778182,3.29890909 11.2634182,3.29890909 C10.4386909,3.29890909 9.5904,3.39316364 8.71854545,3.60523636 C7.84669091,3.81730909 6.9984,4.07650909 6.17367273,4.4064 C5.79665455,4.57134545 5.51389091,4.6656 5.34894545,4.71272727 C5.184,4.75985455 5.06618182,4.78341818 4.97192727,4.78341818 C4.64203636,4.78341818 4.47709091,4.54778182 4.47709091,4.05294545 L4.47709091,2.89832727 C4.47709091,2.52130909 4.52421818,2.23854545 4.64203636,2.0736 C4.75985455,1.90865455 4.97192727,1.74370909 5.30181818,1.57876364 C6.12654545,1.15461818 7.11621818,0.801163636 8.27083636,0.5184 C9.42545455,0.212072727 10.6507636,0.0706909091 11.9467636,0.0706909091 C14.7508364,0.0706909091 16.8008727,0.706909091 18.1204364,1.97934545 C19.4164364,3.25178182 20.0762182,5.184 20.0762182,7.776 L20.0762182,15.4106182 L20.1233455,15.4106182 Z M10.5565091,18.9922909 C11.3341091,18.9922909 12.1352727,18.8509091 12.9835636,18.5681455 C13.8318545,18.2853818 14.5858909,17.7669818 15.2221091,17.0600727 C15.5991273,16.6123636 15.8818909,16.1175273 16.0232727,15.552 C16.1646545,14.9864727 16.2589091,14.3031273 16.2589091,13.5019636 L16.2589091,12.5122909 C15.5755636,12.3473455 14.8450909,12.2059636 14.0910545,12.1117091 C13.3370182,12.0174545 12.6065455,11.9703273 11.8760727,11.9703273 C10.2973091,11.9703273 9.14269091,12.2766545 8.36509091,12.9128727 C7.58749091,13.5490909 7.21047273,14.4445091 7.21047273,15.6226909 C7.21047273,16.7301818 7.49323636,17.5549091 8.08232727,18.1204364 C8.64785455,18.7095273 9.47258182,18.9922909 10.5565091,18.9922909 Z M29.4781091,21.5371636 C29.0539636,21.5371636 28.7712,21.4664727 28.5826909,21.3015273 C28.3941818,21.1601455 28.2292364,20.8302545 28.0878545,20.3825455 L22.5504,2.16785455 C22.4090182,1.69658182 22.3383273,1.39025455 22.3383273,1.22530909 C22.3383273,0.848290909 22.5268364,0.636218182 22.9038545,0.636218182 L25.2130909,0.636218182 C25.6608,0.636218182 25.9671273,0.706909091 26.1320727,0.871854545 C26.3205818,1.01323636 26.4619636,1.34312727 26.6033455,1.79083636 L30.5620364,17.3899636 L34.2379636,1.79083636 C34.3557818,1.31956364 34.4971636,1.01323636 34.6856727,0.871854545 C34.8741818,0.730472727 35.2040727,0.636218182 35.6282182,0.636218182 L37.5133091,0.636218182 C37.9610182,0.636218182 38.2673455,0.706909091 38.4558545,0.871854545 C38.6443636,1.01323636 38.8093091,1.34312727 38.9035636,1.79083636 L42.6266182,17.5784727 L46.7031273,1.79083636 C46.8445091,1.31956364 47.0094545,1.01323636 47.1744,0.871854545 C47.3629091,0.730472727 47.6692364,0.636218182 48.0933818,0.636218182 L50.2848,0.636218182 C50.6618182,0.636218182 50.8738909,0.824727273 50.8738909,1.22530909 C50.8738909,1.34312727 50.8503273,1.46094545 50.8267636,1.60232727 C50.8032,1.74370909 50.7560727,1.93221818 50.6618182,2.19141818 L44.9829818,20.4061091 C44.8416,20.8773818 44.6766545,21.1837091 44.4881455,21.3250909 C44.2996364,21.4664727 43.9933091,21.5607273 43.5927273,21.5607273 L41.5662545,21.5607273 C41.1185455,21.5607273 40.8122182,21.4900364 40.6237091,21.3250909 C40.4352,21.1601455 40.2702545,20.8538182 40.176,20.3825455 L36.5236364,5.184 L32.8948364,20.3589818 C32.7770182,20.8302545 32.6356364,21.1365818 32.4471273,21.3015273 C32.2586182,21.4664727 31.9287273,21.5371636 31.5045818,21.5371636 L29.4781091,21.5371636 Z M59.7573818,22.1733818 C58.5320727,22.1733818 57.3067636,22.032 56.1285818,21.7492364 C54.9504,21.4664727 54.0314182,21.1601455 53.4187636,20.8066909 C53.0417455,20.5946182 52.7825455,20.3589818 52.6882909,20.1469091 C52.5940364,19.9348364 52.5469091,19.6992 52.5469091,19.4871273 L52.5469091,18.2853818 C52.5469091,17.7905455 52.7354182,17.5549091 53.0888727,17.5549091 C53.2302545,17.5549091 53.3716364,17.5784727 53.5130182,17.6256 C53.6544,17.6727273 53.8664727,17.7669818 54.1021091,17.8612364 C54.9032727,18.2146909 55.7751273,18.4974545 56.6941091,18.6859636 C57.6366545,18.8744727 58.5556364,18.9687273 59.4981818,18.9687273 C60.9826909,18.9687273 62.1373091,18.7095273 62.9384727,18.1911273 C63.7396364,17.6727273 64.1637818,16.9186909 64.1637818,15.9525818 C64.1637818,15.2928 63.9517091,14.7508364 63.5275636,14.3031273 C63.1034182,13.8554182 62.3022545,13.4548364 61.1476364,13.0778182 L57.7309091,12.0174545 C56.0107636,11.4754909 54.7383273,10.6743273 53.9607273,9.61396364 C53.1831273,8.57716364 52.7825455,7.42254545 52.7825455,6.19723636 C52.7825455,5.20756364 52.9946182,4.33570909 53.4187636,3.58167273 C53.8429091,2.82763636 54.4084364,2.16785455 55.1153455,1.64945455 C55.8222545,1.10749091 56.6234182,0.706909091 57.5659636,0.424145455 C58.5085091,0.141381818 59.4981818,0.0235636364 60.5349818,0.0235636364 C61.0533818,0.0235636364 61.5953455,0.0471272727 62.1137455,0.117818182 C62.6557091,0.188509091 63.1505455,0.282763636 63.6453818,0.377018182 C64.1166545,0.494836364 64.5643636,0.612654545 64.9885091,0.754036364 C65.4126545,0.895418182 65.7425455,1.0368 65.9781818,1.17818182 C66.3080727,1.36669091 66.5437091,1.5552 66.6850909,1.76727273 C66.8264727,1.95578182 66.8971636,2.21498182 66.8971636,2.54487273 L66.8971636,3.65236364 C66.8971636,4.1472 66.7086545,4.4064 66.3552,4.4064 C66.1666909,4.4064 65.8603636,4.31214545 65.4597818,4.12363636 C64.1166545,3.51098182 62.6085818,3.20465455 60.9355636,3.20465455 C59.5924364,3.20465455 58.5320727,3.41672727 57.8016,3.86443636 C57.0711273,4.31214545 56.6941091,4.99549091 56.6941091,5.9616 C56.6941091,6.62138182 56.9297455,7.18690909 57.4010182,7.63461818 C57.8722909,8.08232727 58.7441455,8.53003636 59.9930182,8.93061818 L63.3390545,9.99098182 C65.0356364,10.5329455 66.2609455,11.2869818 66.9914182,12.2530909 C67.7218909,13.2192 68.0753455,14.3266909 68.0753455,15.552 C68.0753455,16.5652364 67.8632727,17.4842182 67.4626909,18.2853818 C67.0385455,19.0865455 66.4730182,19.7934545 65.7425455,20.3589818 C65.0120727,20.9480727 64.1402182,21.3722182 63.1269818,21.6785455 C62.0666182,22.0084364 60.9591273,22.1733818 59.7573818,22.1733818 Z" id="Shape" fill="#FFFFFF" fill-rule="nonzero"></path>
                    <g id="Group" stroke-width="1" fill="none" fill-rule="evenodd" transform="translate(0.000000, 26.391273)">
                        <path d="M64.2109091,7.23403636 C56.4584727,12.96 45.1950545,15.9997091 35.5104,15.9997091 C21.9377455,15.9997091 9.70821818,10.9806545 0.471272727,2.63912727 C-0.2592,1.97934545 0.400581818,1.08392727 1.27243636,1.60232727 C11.2634182,7.39898182 23.5872,10.9099636 36.3351273,10.9099636 C44.9358545,10.9099636 54.3848727,9.11912727 63.0798545,5.4432 C64.3758545,4.85410909 65.4833455,6.29149091 64.2109091,7.23403636 Z" id="Path" fill="#FFFFFF"></path>
                        <path d="M67.4391273,3.55810909 C66.4494545,2.28567273 60.8884364,2.94545455 58.3671273,3.25178182 C57.6130909,3.34603636 57.4952727,2.68625455 58.1786182,2.19141818 C62.6085818,-0.918981818 69.8897455,-0.0235636364 70.7380364,1.01323636 C71.5863273,2.0736 70.5024,9.35476364 66.3552,12.8421818 C65.7189818,13.3841455 65.1063273,13.1013818 65.3890909,12.3944727 C66.3316364,10.0616727 68.4288,4.80698182 67.4391273,3.55810909 Z" id="Path" fill="#FFFFFF"></path>
                    </g>
                </g>
            </g>
        </g>
    </g>
</svg>