<?xml version="1.0" encoding="UTF-8"?>
<svg width="427px" height="11px" viewBox="0 0 427 11" version="1.1" xmlns="http://www.w3.org/2000/svg" xmlns:xlink="http://www.w3.org/1999/xlink">
    <!-- Generator: Sketch 64 (93537) - https://sketch.com -->
    <title>deco_ext</title>
    <desc>Created with Sketch.</desc>
    <g id="Email-template" stroke="none" stroke-width="1" fill="none" fill-rule="evenodd">
        <g id="deco_ext" fill="#36F2B9">
            <g id="Group">
                <polygon id="Fill-101" points="0 0.508765195 5.72152716 4 6 3.49174664 0.277504238 0"></polygon>
                <polygon id="Fill-102" points="16.2779212 0 22 3.49143003 21.7220788 4 16 0.508569967"></polygon>
                <polygon id="Fill-103" points="33.278011 0 39 3.4912348 38.721989 4 33 0.508765195"></polygon>
                <polygon id="Fill-104" points="49.277549 0 55 3.4912348 54.722451 4 49 0.508765195"></polygon>
                <polygon id="Fill-105" points="65.278011 0 71 3.4912348 70.721989 4 65 0.508765195"></polygon>
                <polygon id="Fill-106" points="81.2779212 0 87 3.49143003 86.7220788 4 81 0.508569967"></polygon>
                <polygon id="Fill-107" points="97.278011 0 103 3.4912348 102.721989 4 97 0.508765195"></polygon>
                <polygon id="Fill-108" points="113.277549 0 119 3.4912348 118.722451 4 113 0.508765195"></polygon>
                <polygon id="Fill-109" points="130.278011 0 136 3.4912348 135.721989 4 130 0.508765195"></polygon>
                <polygon id="Fill-110" points="146.277921 0 152 3.49143003 151.722079 4 146 0.508569967"></polygon>
                <polygon id="Fill-111" points="162.278011 0 168 3.4912348 167.722473 4 162 0.508765195"></polygon>
                <polygon id="Fill-112" points="178.277527 0 184 3.4912348 183.721989 4 178 0.508765195"></polygon>
                <polygon id="Fill-113" points="194.278011 0 200 3.4912348 199.721989 4 194 0.508765195"></polygon>
                <polygon id="Fill-114" points="210.277921 0 216 3.49143003 215.722079 4 210 0.508569967"></polygon>
                <polygon id="Fill-115" points="227.278011 0 233 3.4912348 232.722473 4 227 0.508765195"></polygon>
                <polygon id="Fill-116" points="243.277527 0 249 3.4912348 248.721989 4 243 0.508765195"></polygon>
                <polygon id="Fill-117" points="259.278011 0 265 3.4912348 264.721989 4 259 0.508765195"></polygon>
                <polygon id="Fill-118" points="275.278011 0 281 3.4912348 280.721989 4 275 0.508765195"></polygon>
                <polygon id="Fill-119" points="291.278011 0 297 3.4912348 296.722473 4 291 0.508765195"></polygon>
                <polygon id="Fill-120" points="308.278011 0 314 3.4912348 313.721989 4 308 0.508765195"></polygon>
                <polygon id="Fill-121" points="324.278011 0 330 3.4912348 329.722473 4 324 0.508765195"></polygon>
                <polygon id="Fill-122" points="340.278011 0 346 3.4912348 345.721989 4 340 0.508765195"></polygon>
                <polygon id="Fill-123" points="356.277549 0 362 3.4912348 361.722451 4 356 0.508765195"></polygon>
                <polygon id="Fill-124" points="372.278011 0 378 3.4912348 377.721989 4 372 0.508765195"></polygon>
                <polygon id="Fill-125" points="388.277921 0 394 3.49143003 393.722079 4 388 0.508569967"></polygon>
                <polygon id="Fill-126" points="405.278011 0 411 3.4912348 410.721989 4 405 0.508765195"></polygon>
                <polygon id="Fill-127" points="421.277527 0 427 3.4912348 426.721989 4 421 0.508765195"></polygon>
            </g>
            <g id="Group-Copy" transform="translate(0.000000, 7.000000)">
                <polygon id="Fill-101" points="0 0.508765195 5.72152716 4 6 3.49174664 0.277504238 0"></polygon>
                <polygon id="Fill-102" points="16.2779212 0 22 3.49143003 21.7220788 4 16 0.508569967"></polygon>
                <polygon id="Fill-103" points="33.278011 0 39 3.4912348 38.721989 4 33 0.508765195"></polygon>
                <polygon id="Fill-104" points="49.277549 0 55 3.4912348 54.722451 4 49 0.508765195"></polygon>
                <polygon id="Fill-105" points="65.278011 0 71 3.4912348 70.721989 4 65 0.508765195"></polygon>
                <polygon id="Fill-106" points="81.2779212 0 87 3.49143003 86.7220788 4 81 0.508569967"></polygon>
                <polygon id="Fill-107" points="97.278011 0 103 3.4912348 102.721989 4 97 0.508765195"></polygon>
                <polygon id="Fill-108" points="113.277549 0 119 3.4912348 118.722451 4 113 0.508765195"></polygon>
                <polygon id="Fill-109" points="130.278011 0 136 3.4912348 135.721989 4 130 0.508765195"></polygon>
                <polygon id="Fill-110" points="146.277921 0 152 3.49143003 151.722079 4 146 0.508569967"></polygon>
                <polygon id="Fill-111" points="162.278011 0 168 3.4912348 167.722473 4 162 0.508765195"></polygon>
                <polygon id="Fill-112" points="178.277527 0 184 3.4912348 183.721989 4 178 0.508765195"></polygon>
                <polygon id="Fill-113" points="194.278011 0 200 3.4912348 199.721989 4 194 0.508765195"></polygon>
                <polygon id="Fill-114" points="210.277921 0 216 3.49143003 215.722079 4 210 0.508569967"></polygon>
                <polygon id="Fill-115" points="227.278011 0 233 3.4912348 232.722473 4 227 0.508765195"></polygon>
                <polygon id="Fill-116" points="243.277527 0 249 3.4912348 248.721989 4 243 0.508765195"></polygon>
                <polygon id="Fill-117" points="259.278011 0 265 3.4912348 264.721989 4 259 0.508765195"></polygon>
                <polygon id="Fill-118" points="275.278011 0 281 3.4912348 280.721989 4 275 0.508765195"></polygon>
                <polygon id="Fill-119" points="291.278011 0 297 3.4912348 296.722473 4 291 0.508765195"></polygon>
                <polygon id="Fill-120" points="308.278011 0 314 3.4912348 313.721989 4 308 0.508765195"></polygon>
                <polygon id="Fill-121" points="324.278011 0 330 3.4912348 329.722473 4 324 0.508765195"></polygon>
                <polygon id="Fill-122" points="340.278011 0 346 3.4912348 345.721989 4 340 0.508765195"></polygon>
                <polygon id="Fill-123" points="356.277549 0 362 3.4912348 361.722451 4 356 0.508765195"></polygon>
                <polygon id="Fill-124" points="372.278011 0 378 3.4912348 377.721989 4 372 0.508765195"></polygon>
                <polygon id="Fill-125" points="388.277921 0 394 3.49143003 393.722079 4 388 0.508569967"></polygon>
                <polygon id="Fill-126" points="405.278011 0 411 3.4912348 410.721989 4 405 0.508765195"></polygon>
                <polygon id="Fill-127" points="421.277527 0 427 3.4912348 426.721989 4 421 0.508765195"></polygon>
            </g>
        </g>
    </g>
</svg>