<?xml version="1.0" encoding="UTF-8"?>
<svg width="158px" height="122px" viewBox="0 0 158 122" version="1.1" xmlns="http://www.w3.org/2000/svg" xmlns:xlink="http://www.w3.org/1999/xlink">
    <!-- Generator: Sketch 63.1 (92452) - https://sketch.com -->
    <title>icon/collaborative/design@1x</title>
    <desc>Created with Sketch.</desc>
    <defs>
        <rect id="path-1" x="0" y="0" width="128" height="128"></rect>
    </defs>
    <g id="UI" stroke="none" stroke-width="1" fill="none" fill-rule="evenodd">
        <g id="B.1.4---Servizi-|-Collaborative-team" transform="translate(-1004.000000, -969.000000)">
            <g id="icon/collaborative/design" transform="translate(990.000000, 966.000000)">
                <g>
                    <g>
                        <g id="Group-5" transform="translate(47.000000, 25.000000)">
                            <g id="Group-3">
                                <g id="Group-73-Copy-4" transform="translate(62.000000, 17.000000) scale(1, -1) translate(-62.000000, -17.000000) ">
                                    <polygon id="Fill-10" fill="#36F2B9" points="124 6.76145711 115.416976 12 115 11.2385429 123.583024 6"></polygon>
                                    <polygon id="Stroke-11" stroke="#36F2B9" stroke-width="0.5" points="124 6.76145711 115.416976 12 115 11.2385429 123.583024 6"></polygon>
                                    <polygon id="Fill-12" fill="#36F2B9" points="100 6.76145711 91.4169755 12 91 11.2385429 99.5830245 6"></polygon>
                                    <polygon id="Stroke-13" stroke="#36F2B9" stroke-width="0.5" points="100 6.76145711 91.4169755 12 91 11.2385429 99.5830245 6"></polygon>
                                    <polygon id="Fill-14" fill="#36F2B9" points="78 6.76145711 69.4169755 12 69 11.2385429 77.5830245 6"></polygon>
                                    <polygon id="Stroke-15" stroke="#36F2B9" stroke-width="0.5" points="78 6.76145711 69.4169755 12 69 11.2385429 77.5830245 6"></polygon>
                                    <polygon id="Fill-16" fill="#36F2B9" points="56 6.76453318 47.416821 12 47 11.23899 55.583179 6"></polygon>
                                    <polygon id="Stroke-17" stroke="#36F2B9" stroke-width="0.5" points="56 6.76453318 47.416821 12 47 11.23899 55.583179 6"></polygon>
                                    <polygon id="Fill-18" fill="#36F2B9" points="32 6.76145711 23.4169755 12 23 11.2385429 31.5830245 6"></polygon>
                                    <polygon id="Stroke-19" stroke="#36F2B9" stroke-width="0.5" points="32 6.76145711 23.4169755 12 23 11.2385429 31.5830245 6"></polygon>
                                    <polygon id="Fill-20" fill="#36F2B9" points="0 11.2354668 0.416975537 12 9 6.76453318 8.58636027 6"></polygon>
                                    <polygon id="Stroke-21" stroke="#36F2B9" stroke-width="0.5" points="9 6.76145711 0.416975537 12 0 11.2385429 8.58302446 6"></polygon>
                                    <polygon id="Fill-35" fill="#36F2B9" points="115 33.2350176 115.416976 34 124 28.7614571 123.583024 28"></polygon>
                                    <polygon id="Stroke-36" stroke="#36F2B9" stroke-width="0.5" points="124 28.7645332 115.416976 34 115 33.2354668 123.583024 28"></polygon>
                                    <polygon id="Fill-38" fill="#36F2B9" points="91 33.2350176 91.4136397 34 100 28.7614571 99.5830245 28"></polygon>
                                    <polygon id="Stroke-39" stroke="#36F2B9" stroke-width="0.5" points="100 28.7645332 91.4169755 34 91 33.2354668 99.5830245 28"></polygon>
                                    <polygon id="Fill-41" fill="#36F2B9" points="69 33.2350176 69.4136397 34 78 28.7614571 77.5830245 28"></polygon>
                                    <polygon id="Stroke-42" stroke="#36F2B9" stroke-width="0.5" points="78 28.7645332 69.4169755 34 69 33.2354668 77.5830245 28"></polygon>
                                    <polygon id="Fill-44" fill="#36F2B9" points="47 33.2385429 47.4166667 34 56 28.7614571 55.5833333 28"></polygon>
                                    <polygon id="Stroke-45" stroke="#36F2B9" stroke-width="0.5" points="56 28.7614571 47.416821 34 47 33.2385429 55.583179 28"></polygon>
                                    <polygon id="Fill-47" fill="#36F2B9" points="23 33.2350176 23.4169755 34 32 28.7614571 31.5863603 28"></polygon>
                                    <polygon id="Stroke-48" stroke="#36F2B9" stroke-width="0.5" points="32 28.7645332 23.4169755 34 23 33.2354668 31.5830245 28"></polygon>
                                    <polygon id="Fill-50" fill="#36F2B9" points="0 33.2350176 0.416975537 34 9 28.7614571 8.58636027 28"></polygon>
                                    <polygon id="Stroke-51" stroke="#36F2B9" stroke-width="0.5" points="9 28.7645332 0.416975537 34 0 33.2354668 8.58302446 28"></polygon>
                                    <polygon id="Fill-57" fill="#FFFFFF" points="123.583024 0 115 5.23854289 115.416976 6 124 0.761457109"></polygon>
                                    <polygon id="Fill-58" fill="#FFFFFF" points="99.5830245 0 91 5.23854289 91.4136397 6 100 0.761457109"></polygon>
                                    <polygon id="Fill-59" fill="#FFFFFF" points="77.5830245 0 69 5.23854289 69.4136397 6 78 0.761457109"></polygon>
                                    <polygon id="Fill-60" fill="#FFFFFF" points="55.5766667 0 47 5.23546682 47.4166667 6 56 0.761009982 55.5833333 0"></polygon>
                                    <polygon id="Fill-61" fill="#FFFFFF" points="31.5863603 0 23 5.23854289 23.4169755 6 32 0.761457109"></polygon>
                                    <polygon id="Fill-62" fill="#FFFFFF" points="8.58636027 0 0 5.23854289 0.416975537 6 9 0.761457109"></polygon>
                                    <polygon id="Fill-67" fill="#FFFFFF" points="124 22.7645332 115.416976 28 115 27.2354668 123.583024 22"></polygon>
                                    <polygon id="Fill-68" fill="#FFFFFF" points="100 22.7645332 91.4169755 28 91 27.2354668 99.5830245 22"></polygon>
                                    <polygon id="Fill-69" fill="#FFFFFF" points="78 22.7645332 69.4169755 28 69 27.2354668 77.5830245 22"></polygon>
                                    <polygon id="Fill-70" fill="#FFFFFF" points="56 22.7614571 47.416821 28 47 27.2385429 55.583179 22"></polygon>
                                    <polygon id="Fill-71" fill="#FFFFFF" points="32 22.7645332 23.4169755 28 23 27.2354668 31.5830245 22"></polygon>
                                    <polygon id="Fill-72" fill="#FFFFFF" points="0 27.2354668 0.416975537 28 9 22.7645332 8.58636027 22"></polygon>
                                </g>
                                <g id="Group-73-Copy-4" transform="translate(62.000000, 61.000000) scale(1, -1) translate(-62.000000, -61.000000) translate(0.000000, 44.000000)">
                                    <polygon id="Fill-10" fill="#36F2B9" points="124 6.76145711 115.416976 12 115 11.2385429 123.583024 6"></polygon>
                                    <polygon id="Stroke-11" stroke="#36F2B9" stroke-width="0.5" points="124 6.76145711 115.416976 12 115 11.2385429 123.583024 6"></polygon>
                                    <polygon id="Fill-12" fill="#36F2B9" points="100 6.76145711 91.4169755 12 91 11.2385429 99.5830245 6"></polygon>
                                    <polygon id="Stroke-13" stroke="#36F2B9" stroke-width="0.5" points="100 6.76145711 91.4169755 12 91 11.2385429 99.5830245 6"></polygon>
                                    <polygon id="Fill-14" fill="#36F2B9" points="78 6.76145711 69.4169755 12 69 11.2385429 77.5830245 6"></polygon>
                                    <polygon id="Stroke-15" stroke="#36F2B9" stroke-width="0.5" points="78 6.76145711 69.4169755 12 69 11.2385429 77.5830245 6"></polygon>
                                    <polygon id="Fill-16" fill="#36F2B9" points="56 6.76453318 47.416821 12 47 11.23899 55.583179 6"></polygon>
                                    <polygon id="Stroke-17" stroke="#36F2B9" stroke-width="0.5" points="56 6.76453318 47.416821 12 47 11.23899 55.583179 6"></polygon>
                                    <polygon id="Fill-18" fill="#36F2B9" points="32 6.76145711 23.4169755 12 23 11.2385429 31.5830245 6"></polygon>
                                    <polygon id="Stroke-19" stroke="#36F2B9" stroke-width="0.5" points="32 6.76145711 23.4169755 12 23 11.2385429 31.5830245 6"></polygon>
                                    <polygon id="Fill-20" fill="#36F2B9" points="0 11.2354668 0.416975537 12 9 6.76453318 8.58636027 6"></polygon>
                                    <polygon id="Stroke-21" stroke="#36F2B9" stroke-width="0.5" points="9 6.76145711 0.416975537 12 0 11.2385429 8.58302446 6"></polygon>
                                    <polygon id="Fill-35" fill="#36F2B9" points="115 33.2350176 115.416976 34 124 28.7614571 123.583024 28"></polygon>
                                    <polygon id="Fill-38" fill="#36F2B9" points="91 33.2350176 91.4136397 34 100 28.7614571 99.5830245 28"></polygon>
                                    <polygon id="Fill-41" fill="#36F2B9" points="69 33.2350176 69.4136397 34 78 28.7614571 77.5830245 28"></polygon>
                                    <polygon id="Fill-44" fill="#36F2B9" points="47 33.2385429 47.4166667 34 56 28.7614571 55.5833333 28"></polygon>
                                    <polygon id="Fill-47" fill="#36F2B9" points="23 33.2350176 23.4169755 34 32 28.7614571 31.5863603 28"></polygon>
                                    <polygon id="Fill-50" fill="#36F2B9" points="0 33.2350176 0.416975537 34 9 28.7614571 8.58636027 28"></polygon>
                                    <polygon id="Fill-57" fill="#FFFFFF" points="123.583024 0 115 5.23854289 115.416976 6 124 0.761457109"></polygon>
                                    <polygon id="Fill-58" fill="#FFFFFF" points="99.5830245 0 91 5.23854289 91.4136397 6 100 0.761457109"></polygon>
                                    <polygon id="Fill-59" fill="#FFFFFF" points="77.5830245 0 69 5.23854289 69.4136397 6 78 0.761457109"></polygon>
                                    <polygon id="Fill-60" fill="#FFFFFF" points="55.5766667 0 47 5.23546682 47.4166667 6 56 0.761009982 55.5833333 0"></polygon>
                                    <polygon id="Fill-61" fill="#FFFFFF" points="31.5863603 0 23 5.23854289 23.4169755 6 32 0.761457109"></polygon>
                                    <polygon id="Fill-62" fill="#FFFFFF" points="8.58636027 0 0 5.23854289 0.416975537 6 9 0.761457109"></polygon>
                                    <polygon id="Fill-67" fill="#FFFFFF" points="124 22.7645332 115.416976 28 115 27.2354668 123.583024 22"></polygon>
                                    <polygon id="Fill-68" fill="#FFFFFF" points="100 22.7645332 91.4169755 28 91 27.2354668 99.5830245 22"></polygon>
                                    <polygon id="Fill-69" fill="#FFFFFF" points="78 22.7645332 69.4169755 28 69 27.2354668 77.5830245 22"></polygon>
                                    <polygon id="Fill-70" fill="#FFFFFF" points="56 22.7614571 47.416821 28 47 27.2385429 55.583179 22"></polygon>
                                    <polygon id="Fill-71" fill="#FFFFFF" points="32 22.7645332 23.4169755 28 23 27.2354668 31.5830245 22"></polygon>
                                    <polygon id="Fill-72" fill="#FFFFFF" points="0 27.2354668 0.416975537 28 9 22.7645332 8.58636027 22"></polygon>
                                </g>
                            </g>
                        </g>
                        <g id="icon/design">
                            <g stroke-width="1" fill-rule="evenodd">
                                <mask id="mask-2" fill="white">
                                    <use xlink:href="#path-1"></use>
                                </mask>
                                <g id="Mask"></g>
                                <g id="Group-18" mask="url(#mask-2)">
                                    <g transform="translate(14.000000, 3.000000)" id="Group-17">
                                        <g>
                                            <g id="007-search" transform="translate(15.986111, 0.000000)" fill="#7878F9" fill-rule="nonzero">
                                                <path d="M33.3566398,39.0558697 C33.1515872,34.3338535 31.4722347,29.0194268 28.6279227,24.0914238 C26.152494,19.8027026 23.0386541,16.1770512 19.6232249,13.6065321 C16.5580057,11.2996198 13.4547356,10.0289855 10.8852363,10.0289855 C9.72873268,10.0289855 8.73764516,10.2767336 7.85507343,10.7865028 C5.36519944,12.2245345 4.05455401,15.7536239 4.25925428,20.4689442 C4.46430687,25.1909603 6.14365941,30.5053871 8.98797139,35.4332139 C11.4635763,39.7219351 14.57724,43.3475864 17.9924931,45.9179294 C21.0578884,48.2248416 24.1613347,49.4956522 26.7308339,49.4956522 C26.7308339,49.4956522 26.7318909,49.4956522 26.7318909,49.4956522 C27.8869853,49.4956522 28.8777205,49.247904 29.7606445,48.7381349 C32.2506947,47.3004556 33.5613401,43.7711899 33.3566398,39.0558697 Z M28.4397817,46.4491958 C27.9696052,46.720732 27.4109955,46.8527116 26.732067,46.8527116 L26.7313624,46.8527116 C24.7310427,46.8527116 22.1918433,45.7704434 19.5814745,43.8059029 C16.4475521,41.4475379 13.5757589,38.0953611 11.276316,34.1118317 C8.64057988,29.5452309 7.08595005,24.6595177 6.89904215,20.3544091 C6.74331492,16.7657614 7.61584541,13.9767447 9.17611242,13.0756181 C9.64611269,12.8040819 10.2050748,12.6722784 10.8850602,12.6722784 C12.8850276,12.6722784 15.4240508,13.7541942 18.0342435,15.7187348 C21.1681658,18.0774522 24.0399591,21.429629 26.3392257,25.4131584 C28.9749619,29.9797592 30.5294156,34.8654724 30.7163235,39.1707572 C30.872403,42.7592287 29.9998725,45.5482454 28.4397817,46.4491958 Z" id="Shape" stroke="#ECEFF8"></path>
                                                <path d="M77.8600027,50.6567002 C77.8334557,50.6412159 77.8062102,50.628019 77.7794886,50.6132385 L47.2094703,33.1250614 C46.8446246,27.8913477 44.9915787,22.1327493 41.9454925,16.8184466 C38.4853091,10.7807778 33.8544408,5.88296915 28.9058825,3.02733642 C23.7337711,0.0425500538 18.7963905,-0.385909229 15.0038464,1.82061209 C15.0038464,1.82061209 5.92898622,7.10183464 5.91326764,7.11098448 C2.12037429,9.31697792 0.0205466573,13.8392909 0.000142497191,19.8445832 C-0.0189244436,25.5899846 1.8760377,32.0793392 5.33604646,38.1171839 C8.79605521,44.1548526 13.4267489,49.0528373 18.3751325,51.9088219 C21.3684741,53.6363838 24.2828735,54.5079069 26.9424572,54.5079069 C28.8784623,54.5079069 30.6794623,54.0460155 32.2773433,53.116602 C32.2904421,53.1090358 42.050283,47.394955 42.3718153,47.1509003 L70.4738419,63.2398543 C70.5115665,63.2634328 70.5482432,63.288067 70.5870157,63.3105897 C71.2573258,63.700514 71.9924314,63.8956522 72.7278863,63.8956522 C73.4628172,63.8956522 74.1979228,63.700866 74.8682329,63.3111176 L74.8960024,63.2951053 C78.0442593,61.4653115 80,58.0536494 80,54.3919502 C80,52.8327807 79.1999243,51.4365489 77.8600027,50.6567002 Z M16.314252,4.10596287 C19.2651534,2.38913444 23.2744392,2.81917735 27.6038601,5.31743809 C32.1570088,7.94502843 36.4445135,12.4981341 39.6767775,18.1381363 C42.2380327,22.6067819 43.895819,27.3851147 44.4510342,31.8185685 C43.474561,31.6406743 42.4676987,31.8129378 41.5757566,32.3309601 L41.5427476,32.3499636 C39.998659,33.2471767 38.7423952,34.5255162 37.8619801,36.0269712 C37.1824135,31.4729857 35.4640234,26.6633323 32.8547391,22.1102266 C29.3947303,16.0723819 24.7640367,11.1743973 19.8158277,8.31858861 C17.5631805,7.0186062 15.3554186,6.20374175 13.267118,5.87997786 L16.314252,4.10596287 Z M19.6771549,49.6185443 C15.1243555,46.9909539 10.8368508,42.4374963 7.60458685,36.7974941 C4.3724975,31.1573159 2.60206144,25.1398825 2.6197427,19.8535571 C2.63681697,14.8271227 4.27154929,11.1135156 7.22314931,9.39668719 C8.41199791,8.70516974 9.77217903,8.3620504 11.256013,8.3620504 C13.4562649,8.3620504 15.9279243,9.11673699 18.5132814,10.6088662 C23.0660807,13.2366325 27.3535854,17.7899142 30.5856747,23.4300924 C33.8177641,29.0702705 35.5882002,35.087704 35.5705189,40.3740294 C35.5534446,45.4002879 33.9187123,49.1140709 30.9672869,50.8308993 C28.0160362,52.5473758 24.0062265,52.1171569 19.6771549,49.6185443 Z M37.014574,47.309615 C37.3579376,46.4190884 37.6272493,45.4574744 37.8216357,44.4319875 C38.1264015,44.7122896 38.4746554,44.9524731 38.8618564,45.1412767 L39.8084642,45.6832293 L37.014574,47.309615 Z M73.5859461,61.0092267 L73.5581766,61.0252389 C72.8087497,61.4612644 72.1468228,61.1702288 71.897072,61.024887 C71.6473212,60.8795452 70.9960698,60.4461642 71.066607,59.5753397 C71.3364435,56.24405 72.6467197,54.3917742 74.8883178,52.942051 C75.6013697,52.4808943 74.2124188,52.8403469 73.5859461,52.4757606 C72.959648,52.1113503 73.7445155,50.532113 73.2298944,51.1088149 C72.0100977,52.4757606 69.6149889,55.3285712 68.4613397,59.0523907 C62.1976603,55.4684651 39.8680202,42.6919325 39.837107,42.6722251 C39.4334888,42.4137419 39.0583387,41.9353104 39.0583387,41.2534706 C39.0583387,38.5312146 40.5116087,35.9956506 42.8461671,34.6393614 L42.8790015,34.6205338 C43.3409531,34.3521969 43.8788778,34.3203484 44.3621368,34.530619 L73.3263016,51.1088149 C72.7590261,51.8434286 72.797572,51.9987368 73.0712499,52.4757606 C73.4333012,53.1069243 74.2345995,53.3226496 74.8607229,52.9580633 L74.8883178,52.942051 C75.6379194,52.5063774 76.2996716,52.7970611 76.549597,52.9424029 C76.7993478,53.0877448 77.380062,53.5197232 77.380062,54.3917742 C77.380062,57.1133265 75.9266173,59.6487145 73.5859461,61.0092267 Z" id="Shape"></path>
                                            </g>
                                            <g id="010-magazine" transform="translate(0.986111, 58.000000)" fill="#7878F9" fill-rule="nonzero">
                                                <path d="M80.5024968,32.1229568 C80.9856295,31.8483765 81.2834225,31.3412227 81.2834225,30.7920621 C81.2834225,30.2431065 80.9856295,29.7357477 80.5024968,29.4611674 L48.2704684,11.1497369 C47.7873357,10.8751566 47.1917498,10.8751566 46.7086171,11.1497369 L9.87183472,32.076647 C9.38870206,32.3512273 9.09090909,32.8583811 9.09090909,33.4075417 C9.09090909,33.9567022 9.38849382,34.4638561 9.87183472,34.7384364 L42.1001147,53.051916 C42.341681,53.1892062 42.6113607,53.2578512 42.8810403,53.2578512 C43.15072,53.2578512 43.4203996,53.1892062 43.661966,53.051916 L80.5024968,32.1229568 Z M13.7762546,33.4077466 L47.4895428,14.2551578 L76.5978687,30.7920621 L42.8812486,49.9464951 L13.7762546,33.4077466 Z" id="Shape" stroke="#ECEFF8"></path>
                                                <path d="M53.1370631,10.7128454 L56.9539594,8.49971679 L58.4284806,9.3547275 L56.1716452,10.6654376 C55.4269102,11.0979552 55.1717446,12.0559264 55.6017267,12.8050528 C55.8901117,13.3075335 56.4135231,13.5884298 56.9516756,13.5884298 C57.215769,13.5884298 57.4835995,13.520764 57.7287994,13.3783319 L62.3230271,10.7101304 C62.8049144,10.4302783 63.1018118,9.91296971 63.1016043,9.35305674 C63.1013965,8.79314377 62.8042915,8.27604399 62.3221966,7.99660962 L57.731706,5.33488235 C57.2506492,5.05586566 56.6578925,5.05586566 56.1764204,5.33488235 L51.5819851,7.99869806 C50.8368349,8.430798 50.5810464,9.38856036 51.0104057,10.1381044 C51.439765,10.8876485 52.3921205,11.1449453 53.1370631,10.7128454 Z" id="Path" stroke="#ECEFF8"></path>
                                                <path d="M60.0960782,15.447137 C60.3762707,15.9512494 60.884813,16.2330579 61.4076777,16.2330579 C61.6642687,16.2330579 61.9244907,16.1651724 62.1627249,16.0222777 L66.6230106,13.3475069 C67.3465891,12.9135847 67.594506,11.9525026 67.1767388,11.2009436 C66.7589715,10.449175 65.8338722,10.1916712 65.110092,10.6258029 L60.6498064,13.3005737 C59.9262278,13.7344959 59.6781092,14.695578 60.0960782,15.447137 Z" id="Path"></path>
                                                <path d="M64.7058824,17.29198 C64.7058824,17.8516806 65.0028615,18.3685683 65.4846738,18.6484186 L70.0731051,21.3124263 C70.3140113,21.4523515 70.5829539,21.522314 70.8518965,21.522314 C71.1204238,21.522314 71.3889511,21.4525603 71.6298572,21.3130529 L76.2253496,18.6490451 C76.970705,18.2171567 77.2265639,17.2591916 76.7968787,16.5098611 C76.3671935,15.7603217 75.4143682,15.5032354 74.6696359,15.9351238 L70.8527273,18.1478207 L69.3788385,17.2921889 L71.6344262,15.9825312 C72.3793661,15.5500163 72.634602,14.5920512 72.2045015,13.8429295 C71.7744009,13.093599 70.8217833,12.8371392 70.0768433,13.2696541 L65.4848814,15.9357503 C65.0028615,16.2153917 64.7058824,16.7324883 64.7058824,17.29198 Z" id="Path" stroke="#ECEFF8"></path>
                                                <path d="M73.9992819,23.3794254 C74.2792719,23.884518 74.7882163,24.1669421 75.3112813,24.1669421 C75.5676699,24.1669421 75.8274877,24.0990094 76.0655196,23.9564345 L80.5257933,21.2837837 C81.2497733,20.8499785 81.4982947,19.8884364 81.080932,19.136144 C80.6637711,18.383642 79.7382709,18.1255394 79.0146943,18.5591349 L74.5544206,21.2317857 C73.8304406,21.6655909 73.5819192,22.627133 73.9992819,23.3794254 Z" id="Path"></path>
                                                <path d="M78.2836745,26.0070498 C78.7136448,26.7556035 79.665974,27.0122863 80.4106884,26.5798906 L84.2262336,24.3657409 L85.7044512,25.2236456 L83.4468476,26.535858 C82.7025484,26.9684624 82.4478051,27.92591 82.8783982,28.674255 C83.1669828,29.1759342 83.6899646,29.4561983 84.2278946,29.4561983 C84.4923958,29.4561983 84.7604266,29.3883757 85.0060349,29.245635 L89.5966063,26.577595 C90.0780651,26.2977482 90.3745391,25.7812524 90.3743316,25.2221848 C90.3741238,24.6631172 90.0774422,24.1468301 89.5957758,23.867192 L85.0052045,21.203117 C84.5235381,20.9234789 83.9297597,20.9234789 83.4480933,21.203117 L78.8539924,23.8690701 C78.1090705,24.3012571 77.8537042,25.258496 78.2836745,26.0070498 Z" id="Path" stroke="#ECEFF8"></path>
                                                <path d="M99.9964531,25.5361688 L99.9964531,25.5361688 C99.9960359,24.9854035 99.6979264,24.4767991 99.2141503,24.2014164 L57.6995287,0.571980494 C57.215544,0.296392177 56.6189077,0.296392177 56.134923,0.571980494 L0.782302846,32.077895 C0.298109538,32.3534833 0,32.8627047 0,33.4136757 C0,33.414087 0,33.4142927 0,33.414704 L0,33.414704 L0.00417228184,38.6681577 C0.00458951003,39.2187174 0.302699048,39.7273218 0.786475128,40.0027045 L42.2967158,63.6296724 C42.5387082,63.7674666 42.8088634,63.8363636 43.0790187,63.8363636 C43.3489653,63.8363636 43.6191205,63.7674666 43.8613215,63.6298781 L99.2176967,32.1260202 C99.7020986,31.8502262 100,31.3405935 100,30.7892112 L99.9964531,25.5361688 Z M56.9172259,3.68900776 L95.302636,25.5371971 L43.0829823,55.2598084 L4.69402569,33.4134701 L56.9172259,3.68900776 Z M43.0790187,60.5128508 L3.13275782,37.7761976 L3.13150614,36.0862654 L42.3010967,58.3768357 C42.5430891,58.5144242 42.8132443,58.5833213 43.0833996,58.5833213 C43.3535548,58.5833213 43.6237101,58.5144242 43.8657024,58.37663 L96.8693279,28.2077301 L96.870371,29.8999247 L43.0790187,60.5128508 Z" id="Shape"></path>
                                            </g>
                                        </g>
                                    </g>
                                </g>
                            </g>
                            <rect id="Rectangle" x="0" y="0" width="128" height="128"></rect>
                        </g>
                    </g>
                </g>
            </g>
        </g>
    </g>
</svg>