<?xml version="1.0" encoding="UTF-8"?>
<svg width="53px" height="53px" viewBox="0 0 53 53" version="1.1" xmlns="http://www.w3.org/2000/svg" xmlns:xlink="http://www.w3.org/1999/xlink">
    <!-- Generator: Sketch 63.1 (92452) - https://sketch.com -->
    <title>icon/dotnet</title>
    <desc>Created with Sketch.</desc>
    <defs>
        <circle id="path-1" cx="26.5" cy="26.5" r="26.5"></circle>
        <rect id="path-3" x="0" y="0" width="52.6942308" height="52.6942308"></rect>
    </defs>
    <g id="icon/dotnet" stroke="none" stroke-width="1" fill="none" fill-rule="evenodd">
        <g id="Group-6">
            <g id="Placeholders-/-Icon-/-80px-Copy">
                <g id="Group-12">
                    <mask id="mask-2" fill="white">
                        <use xlink:href="#path-1"></use>
                    </mask>
                    <use id="◼️-Background" fill="#FFFFFF" xlink:href="#path-1"></use>
                </g>
            </g>
            <g id="net-seeklogo.com">
                <g>
                    <mask id="mask-4" fill="white">
                        <use xlink:href="#path-3"></use>
                    </mask>
                    <g id="Mask"></g>
                    <g mask="url(#mask-4)" id="Group">
                        <g transform="translate(7.848077, 15.696154)">
                            <g transform="translate(5.055856, 0.000000)">
                                <path d="M30.9004248,1.82839388 C30.9004248,1.75922276 30.881016,1.70977567 30.8411171,1.67745491 C30.7969199,1.64266703 30.7204725,1.62411784 30.6140576,1.62411784 L30.4610695,1.62411784 L30.4610695,2.03530675 L30.6457071,2.03530675 C30.8162086,2.03530675 30.9004248,1.96613564 30.9004248,1.82839388 L30.9004248,1.82839388 Z M31.1389639,2.68572927 L30.9287238,2.68572927 L30.7946507,2.39642197 C30.7265595,2.25144853 30.653783,2.1789618 30.5742789,2.1789618 L30.4610695,2.1789618 L30.4610695,2.68572927 L30.2878584,2.68572927 L30.2878584,1.47977096 L30.6349215,1.47977096 C30.7892579,1.47977096 30.9051101,1.51245721 30.984681,1.5806232 C31.0520647,1.63924698 31.0857565,1.71440971 31.0857565,1.80799107 C31.0857565,1.89102512 31.0582585,1.96087503 31.0028484,2.01880698 C30.9489335,2.07748299 30.8714182,2.11702238 30.7723853,2.13747739 L30.7723853,2.14269884 C30.8411171,2.15851982 30.9098489,2.23232497 30.9765384,2.3654327 L31.1389639,2.68638195 L31.1389639,2.68572927 Z M31.5230559,2.09460933 C31.5230559,1.85738596 31.4402014,1.65706517 31.2750794,1.49822877 C31.1093167,1.33944459 30.9071524,1.25972615 30.6686133,1.25972615 C30.4226257,1.25972615 30.2178318,1.33944459 30.0554063,1.4995994 C29.8929807,1.66038079 29.8121684,1.85933095 29.8121684,2.09460933 C29.8121684,2.33516135 29.8963712,2.53612177 30.0634954,2.69627659 C30.2286174,2.8563792 30.4307684,2.93545799 30.6686133,2.93545799 C30.9051101,2.93545799 31.107261,2.85573956 31.2737312,2.69358754 C31.4402014,2.53411153 31.5230559,2.33384295 31.5230559,2.09460933 L31.5230559,2.09460933 Z M31.6396158,2.08938788 C31.6396158,2.35566859 31.5459755,2.57902901 31.3579875,2.75890783 C31.1699594,2.94014424 30.9394961,3.03039694 30.6638746,3.03039694 C30.3862908,3.03039694 30.1558409,2.94146266 29.9724982,2.76680528 C29.7892621,2.58957633 29.6982649,2.36684249 29.6982649,2.0966718 C29.6982649,1.83240134 29.7912511,1.61034628 29.9772368,1.42784367 C30.1632227,1.24596764 30.3950209,1.15503615 30.6720038,1.15503615 C30.9435407,1.15503615 31.1713076,1.2420124 31.3559451,1.41529915 C31.545268,1.59321993 31.6396158,1.81727219 31.6396158,2.08938788 L31.6396158,2.08938788 Z" id="Shape" fill="#000000" fill-rule="nonzero"></path>
                                <path d="M5.2834031,5.45206461 L4.68572038,5.45206461 L4.68572038,2.10715384 C4.68572038,1.84293561 4.70351405,1.52135978 4.7353237,1.14179979 L4.72184163,1.14179979 C4.66588439,1.36384179 4.61466588,1.52463624 4.56954768,1.62417006 L2.83234999,5.45206461 L2.54124413,5.45206461 L0.800647893,1.65184372 C0.751590523,1.54571783 0.700270567,1.37502874 0.648356602,1.14179979 L0.635421826,1.14179979 C0.653750763,1.34144179 0.663994463,1.66501482 0.663994463,2.11374592 L0.663994463,5.45206461 L0.0878203148,5.45206461 L0.0878203148,0.470974464 L0.876231565,0.470974464 L2.43892993,3.94435892 C2.5568286,4.20599254 2.63300094,4.40499492 2.67003524,4.54073947 L2.69483425,4.54073947 C2.79655843,4.26857158 2.87742147,4.06428249 2.93876888,3.92985635 L4.53510835,0.470974464 L5.28308274,0.470974464 L5.28308274,5.45206461 L5.2834031,5.45206461 Z" id="Path" fill="#000000" fill-rule="nonzero"></path>
                                <path d="M7.12195656,5.45190798 L6.54114646,5.45190798 L6.54114646,1.89481067 L7.12195656,1.89481067 L7.12195656,5.45190798 L7.12195656,5.45190798 Z M7.22239129,0.619694309 C7.22239129,0.724488738 7.18465485,0.81210461 7.1098227,0.883964765 C7.03640551,0.955759653 6.94546163,0.992035652 6.83893994,0.992035652 C6.73516807,0.992035652 6.64486493,0.957234711 6.57079366,0.887920011 C6.49666898,0.818070112 6.46022735,0.729083612 6.46022735,0.619694309 C6.46022735,0.516897084 6.49688256,0.429281214 6.57079366,0.358112901 C6.64486493,0.286944585 6.73516807,0.252678845 6.83893994,0.252678845 C6.94540823,0.252678845 7.03640551,0.286944585 7.1098227,0.358112901 C7.18465485,0.429281214 7.22239129,0.516897084 7.22239129,0.619694309 L7.22239129,0.619694309 Z" id="Shape" fill="#000000" fill-rule="nonzero"></path>
                                <path d="M10.7519297,5.28732798 C10.4729577,5.45470145 10.1400708,5.5377355 9.75527121,5.5377355 C9.23376883,5.5377355 8.81392926,5.36840399 8.4931762,5.0303284 C8.18184725,4.70216048 8.02486793,4.27847927 8.02486793,3.75920642 C8.02486793,3.1766366 8.19532932,2.70486586 8.53898854,2.34638746 C8.88065882,1.98723027 9.34023712,1.80799107 9.91840422,1.80799107 C10.2344185,1.80799107 10.5147387,1.86861207 10.7600189,1.98854869 L10.7600189,2.57307656 C10.4884821,2.3865665 10.2014208,2.29430354 9.89344237,2.29430354 C9.522819,2.29430354 9.22163497,2.42083224 8.98778119,2.67323696 C8.74448994,2.93155497 8.62120244,3.27684921 8.62120244,3.70781434 C8.62120244,4.12164008 8.73375769,4.4491292 8.9574799,4.69098659 C9.1818562,4.93148641 9.48039722,5.05210183 9.85705413,5.05210183 C10.1751108,5.05210183 10.4729577,4.94993117 10.7519297,4.74634698 L10.7519297,5.28732798 L10.7519297,5.28732798 Z" id="Path" fill="#000000" fill-rule="nonzero"></path>
                                <path d="M13.5302633,2.47191103 C13.4278396,2.39484249 13.2802978,2.35724807 13.0855286,2.35724807 C12.8490318,2.35724807 12.650218,2.46073714 12.4891941,2.66959499 C12.3065455,2.90287616 12.2156016,3.22577042 12.2156016,3.63827774 L12.2156016,5.45175132 L11.6333899,5.45175132 L11.6333899,1.89465404 L12.2156016,1.89465404 L12.2156016,2.62811061 L12.2296176,2.62811061 C12.315222,2.36847418 12.4473062,2.16877997 12.6238546,2.02713518 C12.7889231,1.89798271 12.975603,1.83271463 13.1811044,1.83271463 C13.3360948,1.83271463 13.4513465,1.84905776 13.5301565,1.8812088 L13.5301565,2.47164997 L13.5302633,2.47191103 Z" id="Path" fill="#000000" fill-rule="nonzero"></path>
                                <path d="M16.7751832,3.67981434 C16.7751832,3.22450421 16.6700632,2.87657313 16.459823,2.6380183 C16.2556698,2.40870542 15.9705975,2.29404247 15.603378,2.29404247 C15.2414846,2.29404247 14.9510863,2.41002384 14.7340517,2.64197354 C14.5042825,2.88974423 14.3897384,3.23963335 14.3897384,3.69369033 C14.3897384,4.1193818 14.4989031,4.45344995 14.7192748,4.69199172 C14.9382449,4.93185192 15.2333954,5.05178854 15.603378,5.05178854 C15.9861219,5.05178854 16.27923,4.92990693 16.4800327,4.68740989 C16.6768042,4.45017349 16.7751832,4.11473471 16.7751832,3.67981434 M17.3722251,3.65979008 C17.3722251,4.22649978 17.2085048,4.68187517 16.8823456,5.02321418 C16.5548648,5.36587158 16.1141615,5.53721335 15.5602487,5.53721335 C15.0144253,5.53721335 14.5797554,5.36587158 14.261058,5.02321418 C13.949035,4.69304906 13.7920557,4.25681027 13.7920557,3.71451085 C13.7920557,3.09571723 13.9692447,2.61862063 14.3250378,2.27991846 C14.6538801,1.96561349 15.0938894,1.80745588 15.6451591,1.80745588 C16.1875787,1.80745588 16.6114629,1.97283214 16.9166914,2.30037347 C17.2192771,2.62984674 17.3722251,3.08322492 17.3722251,3.65979008" id="Shape" fill="#000000" fill-rule="nonzero"></path>
                                <path d="M20.2596033,4.5002602 C20.2596033,4.79152554 20.1484497,5.03270415 19.9253815,5.22512751 C19.6821438,5.43335879 19.3479086,5.53747442 18.9274283,5.53747442 C18.5830617,5.53747442 18.2811701,5.4669849 18.0251042,5.32332986 L18.0251042,4.71112831 C18.3101766,4.93781742 18.6248293,5.05184075 18.9705442,5.05184075 C19.4314707,5.05184075 19.6625747,4.8857857 19.6625747,4.55498096 C19.6625747,4.41590775 19.6119035,4.30061821 19.50964,4.21163171 C19.407203,4.12070022 19.2083893,4.01198971 18.912598,3.88478221 C18.6080101,3.75431132 18.3910289,3.62056397 18.2630027,3.48150381 C18.1093605,3.31675412 18.0318453,3.10262259 18.0318453,2.83903093 C18.0318453,2.54381036 18.1524897,2.29799771 18.3910289,2.10231095 C18.6302221,1.90593236 18.9375065,1.80773001 19.3148576,1.80773001 C19.6039745,1.80773001 19.8627367,1.86307733 20.0924925,1.97446385 L20.0924925,2.5477656 C19.8526051,2.37839494 19.5783718,2.29404247 19.2670429,2.29404247 C19.0743294,2.29404247 18.919339,2.34095717 18.8040874,2.43242384 C18.6875277,2.52599217 18.628874,2.64530222 18.628874,2.79090226 C18.628874,2.94842023 18.6779301,3.07099369 18.7751344,3.15860955 C18.8613796,3.23968557 19.0446689,3.33852755 19.3209578,3.45381708 C19.6315793,3.58102458 19.8559957,3.71282694 19.9927652,3.84787964 C20.1700076,4.01858178 20.2596033,4.23604196 20.2596033,4.5002602" id="Path" fill="#000000" fill-rule="nonzero"></path>
                                <path d="M23.8177879,3.67981434 C23.8177879,3.22450421 23.7126677,2.87657313 23.5017735,2.6380183 C23.2982744,2.40870542 23.012548,2.29404247 22.6459825,2.29404247 C22.2840892,2.29404247 21.9936775,2.41002384 21.7753481,2.64197354 C21.5462465,2.88974423 21.4323297,3.23963335 21.4323297,3.69369033 C21.4323297,4.1193818 21.5414943,4.45344995 21.7598237,4.69199172 C21.9815569,4.93185192 22.2767074,5.05178854 22.6459825,5.05178854 C23.0293672,5.05178854 23.3218212,4.92990693 23.5226374,4.68740989 C23.7193954,4.45017349 23.8177879,4.11473471 23.8177879,3.67981434 M24.4161646,3.65979008 C24.4161646,4.22649978 24.251096,4.68187517 23.9242561,5.02321418 C23.5981101,5.36587158 23.1574067,5.53721335 22.6034941,5.53721335 C22.0570299,5.53721335 21.6223601,5.36587158 21.3036492,5.02321418 C20.9916396,4.69304906 20.8346469,4.25681027 20.8346469,3.71451085 C20.8346469,3.09571723 21.0131975,2.61862063 21.3670017,2.27991846 C21.6958439,1.96561349 22.1365473,1.80745588 22.6884045,1.80745588 C23.2308774,1.80745588 23.6540674,1.97283214 23.958642,2.30037347 C24.2618818,2.62984674 24.4161646,3.08322492 24.4161646,3.65979008" id="Shape" fill="#000000" fill-rule="nonzero"></path>
                                <path d="M26.9817219,0.686163323 C26.8671643,0.624223915 26.7398457,0.592595004 26.5949334,0.592595004 C26.1872276,0.592595004 25.9850635,0.843629092 25.9850635,1.34645438 L25.9850635,1.89470625 L26.8375171,1.89470625 L26.8375171,2.37707652 L25.9850635,2.37707652 L25.9850635,5.45180355 L25.402211,5.45180355 L25.402211,2.37707652 L24.7836109,2.37707652 L24.7836109,1.89470625 L25.402211,1.89470625 L25.402211,1.31814109 C25.402211,0.926663142 25.5248443,0.619589881 25.7741826,0.398174447 C25.9878132,0.205751095 26.2492184,0.110224733 26.5598934,0.110224733 C26.7398457,0.110224733 26.8800056,0.131319377 26.9817219,0.172177194 L26.9817219,0.686163323 L26.9817219,0.686163323 Z" id="Path" fill="#000000" fill-rule="nonzero"></path>
                                <path d="M29.2796801,5.41606274 C29.1422165,5.4931835 28.9589271,5.5314045 28.7325084,5.5314045 C28.0977433,5.5314045 27.7803808,5.1814762 27.7803808,4.48164575 L27.7803808,2.37759867 L27.1563881,2.37759867 L27.1563881,1.89454961 L27.7803808,1.89454961 L27.7803808,1.02671911 C27.9663667,0.969361521 28.1597342,0.906782486 28.3639408,0.842206248 L28.3639408,1.89454961 L29.2796801,1.89454961 L29.2796801,2.37759867 L28.3639408,2.37759867 L28.3639408,4.38481403 C28.3639408,4.6233558 28.4038262,4.79400573 28.4872283,4.8928477 C28.5714844,4.9950053 28.7089482,5.04509203 28.9030232,5.04509203 C29.047882,5.04509203 29.1732118,5.00713212 29.2796801,4.93042907 L29.2796801,5.41606274 L29.2796801,5.41606274 Z" id="Path" fill="#000000" fill-rule="nonzero"></path>
                            </g>
                            <g transform="translate(0.067479, 7.519427)">
                                <path d="M2.25345163,12.6641069 C2.25345163,12.9514095 2.14974058,13.2000139 1.94017507,13.4099337 C1.73132403,13.6191404 1.47779151,13.7244568 1.18034372,13.7244568 C0.889711375,13.7244568 0.642388702,13.6191404 0.439748863,13.4099337 C0.237054588,13.2000139 0.136091228,12.9514095 0.136091228,12.6641069 C0.136091228,12.3686637 0.237054588,12.1193461 0.439748863,11.9128575 C0.642388702,11.7056557 0.889711375,11.6031111 1.18034372,11.6031111 C1.47779151,11.6031111 1.73132403,11.7070685 1.94017507,11.9169345 C2.14974058,12.1268543 2.25345163,12.3761046 2.25345163,12.6641069" id="Path" fill="#000000" fill-rule="nonzero"></path>
                                <path d="M15.5440897,13.508509 L13.6081103,13.508509 L6.580724,2.77833913 C6.41650136,2.52022162 6.27497872,2.23967373 6.15477886,1.93334502 L6.09701495,1.93334502 C6.14702983,2.2206476 6.17264084,2.83740893 6.17264084,3.78228348 L6.17264084,13.508509 L4.57669357,13.508509 L4.57669357,0.0463812275 L6.64805105,0.0463812275 L13.4652145,10.6074419 C13.7366076,11.0265145 13.9220455,11.3267344 14.0161935,11.5074288 L14.0541085,11.5074288 C13.9909077,11.1202458 13.9579872,10.4600096 13.9579872,9.52807928 L13.9579872,0.0463812275 L15.5442666,0.0463812275 L15.5442666,13.508509 L15.5440897,13.508509 Z" id="Path" fill="#000000" fill-rule="nonzero"></path>
                                <polygon id="Path" fill="#000000" fill-rule="nonzero" points="25.7753602 13.508509 18.5590139 13.508509 18.5590139 0.0463812275 25.4620782 0.0463812275 25.4620782 1.4728159 20.1535948 1.4728159 20.1535948 5.95111381 25.0725714 5.95111381 25.0725714 7.37826162 20.1535948 7.37826162 20.1535948 12.081415 25.7753602 12.081415"></polygon>
                                <polygon id="Path" fill="#000000" fill-rule="nonzero" points="36.7212457 1.47297736 32.7991645 1.47297736 32.7991645 13.5087243 31.2039303 13.5087243 31.2039303 1.47297736 27.2742417 1.47297736 27.2742417 0.0458968282 36.7212457 0.0458968282"></polygon>
                            </g>
                        </g>
                    </g>
                </g>
            </g>
        </g>
    </g>
</svg>