<svg width="214" height="80" viewBox="0 0 214 80" fill="none" xmlns="http://www.w3.org/2000/svg">
<g clip-path="url(#clip0_420_8006)">
<path d="M56.5796 43.7701C56.5767 43.944 56.5051 44.1096 56.3804 44.2307C56.2558 44.3519 56.0882 44.4188 55.9144 44.4169H43.6636C43.9778 47.4472 46.2505 50.2189 49.4657 50.2189C51.6645 50.2189 53.2906 49.3874 54.5101 47.632C54.5669 47.5398 54.6454 47.4629 54.7389 47.4081C54.8323 47.3534 54.9377 47.3224 55.0459 47.3179C55.1266 47.3156 55.207 47.3298 55.282 47.3596C55.357 47.3894 55.4251 47.4343 55.4822 47.4914C55.5393 47.5485 55.5841 47.6166 55.614 47.6916C55.6438 47.7666 55.658 47.8469 55.6557 47.9276C55.6561 48.0391 55.624 48.1483 55.5633 48.2418C54.3253 50.3852 51.8678 51.4384 49.4657 51.4384C45.3451 51.4384 42.3887 47.7429 42.3887 43.8071C42.3887 39.8713 45.3266 36.1758 49.4657 36.1758C53.6047 36.1758 56.5611 39.8344 56.5796 43.7701ZM55.2677 43.1973C55.009 40.167 52.6808 37.3953 49.4657 37.3953C46.2505 37.3953 43.9778 40.167 43.6636 43.1973H55.2677Z" fill="#3B3B3B"/>
<path d="M71.4716 36.4712C71.6319 36.4759 71.7843 36.5416 71.8977 36.655C72.011 36.7683 72.0768 36.9208 72.0814 37.081C72.0837 37.1617 72.0695 37.242 72.0397 37.317C72.0098 37.3921 71.965 37.4602 71.9079 37.5173C71.8508 37.5744 71.7827 37.6192 71.7077 37.649C71.6327 37.6789 71.5523 37.6931 71.4716 37.6908H68.1826V50.6067C68.1812 50.768 68.1164 50.9223 68.0024 51.0363C67.8884 51.1503 67.7341 51.2151 67.5728 51.2165C67.4126 51.2119 67.2602 51.1461 67.1468 51.0328C67.0334 50.9194 66.9677 50.767 66.9631 50.6067V37.6908H63.8034C63.7227 37.6931 63.6423 37.6789 63.5673 37.649C63.4923 37.6192 63.4242 37.5744 63.3671 37.5173C63.31 37.4602 63.2652 37.3921 63.2353 37.317C63.2055 37.242 63.1913 37.1617 63.1936 37.081C63.195 36.9197 63.2598 36.7655 63.3738 36.6514C63.4878 36.5374 63.6421 36.4727 63.8034 36.4712H66.9631V31.7594C66.9634 31.6033 67.0194 31.4524 67.121 31.3338C67.2226 31.2153 67.3632 31.1369 67.5174 31.1127C67.6036 31.1012 67.6913 31.1085 67.7744 31.1341C67.8576 31.1596 67.9342 31.2028 67.9991 31.2607C68.064 31.3186 68.1157 31.3898 68.1505 31.4695C68.1854 31.5492 68.2026 31.6355 68.2011 31.7224V36.4712H71.4716Z" fill="#3B3B3B"/>
<path d="M91.5213 42.717V50.5331C91.5167 50.6934 91.4509 50.8458 91.3376 50.9592C91.2242 51.0725 91.0718 51.1383 90.9115 51.1429C90.8308 51.1452 90.7505 51.131 90.6755 51.1012C90.6005 51.0713 90.5324 51.0265 90.4753 50.9694C90.4182 50.9123 90.3733 50.8442 90.3435 50.7692C90.3137 50.6942 90.2995 50.6138 90.3018 50.5331V42.717C90.3018 40.0747 88.8051 37.4509 85.8671 37.4509C82.0977 37.4509 80.4716 40.7399 80.6933 44.1213C80.6933 44.2137 80.7303 44.6018 80.7303 44.6572V50.5147C80.73 50.6708 80.674 50.8217 80.5724 50.9402C80.4708 51.0588 80.3302 51.1372 80.176 51.1614C80.0897 51.1728 80.0021 51.1655 79.9189 51.14C79.8358 51.1144 79.7591 51.0712 79.6942 51.0133C79.6293 50.9555 79.5777 50.8842 79.5428 50.8045C79.508 50.7249 79.4907 50.6386 79.4923 50.5516V24.849C79.4937 24.6878 79.5584 24.5335 79.6725 24.4195C79.7865 24.3054 79.9408 24.2407 80.102 24.2393C80.2623 24.2439 80.4147 24.3096 80.5281 24.423C80.6414 24.5364 80.7072 24.6888 80.7118 24.849V39.3726C81.765 37.4878 83.6498 36.2129 85.8486 36.2129C89.4703 36.2129 91.5213 39.3726 91.5213 42.717Z" fill="#3B3B3B"/>
<path d="M113.527 43.7701C113.524 43.944 113.452 44.1096 113.328 44.2307C113.203 44.3519 113.036 44.4188 112.862 44.4169H100.611C100.925 47.4472 103.198 50.2189 106.413 50.2189C108.612 50.2189 110.238 49.3874 111.457 47.632C111.514 47.5398 111.593 47.4629 111.686 47.4081C111.78 47.3534 111.885 47.3224 111.993 47.3179C112.074 47.3156 112.154 47.3298 112.229 47.3596C112.304 47.3894 112.372 47.4343 112.43 47.4914C112.487 47.5485 112.531 47.6166 112.561 47.6916C112.591 47.7666 112.605 47.8469 112.603 47.9276C112.603 48.0391 112.571 48.1483 112.511 48.2418C111.273 50.3852 108.815 51.4384 106.413 51.4384C102.292 51.4384 99.3359 47.7429 99.3359 43.8071C99.3359 39.8713 102.274 36.1758 106.413 36.1758C110.515 36.1758 113.508 39.8344 113.527 43.7701ZM112.196 43.1973C111.938 40.167 109.61 37.3953 106.394 37.3953C103.179 37.3953 100.907 40.167 100.592 43.1973H112.196Z" fill="#3B3B3B"/>
<path d="M128.587 37.0445C128.599 37.2085 128.545 37.3706 128.438 37.4952C128.33 37.6198 128.178 37.6969 128.014 37.7097C124.411 38.2455 122.785 41.1835 122.785 44.6019V50.4594C122.785 50.6155 122.729 50.7664 122.627 50.8849C122.525 51.0035 122.385 51.0819 122.231 51.1061C122.144 51.1175 122.057 51.1102 121.974 51.0847C121.89 51.0591 121.814 51.0159 121.749 50.958C121.684 50.9002 121.632 50.8289 121.598 50.7492C121.563 50.6696 121.545 50.5833 121.547 50.4963V37.1369C121.547 36.9807 121.603 36.8298 121.705 36.7113C121.806 36.5928 121.947 36.5143 122.101 36.4902C122.188 36.4787 122.275 36.486 122.358 36.5116C122.441 36.5371 122.518 36.5803 122.583 36.6382C122.648 36.6961 122.7 36.7673 122.734 36.847C122.769 36.9267 122.787 37.013 122.785 37.0999V39.8162C123.801 38.0977 125.815 36.4717 127.922 36.4717C128.236 36.4717 128.587 36.6934 128.587 37.0445Z" fill="#3B3B3B"/>
<path d="M148.728 43.7701C148.725 43.944 148.654 44.1096 148.529 44.2307C148.404 44.3519 148.237 44.4188 148.063 44.4169H135.812C136.126 47.4472 138.399 50.2189 141.614 50.2189C143.813 50.2189 145.439 49.3874 146.659 47.632C146.715 47.5398 146.794 47.4629 146.887 47.4081C146.981 47.3534 147.086 47.3224 147.194 47.3179C147.275 47.3156 147.355 47.3298 147.43 47.3596C147.505 47.3894 147.574 47.4343 147.631 47.4914C147.688 47.5485 147.733 47.6166 147.762 47.6916C147.792 47.7666 147.806 47.8469 147.804 47.9276C147.805 48.0391 147.772 48.1483 147.712 48.2418C146.474 50.3852 144.016 51.4384 141.614 51.4384C137.494 51.4384 134.537 47.7429 134.537 43.8071C134.537 39.8713 137.475 36.1758 141.614 36.1758C145.753 36.1758 148.71 39.8344 148.728 43.7701ZM147.416 43.1973C147.157 40.167 144.829 37.3953 141.614 37.3953C138.399 37.3953 136.126 40.167 135.812 43.1973H147.416Z" fill="#3B3B3B"/>
<path d="M168.536 37.1923V50.6072C168.531 50.7674 168.466 50.9199 168.352 51.0332C168.239 51.1466 168.087 51.2123 167.926 51.217C167.846 51.2193 167.765 51.2051 167.69 51.1752C167.615 51.1454 167.547 51.1006 167.49 51.0435C167.433 50.9864 167.388 50.9182 167.358 50.8432C167.328 50.7682 167.314 50.6879 167.317 50.6072V48.0573C166.3 50.0713 164.508 51.5311 162.217 51.5311C158.577 51.5311 156.562 48.3714 156.562 45.0269V37.1738C156.564 37.0126 156.629 36.8583 156.743 36.7443C156.857 36.6302 157.011 36.5655 157.172 36.5641C157.333 36.5687 157.485 36.6345 157.598 36.7478C157.712 36.8612 157.777 37.0136 157.782 37.1738V45.0269C157.782 47.6692 159.279 50.2931 162.217 50.2931C166.337 50.2931 167.317 46.4312 167.317 42.1628V37.1554C167.318 37.0565 167.343 36.9594 167.39 36.8722C167.436 36.785 167.503 36.7103 167.584 36.6542C167.666 36.5981 167.759 36.5623 167.858 36.5499C167.956 36.5374 168.055 36.5486 168.148 36.5826C168.264 36.6365 168.362 36.7227 168.431 36.8307C168.5 36.9388 168.536 37.0642 168.536 37.1923Z" fill="#3B3B3B"/>
<path d="M199.561 42.6616V50.5147C199.556 50.6749 199.49 50.8273 199.377 50.9407C199.263 51.0541 199.111 51.1198 198.951 51.1245C198.87 51.1268 198.79 51.1126 198.715 51.0827C198.64 51.0529 198.572 51.0081 198.514 50.951C198.457 50.8939 198.413 50.8257 198.383 50.7507C198.353 50.6757 198.339 50.5954 198.341 50.5147V42.6616C198.341 40.0193 196.844 37.4324 193.906 37.4324C190.211 37.4324 188.806 41.3867 188.806 44.454V50.5147C188.802 50.6749 188.736 50.8273 188.623 50.9407C188.509 51.0541 188.357 51.1198 188.197 51.1245C188.116 51.1268 188.036 51.1126 187.961 51.0827C187.886 51.0529 187.818 51.0081 187.76 50.951C187.703 50.8939 187.659 50.8257 187.629 50.7507C187.599 50.6757 187.585 50.5954 187.587 50.5147V42.6616C187.587 40.0193 186.09 37.4324 183.152 37.4324C179.42 37.4324 177.886 40.3704 178.015 44.2877C178.015 44.3801 178.052 44.5464 178.015 44.6018V50.4962C178.015 50.6523 177.959 50.8032 177.858 50.9218C177.756 51.0403 177.615 51.1187 177.461 51.1429C177.375 51.1544 177.287 51.1471 177.204 51.1215C177.121 51.096 177.044 51.0528 176.979 50.9949C176.914 50.937 176.863 50.8658 176.828 50.7861C176.793 50.7064 176.776 50.6201 176.777 50.5332V37.1368C176.778 36.9806 176.834 36.8297 176.935 36.7112C177.037 36.5927 177.178 36.5142 177.332 36.4901C177.418 36.4786 177.506 36.4859 177.589 36.5115C177.672 36.537 177.749 36.5802 177.813 36.6381C177.878 36.696 177.93 36.7672 177.965 36.8469C178 36.9266 178.017 37.0129 178.015 37.0998V39.3356C179.069 37.4509 180.953 36.2129 183.152 36.2129C185.647 36.2129 187.587 37.802 188.381 40.1117C189.398 37.8205 191.375 36.2129 193.906 36.2129C197.51 36.2129 199.561 39.3356 199.561 42.6616Z" fill="#3B3B3B"/>
<path opacity="0.6" d="M15.3366 33.4961L0 40.4622L15.3366 49.5348L30.6916 40.4622L15.3366 33.4961Z" fill="black"/>
<path opacity="0.45" d="M0 40.4624L15.3366 49.535V15L0 40.4624Z" fill="black"/>
<path opacity="0.8" d="M15.3359 15V49.535L30.691 40.4624L15.3359 15Z" fill="black"/>
<path opacity="0.45" d="M0 43.3818L15.3366 65.0008V52.4359L0 43.3818Z" fill="black"/>
<path opacity="0.8" d="M15.3359 52.4359V65.0008L30.691 43.3818L15.3359 52.4359Z" fill="black"/>
</g>
<defs>
<clipPath id="clip0_420_8006">
<rect width="199.56" height="50.0009" fill="white" transform="translate(0 15)"/>
</clipPath>
</defs>
</svg>
