<?xml version="1.0" encoding="UTF-8"?>
<svg width="233px" height="240px" viewBox="0 0 233 240" version="1.1" xmlns="http://www.w3.org/2000/svg" xmlns:xlink="http://www.w3.org/1999/xlink">
    <!-- Generator: Sketch 63.1 (92452) - https://sketch.com -->
    <title>deco@3x</title>
    <desc>Created with Sketch.</desc>
    <defs>
        <polygon id="path-1" points="0.581296805 0.570390324 10.33648 0.570390324 10.33648 10.2470877 0.581296805 10.2470877"></polygon>
    </defs>
    <g id="UI" stroke="none" stroke-width="1" fill="none" fill-rule="evenodd">
        <g id="C.1.0---Progetti" transform="translate(-201.000000, -436.000000)">
            <g id="deco" transform="translate(201.000000, 436.000000)">
                <g id="Group-6">
                    <g id="Group-36" transform="translate(0.880000, 28.160000)">
                        <path d="M211.177648,8.18136 C211.618528,7.89888 211.975808,7.58648 212.250368,7.24328 C212.524048,6.90008 212.712368,6.54192 212.815328,6.16792 C212.918288,5.79392 212.933248,5.40848 212.862848,5.01248 C212.791568,4.61648 212.629648,4.22136 212.378848,3.82976 L211.378288,2.26776 L205.721648,5.89248 L206.722208,7.45448 C206.973888,7.84696 207.264288,8.15848 207.595168,8.38816 C207.925168,8.61872 208.281568,8.7648 208.664368,8.82816 C209.047168,8.89152 209.451088,8.86952 209.877008,8.76392 C210.303808,8.65832 210.736768,8.46384 211.177648,8.18136 M212.157088,9.70992 C211.567488,10.08744 210.963808,10.3356 210.346048,10.4544 C209.727408,10.57408 209.126368,10.56968 208.542928,10.44208 C207.959488,10.31448 207.408608,10.06368 206.892048,9.6888 C206.375488,9.3148 205.921408,8.82376 205.532448,8.21656 L203.567408,5.14888 L211.601808,0 L213.567728,3.0668 C213.956688,3.67488 214.212768,4.29264 214.335088,4.9192 C214.458288,5.54664 214.456528,6.1512 214.329808,6.73376 C214.203968,7.31632 213.957568,7.8628 213.590608,8.37496 C213.223648,8.88712 212.745808,9.3324 212.157088,9.70992" id="Fill-1" fill="#36F2B9"></path>
                        <polygon id="Fill-3" fill="#36F2B9" points="221.644808 17.744936 220.376728 18.367096 218.514648 14.568136 216.137768 15.732376 217.604728 18.725256 216.378008 19.326296 214.911928 16.333416 212.487528 17.521416 214.349608 21.320376 213.075368 21.945176 210.425688 16.540216 218.996008 12.339976"></polygon>
                        <path d="M223.708232,22.420816 L224.190472,23.769856 C224.241512,23.914176 224.248552,24.045296 224.210712,24.161456 C224.172872,24.277616 224.105992,24.378816 224.010952,24.464176 L219.284472,28.536816 C219.131352,28.671456 218.959752,28.807856 218.769672,28.948656 C218.578712,29.089456 218.375432,29.230256 218.160712,29.372816 C218.671112,29.298016 219.133992,29.265456 219.548472,29.276896 L225.783272,29.423856 C225.891512,29.427376 226.002392,29.462576 226.115032,29.529456 C226.227672,29.596336 226.309512,29.700176 226.360552,29.841856 L226.842792,31.190016 L216.558232,30.772896 L216.018792,29.262816 L223.708232,22.420816 Z" id="Fill-5" fill="#36F2B9"></path>
                        <polygon id="Fill-7" fill="#36F2B9" points="229.68 42.37552 228.30544 42.69848 227.33832 38.58008 224.76168 39.18464 225.52288 42.4292 224.19408 42.7416 223.43112 39.49704 220.80344 40.11392 221.77056 44.23232 220.38896 44.55704 219.01352 38.69624 228.30544 36.5156"></polygon>
                        <polygon id="Fill-9" fill="#36F2B9" points="222.9348 51.072824 223.42936 54.862104 221.97648 55.051304 221.25136 49.502024 230.71488 48.265624 230.94544 50.025624"></polygon>
                        <g id="Group-13" transform="translate(221.760000, 57.994640)">
                            <mask id="mask-2" fill="white">
                                <use xlink:href="#path-1"></use>
                            </mask>
                            <g id="Clip-12"></g>
                            <path d="M5.524024,8.424064 C6.048504,8.412624 6.515784,8.333424 6.928504,8.185584 C7.341224,8.038624 7.689704,7.830944 7.974824,7.565184 C8.259064,7.299424 8.474664,6.979104 8.620744,6.604224 C8.766824,6.228464 8.834584,5.807824 8.824024,5.342304 C8.813464,4.875904 8.728104,4.457024 8.565304,4.086544 C8.403384,3.716064 8.174584,3.402784 7.878904,3.147584 C7.582344,2.892384 7.225064,2.698784 6.806184,2.566784 C6.387304,2.435664 5.916504,2.374944 5.392904,2.386384 C4.869304,2.397824 4.402024,2.478784 3.989304,2.628384 C3.575704,2.777984 3.228984,2.987424 2.945624,3.254944 C2.664024,3.523344 2.449304,3.845424 2.304104,4.222944 C2.158024,4.600464 2.090264,5.021984 2.099944,5.488384 C2.110504,5.954784 2.196744,6.371904 2.358664,6.740624 C2.520584,7.108464 2.748504,7.419104 3.042424,7.672544 C3.336344,7.925984 3.692744,8.116944 4.111624,8.247184 C4.529624,8.376544 5.000424,8.435504 5.524024,8.424064 M5.564504,10.245664 C4.864904,10.260624 4.214584,10.157664 3.612664,9.937664 C3.012504,9.717664 2.489784,9.400864 2.044504,8.988144 C1.600104,8.575424 1.248984,8.074704 0.992024,7.486864 C0.735064,6.898144 0.597784,6.242544 0.582824,5.521824 C0.566984,4.800224 0.674344,4.138464 0.905784,3.537424 C1.137224,2.935504 1.466344,2.418064 1.892264,1.984224 C2.318184,1.550384 2.826824,1.209824 3.417304,0.964304 C4.008664,0.717904 4.654584,0.587664 5.354184,0.571824 C6.052904,0.556864 6.703224,0.658944 7.304264,0.879824 C7.905304,1.099824 8.428904,1.417504 8.873304,1.831984 C9.318584,2.247344 9.668824,2.749824 9.925784,3.341184 C10.182744,3.931664 10.319144,4.588144 10.334984,5.308864 C10.350824,6.030464 10.241704,6.690464 10.008504,7.289744 C9.775304,7.889904 9.446184,8.404704 9.022904,8.836784 C8.597864,9.267984 8.090984,9.606784 7.499624,9.853184 C6.908264,10.099584 6.263224,10.229824 5.564504,10.245664" id="Fill-11" fill="#36F2B9" mask="url(#mask-2)"></path>
                        </g>
                        <path d="M226.82088,75.43008 L226.6924,76.75712 C226.65984,77.08096 226.67392,77.36784 226.73112,77.616 C226.7892,77.86504 226.88512,78.07536 227.02152,78.24784 C227.15704,78.42032 227.32952,78.55672 227.53808,78.65616 C227.7484,78.75648 227.986,78.81896 228.25264,78.84536 C228.50696,78.87 228.74104,78.8524 228.954,78.79344 C229.16784,78.73536 229.3544,78.63416 229.51456,78.49072 C229.67384,78.3464 229.80408,78.15808 229.9044,77.92488 C230.00384,77.6908 230.06984,77.41272 230.10152,77.088 L230.23,75.76096 L226.82088,75.43008 Z M225.44192,75.29632 L222.09792,74.9716 L222.26952,73.20456 L231.76824,74.12768 L231.46728,77.22088 C231.40568,77.85624 231.27808,78.39832 231.08448,78.848 C230.89,79.29856 230.64536,79.66112 230.3488,79.93744 C230.05224,80.21376 229.70992,80.4056 229.32448,80.51384 C228.93728,80.62208 228.52368,80.65464 228.08192,80.6124 C227.62168,80.56752 227.2072,80.4496 226.83936,80.25952 C226.47152,80.06856 226.16352,79.8072 225.918,79.47368 C225.67072,79.14016 225.49384,78.73624 225.3856,78.26104 C225.27648,77.78672 225.25272,77.24024 225.31256,76.62248 L225.44192,75.29632 Z" id="Fill-14" fill="#36F2B9"></path>
                        <path d="M223.245,90.411112 C223.0822,90.439272 222.9194,90.465672 222.75484,90.491192 C222.89652,90.587112 223.0338,90.684792 223.16932,90.783352 C223.30396,90.881912 223.43244,90.983112 223.55388,91.087832 L228.07356,95.024072 C228.12988,95.073352 228.17388,95.119992 228.2038,95.165752 C228.23372,95.210632 228.2522,95.258152 228.25924,95.306552 C228.2654,95.355832 228.2654,95.408632 228.2566,95.465832 C228.24868,95.522152 228.2346,95.589032 228.217,95.666472 L227.9178,96.972392 L218.61532,94.836632 L218.96644,93.311592 L224.9742,94.691432 C225.08596,94.716952 225.20652,94.748632 225.33852,94.785592 C225.46964,94.822552 225.60252,94.863032 225.73716,94.907032 L221.10748,90.885432 C221.00188,90.793912 220.92796,90.688312 220.88484,90.570392 C220.8426,90.451592 220.83732,90.323992 220.869,90.186712 L220.92268,89.949112 C220.95436,89.811832 221.01508,89.699192 221.10484,89.611192 C221.19548,89.524072 221.30812,89.461592 221.44276,89.424632 L227.39156,87.790472 C227.24548,87.775512 227.10468,87.755272 226.9674,87.731512 C226.83188,87.705992 226.70604,87.680472 226.58988,87.654072 L220.58212,86.275112 L220.93148,84.750072 L230.23308,86.885832 L229.93388,88.191752 C229.9154,88.269192 229.89868,88.335192 229.88108,88.389752 C229.86348,88.444312 229.84148,88.491832 229.8142,88.533192 C229.78692,88.574552 229.74996,88.609752 229.70156,88.639672 C229.65404,88.669592 229.59508,88.694232 229.52292,88.713592 L223.71932,90.306392 C223.56444,90.347752 223.40692,90.382952 223.245,90.411112" id="Fill-16" fill="#36F2B9"></path>
                        <polygon id="Fill-18" fill="#36F2B9" points="223.839704 108.85072 222.513544 108.36408 223.970824 104.39264 221.486584 103.48008 220.338184 106.60936 219.055144 106.13856 220.203544 103.00928 217.670024 102.08 216.211864 106.05144 214.879544 105.56216 216.954584 99.91168 225.912984 103.20024"></polygon>
                        <path d="M220.95216,115.434792 C220.92312,115.478792 220.89056,115.514872 220.8536,115.543912 C220.81752,115.572072 220.77264,115.595832 220.7216,115.614312 C220.67056,115.632792 220.60632,115.649512 220.52976,115.665352 L212.57544,117.266072 C212.72064,117.318872 212.86144,117.376072 212.99608,117.436792 C213.12984,117.497512 213.2548,117.556472 213.3692,117.613672 L218.54976,120.224632 L217.84488,121.622072 L209.32296,117.325912 L209.73568,116.506632 C209.79904,116.380792 209.8712,116.286632 209.95216,116.224152 C210.03312,116.161672 210.14488,116.115912 210.28656,116.089512 L218.20744,114.494952 C218.07544,114.443032 217.94696,114.389352 217.81936,114.333032 C217.69352,114.275832 217.57912,114.222152 217.47704,114.170232 L212.24368,111.531992 L212.9468,110.136312 L221.4696,114.431592 L221.04984,115.262312 C221.01464,115.333592 220.98208,115.390792 220.95216,115.434792" id="Fill-20" fill="#36F2B9"></path>
                        <polygon id="Fill-22" fill="#36F2B9" points="210.85284 132.79464 209.63492 131.99208 211.2154 129.59496 204.46492 125.1448 205.4426 123.66288 212.1922 128.11304 213.77972 125.70448 214.99764 126.50704"></polygon>
                        <path d="M8.005976,92.859448 C7.500856,92.998488 7.067016,93.191208 6.703576,93.436728 C6.339256,93.683128 6.053256,93.970008 5.844696,94.296488 C5.636136,94.622968 5.505896,94.986408 5.456616,95.385928 C5.406456,95.784568 5.443416,96.209608 5.567496,96.659288 L6.059416,98.447448 L12.537096,96.664568 L12.045176,94.876408 C11.921096,94.426728 11.735416,94.043048 11.489016,93.725368 C11.241736,93.407688 10.944296,93.162168 10.597576,92.987928 C10.251736,92.814568 9.858376,92.714248 9.420136,92.689608 C8.981896,92.664088 8.510216,92.720408 8.005976,92.859448 M7.523736,91.109128 C8.198696,90.923448 8.849016,90.865368 9.474696,90.934888 C10.101256,91.005288 10.673256,91.187448 11.193336,91.482248 C11.712536,91.777928 12.163976,92.180968 12.545896,92.691368 C12.928696,93.202648 13.215576,93.805448 13.407416,94.501528 L14.372776,98.013608 L5.171496,100.546248 L4.205256,97.034168 C4.014296,96.338088 3.953576,95.672808 4.022216,95.037448 C4.091736,94.402088 4.273016,93.825688 4.566056,93.306488 C4.859096,92.787288 5.256856,92.338488 5.758456,91.958328 C6.261816,91.578168 6.849656,91.295688 7.523736,91.109128" id="Fill-24" fill="#7878F9"></path>
                        <polygon id="Fill-26" fill="#7878F9" points="0.856768 80.627096 2.252448 80.410616 2.901008 84.590616 5.516368 84.184936 5.005088 80.891096 6.355008 80.681656 6.866288 83.975496 9.533568 83.561016 8.885008 79.381016 10.287728 79.162776 11.210848 85.111576 1.779888 86.575016"></polygon>
                        <path d="M1.733336,69.481456 C1.832776,69.524576 1.904056,69.576496 1.947176,69.638096 C1.989416,69.700576 2.013176,69.774496 2.018456,69.862496 C2.022856,69.950496 1.994696,70.050816 1.932216,70.164336 C1.869736,70.277856 1.800216,70.411616 1.724536,70.565616 C1.649736,70.719616 1.582856,70.898256 1.525656,71.101536 C1.467576,71.304816 1.446456,71.543296 1.460536,71.815216 C1.473736,72.061616 1.515096,72.274576 1.583736,72.453216 C1.653256,72.632736 1.743896,72.781456 1.855656,72.902016 C1.968296,73.020816 2.099416,73.107936 2.249896,73.161616 C2.400376,73.215296 2.563176,73.237296 2.739176,73.228496 C2.962696,73.216176 3.145736,73.144016 3.289176,73.010256 C3.432616,72.877376 3.550536,72.704896 3.644696,72.492816 C3.738856,72.280736 3.821576,72.040496 3.891096,71.772976 C3.960616,71.504576 4.035416,71.230896 4.114616,70.951056 C4.194696,70.671216 4.290616,70.396656 4.401496,70.125616 C4.512376,69.855456 4.658456,69.612576 4.838856,69.396096 C5.018376,69.178736 5.243656,69.000976 5.514696,68.861056 C5.784856,68.721136 6.116616,68.640176 6.512616,68.619936 C6.943816,68.597056 7.350376,68.648976 7.733176,68.775696 C8.117736,68.903296 8.456536,69.101296 8.750456,69.369696 C9.044376,69.638096 9.281976,69.973376 9.464136,70.372896 C9.646296,70.773296 9.751016,71.237056 9.780056,71.764176 C9.795016,72.066896 9.781816,72.367856 9.738696,72.665296 C9.694696,72.962736 9.625176,73.249616 9.529256,73.525056 C9.434216,73.801376 9.315416,74.060976 9.173736,74.303856 C9.032936,74.547616 8.871896,74.766736 8.693256,74.961216 L7.815896,74.492176 C7.751656,74.447296 7.697096,74.391856 7.652216,74.325856 C7.606456,74.259856 7.581816,74.185056 7.577416,74.101456 C7.571256,73.991456 7.609976,73.870896 7.692696,73.738016 C7.776296,73.606016 7.868696,73.450256 7.969016,73.271616 C8.069336,73.092096 8.159096,72.881776 8.236536,72.642416 C8.314856,72.402176 8.344776,72.117936 8.326296,71.787936 C8.299896,71.282816 8.159976,70.898256 7.905656,70.634256 C7.651336,70.370256 7.299336,70.249696 6.851416,70.273456 C6.600616,70.287536 6.400856,70.360576 6.248616,70.494336 C6.097256,70.628096 5.973176,70.800576 5.876376,71.012656 C5.780456,71.224736 5.701256,71.464976 5.639656,71.732496 C5.579816,72.000016 5.512936,72.272816 5.439016,72.549136 C5.365976,72.826336 5.274456,73.100016 5.165336,73.370176 C5.056216,73.640336 4.908376,73.884096 4.721816,74.101456 C4.535256,74.317936 4.296776,74.497456 4.006376,74.638256 C3.716856,74.779056 3.354296,74.860896 2.919576,74.884656 C2.571976,74.903136 2.229656,74.851216 1.893496,74.730656 C1.556456,74.609216 1.253736,74.422656 0.984456,74.170976 C0.716056,73.918416 0.494296,73.603376 0.320056,73.224096 C0.144936,72.845696 0.044616,72.408336 0.019096,71.912016 C-0.010824,71.349696 0.049016,70.826096 0.199496,70.342976 C0.350856,69.858976 0.575256,69.441856 0.873576,69.090736 L1.733336,69.481456 Z" id="Fill-28" fill="#7878F9"></path>
                        <polygon id="Fill-30" fill="#7878F9" points="9.594904 61.586008 9.539464 63.367128 0.000264 63.068808 0.055704 61.287688"></polygon>
                        <path d="M9.159216,51.465568 C9.210256,51.068688 9.218176,50.717568 9.183856,50.413968 C9.149536,50.110368 9.087056,49.817328 8.994656,49.534848 L7.272496,49.313968 L7.121136,50.498448 C7.106176,50.612848 7.063056,50.697328 6.990896,50.755408 C6.919616,50.812608 6.837776,50.835488 6.746256,50.824048 L5.750976,50.695568 L6.154896,47.546928 L9.983776,48.037968 C10.128976,48.300208 10.247776,48.569488 10.343696,48.845808 C10.438736,49.122128 10.509136,49.412528 10.554016,49.717888 C10.599776,50.023248 10.620896,50.346208 10.6200424,50.687648 C10.618256,51.029088 10.592736,51.394288 10.542576,51.782368 C10.454576,52.472288 10.253056,53.091808 9.938896,53.641808 C9.623856,54.190928 9.226096,54.650288 8.743856,55.019008 C8.261616,55.387728 7.709856,55.652608 7.085936,55.814528 C6.461136,55.975568 5.798496,56.012528 5.095376,55.921888 C4.383456,55.830368 3.746336,55.631488 3.182256,55.324368 C2.618176,55.017248 2.150016,54.623008 1.776016,54.142528 C1.403776,53.662928 1.138016,53.104128 0.979616,52.467008 C0.821216,51.830768 0.791296,51.134688 0.888096,50.379648 C0.986656,49.607008 1.186416,48.953168 1.488256,48.416368 C1.790096,47.880448 2.149136,47.439568 2.566256,47.094608 L3.300176,47.707088 C3.448896,47.828528 3.512256,47.971968 3.491136,48.137408 C3.477056,48.242128 3.428656,48.345088 3.345056,48.444528 C3.243856,48.573888 3.142656,48.705888 3.041456,48.842288 C2.940256,48.977808 2.846976,49.130048 2.762496,49.299008 C2.679776,49.467088 2.604096,49.659808 2.536336,49.874528 C2.468576,50.091008 2.416656,50.341808 2.379696,50.630448 C2.319856,51.097728 2.344496,51.529808 2.452736,51.926688 C2.561856,52.325328 2.745776,52.675568 3.003616,52.979168 C3.262336,53.282768 3.587056,53.532688 3.978656,53.729808 C4.371136,53.926048 4.819056,54.056288 5.325936,54.121408 C5.871536,54.191808 6.366096,54.177728 6.811376,54.079168 C7.256656,53.980608 7.642976,53.812528 7.970336,53.574928 C8.297696,53.338208 8.564336,53.039888 8.767616,52.679088 C8.970896,52.320048 9.102016,51.915248 9.159216,51.465568" id="Fill-32" fill="#7878F9"></path>
                        <path d="M2.905584,39.707536 C2.924944,39.658256 2.949584,39.616016 2.979504,39.579936 C3.008544,39.543856 3.046384,39.512176 3.093024,39.483136 C3.138784,39.454096 3.197744,39.423296 3.269024,39.392496 L10.697104,36.129456 C10.544864,36.108336 10.395264,36.082816 10.250944,36.052016 C10.106624,36.022096 9.971984,35.990416 9.848784,35.958736 L4.229984,34.514656 L4.619824,32.999296 L13.862464,35.376176 L13.633664,36.264096 C13.599344,36.400496 13.549184,36.507856 13.484064,36.587056 C13.417184,36.665376 13.318624,36.733136 13.185744,36.789456 L5.787584,40.039296 C5.927504,40.062176 6.065664,40.086816 6.201184,40.114976 C6.336704,40.143136 6.459904,40.171296 6.570784,40.200336 L12.246784,41.659376 L11.857824,43.173856 L2.615184,40.797856 L2.846624,39.896736 C2.865984,39.820176 2.886224,39.756816 2.905584,39.707536" id="Fill-34" fill="#7878F9"></path>
                    </g>
                    <g id="problemRisorsa-5" transform="translate(23.760000, 0.000000)" fill="#FFFFFF" fill-rule="nonzero">
                        <path d="M53.6406316,16.6273684 C54.1568182,16.9606371 54.7257607,17.2039998 55.3232842,17.3471158 C55.9115545,17.4521516 56.5179913,17.3669779 57.0545684,17.1039579 C57.3505176,16.9752196 57.6207246,16.7939832 57.8521263,16.5690105 C58.0751331,16.3705086 58.2455466,16.1199006 58.3481684,15.8395368 C58.4564351,15.5914667 58.4564351,15.3095017 58.3481684,15.0614316 C58.1733445,14.6292104 57.7794584,14.3245061 57.3171789,14.2638737 C56.698145,14.1904017 56.0707583,14.2366302 55.4691789,14.4000421 C54.6525364,14.61046 53.7958847,14.61046 52.9792421,14.4000421 C52.2298708,14.1469802 51.635935,13.567356 51.3646737,12.8243789 C51.1284258,12.3307834 51.0700134,11.770711 51.1993263,11.2389895 C51.3290062,10.7024812 51.5973261,10.2094433 51.9774316,9.80922105 C52.3814668,9.37290605 52.8716267,9.02515745 53.4169263,8.78795789 C54.0734967,8.48270954 54.7946965,8.34247625 55.5178105,8.37945263 C56.1643227,8.42143643 56.7853174,8.64755948 57.3074526,9.03111579 L56.7336,10.4803368 C56.3364373,10.1944461 55.881703,9.99861162 55.4010947,9.90648421 C54.9094808,9.82236553 54.4039036,9.89022823 53.9518737,10.1010105 C53.511088,10.280603 53.1347952,10.5890953 52.8722526,10.9861053 C52.6417581,11.3333492 52.6085951,11.7755231 52.7847158,12.1532632 C52.9398151,12.5694069 53.315964,12.862803 53.7573474,12.9119158 C54.288609,12.9401365 54.8209013,12.8809929 55.3330105,12.7368421 C55.8984026,12.6144649 56.4762195,12.5589684 57.0545684,12.5714947 C57.5833779,12.5723807 58.1052345,12.6920421 58.5816,12.9216421 C59.0271913,13.1501216 59.3733245,13.5343294 59.5542316,14.0012632 C59.935374,14.7977183 59.935374,15.7239238 59.5542316,16.5203789 C59.0973232,17.39112 58.3355056,18.0629046 57.4144421,18.4072842 C56.7378002,18.71782 55.9995235,18.8707963 55.2552,18.8546947 C54.4827992,18.8182987 53.7340808,18.57656 53.0862316,18.1544 L53.6406316,16.6273684 Z" id="Path"></path>
                        <path d="M68.3079158,10.3247158 C68.5394431,11.0104846 68.5864055,11.7451111 68.4440842,12.4547789 C68.1342323,13.8088942 67.1259039,14.8950714 65.7985263,15.3045895 C65.1396729,15.5217957 64.4353075,15.5620451 63.756,15.4213053 C63.0940036,15.2769295 62.4827609,14.9578743 61.9858105,14.4973053 C61.4669164,14.0171566 61.0815118,13.4105634 60.8672842,12.7368421 C60.6389077,12.0535772 60.5952857,11.3220689 60.7408421,10.6165053 C60.877342,9.95370864 61.1936539,9.34127494 61.6551158,8.84631579 C62.6197886,7.81899642 64.0485762,7.366056 65.4289263,7.64997895 C66.0872675,7.79093506 66.6954292,8.10677596 67.1893895,8.56425263 C67.711091,9.04205407 68.0970057,9.64945023 68.3079158,10.3247158 L68.3079158,10.3247158 Z M66.8489684,10.7915789 C66.7226683,10.3340316 66.4777303,9.91797245 66.1389474,9.58551579 C65.5195737,9.0030453 64.632487,8.80340215 63.8232941,9.06436684 C63.0141013,9.32533153 62.4107947,10.0056265 62.2484211,10.8402105 C62.1716057,11.3070405 62.2151247,11.7857486 62.3748632,12.2310737 C62.5031263,12.6799257 62.7442191,13.0884441 63.0751579,13.4176842 C63.3727263,13.7282365 63.7548637,13.9446683 64.1742316,14.0401684 C64.5916605,14.1454278 65.0305418,14.1285477 65.4386526,13.9915368 C65.8485916,13.8738288 66.2142474,13.6368297 66.4890947,13.3106947 C66.7625777,12.9838575 66.9468629,12.5918326 67.0240421,12.1727158 C67.0863303,11.7049441 67.0260012,11.2290142 66.8489684,10.7915789 Z" id="Shape"></path>
                        <polygon id="Path" points="71.0604632 13.7094737 68.5899789 3.16614737 70.0294737 2.816 72.4999579 13.3301474"></polygon>
                        <path d="M79.1819368,9.01166316 L78.4621895,4.45974737 L79.9503158,4.22631579 L81.1369263,11.7642105 L79.6585263,11.9976421 L79.464,10.7915789 C79.2727,11.2143362 78.9903991,11.5896304 78.6372632,11.8906526 C78.2206375,12.2447141 77.7106682,12.4709919 77.1685895,12.5423158 C76.4466405,12.6771228 75.7016895,12.4926587 75.1260632,12.0365474 C74.5097008,11.491538 74.1208462,10.7346602 74.0367158,9.91621053 L73.3072421,5.24757895 L74.7856421,5.01414737 L75.4567579,9.27427368 C75.5083568,9.63978914 75.6270663,9.9926202 75.8069053,10.3149895 C75.9671662,10.6116317 76.2105578,10.8550233 76.5072,11.0152842 C76.8380725,11.1693778 77.2095361,11.2136808 77.5673684,11.1417263 C78.0631416,11.079355 78.5159015,10.8285957 78.8317895,10.4414316 C79.1517175,10.0388527 79.2796362,9.51651819 79.1819368,9.01166316 L79.1819368,9.01166316 Z" id="Path"></path>
                        <polygon id="Path" points="85.5915789 11.4626947 84.0937263 11.5696842 83.6657684 5.38374737 82.0803789 5.49073684 81.9733895 4.03178947 83.5587789 3.9248 83.4226105 1.97953684 84.9204632 1.87254737 85.0566316 3.81781053 86.8365474 3.69136842 86.9338105 5.15031579 85.1636211 5.27675789"></polygon>
                        <path d="M89.6377263,2.03789474 C89.3602817,2.06626617 89.0840065,1.97417445 88.8790737,1.78501053 C88.7064923,1.60074659 88.6123205,1.35659734 88.6164632,1.10416842 C88.6169823,0.863606367 88.6992999,0.630373086 88.8498947,0.442778947 C89.0372084,0.217852937 89.3158587,0.0892451342 89.6085474,0.0926315789 C89.885992,0.0642601456 90.1622672,0.156351868 90.3672,0.345515789 C90.5464582,0.525518185 90.6417623,0.772603075 90.6298105,1.02635789 C90.6292914,1.26691995 90.5469738,1.50015323 90.3963789,1.68774737 C90.2090652,1.91267338 89.930415,2.04128118 89.6377263,2.03789474 Z M90.6103579,11.3459789 L89.1125053,11.3459789 L88.9860632,3.68164211 L90.4839158,3.68164211 L90.6103579,11.3459789 Z" id="Shape"></path>
                        <path d="M100.385305,7.87368421 C100.34714,8.5961653 100.12264,9.29647116 99.7336421,9.90648421 C98.9649979,11.0698601 97.6213234,11.7193028 96.2321684,11.5988632 C95.538656,11.5592641 94.867773,11.3378728 94.2869053,10.9569263 C93.7279352,10.5827358 93.2755318,10.070012 92.9738526,9.4688 C92.6660739,8.81366021 92.5352906,8.08932209 92.5945263,7.36791579 C92.6232644,6.64676166 92.8486084,5.94718622 93.2461895,5.34484211 C93.6155204,4.7779992 94.1337247,4.32372926 94.7440421,4.03178947 C96.0171146,3.43600055 97.5062493,3.53136386 98.6929263,4.28467368 C99.2542323,4.65758772 99.7045031,5.17506315 99.9962526,5.78252632 C100.311483,6.43195736 100.445879,7.15433608 100.385305,7.87368421 L100.385305,7.87368421 Z M98.8485474,7.77642105 C98.9039369,7.30607816 98.8334514,6.82946181 98.6442947,6.39528421 C98.4737471,6.00340752 98.1976136,5.66665938 97.8467368,5.42265263 C97.4977839,5.17702167 97.086333,5.03537462 96.6601263,5.01414737 C96.2329116,4.98252265 95.8053007,5.07006502 95.4248842,5.26703158 C95.0432166,5.46164476 94.725774,5.76220214 94.5106105,6.13267368 C94.267593,6.53559971 94.1335222,6.99479215 94.1215579,7.46517895 C94.0763639,7.93712707 94.1534036,8.41276366 94.3452632,8.84631579 C94.6743702,9.64680358 95.4273866,10.1927405 96.2905263,10.2566316 C96.7146019,10.2879764 97.1390135,10.2003995 97.5160421,10.0037474 C97.8915144,9.80047387 98.2068433,9.50191778 98.4303158,9.13810526 C98.6840087,8.73822529 98.8282301,8.27872929 98.8485474,7.8056 L98.8485474,7.77642105 Z" id="Shape"></path>
                        <path d="M106.931116,4.95578947 C107.494848,5.01779731 108.023547,5.25997547 108.438695,5.64635789 C108.768548,5.98831795 108.976992,6.42912678 109.032,6.90105263 C109.113448,7.43289983 109.113448,7.97404754 109.032,8.50589474 L108.244168,13.1064421 L106.765768,12.8535579 L107.534147,8.35027368 C107.58386,8.02796884 107.58386,7.69994695 107.534147,7.37764211 C107.493033,7.09040408 107.359943,6.82422416 107.154821,6.61898947 C106.886107,6.38200183 106.540475,6.25066148 106.182189,6.24938947 C105.825183,6.18731722 105.458553,6.21064823 105.112295,6.31747368 C104.802406,6.42488336 104.524706,6.60890168 104.305011,6.85242105 C104.082919,7.08547852 103.937042,7.38062614 103.886779,7.69861053 L103.108674,12.2699789 L101.620547,12.0170947 L102.923874,4.45974737 L104.402274,4.72235789 L104.198021,5.90896842 C104.528656,5.57354849 104.926382,5.31171257 105.365179,5.14058947 C105.859252,4.93241938 106.402157,4.8683498 106.931116,4.95578947 L106.931116,4.95578947 Z" id="Path"></path>
                        <path d="M127.735705,16.5203789 C127.800946,17.1266321 127.965234,17.7180698 128.222021,18.2711158 C128.508563,18.7988477 128.959275,19.2188291 129.505895,19.4674526 C129.789698,19.6210958 130.099831,19.7200744 130.420168,19.7592421 C130.713206,19.8068177 131.013379,19.783471 131.295537,19.6911579 C131.553614,19.604408 131.766899,19.419095 131.888842,19.1756632 C132.121947,18.7759669 132.121947,18.2817594 131.888842,17.8820632 C131.560342,17.353016 131.134607,16.8909779 130.634147,16.5203789 C129.958685,16.0145813 129.423126,15.3451322 129.077937,14.5751158 C128.797159,13.8335066 128.876196,13.0036129 129.291916,12.3283368 C129.528327,11.8369461 129.926749,11.4419589 130.420168,11.2098105 C130.920377,10.9738249 131.473748,10.873212 132.025011,10.9180211 C133.333819,11.0330426 134.533941,11.6931096 135.331958,12.7368421 C135.706647,13.268037 135.919473,13.8963809 135.944716,14.5459368 L134.456589,15.0128 C134.428107,14.5223209 134.291956,14.0441329 134.057811,13.6122105 C133.817142,13.1867994 133.450008,12.8468613 133.007368,12.6395789 C132.589208,12.4086694 132.111902,12.3071151 131.635958,12.3477895 C131.216239,12.3768378 130.844636,12.6295281 130.663326,13.0091789 C130.425248,13.3865112 130.425248,13.8670888 130.663326,14.2444211 C130.96339,14.6965659 131.334529,15.0972649 131.7624,15.4310316 C132.218323,15.7815144 132.632753,16.182891 132.997642,16.6273684 C133.32248,17.0485346 133.55751,17.5318349 133.688211,18.0474105 C133.796398,18.5435758 133.72034,19.0621559 133.474232,19.5063579 C133.102389,20.308355 132.387014,20.89854 131.528968,21.1112 C130.560929,21.3000012 129.557261,21.1269551 128.708337,20.6248842 C128.044769,20.2932122 127.465875,19.8141275 127.015958,19.2242947 C126.566461,18.5955476 126.285215,17.8622992 126.198947,17.0942316 L127.735705,16.5203789 Z" id="Path"></path>
                        <path d="M141.809684,23.9901895 C141.421315,24.5853642 140.880594,25.0656316 140.243747,25.3810526 C139.644177,25.6898847 138.971208,25.8278433 138.298484,25.7798316 C137.602512,25.7376636 136.930661,25.5092343 136.353221,25.1184421 C135.772146,24.7360993 135.299737,24.2100835 134.981811,23.5914105 C134.677751,22.9903961 134.543247,22.3178758 134.592758,21.6461474 C134.641566,20.9228743 134.887081,20.2266867 135.302779,19.6328 C135.69156,19.0281595 136.231298,18.5353559 136.868716,18.2030316 C137.470379,17.9001783 138.141684,17.7625606 138.813979,17.8042526 C139.509946,17.8539257 140.180699,18.0853356 140.759242,18.4753684 C141.33994,18.8511053 141.809974,19.374857 142.120926,19.9926737 C142.42222,20.5946409 142.556571,21.2663925 142.509979,21.9379368 C142.473141,22.674065 142.230516,23.3850923 141.809684,23.9901895 L141.809684,23.9901895 Z M140.535537,23.144 C140.814663,22.7609683 140.988996,22.3117239 141.041305,21.8406737 C141.093837,21.4178433 141.022901,20.9888447 140.837053,20.6054316 C140.564429,20.0174666 140.059636,19.5693066 139.443521,19.368239 C138.827405,19.1671713 138.15543,19.2312964 137.588463,19.5452632 C137.184448,19.778413 136.848981,20.1138797 136.615832,20.5178947 C136.338444,20.8936816 136.167125,21.3370978 136.119789,21.8017684 C136.067573,22.2277484 136.138451,22.6597722 136.324042,23.0467368 C136.502567,23.4423085 136.789135,23.7794475 137.150779,24.0193684 C137.503642,24.2618155 137.919142,24.3969375 138.347116,24.4084211 C138.774448,24.4233369 139.197872,24.3225217 139.572632,24.1166316 C139.97037,23.8786622 140.301577,23.5441099 140.535537,23.144 Z" id="Shape"></path>
                        <polygon id="Path" points="140.924589 28.2211368 147.557937 19.7008842 148.744547 20.6248842 142.1112 29.1451368"></polygon>
                        <path d="M149.668547,31.6253474 L152.761516,28.2114105 L153.870316,29.1840421 L148.734821,34.8739368 L147.626021,33.9013053 L148.443032,32.9967579 C147.991767,33.1003838 147.522885,33.1003838 147.071621,32.9967579 C146.532763,32.902182 146.034689,32.6480629 145.641853,32.2672842 C145.069135,31.7842 144.741177,31.0712481 144.746955,30.3220211 C144.782191,29.4984811 145.130026,28.7193317 145.719663,28.1433263 L148.890442,24.6418526 L149.999242,25.6144842 L147.081347,28.8241684 C146.829033,29.091636 146.630863,29.4054044 146.497768,29.7481684 C146.198527,30.4074631 146.387102,31.1858361 146.954905,31.6350737 C147.319247,31.9768662 147.797647,32.1709994 148.297137,32.1797474 C148.814415,32.2107708 149.31815,32.0071335 149.668547,31.6253474 Z" id="Path"></path>
                        <polygon id="Path" points="151.798611 38.1614316 150.757895 37.0526316 155.290358 32.8216842 154.210737 31.6642526 155.270905 30.6916211 156.360253 31.8587789 157.790021 30.5262737 158.811284 31.6253474 157.381516 32.9578526 158.597305 34.2611789 157.527411 35.2338105 156.311621 33.9304842"></polygon>
                        <path d="M155.0472,41.9157895 L154.074568,40.7583579 L159.978442,35.8952 L160.951074,37.0526316 L155.0472,41.9157895 Z M161.738905,35.3699789 C161.541779,35.1723732 161.439047,34.8996025 161.456842,34.6210526 C161.492973,34.3702121 161.625582,34.1433795 161.826442,33.9888421 C162.01162,33.8349874 162.24728,33.7552791 162.487832,33.7651368 C162.771439,33.787818 163.030896,33.9335402 163.197853,34.1639158 C163.394979,34.3615216 163.49771,34.6342922 163.479916,34.9128421 C163.443785,35.1636827 163.311175,35.3905152 163.110316,35.5450526 C162.922619,35.7012146 162.683054,35.7810697 162.4392,35.7687579 C162.158353,35.7536897 161.900071,35.6101993 161.738905,35.3797053 L161.738905,35.3699789 Z" id="Shape"></path>
                        <path d="M163.839789,47.4208842 C163.270255,47.8420464 162.598818,48.1039068 161.894526,48.1795368 C161.228168,48.2461605 160.556172,48.1319211 159.949263,47.8488421 C159.320414,47.5568159 158.782574,47.0996517 158.393053,46.5260632 C157.978061,45.9557531 157.725912,45.2833569 157.663579,44.5808 C157.604242,43.9137347 157.721654,43.2428076 158.004,42.6355368 C158.666225,41.334053 159.930257,40.4452229 161.379032,40.2623158 C162.046346,40.1967576 162.718903,40.3144551 163.324295,40.6027368 C163.949312,40.9007137 164.485729,41.3566682 164.880505,41.9255158 C165.292031,42.4968587 165.540787,43.1691737 165.600253,43.8707789 C165.660053,44.5378637 165.54262,45.2089102 165.259832,45.8160421 C164.935783,46.4665141 164.445977,47.0200618 163.839789,47.4208842 L163.839789,47.4208842 Z M162.954695,46.1661895 C163.362489,45.9122746 163.697577,45.5570813 163.927326,45.1352 C164.217521,44.5610713 164.260084,43.893185 164.045115,43.2868638 C163.830147,42.6805426 163.376382,42.1886268 162.789347,41.9255158 C162.399323,41.7503956 161.967574,41.689681 161.544379,41.7504421 C160.611749,41.916513 159.800112,42.4860834 159.326779,43.3066526 C159.126132,43.6894927 159.035247,44.1203565 159.064168,44.5516211 C159.145208,45.4054958 159.680675,46.1492 160.464758,46.4968842 C160.858344,46.6591886 161.287419,46.7161751 161.709726,46.6622316 C162.159766,46.6039746 162.587905,46.4333878 162.954695,46.1661895 L162.954695,46.1661895 Z" id="Shape"></path>
                        <path d="M170.278611,50.6694737 C170.589015,51.1479268 170.732627,51.715538 170.687116,52.2840421 C170.626686,52.7535213 170.415001,53.1905485 170.084084,53.5290105 C169.70952,53.9182496 169.276315,54.2464352 168.800211,54.5016421 L164.724884,56.7776 L163.995411,55.4645474 L167.9832,53.2372211 C168.281187,53.0786002 168.550717,52.8715222 168.780758,52.6244632 C168.976544,52.4150562 169.102316,52.1499149 169.140632,51.8658105 C169.160204,51.5159095 169.053175,51.170654 168.839116,50.8931789 C168.671004,50.5729993 168.423091,50.3016351 168.119368,50.1053474 C167.841843,49.9282756 167.52392,49.824532 167.195368,49.8038316 C166.876994,49.7782645 166.55832,49.8494575 166.281095,50.0080842 L162.225221,52.2645895 L161.456842,50.9418105 L168.148547,47.2166316 L168.878021,48.5296842 L167.817853,49.1229895 C168.288885,49.1619571 168.744722,49.3083573 169.150358,49.5509474 C169.626843,49.8066378 170.018804,50.1952204 170.278611,50.6694737 L170.278611,50.6694737 Z" id="Path"></path>
                        <path d="M174.295579,74.1001684 C173.864524,74.5338491 173.509429,75.0368991 173.245137,75.5882947 C173.013948,76.1423575 172.966229,76.7558856 173.108968,77.3390316 C173.174376,77.6549204 173.292762,77.9574645 173.459116,78.2338526 C173.617664,78.4968852 173.83802,78.7172415 174.101053,78.8757895 C174.331075,79.0250238 174.610698,79.0774531 174.879158,79.0216842 C175.327644,78.9327669 175.69674,78.6153436 175.851789,78.1852211 C176.056587,77.5950186 176.145749,76.9708849 176.1144,76.3469474 C176.086533,75.5033197 176.273982,74.6664933 176.659074,73.9153684 C177.059674,73.2334267 177.752185,72.7741448 178.536253,72.6704 C179.069412,72.5496069 179.627686,72.6112568 180.121642,72.8454737 C180.617001,73.0883156 181.039678,73.4573194 181.347158,73.9153684 C181.692141,74.4004678 181.927751,74.9546501 182.037726,75.5396632 C182.214765,76.2419407 182.214765,76.9771751 182.037726,77.6794526 C181.870488,78.2978403 181.53358,78.8571073 181.065095,79.2940211 L179.771495,78.4186526 C180.133803,78.0891037 180.419345,77.6840323 180.607958,77.2320421 C180.96569,76.3108958 180.769639,75.266546 180.102189,74.5378526 C179.794434,74.2463708 179.362642,74.1255775 178.948313,74.215057 C178.533984,74.3045365 178.190524,74.5927553 178.030484,74.9852632 C177.869122,75.5046878 177.790352,76.0462351 177.797053,76.5901053 C177.796506,77.1661992 177.731255,77.7404091 177.602526,78.3019368 C177.483142,78.8178991 177.25427,79.3021798 176.931411,79.7219789 C176.614849,80.1234111 176.161037,80.3936197 175.657263,80.4806316 C174.79967,80.6949591 173.89115,80.5089629 173.186779,79.9748632 C172.433682,79.3365357 171.942021,78.4432349 171.805642,77.4654737 C171.635076,76.7426843 171.635076,75.9901157 171.805642,75.2673263 C172.013108,74.5303755 172.408614,73.8600263 172.953347,73.3220632 L174.295579,74.1001684 Z" id="Path"></path>
                        <path d="M177.320463,89.7692632 C176.603198,89.8488201 175.87772,89.7346245 175.219579,89.4385684 C174.602657,89.1634185 174.071652,88.7265152 173.682821,88.1741474 C173.281676,87.5997347 173.043088,86.9276568 172.992253,86.2288842 C172.916727,85.5370084 173.031049,84.8376266 173.322947,84.2058105 C173.597681,83.5886316 174.034668,83.0575246 174.587368,82.6690526 C175.183389,82.2589956 175.878876,82.0170871 176.600716,81.9687579 C177.317168,81.8827466 178.043512,81.9937159 178.7016,82.2897263 C179.318268,82.5656597 179.846717,83.0065949 180.228632,83.5638737 C180.633234,84.1372679 180.87521,84.8094237 180.928926,85.5091368 C180.999769,86.1977213 180.885612,86.8927384 180.598232,87.5224842 C180.316885,88.1357554 179.877052,88.6628839 179.324084,89.0495158 C178.731352,89.4618939 178.040115,89.7102025 177.320463,89.7692632 L177.320463,89.7692632 Z M177.174568,88.2422316 C177.64803,88.2158998 178.106821,88.0685509 178.507074,87.8142737 C178.873753,87.577393 179.164213,87.2396488 179.343537,86.8416421 C179.532184,86.4590452 179.60648,86.0301578 179.557516,85.6064 C179.524598,85.1779031 179.373046,84.7670293 179.119832,84.4197895 C178.869753,84.081695 178.533995,83.8164465 178.1472,83.6514105 C177.253223,83.3287219 176.261922,83.4214335 175.443284,83.9042947 C175.077544,84.1449778 174.784856,84.4814013 174.597095,84.8769263 C174.408174,85.2629122 174.333912,85.6949813 174.383116,86.1218947 C174.414416,86.5447927 174.566313,86.9498497 174.8208,87.2890526 C175.074135,87.6239758 175.408968,87.8884938 175.793432,88.0574316 C176.229519,88.2395269 176.705949,88.3032746 177.174568,88.2422316 L177.174568,88.2422316 Z" id="Shape"></path>
                        <polygon id="Path" points="173.468842 91.7339789 184.265053 91.5394526 184.265053 93.0373053 173.468842 93.2318316"></polygon>
                        <path d="M176.308926,100.682189 L180.909474,100.935074 L180.831663,102.442653 L173.186779,102.014695 L173.264589,100.516842 L174.490105,100.584926 C174.11389,100.310755 173.804642,99.9549534 173.585558,99.5442105 C173.325233,99.0622401 173.213544,98.5139451 173.264589,97.9685474 C173.279384,97.2362949 173.613348,96.5470505 174.178863,96.0816421 C174.841225,95.5908295 175.664611,95.3684805 176.484,95.4591579 L181.201263,95.7217684 L181.123453,97.2293474 L176.804968,96.9861895 C176.437214,96.9629021 176.068264,97.0057267 175.715621,97.1126316 C175.393354,97.2055964 175.105737,97.3917018 174.888884,97.6475789 C174.670606,97.925697 174.547816,98.2667809 174.538737,98.6202105 C174.495912,99.1171842 174.645635,99.611619 174.956968,100.001347 C175.27832,100.424871 175.777322,100.676167 176.308926,100.682189 L176.308926,100.682189 Z" id="Path"></path>
                        <polygon id="Path" points="172.564295 106.459621 172.778274 104.971495 178.915579 105.846863 179.139284 104.2712 180.588505 104.475453 180.3648 106.051116 182.310063 106.323453 182.096084 107.811579 180.150821 107.539242 179.897937 109.299705 178.458442 109.095453 178.711326 107.334989"></polygon>
                        <path d="M171.6792,111.332505 L171.980716,109.863832 L179.489432,111.381137 L179.187916,112.859537 L171.6792,111.332505 Z M180.977558,112.431579 C181.008015,112.153332 181.156871,111.901696 181.386063,111.741011 C181.603099,111.613566 181.861089,111.575216 182.105811,111.634021 C182.339973,111.685877 182.54934,111.816302 182.699116,112.003621 C182.861062,112.239578 182.910872,112.534882 182.835284,112.810905 C182.767419,113.190827 182.481344,113.494684 182.1062,113.585308 C181.731056,113.675933 181.337817,113.53618 181.104,113.229137 C180.948269,112.994168 180.902139,112.703193 180.977558,112.431579 Z" id="Shape"></path>
                        <path d="M172.924168,121.671579 C172.224742,121.483807 171.58727,121.114744 171.076168,120.601684 C170.60547,120.120074 170.269996,119.522931 170.103537,118.8704 C169.923952,118.2014 169.923952,117.496874 170.103537,116.827874 C170.290803,116.157434 170.649485,115.54734 171.144253,115.057684 C171.626586,114.582838 172.228033,114.246834 172.885263,114.085053 C173.588801,113.918878 174.323836,113.942372 175.015326,114.153137 C175.7129,114.338564 176.347808,114.708087 176.8536,115.223032 C177.333666,115.70143 177.670537,116.30443 177.826232,116.964042 C178.005816,117.633042 178.005816,118.337569 177.826232,119.006568 C177.647504,119.677796 177.287445,120.286868 176.785516,120.767032 C176.304659,121.243843 175.702634,121.580169 175.044505,121.739663 C174.344203,121.905485 173.61239,121.881986 172.924168,121.671579 L172.924168,121.671579 Z M173.3424,120.193179 C173.789958,120.345672 174.270117,120.375892 174.733263,120.280716 C175.151705,120.201506 175.539359,120.005994 175.851789,119.716589 C176.167752,119.430355 176.394085,119.058764 176.503453,118.646695 C176.625043,118.23399 176.625043,117.794978 176.503453,117.382274 C176.394012,116.969716 176.17171,116.595844 175.861516,116.302653 C175.516412,115.975569 175.089812,115.747153 174.626274,115.641263 C174.18558,115.48803 173.711463,115.457767 173.254863,115.553726 C172.832082,115.634476 172.440866,115.833457 172.126611,116.127579 C171.807635,116.416961 171.578137,116.791583 171.465221,117.2072 C171.343884,117.616631 171.343884,118.052464 171.465221,118.461895 C171.57998,118.871642 171.805459,119.24183 172.116884,119.531789 C172.463371,119.845643 172.885814,120.06357 173.3424,120.164 L173.3424,120.193179 Z" id="Shape"></path>
                        <path d="M174.441474,128.674526 C174.269483,129.209361 173.928073,129.673677 173.468842,129.997305 C173.063075,130.242974 172.589226,130.352061 172.116884,130.308547 C171.580809,130.262147 171.055517,130.130824 170.560674,129.919495 L166.232463,128.168758 L166.796589,126.777895 L171.027537,128.489726 C171.337556,128.617887 171.665751,128.696654 172.000168,128.723158 C172.289289,128.746099 172.578348,128.678085 172.826905,128.528632 C173.097927,128.317682 173.292604,128.023959 173.381305,127.692168 C173.521439,127.360889 173.574992,126.999405 173.536926,126.641726 C173.506632,126.315136 173.389051,126.002707 173.196505,125.737179 C173.018748,125.468705 172.759703,125.264196 172.457305,125.1536 L168.158274,123.402863 L168.7224,122.012 L175.822611,124.929895 L175.258484,126.320758 L174.139958,125.873347 C174.400562,126.265294 174.570059,126.710639 174.636,127.176674 C174.710036,127.684347 174.64273,128.202605 174.441474,128.674526 Z" id="Path"></path>
                        <path d="M158.694568,146.502863 C158.082827,146.438609 157.464628,146.478068 156.866021,146.619579 C156.296093,146.784871 155.792532,147.125114 155.426526,147.592211 C155.223608,147.843515 155.062667,148.125983 154.949937,148.428674 C154.844437,148.707657 154.804502,149.007163 154.833221,149.304042 C154.867677,149.571235 155.003476,149.814976 155.212547,149.984884 C155.560142,150.293671 156.04752,150.390402 156.486695,150.237768 C157.074896,150.016881 157.616086,149.686887 158.081811,149.265137 C158.717517,148.711597 159.484269,148.329895 160.309137,148.156337 C161.094898,148.044002 161.88917,148.294448 162.468379,148.837179 C162.895078,149.176896 163.196277,149.64923 163.324295,150.179411 C163.440685,150.717229 163.420623,151.275626 163.265937,151.803705 C163.099106,152.378197 162.814211,152.911547 162.429474,153.369642 C161.981948,153.939877 161.400644,154.390889 160.737095,154.682695 C160.137002,154.929089 159.479257,154.999923 158.840463,154.886947 L158.704295,153.340463 C159.187855,153.419652 159.683003,153.389744 160.153516,153.252926 C160.631014,153.107565 161.054316,152.823106 161.369305,152.435916 C161.685028,152.076234 161.882037,151.627868 161.933432,151.152042 C161.988819,150.74287 161.822036,150.335179 161.495747,150.082147 C161.173511,149.777296 160.707237,149.679528 160.289684,149.829263 C159.786488,150.032044 159.317404,150.31087 158.898821,150.656 C158.450949,151.01819 157.961111,151.325156 157.439874,151.570274 C156.96337,151.803156 156.442932,151.932437 155.912842,151.9496 C155.402122,151.951708 154.90796,151.768558 154.521979,151.434105 C153.81501,150.899792 153.389166,150.073154 153.364547,149.187326 C153.388917,148.203147 153.77299,147.261993 154.444168,146.541768 C154.908037,145.959937 155.500703,145.493795 156.175453,145.180084 C156.880692,144.868524 157.656353,144.751 158.422232,144.839663 L158.694568,146.502863 Z" id="Path"></path>
                        <path d="M148.404126,158.699663 C147.897465,158.187481 147.529306,157.554918 147.334232,156.861389 C146.982457,155.512645 147.396717,154.079528 148.413853,153.126484 C148.909003,152.638058 149.522221,152.286212 150.193768,152.105221 C150.846251,151.925506 151.53518,151.925506 152.187663,152.105221 C153.58562,152.531083 154.679696,153.625159 155.105558,155.023116 C155.283133,155.659379 155.283133,156.332115 155.105558,156.968379 C154.917881,157.637478 154.551351,158.242756 154.045389,158.719116 C153.556877,159.211201 152.945728,159.563787 152.2752,159.740379 C151.637686,159.908575 150.967451,159.908575 150.329937,159.740379 C149.606313,159.572385 148.941162,159.212934 148.404126,158.699663 L148.404126,158.699663 Z M149.5032,157.629768 C149.822188,157.979102 150.223384,158.243223 150.670358,158.398147 C151.075124,158.533367 151.509482,158.55357 151.925053,158.456505 C152.341909,158.360099 152.722957,158.147656 153.024126,157.843747 C153.33432,157.550556 153.556623,157.176684 153.666063,156.764126 C153.782386,156.350679 153.782386,155.913153 153.666063,155.499705 C153.524694,155.047691 153.270259,154.639256 152.926863,154.313095 C152.611386,153.968652 152.212899,153.710807 151.769432,153.564168 C150.942424,153.275848 150.023345,153.487652 149.405937,154.108842 C149.093003,154.402159 148.873159,154.780966 148.773726,155.198189 C148.657203,155.608305 148.657203,156.042769 148.773726,156.452884 C148.908905,156.911043 149.160186,157.326495 149.5032,157.658947 L149.5032,157.629768 Z" id="Shape"></path>
                        <polygon id="Path" points="144.445516 156.948926 151.380379 165.226021 150.222947 166.198653 143.297811 157.921558"></polygon>
                        <path d="M139.290568,164.759158 L141.984758,168.503789 L140.768968,169.379158 L136.294863,163.164042 L137.510653,162.278947 L138.2304,163.251579 C138.205998,162.788198 138.289224,162.32546 138.473558,161.899621 C138.66915,161.398506 139.007291,160.965685 139.446189,160.654653 C140.027054,160.202102 140.778972,160.03105 141.498442,160.187789 C142.306038,160.380193 143.005087,160.883508 143.443705,161.588379 L146.205979,165.420547 L144.990189,166.295916 L142.471074,162.794442 C142.259883,162.493726 141.996317,162.233455 141.692968,162.026063 C141.119573,161.584937 140.321101,161.584937 139.747705,162.026063 C139.340017,162.311378 139.052429,162.737561 138.940421,163.2224 C138.808501,163.761209 138.938254,164.33068 139.290568,164.759158 Z" id="Path"></path>
                        <polygon id="Path" points="132.433516 165.44 133.727116 164.671621 136.897895 170.001642 138.269305 169.184632 139.008505 170.439326 137.646821 171.256337 138.619453 172.929263 137.325853 173.697642 136.353221 172.024716 134.826189 172.929263 134.077263 171.674568 135.614021 170.770021"></polygon>
                        <path d="M128.095579,167.8424 L129.428084,167.151832 L132.958737,173.960253 L131.626232,174.650821 L128.095579,167.8424 Z M133.075453,175.759621 C133.309367,175.610053 133.596052,175.567581 133.863284,175.642905 C134.099737,175.735529 134.293687,175.912162 134.407958,176.138947 C134.520507,176.35445 134.548267,176.60429 134.485768,176.839242 C134.403064,177.108163 134.207963,177.328096 133.950821,177.442274 C133.714359,177.594693 133.423484,177.63726 133.153263,177.558989 C132.919086,177.471638 132.727524,177.297491 132.618316,177.072674 C132.507662,176.856809 132.476666,176.60884 132.530779,176.372379 C132.613179,176.097848 132.812475,175.873639 133.075453,175.759621 L133.075453,175.759621 Z" id="Shape"></path>
                        <path d="M120.839747,175.283032 C120.546654,174.620648 120.435844,173.891989 120.518779,173.172421 C120.594718,172.50417 120.850154,171.868942 121.257979,171.334147 C121.67986,170.785211 122.24058,170.358796 122.882274,170.098905 C123.516017,169.81408 124.216091,169.709742 124.905347,169.797389 C125.57808,169.873985 126.217094,170.132953 126.753347,170.546316 C127.318505,170.989555 127.757782,171.573023 128.027495,172.238695 C128.32811,172.898918 128.442466,173.628776 128.358189,174.349305 C128.274332,175.017205 128.016024,175.651233 127.609263,176.187579 C127.183959,176.739455 126.620209,177.168979 125.975242,177.432547 C125.342784,177.709971 124.647877,177.814039 123.961895,177.734063 C123.292083,177.651014 122.657046,177.388935 122.123621,176.975411 C121.550519,176.537742 121.106818,175.952863 120.839747,175.283032 Z M122.250063,174.68 C122.417808,175.124662 122.695556,175.519534 123.057347,175.827705 C123.387329,176.098442 123.783483,176.276375 124.205053,176.3432 C125.071496,176.445608 125.926053,176.074061 126.442105,175.370568 C126.696406,175.027584 126.848178,174.619487 126.879789,174.193684 C126.914293,173.721413 126.823714,173.248389 126.617179,172.822274 C126.457226,172.381518 126.181768,171.991846 125.819621,171.694021 C125.48926,171.417892 125.088433,171.239373 124.662189,171.178526 C124.239937,171.112524 123.807607,171.169943 123.417221,171.343874 C123.023024,171.501054 122.684467,171.771899 122.444589,172.121979 C122.20009,172.472239 122.055514,172.88243 122.026358,173.308589 C121.980187,173.777409 122.057302,174.250156 122.250063,174.68 Z" id="Shape"></path>
                        <path d="M116.317011,180.875663 C115.787387,181.077013 115.206038,181.097531 114.663537,180.934021 C114.215193,180.778069 113.831789,180.476823 113.574189,180.078105 C113.274679,179.629069 113.045113,179.137142 112.893347,178.619158 L111.541389,174.193684 L112.980884,173.756 L114.303663,178.132842 C114.398742,178.454651 114.543107,178.759786 114.731621,179.037389 C114.893889,179.277091 115.129299,179.457913 115.402737,179.552884 C115.727735,179.631687 116.069663,179.600913 116.375368,179.465347 C116.742891,179.375141 117.079046,179.186894 117.348,178.920674 C117.582862,178.693264 117.75391,178.408184 117.844042,178.093937 C117.942159,177.77715 117.942159,177.438092 117.844042,177.121305 L116.501811,172.676379 L117.941305,172.238695 L120.158905,179.572337 L118.661053,180.029474 L118.310905,178.872042 C118.164515,179.318671 117.925931,179.729565 117.610611,180.078105 C117.263137,180.460492 116.814724,180.736958 116.317011,180.875663 Z" id="Path"></path>
                        <path d="M92.5361684,179.825221 C92.2070417,179.308519 91.7926598,178.851383 91.3106526,178.473263 C90.8240443,178.1248 90.2358849,177.946984 89.6377263,177.967495 C89.3071953,177.953968 88.9771104,178.003481 88.6650947,178.113389 C88.3810456,178.200504 88.123492,178.357712 87.9161684,178.570526 C87.7160196,178.756138 87.6030792,179.017312 87.6049263,179.290274 C87.583826,179.753693 87.8143604,180.192452 88.2079579,180.437979 C88.7390901,180.763804 89.3261537,180.988076 89.9392421,181.099368 C90.7725509,181.248378 91.5532042,181.610226 92.2054737,182.149811 C92.7834893,182.688588 93.0812525,183.46349 93.0127579,184.250695 C93.0197875,184.79761 92.8376878,185.330166 92.4972632,185.758274 C92.1560423,186.191589 91.7064428,186.527112 91.1939368,186.730905 C90.6421526,186.957522 90.0492461,187.066829 89.4529263,187.051874 C88.7286714,187.062094 88.0132928,186.891607 87.3714947,186.555832 C86.801272,186.243146 86.3322224,185.774096 86.0195368,185.203874 L87.1477895,184.124253 C87.3891253,184.553635 87.7210155,184.925352 88.1204211,185.2136 C88.5343456,185.492344 89.0219799,185.641343 89.5210105,185.641558 C89.9969638,185.666807 90.4691093,185.544525 90.8729684,185.291411 C91.2232166,185.052177 91.432705,184.655396 91.432705,184.231242 C91.432705,183.807088 91.2232166,183.410307 90.8729684,183.171074 C90.400343,182.9037 89.8881646,182.713275 89.3556632,182.606947 C88.7926506,182.483336 88.2470807,182.29059 87.7313684,182.033095 C87.2467873,181.809457 86.8206439,181.476533 86.4864,181.060463 C86.1640655,180.666772 85.997884,180.168227 86.0195368,179.659874 C85.9811667,178.784428 86.3382724,177.938087 86.9921684,177.354737 C87.7751322,176.7549 88.7514173,176.464092 89.7349895,176.537726 C90.4800325,176.536236 91.2154568,176.705949 91.8845053,177.033768 C92.567817,177.39406 93.144658,177.927303 93.5574316,178.580253 L92.5361684,179.825221 Z" id="Path"></path>
                        <path d="M76.5850105,179.475074 C76.6511546,178.753653 76.9135202,178.064102 77.3436632,177.481179 C77.7430957,176.938149 78.280358,176.511697 78.8998737,176.245937 C80.1927394,175.727907 81.6608036,175.907745 82.7904,176.722526 C83.335442,177.119867 83.7623757,177.657737 84.0256421,178.278737 C84.5622229,179.641873 84.3795965,181.18324 83.5393263,182.383242 C83.1335497,182.924064 82.5938354,183.349802 81.9733895,183.618484 C81.3299741,183.880653 80.6303234,183.974386 79.9405895,183.890821 C79.2361178,183.822764 78.5635558,183.563828 77.9953263,183.141895 C77.475086,182.738153 77.0748977,182.200084 76.8378947,181.585684 C76.5656026,180.91762 76.4782492,180.188555 76.5850105,179.475074 L76.5850105,179.475074 Z M78.1023158,179.650147 C78.0311499,180.117873 78.0779563,180.595968 78.2384842,181.041011 C78.5479572,181.868989 79.3036402,182.447086 80.1837474,182.529137 C81.0438356,182.644389 81.8961445,182.268922 82.3916211,181.556505 C82.6554224,181.162329 82.8128915,180.706674 82.8487579,180.233726 C82.9248594,179.772572 82.8778878,179.299501 82.7125895,178.862316 C82.5629425,178.456088 82.3037209,178.099237 81.9636632,177.831326 C81.6261961,177.56754 81.2221581,177.402558 80.7965053,177.354737 C80.3714709,177.300584 79.9397927,177.368033 79.5515368,177.549263 C79.1577632,177.72602 78.8209778,178.00892 78.5789053,178.366274 C78.3128913,178.746448 78.1488029,179.188482 78.1023158,179.650147 L78.1023158,179.650147 Z" id="Shape"></path>
                        <polygon id="Path" points="75.4859368 175.292758 73.4045053 185.865263 71.9261053 185.573474 74.0172632 174.981516"></polygon>
                        <path d="M66.1389474,176.138947 L64.9037053,180.583874 L63.4544842,180.185095 L65.4970105,172.802821 L66.9462316,173.2016 L66.6155368,174.378484 C66.9659126,174.074709 67.3770946,173.849222 67.8216,173.717095 C68.3452625,173.561701 68.9027796,173.561701 69.4264421,173.717095 C70.144399,173.883187 70.7507269,174.361116 71.0799158,175.020421 C71.4269884,175.765963 71.4688743,176.617642 71.1966316,177.393642 L69.9419368,181.974737 L68.4927158,181.575958 L69.6404211,177.413095 C69.744882,177.060025 69.7844275,176.690934 69.7571368,176.323747 C69.7337843,175.988025 69.6119937,175.666633 69.4069895,175.399747 C69.1697601,175.119515 68.8495822,174.921959 68.4927158,174.835621 C68.014773,174.697019 67.5025915,174.738547 67.0532211,174.952337 C66.5842628,175.188732 66.2479569,175.625214 66.1389474,176.138947 Z" id="Path"></path>
                        <polygon id="Path" points="61.2757895 171.275789 62.6861053 171.801011 60.5268632 177.6368 62.0149895 178.1912 61.5092211 179.562611 60.0113684 179.008211 59.3305263 180.836758 57.9299368 180.311537 58.6107789 178.482989 56.9378526 177.860505 57.4533474 176.489095 59.1165474 177.111579"></polygon>
                        <path d="M53.6600842,178.230105 C53.9235221,178.32371 54.1376509,178.520287 54.2533895,178.774779 C54.3326597,179.015009 54.3152156,179.276671 54.2047579,179.504253 C54.1068715,179.725548 53.9300108,179.902408 53.7087158,180.000295 C53.4495817,180.120221 53.1508393,180.120221 52.8917053,180.000295 C52.628203,179.910605 52.4157537,179.712319 52.3081263,179.455621 C52.213489,179.221671 52.213489,178.960097 52.3081263,178.726147 C52.4060127,178.504852 52.5828734,178.327992 52.8041684,178.230105 C53.0718562,178.088312 53.3923964,178.088312 53.6600842,178.230105 L53.6600842,178.230105 Z M56.7141474,169.388884 L58.0952842,169.991916 L55.0023158,177.004589 L53.6211789,176.391832 L56.7141474,169.388884 Z" id="Shape"></path>
                        <path d="M46.3945263,168.406526 C46.7218816,167.759993 47.2196273,167.215164 47.8340211,166.830863 C48.4177252,166.465202 49.0905722,166.266712 49.7792842,166.257011 C50.4590586,166.246367 51.1297552,166.414041 51.7245474,166.743326 C52.3424421,167.063744 52.8630632,167.544059 53.2321263,168.134189 C53.5973301,168.718099 53.7957815,169.390816 53.8059789,170.079453 C53.8180057,170.801328 53.6366611,171.513274 53.2807579,172.141432 C52.9478774,172.784129 52.4513393,173.327637 51.8412632,173.717095 C51.2573533,174.082299 50.5846368,174.28075 49.896,174.290947 C49.2157281,174.295493 48.5457639,174.124653 47.9507368,173.794905 C47.3354113,173.478923 46.8176393,173.001496 46.4528842,172.413768 C46.0906434,171.829068 45.8955375,171.156289 45.8887579,170.468505 C45.8629194,169.747581 46.0380297,169.03367 46.3945263,168.406526 L46.3945263,168.406526 Z M47.7464842,169.126274 C47.5073047,169.533869 47.3766989,169.996012 47.3671579,170.468505 C47.3483472,171.349075 47.8414418,172.160784 48.6315789,172.549937 C49.3941185,172.980077 50.3357891,172.934695 51.0534316,172.433221 C51.4442797,172.167026 51.7566334,171.800934 51.9579789,171.373053 C52.2001865,170.973872 52.3311588,170.517148 52.3373053,170.050274 C52.3418907,169.620409 52.2310472,169.197188 52.0163368,168.824758 C51.5700955,168.074906 50.7483538,167.630419 49.8765474,167.667326 C49.4504878,167.696965 49.0404209,167.841496 48.6899368,168.085558 C48.2895604,168.343644 47.9641743,168.702575 47.7464842,169.126274 L47.7464842,169.126274 Z" id="Shape"></path>
                        <path d="M39.1873263,168.357895 C38.7010889,168.064879 38.3198354,167.625756 38.0979789,167.1032 C37.952192,166.65104 37.952192,166.164497 38.0979789,165.712337 C38.2607724,165.199472 38.5001498,164.714159 38.808,164.272842 L41.4438316,160.382316 L42.6790737,161.228505 L40.1016,165.002316 C39.9112312,165.276703 39.7636527,165.578419 39.6639158,165.897137 C39.5712634,166.171591 39.5712634,166.468872 39.6639158,166.743326 C39.8002416,167.058361 40.0453579,167.313834 40.3544842,167.463074 C40.639925,167.672431 40.9753024,167.803229 41.3271158,167.8424 C41.6576364,167.880948 41.99252,167.834064 42.2997474,167.706232 C42.5963834,167.585216 42.8503118,167.378688 43.0292211,167.112926 L45.7136842,163.348842 L46.9489263,164.195032 L42.6304421,170.517137 L41.3854737,169.670947 L42.0760421,168.698316 C41.6378375,168.873422 41.1655527,168.946593 40.6949053,168.912295 C40.1479462,168.883867 39.6223902,168.690598 39.1873263,168.357895 Z" id="Path"></path>
                        <path d="M25.0938947,149.226232 C25.2838811,148.64236 25.375904,148.031065 25.3662316,147.417137 C25.3232559,146.820476 25.0877475,146.25389 24.6951158,145.802568 C24.497579,145.546224 24.2574002,145.325786 23.9850947,145.150905 C23.7353096,144.991999 23.45255,144.892202 23.1583579,144.859116 C22.8856912,144.828755 22.6122758,144.909378 22.3997053,145.082821 C22.0334817,145.361355 21.8412549,145.812348 21.8939368,146.269432 C21.9737275,146.888256 22.1718562,147.485944 22.4775158,148.029895 C22.8838313,148.768643 23.0947483,149.598919 23.0902737,150.442021 C23.0312666,151.226374 22.6199448,151.941716 21.9717474,152.387284 C21.5487457,152.734799 21.0212167,152.930053 20.4738947,152.94177 C19.9232115,152.945709 19.3807015,152.808407 18.8982316,152.542905 C18.3610214,152.267902 17.8872597,151.883592 17.5073684,151.414653 C17.0428584,150.852864 16.7253319,150.184387 16.5833684,149.469389 C16.4667772,148.831534 16.5342508,148.173666 16.7778947,147.572758 L18.3243789,147.757558 C18.1516502,148.21691 18.0754961,148.706945 18.1006737,149.197053 C18.1403288,149.692654 18.3303582,150.164335 18.6453474,150.549011 C18.928857,150.934848 19.3220222,151.226333 19.7736,151.385474 C20.1672253,151.520297 20.6027098,151.439105 20.9213053,151.171495 C21.2863218,150.923668 21.4786979,150.489879 21.4173474,150.052968 C21.3311717,149.517172 21.1604563,148.99846 20.9115789,148.516211 C20.643986,148.002897 20.4445331,147.456854 20.3182737,146.891916 C20.2073235,146.375833 20.2073235,145.842062 20.3182737,145.325979 C20.4159695,144.827076 20.6970578,144.382887 21.1061053,144.081011 C21.7770648,143.500977 22.675416,143.257599 23.5474105,143.419621 C24.5023376,143.647738 25.3421041,144.214494 25.9109053,145.014737 C26.3752963,145.583048 26.7075225,146.247501 26.8835368,146.96 C27.034573,147.717743 26.9876738,148.501629 26.7473684,149.235958 L25.0938947,149.226232 Z" id="Path"></path>
                        <path d="M15.3481263,136.601474 C15.9535836,136.209019 16.6508393,135.98107 17.3712,135.940084 C18.7606009,135.900269 20.0656986,136.604725 20.7948632,137.788084 C21.1718952,138.369497 21.3867955,139.041061 21.4173474,139.733347 C21.4464712,140.410261 21.29187,141.08244 20.9699368,141.678611 C20.6151411,142.320669 20.0901188,142.852423 19.4526316,143.215368 C18.8477633,143.609055 18.150171,143.837114 17.4295579,143.876758 C16.7529108,143.903011 16.0814796,143.748582 15.4842947,143.429347 C14.8732795,143.097711 14.36011,142.611374 13.9961684,142.019032 C13.6190617,141.438284 13.4072299,140.765802 13.3834105,140.073768 C13.3497969,139.39645 13.5046724,138.723078 13.8308211,138.128505 C14.1886368,137.491229 14.7131496,136.963354 15.3481263,136.601474 L15.3481263,136.601474 Z M16.1651368,137.9048 C15.7638379,138.141473 15.4291782,138.476133 15.1925053,138.877432 C14.8690156,139.435757 14.7899921,140.102743 14.9740577,140.721204 C15.1581232,141.339664 15.5889969,141.854895 16.1651368,142.145474 C16.5465138,142.339085 16.9740747,142.423251 17.4003789,142.388632 C18.3413903,142.273684 19.1825369,141.746186 19.6957895,140.949137 C19.9130181,140.577298 20.0271707,140.154262 20.0264873,139.723621 C20.019378,139.294807 19.8912566,138.876726 19.6568842,138.517558 C19.4370577,138.152187 19.1161338,137.858289 18.7328842,137.671368 C18.349154,137.4853 17.92281,137.404731 17.4976421,137.437937 C17.0190828,137.468505 16.5581287,137.630008 16.1651368,137.9048 L16.1651368,137.9048 Z" id="Shape"></path>
                        <polygon id="Path" points="17.9061474 133.119453 8.34517895 138.138232 7.65461053 136.815453 17.2058526 131.786947"></polygon>
                        <path d="M11.3506105,126.398568 L7.11966316,128.236842 L6.52635789,126.855705 L13.5487579,123.811368 L14.1517895,125.182779 L13.0235368,125.669095 C13.4805909,125.752179 13.9148473,125.931186 14.2976842,126.194316 C14.7330488,126.517263 15.0698471,126.955101 15.2703158,127.458737 C15.5762648,128.125615 15.5762648,128.892743 15.2703158,129.559621 C14.8985398,130.29392 14.2626455,130.860318 13.4904,131.145011 L9.15246316,133.022189 L8.55915789,131.650779 L12.5177684,129.929221 C12.8563738,129.784945 13.1661113,129.58065 13.4320421,129.326189 C13.6826809,129.103653 13.8563425,128.807407 13.9280842,128.48 C14.0035927,128.122318 13.9591547,127.749722 13.8016421,127.419832 C13.6186443,126.961355 13.2720769,126.587062 12.8290105,126.369389 C12.3558149,126.161651 11.8152406,126.17232 11.3506105,126.398568 L11.3506105,126.398568 Z" id="Path"></path>
                        <polygon id="Path" points="12.1092632 119.531789 12.5858526 120.961558 6.75006316 122.906821 7.25583158 124.4144 5.83578947 124.890989 5.33002105 123.383411 3.47229474 124.005895 2.99570526 122.576126 4.86315789 121.963368 4.29903158 120.270989 5.68016842 119.813853 6.24429474 121.496505"></polygon>
                        <path d="M1.94526316,117.965853 C2.04105569,118.227777 2.01980375,118.51822 1.88690526,118.763411 C1.75620243,118.979542 1.54108641,119.131181 1.2936,119.181642 C1.05985123,119.247132 0.810061541,119.222847 0.593305263,119.113558 C0.341943833,118.982041 0.165873592,118.741292 0.116715789,118.461895 C0.0209232619,118.199971 0.0421751979,117.909527 0.175073684,117.664337 C0.302995388,117.445632 0.519403289,117.293082 0.768378947,117.246105 C1.01993547,117.184695 1.28559561,117.226129 1.50650261,117.361229 C1.72740961,117.49633 1.88532514,117.713941 1.94526316,117.965853 L1.94526316,117.965853 Z M10.6989474,114.795074 L11.088,116.244295 L3.696,118.189558 L3.3264,116.808421 L10.6989474,114.795074 Z" id="Shape"></path>
                        <path d="M5.01877895,106.109474 C5.72483167,105.961786 6.4577542,106.008854 7.13911579,106.245642 C7.77057239,106.476341 8.32827689,106.872782 8.75368421,107.393347 C9.64570477,108.480323 9.92081611,109.947583 9.48315789,111.283874 C9.26299146,111.913788 8.88450916,112.476487 8.38408421,112.917895 C7.82569433,113.38032 7.15429595,113.685806 6.43882105,113.802989 C5.73335934,113.94995 5.00148097,113.906306 4.31848421,113.676547 C3.00017425,113.213179 2.03858877,112.068967 1.80909474,110.690568 C1.67661702,110.019157 1.72358649,109.32468 1.94526316,108.677221 C2.1795517,108.055672 2.57176447,107.505904 3.08324211,107.082105 C3.62914016,106.589626 4.29782981,106.253601 5.01877895,106.109474 Z M5.30084211,107.617053 C4.82969959,107.683341 4.38390291,107.871044 4.00724211,108.161726 C3.67715926,108.412864 3.42163174,108.749085 3.26804211,109.134358 C3.11537565,109.530882 3.07827759,109.962569 3.16105263,110.379326 C3.23753425,110.80055 3.42563117,111.193538 3.70572632,111.517305 C3.99269728,111.838633 4.36299484,112.074277 4.77562105,112.198147 C5.23170808,112.316349 5.71039718,112.316349 6.16648421,112.198147 C6.63192265,112.132564 7.07161085,111.944606 7.44063158,111.653474 C7.77291432,111.402226 8.03157569,111.066302 8.18955789,110.680842 C8.47192872,109.89124 8.31663387,109.011236 7.78105263,108.365979 C7.49497221,108.052501 7.12822005,107.823702 6.72088421,107.704589 C6.26082745,107.559191 5.76976809,107.542374 5.30084211,107.655958 L5.30084211,107.617053 Z" id="Shape"></path>
                        <path d="M0.505768421,100.526568 C0.42451864,99.9646843 0.526858089,99.3915834 0.797557895,98.8925474 C1.05181174,98.4942164 1.42666209,98.1875206 1.86745263,98.0171789 C2.36987738,97.814714 2.9022282,97.6964138 3.44311579,97.6670316 L8.09229474,97.2974316 L8.20901053,98.7952842 L3.65709474,99.1551579 C3.3224429,99.1733156 2.99342062,99.2489907 2.68446316,99.3788632 C2.41542489,99.4874678 2.18742003,99.678039 2.0328,99.9235368 C1.88341861,100.224591 1.83891488,100.566927 1.90635789,100.896168 C1.93929405,101.241718 2.05253752,101.574787 2.23705263,101.8688 C2.4159604,102.144109 2.65978401,102.371232 2.94707368,102.530189 C3.24457948,102.690718 3.58334295,102.75847 3.91970526,102.724716 L8.54943158,102.355116 L8.66614737,103.852968 L0.972631579,104.514358 L0.855915789,103.016505 L2.06197895,102.919242 C1.64808543,102.678639 1.29527484,102.345799 1.03098947,101.946611 C0.724736503,101.532679 0.542571501,101.040159 0.505768421,100.526568 L0.505768421,100.526568 Z" id="Path"></path>
                        <path d="M6.55553684,77.5043789 C7.1300184,77.2874742 7.66545364,76.9786956 8.14092632,76.5901053 C8.57037976,76.1754752 8.86232927,75.6391029 8.97738947,75.0533474 C9.03180511,74.7314201 9.03180511,74.402643 8.97738947,74.0807158 C8.97122093,73.794115 8.89437814,73.5134717 8.75368421,73.2637053 C8.60959221,73.0290438 8.37278315,72.8664585 8.10202105,72.8162947 C7.63926001,72.6831455 7.14084164,72.8180558 6.80842105,73.1664421 C6.38838651,73.6187519 6.05829997,74.1468903 5.83578947,74.7226526 C5.50812003,75.4867668 4.99293192,76.1558423 4.33793684,76.6679158 C3.69021974,77.1237128 2.8689109,77.2564133 2.11061053,77.0277895 C1.57427757,76.9182659 1.09086738,76.6302769 0.7392,76.2107789 C0.391919051,75.7828384 0.157796292,75.2744575 0.0583578947,74.7323789 C-0.0330477775,74.1698643 -0.0132208075,73.5948822 0.116715789,73.04 C0.266738556,72.3182011 0.601921944,71.6478344 1.08934737,71.0947368 C1.50787066,70.5993434 2.06244575,70.237517 2.68446316,70.0540211 L3.50147368,71.3768 C3.01970206,71.5036872 2.57369595,71.7400039 2.19814737,72.0673684 C1.83305919,72.4066044 1.58454711,72.8525644 1.48812632,73.3415158 C1.36908567,73.8039239 1.38938896,74.2912028 1.54648421,74.7421053 C1.68840221,75.1324695 2.02410213,75.4202123 2.43157895,75.5007579 C2.85602579,75.6229493 3.31321487,75.4992834 3.61818947,75.1797895 C3.98215338,74.776569 4.27783326,74.3166225 4.49355789,73.8181053 C4.73110958,73.2930936 5.02808092,72.7970536 5.37865263,72.3397053 C5.70441283,71.9347899 6.1121083,71.6033302 6.57498947,71.3670737 C7.02985571,71.140912 7.54989689,71.0823643 8.04366316,71.2017263 C8.91513843,71.3619121 9.66661237,71.9094145 10.0861895,72.6898526 C10.5065002,73.580188 10.5894444,74.5927981 10.3196211,75.5396632 C10.1464183,76.253195 9.8138933,76.918245 9.34698947,77.4849263 C8.8725778,78.0994239 8.2454988,78.5789549 7.52816842,78.8757895 L6.55553684,77.5043789 Z" id="Path"></path>
                        <path d="M10.2807158,62.0006316 C10.9669368,62.2251437 11.5811928,62.6279345 12.0606316,63.1677895 C12.5044002,63.6721827 12.8035056,64.2871971 12.9262737,64.9477053 C13.0560196,65.6270918 13.0023015,66.3287853 12.7706526,66.9805053 C12.5592586,67.6369209 12.180454,68.2269175 11.6715789,68.6923368 C11.1647344,69.1380857 10.5460386,69.4373462 9.88193684,69.5579789 C9.17139823,69.6881474 8.4389064,69.6243064 7.7616,69.3731789 C7.05676467,69.1494193 6.42737558,68.7354361 5.94277895,68.1768421 C5.49595084,67.669475 5.19362597,67.0513886 5.06741053,66.3872 C4.9421169,65.7029498 5.00257368,64.9976207 5.24248421,64.3446737 C5.45769362,63.6857004 5.84762295,63.097445 6.37073684,62.6425684 C6.88079775,62.2035626 7.49846846,61.9081548 8.16037895,61.7866526 C8.87354876,61.666261 9.6059801,61.7401761 10.2807158,62.0006316 L10.2807158,62.0006316 Z M9.77494737,63.4498526 C9.33137357,63.2829169 8.85161198,63.2359472 8.38408421,63.3136842 C7.9648261,63.3721936 7.57048107,63.5474581 7.24610526,63.8194526 C6.91533176,64.0877975 6.66883559,64.4457235 6.53608421,64.8504421 C6.39184287,65.2559838 6.36156619,65.6933137 6.44854737,66.1148632 C6.53888012,66.5248526 6.74085264,66.901868 7.03212632,67.2042105 C7.35839751,67.5500984 7.77156268,67.8020284 8.22846316,67.9336842 C8.66368395,68.1061748 9.13612726,68.163136 9.59987368,68.0990316 C10.0252718,68.0352686 10.4253414,67.8570863 10.7573053,67.5835368 C11.0883871,67.3114443 11.3347474,66.9503408 11.4673263,66.5428211 C11.6195288,66.1319478 11.6466048,65.6851946 11.5451368,65.2589474 C11.4502203,64.8428892 11.2453164,64.4599541 10.9518316,64.1501474 C10.6258594,63.8199383 10.2206615,63.5788288 9.77494737,63.4498526 L9.77494737,63.4498526 Z" id="Shape"></path>
                        <polygon id="Path" points="14.5894737 61.8061053 4.69781053 57.4778947 5.29111579 56.1064842 15.1925053 60.3957895"></polygon>
                        <path d="M15.7177263,52.5174737 L11.6715789,50.3679579 L12.3718737,49.0354526 L19.1802947,52.6050105 L18.48,53.9277895 L17.4003789,53.3636632 C17.6269658,53.7659961 17.7568318,54.2155323 17.7797053,54.6767158 C17.8222973,55.2219712 17.7003236,55.7674648 17.4295579,56.2426526 C17.1123662,56.9075554 16.5180295,57.398684 15.8052632,57.5848842 C14.9984779,57.7545228 14.15738,57.6120228 13.4514947,57.1861053 L9.26917895,54.9879579 L9.96947368,53.6651789 L13.7919158,55.6688 C14.1153952,55.8442407 14.4680028,55.9595797 14.8326316,56.0092211 C15.1641353,56.0603701 15.5033558,56.009487 15.8052632,55.8633263 C16.132067,55.6957907 16.3950871,55.4259389 16.5541895,55.0949474 C16.7899627,54.6576167 16.8590802,54.1496031 16.7487158,53.6651789 C16.6053011,53.1414166 16.2231691,52.7160244 15.7177263,52.5174737 L15.7177263,52.5174737 Z" id="Path"></path>
                        <polygon id="Path" points="21.5340632 48.7922947 20.7267789 50.0567158 15.5037474 46.7011368 14.6478316 48.0433684 13.4223158 47.2555368 14.2782316 45.9133053 12.6442105 44.8336842 13.4612211 43.5692632 15.1049684 44.6197053 16.0776 43.1218526 17.3031158 43.9096842 16.3304842 45.4075368"></polygon>
                        <path d="M16.3596632,39.8927158 C16.2154439,40.1333476 15.9743468,40.2999882 15.6982737,40.3498526 C15.4471836,40.3751985 15.1960722,40.3019577 14.9979789,40.1456 C14.8038801,40.0045239 14.6687804,39.7966783 14.6186526,39.5620211 C14.5683087,39.2821794 14.6429386,38.994321 14.8229053,38.7741895 C14.9671245,38.5335577 15.2082216,38.366917 15.4842947,38.3170526 C15.7353849,38.2917067 15.9864962,38.3649476 16.1845895,38.5213053 C16.3767277,38.6660578 16.5139237,38.8718518 16.5736421,39.1048842 C16.6213119,39.3861677 16.5430817,39.674197 16.3596632,39.8927158 Z M24.3546947,44.7558737 L23.4696,45.9716632 L17.2739368,41.4683789 L18.1590316,40.2525895 L24.3546947,44.7558737 Z" id="Shape"></path>
                        <path d="M27.5157474,34.8447579 C28.0745284,35.3053532 28.5008316,35.9062058 28.7509895,36.5857684 C29.2145247,37.8966639 28.931632,39.3557946 28.0117895,40.3984842 C27.5665658,40.9302224 26.9897631,41.3359964 26.3388632,41.5753684 C25.7148284,41.7946761 25.044564,41.8482972 24.3936,41.7309895 C22.9664842,41.4115973 21.7900678,40.4063623 21.252,39.0465263 C21.0286504,38.423355 20.9749434,37.7520173 21.0963789,37.1012632 C21.2282412,36.4186948 21.5405875,35.7839264 22.0009263,35.2629895 C22.4409362,34.7299127 23.0150236,34.3236872 23.6641263,34.0861053 C24.2889253,33.8696119 24.9592878,33.8193347 25.6093895,33.9402105 C26.3136616,34.067808 26.9714839,34.3799379 27.5157474,34.8447579 L27.5157474,34.8447579 Z M26.5431158,36.0119158 C26.1885482,35.6874667 25.7564659,35.4597024 25.2884211,35.3505263 C24.8729462,35.2524271 24.4383016,35.2726431 24.0337263,35.4088842 C23.6304245,35.5394494 23.2727569,35.7823934 23.0027368,36.1091789 C22.7163741,36.4325922 22.5275208,36.830533 22.4580632,37.2568842 C22.3916383,37.6765918 22.4386515,38.1064269 22.5942316,38.5018526 C22.9876859,39.3682784 23.7473742,40.0138352 24.6659368,40.2623158 C25.0759804,40.3793544 25.5105881,40.3793544 25.9206316,40.2623158 C26.3298057,40.127549 26.6934817,39.881731 26.9710737,39.5522947 C27.2522757,39.2304426 27.4376054,38.8361957 27.5060211,38.4143158 C27.5658129,37.9928716 27.5120922,37.5631061 27.3504,37.1693474 C27.1822169,36.7171129 26.8969067,36.3176785 26.5236632,36.0119158 L26.5431158,36.0119158 Z" id="Shape"></path>
                        <path d="M29.0427789,27.8223579 C29.4273226,27.4073297 29.9356228,27.127594 30.492,27.0248 C30.9644587,26.9689895 31.4422723,27.0679652 31.8536842,27.3068632 C32.3080017,27.5724235 32.7181817,27.9071303 33.0694737,28.2989474 L36.2888842,31.6837053 L35.1995368,32.7244211 L32.0968421,29.4077474 C31.8652385,29.1597551 31.5961031,28.9496983 31.2992842,28.7852632 C31.0468135,28.6480599 30.7576244,28.5936243 30.4725474,28.6296421 C30.1408431,28.7079643 29.843748,28.8923681 29.6263579,29.1548632 C29.3599509,29.399547 29.1592831,29.7072377 29.0427789,30.0496842 C28.9378838,30.3628579 28.914453,30.6975825 28.9746947,31.0223158 C29.0350281,31.3361168 29.1834686,31.6262504 29.4026526,31.8587789 L32.6026105,35.2240842 L31.5035368,36.2550737 L26.2610526,30.7013474 L27.3309474,29.6606316 L28.1576842,30.5457263 C28.0695562,30.0810544 28.08617,29.602577 28.2063158,29.1451368 C28.3512702,28.6325623 28.6418385,28.173059 29.0427789,27.8223579 L29.0427789,27.8223579 Z" id="Path"></path>
                    </g>
                </g>
                <g id="Group" transform="translate(192.923205, 211.533013) rotate(-300.000000) translate(-192.923205, -211.533013) translate(159.423205, 182.033013)">
                    <line x1="0.379010977" y1="29.6012794" x2="60.94" y2="29.04" id="Path-5" stroke="#FFFFFF" stroke-width="3.52"></line>
                    <g id="right-arrow" transform="translate(36.300000, 0.000000)" fill="#FFFFFF" fill-rule="nonzero">
                        <polygon id="Path" points="24.0893227 29.48 0.494382022 53.4325468 0.494382022 58.96 29.534382 29.48 0.494382022 0 0.494382022 5.5274532"></polygon>
                    </g>
                </g>
            </g>
        </g>
    </g>
</svg>