<?xml version="1.0" encoding="UTF-8"?>
<svg width="100px" height="100px" viewBox="0 0 100 100" version="1.1" xmlns="http://www.w3.org/2000/svg" xmlns:xlink="http://www.w3.org/1999/xlink">
    <!-- Generator: Sketch 63.1 (92452) - https://sketch.com -->
    <title>icon/design/informazione@1x</title>
    <desc>Created with Sketch.</desc>
    <defs>
        <rect id="path-1" x="0" y="0" width="100" height="100"></rect>
    </defs>
    <g id="icon/design/informazione" stroke="none" stroke-width="1" fill="none" fill-rule="evenodd">
        <g id="Group">
            <g id="icon/advantage/1">
                <mask id="mask-2" fill="white">
                    <use xlink:href="#path-1"></use>
                </mask>
                <g id="Mask"></g>
                <g id="Group-13" mask="url(#mask-2)">
                    <g transform="translate(15.000000, 11.000000)">
                        <g id="Group-10" transform="translate(8.000000, 44.000000)">
                            <polygon id="Stroke-2" stroke="#36F2B9" stroke-width="0.5" points="62 22.7614571 53.4169755 28 53 27.2385429 61.5830245 22"></polygon>
                            <polygon id="Stroke-5" stroke="#36F2B9" stroke-width="0.5" points="39 22.7614571 30.4169755 28 30 27.2385429 38.5830245 22"></polygon>
                            <polygon id="Stroke-7" stroke="#36F2B9" stroke-width="0.5" points="15 22.7614571 6.41697554 28 6 27.2385429 14.5830245 22"></polygon>
                            <polygon id="Stroke-24" stroke="#36F2B9" stroke-width="0.5" points="62 0.764533177 53.4169755 6 53 5.23546682 61.5830245 0"></polygon>
                            <polygon id="Stroke-27" stroke="#36F2B9" stroke-width="0.5" points="33 0.764533177 24.4169755 6 24 5.23546682 32.5830245 0"></polygon>
                            <polygon id="Stroke-30" stroke="#36F2B9" stroke-width="0.5" points="9 0.764533177 0.416975537 6 0 5.23546682 8.58302446 0"></polygon>
                            <polygon id="Fill-53" fill="#FFFFFF" points="55.5830245 28 47 33.2385429 47.4169755 34 56 28.7614571"></polygon>
                            <polygon id="Fill-54" fill="#FFFFFF" points="32.5830245 28 24 33.2385429 24.4169755 34 33 28.7614571"></polygon>
                            <polygon id="Fill-55" fill="#FFFFFF" points="8.58302446 28 0 33.2385429 0.416975537 34 9 28.7614571"></polygon>
                            <polygon id="Fill-63" fill="#FFFFFF" points="47 11.2354668 47.4169755 12 56 6.76453318 55.5830245 6"></polygon>
                            <polygon id="Fill-64" fill="#FFFFFF" points="33 6.76453318 24.4169755 12 24 11.2354668 32.5830245 6"></polygon>
                            <polygon id="Fill-65" fill="#FFFFFF" points="9 6.76453318 0.416975537 12 0 11.2354668 8.58302446 6"></polygon>
                        </g>
                        <g id="Group-9">
                            <g id="Group-8" transform="translate(8.000000, 44.000000)"></g>
                            <g id="Group-3"></g>
                        </g>
                    </g>
                </g>
            </g>
            <g id="002-block" transform="translate(27.000000, 24.000000)" fill="#7878F9" fill-rule="nonzero">
                <path d="M45.8729472,24.5757952 C45.8729472,24.5600256 45.8749952,24.5446656 45.8749952,24.528896 C45.857792,23.9433728 45.5294976,23.4113024 45.0138112,23.1335936 L39.3216,20.068352 L39.3216,9.8304 C39.3216,9.235456 38.99904,8.6872064 38.478848,8.3982336 L23.733248,0.2062336 C23.2384512,-0.068608 22.6367488,-0.068608 22.141952,0.2062336 L7.396352,8.3982336 C6.8763648,8.6872064 6.5536,9.235456 6.5536,9.8304 L6.5536,20.0685568 L0.8615936,23.1333888 C0.3457024,23.4110976 0.0176128,23.943168 0.0006144,24.5286912 C-1.02318154e-14,24.5446656 0.0024576,24.5600256 0.0024576,24.5757952 L-1.02318154e-14,24.5757952 L-1.02318154e-14,36.8637952 C-1.02318154e-14,37.4167552 0.2789376,37.9324416 0.7417856,38.2349312 L22.0409856,52.1613312 L22.0428288,52.158464 C22.0807168,52.1832448 22.117376,52.2092544 22.1575168,52.2309632 C22.4014336,52.3630592 22.6695168,52.4283904 22.9371904,52.4283904 C23.2501248,52.4283904 23.5624448,52.338688 23.8338048,52.1611264 L45.1332096,38.2347264 C45.5960576,37.932032 45.8749952,37.4165504 45.8749952,36.8635904 L45.8749952,24.5755904 L45.8729472,24.5755904 L45.8729472,24.5757952 Z M22.9376,3.5127296 L34.3097344,9.8304 L22.9376,16.1482752 L11.5656704,9.8304 L22.9376,3.5127296 Z M36.0448,12.6148608 L36.0448,21.1996672 L24.576,28.2083328 L24.576,18.9863936 L36.0448,12.6148608 Z M9.8304,12.6148608 L21.2992,18.9863936 L21.2992,28.208128 L9.8304,21.1994624 L9.8304,12.6148608 Z M21.2989952,47.761408 L3.2768,35.9778304 L3.2768,27.5081216 L21.2987904,38.598656 L21.2987904,47.761408 L21.2989952,47.761408 Z M22.9376,35.7595136 L4.9184768,24.6706176 L7.218176,23.4323968 C7.257088,23.4612736 7.2955904,23.4907648 7.3375744,23.5163648 L22.0831744,32.5275648 C22.3451136,32.6875136 22.6412544,32.768 22.9376,32.768 C23.2136704,32.768 23.4897408,32.698368 23.7389824,32.5586944 C23.7570048,32.5486592 23.7729792,32.5357568 23.7903872,32.5251072 L23.7920256,32.5275648 L38.5376256,23.5163648 C38.5796096,23.4907648 38.618112,23.4612736 38.657024,23.432192 L40.9567232,24.6704128 L22.9376,35.7595136 Z M42.5984,35.9776256 L24.5757952,47.761408 L24.5757952,38.5990656 L42.5984,27.5081216 L42.5984,35.9776256 Z" id="Shape"></path>
            </g>
        </g>
    </g>
</svg>