<?xml version="1.0" encoding="UTF-8"?>
<svg width="22px" height="22px" viewBox="0 0 22 22" version="1.1" xmlns="http://www.w3.org/2000/svg" xmlns:xlink="http://www.w3.org/1999/xlink">
    <!-- Generator: Sketch 64 (93537) - https://sketch.com -->
    <title>icon/instagram</title>
    <desc>Created with Sketch.</desc>
    <g id="Email-template" stroke="none" stroke-width="1" fill="none" fill-rule="evenodd">
        <g id="Group-3" transform="translate(-27.000000, 0.000000)">
            <g id="icon/instagram" transform="translate(27.000000, 0.000000)">
                <circle id="Oval" fill="#111111" cx="11" cy="11" r="11"></circle>
                <path d="M14.136,4 L7.86322222,4 C5.73081533,4.00214287 4.00257222,5.73003803 4,7.86244444 L4,14.136 C4.00171494,16.2690139 5.73020872,17.9978557 7.86322222,18 L14.136,18 C16.2691397,17.9978564 17.9978564,16.2691397 18,14.136 L18,7.86244444 C17.9969993,5.72991224 16.2685332,4.002142 14.136,4 L14.136,4 Z M16.7578889,14.1367778 C16.7561755,15.5837932 15.5837926,16.756524 14.1367778,16.7586667 L7.86322222,16.7586667 C6.41620742,16.756524 5.24382451,15.5837932 5.24211111,14.1367778 L5.24211111,7.86322222 C5.24382544,6.41633322 6.41633322,5.24382544 7.86322222,5.24211111 L14.136,5.24211111 C15.5831927,5.24339687 16.7561738,6.41602993 16.7578889,7.86322222 L16.7578889,14.1367778 L16.7578889,14.1367778 L16.7578889,14.1367778 Z M11.0023333,7.39266667 C9.54309123,7.39172278 8.22701065,8.27002264 7.66792873,9.61791574 C7.1088468,10.9658088 7.41689872,12.5177698 8.44840505,13.5499437 C9.47991137,14.5821177 11.0316727,14.8911738 12.3799272,14.3329641 C13.7281818,13.7747544 14.607333,12.4592424 14.6073333,11 C14.6056186,9.00830956 12.99169,7.39403298 11,7.39188889 L11.0023333,7.39266667 Z M11.0023333,13.3652222 C10.0456195,13.3652222 9.18312446,12.7888701 8.81707862,11.9049516 C8.45103278,11.0210332 8.65353375,10.0036479 9.33014384,9.32726032 C10.0067539,8.65087272 11.0242057,8.44870637 11.9080038,8.81504291 C12.7918018,9.18137945 13.3678702,10.044064 13.3675556,11.0007778 C13.3654103,12.3068236 12.3060476,13.3644462 11,13.3644444 L11.0023333,13.3652222 Z M14.7613333,6.34033333 C14.3276572,6.34099486 13.9548144,6.64784973 13.8707453,7.07329981 C13.7866761,7.49874989 14.0147849,7.92435308 14.4156154,8.08991353 C14.816446,8.25547397 15.2784101,8.11490089 15.5190825,7.75413474 C15.7597548,7.39336859 15.712134,6.91284394 15.4053333,6.60633333 C15.2336268,6.43546197 15.0012399,6.33954294 14.759,6.33955556 L14.7613333,6.34033333 Z" id="Instagram" fill="#FFFFFF"></path>
            </g>
        </g>
    </g>
</svg>