<?xml version="1.0" encoding="UTF-8"?>
<svg width="53px" height="53px" viewBox="0 0 53 53" version="1.1" xmlns="http://www.w3.org/2000/svg" xmlns:xlink="http://www.w3.org/1999/xlink">
    <!-- Generator: Sketch 63.1 (92452) - https://sketch.com -->
    <title>icon/ionic</title>
    <desc>Created with Sketch.</desc>
    <defs>
        <circle id="path-1" cx="26.5" cy="26.5" r="26.5"></circle>
        <rect id="path-3" x="0" y="0" width="52.6942308" height="52.6942308"></rect>
    </defs>
    <g id="icon/ionic" stroke="none" stroke-width="1" fill="none" fill-rule="evenodd">
        <g id="Group-6">
            <g id="Placeholders-/-Icon-/-80px-Copy">
                <g id="Group-12">
                    <mask id="mask-2" fill="white">
                        <use xlink:href="#path-1"></use>
                    </mask>
                    <use id="◼️-Background" fill="#FFFFFF" xlink:href="#path-1"></use>
                </g>
            </g>
            <g id="logo/ionic">
                <g stroke-width="1" fill-rule="evenodd" transform="translate(11.211538, 11.211538)" id="Ionic_Logo">
                    <g fill-rule="nonzero">
                        <path d="M15.0346731,8.27411538 C11.3009202,8.27411538 8.27411538,11.3009202 8.27411538,15.0346731 C8.27411538,18.768426 11.3009202,21.7952308 15.0346731,21.7952308 C18.768426,21.7952308 21.7952308,18.768426 21.7952308,15.0346731 C21.7907827,11.3027642 18.766582,8.27856343 15.0346731,8.27411538 Z" id="Path" fill="#D1D1D1"></path>
                        <circle id="Oval" fill="#D1D1D1" cx="24.7416231" cy="5.79389885" r="3.07958538"></circle>
                        <path d="M28.5335896,8.88962885 L28.4044327,8.60709808 L28.202625,8.841195 C27.6977517,9.41407569 27.0593382,9.85354822 26.3439762,10.1206558 L26.1421685,10.1933065 L26.2228915,10.3951142 C28.4669394,15.7917672 26.5423162,22.0212838 21.6452794,25.2116826 C16.7482425,28.4020813 10.272233,27.6455413 6.24244105,23.412293 C2.2126491,19.1790447 1.7757431,12.6736496 5.20328378,7.93956269 C8.63082446,3.20547573 14.9475126,1.58977091 20.227185,4.09669615 L20.4168842,4.18750962 L20.4996254,3.98570192 C20.8012056,3.28424177 21.2711756,2.66801267 21.8678815,2.19163154 L22.1100508,1.98982385 L21.8335742,1.84654038 C19.7331858,0.754883928 17.3997862,0.187805527 15.032655,0.193689353 C8.45004551,0.194680633 2.65528949,4.5332578 0.800793028,10.8492369 C-1.05370343,17.1652159 1.47562733,23.9479097 7.0128037,27.507464 C12.5499801,31.0670182 19.7705928,30.5520411 24.7465552,26.2426854 C29.7225176,21.9333297 31.2636544,14.8603285 28.5315715,8.87146615 L28.5335896,8.88962885 Z" id="Path" fill="#111111"></path>
                    </g>
                </g>
                <mask id="mask-4" fill="white">
                    <use xlink:href="#path-3"></use>
                </mask>
                <g id="Mask"></g>
            </g>
        </g>
    </g>
</svg>