<?xml version="1.0" encoding="UTF-8"?>
<svg width="53px" height="53px" viewBox="0 0 53 53" version="1.1" xmlns="http://www.w3.org/2000/svg" xmlns:xlink="http://www.w3.org/1999/xlink">
    <!-- Generator: Sketch 63.1 (92452) - https://sketch.com -->
    <title>icon/java</title>
    <desc>Created with Sketch.</desc>
    <defs>
        <circle id="path-1" cx="26.5" cy="26.5" r="26.5"></circle>
        <rect id="path-3" x="0" y="0" width="52.6942308" height="52.6942308"></rect>
    </defs>
    <g id="icon/java" stroke="none" stroke-width="1" fill="none" fill-rule="evenodd">
        <g id="Group-6">
            <g id="Placeholders-/-Icon-/-80px-Copy">
                <g id="Group-12">
                    <mask id="mask-2" fill="white">
                        <use xlink:href="#path-1"></use>
                    </mask>
                    <use id="◼️-Background" fill="#FFFFFF" xlink:href="#path-1"></use>
                </g>
            </g>
            <g id="logo/java">
                <g stroke-width="1" fill-rule="evenodd" transform="translate(10.192308, 3.057692)" id="Group-14">
                    <g transform="translate(0.494272, 0.254808)">
                        <g id="Java_Logo" transform="translate(0.015343, 0.407420)">
                            <path d="M9.61695119,32.6121437 C9.61695119,32.6121437 8.0462914,33.7325504 10.7360179,34.1106277 C13.9950573,34.5666395 15.6604207,34.5009693 19.2507861,33.6692216 C19.2507861,33.6692216 20.196639,34.3943808 21.5153018,35.0224284 C13.4640442,39.2499592 3.29364682,34.7774753 9.61695119,32.6121437 L9.61695119,32.6121437 Z" id="Path" fill="#000000"></path>
                            <path d="M9.96849098,27.0611406 C9.96849098,27.0611406 8.11438261,28.6919063 10.947003,29.0396907 C14.6108942,29.4890356 17.5032535,29.5258839 22.5110789,28.3809701 C22.5110789,28.3809701 23.2020973,29.214834 24.2903221,29.6705477 C14.0479698,33.2295952 2.64003838,29.9505494 9.96849098,27.0611406 L9.96849098,27.0611406 Z" id="Path" fill="#000000"></path>
                            <path d="M18.3097994,19.1533667 C20.1109719,21.490418 17.8375056,23.5917636 17.8375056,23.5917636 C17.8375056,23.5917636 22.4082965,20.9325592 20.3095979,17.6009467 C18.3487651,14.4954554 16.845449,12.952806 24.9840772,7.63262939 C24.9840772,7.63262939 12.2084494,11.2283292 18.3097994,19.1533667 L18.3097994,19.1533667 Z" id="Path" fill="#D1D1D1"></path>
                            <path d="M29.0109746,35.7743838 C29.0109746,35.7743838 30.227257,36.8388577 27.6713606,37.662067 C22.8112748,39.2249321 7.43925862,39.6963477 3.16966121,37.7246058 C1.63591402,37.0153607 4.51346242,36.0323187 5.41884623,35.8246978 C6.36286634,35.6078829 6.90187137,35.6474875 6.90187137,35.6474875 C5.19492694,34.3713515 -4.13088786,38.1537901 2.16540272,39.2385714 C19.335625,42.1933553 33.4641421,37.9076759 29.0109746,35.7743838 L29.0109746,35.7743838 Z" id="Path" fill="#000000"></path>
                            <path d="M11.2030749,22.905631 C11.2030749,22.905631 3.92485168,24.9479379 8.62577501,25.6901955 C10.6112846,26.0039861 14.5669774,25.9317902 18.254327,25.5664161 C21.2669648,25.2677971 24.2903221,24.629125 24.2903221,24.629125 C24.2903221,24.629125 23.2288204,25.1669321 22.4602904,25.7863521 C15.0678729,28.0827049 0.789780626,27.0132638 4.90086269,24.6655368 C8.37603597,22.6799403 11.2030749,22.905631 11.2030749,22.905631 L11.2030749,22.905631 Z" id="Path" fill="#000000"></path>
                            <path d="M25.1314089,29.6453225 C32.5038999,25.865 29.0947595,22.2317277 26.7153758,22.7210943 C26.1335246,22.8409479 25.8724999,22.9447581 25.8724999,22.9447581 C25.8724999,22.9447581 26.0892816,22.6095626 26.5020709,22.4653436 C31.209294,20.8326918 34.8286102,27.2823099 24.9840772,29.8366421 C24.9839903,29.8366421 25.0972488,29.7354057 25.1314089,29.6453225 L25.1314089,29.6453225 Z" id="Path" fill="#000000"></path>
                            <path d="M20.9899502,0 C20.9899502,0 25.7422628,4.33850836 16.4811072,11.0080301 C9.05427168,16.3602112 14.7877486,19.4107394 16.4784762,22.8978882 C12.1428752,19.3291211 8.96279348,16.1870956 11.0958343,13.263242 C14.228153,8.97191341 22.9069446,6.89064813 20.9899502,0 L20.9899502,0 Z" id="Path" fill="#D1D1D1"></path>
                        </g>
                    </g>
                </g>
                <mask id="mask-4" fill="white">
                    <use xlink:href="#path-3"></use>
                </mask>
                <g id="Mask"></g>
            </g>
        </g>
    </g>
</svg>