<?xml version="1.0" encoding="UTF-8"?>
<svg width="22px" height="22px" viewBox="0 0 22 22" version="1.1" xmlns="http://www.w3.org/2000/svg" xmlns:xlink="http://www.w3.org/1999/xlink">
    <!-- Generator: Sketch 64 (93537) - https://sketch.com -->
    <title>icon/linkedin</title>
    <desc>Created with Sketch.</desc>
    <g id="Email-template" stroke="none" stroke-width="1" fill="none" fill-rule="evenodd">
        <g id="Group-3" transform="translate(-54.000000, 0.000000)">
            <g id="icon/linkedin" transform="translate(54.000000, 0.000000)">
                <circle id="Oval" fill="#111111" cx="11" cy="11" r="11"></circle>
                <g id="linkedin" transform="translate(4.000000, 3.000000)">
                    <rect id="Rectangle" x="-1.82076576e-13" y="-1.15463195e-14" width="14.4" height="14.4"></rect>
                    <g id="Group" transform="translate(7.600000, 7.300000) scale(1, -1) translate(-7.600000, -7.300000) translate(1.600000, 1.800000)" fill="#FFFFFF">
                        <path d="M2.58570142,6.21724894e-14 L2.58570142,7.34511779 L0.144320241,7.34511779 L0.144320241,6.21724894e-14 L2.58570142,6.21724894e-14 Z M1.36499996,8.34796958 C2.21635897,8.34796958 2.74625769,8.91199221 2.74625769,9.61685748 C2.73039116,10.3375893 2.21635897,10.8859627 1.38114905,10.8859627 C0.546026067,10.8859627 1.55653268e-13,10.3375893 1.55653268e-13,9.61685748 C1.55653268e-13,8.91199221 0.52979004,8.34796958 1.34908996,8.34796958 L1.36495649,8.34796958 L1.36499996,8.34796958 Z" id="path28"></path>
                        <path d="M3.93659538,-2.79776202e-14 L6.37795483,-2.79776202e-14 L6.37795483,4.10182467 C6.37795483,4.32134793 6.39382136,4.54065384 6.4582873,4.69758036 C6.6347753,5.13619218 7.03648113,5.59045318 7.71091744,5.59045318 C8.59433554,5.59045318 8.94772451,4.91688627 8.94772451,3.92946631 L8.94772451,-2.79776202e-14 L11.3888883,-2.79776202e-14 L11.3888883,4.2115863 C11.3888883,6.46767681 10.1844446,7.51747615 8.57820818,7.51747615 C7.26115558,7.51747615 6.68296175,6.78131251 6.3617188,6.27988662 L6.37802003,6.27988662 L6.37802003,7.34511779 L3.93659538,7.34511779 C3.96869794,6.6559017 3.93659538,-2.79776202e-14 3.93659538,-2.79776202e-14 L3.93659538,-2.79776202e-14 Z" id="path30"></path>
                    </g>
                </g>
            </g>
        </g>
    </g>
</svg>