<?xml version="1.0" encoding="UTF-8"?>
<svg width="219px" height="45px" viewBox="0 0 219 45" version="1.1" xmlns="http://www.w3.org/2000/svg" xmlns:xlink="http://www.w3.org/1999/xlink">
    <!-- Generator: Sketch 64 (93537) - https://sketch.com -->
    <title>logo_black@3x</title>
    <desc>Created with Sketch.</desc>
    <g id="Email-template" stroke="none" stroke-width="1" fill="none" fill-rule="evenodd">
        <g id="logo_black" fill-rule="nonzero">
            <rect id="Rectangle" fill="#36F2B9" x="0" y="23.4886127" width="4.47076289" height="12.7450957"></rect>
            <path d="M26.4311046,23.4886127 C26.3968895,26.9386274 25.8608542,29.3279764 24.8914286,30.5654197 C23.9220029,31.802863 21.8519941,32.504271 18.8980972,32.504271 C15.8358527,32.504271 13.7658439,31.8941031 12.7964183,30.6794698 C11.8269926,29.4648365 11.3422798,27.0868925 11.3080648,23.5000177 L6.84300442,23.5000177 C6.87721944,28.3471458 7.76110751,31.7857555 9.47185862,33.7017968 C11.1826097,35.617838 14.3931193,36.6613962 18.8980972,36.6613962 C23.2605125,36.6613962 26.391187,35.629243 28.1931782,33.5991517 C29.9951694,31.5690604 30.8619499,28.2102857 30.9018675,23.5000177 L26.4311046,23.4886127 Z" id="Path" fill="#36F2B9"></path>
            <path d="M51.4765007,23.4886127 L51.4765007,28.4497909 C50.3565809,29.0244802 49.1791486,29.4793972 47.9637585,29.8069867 C46.8038994,30.1239586 45.6077565,30.2888116 44.4053962,30.2974021 C41.799352,30.2974021 40.0201708,29.7271517 39.1191753,28.5296259 C38.3550398,27.5373903 37.915947,25.8380442 37.7904919,23.4886127 L33.3140265,23.4886127 C33.4622916,27.12681 34.2036171,29.8354993 35.5208954,31.5405479 C37.0149514,33.4736966 39.512648,34.4545272 42.9911753,34.4545272 C45.9710296,34.4539015 48.8979736,33.6670886 51.4765007,32.1735258 L51.4765007,33.6447717 C51.4765007,36.2223034 50.9746804,38.0414021 49.9881473,39.0450427 C49.0016141,40.0486834 47.188218,40.5619087 44.6163888,40.5619087 C43.0713975,40.5617696 41.5281897,40.4569839 39.9973608,40.248271 C38.8045116,40.1144409 37.6302067,39.8485967 36.4960236,39.455623 L36.3705685,39.4043004 L36.3705685,43.396053 L36.433296,43.396053 C37.6476121,43.8430474 38.9080879,44.1529064 40.1912459,44.3198586 C41.8133114,44.5552938 43.450652,44.6696598 45.0896966,44.6620088 C49.0814492,44.6620088 51.932701,43.7439057 53.5236996,41.9362121 C55.1146981,40.1285184 55.9529661,36.9180088 55.9529661,32.3902209 L55.9529661,23.4886127 L51.4765007,23.4886127 Z" id="Path" fill="#36F2B9"></path>
            <rect id="Rectangle" fill="#36F2B9" x="59.4600059" y="23.4886127" width="4.47076289" height="12.7450957"></rect>
            <polygon id="Path" fill="#36F2B9" points="73.9215552 23.4886127 65.7954875 36.0911458 65.7042474 36.2280059 70.420218 36.2280059 76.8526421 25.8551517 83.3363888 36.2280059 88.308972 36.2280059 80.1258792 23.4886127"></polygon>
            <rect id="Rectangle" fill="#212529" x="0.547440353" y="23.4886127" width="4.47076289" height="12.7450957"></rect>
            <path d="M26.9842474,23.4886127 C26.9500324,26.9386274 26.4139971,29.3279764 25.4388689,30.5654197 C24.4637408,31.802863 22.3994345,32.504271 19.4455376,32.504271 C16.3889956,32.504271 14.3132842,31.8941031 13.3495611,30.6794698 C12.385838,29.4648365 11.8897202,27.0868925 11.8612077,23.5000177 L7.41325479,23.5000177 C7.45317231,28.3471458 8.33135788,31.7857555 10.042109,33.7017968 C11.7528601,35.617838 14.9690722,36.6613962 19.4683476,36.6613962 C23.8307629,36.6613962 26.9614374,35.629243 28.7691311,33.5991517 C30.5768247,31.5690604 31.4322003,28.2102857 31.4721178,23.5000177 L26.9842474,23.4886127 Z" id="Path" fill="#212529"></path>
            <path d="M52.0239411,23.4886127 L52.0239411,28.4497909 C50.9040213,29.0244802 49.726589,29.4793972 48.5111988,29.8069867 C47.3513397,30.1239586 46.1551969,30.2888116 44.9528365,30.2974021 C42.3467923,30.2974021 40.5676112,29.7271517 39.6666156,28.5296259 C38.9081826,27.5373903 38.4633873,25.8380442 38.3436348,23.4886127 L33.8614669,23.4886127 C34.0154345,27.12681 34.7510574,29.8354993 36.0740383,31.5405479 C37.5680943,33.4736966 40.0657909,34.4545272 43.5443181,34.4545272 C45.0529089,34.4521917 46.5544671,34.2489157 48.0093785,33.8500619 C49.4087011,33.4558403 50.7506102,32.8807364 52.0011311,32.1393108 L52.0011311,33.6447717 C52.0011311,36.2166009 51.5050133,38.0356996 50.5127776,39.0393402 C49.520542,40.0429809 47.7185508,40.5562062 45.1410191,40.5562062 C43.5979238,40.5560192 42.0566157,40.4512331 40.5276937,40.2425685 C39.3483427,40.1090246 38.18744,39.8450961 37.0662739,39.455623 L36.9408189,39.4043004 L36.9408189,43.396053 L36.9978439,43.396053 C38.2123683,43.8423663 39.472767,44.1522063 40.7557938,44.3198586 C42.3797716,44.5553034 44.0190084,44.6696687 45.659947,44.6620088 C49.6516996,44.6620088 52.5029514,43.7439057 54.0882474,41.9362121 C55.6735434,40.1285184 56.517514,36.9180088 56.517514,32.3902209 L56.517514,23.4886127 L52.0239411,23.4886127 Z" id="Path" fill="#212529"></path>
            <rect id="Rectangle" fill="#212529" x="60.0131487" y="23.4886127" width="4.47076289" height="12.7450957"></rect>
            <polygon id="Path" fill="#212529" points="74.4689956 23.4886127 66.3429278 36.0911458 66.2573903 36.2337084 70.9676583 36.2337084 77.4000825 25.8551517 83.8838292 36.2337084 88.8621149 36.2337084 80.6790221 23.4886127"></polygon>
            <path d="M21.2133137,11.3422798 C16.8680059,11.3422798 13.7715464,12.3459205 12.0037703,14.3189867 C10.3785567,16.1380854 9.49466863,19.2288424 9.36351105,23.4886127 L13.4579087,23.4886127 C13.5548513,20.3522356 14.0794816,18.1681767 15.0260972,16.9991635 C16.0867629,15.6932901 18.1681767,15.0317997 21.2133137,15.0317997 C24.2584507,15.0317997 26.4196996,15.6704801 27.4290427,16.9250309 C28.3300383,18.0655317 28.8318586,20.2609956 28.9230987,23.4886127 L33.0174963,23.4886127 C32.8920412,19.1318999 32.0480707,16.0126303 30.4798822,14.2448542 C28.7805361,12.317408 25.6612666,11.3422798 21.2133137,11.3422798 Z" id="Path" fill="#36F2B9"></path>
            <path d="M48.2374786,11.3422798 C43.7153932,11.3422798 40.4763711,12.2831929 38.6059499,14.1422091 C36.7355287,16.0012253 35.7889131,19.1376024 35.7546981,23.4886127 L39.9175258,23.4886127 C39.9175258,20.198268 40.4877761,17.9400766 41.5598468,16.7824683 C42.6319175,15.6248601 44.912919,15.0317997 48.2659912,15.0317997 C49.256624,15.0298876 50.2465934,15.0831937 51.2312931,15.1914698 C52.1893137,15.2941149 53.0960118,15.4366775 53.9342798,15.6077526 L54.0027099,15.6077526 L54.0027099,23.4886127 L58.1085125,23.4886127 L58.1085125,12.317408 C56.6020487,12.0029995 55.0789213,11.7745303 53.5465096,11.6331075 C51.7830159,11.4448752 50.010981,11.3478034 48.2374786,11.3422798 L48.2374786,11.3422798 Z" id="Path" fill="#36F2B9"></path>
            <rect id="Rectangle" fill="#36F2B9" x="61.6212548" y="2.74290427" width="4.78440059" height="4.62473049"></rect>
            <rect id="Rectangle" fill="#36F2B9" x="2.49769661" y="2.92538439" width="4.10580265" height="20.5632283"></rect>
            <polygon id="Path" fill="#36F2B9" points="66.2459853 23.4886127 66.2459853 11.5760825 61.7809249 11.6901325 61.7809249 23.4886127"></polygon>
            <polygon id="Path" fill="#36F2B9" points="82.3954757 23.4886127 90.1736907 11.7243476 90.2649308 11.5760825 85.4976377 11.68443 79.4301738 21.1733962 73.7048601 11.7300501 73.6763476 11.68443 68.3844242 11.68443 76.2196642 23.4886127"></polygon>
            <path d="M109.938568,21.4129013 C109.762137,21.1233446 109.501511,20.8945513 109.191541,20.7571134 C108.886507,20.6210386 108.556123,20.5510751 108.222115,20.5518233 C107.975889,20.5505917 107.730541,20.5812603 107.492194,20.6430633 C107.261944,20.7008205 107.042457,20.7951614 106.842109,20.922486 C106.434874,21.1870268 106.196654,21.6461416 106.214834,22.1314168 C106.209246,22.3260319 106.242192,22.5198313 106.311776,22.7016672 C106.387413,22.8712716 106.498204,23.0228806 106.636819,23.1464624 C106.822641,23.2998043 107.030192,23.4247193 107.252689,23.5171252 C107.559147,23.6516422 107.873341,23.7677985 108.193602,23.8649779 C108.558563,23.979028 108.912118,24.1044831 109.254268,24.2356406 C109.578392,24.3585879 109.882135,24.5296837 110.155264,24.7431635 C110.420442,24.9461387 110.63512,25.2076559 110.782539,25.507299 C111.329653,26.6343201 110.999436,27.9910789 109.995594,28.7406186 C109.678057,28.9717925 109.320332,29.1419538 108.94063,29.2424389 C108.538188,29.3570943 108.121642,29.4146813 107.703187,29.4135314 C107.426002,29.411476 107.149451,29.3866818 106.876324,29.3393814 C106.605268,29.2895217 106.339774,29.2131205 106.083676,29.1112813 C105.831444,29.0098985 105.593689,28.8756821 105.376566,28.712106 C105.153099,28.5449516 104.96018,28.3404577 104.806315,28.1076406 L105.764336,27.3206951 C105.963699,27.6631709 106.261838,27.9374591 106.619711,28.1076406 C106.974473,28.2827632 107.364583,28.3744393 107.760212,28.3756583 C108.005432,28.3727746 108.249103,28.33632 108.48443,28.2673108 C108.71905,28.2002336 108.940732,28.0942118 109.140218,27.953673 C109.33365,27.8175513 109.496754,27.6427972 109.619228,27.4404477 C109.747012,27.2291405 109.812263,26.9859323 109.807411,26.7390398 C109.817054,26.4928835 109.766143,26.2481218 109.659146,26.0262268 C109.552769,25.8319115 109.397477,25.668756 109.208648,25.552919 C108.966486,25.4043658 108.708214,25.2838386 108.43881,25.1936613 L107.343929,24.8229985 C107.026167,24.7225894 106.715612,24.6006538 106.414421,24.4580383 C106.143536,24.3265205 105.893699,24.1554781 105.673096,23.9505155 C105.463453,23.7460198 105.296726,23.5017449 105.18268,23.232 C105.056798,22.912763 104.996671,22.5713949 105.005903,22.2283594 C104.976013,21.4308907 105.343405,20.6704739 105.986733,20.198268 C106.295283,19.9669337 106.642987,19.7930817 107.013184,19.6850427 C107.4019,19.5700139 107.805334,19.5123805 108.21071,19.5139676 C108.706268,19.5070216 109.198971,19.5901048 109.664848,19.7591753 C110.124558,19.9394647 110.530792,20.2338372 110.845267,20.6145508 L109.938568,21.4129013 Z" id="Path" fill="#212529"></path>
            <path d="M123.49342,29.413514 C122.817156,29.4215316 122.14618,29.2935419 121.520353,29.0371487 C120.937583,28.8007442 120.408197,28.4497597 119.96357,28.0049956 C119.517973,27.5578028 119.168651,27.0241154 118.937119,26.4368071 C118.450513,25.1644672 118.450513,23.7573119 118.937119,22.484972 C119.16993,21.8983265 119.519093,21.3648833 119.96357,20.9167835 C120.40974,20.4739096 120.938723,20.1231919 121.520353,19.8846303 C122.791271,19.3903824 124.201271,19.3903824 125.472189,19.8846303 C126.053819,20.1231919 126.582802,20.4739096 127.028972,20.9167835 C127.471647,21.365205 127.818881,21.8986652 128.04972,22.484972 C128.536326,23.7573119 128.536326,25.1644672 128.04972,26.4368071 C127.820308,27.0238487 127.472896,27.5575819 127.028972,28.0049956 C126.579321,28.4516722 126.043953,28.8027653 125.455081,29.0371487 C124.832581,29.2913096 124.165782,29.419242 123.49342,29.413514 L123.49342,29.413514 Z M123.49342,28.3756583 C124.013375,28.3823594 124.528709,28.277348 125.004583,28.0677231 C125.449221,27.8713299 125.848987,27.5860601 126.179299,27.2294551 C126.513897,26.8687622 126.77534,26.4465805 126.949137,25.9863093 C127.306442,25.0027073 127.306442,23.9247743 126.949137,22.9411723 C126.777989,22.4711004 126.516456,22.0390874 126.179299,21.669514 C125.848987,21.312909 125.449221,21.0276392 125.004583,20.8312459 C124.037439,20.428269 122.949401,20.428269 121.982256,20.8312459 C121.537618,21.0276392 121.137853,21.312909 120.807541,21.669514 C120.47459,22.0325587 120.2151,22.4566497 120.043405,22.9183623 C119.678651,23.9006396 119.678651,24.981222 120.043405,25.9634993 C120.215237,26.4234421 120.474752,26.845639 120.807541,27.2066451 C121.137853,27.5632501 121.537618,27.8485198 121.982256,28.0449131 C122.456613,28.2617077 122.971871,28.3744811 123.49342,28.3756583 L123.49342,28.3756583 Z" id="Shape" fill="#212529"></path>
            <polygon id="Path" fill="#212529" points="136.466616 19.7534728 142.305979 19.7534728 142.305979 20.7913284 137.584306 20.7913284 137.584306 23.9048954 141.992342 23.9048954 141.992342 24.9427511 137.601414 24.9427511 137.601414 29.1740088 136.460913 29.1740088"></polygon>
            <polygon id="Path" fill="#212529" points="156.436784 20.7913284 153.323216 20.7913284 153.323216 29.1740088 152.182716 29.1740088 152.182716 20.7913284 149.069149 20.7913284 149.069149 19.7534728 156.413973 19.7534728"></polygon>
            <polygon id="Path" fill="#212529" points="162.914828 19.7534728 164.152271 19.7534728 166.29071 27.5773078 166.319222 27.5773078 168.634439 19.7534728 169.883287 19.7534728 172.164289 27.5773078 172.215611 27.5773078 174.393968 19.7534728 175.562981 19.7534728 172.785862 29.1740088 171.588336 29.1740088 169.261714 21.1905037 169.233202 21.1905037 166.889473 29.1740088 165.669137 29.1740088"></polygon>
            <path d="M185.81038,19.7534728 L186.859641,19.7534728 L190.851393,29.1740088 L189.551222,29.1740088 L188.593202,26.8587923 L183.882934,26.8587923 L182.913508,29.1740088 L181.647552,29.1740088 L185.81038,19.7534728 Z M186.317903,21.1905037 L186.28939,21.1905037 L184.333432,25.8209367 L188.182622,25.8209367 L186.317903,21.1905037 Z" id="Shape" fill="#212529"></path>
            <path d="M198.367293,19.7534728 L200.77375,19.7534728 C201.225487,19.7513079 201.676902,19.7779738 202.125243,19.8333078 C202.544306,19.8742351 202.952216,19.9921615 203.328471,20.1811605 C203.683334,20.3548757 203.983298,20.6232643 204.195252,20.956701 C204.437228,21.3789624 204.552079,21.8621318 204.525997,22.3481119 C204.555604,22.9682602 204.331145,23.5736827 203.904424,24.024648 C203.436746,24.472466 202.836486,24.7565889 202.193673,24.8344035 L204.868147,29.1740088 L203.499546,29.1740088 L200.944825,24.9427511 L199.507794,24.9427511 L199.507794,29.1740088 L198.367293,29.1740088 L198.367293,19.7534728 Z M199.507794,23.9048954 L200.505732,23.9048954 C200.81937,23.9048954 201.13871,23.9048954 201.469455,23.8763829 C201.782076,23.8633776 202.091234,23.8057704 202.387558,23.7053078 C202.656451,23.6160325 202.896627,23.4565719 203.083264,23.243405 C203.279501,22.9880057 203.374901,22.6693283 203.351281,22.3481119 C203.366371,22.0625817 203.296948,21.7789391 203.151694,21.5326539 C203.021529,21.3328896 202.840425,21.1714703 202.627063,21.0650486 C202.399057,20.9477555 202.151815,20.8724239 201.897143,20.842651 C201.62668,20.8083406 201.354315,20.7911987 201.081685,20.7913277 L199.507794,20.7913277 L199.507794,23.9048954 Z" id="Shape" fill="#212529"></path>
            <polygon id="Path" fill="#212529" points="212.749007 19.7534728 218.668206 19.7534728 218.668206 20.7913284 213.843888 20.7913284 213.843888 23.7452253 218.326056 23.7452253 218.326056 24.783081 213.843888 24.783081 213.843888 28.1361532 218.884901 28.1361532 218.884901 29.1740088 212.726197 29.1740088"></polygon>
            <path d="M20.6487658,11.3536848 C16.303458,11.3536848 13.235511,12.351623 11.4392224,14.3246892 C9.81400884,16.1437879 8.93012077,19.2345449 8.79896318,23.4943152 L12.8933608,23.4943152 C12.9960059,20.3579381 13.5149337,18.1738792 14.4615493,17.004866 C15.522215,15.6989926 17.6036289,15.0375022 20.6487658,15.0375022 C23.6939028,15.0375022 25.8551517,15.6761826 26.8644948,16.9307334 C27.7654904,18.0712342 28.2673108,20.2666981 28.3585508,23.4943152 L32.4529485,23.4943152 C32.3274934,19.1376024 31.4835228,16.0183328 29.9153343,14.2505567 C28.2159882,12.3231105 25.0910162,11.3536848 20.6487658,11.3536848 Z" id="Path" fill="#212529"></path>
            <path d="M47.6729308,11.3536848 C43.1565479,11.3536848 39.9118233,12.2888954 38.0414021,14.1479116 C36.1709809,16.0069278 35.2300677,19.1433049 35.2186627,23.4943152 L39.3472754,23.4943152 C39.3472754,20.2039705 39.9175258,17.9457791 40.9895965,16.7938733 C42.0616672,15.6419676 44.3426686,15.0375022 47.6957408,15.0375022 C48.6863737,15.0355901 49.6763431,15.0888962 50.6610427,15.1971723 C51.6190633,15.2998174 52.5257614,15.44238 53.3640295,15.6134551 L53.4324595,15.6134551 L53.4324595,23.4943152 L57.5382622,23.4943152 L57.5382622,12.3231105 C56.0317983,12.008702 54.5086709,11.7802329 52.9762592,11.63881 C51.2145701,11.452537 49.4444365,11.3573685 47.6729308,11.3536848 L47.6729308,11.3536848 Z" id="Path" fill="#212529"></path>
            <rect id="Rectangle" fill="#212529" x="61.0567069" y="2.74860677" width="4.78440059" height="4.62473049"></rect>
            <rect id="Rectangle" fill="#212529" x="1.93314875" y="2.93108689" width="4.10580265" height="20.5632283"></rect>
            <polygon id="Path" fill="#212529" points="65.6871399 23.4943152 65.6871399 11.5874875 61.216377 11.6958351 61.216377 23.4943152"></polygon>
            <polygon id="Path" fill="#212529" points="81.8309278 23.4943152 89.6091429 11.7300501 89.7003829 11.581785 84.9330898 11.6901325 78.8656259 21.1790987 73.1403122 11.7357526 73.1117997 11.6901325 67.8198763 11.6901325 75.6551163 23.4943152"></polygon>
            <rect id="Rectangle" fill="#212529" x="96.0358645" y="0" width="1" height="44.7019264"></rect>
        </g>
    </g>
</svg>