<?xml version="1.0" encoding="UTF-8"?>
<svg width="53px" height="53px" viewBox="0 0 53 53" version="1.1" xmlns="http://www.w3.org/2000/svg" xmlns:xlink="http://www.w3.org/1999/xlink">
    <!-- Generator: Sketch 63.1 (92452) - https://sketch.com -->
    <title>icon/nosql</title>
    <desc>Created with Sketch.</desc>
    <defs>
        <circle id="path-1" cx="26.5" cy="26.5" r="26.5"></circle>
        <rect id="path-3" x="0" y="0" width="52.6942308" height="52.6942308"></rect>
    </defs>
    <g id="icon/nosql" stroke="none" stroke-width="1" fill="none" fill-rule="evenodd">
        <g id="Group-6">
            <g id="Placeholders-/-Icon-/-80px-Copy">
                <g id="Group-12">
                    <mask id="mask-2" fill="white">
                        <use xlink:href="#path-1"></use>
                    </mask>
                    <use id="◼️-Background" fill="#FFFFFF" xlink:href="#path-1"></use>
                </g>
            </g>
            <g id="logo/nosql">
                <g id="logo/php">
                    <mask id="mask-4" fill="white">
                        <use xlink:href="#path-3"></use>
                    </mask>
                    <g id="Mask"></g>
                    <g id="Group" mask="url(#mask-4)" fill="#000000" fill-rule="nonzero">
                        <g transform="translate(5.597680, 10.701923)">
                            <path d="M1.97603264,23.9519231 L1.97603264,16.453506 L6.99021804,23.9519231 L8.94102573,23.9519231 L8.94102573,13.2834435 L6.99021804,13.2834435 L6.99021804,20.7971013 L1.97603264,13.2834435 L0.0252249504,13.2834435 L0.0252249504,23.9519231 L1.97603264,23.9519231 Z M13.4268675,24.1348113 C14.1482599,24.1348113 14.8036094,23.9671638 15.3929159,23.6318687 C15.9822224,23.2965736 16.4470633,22.8317327 16.7874386,22.237346 C17.1278139,21.6429593 17.2980015,20.9545883 17.2980015,20.1722332 C17.2980015,19.389878 17.1278139,18.7015071 16.7874386,18.1071203 C16.4470633,17.5127336 15.9847625,17.0478927 15.4005362,16.7125977 C14.81631,16.3773026 14.1635006,16.209655 13.4421082,16.209655 C12.7105553,16.209655 12.0526657,16.3773026 11.4684395,16.7125977 C10.8842132,17.0478927 10.4193723,17.5127336 10.0739168,18.1071203 C9.72846125,18.7015071 9.55573349,19.389878 9.55573349,20.1722332 C9.55573349,20.9545883 9.72592114,21.6429593 10.0662964,22.237346 C10.4066717,22.8317327 10.8689725,23.2965736 11.4531988,23.6318687 C12.037425,23.9671638 12.6953146,24.1348113 13.4268675,24.1348113 Z M13.4268675,22.4430953 C12.9188447,22.4430953 12.4794049,22.2525867 12.1085482,21.8715696 C11.7376916,21.4905524 11.5522632,20.924107 11.5522632,20.1722332 C11.5522632,19.4203594 11.7376916,18.8539139 12.1085482,18.4728968 C12.4794049,18.0918797 12.9239249,17.9013711 13.4421082,17.9013711 C13.9399706,17.9013711 14.3768702,18.0918797 14.7528071,18.4728968 C15.128744,18.8539139 15.3167125,19.4203594 15.3167125,20.1722332 C15.3167125,20.924107 15.128744,21.4905524 14.7528071,21.8715696 C14.3768702,22.2525867 13.9348903,22.4430953 13.4268675,22.4430953 Z M21.555233,24.1348113 C22.3680695,24.1348113 23.0539004,23.9900248 23.6127255,23.7004518 C24.1715506,23.4108788 24.5932096,23.0273215 24.8777024,22.54978 C25.1621951,22.0722386 25.3044415,21.5540553 25.3044415,20.9952302 C25.3044415,20.3652819 25.1723556,19.8496387 24.9081837,19.4483006 C24.6440119,19.0469626 24.2934761,18.7243681 23.8565765,18.4805171 C23.4196768,18.2366662 22.9370551,18.0232966 22.4087114,17.8404084 C21.910849,17.677841 21.4688691,17.5254342 21.0827718,17.3831878 C20.6966744,17.2409414 20.3918607,17.0656735 20.1683307,16.8573842 C19.9448006,16.6490948 19.8330356,16.3671421 19.8330356,16.0115261 C19.8330356,15.5949474 19.9778221,15.2774331 20.2673951,15.0589833 C20.5569681,14.8405335 20.9151242,14.7363888 21.3418634,14.7465493 C21.8397258,14.7465493 22.2283633,14.8913358 22.5077758,15.1809088 C22.7871884,15.4704818 22.9319749,15.8032368 22.9421354,16.1791737 L22.9421354,16.1791737 L25.0301092,16.1791737 C25.0097883,15.5492254 24.8446809,15.0056409 24.5347869,14.5484204 C24.224893,14.0911998 23.7981538,13.7355838 23.2545694,13.4815724 C22.710985,13.227561 22.0835768,13.1005553 21.3723448,13.1005553 C20.6712733,13.1005553 20.0514854,13.2250209 19.5129812,13.4739521 C18.974477,13.7228833 18.5502779,14.073419 18.240384,14.5255593 C17.9304901,14.9776997 17.7806233,15.518744 17.7907838,16.1486923 C17.7907838,16.8904056 18.0066935,17.4847924 18.4385129,17.9318525 C18.8703323,18.3789126 19.4977405,18.744689 20.3207375,19.0291818 C20.8287604,19.2019096 21.3063018,19.3644769 21.7533619,19.5168837 C22.200422,19.6692906 22.5585781,19.8674195 22.8278302,20.1112704 C23.0970823,20.3551214 23.2317084,20.6954967 23.2317084,21.1323963 C23.2317084,21.5489751 23.0793015,21.88173 22.7744878,22.1306612 C22.4696741,22.3795924 22.0581756,22.504058 21.5399923,22.504058 C20.9405254,22.504058 20.4706043,22.3338703 20.130229,21.993495 C19.7898537,21.6531197 19.6095055,21.2340009 19.5891846,20.7361385 L19.5891846,20.7361385 L17.5316921,20.7361385 C17.5418526,21.4575309 17.7196606,22.0696985 18.0651161,22.5726411 C18.4105717,23.0755837 18.8830329,23.461681 19.4824998,23.7309331 C20.0819668,24.0001852 20.7728778,24.1348113 21.555233,24.1348113 Z M36.4047406,25.8874901 L33.9357497,23.2356109 C34.6368212,22.7682299 35.1854858,22.1357414 35.5817436,21.3381456 C35.9780015,20.5405497 36.1761304,19.633729 36.1761304,18.6176833 C36.1761304,17.5305144 35.9526003,16.5728914 35.5055402,15.7448142 C35.0584801,14.9167369 34.433612,14.2690078 33.630936,13.8016268 C32.8282599,13.3342458 31.8985781,13.1005553 30.8418906,13.1005553 C29.7750426,13.1005553 28.8428207,13.3342458 28.0452249,13.8016268 C27.247629,14.2690078 26.6227609,14.9167369 26.1706206,15.7448142 C25.7184803,16.5728914 25.4924101,17.5305144 25.4924101,18.6176833 C25.4924101,19.7048522 25.7184803,20.6624752 26.1706206,21.4905524 C26.6227609,22.3186297 27.247629,22.9663588 28.0452249,23.4337398 C28.8428207,23.9011208 29.7750426,24.1348113 30.8418906,24.1348113 C31.3499134,24.1348113 31.8376153,24.0789288 32.3049964,23.9671638 L32.3049964,23.9671638 L33.9814717,25.8874901 L36.4047406,25.8874901 Z M30.8418906,22.3821325 C29.8258449,22.3821325 29.0130084,22.0468374 28.403381,21.3762473 C27.7937536,20.7056572 27.4889399,19.7861358 27.4889399,18.6176833 C27.4889399,17.4492308 27.7937536,16.5297094 28.403381,15.8591193 C29.0130084,15.1885291 29.8258449,14.8532341 30.8418906,14.8532341 C31.8579363,14.8532341 32.6682327,15.1885291 33.2727799,15.8591193 C33.877327,16.5297094 34.1796006,17.4492308 34.1796006,18.6176833 C34.1796006,19.7861358 33.877327,20.7056572 33.2727799,21.3762473 C32.6682327,22.0468374 31.8579363,22.3821325 30.8418906,22.3821325 Z M43.3595734,23.9519231 L43.3595734,22.4278546 L38.634961,22.4278546 L38.634961,13.2834435 L36.6841533,13.2834435 L36.6841533,23.9519231 L43.3595734,23.9519231 Z" id="NoSQL"></path>
                            <polygon id="&gt;" points="20.6700974 10.2792153 25.775517 5.12821163 20.6700974 0 17.0005771 0 22.1059967 5.12821163 17.0005771 10.2792153"></polygon>
                        </g>
                    </g>
                </g>
            </g>
        </g>
    </g>
</svg>