<?xml version="1.0" encoding="UTF-8"?>
<svg width="64px" height="64px" viewBox="0 0 64 64" version="1.1" xmlns="http://www.w3.org/2000/svg" xmlns:xlink="http://www.w3.org/1999/xlink">
    <!-- Generator: Sketch 63.1 (92452) - https://sketch.com -->
    <title>icon/day_4@1x</title>
    <desc>Created with Sketch.</desc>
    <defs>
        <polygon id="path-1" points="7.67999999e-05 0.0006144 30.2080768 0.0006144 30.2080768 41.4726144 7.67999999e-05 41.4726144"></polygon>
    </defs>
    <g id="icon/day_4" stroke="none" stroke-width="1" fill="none" fill-rule="evenodd">
        <g id="icon/advantage/3" transform="translate(13.000000, 10.000000)">
            <g id="Group-13-Copy-3" transform="translate(0.680000, 0.120000)">
                <g id="Group-10">
                    <g id="Group" transform="translate(4.096000, 24.528000)">
                        <polygon id="Stroke-2" stroke="#7878F9" stroke-width="0.5" points="31.744 11.653866 27.3494915 14.336 27.136 13.946134 31.5305085 11.264"></polygon>
                        <polygon id="Stroke-5" stroke="#7878F9" stroke-width="0.5" points="19.968 11.653866 15.5734915 14.336 15.36 13.946134 19.7545085 11.264"></polygon>
                        <polygon id="Stroke-7" stroke="#7878F9" stroke-width="0.5" points="7.68 11.653866 3.28549148 14.336 3.072 13.946134 7.46650852 11.264"></polygon>
                        <polygon id="Stroke-24" stroke="#7878F9" stroke-width="0.5" points="31.744 0.391440986 27.3494915 3.072 27.136 2.68055901 31.5305085 5.7909233e-14"></polygon>
                        <polygon id="Stroke-27" stroke="#7878F9" stroke-width="0.5" points="16.896 0.391440986 12.5014915 3.072 12.288 2.68055901 16.6825085 5.7909233e-14"></polygon>
                        <polygon id="Stroke-30" stroke="#7878F9" stroke-width="0.5" points="4.608 0.391440986 0.213491475 3.072 8.14637247e-13 2.68055901 4.39450852 5.7909233e-14"></polygon>
                        <polygon id="Fill-53" fill="#FFFFFF" points="28.4585085 14.336 24.064 17.018134 24.2774915 17.408 28.672 14.725866"></polygon>
                        <polygon id="Fill-54" fill="#FFFFFF" points="16.6825085 14.336 12.288 17.018134 12.5014915 17.408 16.896 14.725866"></polygon>
                        <polygon id="Fill-55" fill="#FFFFFF" points="4.39450852 14.336 8.14637247e-13 17.018134 0.213491475 17.408 4.608 14.725866"></polygon>
                        <polygon id="Fill-63" fill="#FFFFFF" points="24.064 5.75255901 24.2774915 6.144 28.672 3.46344099 28.4585085 3.072"></polygon>
                        <polygon id="Fill-64" fill="#FFFFFF" points="16.896 3.46344099 12.5014915 6.144 12.288 5.75255901 16.6825085 3.072"></polygon>
                        <polygon id="Fill-65" fill="#FFFFFF" points="4.608 3.46344099 0.213491475 6.144 8.14637247e-13 5.75255901 4.39450852 3.072"></polygon>
                    </g>
                    <mask id="mask-2" fill="white">
                        <use xlink:href="#path-1"></use>
                    </mask>
                    <g id="Clip-2"></g>
                </g>
            </g>
            <g id="4Risorsa-1" transform="translate(0.000000, 3.000000)" fill="#7878F9" fill-rule="nonzero">
                <path d="M34.2926829,15.4407317 L34.2926829,11.7768293 L28.12,8.22121951 L24.952439,10.0260976 L7.53536585,0 L0,4.3497561 L0,16.0814634 L5.59512195,33.3180488 L11.5873171,36.7834146 L23.0753659,30.1504878 L28.652439,33.3902439 L36.675122,28.7517073 L36.675122,16.8304878 L34.2926829,15.4407317 Z M11.2534146,27.7590244 L11.2534146,35.8087805 L6.21780488,32.8939024 L6.21780488,22.1639024 L7.2195122,22.7143902 L11.2985366,25.0697561 L11.2534146,27.7590244 Z M28.3185366,24.3658537 L28.3185366,32.4156098 L23.4634146,29.5639024 L23.4634146,18.824878 L28.3185366,21.6585366 L28.3185366,24.3658537 Z M23.0753659,17.8773171 L11.5873171,24.4831707 L7.2195122,21.9563415 L6.15463415,21.3426829 L0.74902439,4.70170732 L7.53536585,0.785121951 L24.7809756,10.7119512 L24.952439,10.8112195 L28.12,9.00634146 L33.2639024,11.9753659 L30.0873171,13.7802439 L35.6643902,16.9929268 L34.9063415,17.435122 L28.652439,21.044878 L23.0753659,17.8773171 Z" id="Shape"></path>
                <path d="M10.9014634,9.92682927 C9.83658537,9.25 9.51170732,9.02439024 9.41243902,8.96121951 L9.27707317,8.70853659 L8.44682927,9.18682927 L8.64536585,9.48463415 C9.16463056,10.2449489 9.59461708,11.0625289 9.92682927,11.9212195 L11.6234146,16.8936585 L17.2365854,13.6539024 L13.3741463,11.424878 C12.7514634,11.0639024 11.9212195,10.567561 10.9014634,9.92682927 Z M11.9934146,15.9009756 L10.567561,11.7317073 C10.3427107,11.1468597 10.0742313,10.5797346 9.76439024,10.035122 L10.5404878,10.5314634 C11.5692683,11.1812195 12.4085366,11.6865854 13.0402439,12.047561 L15.8829268,13.69 L11.9934146,15.9009756 Z" id="Shape"></path>
            </g>
        </g>
    </g>
</svg>