<?xml version="1.0" encoding="UTF-8"?>
<svg width="64px" height="64px" viewBox="0 0 64 64" version="1.1" xmlns="http://www.w3.org/2000/svg" xmlns:xlink="http://www.w3.org/1999/xlink">
    <!-- Generator: Sketch 63.1 (92452) - https://sketch.com -->
    <title>icon/day_3@1x</title>
    <desc>Created with Sketch.</desc>
    <defs>
        <polygon id="path-1" points="7.67999999e-05 0.0006144 30.2080768 0.0006144 30.2080768 41.4726144 7.67999999e-05 41.4726144"></polygon>
        <polygon id="path-3" points="0 0.325632 24.1435392 0.325632 24.1435392 15.1915008 0 15.1915008"></polygon>
        <polygon id="path-5" points="0.0005376 0.0487447598 26.249472 0.0487447598 26.249472 36.096 0.0005376 36.096"></polygon>
    </defs>
    <g id="icon/day_3" stroke="none" stroke-width="1" fill="none" fill-rule="evenodd">
        <g id="icon/advantage/3" transform="translate(14.000000, 10.000000)">
            <g id="Group-13-Copy-3" transform="translate(0.680000, 0.120000)">
                <g id="Group-10">
                    <g id="Group" transform="translate(4.096000, 22.528000)">
                        <polygon id="Stroke-2" stroke="#7878F9" stroke-width="0.5" points="31.744 11.653866 27.3494915 14.336 27.136 13.946134 31.5305085 11.264"></polygon>
                        <polygon id="Stroke-5" stroke="#7878F9" stroke-width="0.5" points="19.968 11.653866 15.5734915 14.336 15.36 13.946134 19.7545085 11.264"></polygon>
                        <polygon id="Stroke-7" stroke="#7878F9" stroke-width="0.5" points="7.68 11.653866 3.28549148 14.336 3.072 13.946134 7.46650852 11.264"></polygon>
                        <polygon id="Stroke-24" stroke="#7878F9" stroke-width="0.5" points="31.744 0.391440986 27.3494915 3.072 27.136 2.68055901 31.5305085 5.7909233e-14"></polygon>
                        <polygon id="Stroke-27" stroke="#7878F9" stroke-width="0.5" points="16.896 0.391440986 12.5014915 3.072 12.288 2.68055901 16.6825085 5.7909233e-14"></polygon>
                        <polygon id="Stroke-30" stroke="#7878F9" stroke-width="0.5" points="4.608 0.391440986 0.213491475 3.072 8.14637247e-13 2.68055901 4.39450852 5.7909233e-14"></polygon>
                        <polygon id="Fill-53" fill="#FFFFFF" points="28.4585085 14.336 24.064 17.018134 24.2774915 17.408 28.672 14.725866"></polygon>
                        <polygon id="Fill-54" fill="#FFFFFF" points="16.6825085 14.336 12.288 17.018134 12.5014915 17.408 16.896 14.725866"></polygon>
                        <polygon id="Fill-55" fill="#FFFFFF" points="4.39450852 14.336 8.14637247e-13 17.018134 0.213491475 17.408 4.608 14.725866"></polygon>
                        <polygon id="Fill-63" fill="#FFFFFF" points="24.064 5.75255901 24.2774915 6.144 28.672 3.46344099 28.4585085 3.072"></polygon>
                        <polygon id="Fill-64" fill="#FFFFFF" points="16.896 3.46344099 12.5014915 6.144 12.288 5.75255901 16.6825085 3.072"></polygon>
                        <polygon id="Fill-65" fill="#FFFFFF" points="4.608 3.46344099 0.213491475 6.144 8.14637247e-13 5.75255901 4.39450852 3.072"></polygon>
                    </g>
                    <mask id="mask-2" fill="white">
                        <use xlink:href="#path-1"></use>
                    </mask>
                    <g id="Clip-2"></g>
                    <g id="Group-13-Copy-3" mask="url(#mask-2)">
                        <g transform="translate(0.000000, -0.512000)">
                            <g id="Group-9" transform="translate(0.000000, 0.512000)">
                                <g id="Group-8" transform="translate(4.096000, 22.528000)"></g>
                                <g id="Group-3"></g>
                            </g>
                            <g id="Group-19" transform="translate(2.048000, 0.000000)">
                                <path d="M8.8291584,26.431872 L9.3590784,26.73216 C8.7331584,27.27744 7.9751424,27.81888 7.0543104,28.350336 C6.0674304,28.919424 4.9799424,29.387136 3.8210304,29.738112 C2.8149504,30.044544 1.8127104,30.216576 0.8342784,30.250368 L0.8342784,30.250368 L1.1660544,30.869376 L0.3105024,30.48384 L0.0340224,29.967744 L0.0340224,29.675136 L0.3596544,29.679744 C1.4248704,29.698176 2.5377024,29.526144 3.6528384,29.187456 C4.7702784,28.848 5.8178304,28.39872 6.7663104,27.851136 C7.5796224,27.38112 8.2600704,26.906496 8.8291584,26.431872 L8.8291584,26.431872 Z M15.5004672,0.870912 C15.7139712,0.919296 15.9244032,0.993792 16.1394432,1.097472 L16.1471232,1.091328 L16.3114752,1.171968 L24.1435392,5.67552 L16.4005632,10.514688 L12.3679232,12.9212787 L21.1771392,11.4801408 L21.1771392,14.2510848 L19.9629232,16.2412787 L24.7352832,19.3012224 L23.4619392,23.6550144 L16.9529232,21.1782787 L16.8617472,21.3289728 C14.3964672,22.8235008 13.7129472,23.2290048 13.4502912,23.2290048 C13.3496832,23.2290048 13.3105152,23.1706368 13.2575232,23.0907648 C13.2014592,23.0577408 12.3827712,22.5439488 11.6477952,22.0931328 L3.9593472,17.6832768 L3.9593472,17.3545728 L7.4049232,15.3852787 L-7.67999998e-05,11.01696 L0.1235712,10.848 C1.4668032,9.002496 2.8614912,7.424256 4.2707712,6.154752 C5.6800512,4.885248 7.3166592,3.710208 9.1360512,2.658816 C11.8424832,1.096704 13.9229952,0.51072 15.5004672,0.870912 Z M19.6629232,16.7332787 L17.2579232,20.6782787 L23.0840832,22.8946944 L24.0609792,19.5531264 L19.6629232,16.7332787 Z M20.6011392,12.1575168 L11.6024832,13.6305408 L4.8264192,17.5166208 L11.9411712,21.5977728 C12.9004032,22.1852928 13.3358592,22.4633088 13.5401472,22.6053888 C13.9385831,22.4035836 15.1958058,21.6631689 16.3667418,20.9559828 L16.2934272,20.9278464 L19.2709632,15.7976064 L19.4859232,15.9352787 L20.6011392,14.0905728 L20.6011392,12.1575168 Z M9.4240512,3.158784 C7.6392192,4.188672 6.0356352,5.340672 4.6563072,6.582528 C3.3430272,7.765248 2.0397312,9.225984 0.7794432,10.927872 L7.8196992,14.966784 L17.9711232,8.884992 L23.0276352,5.697792 L16.0196352,1.682688 C15.7930752,1.561344 15.5880192,1.481472 15.3722112,1.43232 C13.9644672,1.112064 11.9630592,1.692672 9.4240512,3.158784 Z" id="Combined-Shape" fill="#7878F9"></path>
                                <g id="Group-18" transform="translate(0.000000, 0.442675)">
                                    <g id="Group-4">
                                        <mask id="mask-4" fill="white">
                                            <use xlink:href="#path-3"></use>
                                        </mask>
                                        <g id="Clip-3"></g>
                                    </g>
                                    <g id="Group-11" transform="translate(0.000000, 4.608000)">
                                        <mask id="mask-6" fill="white">
                                            <use xlink:href="#path-5"></use>
                                        </mask>
                                        <g id="Clip-10"></g>
                                        <path d="M7.5845376,35.3004288 L0.6095616,31.2999168 L0.6095616,25.4139648 L7.5845376,29.4144768 L7.5845376,35.3004288 Z M11.5097856,22.2306048 L4.5355776,18.2300928 L4.5355776,12.9631488 L11.5097856,16.9636608 L11.5097856,22.2306048 Z M24.7524096,14.2603008 C23.8008576,13.6351488 22.4614656,13.6205568 20.6758656,14.2180608 C22.0966656,12.8018688 23.2256256,11.2927488 24.0389376,9.7198848 C25.0127616,7.8367488 25.5065856,5.9443968 25.5065856,4.0965888 C25.5065856,1.8494208 24.6802176,0.5230848 23.0512896,0.1513728 C21.4745856,-0.2088192 19.3925376,0.3771648 16.6868736,1.9400448 C14.8667136,2.9906688 13.2308736,4.1657088 11.8215936,5.4352128 C10.4622336,6.6594048 9.1174656,8.1777408 7.8187776,9.9387648 L0.2747136,5.5895808 L0.0005376,5.9666688 L2.9657856,9.7774848 L10.8201216,14.3040768 L11.1096576,13.9331328 C12.7593216,11.8165248 14.3713536,10.2920448 15.9027456,9.4080768 C16.7053056,8.9449728 17.3412096,8.7445248 17.7828096,8.8098048 C17.9256576,8.8305408 18.3065856,8.8873728 18.3065856,9.7982208 C18.3065856,11.7282048 16.6039296,13.6896768 13.2446976,15.6296448 L11.7970176,16.4652288 L4.2521856,12.1367808 L3.9595776,12.3042048 L3.9595776,18.5634048 L11.7985536,23.0600448 L13.4981376,22.0793088 C14.7522816,21.3550848 15.7790976,20.8697088 16.5501696,20.6370048 C17.2490496,20.4265728 17.7643776,20.4089088 18.0423936,20.5847808 C18.3058176,20.7522048 18.4455936,21.1999488 18.4455936,21.8788608 C18.4455936,22.8465408 18.1191936,23.7558528 17.4771456,24.5822208 C16.8166656,25.4308608 15.7422336,26.2894848 14.2830336,27.1312128 C13.3337856,27.6787968 12.2870016,28.1288448 11.1687936,28.4683008 C10.0774656,28.7993088 8.9930496,28.9690368 7.9454976,28.9575168 L0.3998976,24.6283008 L0.0335616,24.6244608 L0.0335616,31.6332288 L7.8141696,36.0960768 L8.1605376,36.0430848 C9.4331136,35.8556928 10.6365696,35.5538688 11.7371136,35.1337728 C12.9106176,34.6837248 14.1954816,34.0578048 15.5563776,33.2721408 C18.8871936,31.3483008 21.5275776,29.0274048 23.4038016,26.3739648 C25.2923136,23.7043968 26.2500096,20.9495808 26.2500096,18.1855488 C26.2500096,16.2340608 25.7454336,14.9131008 24.7524096,14.2603008 L24.7524096,14.2603008 Z" id="Fill-9" fill="#7878F9" mask="url(#mask-6)"></path>
                                    </g>
                                </g>
                            </g>
                        </g>
                    </g>
                </g>
            </g>
        </g>
    </g>
</svg>