<svg width="214" height="80" viewBox="0 0 214 80" fill="none" xmlns="http://www.w3.org/2000/svg">
<path d="M83.6277 48.7413C81.8757 48.7413 80.2652 48.3531 78.7966 47.5768C77.3454 46.8004 76.186 45.7202 75.319 44.3363C74.4697 42.9355 74.0449 41.3659 74.0449 39.6275C74.0449 37.8892 74.4697 36.328 75.319 34.9441C76.186 33.5601 77.3454 32.4799 78.7966 31.7036C80.2652 30.9272 81.8757 30.5391 83.6277 30.5391C85.3796 30.5391 86.9812 30.9272 88.4324 31.7036C89.9014 32.4799 91.0514 33.5601 91.8832 34.9441C92.7329 36.328 93.1573 37.8892 93.1573 39.6275C93.1573 41.3659 92.7329 42.9355 91.8832 44.3363C91.034 45.7202 89.8836 46.8004 88.4324 47.5768C86.9812 48.3531 85.3796 48.7413 83.6277 48.7413ZM83.6277 44.792C85.1141 44.792 86.2998 44.3194 87.1847 43.3743C88.0874 42.4292 88.5386 41.1802 88.5386 39.6275C88.5386 38.0579 88.0874 36.809 87.1847 35.8808C86.2998 34.9356 85.1141 34.4631 83.6277 34.4631C82.1234 34.4631 80.9202 34.9272 80.0175 35.8554C79.1326 36.7837 78.6904 38.041 78.6904 39.6275C78.6904 41.1971 79.1326 42.4545 80.0175 43.3996C80.9202 44.3279 82.1234 44.792 83.6277 44.792Z" fill="#3B3B3B"/>
<path d="M100.379 36.3431C100.816 35.6966 101.42 35.1744 102.191 34.7765C102.962 34.3786 103.863 34.1797 104.897 34.1797C106.105 34.1797 107.2 34.4698 108.18 35.05C109.161 35.6302 109.931 36.4591 110.492 37.5367C111.07 38.6142 111.359 39.8658 111.359 41.2915C111.359 42.7172 111.07 43.9771 110.492 45.0712C109.931 46.1488 109.161 46.9859 108.18 47.5827C107.2 48.1629 106.105 48.453 104.897 48.453C103.881 48.453 102.979 48.2541 102.191 47.8562C101.42 47.4584 100.816 46.9445 100.379 46.3145V52.3819H95.8867V34.3786H100.379V36.3431ZM106.788 41.2915C106.788 40.2306 106.473 39.4017 105.842 38.8049C105.229 38.1915 104.467 37.8848 103.557 37.8848C102.664 37.8848 101.902 38.1915 101.272 38.8049C100.659 39.4182 100.352 40.2554 100.352 41.3164C100.352 42.3773 100.659 43.2145 101.272 43.8279C101.902 44.4413 102.664 44.7479 103.557 44.7479C104.45 44.7479 105.212 44.4413 105.842 43.8279C106.473 43.1979 106.788 42.3525 106.788 41.2915Z" fill="#3B3B3B"/>
<path d="M127.741 41.2323C127.741 41.6382 127.716 42.061 127.664 42.5007H117.6C117.67 43.3802 117.956 44.0567 118.458 44.5302C118.978 44.9869 119.611 45.2152 120.357 45.2152C121.466 45.2152 122.237 44.7586 122.671 43.8453H127.404C127.161 44.7755 126.719 45.6126 126.077 46.3568C125.453 47.101 124.664 47.6845 123.711 48.1073C122.758 48.5301 121.691 48.7415 120.513 48.7415C119.091 48.7415 117.826 48.4455 116.716 47.8536C115.607 47.2617 114.74 46.416 114.116 45.3167C113.492 44.2174 113.18 42.932 113.18 41.4606C113.18 39.9892 113.483 38.7038 114.09 37.6045C114.714 36.5052 115.581 35.6596 116.69 35.0676C117.799 34.4757 119.074 34.1797 120.513 34.1797C121.917 34.1797 123.165 34.4672 124.257 35.0423C125.349 35.6173 126.199 36.4375 126.806 37.503C127.43 38.5685 127.741 39.8116 127.741 41.2323ZM123.191 40.0907C123.191 39.3465 122.931 38.7546 122.411 38.3148C121.891 37.8751 121.241 37.6553 120.461 37.6553C119.715 37.6553 119.082 37.8667 118.562 38.2895C118.06 38.7123 117.747 39.3127 117.626 40.0907H123.191Z" fill="#3B3B3B"/>
<path d="M139.393 34.1797C141.108 34.1797 142.472 34.7305 143.486 35.8321C144.518 36.9164 145.034 38.414 145.034 40.3246V48.7415H140.574V40.9184C140.574 39.9545 140.32 39.2057 139.813 38.6722C139.306 38.1385 138.624 37.8717 137.767 37.8717C136.909 37.8717 136.227 38.1385 135.72 38.6722C135.213 39.2057 134.959 39.9545 134.959 40.9184V48.7415H130.473V34.3346H134.959V36.2452C135.414 35.6083 136.026 35.1092 136.796 34.7477C137.565 34.369 138.431 34.1797 139.393 34.1797Z" fill="#3B3B3B"/>
<path d="M154.821 48.7413C153.499 48.7413 152.314 48.5303 151.267 48.1084C150.219 47.6865 149.378 47.062 148.743 46.235C148.124 45.408 147.798 44.4123 147.764 43.2477H152.452C152.52 43.9059 152.752 44.4123 153.147 44.7667C153.542 45.1042 154.057 45.273 154.693 45.273C155.345 45.273 155.86 45.1295 156.238 44.8426C156.616 44.5389 156.805 44.1253 156.805 43.6022C156.805 43.1633 156.65 42.8005 156.341 42.5135C156.049 42.2266 155.68 41.9904 155.234 41.8047C154.804 41.619 154.186 41.4081 153.379 41.1718C152.211 40.8174 151.258 40.4629 150.52 40.1085C149.782 39.7541 149.146 39.2309 148.614 38.5389C148.081 37.847 147.815 36.944 147.815 35.8301C147.815 34.1761 148.425 32.885 149.644 31.9568C150.863 31.0116 152.452 30.5391 154.409 30.5391C156.401 30.5391 158.007 31.0116 159.226 31.9568C160.445 32.885 161.098 34.1846 161.184 35.8554H156.418C156.384 35.2816 156.169 34.8343 155.774 34.5137C155.38 34.1761 154.873 34.0074 154.255 34.0074C153.722 34.0074 153.293 34.1508 152.967 34.4377C152.641 34.7078 152.477 35.1044 152.477 35.6276C152.477 36.2014 152.752 36.6487 153.302 36.9693C153.851 37.29 154.71 37.636 155.878 38.0073C157.045 38.3955 157.99 38.7668 158.711 39.1212C159.449 39.4756 160.085 39.9904 160.617 40.6655C161.149 41.3406 161.415 42.2098 161.415 43.273C161.415 44.2857 161.149 45.2055 160.617 46.0325C160.102 46.8595 159.346 47.5177 158.35 48.0072C157.354 48.4966 156.178 48.7413 154.821 48.7413Z" fill="#3B3B3B"/>
<path d="M178.708 41.2323C178.708 41.6382 178.68 42.061 178.625 42.5007H167.933C168.007 43.3802 168.311 44.0567 168.845 44.5302C169.397 44.9869 170.07 45.2152 170.862 45.2152C172.041 45.2152 172.86 44.7586 173.321 43.8453H178.349C178.091 44.7755 177.621 45.6126 176.94 46.3568C176.277 47.101 175.439 47.6845 174.426 48.1073C173.413 48.5301 172.28 48.7415 171.028 48.7415C169.517 48.7415 168.173 48.4455 166.994 47.8536C165.815 47.2617 164.894 46.416 164.231 45.3167C163.568 44.2174 163.236 42.932 163.236 41.4606C163.236 39.9892 163.559 38.7038 164.203 37.6045C164.866 36.5052 165.787 35.6596 166.966 35.0676C168.145 34.4757 169.499 34.1797 171.028 34.1797C172.519 34.1797 173.845 34.4672 175.006 35.0423C176.166 35.6173 177.069 36.4375 177.713 37.503C178.377 38.5685 178.708 39.8116 178.708 41.2323ZM173.873 40.0907C173.873 39.3465 173.597 38.7546 173.044 38.3148C172.492 37.8751 171.801 37.6553 170.972 37.6553C170.18 37.6553 169.508 37.8667 168.955 38.2895C168.421 38.7123 168.089 39.3127 167.961 40.0907H173.873Z" fill="#3B3B3B"/>
<path d="M179.617 41.4352C179.617 39.9808 179.914 38.7038 180.507 37.6045C181.119 36.5052 181.944 35.6596 182.983 35.0676C184.021 34.4757 185.18 34.1797 186.459 34.1797C187.553 34.1797 188.508 34.3826 189.324 34.7886C190.158 35.1945 190.798 35.7272 191.243 36.3868V34.3826H195.999V48.5386H191.243V46.5344C190.78 47.194 190.131 47.7268 189.296 48.1326C188.48 48.5386 187.526 48.7415 186.431 48.7415C185.17 48.7415 184.021 48.4455 182.983 47.8536C181.944 47.2447 181.119 46.3907 180.507 45.2913C179.914 44.1751 179.617 42.8897 179.617 41.4352ZM191.243 41.4606C191.243 40.3782 190.909 39.5241 190.242 38.8984C189.593 38.2726 188.795 37.9597 187.85 37.9597C186.904 37.9597 186.098 38.2726 185.43 38.8984C184.781 39.5072 184.457 40.3528 184.457 41.4352C184.457 42.5176 184.781 43.3802 185.43 44.0229C186.098 44.6486 186.904 44.9615 187.85 44.9615C188.795 44.9615 189.593 44.6486 190.242 44.0229C190.909 43.3971 191.243 42.543 191.243 41.4606Z" fill="#3B3B3B"/>
<g clip-path="url(#clip0_420_8026)">
<path d="M51.7472 17.7979C41.9472 17.7979 34 25.745 34 35.545C34 45.345 41.9472 53.2922 51.7472 53.2922C61.5472 53.2922 69.4944 45.345 69.4944 35.545C69.4944 25.745 61.5507 17.7979 51.7472 17.7979ZM42.7565 36.1413L42.831 36.0207L47.4488 28.7976C47.5163 28.6946 47.676 28.7053 47.7257 28.8189C48.4959 30.5474 49.1632 32.6984 48.8508 34.0365C48.7195 34.5867 48.3539 35.3321 47.9422 36.0207C47.889 36.1201 47.8322 36.2194 47.7683 36.3153C47.7399 36.3579 47.6902 36.3827 47.6369 36.3827H42.8913C42.7636 36.3827 42.689 36.2443 42.7565 36.1413ZM63.3326 38.626C63.3326 38.6934 63.2935 38.7502 63.2367 38.775C62.8782 38.9277 61.6537 39.492 61.1461 40.1984C59.847 42.005 58.8567 44.589 56.6383 44.589H47.3885C44.1088 44.589 41.4538 41.9234 41.4538 38.6331V38.5266C41.4538 38.4414 41.5248 38.3704 41.6135 38.3704H46.7673C46.8703 38.3704 46.9448 38.4627 46.9377 38.5656C46.8987 38.8993 46.9625 39.2436 47.1223 39.5559C47.4275 40.1771 48.0629 40.5639 48.7479 40.5639H51.3V38.5727H48.7763C48.6485 38.5727 48.5704 38.4236 48.645 38.3172C48.6734 38.2746 48.7018 38.232 48.7373 38.1823C48.9751 37.8415 49.3158 37.3162 49.6566 36.7164C49.8873 36.3117 50.1109 35.8787 50.2919 35.4457C50.3274 35.3676 50.3558 35.2859 50.3878 35.2078C50.4374 35.0694 50.4871 34.9381 50.5226 34.8103C50.5581 34.7003 50.5901 34.5867 50.6185 34.4802C50.7037 34.1111 50.7391 33.7206 50.7391 33.316C50.7391 33.1563 50.732 32.9894 50.7179 32.8333C50.7108 32.6593 50.6895 32.4854 50.6682 32.3115C50.654 32.1589 50.6256 32.0063 50.5972 31.8501C50.5581 31.6194 50.5084 31.3886 50.4516 31.1579L50.4303 31.0692C50.3878 30.9095 50.3487 30.7604 50.299 30.6007C50.1535 30.1038 49.9902 29.6175 49.8127 29.1632C49.7489 28.9821 49.6779 28.8082 49.6033 28.6378C49.4968 28.3752 49.3868 28.1374 49.2874 27.9137C49.2342 27.8108 49.1916 27.7185 49.149 27.6227C49.0993 27.5162 49.0496 27.4097 48.9964 27.3068C48.9609 27.2287 48.9183 27.1542 48.8899 27.0832L48.5775 26.5082C48.5349 26.4301 48.6059 26.3343 48.6911 26.3591L50.6433 26.888H50.6504C50.654 26.888 50.654 26.888 50.6575 26.888L50.9131 26.9625L51.197 27.0406L51.3 27.069V25.9119C51.3 25.3511 51.7472 24.8967 52.3045 24.8967C52.5813 24.8967 52.8333 25.0103 53.0108 25.1949C53.1918 25.3795 53.3054 25.6315 53.3054 25.9119V27.6333L53.5148 27.6901C53.529 27.6972 53.5468 27.7043 53.561 27.715C53.6106 27.7505 53.6852 27.8073 53.7775 27.8783C53.852 27.935 53.9301 28.006 54.0224 28.0806C54.2105 28.2332 54.4377 28.4284 54.6826 28.652C54.7465 28.7088 54.8104 28.7656 54.8707 28.826C55.1866 29.1206 55.5415 29.4649 55.8823 29.8482C55.9781 29.9582 56.0704 30.0647 56.1662 30.1818C56.2585 30.299 56.3615 30.4126 56.4466 30.5261C56.5638 30.6788 56.6845 30.8385 56.7945 31.0053C56.8442 31.0834 56.9045 31.165 56.9507 31.2431C57.0926 31.4525 57.2133 31.6691 57.3305 31.8856C57.3801 31.985 57.4298 32.095 57.4724 32.2015C57.6038 32.4925 57.7067 32.7871 57.7706 33.0853C57.7919 33.1492 57.8061 33.2166 57.8132 33.2805V33.2947C57.8345 33.3799 57.8416 33.4722 57.8487 33.568C57.8771 33.8697 57.8629 34.175 57.799 34.4802C57.7706 34.608 57.7351 34.7287 57.6925 34.86C57.6464 34.9842 57.6038 35.112 57.547 35.2362C57.4369 35.4883 57.3092 35.7438 57.1565 35.9781C57.1068 36.0668 57.0465 36.1591 56.9897 36.2478C56.9258 36.3401 56.8584 36.4289 56.8016 36.514C56.72 36.6241 56.6348 36.7377 56.546 36.8406C56.4679 36.9471 56.3899 37.0536 56.3011 37.1494C56.1804 37.2949 56.0633 37.4298 55.9391 37.5611C55.8681 37.6463 55.79 37.735 55.7084 37.8131C55.6303 37.9019 55.5486 37.98 55.4776 38.0509C55.3534 38.1752 55.254 38.2675 55.1688 38.3491L54.9665 38.5301C54.9381 38.5585 54.8991 38.5727 54.86 38.5727H53.3054V40.5639H55.2611C55.6977 40.5639 56.113 40.4113 56.4502 40.1238C56.5638 40.0244 57.0642 39.5914 57.657 38.9383C57.6783 38.9135 57.7031 38.8993 57.7315 38.8922L63.1302 37.3304C63.2332 37.302 63.3326 37.3766 63.3326 37.483V38.626Z" fill="#3B3B3B"/>
</g>
<defs>
<clipPath id="clip0_420_8026">
<rect width="36.4045" height="36.4045" fill="white" transform="translate(34 17.7979)"/>
</clipPath>
</defs>
</svg>
