<?xml version="1.0" encoding="UTF-8"?>
<svg width="214px" height="80px" viewBox="0 0 214 80" version="1.1" xmlns="http://www.w3.org/2000/svg" xmlns:xlink="http://www.w3.org/1999/xlink">
    <!-- Generator: Sketch 63.1 (92452) - https://sketch.com -->
    <title>logo/oracle</title>
    <desc>Created with Sketch.</desc>
    <defs>
        <rect id="path-1" x="0" y="0.63625" width="214" height="79"></rect>
    </defs>
    <g id="logo/oracle" stroke="none" stroke-width="1" fill="none" fill-rule="evenodd">
        <g id="logo/cogne" transform="translate(0.000000, -1.000000)">
            <mask id="mask-2" fill="white">
                <use xlink:href="#path-1"></use>
            </mask>
            <g id="Mask"></g>
            <g id="Oracle_logo" mask="url(#mask-2)" fill-rule="nonzero">
                <g transform="translate(41.000000, 33.000000)">
                    <path d="M55.1697876,10.8093876 L63.6012948,10.8093876 L59.1430145,3.63668148 L50.960533,16.6052486 L47.2365434,16.6052486 L57.1891683,1.02723496 C57.621901,0.397817778 58.3430856,0.017554963 59.1430145,0.017554963 C59.9166193,0.017554963 60.6378163,0.384711704 61.057443,1.00101037 L71.0493985,16.6052486 L67.3253985,16.6052486 L65.5682637,13.7073191 L57.0317834,13.7073191 L55.1697876,10.8093876 Z M93.8525778,13.7073191 L93.8525778,0.174908741 L90.6923941,0.174908741 L90.6923941,15.031717 C90.6923941,15.4382148 90.8497748,15.8315941 91.1513452,16.1331852 C91.4528948,16.4347867 91.8594133,16.6052486 92.3052563,16.6052486 L106.716255,16.6052486 L108.578255,13.7073191 L93.8525778,13.7073191 Z M41.5718136,11.281451 C44.6402569,11.281451 47.1316907,8.8031357 47.1316907,5.73473393 C47.1316907,2.66634252 44.6402569,0.174908741 41.5718136,0.174908741 L27.746936,0.174908741 L27.746936,16.6052486 L30.905867,16.6052486 L30.905867,3.0728403 L41.3620003,3.0728403 C42.8306895,3.0728403 44.010819,4.26609659 44.010819,5.73473393 C44.010819,7.20336919 42.8306895,8.39663793 41.3620003,8.39663793 L32.4531967,8.38351941 L41.8864797,16.6052486 L46.4760385,16.6052486 L40.1294444,11.281451 L41.5718136,11.281451 Z M8.30073689,16.6052486 C3.76496711,16.6052486 0.0841783704,12.9336646 0.0841783704,8.39663793 C0.0841783704,3.85960089 3.76496711,0.174908741 8.30073689,0.174908741 L17.8507218,0.174908741 C22.3877484,0.174908741 26.0659176,3.85960089 26.0659176,8.39663793 C26.0659176,12.9336646 22.3877484,16.6052486 17.8507218,16.6052486 L8.30073689,16.6052486 Z M17.6382889,13.7073191 C20.5769221,13.7073191 22.9568951,11.3338981 22.9568951,8.39663793 C22.9568951,5.45936533 20.5769221,3.0728403 17.6382889,3.0728403 L8.51180711,3.0728403 C5.57453659,3.0728403 3.19319881,5.45936533 3.19319881,8.39663793 C3.19319881,11.3338981 5.57453659,13.7073191 8.51180711,13.7073191 L17.6382889,13.7073191 Z M77.64512,16.6052486 C73.108083,16.6052486 69.4234281,12.9336646 69.4234281,8.39663793 C69.4234281,3.85960089 73.108083,0.174908741 77.64512,0.174908741 L88.9876919,0.174908741 L87.1388,3.0728403 L77.8549333,3.0728403 C74.9176504,3.0728403 72.5311793,5.45936533 72.5311793,8.39663793 C72.5311793,11.3338981 74.9176504,13.7073191 77.8549333,13.7073191 L89.249917,13.7073191 L87.3879378,16.6052486 L77.64512,16.6052486 Z M116.288584,13.7073191 C113.862684,13.7073191 111.803979,12.081328 111.174539,9.83903822 L124.680764,9.83903822 L126.542764,6.94110874 L111.174539,6.94110874 C111.803979,4.71193541 113.862684,3.0728403 116.288584,3.0728403 L125.559342,3.0728403 L127.43445,0.174908741 L116.07877,0.174908741 C111.541733,0.174908741 107.857079,3.85960089 107.857079,8.39663793 C107.857079,12.9336646 111.541733,16.6052486 116.07877,16.6052486 L125.821588,16.6052486 L127.683567,13.7073191 L116.288584,13.7073191" id="path16197" fill="#FFFFFF"></path>
                    <path d="M129.126044,1.91891259 C129.126044,1.11902311 129.768489,0.476499852 130.568418,0.476499852 C131.381455,0.476499852 132.023899,1.11902311 132.023899,1.91891259 C132.023899,2.7318957 131.381455,3.37443141 130.568418,3.37443141 C129.768489,3.37443141 129.126044,2.7318957 129.126044,1.91891259 Z M130.568418,3.78092711 C131.591164,3.78092711 132.41731,2.95481511 132.41731,1.93201867 C132.41731,0.909222222 131.591164,0.0831205926 130.568418,0.0831205926 C129.558676,0.0831205926 128.732634,0.909222222 128.732634,1.93201867 C128.732634,2.95481511 129.558676,3.78092711 130.568418,3.78092711 Z M130.397929,0.830550519 C130.686391,0.830550519 130.804447,0.843656593 130.935612,0.896103704 C131.302723,1.01412889 131.342027,1.34194252 131.342027,1.47307378 C131.342027,1.49929837 131.342027,1.56486193 131.31581,1.64353363 C131.302723,1.72221778 131.25029,1.87957156 131.066693,1.9975843 C131.040477,2.01070074 131.027369,2.02380889 130.974936,2.05003141 L131.446996,2.902368 L130.988044,2.902368 L130.568418,2.11559704 L130.279976,2.11559704 L130.279976,2.902368 L129.873458,2.902368 L129.873458,0.830550519 L130.397929,0.830550519 Z M130.542201,1.77466489 C130.673283,1.76155881 130.804447,1.76155881 130.883096,1.64353363 C130.9224,1.59108652 130.935612,1.53863941 130.935612,1.45995526 C130.935612,1.35506104 130.869988,1.26327081 130.778231,1.21081333 C130.686391,1.17148267 130.594634,1.17148267 130.397929,1.17148267 L130.279976,1.17148267 L130.279976,1.77466489 L130.542201,1.77466489" id="path16199" fill="#111111"></path>
                </g>
            </g>
        </g>
    </g>
</svg>