<?xml version="1.0" encoding="UTF-8"?>
<svg width="100px" height="100px" viewBox="0 0 100 100" version="1.1" xmlns="http://www.w3.org/2000/svg" xmlns:xlink="http://www.w3.org/1999/xlink">
    <!-- Generator: Sketch 63.1 (92452) - https://sketch.com -->
    <title>icon/design/osserviamo@1x</title>
    <desc>Created with Sketch.</desc>
    <defs>
        <rect id="path-1" x="0" y="0" width="100" height="100"></rect>
    </defs>
    <g id="icon/design/osserviamo" stroke="none" stroke-width="1" fill="none" fill-rule="evenodd">
        <g id="Group">
            <g id="icon/advantage/1">
                <mask id="mask-2" fill="white">
                    <use xlink:href="#path-1"></use>
                </mask>
                <g id="Mask"></g>
                <g id="Group-13" mask="url(#mask-2)">
                    <g transform="translate(15.000000, 11.000000)">
                        <g id="Group-10" transform="translate(8.000000, 44.000000)">
                            <polygon id="Stroke-2" stroke="#36F2B9" stroke-width="0.5" points="62 22.7614571 53.4169755 28 53 27.2385429 61.5830245 22"></polygon>
                            <polygon id="Stroke-5" stroke="#36F2B9" stroke-width="0.5" points="39 22.7614571 30.4169755 28 30 27.2385429 38.5830245 22"></polygon>
                            <polygon id="Stroke-7" stroke="#36F2B9" stroke-width="0.5" points="15 22.7614571 6.41697554 28 6 27.2385429 14.5830245 22"></polygon>
                            <polygon id="Stroke-24" stroke="#36F2B9" stroke-width="0.5" points="62 0.764533177 53.4169755 6 53 5.23546682 61.5830245 0"></polygon>
                            <polygon id="Stroke-27" stroke="#36F2B9" stroke-width="0.5" points="33 0.764533177 24.4169755 6 24 5.23546682 32.5830245 0"></polygon>
                            <polygon id="Stroke-30" stroke="#36F2B9" stroke-width="0.5" points="9 0.764533177 0.416975537 6 0 5.23546682 8.58302446 0"></polygon>
                            <polygon id="Fill-53" fill="#FFFFFF" points="55.5830245 28 47 33.2385429 47.4169755 34 56 28.7614571"></polygon>
                            <polygon id="Fill-54" fill="#FFFFFF" points="32.5830245 28 24 33.2385429 24.4169755 34 33 28.7614571"></polygon>
                            <polygon id="Fill-55" fill="#FFFFFF" points="8.58302446 28 0 33.2385429 0.416975537 34 9 28.7614571"></polygon>
                            <polygon id="Fill-63" fill="#FFFFFF" points="47 11.2354668 47.4169755 12 56 6.76453318 55.5830245 6"></polygon>
                            <polygon id="Fill-64" fill="#FFFFFF" points="33 6.76453318 24.4169755 12 24 11.2354668 32.5830245 6"></polygon>
                            <polygon id="Fill-65" fill="#FFFFFF" points="9 6.76453318 0.416975537 12 0 11.2354668 8.58302446 6"></polygon>
                        </g>
                        <g id="Group-9">
                            <g id="Group-8" transform="translate(8.000000, 44.000000)"></g>
                            <g id="Group-3"></g>
                        </g>
                    </g>
                </g>
            </g>
            <g id="005-search" transform="translate(11.000000, 12.000000)" fill="#7878F9" fill-rule="nonzero">
                <path d="M32.818491,37.983717 C32.619447,33.401259 30.989304,28.243899 28.228338,23.461542 C25.825446,19.299573 22.80285,15.781077 19.487502,13.286529 C16.512102,11.047797 13.499766,9.814716 11.00556,9.814716 C9.882945,9.814716 8.920899,10.055142 8.064189,10.549845 C5.647275,11.945376 4.375035,15.370164 4.573737,19.946124 C4.772781,24.528582 6.402924,29.685942 9.16389,34.468128 C11.566953,38.630097 14.589378,42.148593 17.904555,44.64297 C20.880126,46.881702 23.892633,48.114954 26.386839,48.114954 C26.386839,48.114954 26.387865,48.114954 26.387865,48.114954 C27.509112,48.114954 28.470816,47.874528 29.327868,47.379825 C31.744953,45.984636 33.017193,42.559677 32.818491,37.983717 Z M28.04571,45.158535 C27.589311,45.422046 27.04707,45.550125 26.388036,45.550125 L26.387352,45.550125 C24.445647,45.550125 21.980853,44.499843 19.446975,42.593364 C16.404885,40.3047 13.617243,37.051596 11.38518,33.185799 C8.826678,28.754163 7.317603,24.012846 7.136172,19.834974 C6.985008,16.352388 7.831971,13.6458 9.346518,12.771306 C9.802746,12.507795 10.345329,12.379887 11.005389,12.379887 C12.946752,12.379887 15.411375,13.429827 17.945082,15.336306 C20.987172,17.625312 23.774814,20.878416 26.006706,24.744213 C28.565208,29.175849 30.074112,33.917166 30.255543,38.095209 C30.407049,41.577624 29.560086,44.284212 28.04571,45.158535 Z" id="Shape"></path>
                <path d="M76.232313,48.929085 C76.206321,48.914037 76.179645,48.901212 76.153482,48.886848 L46.222497,31.8915 C45.865278,26.805276 44.050968,21.208959 41.068557,16.044417 C37.680705,10.176894 33.14664,5.417109 28.301526,2.64195 C23.237532,-0.258723 18.403362,-0.675108 14.690097,1.469232 C14.690097,1.469232 5.804937,6.601626 5.789547,6.610518 C2.07594,8.754345 0.020007,13.149216 2.93668999e-05,18.985275 C-0.018639,24.568767 1.836711,30.875247 5.224392,36.742941 C8.612073,42.610464 13.145967,47.37042 17.99091,50.145921 C20.921679,51.824799 23.775156,52.671762 26.379144,52.671762 C28.274679,52.671762 30.038031,52.222887 31.60251,51.319665 C31.615335,51.312312 41.171157,45.759258 41.485968,45.522081 L69.000552,61.157637 C69.037488,61.180551 69.073398,61.204491 69.11136,61.226379 C69.767658,61.605315 70.487397,61.794954 71.207478,61.794954 C71.927046,61.794954 72.646785,61.605657 73.303083,61.226892 L73.330272,61.211331 C76.412718,59.433102 78.327576,56.117583 78.327576,52.559073 C78.327576,51.043842 77.544225,49.686957 76.232313,48.929085 Z M15.97311,3.69018 C18.862326,2.021733 22.787802,2.439657 27.026721,4.867515 C31.484691,7.421058 35.68257,11.845854 38.847267,17.326917 C41.354982,21.669633 42.978114,26.313309 43.521723,30.621825 C42.565662,30.448944 41.579847,30.616353 40.70655,31.119777 L40.674231,31.138245 C39.16242,32.010174 37.932417,33.252489 37.070406,34.711632 C36.405045,30.285981 34.722576,25.611867 32.167836,21.187071 C28.780155,15.319377 24.246261,10.559421 19.401489,7.784091 C17.195931,6.520743 15.03432,5.728842 12.989673,5.414202 L15.97311,3.69018 Z M19.265715,47.920185 C14.808087,45.366642 10.610208,40.941504 7.445511,35.460441 C4.280985,29.979207 2.547558,24.131349 2.56486964,18.993996 C2.581587,14.10921 4.182147,10.500255 7.072047,8.831808 C8.236044,8.159778 9.567792,7.826328 11.020608,7.826328 C13.174866,7.826328 15.594858,8.559747 18.126171,10.009827 C22.583799,12.563541 26.781678,16.988508 29.946204,22.469742 C33.11073,27.950976 34.844157,33.798834 34.8268454,38.936187 C34.810128,43.820802 33.209568,47.429928 30.319839,49.098375 C27.430281,50.76648 23.504292,50.348385 19.265715,47.920185 Z M36.240714,45.676323 C36.5769,44.810892 36.840582,43.876377 37.030905,42.879789 C37.3293,43.152192 37.670274,43.385607 38.049381,43.56909 L38.976201,44.09577 L36.240714,45.676323 Z M72.047601,58.98987 L72.020412,59.005431 C71.286651,59.429169 70.638561,59.146335 70.394031,59.005089 C70.149501,58.863843 69.580926,58.444038 69.580926,57.596391 C69.580926,56.294568 69.924978,55.010529 70.576146,53.883468 C70.930458,53.270262 70.720299,52.485714 70.106922,52.131402 C69.493716,51.777261 68.709168,51.987249 68.354856,52.600626 C67.56381,53.970336 67.110831,55.512072 67.030119,57.088179 C60.897375,53.605251 39.034512,41.18877 39.004245,41.169618 C38.609064,40.918419 38.241756,40.45347 38.241756,39.790845 C38.241756,37.145304 39.664647,34.681194 41.950404,33.363126 L41.982552,33.344829 C42.434847,33.084054 42.961527,33.053103 43.434684,33.257448 L71.638056,49.272795 C71.330598,49.672251 71.275707,50.233302 71.543664,50.696883 C71.898147,51.31026 72.682695,51.519906 73.29573,51.165594 L73.322748,51.150033 C74.05668,50.726637 74.704599,51.009129 74.9493,51.150375 C75.19383,51.291621 75.762405,51.711426 75.762405,52.558902 C75.762405,55.203759 74.339343,57.667698 72.047601,58.98987 Z" id="Shape"></path>
            </g>
        </g>
        <ellipse id="Oval" fill="#7878F9" transform="translate(82.618774, 66.336393) rotate(30.000000) translate(-82.618774, -66.336393) " cx="82.6187738" cy="66.3363925" rx="4.5" ry="6.5"></ellipse>
    </g>
</svg>