<?xml version="1.0" encoding="UTF-8"?>
<svg width="214px" height="80px" viewBox="0 0 214 80" version="1.1" xmlns="http://www.w3.org/2000/svg" xmlns:xlink="http://www.w3.org/1999/xlink">
    <!-- Generator: Sketch 63.1 (92452) - https://sketch.com -->
    <title>logo/ovh</title>
    <desc>Created with Sketch.</desc>
    <defs>
        <rect id="path-1" x="0" y="0.63625" width="214" height="79"></rect>
    </defs>
    <g id="logo/ovh" stroke="none" stroke-width="1" fill="none" fill-rule="evenodd">
        <g id="logo/cogne" transform="translate(0.000000, -1.000000)">
            <mask id="mask-2" fill="white">
                <use xlink:href="#path-1"></use>
            </mask>
            <g id="Mask"></g>
        </g>
        <g id="ovhLogoColor" transform="translate(51.000000, 26.000000)" fill="#FFFFFF">
            <path d="M44.839696,1.64914933 C49.6754374,10.3650478 48.7698028,21.1382251 42.5468267,28.9244853 L29.4026773,28.9244853 L33.4489173,21.7699973 L28.0968453,21.7699973 L34.4053013,10.6550987 L39.7880267,10.6550987 L44.839696,1.66141067 L44.839696,1.64914933 Z M18.8824533,28.9244853 L5.480816,28.9244853 C-0.863363755,21.1659312 -1.78643573,10.3058311 3.15729333,1.58784267 L11.8505787,16.6876747 L21.4328107,0 L35.533344,0 L18.888584,28.912224 L18.888584,28.912224 L18.888584,28.912224 L18.8824533,28.9244853 Z" id="Shape"></path>
            <path d="M55.9178107,15.4983253 C55.9178107,7.779816 59.7617387,4.07076267 66.0763253,4.07076267 C72.390912,4.07076267 76.2287093,7.779816 76.2287093,15.4983253 C76.2287093,23.2168347 72.3602587,26.8829733 66.0763253,26.8829733 C59.792392,26.8829733 55.9178107,23.1432667 55.9178107,15.4983253 Z M58.1984187,15.4983253 C58.1984187,21.8435653 61.0920933,24.865984 66.0763253,24.865984 C71.0605573,24.865984 73.9481013,21.8435653 73.9481013,15.4983253 C73.9481013,9.15308533 71.0544267,6.087752 66.0763253,6.087752 C61.098224,6.087752 58.1984187,9.11630133 58.1984187,15.4983253 Z" id="Shape" fill-rule="nonzero"></path>
            <path d="M92.824424,4.984232 C92.9895981,4.55224577 93.40415,4.26692646 93.8666373,4.26692646 C94.1608813,4.26528173 94.4434666,4.38185605 94.6509547,4.59049686 C94.8584428,4.79913766 94.9734497,5.08236439 94.9702261,5.37659467 C94.9647653,5.54238392 94.9316086,5.70609515 94.8720667,5.86091733 L87.2577787,25.9388507 C87.112955,26.3905217 86.6929519,26.6969173 86.2186307,26.6969173 C85.7443094,26.6969173 85.3243063,26.3905217 85.1794827,25.9388507 L77.5651947,5.86091733 C77.5056527,5.70609515 77.472496,5.54238392 77.4670352,5.37659467 C77.4638116,5.08236439 77.5788186,4.79913766 77.7863067,4.59049686 C77.9937948,4.38185605 78.27638,4.26528173 78.570624,4.26692646 C79.0331114,4.26692646 79.4476633,4.55224577 79.6128373,4.984232 L86.2155653,22.493416 L92.824424,4.984232 Z" id="Path" fill-rule="nonzero"></path>
            <path d="M99.59268,16.2094827 L99.59268,25.583272 C99.6235912,25.9982782 99.4196972,26.3956923 99.0645625,26.6126369 C98.7094278,26.8295815 98.2627615,26.8295815 97.9076268,26.6126369 C97.5524921,26.3956923 97.3485981,25.9982782 97.3795093,25.583272 L97.3795093,5.352072 C97.3485981,4.93706584 97.5524921,4.53965169 97.9076268,4.32270709 C98.2627615,4.10576248 98.7094278,4.10576248 99.0645625,4.32270709 C99.4196972,4.53965169 99.6235912,4.93706584 99.59268,5.352072 L99.59268,14.1924933 L110.922152,14.1924933 L110.922152,5.37659467 C110.891241,4.96158851 111.095135,4.56417436 111.450269,4.34722975 C111.805404,4.13028514 112.25207,4.13028514 112.607205,4.34722975 C112.96234,4.56417436 113.166234,4.96158851 113.135323,5.37659467 L113.135323,25.6077947 C113.166234,26.0228008 112.96234,26.420215 112.607205,26.6371596 C112.25207,26.8541042 111.805404,26.8541042 111.450269,26.6371596 C111.095135,26.420215 110.891241,26.0228008 110.922152,25.6077947 L110.922152,16.2094827 L99.59268,16.2094827 Z" id="Path" fill-rule="nonzero"></path>
        </g>
    </g>
</svg>