<?xml version="1.0" encoding="UTF-8"?>
<svg width="53px" height="53px" viewBox="0 0 53 53" version="1.1" xmlns="http://www.w3.org/2000/svg" xmlns:xlink="http://www.w3.org/1999/xlink">
    <!-- Generator: Sketch 63.1 (92452) - https://sketch.com -->
    <title>icon/php</title>
    <desc>Created with Sketch.</desc>
    <defs>
        <circle id="path-1" cx="26.5" cy="26.5" r="26.5"></circle>
        <rect id="path-3" x="0" y="0" width="52.6942308" height="52.6942308"></rect>
    </defs>
    <g id="icon/php" stroke="none" stroke-width="1" fill="none" fill-rule="evenodd">
        <g id="Group-6">
            <g id="Placeholders-/-Icon-/-80px-Copy">
                <g id="Group-12">
                    <mask id="mask-2" fill="white">
                        <use xlink:href="#path-1"></use>
                    </mask>
                    <use id="◼️-Background" fill="#FFFFFF" xlink:href="#path-1"></use>
                </g>
            </g>
            <g id="logo/php">
                <g>
                    <g id="g3478" transform="translate(26.729731, 25.930525) scale(1, -1) translate(-26.729731, -25.930525) translate(4.484615, 14.302396)" fill-rule="nonzero">
                        <g id="g3484" transform="translate(0.299345, 0.365210)" fill="#000000">
                            <path d="M7.33474204,7.51051871 C8.65554298,7.51051871 9.64157315,7.7562673 10.2654641,8.24069576 C10.8826772,8.72015402 11.308968,9.55083948 11.532404,10.7095579 C11.7407325,11.7926189 11.6613641,12.5488618 11.2965975,12.9569702 C10.9236204,13.373804 10.1172366,13.585203 8.89988842,13.585203 L6.78912482,13.585203 L5.61895977,7.51051871 L7.33474204,7.51051871 Z M0.4309982,0.0276122011 C0.333019184,0.0276122011 0.239966486,0.071791723 0.177675915,0.148222296 C0.115275871,0.22454242 0.0899874322,0.325050832 0.108707446,0.422135331 L3.20988017,16.520159 C3.23987598,16.6757814 3.37507608,16.7882183 3.5322804,16.7882183 L10.2160915,16.7882183 C12.316674,16.7882183 13.8801783,16.21278 14.8629242,15.0776977 C15.8509249,13.9366511 16.1560283,12.3416599 15.7696954,10.3371245 C15.6124911,9.52046606 15.3420909,8.76201412 14.9660485,8.08297487 C14.5895682,7.40316247 14.09201,6.77415653 13.4869485,6.2130766 C12.7626701,5.52917761 11.9429306,5.03326247 11.0526899,4.74145673 C10.1765714,4.4535167 9.0514001,4.30750338 7.70848547,4.30750338 L5.00207513,4.30750338 L4.22919037,0.295781899 C4.19919456,0.140049084 4.06410394,0.0276122011 3.90689961,0.0276122011 L0.4309982,0.0276122011 Z" id="path3486"></path>
                        </g>
                        <g id="g3488" transform="translate(0.024478, 0.033919)" fill="#FFFFFF">
                            <path d="M7.33474204,13.585203 L9.17477703,13.585203 C10.6440244,13.585203 11.1543911,13.2599312 11.3277975,13.0660936 C11.6154946,12.7442458 11.6697935,12.0656483 11.4848924,11.1037497 C11.2771112,10.0268738 10.8919825,9.26334124 10.3400158,8.83457898 C9.7749122,8.39565543 8.85620839,8.17321154 7.60963066,8.17321154 L6.29222341,8.17321154 L7.33474204,13.585203 Z M10.4909801,17.4509111 L3.80705954,17.4509111 C3.4926509,17.4509111 3.22236018,17.2260374 3.16236856,16.9146822 L0.0611958329,0.816658461 C0.0237558063,0.622379014 0.0743326843,0.421472638 0.199023299,0.268721942 C0.323823388,0.115971245 0.509709835,0.0276122011 0.705886816,0.0276122011 L4.18167876,0.0276122011 C4.49619687,0.0276122011 4.76648759,0.252485967 4.82647921,0.563841147 L5.54769236,4.30750338 L7.98337408,4.30750338 C9.36077295,4.30750338 10.520319,4.45903914 11.4294986,4.75780315 C12.364514,5.06429859 13.2247589,5.58396021 13.9861489,6.30231924 C14.6158419,6.88681431 15.1345286,7.54288021 15.5275394,8.25251378 C15.9206597,8.96236825 16.203102,9.75395483 16.3669842,10.6052942 C16.7736793,12.7153082 16.4432875,14.404954 15.3851141,15.6269596 C14.3372312,16.8372576 12.6905269,17.4509111 10.4909801,17.4509111 M5.4953639,7.51051871 L7.60963066,7.51051871 C9.01100429,7.51051871 10.0548366,7.77681078 10.7406897,8.30950536 C11.4266523,8.8423104 11.8892884,9.73153372 12.1296928,10.9776171 C12.3596972,12.1739986 12.2549308,13.0182692 11.8153936,13.5100978 C11.3753091,14.0019263 10.4952495,14.2478958 9.17477703,14.2478958 L6.79328482,14.2478958 L5.4953639,7.51051871 M10.4909801,16.7882183 C12.5016847,16.7882183 13.9685236,16.2558551 14.8905116,15.1910181 C15.8123902,14.1261812 16.0900156,12.6398716 15.7221838,10.7316476 C15.5707816,9.94558351 15.3147224,9.22689313 14.9542253,8.57579743 C14.5932904,7.92425993 14.1220058,7.32849908 13.5396054,6.78829398 C12.8455417,6.13300122 12.074518,5.66602367 11.2260964,5.38791358 C10.3776747,5.10903035 9.29705923,4.97019621 7.98337408,4.97019621 L5.00612566,4.97019621 L4.18167876,0.690305029 L0.705886816,0.690305029 L3.80705954,16.7882183 L10.4909801,16.7882183" id="path3490"></path>
                        </g>
                        <g id="g3492" transform="translate(15.171202, 4.672713)" fill="#000000">
                            <path d="M8.86737471,0 C8.76928622,0 8.676343,0.0441795218 8.61405243,0.120610095 C8.55154291,0.196930219 8.52625447,0.297328182 8.54497448,0.39452313 L9.91679019,7.51725609 C10.0472829,8.19463861 10.0150976,8.68083424 9.82625539,8.88626902 C9.7106511,9.01184931 9.36340033,9.22247518 8.33664591,9.22247518 L5.85137257,9.22247518 L4.12661345,0.268169698 C4.09661764,0.112436883 3.96141755,0 3.80421322,0 L0.355789726,0 C0.257701235,0 0.164758012,0.0441795218 0.102357967,0.120610095 C0.0399579231,0.196930219 0.0146694841,0.297438631 0.0333894974,0.39452313 L3.13456222,16.4925468 C3.16455803,16.6481692 3.29975813,16.7606061 3.45696245,16.7606061 L6.90538595,16.7606061 C7.00347444,16.7606061 7.09641766,16.7164266 7.15881771,16.6401064 C7.22121775,16.5636759 7.24650619,16.4632779 7.22778618,16.366083 L6.47942354,12.4807149 L9.15299175,12.4807149 C11.1897511,12.4807149 12.5708721,12.1184428 13.3752853,11.3731343 C14.1952438,10.6128047 14.4510839,9.39709474 14.1357995,7.75935987 L12.6929353,0.268169698 C12.6629395,0.112436883 12.5278489,0 12.3705351,0 L8.86737471,0 Z" id="path3494"></path>
                        </g>
                        <g id="g3496" transform="translate(14.851331, 4.313810)" fill="#FFFFFF">
                            <path d="M7.22526828,17.4509111 L3.77684478,17.4509111 C3.46232667,17.4509111 3.19203595,17.2260374 3.13204433,16.9146822 L0.0308716008,0.816658461 C-0.00656842571,0.622379014 0.0440084523,0.421472638 0.168808541,0.268721942 C0.293608629,0.115971245 0.479495077,0.0276122011 0.675672058,0.0276122011 L4.12409556,0.0276122011 C4.4385042,0.0276122011 4.70890439,0.252485967 4.76889601,0.563841147 L6.44198352,9.25008738 L8.65652824,9.25008738 C9.68153108,9.25008738 9.89664702,9.02918977 9.90529545,9.01969118 C9.96747654,8.95220696 10.0492534,8.63963684 9.91427229,7.93939142 L8.54245659,0.816658461 C8.50501656,0.622379014 8.55559344,0.421472638 8.68039352,0.268721942 C8.80519361,0.115971245 8.99108006,0.0276122011 9.18725704,0.0276122011 L12.6904174,0.0276122011 C13.0048261,0.0276122011 13.2752263,0.252485967 13.3352179,0.563841147 L14.7779726,8.05503132 C15.1165749,9.81348674 14.8269074,11.1325768 13.9173993,11.9759639 C13.0494914,12.7801416 11.5956798,13.1710199 9.47287409,13.1710199 L7.19757142,13.1710199 L7.87006874,16.6617544 C7.90739929,16.8560339 7.85693189,17.0570507 7.7321318,17.2096909 C7.60733171,17.3624416 7.42144526,17.4509111 7.22526828,17.4509111 M7.22526828,16.7882183 L6.40082138,12.5083271 L9.47287409,12.5083271 C11.4058523,12.5083271 12.7391332,12.1679239 13.4729359,11.4880011 C14.2067385,10.8076364 14.4265618,9.70524691 14.1332816,8.18138475 L12.6904174,0.690305029 L9.18725704,0.690305029 L10.5590728,7.81292754 C10.7151823,8.62317997 10.6578181,9.17586579 10.3867611,9.4705432 C10.1155945,9.76522061 9.53877729,9.91278021 8.65652824,9.91278021 L5.90041682,9.91278021 L4.12409556,0.690305029 L0.675672058,0.690305029 L3.77684478,16.7882183 L7.22526828,16.7882183" id="path3498"></path>
                        </g>
                        <g id="g3500" transform="translate(27.428629, 0.365210)" fill="#000000">
                            <path d="M7.33474204,7.51051871 C8.65554298,7.51051871 9.64157315,7.7562673 10.2654641,8.24069576 C10.8826772,8.72004357 11.308968,9.55072903 11.5325134,10.7095579 C11.740842,11.7926189 11.6614735,12.5488618 11.2965975,12.9569702 C10.9236204,13.373804 10.1172366,13.585203 8.89988842,13.585203 L6.78912482,13.585203 L5.61895977,7.51051871 L7.33474204,7.51051871 Z M0.431107674,0.0276122011 C0.333128657,0.0276122011 0.24007596,0.071791723 0.177785389,0.148222296 C0.115385345,0.22454242 0.0899874322,0.325050832 0.108707446,0.422135331 L3.20988017,16.520159 C3.23998546,16.6757814 3.37507608,16.7882183 3.53238987,16.7882183 L10.2160915,16.7882183 C12.3167835,16.7882183 13.8801783,16.21278 14.8630337,15.0776977 C15.8510344,13.9367615 16.1560283,12.3417703 15.7698049,10.3371245 C15.6123816,9.52046606 15.3420909,8.76201412 14.9660485,8.08297487 C14.5895682,7.40316247 14.09201,6.77415653 13.4869485,6.2130766 C12.7626701,5.52917761 11.9429306,5.03326247 11.0526899,4.74145673 C10.1765714,4.4535167 9.0514001,4.30750338 7.70848547,4.30750338 L5.00196565,4.30750338 L4.22940932,0.295781899 C4.19930403,0.140049084 4.06421341,0.0276122011 3.90689961,0.0276122011 L0.431107674,0.0276122011 Z" id="path3502"></path>
                        </g>
                        <g id="g3504" transform="translate(27.153773, 0.033919)" fill="#FFFFFF">
                            <path d="M7.33474204,13.585203 L9.17477703,13.585203 C10.6440244,13.585203 11.1543911,13.2599312 11.3277975,13.0660936 C11.615604,12.7442458 11.669903,12.0656483 11.4848924,11.1038601 C11.2771112,10.0268738 10.891873,9.26334124 10.3400158,8.83457898 C9.7749122,8.39565543 8.85620839,8.17321154 7.60963066,8.17321154 L6.29233288,8.17321154 L7.33474204,13.585203 Z M10.4909801,17.4509111 L3.80716902,17.4509111 C3.49276037,17.4509111 3.22246965,17.2260374 3.16247803,16.9146822 L0.0613053066,0.816658461 C0.0238652801,0.622379014 0.0744421581,0.421472638 0.199132773,0.268721942 C0.323932861,0.115971245 0.509819309,0.0276122011 0.70599629,0.0276122011 L4.18178823,0.0276122011 C4.49619687,0.0276122011 4.76659706,0.252485967 4.82658869,0.563841147 L5.54769236,4.30750338 L7.98337408,4.30750338 C9.36077295,4.30750338 10.520319,4.45903914 11.4294986,4.75780315 C12.364514,5.06429859 13.2249778,5.58407066 13.9863678,6.30254014 C14.6160609,6.88692476 15.1345286,7.54288021 15.5275394,8.25251378 C15.9206597,8.96236825 16.203102,9.75395483 16.3669842,10.6052942 C16.7736793,12.7154186 16.4432875,14.4050644 15.3851141,15.62707 C14.3372312,16.8372576 12.6906364,17.4509111 10.4909801,17.4509111 M5.49547337,7.51051871 L7.60963066,7.51051871 C9.01100429,7.51051871 10.0548366,7.77681078 10.7406897,8.30950536 C11.4267618,8.8423104 11.8892884,9.73153372 12.1296928,10.9776171 C12.3598067,12.1739986 12.2550403,13.0182692 11.8153936,13.5100978 C11.3753091,14.0019263 10.4952495,14.2478958 9.17477703,14.2478958 L6.79328482,14.2478958 L5.49547337,7.51051871 M10.4909801,16.7882183 C12.5016847,16.7882183 13.9685236,16.2558551 14.8905116,15.1910181 C15.8124996,14.1261812 16.0900156,12.6398716 15.7221838,10.7316476 C15.5707816,9.94558351 15.3147224,9.22689313 14.9542253,8.57579743 C14.5932904,7.92425993 14.1220058,7.32849908 13.5396054,6.78829398 C12.8455417,6.13300122 12.074518,5.66602367 11.2260964,5.38791358 C10.3776747,5.10903035 9.29705923,4.97019621 7.98337408,4.97019621 L5.00612566,4.97019621 L4.18178823,0.690305029 L0.70599629,0.690305029 L3.80716902,16.7882183 L10.4909801,16.7882183" id="path3506"></path>
                        </g>
                    </g>
                    <mask id="mask-4" fill="white">
                        <use xlink:href="#path-3"></use>
                    </mask>
                    <g id="Mask"></g>
                </g>
            </g>
        </g>
    </g>
</svg>