<?xml version="1.0" encoding="UTF-8"?>
<svg width="100px" height="100px" viewBox="0 0 100 100" version="1.1" xmlns="http://www.w3.org/2000/svg" xmlns:xlink="http://www.w3.org/1999/xlink">
    <!-- Generator: Sketch 63.1 (92452) - https://sketch.com -->
    <title>icon/design/prototipo@1x</title>
    <desc>Created with Sketch.</desc>
    <defs>
        <rect id="path-1" x="0" y="0" width="100" height="100"></rect>
    </defs>
    <g id="icon/design/prototipo" stroke="none" stroke-width="1" fill="none" fill-rule="evenodd">
        <g id="Group">
            <g id="icon/advantage/1">
                <mask id="mask-2" fill="white">
                    <use xlink:href="#path-1"></use>
                </mask>
                <g id="Mask"></g>
                <g id="Group-13" mask="url(#mask-2)">
                    <g transform="translate(15.000000, 11.000000)">
                        <g id="Group-10" transform="translate(8.000000, 44.000000)">
                            <polygon id="Stroke-2" stroke="#36F2B9" stroke-width="0.5" points="62 22.7614571 53.4169755 28 53 27.2385429 61.5830245 22"></polygon>
                            <polygon id="Stroke-5" stroke="#36F2B9" stroke-width="0.5" points="39 22.7614571 30.4169755 28 30 27.2385429 38.5830245 22"></polygon>
                            <polygon id="Stroke-7" stroke="#36F2B9" stroke-width="0.5" points="15 22.7614571 6.41697554 28 6 27.2385429 14.5830245 22"></polygon>
                            <polygon id="Stroke-24" stroke="#36F2B9" stroke-width="0.5" points="62 0.764533177 53.4169755 6 53 5.23546682 61.5830245 0"></polygon>
                            <polygon id="Stroke-27" stroke="#36F2B9" stroke-width="0.5" points="33 0.764533177 24.4169755 6 24 5.23546682 32.5830245 0"></polygon>
                            <polygon id="Stroke-30" stroke="#36F2B9" stroke-width="0.5" points="9 0.764533177 0.416975537 6 0 5.23546682 8.58302446 0"></polygon>
                            <polygon id="Fill-53" fill="#FFFFFF" points="55.5830245 28 47 33.2385429 47.4169755 34 56 28.7614571"></polygon>
                            <polygon id="Fill-54" fill="#FFFFFF" points="32.5830245 28 24 33.2385429 24.4169755 34 33 28.7614571"></polygon>
                            <polygon id="Fill-55" fill="#FFFFFF" points="8.58302446 28 0 33.2385429 0.416975537 34 9 28.7614571"></polygon>
                            <polygon id="Fill-63" fill="#FFFFFF" points="47 11.2354668 47.4169755 12 56 6.76453318 55.5830245 6"></polygon>
                            <polygon id="Fill-64" fill="#FFFFFF" points="33 6.76453318 24.4169755 12 24 11.2354668 32.5830245 6"></polygon>
                            <polygon id="Fill-65" fill="#FFFFFF" points="9 6.76453318 0.416975537 12 0 11.2354668 8.58302446 6"></polygon>
                        </g>
                        <g id="Group-9">
                            <g id="Group-8" transform="translate(8.000000, 44.000000)"></g>
                            <g id="Group-3"></g>
                        </g>
                    </g>
                </g>
            </g>
            <g id="001-art-and-design" transform="translate(27.000000, 30.000000)" fill="#7878F9" fill-rule="nonzero">
                <path d="M36.0448,8.3421184 L36.0448,8.2505728 C36.0448,3.6569088 30.2874624,0.0585728 22.9376,0.0585728 C15.5877376,0.0585728 9.8304,3.6569088 9.8304,8.2505728 L9.8304,8.3419136 C3.6608,10.8955648 0,15.1156736 0,19.7193728 L0,34.4649728 C0,38.3291392 2.5085952,41.8906112 7.0639616,44.4936192 C11.3303552,46.9315584 16.96768,48.2742272 22.9376,48.2742272 C28.90752,48.2742272 34.5448448,46.9315584 38.8114432,44.4936192 C43.3666048,41.8906112 45.8752,38.3289344 45.8752,34.4649728 L45.8752,19.7193728 C45.8752,15.116288 42.2137856,10.8955648 36.0448,8.3421184 Z M22.9376,3.3353728 C28.7307776,3.3353728 32.768,5.9256832 32.768,8.2505728 C32.768,10.5754624 28.7307776,13.1657728 22.9376,13.1657728 C17.1444224,13.1657728 13.1072,10.5754624 13.1072,8.2505728 C13.1072,5.9256832 17.1444224,3.3353728 22.9376,3.3353728 Z M13.1072,13.7213952 C15.491072,15.3995264 18.982912,16.442368 22.9376,16.442368 C26.892288,16.442368 30.384128,15.3995264 32.768,13.7213952 L32.768,16.442368 C32.768,18.7672576 28.7307776,21.357568 22.9376,21.357568 C17.1444224,21.357568 13.1072,18.7672576 13.1072,16.442368 L13.1072,13.7213952 Z M42.5984,34.4649728 C42.5984,40.1741824 33.5947776,44.997632 22.9376,44.997632 C12.2804224,44.997632 3.2768,40.1743872 3.2768,34.4649728 L3.2768,26.9166592 C4.3112448,27.947008 5.5779328,28.8989184 7.0639616,29.7480192 C11.3303552,32.1859584 16.96768,33.5286272 22.9376,33.5286272 C28.90752,33.5286272 34.5448448,32.1859584 38.8114432,29.7480192 C40.297472,28.8989184 41.56416,27.9472128 42.5984,26.9166592 L42.5984,34.4649728 Z M22.9376,30.2518272 C12.2804224,30.2518272 3.2768,25.4285824 3.2768,19.719168 C3.2768,16.775168 5.6920064,13.9433984 9.8304,11.9318528 L9.8304,16.442368 C9.8304,21.036032 15.5877376,24.634368 22.9376,24.634368 C30.2874624,24.634368 36.0448,21.036032 36.0448,16.442368 L36.0448,11.9322624 C40.182784,13.9440128 42.5984,16.776192 42.5984,19.7193728 C42.5984,25.4285824 33.5947776,30.2518272 22.9376,30.2518272 Z" id="Shape"></path>
            </g>
        </g>
    </g>
</svg>