<?xml version="1.0" encoding="UTF-8"?>
<svg width="53px" height="53px" viewBox="0 0 53 53" version="1.1" xmlns="http://www.w3.org/2000/svg" xmlns:xlink="http://www.w3.org/1999/xlink">
    <!-- Generator: Sketch 63.1 (92452) - https://sketch.com -->
    <title>icon/react</title>
    <desc>Created with Sketch.</desc>
    <defs>
        <circle id="path-1" cx="26.5" cy="26.5" r="26.5"></circle>
        <rect id="path-3" x="0" y="0" width="52.6942308" height="52.6942308"></rect>
    </defs>
    <g id="icon/react" stroke="none" stroke-width="1" fill="none" fill-rule="evenodd">
        <g id="Group-6">
            <g id="Placeholders-/-Icon-/-80px-Copy">
                <g id="Group-12">
                    <mask id="mask-2" fill="white">
                        <use xlink:href="#path-1"></use>
                    </mask>
                    <use id="◼️-Background" fill="#FFFFFF" xlink:href="#path-1"></use>
                </g>
            </g>
            <g id="logo/react">
                <g stroke-width="1" fill-rule="evenodd" transform="translate(8.663462, 12.740385)" id="React-icon">
                    <g transform="translate(0.145044, 0.356731)" fill-rule="nonzero">
                        <path d="M33.9991864,14.9351134 C33.9991864,12.7363837 31.2088708,10.6526645 26.9308439,9.36048801 C27.9180808,5.05774315 27.4793088,1.63449016 25.5459698,0.538507976 C25.100342,0.281425736 24.5793002,0.159649937 24.0102678,0.159649937 L24.0102678,1.66831677 C24.3256352,1.66831677 24.5793002,1.72920467 24.7918304,1.84421514 C25.7242209,2.37191027 26.1287138,4.38121094 25.8133464,6.96556398 C25.7379325,7.60150426 25.6145279,8.27127115 25.4637,8.95456868 C24.1199608,8.62983322 22.652817,8.3795163 21.1102592,8.21714857 C20.1847245,6.96556398 19.2249108,5.82898987 18.2582412,4.83448752 C20.4932361,2.78459492 22.5911146,1.66155145 24.0171236,1.66155145 L24.0171236,0.152884615 C24.0171236,0.152884615 24.0171236,0.152884615 24.0171236,0.152884615 C22.1317752,0.152884615 19.6636828,1.47888775 17.1681671,3.77909727 C14.6726514,1.49241839 12.2045589,0.179945904 10.3192105,0.179945904 L10.3192105,1.68861273 C11.7383637,1.68861273 13.8430981,2.80489088 16.0780929,4.84125284 C15.1182792,5.83575519 14.1584655,6.96556398 13.2466424,8.21714857 C11.6972288,8.3795163 10.230085,8.62983322 8.88634576,8.96133401 C8.72866207,8.28480179 8.61211326,7.62856555 8.52984351,6.99939059 C8.20762033,4.41503755 8.60525745,2.40573688 9.53079212,1.87127643 C9.73646649,1.74950063 10.0038432,1.69537806 10.3192105,1.69537806 L10.3192105,0.186711226 C10.3192105,0.186711226 10.3192105,0.186711226 10.3192105,0.186711226 C9.7433223,0.186711226 9.22228056,0.308487024 8.76979695,0.565569264 C6.84331368,1.66155145 6.4113975,5.07803911 7.40549029,9.36725333 C3.14117501,10.6661952 0.364571006,12.7431491 0.364571006,14.9351134 C0.364571006,17.1338431 3.15488663,19.2175623 7.43291354,20.5097389 C6.44567656,24.8124837 6.88444855,28.2357367 8.81778763,29.3317189 C9.26341544,29.5888011 9.78445717,29.7105769 10.3603454,29.7105769 C12.2456938,29.7105769 14.7137863,28.3845738 17.2093019,26.0843643 C19.7048176,28.3710431 22.1729101,29.6835156 24.0582585,29.6835156 C24.6341467,29.6835156 25.1551885,29.5617398 25.6076721,29.3046576 C27.5341553,28.2086754 27.9660715,24.7921877 26.9719787,20.5029735 C31.2225824,19.210797 33.9991864,17.1270778 33.9991864,14.9351134 Z M25.0729187,10.4226436 C24.8192537,11.2953701 24.5038863,12.195158 24.147384,13.0949458 C23.8662957,12.55372 23.5714958,12.0124943 23.2492726,11.4712685 C22.9339053,10.9300427 22.5979705,10.4023476 22.2620356,9.88818313 C23.235561,10.0302549 24.1748073,10.2061533 25.0729187,10.4226436 Z M21.9329567,17.6277116 C21.3982033,18.5410301 20.8497383,19.4069913 20.2807059,20.2120647 C19.2591898,20.3000139 18.2239622,20.3473711 17.1818787,20.3473711 C16.146651,20.3473711 15.1114234,20.3000139 14.0967631,20.21883 C13.5277307,19.4137567 12.9724099,18.5545608 12.4376566,17.6480076 C11.9166148,16.7617504 11.4435638,15.8619626 11.0116476,14.9554094 C11.4367079,14.0488562 11.9166148,13.1423031 12.4308007,12.2560459 C12.9655541,11.3427274 13.5140191,10.4767662 14.0830515,9.67169283 C15.1045676,9.58374364 16.1397952,9.53638638 17.1818787,9.53638638 C18.2171064,9.53638638 19.252334,9.58374364 20.2669943,9.6649275 C20.8360267,10.4700008 21.3913475,11.3291967 21.9261008,12.2357499 C22.4471426,13.1220071 22.9201936,14.0217949 23.3521098,14.9283481 C22.9201936,15.8349013 22.4471426,16.7414544 21.9329567,17.6277116 Z M24.147384,16.7482198 C24.5175979,17.6547729 24.8329653,18.5613261 25.0934861,19.440818 C24.1953747,19.6573083 23.2492726,19.839972 22.2688915,19.9820437 C22.6048263,19.4611139 22.9407611,18.9266535 23.2561284,18.3786624 C23.5714958,17.8374366 23.8662957,17.2894455 24.147384,16.7482198 Z M17.1955903,23.9668184 C16.5579998,23.3173475 15.9204092,22.5934581 15.2896745,21.8019154 C15.9066976,21.8289767 16.5374323,21.8492726 17.1750229,21.8492726 C17.8194692,21.8492726 18.4570598,21.835742 19.0809387,21.8019154 C18.4639156,22.5934581 17.8263251,23.3173475 17.1955903,23.9668184 Z M12.0948659,19.9820437 C11.1213406,19.839972 10.1820943,19.6640736 9.28398287,19.4475833 C9.53764793,18.5748567 9.8530153,17.6750689 10.2095175,16.775281 C10.4906058,17.3165068 10.7854058,17.8577326 11.107629,18.3989584 C11.4298521,18.9401841 11.7589311,19.4678792 12.0948659,19.9820437 Z M17.1613113,5.90340841 C17.7989018,6.55287933 18.4364924,7.2767688 19.0672271,8.06831149 C18.450204,8.0412502 17.8194692,8.02095423 17.1818787,8.02095423 C16.5374323,8.02095423 15.8998418,8.03448488 15.2759629,8.06831149 C15.892986,7.2767688 16.5305765,6.55287933 17.1613113,5.90340841 Z M12.0880101,9.88818313 C11.7520753,10.4091129 11.4161405,10.9435734 11.1007731,11.4915645 C10.7854058,12.0327902 10.4906058,12.574016 10.2095175,13.1152418 C9.83930367,12.2086886 9.5239363,11.3021355 9.26341544,10.4226436 C10.1615269,10.2129186 11.107629,10.0302549 12.0880101,9.88818313 Z M5.88349995,18.3583664 C3.45654238,17.3368028 1.88656135,15.997269 1.88656135,14.9351134 C1.88656135,13.8729579 3.45654238,12.5266588 5.88349995,11.5118604 C6.47309981,11.2615435 7.11754617,11.0382879 7.78255997,10.8285629 C8.17334127,12.154566 8.6875272,13.5346918 9.32511775,14.9486441 C8.69438301,16.3558311 8.1870529,17.7291915 7.8031274,19.0484293 C7.12440198,18.8387043 6.47995562,18.6086833 5.88349995,18.3583664 Z M9.57192699,28.0260117 C8.63953651,27.4983166 8.23504358,25.4890159 8.55041095,22.9046629 C8.62582489,22.2687226 8.74922951,21.5989557 8.90005738,20.9156582 C10.2437966,21.2403936 11.7109404,21.4907106 13.2534982,21.6530783 C14.1790329,22.9046629 15.1388466,24.041237 16.1055162,25.0357393 C13.8705213,27.0856319 11.7726428,28.2086754 10.3466338,28.2086754 C10.0381222,28.2019101 9.77760136,28.1410222 9.57192699,28.0260117 Z M25.8339139,22.8708363 C26.1561371,25.4551893 25.7584999,27.46449 24.8329653,27.9989504 C24.6272909,28.1207262 24.3599142,28.1748488 24.0445469,28.1748488 C22.6253937,28.1748488 20.5206593,27.0585707 18.2856645,25.0222087 C19.2454782,24.0277063 20.2052919,22.8978976 21.117115,21.646313 C22.6665286,21.4839452 24.1336724,21.2336283 25.4774116,20.9021275 C25.6350953,21.5854251 25.7584999,22.2416613 25.8339139,22.8708363 Z M28.4734016,18.3583664 C27.8838018,18.6086833 27.2393554,18.831939 26.5743416,19.041664 C26.1835603,17.7156608 25.6693744,16.3355351 25.0317838,14.9215828 C25.6625186,13.5143958 26.1698487,12.1410354 26.5537742,10.8217976 C27.2324996,11.0315226 27.876946,11.2615435 28.4802574,11.5118604 C30.907215,12.5334241 32.477196,13.8729579 32.477196,14.9351134 C32.4703402,15.997269 30.9003592,17.3435681 28.4734016,18.3583664 Z" id="Shape" fill="#000000"></path>
                        <circle id="Oval" fill="#D1D1D1" cx="17.4366864" cy="14.6769231" r="3.3125"></circle>
                    </g>
                </g>
                <mask id="mask-4" fill="white">
                    <use xlink:href="#path-3"></use>
                </mask>
                <g id="Mask"></g>
            </g>
        </g>
    </g>
</svg>