<?xml version="1.0" encoding="UTF-8"?>
<svg width="214px" height="80px" viewBox="0 0 214 80" version="1.1" xmlns="http://www.w3.org/2000/svg" xmlns:xlink="http://www.w3.org/1999/xlink">
    <!-- Generator: Sketch 63.1 (92452) - https://sketch.com -->
    <title>logo/sketch@1x</title>
    <desc>Created with Sketch.</desc>
    <defs>
        <rect id="path-1" x="0" y="0.63625" width="214" height="79"></rect>
    </defs>
    <g id="logo/sketch" stroke="none" stroke-width="1" fill="none" fill-rule="evenodd">
        <g id="logo/cogne" transform="translate(0.000000, -1.000000)">
            <mask id="mask-2" fill="white">
                <use xlink:href="#path-1"></use>
            </mask>
            <g id="Mask"></g>
        </g>
        <g id="sketch-logo-monochrome-dark" transform="translate(50.000000, 26.000000)" fill="#FFFFFF" fill-rule="nonzero">
            <path d="M40.2005122,17.5974303 L40.1790467,17.3084231 L39.8911412,17.3084231 L38.1041895,17.3084231 L37.7809798,17.3084231 L37.794215,17.6335023 C37.9416719,21.2552966 40.3673123,23.6541787 44.6811646,23.6541787 C48.795535,23.6541787 51.5931932,21.5023882 51.5931932,18.2452965 C51.5931932,16.4841091 50.9862027,15.2377771 49.8295587,14.3866161 C48.9398304,13.7318752 47.8760054,13.3628203 46.1119362,12.9777912 C45.9940691,12.9520654 45.8712145,12.9257331 45.7239929,12.8945483 C45.636571,12.8760305 45.3229018,12.8099344 45.3395484,12.8134475 C42.135879,12.1373618 41.1196706,11.5500495 41.1196706,9.80094454 C41.1196706,7.9922411 42.5890389,6.84042472 45.0534462,6.84042472 C47.4511241,6.84042472 48.9664387,8.31451122 49.0370047,10.6349486 L49.0462111,10.9376842 L49.3470939,10.9376842 L51.1092271,10.9376842 L51.4267036,10.9376842 L51.419379,10.6181883 C51.3364593,7.00118486 48.9255774,4.56694536 45.0286274,4.56694536 C41.2092815,4.56694536 38.6874306,6.88037985 38.6874306,9.87589441 C38.6874306,11.6321026 39.2937782,12.8551144 40.4522459,13.6722482 C41.3347738,14.2947458 42.3571337,14.624754 44.1606196,14.9912919 C44.2450827,15.0084581 44.3332064,15.0261786 44.4381192,15.0471286 C44.5030598,15.0600965 44.5764042,15.0746957 44.7140505,15.1020875 C46.4204534,15.4419476 47.1733725,15.6517153 47.8602507,16.0537792 C48.7129415,16.5529014 49.1361345,17.265852 49.1361345,18.3702129 C49.1361345,20.2876214 47.5346132,21.3806993 44.7308022,21.3806993 C42.0466318,21.3806993 40.3808651,20.0256402 40.2005122,17.5974303 Z M56.6189949,4.25465422 L56.6189949,3.94236311 L56.3087602,3.94236311 L54.546627,3.94236311 L54.2363926,3.94236311 L54.2363926,4.25465422 L54.2363926,22.9921215 L54.2363926,23.3044126 L54.546627,23.3044126 L56.3087602,23.3044126 L56.6189949,23.3044126 L56.6189949,22.9921215 L56.6189949,19.6512236 L59.1269966,17.192457 L63.6058355,23.1799729 L63.6989202,23.3044126 L63.8536675,23.3044126 L66.0377196,23.3044126 L66.6627609,23.3044126 L66.2848121,22.8032859 L60.8150067,15.5508063 L65.8594663,10.4969741 L66.392115,9.96333593 L65.6406192,9.96333593 L63.2828357,9.96333593 L63.1536871,9.96333593 L63.0626902,10.0555883 L56.6189949,16.5881634 L56.6189949,4.25465422 Z M78.881435,17.4583228 L79.1728853,17.4583228 L79.1910656,17.1655119 C79.1942631,17.1140121 79.1990051,17.0288841 79.2037439,16.9263228 C79.207495,16.8451385 79.2105888,16.7660283 79.2128001,16.6912333 C79.2151968,16.6101801 79.2164885,16.5364499 79.2164885,16.4714829 C79.2164885,12.551695 76.6373148,9.66353646 72.8256541,9.66353646 C69.0211545,9.66353646 66.3107259,12.7378953 66.3107259,16.6213826 C66.3107259,20.617559 68.8983019,23.6042121 72.8504729,23.6042121 C75.8388252,23.6042121 78.1474691,21.8193624 78.979268,19.112051 L79.1035671,18.7074873 L78.6828848,18.7074873 L76.8462955,18.7074873 L76.6271921,18.7074873 L76.5539216,18.9153452 C76.0315835,20.3971475 74.6173957,21.3806993 72.8752918,21.3806993 C70.5977547,21.3806993 69.0100863,19.8062431 68.7240751,17.4583228 L78.881435,17.4583228 Z M68.7962699,15.3847098 C69.1984297,13.2824366 70.7343829,11.8870492 72.8256541,11.8870492 C74.9810984,11.8870492 76.4686158,13.2366468 76.7939846,15.3847098 L68.7962699,15.3847098 Z M87.0344022,12.0869155 L87.344637,12.0869155 L87.344637,11.7746244 L87.344637,10.275627 L87.344637,9.96333593 L87.0344022,9.96333593 L84.4408405,9.96333593 L84.4408405,6.65305005 L84.4408405,6.34075891 L84.1306057,6.34075891 L82.3684726,6.34075891 L82.0582382,6.34075891 L82.0582382,6.65305005 L82.0582382,9.96333593 L79.9610518,9.96333593 L79.650817,9.96333593 L79.650817,10.275627 L79.650817,11.7746244 L79.650817,12.0869155 L79.9610518,12.0869155 L82.0582382,12.0869155 L82.0582382,19.5694108 C82.0582382,22.0240168 83.3229969,23.3543792 85.6445507,23.3543792 C86.0497579,23.3543792 86.3990707,23.3299606 86.6923897,23.2889518 C86.873634,23.2636121 86.9987945,23.2373642 87.067797,23.2180697 L87.2949993,23.1545396 L87.2949993,22.9171716 L87.2949993,21.3182411 L87.2949993,20.9307665 L86.9188617,21.0130776 C86.9038275,21.0163675 86.8733715,21.022606 86.8298681,21.030817 C86.7561545,21.0447299 86.6740469,21.0586914 86.5859597,21.0717313 C86.3603748,21.1051254 86.1366299,21.1265287 85.9306384,21.1302851 C85.9094496,21.1306715 85.8885389,21.1308664 85.8679197,21.1308664 C84.8509287,21.1308664 84.4408405,20.6500147 84.4408405,19.4444944 L84.4408405,12.0869155 L87.0344022,12.0869155 Z M94.4428062,23.6042121 C97.7406925,23.6042121 100.069227,21.5034842 100.654,18.530808 L100.727366,18.157855 L100.349674,18.157855 L98.5627225,18.157855 L98.3241816,18.157855 L98.2629002,18.3899181 C97.7619461,20.2869512 96.4022464,21.3806993 94.4428062,21.3806993 C91.9974855,21.3806993 90.3104803,19.4389466 90.3104803,16.6463659 C90.3104803,13.8321833 91.9945554,11.8870492 94.4428062,11.8870492 C96.4022464,11.8870492 97.7619461,12.9807973 98.2629002,14.8778304 L98.3241816,15.1098936 L98.5627225,15.1098936 L100.349674,15.1098936 L100.727366,15.1098936 L100.654,14.7369406 C100.069227,11.7642644 97.7406925,9.66353646 94.4428062,9.66353646 C90.6118605,9.66353646 87.9030592,12.7596236 87.9030592,16.6463659 C87.9030592,20.5117308 90.6155903,23.6042121 94.4428062,23.6042121 Z M105.114879,4.25465422 L105.114879,3.94236311 L104.804644,3.94236311 L103.042511,3.94236311 L102.732277,3.94236311 L102.732277,4.25465422 L102.732277,22.9921215 L102.732277,23.3044126 L103.042511,23.3044126 L104.804644,23.3044126 L105.114879,23.3044126 L105.114879,22.9921215 L105.114879,15.4721513 C105.114879,13.1809613 106.500287,11.8370827 108.601917,11.8370827 C110.609179,11.8370827 111.617398,13.0068001 111.617398,15.2223184 L111.617398,22.9921215 L111.617398,23.3044126 L111.927632,23.3044126 L113.689765,23.3044126 L114,23.3044126 L114,22.9921215 L114,14.8725524 C114,11.7429913 112.074917,9.66353646 108.899742,9.66353646 C107.266218,9.66353646 105.953181,10.2659761 105.114879,11.1306301 L105.114879,4.25465422 Z" id="Wordmark"></path>
            <g id="Logo">
                <path d="M15.7694524,28.2536023 L15.7191873,28.195781 L15.7283862,28.1790259 L15.7694524,28.2536023 Z M0,10.184438 L5.83962536,10.184438 L15.7257579,28.174098 L15.7165591,28.1931527 L0,10.184438 Z M24.396,10.184438 L15.7287147,28.1678559 L7.14191931,10.184438 L24.396,10.184438 Z M6.89913545,0.985590778 L5.80217291,9.29182133 L0,10.184438 L6.89913545,0.985590778 Z M15.7694524,0 L23.7208703,9.19884726 L7.81803458,9.19884726 L15.7694524,0 Z M24.6397695,0.985590778 L24.6397695,8.72247839 L15.7694524,0 L24.6397695,0.985590778 Z M31.5389049,10.184438 L25.736732,9.29182133 L24.6397695,0.985590778 L31.5389049,10.184438 Z M15.7694524,28.2536023 L15.7313429,28.1737695 L25.617147,10.184438 L31.5389049,10.184438 L15.7694524,28.2536023 Z M6.89913545,0.985590778 L15.7694524,0 L6.89913545,8.72247839 L6.89913545,0.985590778 Z" id="Shape"></path>
            </g>
        </g>
    </g>
</svg>