<?xml version="1.0" encoding="UTF-8"?>
<svg width="53px" height="53px" viewBox="0 0 53 53" version="1.1" xmlns="http://www.w3.org/2000/svg" xmlns:xlink="http://www.w3.org/1999/xlink">
    <!-- Generator: Sketch 63.1 (92452) - https://sketch.com -->
    <title>icon/sql</title>
    <desc>Created with Sketch.</desc>
    <defs>
        <circle id="path-1" cx="26.5" cy="26.5" r="26.5"></circle>
        <rect id="path-3" x="0" y="0" width="52.6942308" height="52.6942308"></rect>
    </defs>
    <g id="icon/sql" stroke="none" stroke-width="1" fill="none" fill-rule="evenodd">
        <g id="Group-6">
            <g id="Placeholders-/-Icon-/-80px-Copy">
                <g id="Group-12">
                    <mask id="mask-2" fill="white">
                        <use xlink:href="#path-1"></use>
                    </mask>
                    <use id="◼️-Background" fill="#FFFFFF" xlink:href="#path-1"></use>
                </g>
            </g>
            <g id="logo/sql">
                <g id="logo/php">
                    <mask id="mask-4" fill="white">
                        <use xlink:href="#path-3"></use>
                    </mask>
                    <g id="Mask"></g>
                    <g id="Group" mask="url(#mask-4)" fill="#000000" fill-rule="nonzero">
                        <g transform="translate(5.096154, 18.839591)">
                            <polygon id="&gt;" points="5.11468531 14.7950244 12.2307692 7.64458949 5.11468531 0.525793651 0 0.525793651 7.11608392 7.64458949 0 14.7950244"></polygon>
                            <path d="M17.8966221,12.9381898 C18.7038529,12.9381898 19.3849538,12.7944018 19.939925,12.5068259 C20.4948962,12.2192499 20.9136471,11.8383379 21.1961779,11.3640898 C21.4787087,10.8898417 21.619974,10.3752321 21.619974,9.82026096 C21.619974,9.19465711 21.488799,8.68257009 21.226449,8.2839999 C20.964099,7.88542971 20.6159808,7.56506 20.1820942,7.32289077 C19.7482077,7.08072154 19.2689144,6.86882346 18.7442144,6.68719654 C18.2497856,6.52575038 17.8108538,6.37439461 17.4274192,6.23312923 C17.0439846,6.09186384 16.7412731,5.91780471 16.5192846,5.71095182 C16.2972962,5.50409894 16.1863019,5.22409077 16.1863019,4.8709273 C16.1863019,4.45722154 16.3300899,4.14189702 16.6176659,3.92495375 C16.9052418,3.70801048 17.2609279,3.60458404 17.684724,3.61467442 C18.1791529,3.61467442 18.5651101,3.7584624 18.8425957,4.04603836 C19.1200812,4.33361432 19.2638692,4.66407442 19.2739596,5.03741865 L19.2739596,5.03741865 L21.3475337,5.03741865 C21.3273529,4.4118148 21.1633841,3.87197923 20.8556274,3.41791192 C20.5478707,2.96384461 20.1240745,2.61068115 19.5842389,2.35842154 C19.0444034,2.10616192 18.4213221,1.98003211 17.7149952,1.98003211 C17.0187587,1.98003211 16.4032452,2.10363932 15.8684548,2.35085375 C15.3336644,2.59806817 14.9123909,2.94618644 14.6046341,3.39520855 C14.2968774,3.84423067 14.1480442,4.38154365 14.1581346,5.0071475 C14.1581346,5.74374557 14.3725553,6.33403307 14.8013966,6.77801 C15.230238,7.22198692 15.8533192,7.58524077 16.6706404,7.86777154 C17.1751596,8.03930807 17.6494077,8.20075423 18.0933846,8.35211 C18.5373615,8.50346577 18.8930476,8.70022827 19.1604428,8.9423975 C19.427838,9.18456673 19.5615356,9.52259461 19.5615356,9.95648115 C19.5615356,10.3701869 19.4101798,10.700647 19.1074683,10.9478614 C18.8047567,11.1950759 18.3960962,11.3186831 17.8814865,11.3186831 C17.2861538,11.3186831 16.8194736,11.1496691 16.4814457,10.8116412 C16.1434178,10.4736134 15.9643135,10.057385 15.9441327,9.56295615 L15.9441327,9.56295615 L13.9008298,9.56295615 C13.9109202,10.2793735 14.0875019,10.8873191 14.430575,11.3867932 C14.7736481,11.8862672 15.242851,12.2697018 15.8381837,12.537097 C16.4335163,12.8044922 17.1196625,12.9381898 17.8966221,12.9381898 Z M33.2491425,14.6787812 L30.797179,12.0451908 C31.4934155,11.5810331 32.0382963,10.9529066 32.4318213,10.1608114 C32.8253463,9.36871625 33.0221088,8.46814942 33.0221088,7.45911096 C33.0221088,6.3794398 32.8001203,5.42842105 32.3561434,4.60605471 C31.9121665,3.78368836 31.2916078,3.14042634 30.4944675,2.67626865 C29.6973271,2.21211096 28.7740569,1.98003211 27.7246569,1.98003211 C26.6651665,1.98003211 25.7393737,2.21211096 24.9472785,2.67626865 C24.1551833,3.14042634 23.5346247,3.78368836 23.0856026,4.60605471 C22.6365804,5.42842105 22.4120694,6.3794398 22.4120694,7.45911096 C22.4120694,8.53878211 22.6365804,9.48980086 23.0856026,10.3121672 C23.5346247,11.1345336 24.1551833,11.7777956 24.9472785,12.2419533 C25.7393737,12.706111 26.6651665,12.9381898 27.7246569,12.9381898 C28.2291761,12.9381898 28.7135146,12.8826927 29.1776723,12.7716985 L29.1776723,12.7716985 L30.8425857,14.6787812 L33.2491425,14.6787812 Z M27.7246569,11.1975985 C26.7156184,11.1975985 25.9083876,10.8646158 25.3029646,10.1986504 C24.6975415,9.532685 24.39483,8.61950519 24.39483,7.45911096 C24.39483,6.29871673 24.6975415,5.38553692 25.3029646,4.71957154 C25.9083876,4.05360615 26.7156184,3.72062346 27.7246569,3.72062346 C28.7336953,3.72062346 29.5384035,4.05360615 30.1387814,4.71957154 C30.7391593,5.38553692 31.0393482,6.29871673 31.0393482,7.45911096 C31.0393482,8.61950519 30.7391593,9.532685 30.1387814,10.1986504 C29.5384035,10.8646158 28.7336953,11.1975985 27.7246569,11.1975985 Z M40.7614339,12.7565629 L40.7614339,11.2430052 L36.0694051,11.2430052 L36.0694051,2.16165904 L34.1320513,2.16165904 L34.1320513,12.7565629 L40.7614339,12.7565629 Z" id="SQL"></path>
                        </g>
                    </g>
                </g>
            </g>
        </g>
    </g>
</svg>