<?xml version="1.0" encoding="UTF-8"?>
<svg width="214px" height="80px" viewBox="0 0 214 80" version="1.1" xmlns="http://www.w3.org/2000/svg" xmlns:xlink="http://www.w3.org/1999/xlink">
    <!-- Generator: sketchtool 62 (101010) - https://sketch.com -->
    <title>42AEBA54-1706-44DC-AD21-CAD02573AADA</title>
    <desc>Created with sketchtool.</desc>
    <defs>
        <rect id="path-1" x="0" y="0.63625" width="214" height="79"></rect>
    </defs>
    <g id="Asset-Artboard-Page" stroke="none" stroke-width="1" fill="none" fill-rule="evenodd">
        <g id="logo/adobe">
            <g id="logo/cogne" transform="translate(0.000000, -1.000000)">
                <mask id="mask-2" fill="white">
                    <use xlink:href="#path-1"></use>
                </mask>
                <g id="Mask"></g>
            </g>
            <g id="Adobe_logo_and_wordmark_(2017)" transform="translate(50.000000, 24.000000)" fill="#FFFFFF" fill-rule="nonzero">
                <path d="M53.897034,16.658478 L52.427232,20.74173 C52.427232,20.905776 52.263756,20.905776 52.263756,20.905776 L49.977258,20.905776 C49.813782,20.905776 49.813782,20.905776 49.813782,20.74173 C51.120108,17.312382 53.080224,11.432604 54.550026,7.512258 C54.550026,7.34958 54.713616,7.022628 54.713616,6.206046 C54.713616,6.04257 54.713616,6.04257 54.877092,6.04257 L57.980058,6.04257 C58.143648,5.879094 58.143648,6.04257 58.143648,6.04257 C59.776014,10.778814 61.736358,15.84201 63.369522,20.579052 C63.369522,20.741844 63.369522,20.741844 63.206844,20.741844 L60.59271,20.741844 C60.429918,20.741844 60.429918,20.741844 60.429918,20.579052 L58.959432,16.496028 L53.897034,16.496028 L53.897034,16.658478 Z M58.469688,14.372322 C57.980058,12.90252 56.836524,9.799554 56.510256,8.166276 C56.183418,9.636078 55.203246,12.2493 54.55014,14.372322 L58.469688,14.372322 Z M64.840122,15.35238 C64.840122,12.085824 67.289982,9.472488 71.208732,9.472488 C71.699958,9.472488 72.189588,9.472488 72.516654,9.635964 L72.516654,4.736244 C72.516654,4.572768 72.516654,4.572768 72.679332,4.572768 L75.129192,4.572768 C75.29187,4.572768 75.29187,4.572768 75.29187,4.736244 L75.29187,19.598196 C75.29187,19.762242 75.29187,19.762242 75.129192,19.762242 C73.658706,20.414664 72.025314,20.905776 70.556424,20.905776 C67.125708,21.068682 64.840122,19.272726 64.840122,15.35238 Z M72.352266,11.922348 C72.025314,11.758872 71.535684,11.758872 71.04594,11.758872 C68.923146,11.758872 67.61682,13.065996 67.61682,15.35238 C67.61682,17.964804 69.085824,18.945774 70.883376,18.945774 C71.373006,18.945774 72.025314,18.7815 72.51654,18.7815 L72.51654,11.922348 L72.352266,11.922348 Z M89.011656,15.189702 C89.011656,18.781614 86.724474,21.068682 83.458032,21.068682 C79.539168,21.068682 77.906004,18.129192 77.906004,15.35238 C77.906004,11.922348 80.19159,9.635964 83.622306,9.635964 C87.05154,9.472488 89.011656,12.085824 89.011656,15.189702 L89.011656,15.189702 Z M80.682816,15.189702 C80.682816,17.475288 81.66219,18.945888 83.458146,18.945888 C84.928632,18.945888 86.07228,17.964918 86.07228,15.189702 C86.07228,13.065996 85.255698,11.432718 83.295582,11.432718 C81.824754,11.595396 80.682816,12.90252 80.682816,15.189702 L80.682816,15.189702 Z M93.91149,4.736244 C94.074282,4.736244 94.074282,4.736244 94.074282,4.89972 L94.074282,10.125594 C94.89075,9.79944 95.707446,9.635964 96.524028,9.635964 C99.627906,9.635964 101.588022,11.922348 101.588022,14.86275 C101.588022,18.7815 98.484144,21.23136 94.89075,21.23136 C93.748698,21.23136 92.605164,21.068568 91.46163,20.74173 C91.298952,20.74173 91.298952,20.578938 91.298952,20.578938 L91.298952,4.89972 C91.298952,4.736244 91.298952,4.736244 91.46163,4.736244 L93.91149,4.736244 Z M96.034398,11.758872 C95.38209,11.758872 94.728186,11.922348 94.238442,12.085824 L94.238442,18.7815 C94.565394,18.945774 95.055024,18.945774 95.544654,18.945774 C97.177932,18.945774 99.138048,17.639448 99.138048,15.0252 C98.973888,12.90252 97.667676,11.758872 96.034398,11.758872 L96.034398,11.758872 Z M106.814694,15.84201 C106.814694,17.639562 107.956746,18.7815 110.243928,18.7815 C111.060396,18.7815 112.039884,18.618708 113.020626,18.29187 C113.020626,18.29187 113.183418,18.29187 113.183418,18.456144 L113.183418,20.2521 C113.183418,20.414664 113.183418,20.414664 113.020626,20.578938 C112.204158,21.068568 111.060396,21.23136 109.58991,21.23136 C105.506772,21.23136 103.87338,18.456144 103.87338,15.51483 C103.87338,12.249186 105.83361,9.63585 109.26444,9.63585 C112.693674,9.63585 113.999772,12.249186 113.999772,14.372094 C113.999772,15.352266 113.837208,15.841896 113.837208,15.841896 L106.814694,15.841896 L106.814694,15.84201 Z M110.406492,14.045256 C111.223188,14.045256 111.387462,13.882692 111.387462,13.882692 L111.387462,13.555626 C111.387462,12.90252 110.897832,11.432718 109.10028,11.432718 C107.631276,11.432718 106.814694,12.575454 106.650534,14.045256 L110.406492,14.045256 Z" id="Shape"></path>
                <path d="M19.435404,0 L30.868122,27.274728 L30.868122,0 L19.435404,0 Z M0,0 L0,27.274728 L11.432718,0 L0,0 Z M10.452546,21.722586 L15.679332,21.722586 L17.965716,27.274728 L22.70196,27.274728 L15.35238,9.962118 L10.452546,21.722586 Z" id="Shape"></path>
            </g>
        </g>
    </g>
</svg>