<?xml version="1.0" encoding="UTF-8"?>
<svg width="214px" height="80px" viewBox="0 0 214 80" version="1.1" xmlns="http://www.w3.org/2000/svg" xmlns:xlink="http://www.w3.org/1999/xlink">
    <!-- Generator: sketchtool 62 (101010) - https://sketch.com -->
    <title>3D9CCBE5-2CEC-4299-8D16-FE59830DE945</title>
    <desc>Created with sketchtool.</desc>
    <defs>
        <rect id="path-1" x="0" y="0.63625" width="214" height="79"></rect>
    </defs>
    <g id="Asset-Artboard-Page" stroke="none" stroke-width="1" fill="none" fill-rule="evenodd">
        <g id="logo/figma">
            <g id="Group" transform="translate(0.000000, -1.000000)">
                <g id="logo/cogne">
                    <mask id="mask-2" fill="white">
                        <use xlink:href="#path-1"></use>
                    </mask>
                    <g id="Mask"></g>
                </g>
                <g id="Invision-01" transform="translate(63.000000, 19.000000)" fill-rule="nonzero">
                    <g id="Group-7">
                        <g id="figma-1">
                            <path d="M7.27905405,43.6743243 C11.2970919,43.6743243 14.5581081,40.4133081 14.5581081,36.3952703 L14.5581081,29.1162162 L7.27905405,29.1162162 C3.26101622,29.1162162 0,32.3772324 0,36.3952703 C0,40.4133081 3.26101622,43.6743243 7.27905405,43.6743243 Z" id="path0_fill" fill="#FFFFFF"></path>
                            <path d="M0,21.8371622 C0,17.8191243 3.26101622,14.5581081 7.27905405,14.5581081 L14.5581081,14.5581081 L14.5581081,29.1162162 L7.27905405,29.1162162 C3.26101622,29.1162162 0,25.8552 0,21.8371622 Z" id="path1_fill" fill="#CFCFCF"></path>
                            <path d="M0,7.27905405 C0,3.26101622 3.26101622,0 7.27905405,0 L14.5581081,0 L14.5581081,14.5581081 L7.27905405,14.5581081 C3.26101622,14.5581081 0,11.2970919 0,7.27905405 Z" id="path1_fill_1_" fill="#FFFFFF"></path>
                            <path d="M14.5581081,0 L21.8371622,0 C25.8552,0 29.1162162,3.26101622 29.1162162,7.27905405 C29.1162162,11.2970919 25.8552,14.5581081 21.8371622,14.5581081 L14.5581081,14.5581081 L14.5581081,0 Z" id="path2_fill" fill="#CFCFCF"></path>
                            <path d="M29.1162162,21.8371622 C29.1162162,25.8552 25.8552,29.1162162 21.8371622,29.1162162 C17.8191243,29.1162162 14.5581081,25.8552 14.5581081,21.8371622 C14.5581081,17.8191243 17.8191243,14.5581081 21.8371622,14.5581081 C25.8552,14.5581081 29.1162162,17.8191243 29.1162162,21.8371622 Z" id="path3_fill" fill="#FFFFFF"></path>
                        </g>
                        <g id="figma" transform="translate(35.645956, 12.131757)" fill="#FFFFFF">
                            <path d="M0.378510811,0 L0.378510811,14.674573 L2.27106486,14.681852 L2.27106486,7.69396014 L6.82047365,7.69396014 L6.82047365,5.84508041 L2.26378581,5.84508041 L2.26378581,1.84160068 L8.19621486,1.84160068 L8.19621486,0 L0.378510811,0 Z M11.5882541,2.98441216 C12.2716728,2.98441216 12.8256932,2.43039177 12.8256932,1.74697297 C12.8256932,1.06355418 12.2716728,0.509533784 11.5882541,0.509533784 C10.9048353,0.509533784 10.3508149,1.06355418 10.3508149,1.74697297 C10.3508149,2.43039177 10.9048353,2.98441216 11.5882541,2.98441216 Z M10.634698,4.82601284 L10.634698,14.681852 L12.527252,14.681852 L12.527252,4.82601284 L10.634698,4.82601284 L10.634698,4.82601284 Z" id="Shape"></path>
                            <path d="M19.522423,4.54212973 C17.0184284,4.54212973 15.2714554,6.66033446 15.2714554,9.17888716 C15.2714554,11.6974399 17.0184284,13.8156446 19.522423,13.8156446 C20.6725135,13.8156446 21.6187905,13.3789014 22.3103007,12.6509959 L22.3103007,13.9612257 C22.320018,14.751976 22.0131858,15.513791 21.4581152,16.0770646 C20.9030445,16.6403382 20.1458126,16.9583126 19.3550047,16.9601959 C18.7508432,16.9601959 18.1539608,16.7272662 17.6808223,16.3924297 L16.7345453,18.0302169 C18.2251182,18.9937196 20.1234608,19.0641982 21.6813746,18.2138749 C23.2392884,17.3635516 24.2069048,15.7288068 24.2028674,13.9539466 L24.2028674,4.83329189 L22.3103007,4.83329189 L22.3103007,5.71405743 C21.6187905,4.98615203 20.6725135,4.54940878 19.522423,4.54940878 L19.522423,4.54212973 Z M17.1567304,9.17888716 C17.1567304,7.61389054 18.3504953,6.38373041 19.7335155,6.38373041 C21.1165358,6.38373041 22.3030216,7.62116959 22.3030216,9.17888716 C22.3030216,10.7438838 21.1092568,11.9667649 19.7335155,11.9667649 C18.3504953,11.9667649 17.1567304,10.7438838 17.1567304,9.17888716 L17.1567304,9.17888716 Z" id="Shape"></path>
                            <path d="M31.0014912,6.38373041 C29.8751998,6.40362498 28.973758,7.32452232 28.9779142,8.45098176 L28.9779142,14.681852 L27.0853601,14.681852 L27.0853601,4.82601284 L28.9779142,4.82601284 L28.9779142,5.72861554 C29.5522354,4.96743795 30.4557072,4.52652207 31.4091182,4.54212973 C32.7339061,4.54212973 33.7529736,5.19724459 34.335298,6.20175405 C34.9951763,5.17889296 36.1243763,4.55550893 37.3415473,4.54212973 C39.4888682,4.54212973 40.8354932,6.27454459 40.8354932,8.42186554 L40.8354932,14.681852 L38.9574973,14.681852 L38.9574973,8.4437027 C38.9616534,7.31724326 38.0602117,6.39634593 36.9339203,6.37645135 C35.8076289,6.39634593 34.9061871,7.31724326 34.9103432,8.4437027 L34.9103432,14.674573 L33.0177892,14.674573 L33.0177892,8.4437027 C33.0220122,7.32002228 32.1249272,6.4002672 31.0014912,6.37645135 L31.0014912,6.38373041 Z" id="Path"></path>
                            <path d="M50.902425,5.94698716 C50.0338653,5.04130286 48.83072,4.53319117 47.5758973,4.54212973 C44.7661824,4.54212973 42.7717216,6.91510135 42.7717216,9.75393243 C42.7717216,12.5927635 44.7661824,14.9657942 47.5758973,14.9657942 C48.8302067,14.9720983 50.0323772,14.4643983 50.902425,13.5608777 L50.902425,14.681852 L52.7877,14.681852 L52.7877,4.82601284 L50.8951459,4.82601284 L50.8951459,5.94698716 L50.902425,5.94698716 Z M44.6569966,9.75393243 C44.6569966,7.87593649 46.0982493,6.38373041 47.7797108,6.38373041 C49.4538932,6.38373041 50.902425,7.87593649 50.902425,9.75393243 C50.902425,11.6319284 49.4611723,13.1168554 47.7797108,13.1168554 C46.1055284,13.1168554 44.6569966,11.6319284 44.6569966,9.75393243 L44.6569966,9.75393243 Z" id="Shape"></path>
                        </g>
                    </g>
                </g>
            </g>
        </g>
    </g>
</svg>