<?xml version="1.0" encoding="UTF-8"?>
<svg width="214px" height="80px" viewBox="0 0 214 80" version="1.1" xmlns="http://www.w3.org/2000/svg" xmlns:xlink="http://www.w3.org/1999/xlink">
    <!-- Generator: sketchtool 62 (101010) - https://sketch.com -->
    <title>768B688C-3FAB-415D-985E-0036E6358BEB</title>
    <desc>Created with sketchtool.</desc>
    <defs>
        <rect id="path-1" x="0" y="0.63625" width="214" height="79"></rect>
    </defs>
    <g id="Asset-Artboard-Page" stroke="none" stroke-width="1" fill="none" fill-rule="evenodd">
        <g id="logo/invision">
            <g id="logo/cogne" transform="translate(0.000000, -1.000000)">
                <mask id="mask-2" fill="white">
                    <use xlink:href="#path-1"></use>
                </mask>
                <g id="Mask"></g>
            </g>
            <g id="Invision-01" transform="translate(50.000000, 19.000000)" fill="#FFFFFF">
                <path d="M34.7534466,0.198641096 C36.6667726,0.198641096 38.2177973,1.74966575 38.2177973,3.66299178 L38.2177973,3.66299178 L38.2177973,34.9520877 C38.2177973,36.8654137 36.6667726,38.4164384 34.7534466,38.4164384 L34.7534466,38.4164384 L3.46435068,38.4164384 C1.55102466,38.4164384 -2.27373675e-12,36.8654137 -2.27373675e-12,34.9520877 L-2.27373675e-12,34.9520877 L-2.27373675e-12,3.66299178 C-2.27373675e-12,1.74966575 1.55102466,0.198641096 3.46435068,0.198641096 L3.46435068,0.198641096 Z M26.400526,14.0507342 C24.375074,14.0507342 22.3149534,15.8778575 21.2848932,17.8005534 L21.2848932,17.8005534 L22.0401041,14.3493205 L16.1692603,14.3493205 L15.345337,17.3892164 L18.0919562,17.3892164 L16.4006959,24.1611288 L16.2874978,24.4005271 C14.9384574,27.1164498 12.623947,27.1597626 12.3263671,27.0929589 C11.8235178,26.9795836 11.5021315,26.7887507 11.5021315,26.1356712 C11.5021315,25.7583781 11.5705315,25.2171123 11.7423123,24.5643452 L11.7423123,24.5643452 L14.317463,14.3493205 L7.79447671,14.3493205 L6.9702411,17.3892164 L9.68250411,17.3892164 L7.93158904,24.5424822 L7.86871119,24.8374782 C7.77338584,25.3330904 7.72545205,25.8421863 7.72545205,26.2705973 C7.72545205,28.296674 8.82422466,29.6415616 11.1588822,29.6415616 C13.0953205,29.6415616 14.6650849,28.4915671 15.7950904,26.6350849 L15.7950904,26.6350849 L15.1048438,29.4048164 L18.9502356,29.4048164 L21.1474685,20.5908986 L21.2131468,20.3381763 C21.7795457,18.271937 22.8233406,17.2011945 24.375074,17.2011945 C25.6453151,17.2011945 26.4348822,17.991074 26.4348822,19.2950466 C26.4348822,19.6729644 26.400526,20.0846137 26.2634137,20.5312438 L26.2634137,20.5312438 L25.1299726,24.5824603 L25.0526669,24.8741927 C24.9376041,25.3599073 24.8901041,25.8417178 24.8901041,26.2990192 C24.8901041,28.2223397 26.0226082,29.6293808 28.3916219,29.6293808 C30.4173863,29.6293808 32.0308767,28.3250959 32.9238247,25.2005589 L32.9238247,25.2005589 L31.4130904,24.6174411 L31.3264087,24.8514338 C30.6078944,26.7392272 29.9856278,27.089211 29.4907068,27.089211 C28.9753644,27.089211 28.7005151,26.7459616 28.7005151,26.0597753 C28.7005151,25.7508822 28.7695397,25.4079452 28.8722959,24.9950466 L28.8722959,24.9950466 L29.9710685,21.0481479 L30.066219,20.7053842 C30.2700745,19.9167614 30.3489863,19.2050178 30.3489863,18.5442082 C30.3489863,15.5917644 28.5634027,14.0507342 26.400526,14.0507342 Z M12.7723726,7.62238356 C11.5021315,7.62238356 10.4380274,8.61808767 10.4380274,9.92206027 C10.4380274,11.2272822 11.5021315,12.2229863 12.7723726,12.2229863 C14.042926,12.2229863 15.1070301,11.2272822 15.1070301,9.92206027 C15.1070301,8.61808767 14.042926,7.62238356 12.7723726,7.62238356 Z" id="Combined-Shape"></path>
                <path d="M74.4004603,29.868 L78.0587671,29.868 L78.0587671,13.9073753 L74.4004603,13.9073753 L74.4004603,29.868 Z M108.316866,13.5744329 C105.837912,13.5744329 104.356849,14.8743452 103.328975,16.3857041 L103.328975,13.9073753 L99.6716055,13.9073753 L99.6716055,29.868 L103.328975,29.868 L103.328975,20.859189 C103.328975,18.3805479 104.810351,16.8994849 106.926378,16.8994849 C109.10331,16.8994849 110.342318,18.3199562 110.342318,20.7985973 L110.342318,29.868 L114,29.868 L114,19.7107562 C114,15.9927945 111.913956,13.5744329 108.316866,13.5744329 Z M88.9709096,27.0567288 C86.1290301,27.0567288 84.1038904,24.7286301 84.1038904,21.887063 C84.1038904,19.0764164 85.977863,16.7783014 88.9103178,16.7783014 C91.7818685,16.7783014 93.8076329,19.1057753 93.8076329,21.9479671 C93.8076329,24.758926 91.9330356,27.0567288 88.9709096,27.0567288 Z M88.9709096,13.5744329 C84.0739068,13.5744329 80.4458959,17.3523616 80.4458959,21.9479671 C80.4458959,26.5120274 84.0432986,30.2303014 88.9103178,30.2303014 C93.8382411,30.2303014 97.4659397,26.4517479 97.4659397,21.887063 C97.4659397,17.2927068 93.8676,13.5744329 88.9709096,13.5744329 Z M43.6897973,25.6353205 L39.397463,13.9073753 L35.4674301,13.9073753 L42.0272712,29.9882466 L45.3223397,29.9882466 L51.8515726,13.9073753 L48.0127397,13.9073753 L43.6897973,25.6353205 Z M67.0257534,20.4366082 C65.1511562,19.8310027 63.427726,19.3478301 63.427726,18.1997096 L63.427726,18.1388055 C63.427726,17.2018192 64.2438411,16.5368712 65.6646247,16.5368712 C66.3576822,16.5368712 67.1331945,16.6955342 67.9349425,16.9769425 L67.9343178,16.9750685 C67.9343178,16.9750685 67.9424384,16.9788164 67.9574301,16.9856877 C68.0264548,17.0100493 68.0964164,17.0375342 68.1663781,17.0637699 C68.744811,17.2467945 70.3055178,17.4913479 71.6207342,15.4490301 C69.9272877,14.3299562 67.7516055,13.6344 65.7552,13.6344 C62.5816274,13.6344 60.0726904,15.478389 60.0726904,18.5017315 L60.0726904,18.5623233 C60.0726904,21.615337 62.7021863,22.5826192 65.0602685,23.2478795 C66.9348658,23.8219397 68.628,24.2451452 68.628,25.4844658 L68.628,25.5444329 C68.628,26.6029151 67.7206849,27.267863 66.1487342,27.267863 C65.1036822,27.267863 63.9593096,26.9920767 62.8186849,26.4545589 C62.4904274,26.3161973 60.7832384,25.7324548 59.3234137,27.8085041 C61.3123233,29.3617151 63.8040822,30.1700219 66.0584712,30.1700219 C69.3825863,30.1700219 71.9830356,28.5084329 71.9830356,25.1518356 L71.9830356,25.0915562 C71.9830356,22.2203178 69.3532274,21.1618356 67.0257534,20.4366082 Z M53.6643288,29.868 L57.322011,29.868 L57.322011,13.9073753 L53.6643288,13.9073753 L53.6643288,29.868 Z" id="Fill-2"></path>
            </g>
        </g>
    </g>
</svg>