<?xml version="1.0" encoding="UTF-8"?>
<svg width="155px" height="37px" viewBox="0 0 155 37" version="1.1" xmlns="http://www.w3.org/2000/svg" xmlns:xlink="http://www.w3.org/1999/xlink">
    <!-- Generator: sketchtool 61.2 (101010) - https://sketch.com -->
    <title>1F1A2D39-D526-4B9B-82EA-123FE756C24A</title>
    <desc>Created with sketchtool.</desc>
    <g id="Asset-Artboard-Page" stroke="none" stroke-width="1" fill="none" fill-rule="evenodd">
        <g id="logo/ext/white">
            <g>
                <g id="Group-36-Copy">
                    <polygon id="Fill-1" fill="#36F2B9" points="0 28.8 3.2 28.8 3.2 18.4 0 18.4"></polygon>
                    <g id="Group-35">
                        <path d="M22.5519249,18.2745267 C22.5221145,21.2409011 22.0825571,23.2928691 21.2367598,24.3591859 C20.3640747,25.4572979 18.6432543,26.0148915 16.1228134,26.0148915 C13.5129414,26.0148915 11.7623105,25.4879155 10.9194358,24.4475059 C10.1016954,23.4400691 9.67733545,21.3574835 9.64927859,18.2745267 L5.83705338,18.2745267 C5.86861735,22.4414643 6.62030726,25.3966515 8.08043277,27.0429363 C9.57504483,28.7298483 12.2813623,29.5853747 16.1228134,29.5853747 C19.8456074,29.5853747 22.5139313,28.6998195 24.0541357,26.9528499 C25.556931,25.2476851 26.3302481,22.3242931 26.3641501,18.2745267 L22.5519249,18.2745267 Z" id="Fill-2" fill="#36F2B9"></path>
                        <path d="M43.9179216,18.2745267 L43.9179216,22.5403827 C42.9593124,23.0343859 41.9504346,23.4253491 40.9205143,23.7032627 C39.879488,23.9847091 38.8577509,24.1266099 37.8845287,24.1266099 C35.6604384,24.1266099 34.1424456,23.6161203 33.3743892,22.6069171 C32.7244054,21.7561011 32.3479759,20.2964659 32.2421782,18.2745267 L28.4223543,18.2745267 C28.5497791,21.4004659 29.1804739,23.7279923 30.3068397,25.1964595 C31.5810886,26.8574643 33.7250999,27.6988595 36.680422,27.6988595 C37.9587625,27.6988595 39.2411946,27.5239859 40.4926472,27.1789491 C41.6955849,26.8468659 42.8476695,26.3616947 43.9179216,25.7346227 L43.9179216,26.9911219 C43.9179216,29.2061875 43.4906391,30.7670963 42.6471799,31.6320435 C41.8025516,32.4969907 40.2600091,32.9338803 38.0628066,32.9338803 C36.7669306,32.9338803 35.4418287,32.8437939 34.1260791,32.6653875 C32.8126676,32.4863923 31.8061279,32.2620595 31.1327634,31.9965107 L31.0269657,31.9535283 L31.0269657,35.4009523 L31.0760652,35.4203827 C31.9084185,35.7501107 32.9868539,36.0168371 34.2821454,36.2117299 C35.5739298,36.4066227 36.9814487,36.5049523 38.4643704,36.5049523 C41.8615879,36.5049523 44.2826607,35.7177267 45.6592002,34.1644723 C47.0339861,32.6135731 47.7307314,29.8526899 47.7307314,25.9577779 L47.7307314,18.2745267 L43.9179216,18.2745267 Z" id="Fill-4" fill="#36F2B9"></path>
                        <polygon id="Fill-6" fill="#36F2B9" points="50.7303014 29.2262656 54.5431112 29.2262656 54.5431112 18.2745856 50.7303014 18.2745856"></polygon>
                        <polygon id="Fill-8" fill="#36F2B9" points="63.0642704 18.2745267 56.1342271 29.1055027 56.0570708 29.2262067 60.0779688 29.2262067 65.5665912 20.3094195 71.0990523 29.2262067 75.3426517 29.2262067 68.3623399 18.2745267"></polygon>
                        <polygon id="Fill-9" fill="#FFFFFF" points="0.46878329 29.2268544 4.28159302 29.2268544 4.28159302 18.2751744 0.46878329 18.2751744"></polygon>
                        <path d="M23.0205328,18.2751155 C22.9907224,21.2414899 22.5517496,23.2934579 21.7053678,24.3591859 C20.8326827,25.4578867 19.1118622,26.0154803 16.5920059,26.0154803 C13.9815493,26.0154803 12.2309184,25.4879155 11.3886283,24.4475059 C10.5703033,23.4400691 10.1459434,21.3580723 10.1178865,18.2751155 L6.30566132,18.2751155 C6.3378098,22.4414643 7.08949971,25.3966515 8.54904071,27.0435251 C10.0442373,28.7304371 12.7499703,29.5859635 16.5920059,29.5859635 C20.3142153,29.5859635 22.9825392,28.6998195 24.5227436,26.9528499 C26.0261235,25.2476851 26.798856,22.3242931 26.8327581,18.2751155 L23.0205328,18.2751155 Z" id="Fill-10" fill="#FFFFFF"></path>
                        <path d="M44.3868218,18.2751155 L44.3868218,22.5409715 C43.4282126,23.0349747 42.4193348,23.4259379 41.3888299,23.7038515 C40.3478037,23.9852979 39.3266511,24.1271987 38.3534289,24.1271987 C36.1293386,24.1271987 34.6113458,23.6167091 33.8432894,22.6075059 C33.1933056,21.7561011 32.8168761,20.2970547 32.7110784,18.2751155 L28.8912545,18.2751155 C29.0186793,21.4004659 29.6493741,23.7285811 30.7757399,25.1970483 C32.0494042,26.8574643 34.1940001,27.6988595 37.1493222,27.6988595 C38.4276627,27.6988595 39.7100948,27.5245747 40.9615474,27.1795379 C42.1644851,26.8474547 43.3165697,26.3622835 44.3868218,25.7346227 L44.3868218,26.9917107 C44.3868218,29.2061875 43.9595393,30.7676851 43.1160801,31.6326323 C42.2708673,32.4969907 40.7289093,32.9344691 38.5317068,32.9344691 C37.2352463,32.9344691 35.9107289,32.8443827 34.5949793,32.6653875 C33.2815678,32.4869811 32.2750281,32.2626483 31.6016636,31.9970995 L31.4958659,31.9541171 L31.4958659,35.4009523 L31.5449654,35.4203827 C32.3773187,35.7506995 33.4557541,36.0174259 34.7510456,36.2123187 C36.04283,36.4072115 37.4497644,36.5055411 38.9332706,36.5055411 C42.3304881,36.5055411 44.7509764,35.7183155 46.1281004,34.1650611 C47.5028863,32.6141619 48.1996315,29.8532787 48.1996315,25.9583667 L48.1996315,18.2751155 L44.3868218,18.2751155 Z" id="Fill-11" fill="#FFFFFF"></path>
                        <polygon id="Fill-12" fill="#FFFFFF" points="51.1990847 29.2268544 55.0118945 29.2268544 55.0118945 18.2751744 51.1990847 18.2751744"></polygon>
                        <polygon id="Fill-13" fill="#FFFFFF" points="63.533229 18.2751155 56.6026012 29.1060915 56.5254449 29.2267955 60.5469275 29.2267955 66.0355498 20.3094195 71.5680109 29.2267955 75.8110258 29.2267955 68.8312985 18.2751155"></polygon>
                        <path d="M18.1003541,7.83916544 C14.3933421,7.83916544 11.748399,8.69881344 10.2397585,10.3963238 C8.85269771,11.9566438 8.10159232,14.6133094 7.98644231,18.2744678 L11.4830279,18.2744678 C11.5666139,15.5807078 12.0137701,13.7024358 12.8209892,12.6991206 C13.7258228,11.5768678 15.5015879,11.0069094 18.1003541,11.0069094 C20.7581566,11.0069094 22.5415205,11.5544934 23.4013462,12.6325862 C24.1711562,13.5982182 24.5961006,15.4994534 24.6738415,18.2744678 L28.1704271,18.2744678 C28.0617068,14.5308774 27.3398273,11.8518374 26.0042041,10.3292006 C24.5545999,8.67643904 21.8950438,7.83916544 18.1003541,7.83916544" id="Fill-14" fill="#36F2B9"></path>
                        <path d="M41.1557242,7.83916544 C37.2979066,7.83916544 34.5325528,8.64758784 32.9356501,10.2432358 C31.3445926,11.8312294 30.53562,14.5338214 30.5291903,18.2744678 L34.0316211,18.2744678 C34.0362972,15.4464614 34.5080031,13.507543 35.4338793,12.5142374 C36.3667697,11.5150438 38.2915869,11.0069094 41.1557242,11.0069094 C42.0102893,11.0069094 42.8607627,11.0528358 43.6843483,11.143511 C44.5015042,11.2335974 45.2771594,11.3543014 45.9885175,11.5038566 L46.0504764,11.5168102 L46.0504764,18.2744678 L49.5529072,18.2744678 L49.5529072,8.67643904 C48.5305855,8.44504064 47.2189276,8.24602624 45.6524198,8.08469504 C44.0566862,7.92159744 42.543954,7.83916544 41.1557242,7.83916544" id="Fill-15" fill="#36F2B9"></path>
                        <polygon id="Fill-16" fill="#36F2B9" points="52.5738706 4.4236544 56.5205349 4.4236544 56.5205349 0.4480768 52.5738706 0.4480768"></polygon>
                        <polygon id="Fill-17" fill="#36F2B9" points="2.132321 18.2745856 5.63475177 18.2745856 5.63475177 0.6046976 2.132321 0.6046976"></polygon>
                        <polygon id="Fill-18" fill="#36F2B9" points="56.520418 18.2745267 56.520418 8.04059392 52.7076083 8.13362432 52.7076083 18.2745267"></polygon>
                        <polygon id="Fill-19" fill="#36F2B9" points="70.2942882 18.2745267 76.930319 8.16306432 77.0115669 8.03941632 72.9421539 8.13244672 67.7680022 16.2855603 62.8814332 8.16895232 62.858637 8.13126912 58.3444059 8.13126912 65.0277826 18.2745267"></polygon>
                        <path d="M17.6188868,7.8448768 C13.9118748,7.8448768 11.2669317,8.7045248 9.75829117,10.4014464 C8.37123038,11.9623552 7.62012499,14.618432 7.50497498,18.2801792 L11.0015606,18.2801792 C11.0851466,15.5858304 11.5323027,13.7081472 12.3395219,12.704832 C13.2443554,11.5819904 15.0201206,11.0126208 17.6188868,11.0126208 C20.2766893,11.0126208 22.0600532,11.5602048 22.9198789,12.6377088 C23.6896888,13.6039296 24.1146333,15.5051648 24.1923742,18.2801792 L27.6889598,18.2801792 C27.5802394,14.5365888 26.8589445,11.8575488 25.5227367,10.334912 C24.0731325,8.6821504 21.4135765,7.8448768 17.6188868,7.8448768" id="Fill-20" fill="#FFFFFF"></path>
                        <path d="M40.6742569,7.8448768 C36.8170238,7.8448768 34.0510855,8.6527104 32.4541828,10.2483584 C30.8631253,11.836352 30.0547372,14.5395328 30.047723,18.2801792 L33.5501537,18.2801792 C33.5548299,15.4521728 34.0265357,13.5132544 34.952412,12.5199488 C35.8853024,11.5201664 37.8101196,11.0126208 40.6742569,11.0126208 C41.5288219,11.0126208 42.3792954,11.0585472 43.202881,11.1486336 C44.0200369,11.2393088 44.795692,11.3600128 45.5070502,11.5089792 L45.5690091,11.5225216 L45.5690091,18.2801792 L49.0714399,18.2801792 L49.0714399,8.6821504 C48.0491182,8.450752 46.7374602,8.2517376 45.1709525,8.0904064 C43.5752188,7.9273088 42.0624867,7.8448768 40.6742569,7.8448768" id="Fill-21" fill="#FFFFFF"></path>
                        <polygon id="Fill-22" fill="#FFFFFF" points="52.0928125 4.4289536 55.9056222 4.4289536 55.9056222 0.4539648 52.0928125 0.4539648"></polygon>
                        <polygon id="Fill-23" fill="#FFFFFF" points="1.65067832 18.2798848 5.1536936 18.2798848 5.1536936 0.6099968 1.65067832 0.6099968"></polygon>
                        <polygon id="Fill-24" fill="#FFFFFF" points="55.9053884 18.280297 55.9053884 8.04577536 52.0925787 8.13939456 52.0925787 18.280297"></polygon>
                        <polygon id="Fill-25" fill="#FFFFFF" points="69.8128208 18.2800026 76.4488516 8.16854016 76.5306841 8.04489216 72.4606866 8.13792256 67.2865348 16.2910362 62.3999659 8.17442816 62.3771697 8.13733376 57.8629386 8.13733376 64.5463153 18.2800026"></polygon>
                    </g>
                </g>
                <g id="Group-2" transform="translate(83.000000, 16.000000)" fill="#FFFFFF">
                    <path d="M3.30620796,1.15331903 C3.18623884,0.970582128 3.02657404,0.837267253 2.82677252,0.754205025 C2.62652994,0.670727487 2.41834822,0.629196373 2.20134524,0.629196373 C2.04123939,0.629196373 1.88466204,0.648300685 1.73029,0.685678688 C1.57635903,0.72305669 1.43786526,0.779954316 1.31480869,0.855125632 C1.19219319,0.930296947 1.09339508,1.02955631 1.0192965,1.15331903 C0.945197927,1.27708175 0.908148638,1.42202533 0.908148638,1.58898041 C0.908148638,1.71772686 0.92931966,1.83235274 0.972102768,1.9316121 C1.01532694,2.03128677 1.08501489,2.12140929 1.1824898,2.20156434 C1.27908259,2.28255001 1.41051935,2.35772133 1.57635903,2.4274936 C1.74175764,2.49768118 1.9446466,2.56745345 2.18414379,2.63722572 C2.41834822,2.70699799 2.64505458,2.78216931 2.865145,2.86315498 C3.08479435,2.94372534 3.27886206,3.04589188 3.44734811,3.16923929 C3.61583416,3.29300201 3.7499173,3.44749775 3.85003859,3.63314183 C3.94971882,3.81878591 4,4.05136014 4,4.33086454 C4,4.61576798 3.94001544,4.86287811 3.82004631,5.07261023 C3.70051825,5.28234235 3.54173558,5.4555271 3.34458044,5.59257977 C3.14786636,5.73004776 2.92071893,5.8322143 2.66357923,5.89907939 C2.40688058,5.9663598 2.14136068,6 1.86746058,6 C1.69015327,6 1.51328702,5.9850488 1.33642077,5.95556171 C1.15911346,5.92648993 0.989745286,5.88039039 0.82655199,5.81850903 C0.66424082,5.75704298 0.511191973,5.67647262 0.368287573,5.57679795 C0.225824236,5.47753859 0.103208733,5.3550218 0,5.21007822 L0.617047083,4.73413165 C0.748483846,4.94386378 0.931083912,5.10209732 1.16528834,5.21007822 C1.39905171,5.3176438 1.64737016,5.37121894 1.91024369,5.37121894 C2.06417466,5.37121894 2.21986989,5.34962276 2.3768883,5.3064304 C2.53390672,5.26365335 2.67504686,5.20052606 2.80074981,5.11704852 C2.92645275,5.03398629 3.02922042,4.93057382 3.10949388,4.80639579 C3.18888521,4.68304838 3.22902194,4.54059666 3.22902194,4.37904063 C3.22902194,4.20170278 3.19770647,4.05800512 3.13507553,3.94794767 C3.07200353,3.83747491 2.97496968,3.74195335 2.84397398,3.66138299 C2.71253721,3.58081263 2.54669754,3.50813318 2.34689602,3.44375995 C2.1470945,3.37897141 1.91289007,3.30421541 1.64472378,3.21783069 C1.42772081,3.15304215 1.22791929,3.07953208 1.04531922,2.99605454 C0.86227809,2.91257701 0.703936487,2.81082578 0.569853347,2.68955492 C0.435770206,2.56869938 0.329915095,2.42334049 0.25317014,2.25430885 C0.175984122,2.08486191 0.137170581,1.88177476 0.137170581,1.64546273 C0.137170581,1.37094206 0.194508766,1.13213816 0.308744073,0.92738977 C0.422538317,0.72305669 0.576910354,0.552363813 0.770978057,0.415311137 C0.96504576,0.278673773 1.18469512,0.174845989 1.43080825,0.105073718 C1.67603925,0.0353014467 1.9327379,0 2.20134524,0 C2.5436101,0 2.85632374,0.0498373365 3.13948616,0.149512009 C3.42176646,0.248771371 3.67449553,0.422371427 3.89723233,0.669481553 L3.30620796,1.15331903 Z" id="Fill-27"></path>
                    <path d="M12,5.37084718 C12.3352818,5.37084718 12.6417537,5.3089701 12.9202505,5.18521595 C13.1987474,5.06187708 13.4375783,4.89244186 13.6375783,4.67732558 C13.8375783,4.4622093 13.9929019,4.21096346 14.1039666,3.92358804 C14.2146138,3.63579734 14.2701461,3.32807309 14.2701461,3 C14.2701461,2.67192691 14.2146138,2.36461794 14.1039666,2.07641196 C13.9929019,1.78903654 13.8375783,1.5377907 13.6375783,1.32267442 C13.4375783,1.10755814 13.1987474,0.938538206 12.9202505,0.814784053 C12.6417537,0.6910299 12.3352818,0.629152824 12,0.629152824 C11.6647182,0.629152824 11.3582463,0.6910299 11.0797495,0.814784053 C10.8012526,0.938538206 10.5620042,1.10755814 10.3624217,1.32267442 C10.1624217,1.5377907 10.0066806,1.78903654 9.8960334,2.07641196 C9.78496868,2.36461794 9.72985386,2.67192691 9.72985386,3 C9.72985386,3.32807309 9.78496868,3.63579734 9.8960334,3.92358804 C10.0066806,4.21096346 10.1624217,4.4622093 10.3624217,4.67732558 C10.5620042,4.89244186 10.8012526,5.06187708 11.0797495,5.18521595 C11.3582463,5.3089701 11.6647182,5.37084718 12,5.37084718 M12,6 C11.5624217,6 11.1607516,5.9244186 10.7962422,5.77408638 C10.4313152,5.62375415 10.1148225,5.41528239 9.84759916,5.14908638 C9.57995825,4.88289037 9.37160752,4.5660299 9.22338205,4.19767442 C9.0743215,3.82931894 9,3.43023256 9,3 C9,2.56976744 9.0743215,2.17068106 9.22338205,1.80232558 C9.37160752,1.43438538 9.57995825,1.11710963 9.84759916,0.850913621 C10.1148225,0.58513289 10.4313152,0.37666113 10.7962422,0.225913621 C11.1607516,0.0755813953 11.5624217,0 12,0 C12.4379958,0 12.8392484,0.0755813953 13.2041754,0.225913621 C13.5691023,0.37666113 13.8851775,0.58513289 14.1528184,0.850913621 C14.4200418,1.11710963 14.6279749,1.43438538 14.7770355,1.80232558 C14.9256785,2.17068106 15,2.56976744 15,3 C15,3.43023256 14.9256785,3.82931894 14.7770355,4.19767442 C14.6279749,4.5660299 14.4200418,4.88289037 14.1528184,5.14908638 C13.8851775,5.41528239 13.5691023,5.62375415 13.2041754,5.77408638 C12.8392484,5.9244186 12.4379958,6 12,6" id="Fill-28"></path>
                    <polygon id="Fill-29" points="20 0 24 0 24 0.661187082 20.7653684 0.661187082 20.7653684 2.6443119 23.7724073 2.6443119 23.7724073 3.30506255 20.7653684 3.30506255 20.7653684 6 20 6"></polygon>
                    <polygon id="Fill-30" points="33 0.661187082 30.8803993 0.661187082 30.8803993 6 30.1196007 6 30.1196007 0.661187082 28 0.661187082 28 0 33 0"></polygon>
                    <polygon id="Fill-31" points="37 0 37.7823685 0 39.1365679 4.98312482 39.1534629 4.98312482 40.6172632 0 41.4078627 0 42.8634321 4.98312482 42.8798939 4.98312482 44.2596524 0 45 0 43.2502843 6 42.4848107 6 41.0127796 0.915187664 40.9958846 0.915187664 39.5151893 6 38.7414848 6"></polygon>
                    <path d="M52.0346059,0.915187664 L52.0171913,0.915187664 L50.7423532,3.86412569 L53.2482697,3.86412569 L52.0346059,0.915187664 Z M51.7050681,0 L52.3900424,0 L55,6 L54.1502568,6 L53.5260103,4.52531277 L50.4565751,4.52531277 L49.8233981,6 L49,6 L51.7050681,0 Z" id="Fill-32"></path>
                    <path d="M59.6898594,2.6443119 L60.3061224,2.6443119 C60.4977266,2.6443119 60.6960981,2.63863835 60.9012372,2.62729124 C61.1067992,2.61638056 61.2954425,2.57928426 61.4680131,2.51687518 C61.6405837,2.45490253 61.7831236,2.35757928 61.8952099,2.22490544 C62.0072962,2.0922316 62.0635508,1.90151295 62.0635508,1.65274949 C62.0635508,1.43802735 62.022523,1.26563864 61.9404674,1.13558336 C61.8579888,1.0059645 61.7501322,0.905586267 61.6160516,0.834885074 C61.4815481,0.764183881 61.3309718,0.717922607 61.1643227,0.695228397 C60.9972507,0.672534187 60.8289098,0.661187082 60.6593,0.661187082 L59.6898594,0.661187082 L59.6898594,2.6443119 Z M59,0 L60.4867294,0 C60.7658877,0 61.0437771,0.0170206576 61.3199746,0.0510619727 C61.5965951,0.0851032878 61.8444538,0.158423043 62.0635508,0.271457667 C62.2822248,0.38449229 62.460294,0.549898167 62.5977583,0.767238871 C62.7343767,0.984579575 62.8028973,1.28004073 62.8028973,1.65274949 C62.8028973,2.09310445 62.6738924,2.44922898 62.4167283,2.72068665 C62.1591414,2.99170788 61.803426,3.1640966 61.3491594,3.23741635 L63,6 L62.1540658,6 L60.5768214,3.30549898 L59.6898594,3.30549898 L59.6898594,6 L59,6 L59,0 Z" id="Fill-33"></path>
                    <polygon id="Fill-34" points="68 0 71.8442887 0 71.8442887 0.661187082 68.7256145 0.661187082 68.7256145 2.54262438 71.6369703 2.54262438 71.6369703 3.20337504 68.7256145 3.20337504 68.7256145 5.33881292 72 5.33881292 72 6 68 6"></polygon>
                </g>
            </g>
        </g>
    </g>
</svg>