<?xml version="1.0" encoding="UTF-8"?>
<svg width="53px" height="53px" viewBox="0 0 53 53" version="1.1" xmlns="http://www.w3.org/2000/svg" xmlns:xlink="http://www.w3.org/1999/xlink">
    <!-- Generator: sketchtool 62 (101010) - https://sketch.com -->
    <title>32813057-4EC1-4ECE-A520-AFE31FAE8A14</title>
    <desc>Created with sketchtool.</desc>
    <defs>
        <circle id="path-1" cx="26.5" cy="26.5" r="26.5"></circle>
        <rect id="path-3" x="0" y="0" width="52.6942315" height="52.6942315"></rect>
    </defs>
    <g id="Asset-Artboard-Page" stroke="none" stroke-width="1" fill="none" fill-rule="evenodd">
        <g id="icon/angular-copy">
            <g id="Group-6">
                <g id="Placeholders-/-Icon-/-80px-Copy">
                    <g id="Group-12">
                        <mask id="mask-2" fill="white">
                            <use xlink:href="#path-1"></use>
                        </mask>
                        <use id="◼️-Background" fill="#FFFFFF" xlink:href="#path-1"></use>
                    </g>
                </g>
                <g id="logo/angular">
                    <g id="logo/java">
                        <mask id="mask-4" fill="white">
                            <use xlink:href="#path-3"></use>
                        </mask>
                        <g id="Mask"></g>
                        <g id="Group-14" mask="url(#mask-4)">
                            <g transform="translate(10.686580, 3.312500)" id="Java_Logo">
                                <g transform="translate(0.015343, 0.407420)">
                                    <path d="M9.61695128,32.6121439 C9.61695128,32.6121439 8.04629152,33.7325506 10.7360179,34.1106279 C13.9950573,34.5666397 15.6604206,34.5009696 19.250786,33.6692218 C19.250786,33.6692218 20.1966389,34.394381 21.5153017,35.0224286 C13.4640442,39.2499596 3.29364702,34.7774756 9.61695128,32.6121439 L9.61695128,32.6121439 Z" id="Path" fill="#000000"></path>
                                    <path d="M9.96849101,27.0611399 C9.96849101,27.0611399 8.11438272,28.6919057 10.947003,29.0396902 C14.610894,29.489035 17.5032532,29.5258833 22.5110784,28.3809695 C22.5110784,28.3809695 23.2020968,29.2148334 24.2903216,29.6705471 C14.0479696,33.2295947 2.64003872,29.9505489 9.96849101,27.0611399 L9.96849101,27.0611399 Z" id="Path" fill="#000000"></path>
                                    <path d="M18.3098003,19.1533663 C20.1109727,21.4904176 17.8375064,23.5917631 17.8375064,23.5917631 C17.8375064,23.5917631 22.4082972,20.9325589 20.3095986,17.6009464 C18.3487659,14.4954551 16.8454499,12.9528058 24.9840777,7.63262929 C24.9840777,7.63262929 12.2084505,11.228329 18.3098003,19.1533663 L18.3098003,19.1533663 Z" id="Path" fill="#D1D1D1"></path>
                                    <path d="M29.0109741,35.7743854 C29.0109741,35.7743854 30.2272564,36.8388592 27.6713601,37.6620685 C22.8112744,39.2249336 7.43925848,39.6963492 3.16966115,37.7246074 C1.63591399,37.0153623 4.51346234,36.0323202 5.41884612,35.8246993 C6.36286621,35.6078845 6.90187124,35.6474891 6.90187124,35.6474891 C5.19492684,34.371353 -4.13088778,38.1537916 2.16540268,39.2385729 C19.3356246,42.1933568 33.4641414,37.9076775 29.0109741,35.7743854 L29.0109741,35.7743854 Z" id="Path" fill="#000000"></path>
                                    <path d="M11.203075,22.9056312 C11.203075,22.9056312 3.92485162,24.9479382 8.62577507,25.6901958 C10.6112847,26.0039864 14.5669776,25.9317905 18.2543273,25.5664164 C21.2669651,25.2677974 24.2903225,24.6291253 24.2903225,24.6291253 C24.2903225,24.6291253 23.2288208,25.1669324 22.4602908,25.7863523 C15.0678731,28.0827052 0.789780496,27.0132642 4.90086266,24.6655371 C8.37603602,22.6799405 11.203075,22.9056312 11.203075,22.9056312 L11.203075,22.9056312 Z" id="Path" fill="#000000"></path>
                                    <path d="M25.1314094,29.6453218 C32.5039008,25.8649993 29.0947602,22.2317271 26.7153764,22.7210936 C26.1335252,22.8409473 25.8725005,22.9447575 25.8725005,22.9447575 C25.8725005,22.9447575 26.0892822,22.609562 26.5020715,22.465343 C31.2092948,20.8326912 34.8286111,27.2823092 24.9840777,29.8366414 C24.9839909,29.8366414 25.0972493,29.735405 25.1314094,29.6453218 L25.1314094,29.6453218 Z" id="Path" fill="#000000"></path>
                                    <path d="M20.9899502,0 C20.9899502,0 25.7422627,4.33850839 16.4811073,11.0080302 C9.05427188,16.3602114 14.7877488,19.4107395 16.4784763,22.8978884 C12.1428753,19.3291213 8.96279368,16.1870958 11.0958345,13.2632421 C14.2281532,8.97191349 22.9069446,6.89064819 20.9899502,0 L20.9899502,0 Z" id="Path" fill="#D1D1D1"></path>
                                </g>
                            </g>
                        </g>
                    </g>
                </g>
            </g>
        </g>
    </g>
</svg>