<?xml version="1.0" encoding="UTF-8"?>
<svg width="53px" height="53px" viewBox="0 0 53 53" version="1.1" xmlns="http://www.w3.org/2000/svg" xmlns:xlink="http://www.w3.org/1999/xlink">
    <!-- Generator: sketchtool 62 (101010) - https://sketch.com -->
    <title>D8A571C2-C9AA-47DA-A4BA-0925E535E6AC</title>
    <desc>Created with sketchtool.</desc>
    <defs>
        <circle id="path-1" cx="26.5" cy="26.5" r="26.5"></circle>
        <rect id="path-3" x="0" y="0" width="52.6942315" height="52.6942315"></rect>
    </defs>
    <g id="Asset-Artboard-Page" stroke="none" stroke-width="1" fill="none" fill-rule="evenodd">
        <g id="icon/angular-copy-5">
            <g id="Group-6">
                <g id="Placeholders-/-Icon-/-80px-Copy">
                    <g id="Group-12">
                        <mask id="mask-2" fill="white">
                            <use xlink:href="#path-1"></use>
                        </mask>
                        <use id="◼️-Background" fill="#FFFFFF" xlink:href="#path-1"></use>
                    </g>
                </g>
                <g id="logo/angular">
                    <g id="net-seeklogo.com">
                        <mask id="mask-4" fill="white">
                            <use xlink:href="#path-3"></use>
                        </mask>
                        <g id="Mask"></g>
                        <g mask="url(#mask-4)" id="Group">
                            <g transform="translate(7.848077, 15.696153)">
                                <g transform="translate(5.055857, 0.000000)">
                                    <path d="M30.9004249,1.82839383 C30.9004249,1.75922272 30.8810161,1.70977563 30.8411172,1.67745486 C30.79692,1.64266698 30.7204726,1.62411779 30.6140577,1.62411779 L30.4610696,1.62411779 L30.4610696,2.03530671 L30.6457072,2.03530671 C30.8162086,2.03530671 30.9004249,1.9661356 30.9004249,1.82839383 L30.9004249,1.82839383 Z M31.138964,2.68572914 L30.9287239,2.68572914 L30.7946508,2.39642186 C30.7265596,2.25144842 30.6537831,2.17896169 30.574279,2.17896169 L30.4610696,2.17896169 L30.4610696,2.68572914 L30.2878584,2.68572914 L30.2878584,1.47977089 L30.6349215,1.47977089 C30.789258,1.47977089 30.9051101,1.51245714 30.9846811,1.58062312 C31.0520648,1.63924691 31.0857566,1.71440963 31.0857566,1.80799099 C31.0857566,1.89102503 31.0582586,1.96087494 31.0028485,2.01880689 C30.9489336,2.07748289 30.8714183,2.11702228 30.7723853,2.13747729 L30.7723853,2.14269874 C30.8411172,2.15851972 30.909849,2.23232486 30.9765385,2.36543258 L31.138964,2.68638182 L31.138964,2.68572914 Z M31.523056,2.09460928 C31.523056,1.8573859 31.4402014,1.65706512 31.2750794,1.49822872 C31.1093168,1.33944453 30.9071525,1.2597261 30.6686134,1.2597261 C30.4226258,1.2597261 30.2178319,1.33944453 30.0554063,1.49959935 C29.8929808,1.66038074 29.8121684,1.85933089 29.8121684,2.09460928 C29.8121684,2.3351613 29.8963713,2.53612172 30.0634955,2.69627654 C30.2286175,2.85637914 30.4307684,2.93545794 30.6686134,2.93545794 C30.9051101,2.93545794 31.1072611,2.8557395 31.2737313,2.69358749 C31.4402014,2.53411147 31.523056,2.3338429 31.523056,2.09460928 L31.523056,2.09460928 Z M31.6396159,2.08938784 C31.6396159,2.35566856 31.5459756,2.57902899 31.3579875,2.75890782 C31.1699595,2.94014423 30.9394961,3.03039693 30.6638747,3.03039693 C30.3862908,3.03039693 30.155841,2.94146265 29.9724982,2.76680526 C29.7892622,2.58957631 29.698265,2.36684247 29.698265,2.09667177 C29.698265,1.8324013 29.7912512,1.61034623 29.9772369,1.42784362 C30.1632228,1.24596759 30.3950209,1.1550361 30.6720039,1.1550361 C30.9435408,1.1550361 31.1713076,1.24201234 31.3559452,1.4152991 C31.545268,1.59321989 31.6396159,1.81727216 31.6396159,2.08938784 L31.6396159,2.08938784 Z" id="Shape" fill="#000000" fill-rule="nonzero"></path>
                                    <path d="M5.28340295,5.45206468 L4.68572025,5.45206468 L4.68572025,2.10715388 C4.68572025,1.84293564 4.70351391,1.52135981 4.73532357,1.14179981 L4.7218415,1.14179981 C4.66588426,1.36384182 4.61466575,1.52463626 4.56954754,1.62417009 L2.83234991,5.45206468 L2.54124406,5.45206468 L0.800647872,1.65184375 C0.751590503,1.54571785 0.700270549,1.37502877 0.648356585,1.14179981 L0.63542181,1.14179981 C0.653750746,1.34144182 0.663994446,1.66501485 0.663994446,2.11374596 L0.663994446,5.45206468 L0.0878203142,5.45206468 L0.0878203142,0.470974479 L0.876231541,0.470974479 L2.43892986,3.94435898 C2.55682853,4.2059926 2.63300086,4.40499498 2.67003516,4.54073953 L2.69483417,4.54073953 C2.79655835,4.26857164 2.87742139,4.06428255 2.9387688,3.9298564 L4.53510821,0.470974479 L5.28308259,0.470974479 L5.28308259,5.45206468 L5.28340295,5.45206468 Z" id="Path" fill="#000000" fill-rule="nonzero"></path>
                                    <path d="M7.12195674,5.45190811 L6.54114667,5.45190811 L6.54114667,1.8948107 L7.12195674,1.8948107 L7.12195674,5.45190811 L7.12195674,5.45190811 Z M7.22239149,0.619694323 C7.22239149,0.724488756 7.18465505,0.812104631 7.1098229,0.883964789 C7.0364057,0.955759679 6.94546183,0.99203568 6.83894014,0.99203568 C6.73516827,0.99203568 6.64486513,0.957234738 6.57079386,0.887920035 C6.49666919,0.818070133 6.46022755,0.72908363 6.46022755,0.619694323 C6.46022755,0.516897094 6.49688276,0.429281221 6.57079386,0.358112904 C6.64486513,0.286944586 6.73516827,0.252678845 6.83894014,0.252678845 C6.94540843,0.252678845 7.0364057,0.286944586 7.1098229,0.358112904 C7.18465505,0.429281221 7.22239149,0.516897094 7.22239149,0.619694323 L7.22239149,0.619694323 Z" id="Shape" fill="#000000" fill-rule="nonzero"></path>
                                    <path d="M10.7519299,5.2873279 C10.4729579,5.45470136 10.140071,5.5377354 9.75527145,5.5377354 C9.23376906,5.5377354 8.81392948,5.3684039 8.49317641,5.03032831 C8.18184745,4.7021604 8.02486813,4.27847919 8.02486813,3.75920635 C8.02486813,3.17663653 8.19532952,2.7048658 8.53898875,2.3463874 C8.88065904,1.98723021 9.34023735,1.80799102 9.91840446,1.80799102 C10.2344188,1.80799102 10.514739,1.86861201 10.7600192,1.98854863 L10.7600192,2.57307649 C10.4884823,2.38656644 10.2014211,2.29430348 9.89344261,2.29430348 C9.52281924,2.29430348 9.2216352,2.42083218 8.98778141,2.6732369 C8.74449015,2.9315549 8.62120266,3.27684914 8.62120266,3.70781427 C8.62120266,4.12164 8.7337579,4.44912912 8.95748012,4.69098651 C9.18185643,4.93148632 9.48039745,5.05210174 9.85705438,5.05210174 C10.175111,5.05210174 10.4729579,4.94993108 10.7519299,4.74634689 L10.7519299,5.2873279 L10.7519299,5.2873279 Z" id="Path" fill="#000000" fill-rule="nonzero"></path>
                                    <path d="M13.5302632,2.47191107 C13.4278395,2.39484253 13.2802976,2.35724811 13.0855285,2.35724811 C12.8490317,2.35724811 12.6502179,2.46073718 12.489194,2.66959503 C12.3065453,2.90287619 12.2156014,3.22577043 12.2156014,3.63827774 L12.2156014,5.45175127 L11.6333897,5.45175127 L11.6333897,1.8946541 L12.2156014,1.8946541 L12.2156014,2.62811064 L12.2296174,2.62811064 C12.3152219,2.36847422 12.4473061,2.16878002 12.6238545,2.02713523 C12.788923,1.89798276 12.9756029,1.83271468 13.1811043,1.83271468 C13.3360947,1.83271468 13.4513464,1.84905782 13.5301564,1.88120886 L13.5301564,2.47165001 L13.5302632,2.47191107 Z" id="Path" fill="#000000" fill-rule="nonzero"></path>
                                    <path d="M16.775183,3.67981435 C16.775183,3.22450423 16.670063,2.87657316 16.4598228,2.63801834 C16.2556696,2.40870547 15.9705973,2.29404253 15.6033778,2.29404253 C15.2414844,2.29404253 14.951086,2.41002389 14.7340514,2.64197358 C14.5042823,2.88974426 14.3897381,3.23963338 14.3897381,3.69369034 C14.3897381,4.1193818 14.4989028,4.45344993 14.7192745,4.6919917 C14.9382447,4.93185189 15.2333952,5.05178851 15.6033778,5.05178851 C15.9861217,5.05178851 16.2792298,4.9299069 16.4800325,4.68740987 C16.676804,4.45017347 16.775183,4.11473471 16.775183,3.67981435 M17.3722248,3.65979015 C17.3722248,4.22649984 17.2085045,4.68187524 16.8823453,5.02321425 C16.5548645,5.36587166 16.1141611,5.53721343 15.5602484,5.53721343 C15.014425,5.53721343 14.5797551,5.36587166 14.2610578,5.02321425 C13.9490347,4.69304913 13.7920554,4.25681034 13.7920554,3.71451091 C13.7920554,3.09571729 13.9692444,2.61862068 14.3250375,2.27991851 C14.6538798,1.96561354 15.0938891,1.80745592 15.6451588,1.80745592 C16.1875783,1.80745592 16.6114625,1.97283219 16.9166911,2.30037352 C17.2192767,2.62984679 17.3722248,3.08322498 17.3722248,3.65979015" id="Shape" fill="#000000" fill-rule="nonzero"></path>
                                    <path d="M20.2596025,4.50026021 C20.2596025,4.79152555 20.1484489,5.03270416 19.9253807,5.22512751 C19.6821429,5.43335879 19.3479078,5.53747442 18.9274275,5.53747442 C18.5830609,5.53747442 18.2811692,5.4669849 18.0251034,5.32332986 L18.0251034,4.71112832 C18.3101758,4.93781743 18.6248285,5.05184075 18.9705434,5.05184075 C19.4314699,5.05184075 19.6625738,4.88578571 19.6625738,4.55498097 C19.6625738,4.41590776 19.6119026,4.30061822 19.5096392,4.21163172 C19.4072022,4.12070023 19.2083885,4.01198972 18.9125972,3.88478222 C18.6080093,3.75431134 18.391028,3.62056399 18.2630019,3.48150382 C18.1093596,3.31675413 18.0318445,3.10262261 18.0318445,2.83903094 C18.0318445,2.54381038 18.1524889,2.29799773 18.391028,2.10231097 C18.6302213,1.90593238 18.9375057,1.80773003 19.3148568,1.80773003 C19.6039737,1.80773003 19.8627358,1.86307735 20.0924916,1.97446387 L20.0924916,2.54776562 C19.8526042,2.37839496 19.578371,2.29404249 19.2670421,2.29404249 C19.0743286,2.29404249 18.9193382,2.34095719 18.8040866,2.43242386 C18.6875269,2.52599219 18.6288731,2.64530224 18.6288731,2.79090227 C18.6288731,2.94842025 18.6779292,3.07099371 18.7751336,3.15860957 C18.8613788,3.23968559 19.044668,3.33852756 19.320957,3.4538171 C19.6315785,3.58102459 19.8559949,3.71282695 19.9927643,3.84787965 C20.1700068,4.0185818 20.2596025,4.23604197 20.2596025,4.50026021" id="Path" fill="#000000" fill-rule="nonzero"></path>
                                    <path d="M23.8177872,3.67981435 C23.8177872,3.22450423 23.7126671,2.87657316 23.5017729,2.63801834 C23.2982737,2.40870547 23.0125474,2.29404253 22.6459819,2.29404253 C22.2840885,2.29404253 21.9936769,2.41002389 21.7753475,2.64197358 C21.5462458,2.88974426 21.432329,3.23963338 21.432329,3.69369034 C21.432329,4.1193818 21.5414936,4.45344993 21.759823,4.6919917 C21.9815563,4.93185189 22.2767068,5.05178851 22.6459819,5.05178851 C23.0293666,5.05178851 23.3218206,4.9299069 23.5226367,4.68740987 C23.7193947,4.45017347 23.8177872,4.11473471 23.8177872,3.67981435 M24.4161641,3.65979015 C24.4161641,4.22649984 24.2510955,4.68187524 23.9242556,5.02321425 C23.5981096,5.36587166 23.1574062,5.53721343 22.6034935,5.53721343 C22.0570293,5.53721343 21.6223594,5.36587166 21.3036486,5.02321425 C20.991639,4.69304913 20.8346463,4.25681034 20.8346463,3.71451091 C20.8346463,3.09571729 21.0131969,2.61862068 21.3670011,2.27991851 C21.6958433,1.96561354 22.1365467,1.80745592 22.6884039,1.80745592 C23.2308768,1.80745592 23.6540668,1.97283219 23.9586415,2.30037352 C24.2618813,2.62984679 24.4161641,3.08322498 24.4161641,3.65979015" id="Shape" fill="#000000" fill-rule="nonzero"></path>
                                    <path d="M26.9817225,0.686163309 C26.8671649,0.624223903 26.7398462,0.592594992 26.5949339,0.592594992 C26.1872282,0.592594992 25.985064,0.843629075 25.985064,1.34645435 L25.985064,1.8947062 L26.8375177,1.8947062 L26.8375177,2.37707647 L25.985064,2.37707647 L25.985064,5.45180342 L25.4022115,5.45180342 L25.4022115,2.37707647 L24.7836115,2.37707647 L24.7836115,1.8947062 L25.4022115,1.8947062 L25.4022115,1.31814106 C25.4022115,0.926663122 25.5248449,0.619589868 25.7741831,0.39817444 C25.9878137,0.205751092 26.249219,0.110224733 26.5598939,0.110224733 C26.7398462,0.110224733 26.8800062,0.131319376 26.9817225,0.172177192 L26.9817225,0.686163309 L26.9817225,0.686163309 Z" id="Path" fill="#000000" fill-rule="nonzero"></path>
                                    <path d="M29.2796795,5.41606274 C29.1422159,5.4931835 28.9589265,5.53140449 28.7325078,5.53140449 C28.0977427,5.53140449 27.7803802,5.1814762 27.7803802,4.48164575 L27.7803802,2.37759868 L27.1563876,2.37759868 L27.1563876,1.89454962 L27.7803802,1.89454962 L27.7803802,1.02671913 C27.9663661,0.969361538 28.1597336,0.906782504 28.3639402,0.842206266 L28.3639402,1.89454962 L29.2796795,1.89454962 L29.2796795,2.37759868 L28.3639402,2.37759868 L28.3639402,4.38481403 C28.3639402,4.6233558 28.4038256,4.79400573 28.4872277,4.8928477 C28.5714838,4.9950053 28.7089476,5.04509203 28.9030226,5.04509203 C29.0478813,5.04509203 29.1732112,5.00713212 29.2796795,4.93042907 L29.2796795,5.41606274 L29.2796795,5.41606274 Z" id="Path" fill="#000000" fill-rule="nonzero"></path>
                                </g>
                                <g transform="translate(0.067479, 7.519427)">
                                    <path d="M2.25345164,12.6641072 C2.25345164,12.9514098 2.14974059,13.2000142 1.94017507,13.409934 C1.73132404,13.6191407 1.47779152,13.7244571 1.18034372,13.7244571 C0.889711375,13.7244571 0.6423887,13.6191407 0.43974886,13.409934 C0.237054584,13.2000142 0.136091223,12.9514098 0.136091223,12.6641072 C0.136091223,12.3686641 0.237054584,12.1193465 0.43974886,11.9128579 C0.6423887,11.7056561 0.889711375,11.6031115 1.18034372,11.6031115 C1.47779152,11.6031115 1.73132404,11.7070689 1.94017507,11.9169349 C2.14974059,12.1268547 2.25345164,12.376105 2.25345164,12.6641072" id="Path" fill="#000000" fill-rule="nonzero"></path>
                                    <path d="M15.5440891,13.5085087 L13.6081098,13.5085087 L6.58072377,2.77833909 C6.41650114,2.52022158 6.27497851,2.23967369 6.15477865,1.93334499 L6.09701474,1.93334499 C6.14702962,2.22064756 6.17264063,2.83740889 6.17264063,3.78228342 L6.17264063,13.5085087 L4.57669342,13.5085087 L4.57669342,0.046381226 L6.64805082,0.046381226 L13.465214,10.6074417 C13.7366071,11.0265143 13.922045,11.3267342 14.016193,11.5074286 L14.054108,11.5074286 C13.9909072,11.1202456 13.9579867,10.4600094 13.9579867,9.52807913 L13.9579867,0.046381226 L15.544266,0.046381226 L15.544266,13.5085087 L15.5440891,13.5085087 Z" id="Path" fill="#000000" fill-rule="nonzero"></path>
                                    <polygon id="Path" fill="#000000" fill-rule="nonzero" points="25.7753595 13.5085087 18.5590133 13.5085087 18.5590133 0.046381226 25.4620776 0.046381226 25.4620776 1.47281587 20.1535942 1.47281587 20.1535942 5.95111371 25.0725708 5.95111371 25.0725708 7.37826151 20.1535942 7.37826151 20.1535942 12.0814148 25.7753595 12.0814148"></polygon>
                                    <polygon id="Path" fill="#000000" fill-rule="nonzero" points="36.7212465 1.47297736 32.7991653 1.47297736 32.7991653 13.5087242 31.2039311 13.5087242 31.2039311 1.47297736 27.2742424 1.47297736 27.2742424 0.0458968288 36.7212465 0.0458968288"></polygon>
                                </g>
                            </g>
                        </g>
                    </g>
                </g>
            </g>
        </g>
    </g>
</svg>