<?xml version="1.0" encoding="UTF-8"?>
<svg width="53px" height="53px" viewBox="0 0 53 53" version="1.1" xmlns="http://www.w3.org/2000/svg" xmlns:xlink="http://www.w3.org/1999/xlink">
    <!-- Generator: sketchtool 62 (101010) - https://sketch.com -->
    <title>0385C49A-0FB5-4EC5-B43D-98CFAC7CD2F8</title>
    <desc>Created with sketchtool.</desc>
    <defs>
        <circle id="path-1" cx="26.5" cy="26.5" r="26.5"></circle>
        <rect id="path-3" x="0" y="0" width="52.6942315" height="52.6942315"></rect>
    </defs>
    <g id="Asset-Artboard-Page" stroke="none" stroke-width="1" fill="none" fill-rule="evenodd">
        <g id="icon/angular-copy-3">
            <g id="Group-6">
                <g id="Placeholders-/-Icon-/-80px-Copy">
                    <g id="Group-12">
                        <mask id="mask-2" fill="white">
                            <use xlink:href="#path-1"></use>
                        </mask>
                        <use id="◼️-Background" fill="#FFFFFF" xlink:href="#path-1"></use>
                    </g>
                </g>
                <g id="logo/angular">
                    <g id="logo/php">
                        <mask id="mask-4" fill="white">
                            <use xlink:href="#path-3"></use>
                        </mask>
                        <g id="Mask"></g>
                        <g id="g3478" mask="url(#mask-4)">
                            <g transform="translate(26.652885, 26.347116) scale(1, -1) translate(-26.652885, -26.347116) translate(4.484615, 15.135577)">
                                <g id="g3484" transform="translate(0.299345, 0.365210)">
                                    <path d="M7.33474185,7.51051874 C8.65554282,7.51051874 9.64157302,7.75626734 10.265464,8.24069581 C10.8826771,8.72015409 11.3089679,9.55083957 11.5324039,10.709558 C11.7407325,11.792619 11.661364,12.548862 11.2965974,12.9569704 C10.9236203,13.3738042 10.1172365,13.5852032 8.89988826,13.5852032 L6.78912461,13.5852032 L5.61895954,7.51051874 L7.33474185,7.51051874 Z M0.430998199,0.0276122012 C0.333019183,0.0276122012 0.239966486,0.0717917234 0.177675916,0.148222297 C0.115275872,0.224542421 0.0899874333,0.325050834 0.108707446,0.422135334 L3.20988015,16.5201592 C3.23987596,16.6757815 3.37507605,16.7882184 3.53228037,16.7882184 L10.2160914,16.7882184 C12.3166739,16.7882184 13.8801781,16.2127801 14.8629241,15.0776978 C15.8509248,13.9366512 16.1560282,12.34166 15.7696953,10.3371246 C15.6124909,9.52046613 15.3420908,8.76201418 14.9660484,8.08297492 C14.5895681,7.40316253 14.0920099,6.77415658 13.4869484,6.21307665 C12.76267,5.52917765 11.9429305,5.03326251 11.0526899,4.74145677 C10.1765713,4.45351673 9.05140003,4.30750341 7.7084854,4.30750341 L5.00207509,4.30750341 L4.22919033,0.295781901 C4.19919452,0.140049085 4.0641039,0.0276122012 3.90689958,0.0276122012 L0.430998199,0.0276122012 Z" id="path3486" fill="#000000" fill-rule="nonzero"></path>
                                </g>
                                <g id="g3488" transform="translate(0.024478, 0.033919)">
                                    <path d="M7.33474196,13.5852027 L9.17477695,13.5852027 C10.6440243,13.5852027 11.154391,13.259931 11.3277974,13.0660933 C11.6154945,12.7442455 11.6697935,12.0656481 11.4848923,11.1037494 C11.2771111,10.0268736 10.8919824,9.263341 10.3400157,8.83457874 C9.77491212,8.39565519 8.85620831,8.1732113 7.60963058,8.1732113 L6.29222332,8.1732113 L7.33474196,13.5852027 Z M10.4909798,17.4509105 L3.80705943,17.4509105 C3.49265079,17.4509105 3.22236008,17.2260367 3.16236847,16.9146816 L0.0611958335,0.816658432 C0.0237558081,0.622378992 0.0743326845,0.421472624 0.199023295,0.268721933 C0.32382338,0.115971242 0.509709822,0.0276122012 0.705886797,0.0276122012 L4.18167863,0.0276122012 C4.49619674,0.0276122012 4.76648745,0.252485959 4.82647907,0.563841128 L5.54769219,4.30750322 L7.98337384,4.30750322 C9.36077267,4.30750322 10.5203187,4.45903898 11.4294983,4.75780298 C12.3645137,5.0642984 13.2247585,5.58396001 13.9861484,6.30231901 C14.6158415,6.88681406 15.1345282,7.54287994 15.527539,8.25251348 C15.9206592,8.96236792 16.2031015,9.75395447 16.3669837,10.6052938 C16.7736788,12.7153077 16.443287,14.4049535 15.3851136,15.626959 C14.3372308,16.837257 12.6905265,17.4509105 10.4909798,17.4509105 M5.49536413,7.51051874 L7.60963096,7.51051874 C9.01100463,7.51051874 10.054837,7.77681081 10.7406901,8.30950539 C11.4266527,8.84231041 11.8892889,9.73153373 12.1296933,10.9776171 C12.3596976,12.1739986 12.2549312,13.0182692 11.8153941,13.5100977 C11.3753095,14.0019263 10.4952499,14.2478957 9.17477738,14.2478957 L6.79328509,14.2478957 L5.49536413,7.51051874 M10.4909801,16.7882182 C12.5016847,16.7882182 13.9685237,16.2558549 14.8905117,15.191018 C15.8123903,14.1261811 16.0900157,12.6398715 15.7221839,10.7316476 C15.5707817,9.94558342 15.3147225,9.22689306 14.9542254,8.57579736 C14.5932904,7.92425986 14.1220059,7.32849901 13.5396055,6.78829391 C12.8455418,6.13300116 12.0745181,5.66602362 11.2260965,5.38791353 C10.3776748,5.1090303 9.29705929,4.97019615 7.98337414,4.97019615 L5.0061257,4.97019615 L4.1816788,0.690305 L0.705886844,0.690305 L3.80705958,16.7882182 L10.4909801,16.7882182" id="path3490" fill="#FFFFFF" fill-rule="nonzero"></path>
                                </g>
                                <g id="g3492" transform="translate(15.171203, 4.672713)">
                                    <path d="M8.86737452,0 C8.76928603,0 8.67634281,0.0441795221 8.61405224,0.120610095 C8.55154272,0.19693022 8.52625428,0.297328184 8.5449743,0.394523133 L9.91678998,7.51725614 C10.0472827,8.19463867 10.0150974,8.68083431 9.82625518,8.88626909 C9.71065089,9.01184938 9.36340012,9.22247525 8.33664573,9.22247525 L5.85137244,9.22247525 L4.12661336,0.268169699 C4.09661755,0.112436884 3.96141746,0 3.80421314,0 L0.355789719,0 C0.257701231,0 0.164758009,0.0441795221 0.102357966,0.120610095 C0.0399579234,0.19693022 0.014669485,0.297438633 0.0333894978,0.394523133 L3.13456216,16.492547 C3.16455797,16.6481693 3.29975806,16.7606062 3.45696238,16.7606062 L6.9053858,16.7606062 C7.00347429,16.7606062 7.09641751,16.7164267 7.15881755,16.6401066 C7.2212176,16.563676 7.24650604,16.463278 7.22778602,16.3660831 L6.4794234,12.480715 L9.15299156,12.480715 C11.1897509,12.480715 12.5708718,12.1184429 13.375285,11.3731344 C14.1952434,10.6128048 14.4510836,9.39709481 14.1357992,7.75935992 L12.692935,0.268169699 C12.6629392,0.112436884 12.5278486,0 12.3705348,0 L8.86737452,0 Z" id="path3494" fill="#000000" fill-rule="nonzero"></path>
                                </g>
                                <g id="g3496" transform="translate(14.851331, 4.313810)">
                                    <path d="M7.22526837,17.4509105 L3.77684483,17.4509105 C3.46232671,17.4509105 3.19203599,17.2260367 3.13204436,16.9146816 L0.0308716009,0.816658432 C-0.00656842608,0.622378992 0.0440084525,0.421472624 0.168808543,0.268721933 C0.293608633,0.115971242 0.479495082,0.0276122012 0.675672066,0.0276122012 L4.12409561,0.0276122012 C4.43850425,0.0276122012 4.70890445,0.252485959 4.76889607,0.563841128 L6.44198359,9.25008705 L8.65652835,9.25008705 C9.68153119,9.25008705 9.89664714,9.02918945 9.90529557,9.01969085 C9.96747666,8.95220663 10.0492536,8.63963653 9.91427241,7.93939113 L8.54245669,0.816658432 C8.50501666,0.622378992 8.55559354,0.421472624 8.68039363,0.268721933 C8.80519372,0.115971242 8.99108017,0.0276122012 9.18725715,0.0276122012 L12.6904176,0.0276122012 C13.0048262,0.0276122012 13.2752264,0.252485959 13.335218,0.563841128 L14.7779728,8.05503102 C15.1165751,9.81348638 14.8269075,11.1325764 13.9173995,11.9759634 C13.0494915,12.7801412 11.5956799,13.1710195 9.4728742,13.1710195 L7.19757151,13.1710195 L7.87006883,16.6617538 C7.90739939,16.8560332 7.85693198,17.0570501 7.73213189,17.2096903 C7.6073318,17.362441 7.42144535,17.4509105 7.22526837,17.4509105 M7.22526837,16.7882182 L6.40082145,12.508327 L9.47287421,12.508327 C11.4058525,12.508327 12.7391334,12.1679238 13.4729361,11.488001 C14.2067387,10.8076363 14.426562,9.70524683 14.1332818,8.18138468 L12.6904176,0.690305 L9.18725716,0.690305 L10.5590729,7.81292747 C10.7151825,8.62317989 10.6578182,9.17586571 10.3867612,9.47054312 C10.1155947,9.76522053 9.53877741,9.91278013 8.65652835,9.91278013 L5.90041688,9.91278013 L4.12409559,0.690305 L0.675672038,0.690305 L3.77684481,16.7882182 L7.22526837,16.7882182" id="path3498" fill="#FFFFFF" fill-rule="nonzero"></path>
                                </g>
                                <g id="g3500" transform="translate(27.428629, 0.365210)">
                                    <path d="M7.33474179,7.51051874 C8.6555427,7.51051874 9.64157286,7.75626734 10.2654638,8.24069581 C10.8826769,8.72004364 11.3089677,9.55072912 11.5325131,10.709558 C11.7408417,11.792619 11.6614732,12.548862 11.2965972,12.9569704 C10.9236201,13.3738042 10.1172363,13.5852032 8.89988814,13.5852032 L6.78912457,13.5852032 L5.61895955,7.51051874 L7.33474179,7.51051874 Z M0.431107669,0.0276122012 C0.333128653,0.0276122012 0.240075957,0.0717917234 0.177785387,0.148222297 C0.115385344,0.224542421 0.0899874316,0.325050834 0.108707445,0.422135334 L3.20988013,16.5201592 C3.23998541,16.6757815 3.37507603,16.7882184 3.53238983,16.7882184 L10.2160913,16.7882184 C12.3167833,16.7882184 13.8801781,16.2127801 14.8630335,15.0776978 C15.8510342,13.9367616 16.1560281,12.3417704 15.7698047,10.3371246 C15.6123814,9.52046613 15.3420907,8.76201418 14.9660483,8.08297492 C14.589568,7.40316253 14.0920098,6.77415658 13.4869483,6.21307665 C12.7626699,5.52917765 11.9429304,5.03326251 11.0526898,4.74145677 C10.1765713,4.45351673 9.05139998,4.30750341 7.70848537,4.30750341 L5.00196559,4.30750341 L4.22940926,0.295781901 C4.19930398,0.140049085 4.06421336,0.0276122012 3.90689956,0.0276122012 L0.431107669,0.0276122012 Z" id="path3502" fill="#000000" fill-rule="nonzero"></path>
                                </g>
                                <g id="g3504" transform="translate(27.153773, 0.033919)">
                                    <path d="M7.33474193,13.5852027 L9.17477688,13.5852027 C10.6440242,13.5852027 11.1543909,13.259931 11.3277973,13.0660933 C11.6156038,12.7442455 11.6699028,12.0656481 11.4848922,11.1038599 C11.277111,10.0268736 10.8918728,9.263341 10.3400156,8.83457874 C9.77491203,8.39565519 8.85620824,8.1732113 7.60963054,8.1732113 L6.2923328,8.1732113 L7.33474193,13.5852027 Z M10.4909801,17.4509105 L3.80716904,17.4509105 C3.49276039,17.4509105 3.22246967,17.2260367 3.16247805,16.9146816 L0.061305307,0.816658432 C0.0238652802,0.622378992 0.0744421585,0.421472624 0.199132774,0.268721933 C0.323932863,0.115971242 0.509819312,0.0276122012 0.705996295,0.0276122012 L4.18178826,0.0276122012 C4.4961969,0.0276122012 4.7665971,0.252485959 4.82658872,0.563841128 L5.54769239,4.30750322 L7.98337414,4.30750322 C9.36077302,4.30750322 10.5203191,4.45903898 11.4294987,4.75780298 C12.3645141,5.0642984 13.2249779,5.58407046 13.9863679,6.30253991 C14.616061,6.88692451 15.1345287,7.54287994 15.5275395,8.25251348 C15.9206598,8.96236792 16.2031021,9.75395447 16.3669843,10.6052938 C16.7736794,12.7154182 16.4432876,14.4050639 15.3851142,15.6270694 C14.3372313,16.837257 12.6906365,17.4509105 10.4909801,17.4509105 M5.49547361,7.51051874 L7.60963094,7.51051874 C9.01100459,7.51051874 10.0548369,7.77681081 10.7406901,8.30950539 C11.4267621,8.84231041 11.8892888,9.73153373 12.1296932,10.9776171 C12.359807,12.1739986 12.2550406,13.0182692 11.815394,13.5100977 C11.3753095,14.0019263 10.4952499,14.2478957 9.17477735,14.2478957 L6.79328508,14.2478957 L5.49547361,7.51051874 M10.4909801,16.7882182 C12.5016847,16.7882182 13.9685237,16.2558549 14.8905117,15.191018 C15.8124997,14.1261811 16.0900157,12.6398715 15.7221839,10.7316476 C15.5707817,9.94558342 15.3147225,9.22689306 14.9542254,8.57579736 C14.5932904,7.92425986 14.1220059,7.32849901 13.5396055,6.78829391 C12.8455418,6.13300116 12.0745181,5.66602362 11.2260965,5.38791353 C10.3776748,5.1090303 9.29705929,4.97019615 7.98337414,4.97019615 L5.0061257,4.97019615 L4.18178827,0.690305 L0.705996317,0.690305 L3.80716906,16.7882182 L10.4909801,16.7882182" id="path3506" fill="#FFFFFF" fill-rule="nonzero"></path>
                                </g>
                            </g>
                        </g>
                    </g>
                </g>
            </g>
        </g>
    </g>
</svg>