<?xml version="1.0" encoding="UTF-8"?>
<svg width="214px" height="80px" viewBox="0 0 214 80" version="1.1" xmlns="http://www.w3.org/2000/svg" xmlns:xlink="http://www.w3.org/1999/xlink">
    <!-- Generator: sketchtool 62 (101010) - https://sketch.com -->
    <title>340CD23C-1534-499A-8A31-AE915163DCAD</title>
    <desc>Created with sketchtool.</desc>
    <defs>
        <rect id="path-1" x="0" y="0.63625" width="214" height="79"></rect>
        <polygon id="path-3" points="0.279461632 0.227314533 2.36014386 0.227314533 2.36014386 9.10298473 0.279461632 9.10298473"></polygon>
    </defs>
    <g id="Asset-Artboard-Page" stroke="none" stroke-width="1" fill="none" fill-rule="evenodd">
        <g id="logo/cogne-copy-2">
            <g id="logo/cogne" transform="translate(0.000000, -1.000000)">
                <mask id="mask-2" fill="white">
                    <use xlink:href="#path-1"></use>
                </mask>
                <g id="Mask"></g>
                <g id="MongoDB_Logo_Dark" mask="url(#mask-2)">
                    <g transform="translate(38.000000, 23.000000)">
                        <g id="Group-3" stroke-width="1" fill="none" fill-rule="evenodd" transform="translate(6.827239, 25.813464)">
                            <g id="Fill-1-Clipped">
                                <mask id="mask-4" fill="white">
                                    <use xlink:href="#path-3"></use>
                                </mask>
                                <g id="path-1"></g>
                                <path d="M1.05971747,0.2601503 C0.864653508,2.56840714 0.60456823,4.2264508 0.376993611,4.81164267 L0.279461632,4.74662136 C0.929674829,6.2417866 0.864653508,8.77794317 0.864653508,8.77794317 L1.80746264,9.10304978 C1.80746264,9.10304978 1.61239868,6.63223963 1.87248396,5.4290201 C1.95863721,5.08083093 2.12574201,4.75800008 2.36014386,4.48653607 L2.26261188,4.48653607 C1.35231341,4.0638975 1.09222812,2.08074725 1.02720681,0.227314533 L1.05971747,0.2601503 Z" id="Fill-1" fill="#C2BFBF" fill-rule="nonzero" mask="url(#mask-4)"></path>
                            </g>
                        </g>
                        <path d="M15.3320272,13.8495736 C13.5114302,5.7544193 9.15500185,3.12105586 8.69985256,2.08071474 C8.29314421,1.4529339 7.94462993,0.789066225 7.65951145,0.0975644907 L7.65951145,3.25111111e-05 C7.59449013,0.715267027 7.59449013,1.00786297 6.91176628,1.72309748 C6.22904242,2.438332 0.442144974,7.05484569 0.0195063958,16.2228518 C-0.403132182,24.7731553 6.19653176,29.8773289 7.10683024,30.527542 L7.20436222,30.5925634 C7.46444749,30.0073715 7.72453277,28.3493279 7.88708607,26.041071 C7.91959673,27.8941786 8.179682,29.8773289 9.12249112,30.2999675 L9.18751248,30.2999675 C9.58641825,30.0099724 9.9664679,29.6952692 10.3253856,29.3571583 L10.3578962,29.3571583 C12.5361104,27.3089868 16.7624962,22.2048132 15.3320272,13.8495736" id="Fill-4" fill="#FFFFFF" fill-rule="nonzero"></path>
                        <path d="M15.3320272,13.8495736 C13.5114302,5.7544193 9.15500185,3.12105586 8.69985256,2.08071474 C8.29314421,1.4529339 7.94462993,0.789066224 7.65951145,0.0975644899 C8.08215002,1.7881188 8.01712871,15.2800426 8.08215002,16.9055756 C8.17643094,19.9521495 8.11140963,23.0013243 7.88708607,26.041071 C7.91959673,27.8941786 8.179682,29.8773289 9.12249112,30.2999675 L9.18751248,30.2999675 C9.58641825,30.0099724 9.9664679,29.6952692 10.3253856,29.3571583 L10.3578962,29.3571583 C12.5361104,27.3089868 16.7624962,22.2048132 15.3320272,13.8495736" id="Fill-6" fill="#ECECEC" fill-rule="nonzero"></path>
                        <path d="M105.061448,26.2361675 C105.614129,26.6909916 106.752003,26.8863807 107.759833,26.8863807 C108.767339,26.8863807 110.328175,26.6588061 111.56358,25.520933 C112.798985,24.3830599 113.709284,22.5949736 113.709284,19.7990568 C113.709284,17.0031401 112.668617,14.9224579 110.58826,13.6220315 C109.385366,12.8742863 107.857365,12.5816903 106.101789,12.5816903 C105.651192,12.5547065 105.199619,12.6099746 104.768853,12.7442437 C104.652789,12.8460021 104.572813,12.983197 104.540953,13.1343716 C104.476256,13.6220315 104.476256,17.2632253 104.476256,19.4414396 C104.476256,21.6196538 104.476256,24.7731878 104.540953,25.1308051 C104.567612,25.5680734 104.766576,25.9773826 105.093959,26.2686782 M99.6643534,11.378796 L102.68817,11.4438172 C104.215846,11.4438172 105.256513,11.378796 108.08494,11.378796 C110.913367,11.378796 112.473879,12.0290091 113.904348,13.2644142 C115.334817,14.4998193 116.537711,16.8405868 116.537711,19.3760932 C116.537711,22.9851015 114.879667,25.0654587 113.254134,26.2361675 C111.628601,27.4065513 109.482898,28.1539713 106.426896,28.1539713 L99.6971892,28.0892751 L99.6643534,28.0892751 C99.5671467,27.8617005 99.8597429,27.048934 100.054807,27.0160982 C100.433231,27.0014684 100.806453,26.9240931 101.160169,26.7888487 C101.647829,26.5937847 101.777546,26.3336994 101.810382,25.4559116 C101.875403,23.797868 101.875403,21.8143927 101.875403,19.5714823 C101.875403,17.9784599 101.907914,14.8249259 101.842893,13.8496061 C101.777546,12.8742863 101.420254,12.809265 100.70502,12.6467117 L99.1766933,12.419137 C99.1119977,12.2565838 99.5346365,11.5413492 99.6643534,11.378796" id="Fill-8" fill="#FFFFFF" fill-rule="nonzero"></path>
                        <path d="M123.234712,12.7442437 C123.13718,12.7767543 123.007462,13.0368396 123.007462,13.1668823 C122.974626,14.142202 122.942441,16.6455228 122.942441,18.3685878 C122.954795,18.4345845 123.006162,18.4862764 123.072159,18.4986304 L125.022798,18.5633267 C126.063139,18.5633267 126.648331,18.4336092 126.973438,18.2710558 C127.851226,17.8484172 128.241354,16.9056081 128.241354,15.8977777 C128.241354,13.5570101 126.615821,12.6792082 124.210032,12.6792082 C123.88395,12.6785722 123.558193,12.7003542 123.234712,12.7442437 M129.379226,23.4399256 C129.379226,21.0994832 127.656487,19.7665462 124.470442,19.7665462 C124.014643,19.7519164 123.558844,19.7626449 123.104995,19.7990568 C123.039648,19.8315675 122.942441,19.8637531 122.942441,19.9290995 C122.942441,21.6196538 122.909605,24.3180386 123.007462,25.3905652 C123.072159,25.8460396 123.397265,26.4962527 123.787393,26.6588061 C124.177521,26.8213594 125.185352,26.951402 125.8684,26.951402 C127.721508,26.951402 129.379226,25.9110609 129.379226,23.4399256 M118.358113,11.4438172 C118.585688,11.4438172 119.333433,11.5088386 121.154355,11.5088386 L125.965607,11.4438172 C128.046615,11.4438172 130.907553,12.1915625 130.907553,15.2800751 C130.907553,16.8080761 129.834701,18.0434812 128.436417,18.6286731 C128.338886,18.6611837 128.338886,18.6936944 128.436417,18.72588 C130.452079,19.2463756 132.207979,20.4492701 132.207979,22.8225482 C132.207979,25.1958263 130.777185,26.5612741 128.696828,27.4715725 C127.428587,28.0242538 125.8684,28.2193178 124.275053,28.2193178 C122.682356,28.2193178 119.788582,28.0892751 118.000495,28.1217858 C117.805757,28.0567644 118.163049,27.1786516 118.325603,27.048934 C118.744015,27.0349544 119.158851,26.969608 119.561007,26.8535449 C120.211221,26.6909916 120.276242,26.4962527 120.373774,25.520933 C120.471306,24.5456132 120.438796,21.7171858 120.438796,19.6039929 C120.438796,16.7105441 120.471306,14.7599046 120.438796,13.8170954 C120.406609,12.8742863 120.146199,12.8417756 119.626028,12.6792223 L118.000495,12.4516477 C117.870453,12.3216051 118.293416,11.5088386 118.423134,11.4113066" id="Fill-10" fill="#FFFFFF" fill-rule="nonzero"></path>
                        <path d="M21.411423,28.1541014 C21.3346979,27.9808195 21.3012119,27.7909573 21.313891,27.6017453 C21.3129157,27.4756039 21.3467268,27.3517383 21.411423,27.2438028 L22.4517641,27.0162283 C22.9394241,26.8865108 23.1019774,26.6264255 23.134488,26.0409085 C23.1995093,24.6107646 23.23202,21.9123798 23.1995093,19.9939257 L23.1995093,19.9289044 C23.2375468,19.6717451 23.1390395,19.4129603 22.9394241,19.2465057 C22.4950033,18.972766 22.0131953,18.7646977 21.508955,18.628478 C21.2813804,18.5634567 21.1513377,18.4337392 21.1513377,18.3033715 C21.1513377,18.1736539 21.313891,18.0111006 21.606487,17.9460793 C22.8513202,17.7662953 24.0724205,17.4502917 25.2476809,17.002945 C25.3312332,17.1147817 25.3663448,17.2555528 25.3452128,17.3930729 L25.3452128,17.6531582 C25.3127022,17.9132435 25.3127022,18.2383501 25.3127022,18.530946 C25.3286324,18.6258772 25.4115346,18.6947998 25.5077662,18.6934993 L25.6378088,18.628478 C27.1658098,17.4255836 28.5312575,17.002945 29.246492,17.002945 C29.9617265,17.002945 31.3271743,17.5556262 32.0098981,18.6934993 C32.0437092,18.7520186 32.1051544,18.7887555 32.1724514,18.7910313 L32.3350047,18.72601 C33.7329631,17.6531582 35.1309214,17.002945 36.0737306,17.002945 C38.2844555,17.002945 39.6173925,18.6613138 39.6173925,21.4247199 L39.6173925,24.188126 L39.6173925,26.3335044 C39.6586811,26.576034 39.8166829,26.7828018 40.0400311,26.8865108 C40.4799004,27.0506896 40.9386257,27.1599254 41.4054788,27.2116173 L41.4379895,27.2116173 C41.4643231,27.5207937 41.4197835,27.8322458 41.3079468,28.1215907 L40.6902443,28.1215907 L38.8696474,28.0565694 C37.4066676,28.0565694 36.6264118,28.0894051 35.9111773,28.1215907 C35.8481066,27.8218424 35.8481066,27.5113656 35.9111773,27.2116173 L36.8214757,27.0162283 C37.276625,26.853675 37.4391783,26.658611 37.4391783,26.0409085 C37.4391783,25.423531 37.5367102,21.7169907 37.374157,20.7745067 C37.2382625,19.5456037 36.1706123,18.634655 34.9358575,18.6934993 C34.0447403,18.7464918 33.1926359,19.0761498 32.497558,19.6366336 C32.4390388,19.6980787 32.4042524,19.7790303 32.400026,19.8638831 C32.4965827,20.5092197 32.5290933,21.1626839 32.497558,21.8145227 L32.497558,23.3753595 L32.497558,26.2362975 C32.4751257,26.597491 32.726433,26.9186963 33.0827499,26.9837176 L33.4403672,27.0812495 L34.1881123,27.2438028 C34.2433805,27.4684515 34.2433805,27.7022032 34.1881123,27.9268518 C34.1744578,28.0094289 34.1409718,28.0874545 34.0905803,28.1541014 L31.2296423,28.0894051 L28.6287895,28.0894051 C28.5744967,27.9440825 28.5523894,27.7886816 28.5637682,27.6339308 C28.557266,27.4869826 28.5910771,27.3410098 28.6613002,27.2116173 L28.9864067,27.1462709 L29.7666626,26.9837176 C30.1567905,26.853675 30.3193438,26.6264255 30.3518545,26.1387655 C30.4168758,24.9358711 30.4818971,21.5222519 30.3193438,20.6766496 C30.0267478,19.311527 29.246492,18.5962925 27.9785763,18.5962925 C27.0926609,18.6460338 26.2421819,18.9633379 25.5402768,19.5062658 C25.3910528,19.6509383 25.3084758,19.8512039 25.3127022,20.0592722 L25.3127022,21.4894161 C25.3127022,23.2128062 25.3127022,25.3581846 25.3452128,26.2684831 C25.3419618,26.646257 25.6209033,26.9671371 25.995426,27.0162283 L26.5481073,27.1140853 L26.9707458,27.1787816 C27.0227629,27.4834064 27.0003305,27.7951837 26.9057245,28.0894051 L26.0279367,28.0894051 L24.1748291,28.0243838 L22.2567002,28.0894051 L21.411423,28.0894051" id="Fill-12" fill="#FFFFFF" fill-rule="nonzero"></path>
                        <path d="M48.5252807,18.1735889 C48.0659052,18.1605846 47.6130317,18.2851004 47.2248544,18.5312061 C46.2820453,19.1160729 45.7943853,20.253946 45.7943853,21.9123148 C45.7943853,25.0333381 47.354897,27.2437379 49.5981326,27.2437379 C50.2051066,27.2651949 50.7971257,27.0558263 51.2561762,26.6588711 C51.9389,26.1058648 52.329028,24.9358061 52.329028,23.3424587 C52.329028,20.253946 50.8010269,18.1735889 48.5252807,18.1735889 M48.9804301,28.4144467 C44.9165975,28.4144467 43.4861285,25.423466 43.4861285,22.6600599 C43.4077778,20.8355617 44.2975946,19.1056695 45.826896,18.1085676 C46.9231555,17.4323458 48.1803427,17.0620494 49.4680899,17.0357157 C52.5566026,17.0357157 54.7348168,19.2786262 54.7348168,22.4646709 C54.7348168,24.642885 53.857029,26.3337645 52.231496,27.4062912 C51.2366699,28.0077384 50.108875,28.3539769 48.9479193,28.4144467" id="Fill-14" fill="#FFFFFF" fill-rule="nonzero"></path>
                        <path d="M89.9114485,18.2059695 C89.4520729,18.1929652 88.9991992,18.3178062 88.611022,18.5635868 C87.6682127,19.1487786 87.1805528,20.2866517 87.1805528,21.9446954 C87.1805528,25.0657187 88.7410646,27.2764436 90.9843001,27.2764436 C91.5955008,27.2884725 92.1881694,27.0677251 92.642344,26.6587411 C93.3250679,26.1060598 93.7151955,24.9356761 93.7151955,23.3426537 C93.7151955,20.2541411 92.1871942,18.1734588 89.9114485,18.1734588 M90.3340873,28.4143167 C86.2702543,28.4143167 84.8397853,25.423336 84.8397853,22.6599299 C84.7799657,20.8406333 85.6814863,19.1243956 87.2130635,18.1409482 C88.3093231,17.4647264 89.56651,17.09443 90.8542575,17.0680964 C93.9427705,17.0680964 96.1209846,19.3113319 96.1209846,22.4973766 C96.1209846,24.6755908 95.243196,26.3661451 93.6176632,27.4389968 C92.6228375,28.0404441 91.4950427,28.3863575 90.3340873,28.4468273" id="Fill-16" fill="#FFFFFF" fill-rule="nonzero"></path>
                        <path d="M76.2244279,18.0434162 C74.9565122,18.0434162 74.1762564,19.018736 74.1762564,20.546737 C74.1762564,22.074738 74.8589803,23.8953349 76.8421305,23.8953349 C77.2989053,23.8852566 77.7368239,23.7122999 78.0775355,23.4076751 C78.5326848,22.9850365 78.8252808,22.1397593 78.8252808,21.1969502 C78.8252808,19.2137999 77.849961,18.0109055 76.2244279,18.0109055 M76.0618746,28.6093807 C75.709134,28.6077551 75.3619202,28.6974845 75.0540442,28.8694659 C74.0787244,29.5196791 73.5910008,30.1373816 73.5910008,30.8851269 C73.5858628,31.5603732 73.8992656,32.1988826 74.4363417,32.6081918 C75.1190656,33.1933837 76.0618746,33.4859796 77.2972797,33.4859796 C79.7355792,33.4859796 80.808431,32.1855532 80.808431,30.8851269 C80.808431,29.5847004 80.3532817,29.3896365 79.4429833,29.0320192 C78.3454234,28.7134147 77.2042992,28.5710181 76.0618746,28.6093807 M76.2244279,34.8189166 C74.7614483,34.8189166 73.7211072,34.5263207 72.8108087,33.8110862 C72.058512,33.246051 71.5942598,32.3773661 71.5428929,31.4378081 C71.555247,30.9911115 71.7282037,30.5639215 72.0305529,30.2349136 C72.6999473,29.5690953 73.4411904,28.9806523 74.2412777,28.479338 C74.3040233,28.4445516 74.3267808,28.3655507 74.2919943,28.3028051 C74.2802905,28.281023 74.2627347,28.2637923 74.2412777,28.2517634 C73.1359153,27.8291248 72.778298,27.1138903 72.680766,26.7237623 L72.680766,26.6587411 C72.6212715,26.5046405 72.6752392,26.3300582 72.8108087,26.2361025 L73.4935325,25.8134639 C73.8677302,25.6011693 74.2263228,25.362216 74.5663843,25.0982294 C74.6431095,25.051414 74.6671674,24.9512812 74.620352,24.8748812 C74.6005205,24.8423704 74.5699605,24.8179875 74.5338736,24.8056335 C72.87583,24.2529522 72.0305529,23.0175471 72.0305529,21.1319289 C72.0221001,19.9456149 72.5923371,18.8295239 73.5585539,18.1409482 C74.574512,17.4588745 75.7513978,17.0550921 76.9721732,16.9705645 L77.0371945,16.9705645 C77.9335133,16.9985236 78.8161777,17.1971637 79.6380472,17.5557563 C80.1367608,17.7413922 80.6666845,17.8298212 81.1985589,17.8158416 C81.8156112,17.8668833 82.4232355,17.6406091 82.8566026,17.198139 C82.9173975,17.35354 82.9502333,17.5186941 82.9541346,17.685799 C82.9801431,18.0765771 82.8774094,18.4647544 82.6615386,18.7911613 C82.3972269,19.0866832 82.0175025,19.2528128 81.6211975,19.2463106 L81.4911548,19.2463106 L80.8734523,19.1487786 L80.7759203,19.1487786 C80.7434097,19.1812893 80.7759203,19.2463106 80.7759203,19.3113319 C80.8545961,19.6536692 80.9088889,20.0012081 80.9384737,20.351673 C80.9384737,22.3348233 80.1582178,23.1801004 79.3129406,23.797803 C78.4975733,24.4057523 77.5300561,24.7773492 76.5170239,24.8706547 L75.8668107,24.8706547 C75.6717467,24.9356761 75.2165975,25.1632507 75.2165975,25.5533786 C75.2165975,25.9435065 75.4441721,26.3336345 76.4520026,26.4311664 L77.1022158,26.4311664 C78.4676635,26.5286984 80.1582178,26.6587411 80.9384737,26.9188263 C82.0272556,27.2982257 82.7486672,28.3343405 82.7265599,29.4871685 C82.7265599,31.2427441 81.4586442,32.9007877 79.377962,33.9411288 C78.383786,34.41741 77.2943538,34.6622153 76.1919173,34.6563633" id="Fill-18" fill="#FFFFFF" fill-rule="nonzero"></path>
                        <path d="M70.0148594,27.2114872 C69.4875365,27.1656472 68.9715924,27.0339791 68.4868584,26.8213594 C68.3828243,26.7147244 68.3145519,26.5785047 68.2917945,26.4312314 C68.2267732,25.6184649 68.2267732,23.2126761 68.2267732,21.6196538 C68.2267732,20.0263063 67.9991985,19.2135398 67.4790279,18.4007734 C66.8606752,17.4855983 65.820009,16.9468967 64.7156219,16.9706294 C63.6752808,16.9706294 62.2448117,17.6858639 61.1069386,18.6936944 C61.074428,18.72588 60.9118747,18.8884332 60.9118747,18.6286731 C60.9118747,18.3685878 60.9443853,17.8159066 60.976896,17.4908 C61.0009539,17.3116663 60.9408092,17.1318823 60.8143427,17.0031401 C59.6312798,17.4677175 58.3984756,17.7950998 57.1406382,17.9784599 C56.5554462,18.0756667 56.4254036,18.6286731 57.0431062,18.823737 C57.5369431,18.9599567 58.0076974,19.1683501 58.4410646,19.4414396 C58.6341778,19.6114703 58.7213064,19.8722058 58.6686391,20.1241635 C58.7011499,21.9122497 58.7011499,24.6756559 58.6036179,26.1711462 C58.5711072,26.756338 58.4085538,26.9839127 57.9859153,27.0814447 L58.018426,27.0814447 L57.0105955,27.2765086 C56.874701,27.6211216 56.874701,28.0044222 57.0105955,28.3493603 C57.2706807,28.3493603 58.6686391,28.2843391 59.8065122,28.2843391 C60.9443853,28.2843391 62.1797904,28.3493603 62.602429,28.3493603 C62.7672581,28.0164513 62.8017194,27.6338008 62.699961,27.2765086 C62.3270637,27.2583026 61.9567673,27.2040098 61.5945985,27.1139553 C61.17196,27.0160982 61.0419173,26.7888487 61.0419173,26.3011888 C60.976896,25.0332731 60.976896,22.3673989 60.976896,20.5468021 C60.9320313,20.2246214 61.0402918,19.8998399 61.269492,19.6690142 C61.8923961,19.1540453 62.6723269,18.8669762 63.4802168,18.8562477 C64.0823142,18.8292638 64.6727078,19.0259533 65.1382605,19.4089289 C65.5683765,19.7945053 65.8356141,20.3289806 65.8860056,20.9044193 C65.9835376,21.9122497 65.951027,23.9604213 65.951027,25.7156718 C65.951027,26.6909916 65.8860056,26.9188913 65.5283884,27.0160982 C65.1714213,27.1393136 64.7998245,27.2160388 64.423026,27.243998 C64.2604727,27.4065513 64.325494,28.1539713 64.423026,28.3165246 C65.1382605,28.3165246 65.951027,28.2518284 67.1214107,28.2518284 C68.2917945,28.2518284 69.5597102,28.3165246 69.9173275,28.3165246 C70.0821565,27.9836155 70.1166178,27.6012901 70.0148594,27.243998" id="Fill-20" fill="#FFFFFF" fill-rule="nonzero"></path>
                        <path d="M136.271681,28.1217207 C135.104549,28.1217207 134.158488,27.1756605 134.158488,26.0085278 C134.158488,24.8413952 135.104549,23.8953349 136.271681,23.8953349 C137.438815,23.8953349 138.384874,24.8413952 138.384874,26.0085278 C138.403081,27.1574545 137.485955,28.1035148 136.337028,28.1217207 C136.315246,28.1220459 136.293464,28.1220459 136.271681,28.1217207 Z M136.271681,24.1229096 C135.212484,24.1050287 134.339248,24.9490054 134.321367,26.0082028 C134.303161,27.0674001 135.147463,27.9406364 136.20666,27.9585172 C137.265857,27.9767232 138.139094,27.1324213 138.156974,26.0732241 C138.1573,26.0624956 138.1573,26.051767 138.1573,26.0410385 C138.175181,24.9997221 137.345834,24.1411155 136.304517,24.1232347 C136.293464,24.1229096 136.28241,24.1229096 136.271681,24.1229096 Z M136.791852,27.3739756 L136.238846,26.2035918 L135.816532,26.2035918 L135.816532,27.3739756 L135.491426,27.3739756 L135.491426,24.7406121 L136.271681,24.7406121 C136.856874,24.7406121 137.084448,25.0006974 137.084448,25.4883573 C137.124762,25.826143 136.898162,26.1379203 136.563953,26.2035918 L137.116959,27.4064862 L136.791852,27.3739756 Z M135.816532,25.9435065 L136.271681,25.9435065 C136.629299,25.9435065 136.791852,25.8134639 136.791852,25.4883573 C136.791852,25.1632507 136.66181,25.033208 136.238846,25.033208 L135.816532,25.033208 L135.816532,25.9435065 Z" id="Fill-22" fill="#FFFFFF" fill-rule="nonzero"></path>
                    </g>
                </g>
            </g>
        </g>
    </g>
</svg>