<?xml version="1.0" encoding="UTF-8"?>
<svg width="214px" height="80px" viewBox="0 0 214 80" version="1.1" xmlns="http://www.w3.org/2000/svg" xmlns:xlink="http://www.w3.org/1999/xlink">
    <!-- Generator: sketchtool 62 (101010) - https://sketch.com -->
    <title>01505F20-EBC6-4B3B-87E8-ABD04F1A07F5</title>
    <desc>Created with sketchtool.</desc>
    <defs>
        <rect id="path-1" x="0" y="0.63625" width="214" height="79"></rect>
        <rect id="path-3" x="0" y="0.63625" width="214" height="79"></rect>
    </defs>
    <g id="Asset-Artboard-Page" stroke="none" stroke-width="1" fill="none" fill-rule="evenodd">
        <g id="logo/cogne-copy-3">
            <g id="logo/cogne" transform="translate(0.000000, -1.000000)">
                <mask id="mask-2" fill="white">
                    <use xlink:href="#path-1"></use>
                </mask>
                <g id="Mask"></g>
                <g mask="url(#mask-2)">
                    <g transform="translate(0.000000, 1.000000)">
                        <mask id="mask-4" fill="white">
                            <use xlink:href="#path-3"></use>
                        </mask>
                        <g id="Mask" stroke="none" fill="none"></g>
                        <g id="mysql-1" stroke="none" stroke-width="1" fill="none" fill-rule="evenodd" mask="url(#mask-4)">
                            <g transform="translate(59.000000, 9.000000)" fill="#FFFFFF" fill-rule="nonzero" id="Shape">
                                <path d="M0.3752325,45.4811625 L3.545775,45.4811625 L3.545775,32.9200537 L8.49666375,43.8717937 C9.05779125,45.18855 9.8627625,45.6762375 11.4233625,45.6762375 C12.9845363,45.6762375 13.7407388,45.18855 14.3259638,43.8717937 L19.252755,32.9200537 L19.252755,45.4811625 L22.4479688,45.4811625 L22.4479688,32.9200537 C22.4479688,31.700835 21.9602813,31.11561 20.9355638,30.7989 C18.5212238,30.0673687 16.9112813,30.7013625 16.17975,32.3354025 L11.325825,43.1649337 L6.6428775,32.3354025 C5.93544375,30.7013625 4.30083,30.0673687 1.86181875,30.7989 C0.8617725,31.1161837 0.374085,31.700835 0.374085,32.9200537 L0.374085,45.4811625 L0.3752325,45.4811625 Z M25.0826288,35.2621012 L28.2772688,35.2621012 L28.2772688,42.16374 C28.2531713,42.5550375 28.3994775,43.4323012 30.1304813,43.4569725 C31.03299,43.4816437 37.0085963,43.4569725 37.057365,43.4569725 L37.057365,35.2127587 L40.2525788,35.2127587 L40.2525788,46.5064537 C40.2525788,49.2868462 36.8135213,49.8961687 35.2041525,49.92084 L25.155495,49.92084 L25.155495,47.7985387 L35.2288238,47.7985387 C37.277685,47.5787925 37.0338413,46.5546487 37.0338413,46.2126937 L37.0338413,45.383625 L30.2773613,45.383625 C27.1309163,45.3601012 25.1067263,43.9693312 25.0826288,42.3834862 C25.0826288,42.2377537 25.155495,35.3102962 25.0826288,35.2621012 L25.0826288,35.2621012 Z M93.619935,27.2617312 C91.669185,27.2129625 90.1562063,27.4080375 88.887645,27.9444937 C88.5221663,28.0913737 87.9363675,28.0913737 87.8881725,28.5538162 C88.0832475,28.7500387 88.1079188,29.066175 88.2783225,29.33469 C88.570935,29.8223775 89.08272,30.4810425 89.5468838,30.8229975 C90.0592425,31.2131475 90.5710275,31.6027237 91.1080575,31.9446787 C92.059335,32.5299037 93.1316738,32.871285 94.0588538,33.45651 C94.5958838,33.798465 95.13234,34.2373837 95.66937,34.6028625 C95.9373113,34.7979375 96.1088625,35.1152212 96.4490963,35.2368562 L96.4490963,35.16399 C96.2786925,34.9442437 96.2304975,34.62696 96.0589463,34.3831162 C95.8156763,34.1398462 95.5712588,33.9201 95.327415,33.6762562 C94.620555,32.7249787 93.7427175,31.8953362 92.79144,31.2131475 C92.0105663,30.6761175 90.30366,29.9445862 89.9863763,29.0415037 L89.9370338,28.9933087 C90.4740638,28.9451137 91.1080575,28.7500387 91.6204163,28.6031587 C92.449485,28.3834125 93.2062613,28.4316075 94.0588538,28.2130087 C94.4523275,28.1100385 94.8428235,27.9960083 95.2298775,27.8710537 L95.2298775,27.6513075 C94.790385,27.2123887 94.4748225,26.62659 94.0106588,26.2123425 C92.7667688,25.13943 91.40067,24.090615 89.9863763,23.2122037 C89.2301738,22.7245162 88.2536513,22.4072325 87.4492538,21.992985 C87.1566413,21.8466787 86.6695275,21.7732387 86.4979763,21.529395 C86.0584838,20.992365 85.8157875,20.285505 85.4985038,19.6515112 C84.7916438,18.3100837 84.1077338,16.82235 83.4984113,15.4080562 C83.0589188,14.4567787 82.7915513,13.5055012 82.2545213,12.6276637 C79.74207,8.4811725 77.0098725,5.969295 72.81576,3.5056125 C71.9126775,2.99325375 70.8403388,2.77408125 69.6939863,2.50556625 C69.0846638,2.48146875 68.4747675,2.4327 67.8642975,2.40802875 C67.4741475,2.23705125 67.0845713,1.774035 66.7426163,1.55428875 C65.3529938,0.67645125 61.7670563,-1.22610375 60.7429125,1.2863475 C60.0842475,2.87161875 61.7188613,4.43221875 62.279415,5.23776375 C62.6942363,5.79889125 63.2306925,6.432885 63.523305,7.06687875 C63.6937088,7.48112625 63.7430513,7.92061875 63.913455,8.3595375 C64.3047525,9.43245 64.6696575,10.6275712 65.1820163,11.6276175 C65.451105,12.1399762 65.7437175,12.6764325 66.0850988,13.1394487 C66.2801738,13.4079637 66.6209813,13.5295987 66.6944213,13.9690912 C66.3524663,14.4567787 66.327795,15.18831 66.13272,15.7982062 C65.2554563,18.5545012 65.59569,21.9688875 66.83958,23.9936512 C67.2308775,24.6035475 68.1574838,25.944975 69.4013738,25.4326162 C70.4983838,24.9936975 70.2539663,23.6035012 70.57125,22.3842825 C70.6452638,22.0910962 70.5959213,21.8960212 70.7428013,21.70152 L70.7428013,21.7502887 C71.0847563,22.4330512 71.42499,23.0917162 71.7422738,23.7744787 C72.4984763,24.9696 73.8152325,26.21349 74.91339,27.0425587 C75.498615,27.4814775 75.962205,28.23768 76.69431,28.506195 L76.69431,28.4321812 L76.6449675,28.4321812 C76.4980875,28.2135825 76.2794888,28.1148975 76.0844138,27.9444937 C75.6449213,27.505575 75.15666,26.968545 74.8158525,26.4814312 C73.7905613,25.1153325 72.8886263,23.6029275 72.083655,22.0423275 C71.693505,21.2866987 71.3521238,20.4570562 71.03484,19.7008537 C70.88796,19.4082412 70.88796,18.9693225 70.64469,18.8230162 C70.2780638,19.3594725 69.7416075,19.8230625 69.4736663,20.4811537 C69.01065,21.5299687 68.9613075,22.8226275 68.7914775,24.164055 C68.6927925,24.1881525 68.742135,24.164055 68.6927925,24.2128237 C67.9130663,24.0177487 67.645125,23.2127775 67.351365,22.530015 C66.6198338,20.7978637 66.4987725,18.0174712 67.1327663,16.0179525 C67.30317,15.5055937 68.0347013,13.8956512 67.7420888,13.4079637 C67.5952088,12.9443737 67.108095,12.6764325 66.8390063,12.31038 C66.5217225,11.84679 66.1814888,11.261565 65.9617425,10.7492062 C65.3759438,9.38368125 65.0833313,7.87127625 64.4487638,6.5051775 C64.1561513,5.87118375 63.6443663,5.21251875 63.229545,4.62729375 C62.7665288,3.96862875 62.2535963,3.50503875 61.8881175,2.72473875 C61.7659088,2.45622375 61.595505,2.017305 61.79058,1.7246925 C61.8399225,1.5296175 61.9363125,1.4561775 62.132535,1.4079825 C62.4498188,1.1394675 63.3517538,1.48084875 63.6690375,1.627155 C64.5709725,1.9932075 65.3277488,2.334015 66.0839513,2.84637375 C66.4247588,3.0902175 66.7908113,3.5538075 67.2303038,3.67601625 L67.7426625,3.67601625 C68.5223888,3.84642 69.4013738,3.724785 70.132905,3.9439575 C71.42499,4.358205 72.5960138,4.968675 73.6448288,5.62676625 C76.8394688,7.65095625 79.4741288,10.52946 81.2550488,13.9685175 C81.5476613,14.529645 81.66987,15.04143 81.9372375,15.6272287 C82.4495963,16.82235 83.08359,18.0415687 83.5959488,19.2125925 C84.1083075,20.358945 84.5954213,21.529395 85.3275263,22.4806725 C85.6941525,22.9930312 87.157215,23.2609725 87.8153063,23.5294875 C88.3041413,23.74866 89.0603438,23.9443087 89.4986888,24.21225 C90.3277575,24.7246087 91.1574,25.3098337 91.9382738,25.8709612 C92.3267025,26.1641475 93.5459213,26.7740437 93.619935,27.2617312 L93.619935,27.2617312 Z"></path>
                                <path d="M68.7415612,6.06625875 C68.32674,6.06625875 68.0347012,6.1150275 67.7420887,6.18789375 L67.7420887,6.2366625 L67.7902837,6.2366625 C67.9853587,6.6268125 68.3273137,6.89475375 68.57001,7.23670875 C68.7662325,7.62685875 68.9366362,8.01700875 69.1317112,8.4077325 L69.1810537,8.35896375 C69.5230087,8.11454625 69.6934125,7.72497 69.6934125,7.13917125 C69.5465325,6.96819375 69.5230087,6.79779 69.4008,6.6268125 C69.2533462,6.3835425 68.9360625,6.2619075 68.7415612,6.06625875 L68.7415612,6.06625875 Z M42.6927375,45.4811625 L51.8629837,45.4811625 C52.93647,45.4811625 53.9606137,45.2625638 54.7902562,44.87184 C56.1810262,44.2378463 56.8396912,43.38468 56.8396912,42.2618513 L56.8396912,39.9209513 C56.8396912,39.0190163 56.0834887,38.1647025 54.57051,37.5789038 C53.7907837,37.2862913 52.8142612,37.1158875 51.8629837,37.1158875 L48.0096787,37.1158875 C46.71702,37.1158875 46.1071237,36.7257375 45.9361462,35.8719975 C45.9120487,35.77446 45.9120487,35.6769225 45.9120487,35.579385 L45.9120487,34.14042 C45.9120487,34.0664063 45.9120487,33.9688688 45.9361462,33.8713313 C46.1071237,33.2126663 46.448505,33.0422625 47.57076,32.9200538 L56.9607525,32.9200538 L56.9607525,30.7989 L48.0337762,30.7989 C46.7411175,30.7989 46.058355,30.8717663 45.4484587,31.0668413 C43.570575,31.6520663 42.7409325,32.57982 42.7409325,34.2132863 L42.7409325,36.0664988 C42.7409325,37.5054638 44.350875,38.7246825 47.0824987,39.0184425 C47.3751112,39.0419663 47.692395,39.0419663 48.0096787,39.0419663 L51.30243,39.0419663 C51.4246387,39.0419663 51.5457,39.0419663 51.644385,39.0666375 C52.6438575,39.164175 53.08335,39.3357263 53.3759625,39.7006313 C53.5710375,39.8957063 53.6192325,40.0672575 53.6192325,40.2858563 L53.6192325,42.1402163 C53.6192325,42.358815 53.4735,42.652575 53.1808875,42.8952713 C52.888275,43.1396888 52.424685,43.3100925 51.8147887,43.3347638 C51.69258,43.3347638 51.6197137,43.359435 51.497505,43.359435 L42.6927375,43.359435 L42.6927375,45.4811625 Z M76.6931625,41.798835 C76.6931625,43.9693313 78.3272025,45.18855 81.5947087,45.4329675 C81.9119925,45.4576388 82.2051787,45.4811625 82.521315,45.4811625 L90.8148712,45.4811625 L90.8148712,43.3600088 L82.4484487,43.3600088 C80.5952362,43.3600088 79.8878025,42.895845 79.8878025,41.7741638 L79.8878025,30.7989 L76.6931625,30.7989 L76.6931625,41.798835 L76.6931625,41.798835 Z M58.8633075,41.8957988 L58.8633075,34.3349213 C58.8633075,32.407695 60.2294062,31.2366713 62.88759,30.8711925 C63.1802025,30.8465213 63.4733887,30.8229975 63.74133,30.8229975 L69.7903762,30.8229975 C70.10766,30.8229975 70.3756012,30.8465213 70.6923112,30.8711925 C73.3516425,31.2366713 74.69307,32.407695 74.69307,34.3349213 L74.69307,41.8957988 C74.69307,43.4569725 74.1313687,44.2860413 72.8151862,44.8477425 L75.93696,47.67633 L72.253485,47.67633 L69.71751,45.383625 L67.1557162,45.530505 L63.74133,45.530505 C63.1157538,45.5275568 62.4930669,45.4454315 61.8881175,45.2860875 C59.86278,44.7255338 58.8633075,43.6520475 58.8633075,41.8957988 L58.8633075,41.8957988 Z M62.302365,41.7259688 C62.302365,41.8235063 62.35056,41.9210438 62.3752312,42.0432525 C62.5467825,42.9205163 63.3758512,43.4082038 64.643265,43.4082038 L67.5223425,43.4082038 L64.8876825,41.0179613 L68.57001,41.0179613 L70.8873862,43.1155913 C71.3268787,42.8711738 71.5953937,42.5303663 71.6929312,42.0914475 C71.716455,41.99391 71.716455,41.8717013 71.716455,41.7741638 L71.716455,34.53057 C71.716455,34.4330325 71.716455,34.335495 71.6929312,34.2379575 C71.52138,33.4088888 70.6923112,32.944725 69.4484212,32.944725 L64.643265,32.944725 C63.2289712,32.944725 62.302365,33.5540475 62.302365,34.53057 L62.302365,41.7259688 L62.302365,41.7259688 Z M92.2785075,45.50526 L92.7415237,45.50526 L92.7415237,43.72434 L93.3508462,43.72434 L93.3508462,43.3588613 L91.64394,43.3588613 L91.64394,43.72434 L92.2779337,43.72434 L92.2779337,45.50526 L92.2785075,45.50526 Z M95.8151025,45.50526 L96.2534475,45.50526 L96.2534475,43.359435 L95.59593,43.359435 L95.0589,44.8230713 L94.473675,43.359435 L93.8385337,43.359435 L93.8385337,45.50526 L94.2545025,45.50526 L94.2545025,43.87122 L94.2780262,43.87122 L94.8873487,45.50526 L95.2046325,45.50526 L95.8151025,43.87122 L95.8151025,45.50526 Z"></path>
                            </g>
                        </g>
                    </g>
                </g>
            </g>
        </g>
    </g>
</svg>